<svg width="189" height="88" viewBox="0 0 189 88" fill="none" xmlns="http://www.w3.org/2000/svg">
<rect width="188.767" height="87.5675" rx="15.4383" fill="white" fill-opacity="0.41"/>
<g clip-path="url(#clip0_958_22492)">
<path d="M94.3877 22.3462C95.2767 22.3878 96.1258 22.7274 96.7984 23.3102C97.7149 24.1778 97.9552 25.6245 97.5214 26.782C95.8351 30.2531 91.8247 32.5716 89.0843 33.3386C87.4448 33.7242 85.3722 33.7242 83.8773 33.1458C83.1536 33.5796 82.543 34.9816 81.6594 34.399C80.3803 33.4001 81.4875 31.8367 80.7491 30.7274C80.5969 30.499 80.2134 30.4823 80.0206 30.1085C79.0077 27.8906 80.2616 25.7691 81.6594 24.0821C83.9897 21.4821 90.6756 18.5852 94.3877 22.3462ZM86.6254 24.0814C85.3233 24.3224 83.8528 24.889 83.0579 25.8173C82.2622 26.745 81.7565 27.6496 82.2385 28.6136C83.9262 27.3604 84.7456 25.6245 86.6261 24.5641C86.6254 24.3706 86.9146 24.226 86.6254 24.0814ZM94.4848 24.5641C91.1576 24.2742 88.6505 26.782 86.288 29.192C86.1434 29.5776 85.2758 30.0114 85.9506 30.4452C89.1332 30.7344 92.1705 29.8193 94.4848 27.6971C95.1603 27.0705 95.6409 26.2511 95.3049 25.3828C95.1603 25.0461 94.8201 24.7087 94.4848 24.5641ZM123.315 38.9312C124.858 42.6922 126.159 48.6215 123.315 52.2379C122.543 53.1055 121.194 53.9054 120.326 53.2501C117.144 50.6955 115.795 47.0309 113.818 43.7519C113.529 43.6073 113.529 43.9936 113.384 44.1382C112.661 47.4647 114.011 51.8041 111.745 54.4069C110.878 54.5515 110.066 54.1052 109.768 53.2501C108.659 49.8272 109.815 46.259 110.104 42.8361C110.78 41.1002 111.069 39.0758 112.564 37.7737C114.975 38.7377 116.131 41.4383 117.529 43.4152C118.542 44.9094 119.361 46.5971 120.518 47.9467C121.53 47.5129 121.032 46.1899 121 45.3914C120.613 42.2577 119.746 39.365 118.926 36.3759C118.879 35.6047 118.445 34.3026 119.263 33.8206C121.436 34.7853 122.35 37.0507 123.315 38.9312ZM108.755 37.7737C108.755 38.4974 108.176 39.4014 107.693 39.5096C103.065 40.2326 97.9063 39.7988 93.5676 41.2448C93.423 41.775 94.0496 41.8714 94.387 42.016C98.0984 42.5944 102.005 42.739 105.621 43.6555C107.533 44.141 108.225 46.4043 108.37 48.2841C108.459 49.7665 107.889 51.5624 106.441 52.5753C102.874 54.8414 97.4264 54.7443 93.8093 52.6724C92.4268 51.897 91.1094 50.648 91.013 49.1049C91.0213 47.8797 91.5439 46.915 92.4115 46.4532C95.8833 45.0547 100.174 45.8273 103.164 47.61C103.355 48.5747 102.311 48.5223 101.812 48.8639C98.4847 50.7926 95.9783 46.6956 92.8928 48.1884C92.459 48.4776 92.1453 49.2845 92.6518 49.5387C96.4603 51.2264 100.703 50.0207 104.464 48.9603C104.897 48.8157 105.428 48.3819 105.476 47.9481C105.331 46.405 103.596 46.0683 102.487 45.6345C99.2084 44.8151 95.5927 44.8151 92.0727 44.4777C91.3979 44.3331 90.5379 43.863 90.3375 43.3209C89.9519 42.1641 89.9519 40.5728 90.8195 39.6088C95.3028 35.655 102.1 35.9931 107.789 37.0535C108.176 37.1953 108.609 37.3399 108.755 37.7737ZM87.6865 39.606C88.1203 44.2339 88.3613 48.5258 88.2649 53.3947C88.1685 54.0206 87.4455 54.1659 86.9635 54.4069C86.1923 54.5515 85.1954 54.3874 84.8902 53.9731C83.7816 52.1883 84.1672 49.779 84.0708 47.6093C84.2154 44.1871 84.1672 40.4743 85.1319 37.2917C85.3163 36.8293 85.8549 36.4241 86.2887 36.7126C87.4455 37.2917 87.6383 38.4492 87.6865 39.606ZM141.251 38.9312C141.483 39.321 141.726 39.9232 141.251 40.1844C139.082 41.1484 136.141 40.7146 133.634 41.0038C132.959 41.5822 132.428 42.5462 132.668 43.4145C132.911 43.5591 133.127 43.7792 133.393 43.7512C134.934 43.8483 137.249 43.0282 138.263 44.4742C138.51 44.9045 138.229 46.5112 137.54 46.5475C135.659 46.7899 132.566 46.3114 131.657 46.7899C130.5 47.5611 130.596 49.0553 130.162 50.2617C130.982 50.7919 131.84 50.2492 132.813 50.1164C134.598 49.8272 136.575 49.297 138.358 49.6826C138.695 50.3092 139.178 50.9847 138.84 51.7559C135.801 54.1666 131.88 56.6374 127.704 54.8896C126.136 54.1869 125.438 51.8041 125.968 49.7804C126.305 48.3337 127.799 46.9359 126.884 45.3928C126.74 44.7173 127.126 44.1396 127.704 43.995C129.295 43.995 128.957 42.0181 129.777 41.1016C128.861 40.0894 126.548 40.1376 126.789 38.1125C127.898 37.5341 129.248 37.7269 130.5 37.5341C133.344 36.955 136.526 36.6176 139.421 36.955C139.997 37.071 140.769 38.2082 141.251 38.9312ZM72.4029 27.9388C76.8519 31.5755 82.6241 37.7744 81.9011 44.9094C81.0328 50.5509 75.0546 54.7932 69.9922 56.1435C65.0744 57.5895 58.9034 57.4449 53.8885 56.2881C53.5511 57.2046 53.2137 58.3125 52.1533 58.6988C51.4785 58.9398 50.6102 58.7952 50.08 58.3614C48.5858 56.9629 49.7908 54.263 47.6211 53.3961C43.3781 51.612 38.7977 48.092 36.6287 43.7533C36.3395 42.8857 36.6769 42.0181 37.2071 41.3433C40.5343 38.6916 44.7284 37.6312 48.9232 36.8111C49.1642 36.9075 49.0678 36.5701 49.2606 36.4737C49.5016 33.581 49.598 30.6394 50.5138 28.0359C50.7226 27.6706 51.2368 27.5539 51.5749 27.7949C54.2266 29.8193 52.9727 33.6292 54.1302 36.3766C59.1926 36.6176 64.255 36.8586 68.2563 39.7038C69.6066 40.8124 69.9356 42.9297 69.5095 44.1396C69.084 45.3474 67.6779 46.2129 66.3758 46.3079C65.5075 46.3079 63.8687 46.3925 63.9651 45.7302C64.0615 45.0673 66.9143 43.9825 66.0384 43.0778C64.7789 41.7778 58.4772 41.0045 54.5716 40.5225C54.0896 40.4261 53.6475 40.5707 53.6475 41.1009C53.5511 44.7648 53.2619 48.8143 53.8885 52.335C53.9367 52.5767 54.2259 52.8659 54.4676 52.9127C61.3616 54.022 68.6419 53.3947 74.0417 49.4416C76.5488 47.4179 77.3689 44.5713 76.9344 41.4383C74.7647 32.712 65.6528 27.4561 58.1797 24.0814C50.9001 20.8995 42.8479 19.26 34.218 19.6945C32.8439 19.7951 30.6665 20.2694 30.6505 20.7556C30.6344 21.2418 33.117 21.0888 32.8195 22.0088C32.5226 22.9281 29.9994 22.3826 29.252 22.1534C28.5045 21.9243 28.5772 20.8513 28.77 20.1765C30.6505 16.85 35.898 16.5811 38.2682 16.4644C51.3814 16.1263 64.0622 21.1203 72.4029 27.9388ZM48.7786 40.8599C45.4514 40.9081 41.9321 41.2455 38.8466 42.4023C38.22 42.6433 37.4481 43.3181 37.9301 44.1382C39.1833 45.8252 40.9757 47.2105 42.6551 48.1877C44.3344 49.1636 46.5607 50.4056 48.5858 50.6955C49.0678 47.5611 49.0678 44.4756 49.0196 41.2455C48.8261 41.1491 49.0189 40.9563 48.7786 40.8599ZM148.434 36.4723C148.289 40.6664 144.383 43.2706 144.383 47.4647C144.528 47.6093 144.625 47.8021 144.817 47.7071C147.952 44.2835 151.037 39.4139 155.617 37.9679C156.824 37.8715 157.915 38.9201 158.366 39.7038C159.957 42.8857 159.573 47.3697 157.354 50.2624C155.065 53.102 151.086 55.9514 146.555 55.4687C144.676 60.0973 143.371 64.9669 142.648 70.0293C142.263 71.0415 141.348 70.1257 140.769 69.9329C136.864 66.8474 140.071 58.6793 140.336 57.637C140.6 56.5976 141.645 54.1457 142.41 52.0926C140.577 48.815 141.734 44.8605 143.228 41.8232C144.385 39.7981 145.978 37.773 147.858 36.2306C148.096 36.2313 148.289 36.2795 148.434 36.4723ZM156.198 41.6793C155.619 41.5829 155.377 42.3548 154.896 42.4994C152.679 45.0065 150.46 47.5136 149.351 50.5027C150.847 50.6955 152.099 49.7315 153.402 49.2013C155.619 47.8028 157.018 45.4899 156.873 42.8375C156.776 42.4023 156.39 42.0649 156.198 41.6793Z" fill="black"/>
</g>
<defs>
<clipPath id="clip0_958_22492">
<rect width="134.65" height="60" fill="white" transform="translate(27 14)"/>
</clipPath>
</defs>
</svg>
