<svg width="189" height="88" viewBox="0 0 189 88" fill="none" xmlns="http://www.w3.org/2000/svg">
<rect width="188.767" height="87.5675" rx="15.4383" fill="white" fill-opacity="0.41"/>
<path fill-rule="evenodd" clip-rule="evenodd" d="M69.2469 54.7714C68.9341 54.7714 68.6495 54.9393 68.4788 55.242C68.2797 55.5442 68.1941 55.9811 68.166 56.5523V56.586L70.1853 56.5523V56.4517C70.1853 55.9142 70.1287 55.511 69.9862 55.242C69.8444 54.9061 69.5883 54.7714 69.2469 54.7714ZM107.991 54.7714C107.82 54.5033 107.564 54.3682 107.251 54.3682C106.796 54.3682 106.512 54.6371 106.312 55.2083C106.198 55.6452 106.142 56.2505 106.113 57.0234C106.113 57.9641 106.17 58.6704 106.284 59.0737C106.426 59.5443 106.711 59.7791 107.166 59.7463C107.536 59.7463 107.82 59.5447 107.991 59.1078C108.19 58.6372 108.275 57.9318 108.304 56.9901C108.304 55.9147 108.218 55.1746 107.991 54.7714ZM89.1594 56.3179V56.3507L91.1509 56.3179V56.2164C91.1509 55.6452 91.0939 55.242 90.9799 55.0067C90.8092 54.6708 90.5531 54.5361 90.2122 54.5361C89.8994 54.5361 89.6432 54.6713 89.444 55.0067C89.273 55.3094 89.1594 55.7467 89.1594 56.3179Z" fill="#161616"/>
<path fill-rule="evenodd" clip-rule="evenodd" d="M128.7 33.6992C127.96 29.9012 126.339 26.5068 123.836 23.549C121.389 20.6926 118.345 18.4407 114.619 16.7936C110.921 15.1469 106.825 14.2394 102.415 14.0378C97.8356 13.8362 93.1987 14.441 88.5052 15.8528C83.8113 17.2309 79.459 19.3145 75.4766 22.0703C71.6079 24.7255 68.3366 27.8176 65.6624 31.3466C62.9601 34.9089 61.0825 38.6395 60.0016 42.5045C58.8921 46.5373 58.693 50.47 59.4611 54.2676C60.2292 58.0988 61.8506 61.4936 64.3538 64.4506C66.7718 67.2737 69.8443 69.5257 73.5424 71.2064C77.2691 72.8189 81.3366 73.7606 85.7458 73.9622C90.3542 74.1638 94.9911 73.559 99.6561 72.1472C104.378 70.7695 108.702 68.6855 112.713 65.9634C116.553 63.3082 119.824 60.182 122.527 56.6534C125.201 53.0911 127.078 49.36 128.159 45.4619C129.298 41.4627 129.468 37.5304 128.7 33.6992ZM102.757 40.4541C103.724 39.345 104.464 38.1016 105.004 36.6561C105.576 35.2132 105.886 33.6449 105.914 32.0521C105.914 31.4567 105.885 30.8619 105.829 30.2703C107.08 31.8163 107.962 33.4293 108.474 35.1101C108.958 36.8241 109.044 38.5044 108.673 40.1178C108.275 41.7981 107.45 43.2431 106.17 44.5202C104.975 45.73 103.439 46.7057 101.619 47.377C99.7413 48.0834 97.7208 48.4529 95.5308 48.5203C93.2553 48.5531 90.9794 48.2513 88.6469 47.6123C86.3425 46.9738 84.1807 46.0331 82.218 44.8229C80.3119 43.6127 78.6909 42.235 77.3538 40.689C76.0452 39.1097 75.1349 37.4626 74.6226 35.7823C74.0825 34.0009 73.997 32.2869 74.3953 30.6403C74.7081 29.1948 75.3626 27.9177 76.358 26.809C77.2683 25.6999 78.4629 24.7587 79.9136 24.0533C81.3358 23.3141 82.9291 22.8099 84.6927 22.5072C86.4847 22.2046 88.3338 22.1713 90.2683 22.3393C88.8461 23.448 87.6796 24.8597 86.826 26.5737C85.9442 28.3555 85.4893 30.2707 85.4323 32.2874C85.4038 33.9008 85.6599 35.4132 86.1719 36.8919C86.6557 38.3032 87.3668 39.5471 88.2767 40.6225C89.1984 41.6864 90.2916 42.5207 91.4914 43.0756C92.7386 43.7111 94.0874 44.0207 95.4453 43.9832C96.8394 43.9832 98.1761 43.6473 99.4558 43.0083C100.68 42.4034 101.789 41.5296 102.757 40.4541ZM95.7589 28.2545C95.7303 29.3637 95.3605 30.2707 94.6775 31.044C94.0234 31.8168 93.1987 32.1863 92.2599 32.22C91.3215 32.22 90.5249 31.8505 89.8704 31.1109C89.2159 30.3718 88.9031 29.3969 88.9316 28.3214C88.9316 27.2123 89.3014 26.3048 89.984 25.532C90.667 24.7587 91.4633 24.3892 92.402 24.3555C93.3408 24.3555 94.1371 24.7255 94.7919 25.4983C95.446 26.2379 95.7589 27.1786 95.7589 28.2545ZM84.1241 52.3515L84.1811 49.5621L85.8876 49.8652L85.7454 58.4015C85.7169 59.948 85.774 60.9224 85.9161 61.3926H84.3798C84.3228 61.292 84.2943 61.1245 84.2658 60.9224C83.8394 61.3926 83.3274 61.6279 82.7299 61.6279C81.9048 61.6279 81.2507 61.2583 80.7673 60.5192C80.2834 59.7792 80.0561 58.7711 80.0846 57.4944C80.1131 56.2169 80.3978 55.1751 80.9094 54.3682C81.4499 53.5617 82.1329 53.1585 82.9861 53.1252C83.4411 53.1252 83.8394 53.2932 84.1522 53.5613C84.1241 53.3269 84.0959 52.9227 84.1241 52.3515ZM87.2247 57.3588C87.2532 55.947 87.566 54.8383 88.1065 54.0997C88.6754 53.3269 89.358 52.9564 90.2117 52.9564C91.0364 52.9227 91.6624 53.2254 92.0889 53.7966C92.6863 54.5357 92.9421 55.7126 92.914 57.3588V57.8635L89.1023 57.9309V57.9974C89.0737 58.6022 89.1878 59.1069 89.4151 59.4428C89.6427 59.7787 89.984 59.9476 90.439 59.9476C91.0079 59.9476 91.5769 59.6786 92.1459 59.1074L92.8 60.384C92.0034 61.1568 91.1786 61.5273 90.2683 61.5601C89.3295 61.5601 88.5899 61.1905 88.021 60.4514C87.4809 59.6786 87.1966 58.6363 87.2247 57.3588ZM76.3869 54.9731C76.0452 54.9731 75.6188 55.2084 75.192 55.6794L75.0783 61.5273H73.3429L73.4569 55.5779C73.4569 54.8725 73.4003 54.2339 73.2578 53.6627L74.8221 53.0916C74.9643 53.4611 75.0498 53.797 75.0213 54.1329L75.7894 53.4952C76.1877 53.2599 76.5857 53.1585 77.0125 53.1257C77.3542 53.1257 77.6955 53.2599 77.9798 53.4616C78.2926 53.6969 78.4632 53.9654 78.5769 54.3017C78.6339 54.5698 78.6909 54.9735 78.6624 55.4778L78.5769 61.4599L76.87 61.4936L76.9555 56.15C76.984 55.6794 76.927 55.3426 76.8419 55.2084C76.7848 55.0404 76.6142 54.9389 76.3869 54.9731ZM71.9492 57.6282V58.133L68.1374 58.1657V58.2331C68.1089 58.838 68.2229 59.3427 68.4502 59.6786C68.7064 60.0481 69.0192 60.2161 69.4741 60.1824C70.0716 60.1824 70.6402 59.9143 71.1525 59.3427L71.8355 60.6193C71.0389 61.3921 70.2138 61.7626 69.2754 61.7954C68.3651 61.7954 67.6255 61.4258 67.0565 60.6867C66.516 59.9139 66.2314 58.9053 66.2599 57.5941C66.2884 56.1823 66.6012 55.0736 67.1416 54.335C67.6821 53.5613 68.3932 53.1917 69.2469 53.1917C70.0716 53.1917 70.6976 53.4607 71.124 54.0319C71.7215 54.7714 71.9777 55.9812 71.9492 57.6282ZM111.604 52.1836C111.63 51.3651 111.611 50.5455 111.547 49.73L113.338 49.2262C113.395 49.6294 113.395 50.3686 113.395 51.3439L113.225 58.4347C113.225 58.9722 113.253 59.309 113.367 59.5106C113.453 59.6786 113.623 59.7787 113.936 59.7787L114.562 59.5771L114.761 60.8546C114.249 61.1236 113.766 61.2579 113.338 61.2579C112.883 61.2579 112.514 61.1564 112.201 60.9557C111.888 60.7204 111.689 60.4173 111.575 60.0814C111.518 59.8124 111.489 59.375 111.489 58.8038L111.604 52.1836ZM109.47 53.9982C109.982 54.7045 110.21 55.6789 110.181 56.9556C110.152 58.3005 109.868 59.3755 109.299 60.1483C108.758 60.922 108.019 61.2915 107.08 61.2915C106.198 61.3243 105.487 60.922 104.946 60.182C104.434 59.4092 104.178 58.4006 104.206 57.1244C104.206 55.8132 104.519 54.771 105.06 53.9982C105.629 53.1917 106.369 52.7885 107.25 52.7543C108.19 52.7548 108.929 53.158 109.47 53.9982ZM97.6649 52.8895C98.2046 52.8895 98.6603 53.0911 99.0016 53.5613L99.2285 53.9645C99.8264 53.2254 100.452 52.8558 101.135 52.8558C101.675 52.8558 102.131 53.0238 102.415 53.3596C102.614 53.5613 102.728 53.7966 102.784 54.0997C102.841 54.3677 102.87 54.7714 102.87 55.3426L102.756 61.1905L101.106 61.2242L101.192 55.7795C101.192 55.3094 101.192 55.0067 101.106 54.8388C101.05 54.7045 100.908 54.6372 100.68 54.6372C100.31 54.6372 99.9119 54.8725 99.4847 55.3426L99.3996 61.2242L97.7778 61.2579L97.8637 55.9142C97.8922 55.4095 97.8352 55.0741 97.7778 54.9061C97.6927 54.7382 97.5509 54.6372 97.2944 54.6372C96.9245 54.6708 96.5259 54.8725 96.1568 55.2757L96.0424 61.2579L94.364 61.2915L94.4499 55.5438C94.4784 54.5357 94.3929 53.8302 94.2504 53.4607L95.8151 52.9223C95.9002 53.0911 95.9858 53.3592 96.0135 53.7624C96.4985 53.1917 97.0671 52.9227 97.6649 52.8895Z" fill="#161616"/>
<path fill-rule="evenodd" clip-rule="evenodd" d="M84.0959 55.3427C83.7831 55.0068 83.4699 54.8389 83.1571 54.8389C82.7588 54.8389 82.4741 55.0742 82.3038 55.5115C82.1332 55.9148 82.0191 56.5865 82.0191 57.4945C81.9906 58.3679 82.0761 58.9728 82.2183 59.3095C82.3889 59.6454 82.7017 59.8134 83.1571 59.8134C83.3277 59.8134 83.4699 59.7469 83.6405 59.6454L84.0103 59.2759L84.0959 55.3427Z" fill="#161616"/>
<path fill-rule="evenodd" clip-rule="evenodd" d="M99.4565 43.0084C98.1768 43.647 96.8397 43.9833 95.4459 43.9833C94.088 44.0209 92.7393 43.7113 91.492 43.0758C90.2922 42.5207 89.199 41.6865 88.2774 40.6227C87.3671 39.5472 86.6564 38.3034 86.1725 36.892C85.6606 35.4133 85.4044 33.9009 85.4329 32.2875C85.4899 30.2709 85.9449 28.3557 86.8266 26.5739C87.6799 24.8599 88.8463 23.4481 90.269 22.3394C88.3348 22.1715 86.4857 22.2047 84.6933 22.5074C82.9297 22.81 81.3365 23.3143 79.9143 24.0534C78.4635 24.7589 77.2689 25.7001 76.3587 26.8092C75.3629 27.9183 74.7088 29.1954 74.396 30.6404C73.9976 32.2871 74.0832 34.0011 74.6233 35.7824C75.1356 37.4628 76.0455 39.1098 77.3545 40.6891C78.6915 42.2352 80.3126 43.6129 82.2186 44.823C84.1813 46.0328 86.3436 46.9739 88.6476 47.6125C90.9801 48.251 93.256 48.5532 95.5315 48.5204C97.7218 48.4531 99.7423 48.0835 101.619 47.3772C103.44 46.7054 104.976 45.7301 106.171 44.5204C107.451 43.2437 108.275 41.7987 108.674 40.118C109.044 38.5045 108.958 36.8242 108.475 35.1102C107.963 33.4299 107.081 31.8165 105.83 30.2704C105.886 30.862 105.914 31.4569 105.915 32.0522C105.887 33.6451 105.577 35.2134 105.005 36.6563C104.464 38.1017 103.724 39.3447 102.757 40.4543C101.789 41.5297 100.68 42.4036 99.4565 43.0084Z" fill="white"/>
<path fill-rule="evenodd" clip-rule="evenodd" d="M94.6775 31.044C95.3601 30.2708 95.7303 29.3637 95.7588 28.2546C95.7588 27.1791 95.446 26.2379 94.7918 25.4988C94.1374 24.726 93.3407 24.356 92.402 24.356C91.4632 24.3896 90.6669 24.7592 89.9839 25.5324C89.3013 26.3057 88.9315 27.2128 88.9315 28.3219C88.903 29.3974 89.2158 30.3718 89.8703 31.1114C90.5244 31.8505 91.321 32.2205 92.2598 32.2205C93.1986 32.1864 94.0233 31.8168 94.6775 31.044ZM71.9491 57.6283C71.9776 55.9812 71.7214 54.7715 71.1239 54.0323C70.6971 53.4611 70.0715 53.1922 69.2468 53.1922C68.3935 53.1922 67.682 53.5617 67.1415 54.3354C66.6011 55.0746 66.2883 56.1833 66.2598 57.5946C66.2313 58.9058 66.5156 59.9139 67.0564 60.6872C67.6254 61.4263 68.365 61.7958 69.2753 61.7958C70.2137 61.7631 71.0388 61.3926 71.8354 60.6198L71.1524 59.3432C70.6405 59.9144 70.0715 60.1829 69.474 60.1829C69.0187 60.2166 68.7059 60.0486 68.4501 59.6791C68.2228 59.3432 68.1088 58.8389 68.1373 58.2336V58.1662L71.9491 58.1334V57.6283ZM69.2468 54.7715C69.5881 54.7715 69.8442 54.9066 69.9864 55.2421C70.1285 55.511 70.1855 55.9147 70.1855 56.4518V56.5524L68.1662 56.5861V56.5524C68.1943 55.9812 68.2798 55.5443 68.479 55.2421C68.6493 54.939 68.9336 54.7715 69.2468 54.7715ZM73.2577 53.6628C73.3998 54.234 73.4568 54.8725 73.4568 55.578L73.3428 61.5273H75.0782L75.1919 55.6794C75.6187 55.2088 76.0451 54.9731 76.3868 54.9731C76.6141 54.9394 76.7851 55.0404 76.8418 55.2084C76.9269 55.3427 76.9839 55.679 76.9554 56.15L76.8699 61.4936L78.5768 61.46L78.6623 55.4778C78.686 55.0829 78.6572 54.6861 78.5768 54.3018C78.4632 53.965 78.2925 53.6969 77.9797 53.4616C77.6954 53.26 77.3541 53.1257 77.0124 53.1257C76.5856 53.1585 76.1877 53.26 75.7893 53.4953L75.0212 54.1329C75.0497 53.797 74.9646 53.4611 74.8221 53.0916L73.2577 53.6628ZM84.181 49.5621L84.124 52.3516C84.0958 52.9228 84.124 53.3269 84.1525 53.5613C83.8397 53.2932 83.4414 53.1253 82.9864 53.1253C82.1331 53.1581 81.4501 53.5613 80.9097 54.3682C80.3981 55.1747 80.1134 56.2169 80.0849 57.4945C80.0564 58.7711 80.2841 59.7792 80.7675 60.5192C81.2514 61.2583 81.9055 61.6279 82.7302 61.6279C83.3277 61.6279 83.8397 61.3926 84.2661 60.9225C84.2946 61.1241 84.3231 61.292 84.3801 61.3926H85.9164C85.7742 60.9225 85.7172 59.948 85.7457 58.4015L85.8879 49.8652L84.181 49.5621ZM84.0958 55.3426L84.0103 59.2754L83.6405 59.6449C83.4699 59.7464 83.3277 59.8129 83.1571 59.8129C82.7017 59.8129 82.3889 59.6449 82.2183 59.309C82.0761 58.9723 81.9906 58.3674 82.0191 57.494C82.0191 56.5861 82.1331 55.9147 82.3038 55.511C82.4744 55.0741 82.7587 54.8384 83.1571 54.8384C83.4699 54.8388 83.7827 55.0068 84.0958 55.3426ZM87.2246 57.3589C87.1961 58.6364 87.4808 59.6782 88.0212 60.4514C88.5902 61.1905 89.3298 61.5601 90.2686 61.5601C91.1789 61.5273 92.0036 61.1569 92.8003 60.3841L92.1462 59.1074C91.5772 59.6786 91.0082 59.9476 90.4393 59.9476C89.9839 59.9476 89.6426 59.7788 89.4153 59.4429C89.188 59.107 89.074 58.6027 89.1025 57.9974V57.9309L92.9143 57.8636V57.3589C92.9428 55.7127 92.6866 54.5357 92.0892 53.7966C91.6623 53.2254 91.0367 52.9223 90.212 52.9564C89.3587 52.9564 88.6757 53.3269 88.1067 54.0997C87.5663 54.8388 87.2531 55.9475 87.2246 57.3589ZM89.1592 56.318C89.1592 55.7468 89.2728 55.3099 89.4438 55.0068C89.643 54.6709 89.8988 54.5362 90.212 54.5362C90.5533 54.5362 90.8091 54.6713 90.9797 55.0068C91.0934 55.2421 91.1507 55.6453 91.1507 56.2165V56.318L89.1592 56.3508V56.318ZM99.0015 53.5613C98.6602 53.0911 98.2045 52.8895 97.6648 52.8895C97.067 52.9223 96.4988 53.1917 96.0146 53.7629C95.9868 53.3597 95.9009 53.0911 95.8161 52.9228L94.2514 53.4611C94.3935 53.8307 94.4794 54.5362 94.4509 55.5443L94.3647 61.2916L96.0431 61.2579L96.1574 55.2757C96.5265 54.8725 96.9252 54.6709 97.295 54.6372C97.5516 54.6372 97.6933 54.7387 97.7785 54.9062C97.8355 55.0741 97.8929 55.41 97.8644 55.9143L97.7785 61.2579L99.4002 61.2242L99.4854 55.3426C99.9126 54.8725 100.31 54.6372 100.68 54.6372C100.908 54.6372 101.05 54.7046 101.107 54.8388C101.193 55.0068 101.193 55.3094 101.193 55.7796L101.107 61.2242L102.757 61.1905L102.871 55.3426C102.871 54.7715 102.842 54.3682 102.785 54.0997C102.729 53.7966 102.615 53.5613 102.416 53.3597C102.131 53.0238 101.676 52.8558 101.135 52.8558C100.453 52.8558 99.8271 53.2254 99.2292 53.9645L99.0015 53.5613ZM109.299 60.1483C109.868 59.3755 110.152 58.3005 110.181 56.9556C110.21 55.679 109.982 54.7046 109.47 53.9982C108.929 53.1581 108.19 52.7544 107.251 52.7544C106.37 52.7881 105.63 53.1913 105.061 53.9982C104.52 54.771 104.207 55.8133 104.207 57.1245C104.179 58.4011 104.435 59.4092 104.947 60.182C105.488 60.922 106.199 61.3244 107.081 61.2916C108.019 61.2916 108.758 60.922 109.299 60.1483ZM106.312 55.2084C106.511 54.6372 106.796 54.3682 107.251 54.3682C107.564 54.3682 107.82 54.5034 107.991 54.7715C108.218 55.1747 108.303 55.9147 108.303 56.9897C108.275 57.9314 108.19 58.6368 107.991 59.1074C107.82 59.5443 107.536 59.746 107.166 59.746C106.711 59.7788 106.426 59.5443 106.284 59.0733C106.17 58.6701 106.113 57.9637 106.113 57.023C106.142 56.2502 106.198 55.6453 106.312 55.2084ZM113.395 51.3439C113.395 50.3686 113.395 49.6295 113.338 49.2262L111.547 49.7301C111.604 50.4364 111.632 51.2429 111.604 52.1836L111.489 58.8043C111.489 59.3755 111.518 59.8124 111.575 60.0819C111.689 60.4177 111.888 60.7204 112.201 60.9561C112.514 61.1569 112.883 61.2583 113.338 61.2583C113.765 61.2583 114.249 61.1241 114.761 60.8551L114.562 59.5776L113.936 59.7792C113.623 59.7792 113.453 59.6786 113.367 59.5111C113.253 59.3095 113.225 58.9727 113.225 58.4352L113.395 51.3439Z" fill="white"/>
</svg>
