<svg width="189" height="88" viewBox="0 0 189 88" fill="none" xmlns="http://www.w3.org/2000/svg">
<rect width="188.767" height="87.5675" rx="15.4383" fill="white" fill-opacity="0.41"/>
<g clip-path="url(#clip0_958_22538)">
<path d="M93.5388 28.5166C96.8525 28.5166 99.7595 27.2226 102.26 24.6346C104.76 22.0466 106.01 19.0372 106.01 15.6064C106.01 15.2296 105.98 14.6941 105.921 14C105.484 14.0595 105.157 14.1091 104.938 14.1487C101.883 14.585 99.194 16.0823 96.8723 18.6405C94.5508 21.1988 93.39 23.9356 93.39 26.8508C93.39 27.1879 93.4396 27.7432 93.5388 28.5166ZM105.415 74C107.776 74 110.385 72.3838 113.243 69.1512C116.1 65.9187 118.283 62.1209 119.791 57.7581C114.175 54.8627 111.367 50.708 111.367 45.294C111.367 40.7724 113.639 36.9053 118.183 33.6926C115.028 29.7461 110.861 27.7729 105.683 27.7729C103.5 27.7729 101.506 28.1001 99.7 28.7546L98.5689 29.171L97.0509 29.766C96.0588 30.1428 95.156 30.3312 94.3424 30.3312C93.7074 30.3312 92.874 30.113 91.8423 29.6767L90.6814 29.2008L89.5802 28.7546C87.9729 28.0803 86.2466 27.7432 84.4012 27.7432C79.4604 27.7432 75.4919 29.409 72.4956 32.7407C69.4993 36.0724 68.0012 40.4651 68.0012 45.9187C68.0012 53.5934 70.4022 60.6832 75.2041 67.1879C78.5377 71.7293 81.5836 74 84.3417 74C85.5124 74 86.6732 73.7719 87.8241 73.3158L89.2825 72.7209L90.4434 72.3044C92.0704 71.7293 93.5685 71.4417 94.9377 71.4417C96.3862 71.4417 98.053 71.8087 99.9381 72.5424L100.861 72.8993C102.785 73.6331 104.303 74 105.415 74Z" fill="black"/>
</g>
<defs>
<clipPath id="clip0_958_22538">
<rect width="51.792" height="60" fill="white" transform="translate(68 14)"/>
</clipPath>
</defs>
</svg>
