<svg width="189" height="88" viewBox="0 0 189 88" fill="none" xmlns="http://www.w3.org/2000/svg">
<rect width="188.767" height="87.5675" rx="15.4383" fill="white" fill-opacity="0.41"/>
<path fill-rule="evenodd" clip-rule="evenodd" d="M29.9998 57.6263V54.9388H31.4929C32.2391 54.9388 33.7329 54.7895 33.7329 52.9976V36.8714C33.7329 35.9008 33.6578 33.5865 31.7916 33.5865H30.0748L32.016 30.1521H146.873V33.5865H41.1991C40.2285 33.5865 38.9591 33.8102 38.9591 35.7514V40.8283C39.1835 41.4251 40.0791 41.6488 40.5273 41.6488C40.9754 41.6488 42.5429 41.5745 42.5429 39.1108H44.7829V47.3983H42.5429C42.5429 46.6514 41.7182 45.4006 40.6023 45.3076C39.706 45.2333 38.9591 45.5313 38.9591 46.7264V52.9976C38.9591 53.6701 39.7804 54.9388 41.7216 54.9388H43.066V57.6263H29.9998Z" fill="black"/>
<path fill-rule="evenodd" clip-rule="evenodd" d="M96.2831 37.4683C96.2831 38.0658 97.0294 38.6627 97.4768 38.812C98 38.4389 100.762 36.8715 102.927 36.8715C105.092 36.8715 106.212 37.9908 106.212 39.7083V47.9208H100.986V41.5752C100.986 40.754 100.762 40.1565 100.015 40.0821C99.2687 40.0078 97.3274 41.5752 96.8056 42.3221V53.6702C96.8056 54.7158 97.8506 55.462 98.7469 55.462V57.6277H89.6388V55.3877C90.5344 55.3877 91.5051 55.0889 91.5801 53.7452V41.1264C91.5801 40.7533 90.9826 39.7076 89.6388 39.7076V37.4683H96.2831ZM158.788 37.4683H149.681V39.7083C151.024 39.7083 151.62 40.7533 151.62 41.1271V53.7445C151.547 55.0883 150.576 55.387 149.681 55.387V57.627H158.788V55.4614C157.892 55.4614 156.847 54.7151 156.847 53.6695V41.2758C156.847 40.3802 157.817 39.7083 158.788 39.7083V37.4683ZM76.1251 37.4683C76.1251 38.0658 76.8713 38.6627 77.3195 38.812C77.842 38.4389 80.6044 36.8715 82.7694 36.8715C84.9344 36.8715 86.0544 37.9908 86.0544 39.7083V47.9208H80.8289V41.5752C80.8289 40.754 80.6044 40.1565 79.8582 40.0821C79.1113 40.0078 77.1701 41.5752 76.6476 42.3221V53.6702C76.6476 54.7158 77.6933 55.462 78.5889 55.462V57.6277H69.4808V55.3877C70.3764 55.3877 71.347 55.0889 71.4221 53.7452V41.1264C71.4221 40.7533 70.8245 39.7076 69.4808 39.7076V37.4683H76.1251ZM136.688 37.4683C136.688 38.0658 137.436 38.6627 137.883 38.812C138.406 38.4389 141.167 36.8715 143.334 36.8715C145.499 36.8715 146.618 37.9908 146.618 39.7083V47.9208H141.392V41.5752C141.392 40.754 141.167 40.1565 140.421 40.0821C139.675 40.0078 137.734 41.5752 137.21 42.3221V53.6702C137.21 54.7158 138.255 55.462 139.152 55.462V57.6277H130.043V55.3877C130.94 55.3877 131.911 55.0889 131.984 53.7452V41.1264C131.984 40.7533 131.387 39.7076 130.043 39.7076V37.4683H136.688ZM65.5384 51.3551H60.3122V53.3714C60.3122 54.192 60.1628 55.9102 57.6991 55.9102C55.2353 55.9102 54.4891 54.267 54.4891 53.0727V48.817C54.4891 48.4439 54.7879 47.9208 55.3104 47.9208H65.5384V42.4708C65.5384 40.0071 65.0159 39.2602 63.9703 38.2152C62.9253 37.1695 59.2665 36.8715 57.624 36.8715C53.4435 36.8715 52.099 37.4683 50.9047 38.4389C49.7103 39.4096 49.2622 41.4252 49.2622 42.9183V51.3544C49.2622 53.5938 49.7103 55.1619 51.1284 56.5807C52.5465 57.9994 56.8771 57.9994 57.7734 57.9994C58.669 57.9994 61.6552 58.0738 63.8209 56.5063C65.9866 54.9389 65.5384 51.3551 65.5384 51.3551ZM54.4891 42.0977C54.4891 40.9034 54.8622 39.1115 57.4753 39.1115C60.0885 39.1115 60.3122 41.0527 60.3122 42.0977V44.7852C60.3122 45.2326 59.9391 45.6808 59.4166 45.6808H55.3847C54.9373 45.6808 54.4891 45.3077 54.4891 44.8602V42.0977ZM125.416 53.6695V42.4708C125.416 40.7533 125.341 38.9621 123.548 37.6927C121.757 36.4233 118.845 36.4984 117.725 36.4984C116.605 36.4984 112.873 36.4984 111.154 38.4396C109.438 40.3809 109.736 42.2471 109.736 42.9933H114.627C114.627 42.9933 114.961 40.4552 115.634 39.7833C116.31 39.1074 118.098 38.3646 119.479 39.5589C119.987 39.9995 120.187 40.5667 120.187 41.2014V44.4114C120.187 44.7108 119.889 45.1583 119.516 45.1583C119.516 45.1583 112.721 45.3077 111.527 46.2039C110.334 47.0995 109.287 47.697 109.287 50.982C109.287 54.2663 110.109 55.5357 111.08 56.2083C112.051 56.8801 112.499 57.627 116.903 57.627H127.356V55.4614C126.461 55.4614 125.416 54.7151 125.416 53.6695ZM120.189 54.9389C120.189 55.1254 119.89 55.3863 119.667 55.3863H117.091C115.261 55.3863 114.739 53.8189 114.739 52.8476V49.9729C114.739 47.1739 117.651 47.2482 118.808 47.2482C119.965 47.2482 120.189 48.2182 120.189 48.8528V54.9389ZM153.891 33.5493C156.505 33.5493 158.623 32.7549 158.623 31.7747C158.623 30.7951 156.505 30 153.891 30C151.278 30 149.159 30.7944 149.159 31.7747C149.159 32.7542 151.278 33.5493 153.891 33.5493Z" fill="black"/>
</svg>
