<svg width="189" height="88" viewBox="0 0 189 88" fill="none" xmlns="http://www.w3.org/2000/svg">
<rect width="188.767" height="87.5675" rx="15.4383" fill="white" fill-opacity="0.41"/>
<g clip-path="url(#clip0_958_22553)">
<path d="M28 43.6632V68.123H160V19.2034H28V43.6632ZM157.844 43.6632V65.9672H30.3216V21.3591H157.844V43.6632Z" fill="black"/>
<path d="M39.4423 31.1431C39.4423 31.7235 39.492 31.8064 39.8402 31.8064C40.0558 31.8064 40.4704 31.8561 40.7523 31.9059L41.2664 32.0054V55.3044L40.7523 55.4204C40.4704 55.4702 40.0558 55.5199 39.8402 55.5199C39.4754 55.5199 39.4423 55.5863 39.4423 56.2662V57.0124H48.2312V55.5697L47.4021 55.4536L46.5729 55.3375L46.5563 50.4953C46.5563 47.8255 46.5232 45.4541 46.5066 45.1888L46.4734 44.741H58.181V55.3375L57.1694 55.4536L56.1744 55.5697L56.2242 56.2496L56.2739 56.9295H65.0629L65.1126 56.2164C65.1624 55.5697 65.1292 55.5199 64.7644 55.5199C64.5322 55.5199 64.1176 55.4702 63.8357 55.4204L63.3217 55.3044V32.0054L63.8357 31.9059C64.1176 31.8561 64.5322 31.8064 64.7478 31.8064C65.096 31.8064 65.1458 31.7235 65.1458 31.1431V30.4797H56.191V31.7566L57.186 31.8727L58.181 31.9888V41.9219H57.8161C49.2262 41.9385 46.6558 41.9219 46.6227 41.8556C46.5895 41.8059 46.5729 39.5506 46.5729 36.8642V31.9888L47.4021 31.8727L48.2312 31.7566V30.4797H39.4423V31.1431ZM71.9448 30.8446C70.7011 31.7069 70.3031 33.0169 70.9332 34.2441C72.1438 36.632 75.9247 35.8194 75.9247 33.1828C75.9247 31.5742 74.8634 30.4797 73.3377 30.4797C72.7407 30.4797 72.3428 30.5792 71.9448 30.8446ZM81.0654 31.0436C81.0654 31.5908 81.082 31.6074 81.8945 31.7069L82.7237 31.823V55.5199L82.3588 55.6028C82.1433 55.636 81.795 55.7024 81.5629 55.7189C81.2146 55.7687 81.1483 55.8682 81.0985 56.3822L81.0488 56.9958L85.2111 57.0124H89.3734L89.3237 56.3988C89.2739 55.8682 89.2076 55.7687 88.8593 55.7189C88.6272 55.7024 88.2789 55.636 88.0799 55.6028L87.6985 55.5199V30.4797H81.0654V31.0436ZM98.2287 33.0501C97.8639 33.1828 96.9186 33.4812 96.1227 33.7134L94.6634 34.1446V38.0913L92.889 38.141L91.098 38.1908V39.6833L92.7895 39.7662L94.481 39.8491L94.5473 46.8968C94.6136 54.2431 94.6468 54.6245 95.3764 55.7023C96.4875 57.3606 100.119 57.626 104.331 56.3491C105.442 56.0008 105.442 56.0008 105.442 55.3873V54.7737L103.419 54.8235C101.031 54.8732 100.434 54.6742 99.887 53.5963C99.5719 52.9827 99.5553 52.6179 99.5553 46.3993V39.8491L101.761 39.7993L103.95 39.7496V38.1245L101.761 38.0747L99.5553 38.025L99.5056 35.4049C99.4558 32.4863 99.5222 32.6189 98.2287 33.0501ZM114.314 37.7099C112.639 38.0747 111.362 38.5556 110.334 39.2687C107.797 41.0265 106.47 43.6466 106.305 47.2285C106.089 52.6843 108.162 55.9677 112.573 57.1285C114.099 57.5265 117.896 57.5265 119.355 57.1119C122.539 56.233 124.778 54.2099 125.806 51.3079C126.138 50.3792 126.237 49.7159 126.304 48.1074C126.436 44.5586 125.64 42.1873 123.7 40.2637C121.76 38.34 119.72 37.5938 116.486 37.627C115.475 37.6436 114.497 37.6767 114.314 37.7099ZM117.498 39.1858C118.095 39.3682 118.526 39.6501 119.024 40.1807C120.4 41.6732 120.931 43.7792 120.931 47.5601C120.931 53.5134 119.438 56.1169 116.105 56.0506C113.236 55.9843 111.727 53.0822 111.711 47.6431C111.694 43.8953 112.258 41.64 113.535 40.2471C114.696 39.0034 115.84 38.6883 117.498 39.1858ZM139.404 38.0913C138.326 38.4395 137.248 39.0365 136.005 39.9486C135.524 40.3134 135.093 40.5953 135.043 40.5953C134.993 40.5953 134.96 40.0315 134.96 39.3516V38.1079H128.327V39.3848L129.156 39.5008L129.985 39.6169V55.4868L129.62 55.5863C129.405 55.636 129.04 55.6858 128.791 55.6858C128.36 55.6858 128.327 55.7355 128.327 56.3491V57.0124L132.522 56.9792L136.701 56.9295V56.3491C136.701 55.7853 136.684 55.7687 135.839 55.636L134.96 55.4868V41.9385L136.419 41.2255C137.696 40.5953 137.995 40.5124 139.039 40.5124C140.034 40.5124 140.316 40.5787 140.88 40.9601C142.256 41.8722 142.389 42.6848 142.422 49.832V55.4868L141.56 55.636C140.698 55.7687 140.681 55.7853 140.681 56.3491V56.9295L144.76 56.9792C149.205 57.029 149.188 57.029 148.956 56.1003C148.873 55.7853 148.707 55.6858 148.044 55.6028L147.231 55.4868V49.0692C147.231 44.8903 147.165 42.3034 147.049 41.6898C146.667 39.8325 145.39 38.3566 143.799 37.9586C142.721 37.6767 140.482 37.7431 139.404 38.0913ZM69.1257 38.6717C69.1257 39.2355 69.1423 39.2521 69.9548 39.3848L70.8006 39.5174V47.4606C70.784 51.8385 70.7508 55.437 70.7176 55.4868C70.6679 55.5199 70.2865 55.6028 69.8719 55.6526C69.1091 55.7355 69.1091 55.7355 69.1588 56.3325L69.2086 56.9295H77.3342L77.384 56.3325L77.4337 55.7355L76.6046 55.6194L75.7588 55.5034V38.1079H69.1257V38.6717Z" fill="black"/>
</g>
<defs>
<clipPath id="clip0_958_22553">
<rect width="132" height="49" fill="white" transform="translate(28 19)"/>
</clipPath>
</defs>
</svg>
