<svg width="189" height="88" viewBox="0 0 189 88" fill="none" xmlns="http://www.w3.org/2000/svg">
<rect width="188.767" height="87.5675" rx="15.4383" fill="white" fill-opacity="0.41"/>
<path d="M40.1561 52.0071L40.2839 52.3677C40.2636 52.3264 40.2169 52.2002 40.1561 52.0071ZM34.2223 49.4426C34.4467 47.5058 35.2087 46.421 36.6446 45.3089C38.6991 43.8028 41.2656 44.6547 41.2656 44.6547V39.5997C41.8895 39.5838 42.5136 39.6226 43.1308 39.7158V46.2193C43.1308 46.2193 40.5651 45.3673 38.5106 46.8734C37.0755 47.9855 36.3119 49.0711 36.0883 51.0079C36.0813 52.0608 36.2706 53.4361 37.1425 54.6253C36.9269 54.5101 36.7072 54.3787 36.4833 54.2313C34.5628 52.8863 34.213 50.8693 34.2223 49.4426ZM53.7275 30.2545C52.3142 28.6393 51.7797 27.0086 51.5865 25.863H53.3644C53.3644 25.863 53.01 28.8667 55.5935 31.8206L55.6293 31.8603C54.933 31.4036 54.2945 30.8644 53.7275 30.2545Z" fill="#EE1D52"/>
<path d="M62.2924 34.8346V41.2072C62.2924 41.2072 60.0236 41.1153 58.3446 40.6691C56.0002 40.0461 54.4934 39.0913 54.4934 39.0913C54.4934 39.0913 53.4525 38.4091 53.3684 38.3624V51.5275C53.3684 52.2595 53.176 54.0896 52.5893 55.6168C51.8234 57.6136 50.6415 58.9242 50.4241 59.1913C50.4241 59.1913 48.9866 60.9638 46.4506 62.1569C44.1647 63.2332 42.1577 63.2059 41.5578 63.2332C41.5578 63.2332 38.0884 63.3764 34.9665 61.2598C34.2911 60.794 33.6609 60.2661 33.0841 59.6827L33.0997 59.6937C36.2224 61.8103 39.691 61.6671 39.691 61.6671C40.2917 61.6398 42.2987 61.667 44.5839 60.5908C47.1183 59.3977 48.5574 57.6252 48.5574 57.6252C48.7724 57.3581 49.9598 56.0475 50.7225 54.0499C51.3076 52.5235 51.5016 50.6934 51.5016 49.9606V36.7963C51.5858 36.8438 52.6267 37.526 52.6267 37.526C52.6267 37.526 54.1335 38.4823 56.4778 39.1038C58.1576 39.5492 60.4256 39.6419 60.4256 39.6419V34.6484C61.2016 34.8299 61.8631 34.8797 62.2924 34.8346Z" fill="#EE1D52"/>
<path d="M60.4264 34.6483V39.641C60.4264 39.641 58.1584 39.5483 56.4786 39.1028C54.1343 38.4798 52.6275 37.5251 52.6275 37.5251C52.6275 37.5251 51.5866 36.8429 51.5024 36.7954V49.9573C51.5024 50.6902 51.31 52.5203 50.7233 54.0466C49.9574 56.0442 48.7755 57.3549 48.5581 57.622C48.5581 57.622 47.1207 59.3945 44.5846 60.5875C42.2995 61.6638 40.2925 61.6365 39.6918 61.6638C39.6918 61.6638 36.2232 61.8071 33.1005 59.6904L33.0849 59.6795C32.7554 59.3464 32.4451 58.9948 32.1554 58.6266C31.1589 57.3588 30.5481 55.8612 30.3946 55.4336C30.3941 55.4318 30.3941 55.43 30.3946 55.4282C30.1468 54.6845 29.628 52.9011 29.6989 51.173C29.8243 48.1233 30.8527 46.2527 31.1246 45.7831C31.8451 44.5049 32.782 43.3613 33.8936 42.4033C34.874 41.5758 35.9858 40.9177 37.183 40.4563C37.9296 40.1462 38.7075 39.9178 39.5033 39.7749C40.0853 39.6709 40.6745 39.6123 41.2656 39.5997V44.6516C41.2656 44.6516 38.6992 43.7996 36.6447 45.3057C35.2088 46.4178 34.4468 47.5027 34.2224 49.4394C34.2131 50.8662 34.5629 52.8832 36.4818 54.2297C36.7052 54.3776 36.9249 54.509 37.141 54.6237C37.4765 55.0766 37.8842 55.4712 38.3478 55.7919C40.2224 57.0293 41.7931 57.1158 43.8016 56.3121C45.1425 55.7817 46.1468 54.5708 46.6228 53.2282C46.9165 52.3902 46.9126 51.546 46.9126 50.6746V25.8638H51.5873C51.7806 27.0093 52.315 28.6401 53.7284 30.2552C54.2953 30.8651 54.9339 31.4043 55.6302 31.8611C55.8359 32.083 56.8877 33.1795 58.2379 33.8539C58.9344 34.2019 59.6688 34.4685 60.4264 34.6483Z" fill="#161616"/>
<path d="M28.5342 53.8816V53.8863L28.6495 54.2141C28.637 54.176 28.5934 54.0599 28.5342 53.8816Z" fill="#69C9D0"/>
<path d="M37.1831 40.4564C35.9858 40.9178 34.874 41.5758 33.8936 42.4033C32.7819 43.3636 31.8455 44.5096 31.1262 45.7902C30.8543 46.2574 29.8259 48.1304 29.7004 51.1801C29.6295 52.9081 30.1484 54.6915 30.3962 55.4352C30.3957 55.437 30.3957 55.4389 30.3962 55.4407C30.552 55.8643 31.1605 57.3619 32.157 58.6336C32.4466 59.0019 32.757 59.3534 33.0865 59.6865C32.0301 58.9563 31.0881 58.0734 30.291 57.0668C29.3031 55.8106 28.6938 54.3278 28.5349 53.8902L28.531 53.8808V53.8746C28.2832 53.1332 27.7628 51.3483 27.8352 49.6178C27.9607 46.5682 28.9891 44.6976 29.261 44.228C29.9801 42.9472 30.9165 41.8012 32.0284 40.8411C33.0086 40.0133 34.1204 39.3553 35.3179 38.8942C36.0644 38.5841 36.8423 38.3556 37.6381 38.2128C38.8371 38.0031 40.0617 37.985 41.2664 38.159V39.5998C40.6754 39.6106 40.0862 39.6673 39.504 39.7695C38.7078 39.9141 37.9297 40.1444 37.1831 40.4564Z" fill="#69C9D0"/>
<path d="M51.5866 25.8638H46.9119V50.6762C46.9119 51.5476 46.9158 52.3895 46.6221 53.2298C46.1499 54.5708 45.1457 55.7818 43.8071 56.3191C41.7978 57.1259 40.2271 57.0364 38.3533 55.7989C37.8897 55.4783 37.482 55.0836 37.1465 54.6308C38.7429 55.482 40.1718 55.4672 41.9419 54.7569C43.2727 54.2157 44.2855 53.0047 44.753 51.6629C45.0475 50.8249 45.0436 49.9807 45.0436 49.1101V24.2961H51.4986C51.4986 24.2961 51.4253 24.9137 51.5866 25.8638ZM60.4265 33.2683V34.6483C59.6686 34.4686 58.9339 34.202 58.2372 33.854C56.8869 33.1796 55.8351 32.0831 55.6295 31.8611C55.868 32.0178 56.1156 32.16 56.3712 32.2871C58.0128 33.1064 59.6255 33.3517 60.4265 33.2683Z" fill="#69C9D0"/>
<path d="M129.499 46.2076C129.499 46.5625 129.551 46.9155 129.655 47.255C129.661 47.2791 129.668 47.3027 129.677 47.3259C129.926 48.1291 130.426 48.8314 131.103 49.3301C131.781 49.8288 132.6 50.0978 133.441 50.0975V54.0848C131.501 54.0848 130.11 54.1526 127.995 52.9019C125.579 51.4752 124.222 48.8663 124.222 46.157C124.222 43.3643 125.74 40.5646 128.313 39.2166C130.178 38.2385 131.598 38.2314 133.441 38.2314V42.2164C132.396 42.2166 131.393 42.6318 130.654 43.3708C129.915 44.1098 129.499 45.1119 129.499 46.157V46.2076Z" fill="#69C9D0"/>
<path d="M137.414 46.2076C137.415 46.5626 137.362 46.9156 137.258 47.255C137.253 47.2792 137.245 47.3029 137.236 47.3259C136.987 48.1292 136.487 48.8317 135.81 49.3304C135.132 49.8292 134.313 50.098 133.472 50.0975V54.0848C135.413 54.0848 136.803 54.1526 138.918 52.9019C141.334 51.4752 142.692 48.8663 142.692 46.157C142.692 43.3643 141.173 40.5646 138.601 39.2166C136.735 38.2385 135.315 38.2314 133.472 38.2314V42.2164C134.517 42.2164 135.52 42.6315 136.26 43.3705C136.999 44.1095 137.415 45.1118 137.415 46.157L137.414 46.2076Z" fill="#EE1D52"/>
<path d="M72.4163 34.6157H87.0177L85.6682 38.6318H81.8506V54.0001H77.1471V38.6318H72.4163V34.6157ZM111.115 34.6157V38.6318H115.846V54.0001H120.546V38.6318H124.364L125.716 34.6157H111.115ZM90.1941 39.1925C90.6439 39.1925 91.0836 39.0592 91.4576 38.8094C91.8316 38.5597 92.1231 38.2046 92.2953 37.7892C92.4674 37.3739 92.5124 36.9168 92.4247 36.4758C92.3369 36.0349 92.1203 35.6298 91.8023 35.3119C91.4842 34.994 91.079 34.7775 90.6378 34.6898C90.1967 34.6021 89.7394 34.6471 89.3238 34.8191C88.9083 34.9912 88.5531 35.2826 88.3032 35.6564C88.0533 36.0302 87.9199 36.4697 87.9199 36.9193C87.9199 37.5222 88.1595 38.1004 88.586 38.5267C89.0125 38.953 89.591 39.1925 90.1941 39.1925ZM87.916 54.0001H92.526V40.7991H87.916V54.0001ZM109.108 39.0788H103.718L99.0722 43.7273V34.6305H94.4933L94.4777 54.0001H99.1025V48.9529L100.543 47.65L105.031 54.0001H109.974L103.473 44.7132L109.108 39.0788ZM153.326 44.7132L158.963 39.0788H153.573L148.927 43.7273V34.6305H144.347L144.333 54.0001H148.957V48.9529L150.401 47.65L154.89 54.0001H159.828L153.326 44.7132ZM141.476 46.1571C141.476 50.5345 137.878 54.0834 133.439 54.0834C129 54.0834 125.403 50.5345 125.403 46.1571C125.403 41.7796 129.001 38.2308 133.439 38.2308C137.877 38.2308 141.477 41.7804 141.477 46.1571H141.476ZM137.381 46.1571C137.381 45.3777 137.15 44.6158 136.717 43.9678C136.284 43.3198 135.668 42.8147 134.948 42.5165C134.227 42.2182 133.435 42.1402 132.67 42.2922C131.905 42.4443 131.203 42.8196 130.651 43.3707C130.1 43.9218 129.725 44.6239 129.572 45.3883C129.42 46.1527 129.498 46.945 129.797 47.6651C130.095 48.3851 130.6 49.0006 131.249 49.4335C131.897 49.8665 132.659 50.0977 133.439 50.0977C133.957 50.098 134.47 49.9963 134.948 49.7984C135.427 49.6004 135.862 49.3102 136.228 48.9443C136.594 48.5783 136.885 48.1438 137.083 47.6656C137.281 47.1873 137.383 46.6747 137.383 46.1571H137.381Z" fill="#161616"/>
</svg>
