<svg width="189" height="88" viewBox="0 0 189 88" fill="none" xmlns="http://www.w3.org/2000/svg">
<rect width="188.767" height="87.5675" rx="15.4383" fill="white" fill-opacity="0.41"/>
<path d="M64.2744 14.1983C64.1709 14.3021 64.0285 14.5745 63.9379 14.821C63.8473 15.0545 63.6919 15.4696 63.5884 15.7291C63.1224 16.9874 63.0059 17.2987 62.8117 17.8046C62.6952 18.1159 62.5269 18.57 62.4363 18.8164C62.3457 19.0629 62.1645 19.5299 62.048 19.8542C61.9315 20.1785 61.7503 20.6585 61.6467 20.9179C61.5432 21.1903 61.3879 21.6314 61.2843 21.8908C61.1807 22.1632 61.0125 22.6302 60.896 22.9286C60.6371 23.6421 60.3523 24.3945 60.1193 25.0041C60.0158 25.2766 59.8345 25.7565 59.7181 26.0808C59.6016 26.4051 59.4203 26.8851 59.3168 27.1446C59.2132 27.417 59.0579 27.858 58.9543 28.1175C58.8508 28.3899 58.6825 28.8569 58.566 29.1552C58.4495 29.4666 58.2812 29.9336 58.1777 30.193C58.0741 30.4654 57.8929 30.9454 57.7764 31.2697C57.6599 31.594 57.4787 32.061 57.3881 32.3075C57.2975 32.5539 57.1163 33.0209 56.9998 33.3452C56.8833 33.6695 56.702 34.1495 56.5985 34.409C56.3655 35.0316 56.0807 35.784 55.8218 36.4845C55.7053 36.7958 55.5371 37.2499 55.4465 37.4963C55.3558 37.7428 55.2005 38.1839 55.084 38.4692C54.9805 38.7546 54.7863 39.2476 54.6698 39.5719C54.385 40.3113 54.1003 41.0637 53.8932 41.6474C53.8025 41.8939 53.6343 42.3479 53.5178 42.6463C53.4013 42.9576 53.2201 43.4506 53.1036 43.7489C52.9871 44.0602 52.8447 44.4105 52.78 44.5272C52.7152 44.657 52.6635 44.8775 52.6635 45.0202C52.6635 45.2796 52.7411 45.2796 56.2619 45.2796H59.8734L60.0287 44.9164C60.1193 44.7218 60.43 43.9565 60.7148 43.2041C60.9995 42.4517 61.349 41.5436 61.4914 41.1934C61.6338 40.8302 61.8021 40.3632 61.8538 40.1556C61.9833 39.7016 62.1386 39.2865 63.0188 37.0423C63.3813 36.1083 63.7308 35.1743 63.7955 34.9668C63.9767 34.3571 64.3262 33.4231 64.4297 33.2804C64.4945 33.2155 64.5721 32.982 64.6239 32.7745C64.6886 32.5021 64.7534 32.4372 64.8569 32.541C64.9993 32.6837 64.9346 33.6695 64.365 41.3231C64.2485 42.8149 64.1838 44.3067 64.2097 44.631L64.2485 45.2148L67.9376 45.2537C69.9699 45.2667 71.7562 45.2537 71.9115 45.2148C72.0668 45.1759 72.2351 45.0202 72.2739 44.8515C72.3775 44.5013 73.0765 42.6333 73.3095 42.1015C73.4001 41.8809 73.5036 41.5955 73.5425 41.4528C73.5813 41.3102 73.7237 40.895 73.8661 40.5448C73.9955 40.1816 74.4227 39.0789 74.7851 38.0801C75.1605 37.0812 75.5488 36.0953 75.6524 35.9008C75.7559 35.6932 75.8336 35.4467 75.8336 35.3559C75.8336 35.2522 75.9242 34.9538 76.0407 34.6814C76.3643 33.9549 76.8562 32.7096 77.1927 31.7886C77.2834 31.5421 77.4646 31.0751 77.5811 30.7508C77.6976 30.4265 77.8788 29.9595 77.9694 29.713C78.06 29.4666 78.2283 29.0125 78.3448 28.7012C78.4613 28.4029 78.6425 27.9229 78.7461 27.6375C78.8496 27.3521 79.0308 26.8851 79.1344 26.5997C79.2379 26.3143 79.4192 25.8473 79.5227 25.5619C79.6263 25.2766 79.8075 24.8096 79.911 24.5242C80.0146 24.2388 80.1958 23.7718 80.2994 23.4864C80.4029 23.201 80.5841 22.734 80.6877 22.4486C80.7912 22.1632 80.9725 21.6833 81.089 21.3719C81.2055 21.0736 81.3737 20.6196 81.4643 20.3731C81.6456 19.8801 81.9044 19.1796 82.2281 18.3235C82.3445 18.0251 82.5258 17.5452 82.6293 17.2598C83.0306 16.1701 83.2506 15.6253 83.4319 15.1712C83.5354 14.9118 83.6001 14.5616 83.5742 14.3929L83.5354 14.0816L80.3641 14.0427C78.6166 14.0167 77.0115 14.0427 76.7915 14.0816C76.3643 14.1594 76.3773 14.1075 75.2511 17.13C75.1476 17.4154 74.9663 17.8824 74.8628 18.1678C74.7592 18.4532 74.591 18.9072 74.4874 19.1667C74.3839 19.4391 74.2156 19.9061 74.0991 20.2044C73.9826 20.5158 73.8014 21.0087 73.6849 21.3071C73.2836 22.3708 73.1283 22.7729 72.727 23.8756C71.9892 25.8473 71.9245 26.016 71.7562 26.4051C71.6656 26.6127 71.5491 26.9111 71.5102 27.0408C71.4585 27.1964 71.3808 27.2483 71.3031 27.1705C71.2255 27.0927 71.2514 26.3662 71.3678 25.1728C71.4714 24.135 71.562 22.8248 71.562 22.254C71.562 21.6833 71.6526 20.3082 71.7432 19.2056C71.9633 16.7928 72.041 14.4059 71.9115 14.1724C71.7562 13.9259 64.5333 13.9519 64.2744 14.1983ZM84.7133 14.2632C84.5968 14.3929 84.4415 14.6653 84.3768 14.8729C84.325 15.0804 84.1438 15.5734 83.9885 15.9626C83.8331 16.3517 83.6649 16.8187 83.6001 17.0003C83.5354 17.1819 83.3671 17.6489 83.2118 18.0381C83.0565 18.4273 82.8882 18.8943 82.8235 19.0759C82.7588 19.2575 82.5905 19.7245 82.4352 20.1136C82.2798 20.5028 82.1116 20.9698 82.0468 21.1514C81.9821 21.333 81.8138 21.8 81.6585 22.1892C81.5032 22.5784 81.3349 23.0453 81.2702 23.227C81.2055 23.4086 81.0372 23.8756 80.8819 24.2647C80.7265 24.6539 80.5582 25.1209 80.4935 25.3025C80.4288 25.4841 80.2605 25.9511 80.1052 26.3403C79.9499 26.7294 79.7816 27.1964 79.7169 27.3781C79.6522 27.5597 79.4839 28.0267 79.3285 28.4158C79.1732 28.805 79.0049 29.272 78.9402 29.4536C78.8755 29.6352 78.7072 30.1022 78.5519 30.4914C78.3966 30.8805 78.2283 31.3475 78.1636 31.5291C78.0988 31.7108 77.9306 32.1777 77.7752 32.5669C77.3869 33.5787 77.128 34.2663 76.9986 34.6425C76.9339 34.8241 76.7656 35.2911 76.6103 35.6802C76.4549 36.0694 76.2867 36.5364 76.2219 36.718C76.1572 36.8996 75.9889 37.3666 75.8336 37.7558C75.6783 38.1449 75.51 38.6119 75.4453 38.7936C75.3806 38.9752 75.2123 39.4422 75.057 39.8313C74.9016 40.2205 74.7333 40.6875 74.6686 40.8691C74.6039 41.0507 74.4356 41.5177 74.2803 41.9069C74.125 42.296 73.9567 42.763 73.892 42.9446C73.8273 43.1263 73.659 43.5933 73.5036 43.9824C72.9729 45.3315 72.6623 45.2148 76.7656 45.2537L80.3511 45.2796L80.5712 44.8645C80.6877 44.644 80.8301 44.3067 80.8819 44.1251C80.9466 43.9435 81.1148 43.4635 81.2702 43.0744C81.4255 42.6852 81.5938 42.2182 81.6585 42.0366C81.7232 41.855 81.8915 41.388 82.0468 40.9988C82.2022 40.6097 82.3704 40.1427 82.4352 39.961C82.4999 39.7794 82.6682 39.3124 82.8235 38.9233C82.9788 38.5341 83.1471 38.0671 83.2118 37.8855C83.2765 37.7039 83.4448 37.2369 83.6001 36.8477C83.7555 36.4586 83.9237 35.9916 83.9885 35.81C84.0532 35.6283 84.2215 35.1613 84.3768 34.7722C84.5321 34.383 84.7004 33.916 84.7651 33.7344C84.8298 33.5528 84.9981 33.0858 85.1534 32.6966C85.3088 32.3075 85.4771 31.8405 85.5418 31.6589C85.6065 31.4773 85.7748 31.0103 85.9301 30.6211C86.0854 30.2319 86.2537 29.7649 86.3184 29.5833C86.3831 29.4017 86.5514 28.9347 86.7067 28.5455C86.8621 28.1564 87.0304 27.6894 87.0951 27.5078C87.1598 27.3262 87.3281 26.8592 87.4834 26.47C87.6387 26.0808 87.807 25.6138 87.8717 25.4322C87.9365 25.2506 88.1047 24.7836 88.2601 24.3945C88.4154 24.0053 88.5837 23.5383 88.6484 23.3567C88.7131 23.1751 88.8814 22.7081 89.0367 22.3189C89.192 21.9297 89.3603 21.4627 89.425 21.2811C89.4898 21.0995 89.658 20.6325 89.8134 20.2434C89.9687 19.8542 90.137 19.3872 90.2017 19.2056C90.2664 19.024 90.4347 18.557 90.59 18.1678C90.7453 17.7787 90.9136 17.3117 90.9783 17.13C91.0431 16.9484 91.2113 16.4814 91.3667 16.0923C92.0009 14.4578 92.0527 14.2502 91.8585 14.1335C91.7679 14.0686 90.1758 14.0167 88.3118 14.0167C85.1793 14.0167 84.9204 14.0297 84.7133 14.2632Z" fill="black"/>
<path d="M93.2435 14.3541C93.127 14.5487 92.9717 14.8471 92.9199 15.0416C92.8552 15.2233 92.6869 15.7032 92.5316 16.0924C92.3763 16.4816 92.208 16.9486 92.1433 17.1302C92.0786 17.3118 91.9103 17.7788 91.755 18.1679C91.5996 18.5571 91.4184 19.05 91.3537 19.2706C91.289 19.4781 91.1854 19.7765 91.1207 19.9192C91.056 20.0619 90.7324 20.931 90.3958 21.865C90.0593 22.786 89.7357 23.6681 89.6709 23.8108C89.6062 23.9535 89.5027 24.2389 89.4379 24.4594C89.3732 24.667 89.192 25.1729 89.0367 25.5621C88.8813 25.9512 88.7131 26.4182 88.6483 26.5998C88.5836 26.7815 88.4154 27.2485 88.26 27.6376C88.1047 28.0268 87.9364 28.4938 87.8717 28.6754C87.807 28.857 87.6387 29.324 87.4834 29.7132C87.328 30.1023 87.1598 30.5693 87.095 30.7509C87.0303 30.9325 86.862 31.3995 86.7067 31.7887C86.5514 32.1779 86.3831 32.6449 86.3184 32.8265C86.2537 33.0081 86.0854 33.4751 85.9301 33.8643C85.5417 34.8761 85.2828 35.5636 85.1534 35.9398C85.0887 36.1214 84.9204 36.5884 84.7651 36.9776C84.6097 37.3667 84.4415 37.8337 84.3768 38.0153C84.312 38.197 84.1438 38.664 83.9884 39.0531C83.846 39.4423 83.6001 40.1168 83.4577 40.5449C83.3153 40.973 83.1471 41.44 83.0823 41.5827C83.0176 41.7254 82.8105 42.2443 82.6293 42.7502C82.4481 43.2431 82.2539 43.775 82.1892 43.9177C81.542 45.4095 81.2443 45.2798 85.3993 45.2798C88.9978 45.2798 89.0237 45.2798 89.2179 44.9944C89.3344 44.8387 89.425 44.6052 89.425 44.4885C89.425 44.3587 89.5027 44.0993 89.6062 43.8917C89.7098 43.6972 89.891 43.282 89.9945 42.9707C90.111 42.6723 90.2923 42.1924 90.3958 41.907C90.4994 41.6216 90.6676 41.1676 90.7712 40.8952C90.8748 40.6357 91.043 40.1687 91.1595 39.8574C91.276 39.559 91.4443 39.092 91.5479 38.8196C91.6514 38.5602 92.0009 37.6392 92.3374 36.783C92.6611 35.9268 93.0105 35.0188 93.1141 34.7723C93.7613 33.0989 93.8778 32.8395 93.9684 32.9821C94.0073 33.073 94.0979 35.2782 94.1496 37.8856C94.2014 40.493 94.2791 43.2042 94.3309 43.9177L94.4085 45.2149L99.1979 45.2798L103.987 45.3446L103.353 45.63C103.003 45.7986 102.628 45.9284 102.512 45.9284C102.382 45.9284 102.033 46.0062 101.709 46.11C101.398 46.2008 100.764 46.3954 100.298 46.5121C99.3273 46.7716 98.2788 47.0569 97.4504 47.2904C97.1268 47.3812 96.4925 47.5499 96.0266 47.6666C95.5606 47.7964 94.8616 47.978 94.4732 48.0817C93.1918 48.432 92.3504 48.6655 91.6514 48.8471C90.8748 49.0676 89.8651 49.34 88.8684 49.6125C88.506 49.7162 87.8199 49.8978 87.3539 50.0146C86.8879 50.1443 86.2537 50.313 85.9301 50.4038C85.6065 50.4946 84.9722 50.6632 84.5062 50.7929C84.0402 50.9226 83.4059 51.0913 83.0823 51.1821C82.7587 51.2729 82.1245 51.4415 81.6585 51.5713C81.1925 51.688 80.4935 51.8696 80.1052 51.9864C79.7168 52.0901 79.0826 52.2588 78.7072 52.3626C77.7105 52.635 76.7008 52.9074 75.9242 53.1149C75.5617 53.2187 74.8757 53.4003 74.4097 53.5171C73.9437 53.6468 73.3094 53.8154 72.9858 53.9062C72.6622 53.997 72.028 54.1657 71.562 54.2954C70.5394 54.5678 69.4909 54.8532 68.7142 55.0737C68.3906 55.1645 67.7564 55.3332 67.2904 55.4629C66.8244 55.5797 66.1642 55.7613 65.8018 55.8521C63.6789 56.4228 63.2259 56.4877 60.8183 56.4747C58.3589 56.4747 58.0353 56.4358 55.9642 55.7872C55.537 55.6575 54.8251 55.3461 54.3721 55.1127C53.919 54.8792 53.4012 54.6067 53.2071 54.503C53.0129 54.3992 52.301 53.7635 51.6279 53.076C50.683 52.1161 50.2946 51.6102 49.9192 50.8578C49.052 49.0547 48.7672 47.9131 48.6895 45.8635C48.6248 44.2031 48.8837 42.2832 49.4274 40.4152C49.5827 39.9093 49.751 39.3255 49.8157 39.118C49.9969 38.4953 50.2817 37.7689 50.8383 36.4717C51.6667 34.5648 51.5373 34.6426 49.4791 37.1981C46.9291 40.3763 45.1946 42.7761 43.0588 46.1229C42.7481 46.6159 42.4375 47.1218 42.3986 47.2256C42.3469 47.3294 42.1915 47.5888 42.0492 47.8093C41.7903 48.2244 41.6608 48.445 41.0266 49.6254C39.5639 52.3107 38.5413 54.6586 37.9717 56.6304C37.4669 58.3557 37.4022 58.6151 37.208 59.614C36.9103 61.1447 36.9362 64.0245 37.2598 65.192C37.7905 67.1249 38.3212 68.1108 39.5121 69.382C40.7547 70.6922 43.3047 72.4694 44.4568 72.8197C44.5992 72.8586 45.0263 73.0142 45.4147 73.1569C47.2139 73.8445 48.2753 74.0001 51.2396 74.0001C54.0484 74.0001 54.6957 73.9223 56.9997 73.3515C58.2942 73.0272 60.2358 72.4564 60.8183 72.2359C60.9865 72.171 61.4784 72.0024 61.9185 71.8597C62.3457 71.717 63.1353 71.4187 63.666 71.1981C64.1967 70.9906 64.8698 70.7182 65.1546 70.6144C65.4394 70.4976 65.8536 70.342 66.0607 70.2382C66.2807 70.1474 67.5234 69.6285 68.8437 69.0837C71.7303 67.8773 71.8726 67.8124 72.5328 67.527C72.8176 67.4103 73.2447 67.2286 73.4777 67.1249C73.6978 67.0211 74.099 66.8525 74.345 66.7487C74.9145 66.4892 75.5747 66.2038 76.1572 65.9704C76.4031 65.8666 76.8173 65.685 77.0633 65.5812C77.7493 65.2958 78.3706 65.0364 78.9143 64.7899C79.1732 64.6731 79.5744 64.5045 79.7816 64.4137C80.7265 64.0245 81.6714 63.6224 82.4998 63.2592C82.7846 63.1294 83.1988 62.9478 83.4059 62.857C83.626 62.7662 84.0143 62.5976 84.2732 62.4808C84.8169 62.2344 85.4382 61.9749 86.1242 61.6895C87.1856 61.2355 87.6905 61.015 89.2049 60.3404C89.6839 60.1199 90.124 59.9383 90.1887 59.9383C90.2534 59.9383 90.4994 59.8345 90.7453 59.7178C91.3666 59.4064 91.0948 59.5232 97.3857 56.825C100.583 55.4499 103.288 54.2824 103.405 54.2305C103.793 54.0489 104.518 53.7376 105.217 53.4522C105.605 53.2966 106.252 53.0241 106.641 52.8425C107.806 52.3107 108.168 52.155 108.647 51.9604C109.592 51.5583 110.809 51.0264 111.171 50.8578C111.288 50.8059 113.579 49.807 116.284 48.6525C118.99 47.498 121.281 46.4991 121.397 46.4473C121.617 46.3305 122.355 46.0192 122.989 45.7597C123.468 45.5522 124.349 45.163 124.633 45.0203C124.75 44.9684 127.248 43.8917 130.199 42.6205C133.151 41.3492 135.649 40.2725 135.765 40.2206C135.947 40.1298 136.257 39.9871 137.319 39.5461C137.875 39.3126 138.742 38.9234 139.014 38.7937C139.118 38.7418 140.606 38.0932 142.315 37.3667C144.011 36.6403 145.461 35.9917 145.538 35.9268C145.603 35.862 145.732 35.8101 145.823 35.8101C145.914 35.8101 146.367 35.6285 146.807 35.4209C147.26 35.2004 147.674 35.0317 147.726 35.0317C147.765 35.0317 148.205 34.8501 148.684 34.6296C149.163 34.3961 149.732 34.1367 149.939 34.0459C151.596 33.3194 151.92 33.1119 151.751 32.8265C151.635 32.6449 151.272 32.6578 150.483 32.8913C149.642 33.1508 148.761 33.3843 147.674 33.6697C147.208 33.7994 146.574 33.968 146.25 34.0588C145.927 34.1496 145.292 34.3183 144.826 34.448C144.36 34.5777 143.726 34.7464 143.402 34.8372C143.079 34.928 142.445 35.0966 141.979 35.2263C141.513 35.3431 140.826 35.5247 140.464 35.6285C140.089 35.7322 139.467 35.8879 139.105 35.9917C138.73 36.0955 138.043 36.2771 137.577 36.3938C137.112 36.5235 136.451 36.7052 136.089 36.796C134.16 37.3408 132.892 37.691 131.882 37.9505C131.416 38.0802 130.782 38.2488 130.458 38.3396C130.135 38.4305 129.5 38.5991 129.034 38.7288C128.568 38.8585 127.934 39.0272 127.61 39.118C127.287 39.2088 126.653 39.3774 126.187 39.5071C125.721 39.6239 125.035 39.8055 124.672 39.9093C124.297 40.0131 123.675 40.1687 123.313 40.2725C122.938 40.3763 122.252 40.5579 121.786 40.6876C120.077 41.1287 119.507 41.2843 119.223 41.4011C119.054 41.4659 118.808 41.5178 118.666 41.5178C118.433 41.5178 118.407 41.4659 118.485 41.0897C118.537 40.8692 118.653 40.5319 118.744 40.3503C118.834 40.1687 118.938 39.8833 118.951 39.7017L119.003 39.3774L115.003 39.3385C112.479 39.3255 110.938 39.2607 110.835 39.1699C110.731 39.0791 110.705 38.9364 110.783 38.6899C111.158 37.5094 112.492 33.9551 112.919 32.9821C113.022 32.7486 113.113 32.4503 113.113 32.3076C113.113 32.1779 113.242 31.9703 113.398 31.8665C113.644 31.6849 114.213 31.659 117.009 31.659C120.711 31.659 120.504 31.7109 120.815 30.725C120.918 30.4137 121.112 29.8429 121.268 29.4537C122.329 26.6777 122.472 26.2496 122.394 26.0291C122.316 25.8475 121.941 25.8215 119.067 25.8215C116.465 25.8215 115.805 25.7826 115.754 25.6399C115.689 25.4713 116.867 22.0985 117.592 20.3991C117.695 20.1657 117.773 19.8932 117.773 19.7765C117.773 19.4133 118.446 19.3354 121.928 19.3354H125.41L125.617 18.8425C125.734 18.583 125.876 18.2198 125.928 18.0382C125.992 17.8566 126.161 17.3896 126.316 17.0004C126.471 16.6113 126.64 16.1443 126.704 15.9627C126.769 15.7811 126.937 15.327 127.08 14.9379C127.222 14.5487 127.313 14.1985 127.274 14.1595C127.235 14.1206 122.239 14.0687 116.155 14.0428C105.761 14.0168 105.1 14.0298 104.855 14.2374C104.596 14.4709 100.402 19.4911 99.5215 20.6326C99.2756 20.957 98.939 21.3591 98.7837 21.5407C98.6283 21.7223 98.3177 22.0596 98.1106 22.2931C97.6705 22.799 97.4504 22.6433 97.7481 22.0207C97.8517 21.7872 98.0329 21.3591 98.1494 21.0478C98.9002 19.0371 98.9649 18.8555 99.7157 16.9356C100.039 16.0794 100.402 15.1843 100.505 14.9508C100.738 14.406 100.738 14.1985 100.479 14.0947C100.363 14.0558 98.7448 14.0168 96.8679 14.0168H93.4636L93.2435 14.3541ZM111.909 15.7292C111.87 15.8978 111.715 16.3518 111.56 16.741C111.404 17.1302 111.236 17.5972 111.171 17.7788C111.107 17.9604 110.938 18.4274 110.783 18.8165C110.628 19.2057 110.459 19.6727 110.395 19.8543C110.33 20.0359 110.162 20.5029 110.006 20.8921C109.851 21.2813 109.683 21.7483 109.618 21.9299C109.553 22.1115 109.385 22.5785 109.23 22.9676C109.074 23.3568 108.906 23.8238 108.841 24.0054C108.777 24.187 108.608 24.654 108.453 25.0432C108.298 25.4323 108.129 25.8993 108.065 26.081C108 26.2626 107.832 26.7296 107.676 27.1187C107.521 27.5079 107.353 27.9749 107.288 28.1565C107.223 28.3381 107.055 28.8051 106.9 29.1943C106.744 29.5834 106.576 30.0504 106.511 30.232C106.447 30.4137 106.278 30.8807 106.123 31.2698C105.968 31.659 105.799 32.126 105.735 32.3076C105.67 32.4892 105.502 32.9562 105.346 33.3454C105.191 33.7345 105.023 34.2015 104.958 34.3831C104.829 34.7593 104.57 35.4469 104.181 36.4587C104.026 36.8478 103.858 37.3148 103.793 37.4965C103.728 37.6781 103.56 38.1451 103.405 38.5342C103.249 38.9234 103.081 39.3904 103.016 39.572C102.952 39.7536 102.783 40.2206 102.628 40.6098C102.473 40.9989 102.292 41.5049 102.227 41.7384C102.123 42.0756 101.774 42.3999 101.644 42.2702C101.631 42.2443 101.554 39.2866 101.476 35.6804C101.398 32.0741 101.295 28.6884 101.256 28.1435C101.165 27.015 101.165 27.002 102.201 25.9123C102.55 25.5361 103.12 24.9135 103.469 24.5243C103.806 24.1351 104.712 23.1363 105.463 22.319C106.214 21.5018 107.184 20.451 107.612 19.984C108.039 19.517 108.893 18.5701 109.514 17.8955C110.136 17.208 110.887 16.3778 111.184 16.0535C111.767 15.3919 112.013 15.2881 111.909 15.7292Z" fill="black"/>
</svg>
