<svg width="28" height="28" viewBox="0 0 28 28" fill="none" xmlns="http://www.w3.org/2000/svg">
<path d="M13.1779 1.94717L13.1779 1.94717C13.332 1.64313 13.6439 1.45152 13.9847 1.45152C14.3256 1.45152 14.6375 1.64313 14.7916 1.94717L14.7222 1.98233L14.7916 1.94717L15.7512 3.8411L15.7512 3.84112C15.7965 3.93059 15.8822 3.99287 15.9814 4.00831L15.9814 4.00831L18.0792 4.33582C18.4159 4.38837 18.6945 4.62576 18.7998 4.94989L18.7998 4.9499C18.9052 5.27412 18.8193 5.62992 18.5778 5.8704L18.5778 5.87041L17.073 7.36836L17.073 7.36836C17.002 7.43908 16.9693 7.53981 16.9852 7.63893L17.322 9.73522L17.322 9.73523C17.376 10.0717 17.2364 10.4101 16.9606 10.6104M13.1779 1.94717L16.9149 10.5475M13.1779 1.94717L12.2183 3.8411L12.2183 3.84112C12.1729 3.93059 12.0872 3.99287 11.9881 4.00831L11.9881 4.00831L9.8903 4.33582M13.1779 1.94717L9.39177 5.87042M16.9606 10.6104L16.9149 10.5475M16.9606 10.6104C16.9606 10.6104 16.9606 10.6104 16.9606 10.6104L16.9149 10.5475M16.9606 10.6104C16.6849 10.8108 16.3199 10.8391 16.0166 10.6836L16.052 10.6144M16.9149 10.5475C16.6629 10.7306 16.3293 10.7565 16.052 10.6144M16.052 10.6144L16.0165 10.6836M16.052 10.6144L16.0165 10.6836M16.0165 10.6836L14.127 9.71548M16.0165 10.6836L13.8071 9.64625L11.9175 10.6144M14.127 9.71548L14.162 9.64715L14.127 9.71547L14.127 9.71548ZM14.127 9.71548C14.0377 9.66972 13.9318 9.66974 13.8426 9.71547L13.8426 9.71548L11.9529 10.6836L11.9175 10.6144M11.9175 10.6144L11.9529 10.6836C11.6496 10.8391 11.2846 10.8108 11.0089 10.6104M11.9175 10.6144L9.39177 5.87042M10.9513 7.31324L9.44664 5.81529C9.22578 5.59548 9.14734 5.27029 9.24361 4.97393L10.9513 7.31324ZM10.9513 7.31324C11.0401 7.40164 11.0809 7.52748 11.0611 7.65123L10.7243 9.74756L10.9513 7.31324ZM9.39177 5.87042C9.39177 5.87041 9.39177 5.87041 9.39176 5.87041C9.15013 5.62992 9.06432 5.27412 9.16964 4.9499L9.16964 4.94989C9.27497 4.62576 9.55355 4.38837 9.8903 4.33582M9.39177 5.87042L10.8964 7.36836L10.8964 7.36836C10.9675 7.43907 11.0002 7.53979 10.9843 7.63889C10.9843 7.6389 10.9843 7.63891 10.9843 7.63893L10.6475 9.73522L10.6475 9.73523C10.5934 10.0717 10.7331 10.4101 11.0089 10.6104M9.8903 4.33582L9.90229 4.41267L9.8903 4.33582L9.8903 4.33582ZM11.0089 10.6104C11.0089 10.6104 11.0089 10.6104 11.0089 10.6104L11.0546 10.5475L11.0089 10.6104ZM18.2363 5.13304L18.2363 5.13299C18.2 5.02121 18.1039 4.93929 17.9878 4.92116L15.89 4.59375C15.6025 4.54889 15.3541 4.36842 15.2227 4.10888L14.263 2.21496C14.263 2.21496 14.263 2.21495 14.263 2.21495C14.2099 2.11013 14.1023 2.04406 13.9847 2.04406C13.8672 2.04406 13.7596 2.11014 13.7065 2.21496L12.7468 4.10888C12.6153 4.36842 12.3669 4.54889 12.0795 4.59375L9.98172 4.92116C9.86558 4.93928 9.76954 5.02119 9.73318 5.13304C9.69683 5.24484 9.72646 5.36756 9.80973 5.4505L11.3144 6.94844C11.5206 7.1537 11.6154 7.44558 11.5693 7.73288L11.5693 7.73289L11.2325 9.8292C11.2138 9.94531 11.262 10.062 11.3571 10.1311C11.4522 10.2001 11.578 10.2099 11.6827 10.1563L18.2363 5.13304ZM18.2363 5.13304C18.2726 5.24484 18.243 5.36756 18.1597 5.4505L16.6551 6.94844C16.4489 7.1537 16.354 7.44558 16.4002 7.73288L16.4002 7.73289M18.2363 5.13304L16.4002 7.73289M16.4002 7.73289L16.737 9.82921M16.4002 7.73289L16.737 9.82921M16.737 9.82921C16.7556 9.94531 16.7074 10.062 16.6123 10.1311M16.737 9.82921L16.6123 10.1311M16.6123 10.1311C16.5173 10.2001 16.3914 10.2099 16.2867 10.1563L16.6123 10.1311ZM13.5724 9.18818L11.6828 10.1563H16.2867L14.3971 9.18818C14.1382 9.05554 13.8312 9.05554 13.5724 9.18818Z" fill="white" stroke="white" stroke-width="0.155556"/>
<mask id="path-2-outside-1_10172_15544" maskUnits="userSpaceOnUse" x="7.14648" y="15.5294" width="13" height="12" fill="black">
<rect fill="white" x="7.14648" y="15.5294" width="13" height="12"/>
<path fill-rule="evenodd" clip-rule="evenodd" d="M17.2677 16.5356C17.1626 16.5102 17.0548 16.5653 17.014 16.6655C16.5264 17.8624 15.3507 18.707 13.9793 18.707C12.6104 18.707 11.4365 17.8654 10.947 16.6717C10.9061 16.5718 10.7985 16.5169 10.6937 16.5422C9.02511 16.9448 7.92283 18.5629 8.18501 20.2814C8.39013 21.6661 8.63657 23.2818 8.80216 24.3673C8.93356 25.23 9.58763 25.9203 10.4422 26.098C10.4431 26.0981 10.4442 26.0983 10.4451 26.0986C12.8008 26.5544 15.1544 26.5459 17.5081 26.0852C17.5087 26.0851 17.5093 26.0849 17.5099 26.0848C18.3634 25.9098 19.0173 25.2216 19.1487 24.3605C19.3227 23.2776 19.5687 21.6644 19.7797 20.2814C20.0424 18.5601 18.9385 16.9391 17.2677 16.5356ZM17.3406 17.0085C18.6934 17.4262 19.5667 18.7808 19.3478 20.2155C19.137 21.5973 18.8911 23.2092 18.717 24.2928C18.7169 24.2934 18.7168 24.294 18.7168 24.2945C18.613 24.9746 18.0967 25.5181 17.4229 25.6566C15.1259 26.1061 12.8289 26.1146 10.5299 25.67C9.85473 25.529 9.33804 24.9834 9.23411 24.3014C9.06853 23.2164 8.82219 21.6015 8.61706 20.2164C8.61706 20.216 8.61696 20.2157 8.61696 20.2154C8.39852 18.7835 9.2704 17.4317 10.6211 17.015C11.2158 18.273 12.4967 19.144 13.9793 19.144C15.4646 19.144 16.7473 18.2699 17.3406 17.0085Z"/>
</mask>
<path fill-rule="evenodd" clip-rule="evenodd" d="M17.2677 16.5356C17.1626 16.5102 17.0548 16.5653 17.014 16.6655C16.5264 17.8624 15.3507 18.707 13.9793 18.707C12.6104 18.707 11.4365 17.8654 10.947 16.6717C10.9061 16.5718 10.7985 16.5169 10.6937 16.5422C9.02511 16.9448 7.92283 18.5629 8.18501 20.2814C8.39013 21.6661 8.63657 23.2818 8.80216 24.3673C8.93356 25.23 9.58763 25.9203 10.4422 26.098C10.4431 26.0981 10.4442 26.0983 10.4451 26.0986C12.8008 26.5544 15.1544 26.5459 17.5081 26.0852C17.5087 26.0851 17.5093 26.0849 17.5099 26.0848C18.3634 25.9098 19.0173 25.2216 19.1487 24.3605C19.3227 23.2776 19.5687 21.6644 19.7797 20.2814C20.0424 18.5601 18.9385 16.9391 17.2677 16.5356ZM17.3406 17.0085C18.6934 17.4262 19.5667 18.7808 19.3478 20.2155C19.137 21.5973 18.8911 23.2092 18.717 24.2928C18.7169 24.2934 18.7168 24.294 18.7168 24.2945C18.613 24.9746 18.0967 25.5181 17.4229 25.6566C15.1259 26.1061 12.8289 26.1146 10.5299 25.67C9.85473 25.529 9.33804 24.9834 9.23411 24.3014C9.06853 23.2164 8.82219 21.6015 8.61706 20.2164C8.61706 20.216 8.61696 20.2157 8.61696 20.2154C8.39852 18.7835 9.2704 17.4317 10.6211 17.015C11.2158 18.273 12.4967 19.144 13.9793 19.144C15.4646 19.144 16.7473 18.2699 17.3406 17.0085Z" fill="white"/>
<path d="M17.2677 16.5356L17.3042 16.3844L17.3042 16.3844L17.2677 16.5356ZM17.014 16.6655L17.1581 16.7242L17.1581 16.7242L17.014 16.6655ZM10.947 16.6717L10.8031 16.7307L10.8031 16.7307L10.947 16.6717ZM10.6937 16.5422L10.6572 16.3909L10.6572 16.391L10.6937 16.5422ZM8.18501 20.2814L8.33888 20.2586L8.33878 20.2579L8.18501 20.2814ZM8.80216 24.3673L8.95594 24.3439L8.95593 24.3438L8.80216 24.3673ZM10.4422 26.098L10.4105 26.2503L10.4177 26.2518L10.425 26.2526L10.4422 26.098ZM10.4451 26.0986L10.4114 26.2505L10.4156 26.2513L10.4451 26.0986ZM17.5081 26.0852L17.4825 25.9317L17.4782 25.9326L17.5081 26.0852ZM17.5099 26.0848L17.5355 26.2384L17.5412 26.2372L17.5099 26.0848ZM19.1487 24.3605L18.9951 24.3358L18.995 24.337L19.1487 24.3605ZM19.7797 20.2814L19.626 20.2579L19.626 20.2579L19.7797 20.2814ZM17.3406 17.0085L17.3865 16.8599L17.2573 16.82L17.1998 16.9423L17.3406 17.0085ZM19.3478 20.2155L19.194 20.192L19.194 20.1921L19.3478 20.2155ZM18.717 24.2928L18.8704 24.3184L18.8706 24.3175L18.717 24.2928ZM18.7168 24.2945L18.8706 24.318L18.8723 24.3063V24.2945H18.7168ZM17.4229 25.6566L17.4528 25.8093L17.4542 25.809L17.4229 25.6566ZM10.5299 25.67L10.4981 25.8222L10.5003 25.8227L10.5299 25.67ZM9.23411 24.3014L9.38789 24.278L9.38789 24.278L9.23411 24.3014ZM8.61706 20.2164H8.46151V20.2278L8.46319 20.2391L8.61706 20.2164ZM8.61696 20.2154H8.77252V20.2036L8.77074 20.192L8.61696 20.2154ZM10.6211 17.015L10.7617 16.9485L10.7041 16.8266L10.5753 16.8664L10.6211 17.015ZM17.3042 16.3844C17.1244 16.3409 16.9398 16.4353 16.87 16.6068L17.1581 16.7242C17.1698 16.6954 17.2008 16.6794 17.2312 16.6868L17.3042 16.3844ZM16.87 16.6068C16.4053 17.7472 15.2852 18.5514 13.9793 18.5514V18.8625C15.4162 18.8625 16.6474 17.9775 17.1581 16.7242L16.87 16.6068ZM13.9793 18.5514C12.6757 18.5514 11.5573 17.7501 11.091 16.6127L10.8031 16.7307C11.3156 17.9807 12.545 18.8625 13.9793 18.8625V18.5514ZM11.091 16.6127C11.0209 16.4417 10.8367 16.3477 10.6572 16.3909L10.7301 16.6934C10.7604 16.6861 10.7913 16.702 10.8031 16.7307L11.091 16.6127ZM10.6572 16.391C8.91059 16.8124 7.7568 18.506 8.03123 20.3048L8.33878 20.2579C8.08886 18.6198 9.13963 17.0771 10.7302 16.6934L10.6572 16.391ZM8.03113 20.3042C8.23631 21.6892 8.4828 23.3053 8.64838 24.3907L8.95593 24.3438C8.79034 23.2583 8.54395 21.6429 8.33888 20.2586L8.03113 20.3042ZM8.64838 24.3907C8.78956 25.3177 9.49234 26.0593 10.4105 26.2503L10.4739 25.9457C9.68291 25.7812 9.07755 25.1424 8.95594 24.3439L8.64838 24.3907ZM10.425 26.2526C10.4207 26.2522 10.4173 26.2516 10.4155 26.2512C10.4135 26.2509 10.412 26.2505 10.4114 26.2504L10.4789 25.9467C10.4767 25.9462 10.469 25.9445 10.4594 25.9434L10.425 26.2526ZM10.4156 26.2513C12.7911 26.711 15.1649 26.7024 17.5379 26.2379L17.4782 25.9326C15.1439 26.3895 12.8105 26.3979 10.4747 25.9458L10.4156 26.2513ZM17.5336 26.2387C17.5378 26.238 17.5412 26.2372 17.5433 26.2368C17.5443 26.2365 17.5452 26.2363 17.5458 26.2362C17.5463 26.2361 17.5467 26.2359 17.5467 26.2359C17.5471 26.2358 17.5458 26.2362 17.5442 26.2365C17.5425 26.2369 17.5394 26.2376 17.5355 26.2383L17.4844 25.9314C17.4802 25.9321 17.4768 25.9328 17.4747 25.9333C17.4737 25.9335 17.4728 25.9337 17.4723 25.9339C17.4717 25.934 17.4713 25.9341 17.4713 25.9341C17.4709 25.9342 17.4722 25.9339 17.4738 25.9335C17.4755 25.9331 17.4786 25.9324 17.4825 25.9318L17.5336 26.2387ZM17.5412 26.2372C18.4584 26.0491 19.1613 25.3095 19.3025 24.3839L18.995 24.337C18.8734 25.1338 18.2683 25.7705 17.4787 25.9324L17.5412 26.2372ZM19.3023 24.3851C19.4764 23.3015 19.7226 21.6876 19.9335 20.3048L19.626 20.2579C19.4149 21.6412 19.169 23.2537 18.9952 24.3358L19.3023 24.3851ZM19.9335 20.3048C20.2085 18.5032 19.053 16.8067 17.3042 16.3844L17.2312 16.6868C18.8239 17.0715 19.8764 18.6169 19.626 20.2579L19.9335 20.3048ZM17.2947 17.1572C18.5747 17.5524 19.4012 18.8344 19.194 20.192L19.5016 20.239C19.7323 18.7272 18.812 17.3 17.3865 16.8599L17.2947 17.1572ZM19.194 20.1921C18.9832 21.5741 18.7374 23.1853 18.5634 24.2681L18.8706 24.3175C19.0448 23.2331 19.2908 21.6205 19.5016 20.239L19.194 20.1921ZM18.5636 24.2672C18.5636 24.267 18.5636 24.2668 18.5636 24.2669C18.5636 24.2669 18.5636 24.2669 18.5636 24.2669C18.5636 24.267 18.5636 24.267 18.5636 24.267C18.5636 24.2671 18.5635 24.2673 18.5635 24.2674C18.5634 24.268 18.5631 24.2697 18.5629 24.2717C18.5623 24.2758 18.5612 24.2841 18.5612 24.2945H18.8723C18.8723 24.3044 18.8713 24.3121 18.8708 24.3157C18.8706 24.3175 18.8704 24.3188 18.8703 24.3191C18.8703 24.3192 18.8703 24.3194 18.8703 24.3192C18.8703 24.3191 18.8704 24.3188 18.8704 24.3184L18.5636 24.2672ZM18.563 24.271C18.469 24.8868 18.0016 25.3789 17.3916 25.5043L17.4542 25.809C18.1918 25.6574 18.7569 25.0624 18.8706 24.318L18.563 24.271ZM17.393 25.504C15.1153 25.9497 12.8386 25.958 10.5594 25.5172L10.5003 25.8227C12.8193 26.2712 15.1364 26.2626 17.4528 25.8093L17.393 25.504ZM10.5617 25.5177C9.95009 25.39 9.48204 24.8957 9.38789 24.278L9.08033 24.3249C9.19404 25.071 9.75937 25.668 10.4981 25.8222L10.5617 25.5177ZM9.38789 24.278C9.22229 23.1929 8.97601 21.5783 8.77094 20.1936L8.46319 20.2391C8.66837 21.6246 8.91476 23.24 9.08034 24.3249L9.38789 24.278ZM8.77262 20.2164C8.77262 20.2078 8.77192 20.2009 8.7714 20.1968C8.77114 20.1947 8.77089 20.193 8.77073 20.192C8.77064 20.1915 8.77057 20.1911 8.77053 20.1908C8.77051 20.1906 8.77049 20.1905 8.77048 20.1905C8.77047 20.1904 8.77046 20.1903 8.77046 20.1903C8.77035 20.1897 8.77088 20.1928 8.77133 20.1964C8.77182 20.2003 8.77252 20.207 8.77252 20.2154H8.4614C8.4614 20.224 8.46211 20.2308 8.46262 20.2349C8.46288 20.237 8.46314 20.2387 8.4633 20.2398C8.46338 20.2403 8.46345 20.2407 8.46349 20.241C8.46352 20.2411 8.46354 20.2412 8.46355 20.2413C8.46356 20.2414 8.46357 20.2414 8.46357 20.2414C8.46367 20.242 8.46314 20.239 8.46269 20.2354C8.4622 20.2315 8.46151 20.2247 8.46151 20.2164H8.77262ZM8.77074 20.192C8.56405 18.8372 9.38901 17.5579 10.667 17.1637L10.5753 16.8664C9.15179 17.3055 8.23298 18.7299 8.46318 20.2389L8.77074 20.192ZM10.4805 17.0815C11.0999 18.3918 12.4342 19.2995 13.9793 19.2995V18.9884C12.5591 18.9884 11.3317 18.1543 10.7617 16.9485L10.4805 17.0815ZM13.9793 19.2995C15.5271 19.2995 16.8634 18.3885 17.4814 17.0747L17.1998 16.9423C16.6312 18.1513 15.402 18.9884 13.9793 18.9884V19.2995Z" fill="white" mask="url(#path-2-outside-1_10172_15544)"/>
<path d="M17.819 17.1718L17.819 17.1717C17.7842 16.976 17.766 16.7747 17.766 16.5692C17.766 14.6806 19.2992 13.1474 21.1877 13.1474C23.0761 13.1474 24.6093 14.6806 24.6093 16.5692C24.6093 18.4576 23.0761 19.9908 21.1877 19.9908C20.5305 19.9908 19.9161 19.8051 19.3947 19.4833L17.819 17.1718ZM17.819 17.1718C17.8339 17.2551 17.8837 17.328 17.9557 17.3723L17.9964 17.306M17.819 17.1718L17.8956 17.1581C17.9066 17.2196 17.9433 17.2734 17.9964 17.306M17.9964 17.306C18.6992 17.7374 19.1898 18.4541 19.3351 19.2695L17.9558 17.3723M17.9964 17.306L17.9558 17.3723M17.9558 17.3723C18.6396 17.7921 19.1172 18.4897 19.2585 19.2832M17.9558 17.3723L19.2585 19.2832M19.2585 19.2832C19.2733 19.3662 19.3228 19.439 19.3946 19.4833L19.2585 19.2832ZM19.8149 19.043C19.6254 18.1852 19.1095 17.4308 18.383 16.9427C18.3668 16.8204 18.3585 16.6958 18.3585 16.5692C18.3585 15.0077 19.6263 13.74 21.1877 13.74C22.7491 13.74 24.0169 15.0077 24.0169 16.5692C24.0169 18.1306 22.7491 19.3984 21.1877 19.3984C20.6895 19.3984 20.2213 19.2694 19.8149 19.043Z" fill="white" stroke="white" stroke-width="0.155556"/>
<path d="M19.2602 19.2832L19.2602 19.2831C19.2397 19.1682 19.2888 19.0519 19.3853 18.9862C19.4818 18.9205 19.608 18.9177 19.7074 18.9791M19.2602 19.2832L23.8108 17.635C23.3895 18.6689 22.3738 19.3984 21.1895 19.3984C20.646 19.3984 20.1385 19.2449 19.7074 18.9791M19.2602 19.2832C19.3131 19.5797 19.3189 19.8897 19.271 20.2039M19.2602 19.2832L19.271 20.2039M19.7074 18.9791C19.7074 18.9791 19.7074 18.9791 19.7075 18.9791L19.6666 19.0453L19.7074 18.9791C19.7074 18.9791 19.7074 18.9791 19.7074 18.9791ZM19.271 20.2039C19.0602 21.5858 18.8143 23.1974 18.6403 24.2806M19.271 20.2039L17.4147 25.7899C17.4201 25.6692 17.4983 25.5638 17.6123 25.5237L17.6123 25.5237C18.1516 25.334 18.551 24.8611 18.6396 24.2851M18.6403 24.2806L18.6403 24.2805L18.6404 24.2801L18.7171 24.2929L18.6403 24.2806ZM18.6403 24.2806L18.6399 24.2828C18.6399 24.2834 18.6397 24.2842 18.6396 24.2851M18.6396 24.2851C18.6398 24.2843 18.6399 24.2836 18.64 24.2829L18.7169 24.2946M18.6396 24.2851C18.6394 24.2874 18.6391 24.2907 18.6391 24.2946H18.7169M18.7169 24.2946C18.6245 24.9003 18.2049 25.3977 17.6381 25.5971L18.7169 24.2946ZM24.1547 17.4587C24.0123 17.4243 23.866 17.4992 23.8108 17.6349L24.368 26.1976C24.3687 26.1975 24.3693 26.1973 24.37 26.1972C25.1736 26.0316 25.7894 25.3832 25.9133 24.5719C26.0673 23.6135 26.2843 22.1909 26.4717 20.9631L26.4778 20.9227C26.7207 19.3308 25.6998 17.8319 24.1547 17.4587ZM18.005 26.2093L18.0084 26.2101L18.0089 26.2102C20.1284 26.6203 22.2464 26.6128 24.3638 26.1985L18.005 26.2093ZM19.8567 20.2932L19.8567 20.2932C19.8852 20.1065 19.898 19.9208 19.896 19.7376C20.2952 19.9008 20.732 19.9909 21.1895 19.9909C22.5268 19.9909 23.6858 19.222 24.2484 18.1029C25.3645 18.4905 26.0758 19.6292 25.8921 20.8334L25.969 20.8452L25.8921 20.8334L25.8886 20.8563C25.7008 22.0873 25.4827 23.517 25.328 24.4799L25.3277 24.4812L25.3277 24.4812L25.3276 24.4822C25.2412 25.0487 24.8112 25.5015 24.25 25.617C22.3289 25.9929 20.4083 26.0218 18.4858 25.6947C18.8754 25.3651 19.1451 24.9001 19.2257 24.3726C19.3979 23.3005 19.6407 21.7092 19.8502 20.3361L19.8567 20.2932Z" fill="white" stroke="white" stroke-width="0.155556"/>
<path d="M10.331 26.0774L10.331 26.0774C10.2101 26.1295 10.0829 26.1698 9.95053 26.1971C9.94988 26.1972 9.94924 26.1974 9.94859 26.1975L10.331 26.0774ZM10.331 26.0774C10.4421 26.0295 10.5129 25.9189 10.5099 25.798C10.5069 25.6769 10.4305 25.57 10.3172 25.5278C9.78798 25.3305 9.39795 24.8601 9.31111 24.2897L9.31111 24.2897M10.331 26.0774L9.31111 24.2897M9.31111 24.2897C9.14593 23.2074 8.90044 21.598 8.69566 20.2154M9.31111 24.2897L8.69566 20.2154M8.69566 20.2154H8.69574L8.69396 20.2037C8.64587 19.8883 8.65201 19.5771 8.70567 19.2796L8.70567 19.2796C8.72643 19.1645 8.67752 19.0479 8.58068 18.982L8.58061 18.982C8.48386 18.9163 8.35747 18.9136 8.25801 18.9753C7.82551 19.2435 7.31583 19.3983 6.77001 19.3983C5.58779 19.3983 4.57366 18.6715 4.15083 17.6402C4.09538 17.5049 3.94951 17.4302 3.80726 17.4646C2.26416 17.8368 1.24479 19.3332 1.48709 20.9224C1.66642 22.1335 1.88122 23.542 2.02909 24.5116L2.03914 24.5775C2.03914 24.5775 2.03914 24.5775 2.03915 24.5775C2.16307 25.391 2.77972 26.0417 3.58546 26.2092L3.58898 26.21L3.58945 26.2101C5.70894 26.6202 7.8269 26.6127 9.94435 26.1984C9.94331 26.1985 9.94255 26.1987 9.94215 26.1987L9.94197 26.1987L8.69566 20.2154ZM2.62488 24.4882L2.62488 24.4882C2.71151 25.0565 3.14188 25.5112 3.70436 25.6289C5.61909 25.9991 7.5321 26.0157 9.44546 25.6875C9.06637 25.3578 8.80453 24.8986 8.72538 24.379M2.62488 24.4882L2.07285 20.8332C2.07276 20.8327 2.07268 20.8321 2.07259 20.8315C1.89016 19.6304 2.60011 18.4949 3.71395 18.1086C4.27775 19.2246 5.43495 19.9908 6.77001 19.9908C7.22959 19.9908 7.6683 19.8999 8.06903 19.7352C8.06689 19.9191 8.07958 20.1054 8.1082 20.293C8.31335 21.6778 8.5598 23.2936 8.72538 24.379M2.62488 24.4882C2.4769 23.5183 2.25679 22.0752 2.07337 20.837L2.62488 24.4882ZM8.72538 24.379L8.80125 24.3674L8.72538 24.379C8.72538 24.379 8.72538 24.379 8.72538 24.379Z" fill="white" stroke="white" stroke-width="0.155556"/>
<path d="M8.57001 19.4789L8.57013 19.4788L10.1365 17.1814C10.1726 16.9826 10.1914 16.778 10.1914 16.5692C10.1914 14.6806 8.65818 13.1474 6.76974 13.1474C4.88119 13.1474 3.348 14.6806 3.348 16.5692C3.348 18.4576 4.88119 19.9908 6.76974 19.9908C7.42991 19.9908 8.04695 19.8033 8.57001 19.4789ZM9.57323 16.9513C8.85207 17.4377 8.33934 18.1868 8.1495 19.0391C7.74131 19.2679 7.2707 19.3984 6.76974 19.3984C5.2083 19.3984 3.94055 18.1306 3.94055 16.5692C3.94055 15.0077 5.2083 13.74 6.76974 13.74C8.33117 13.74 9.59893 15.0077 9.59893 16.5692C9.59893 16.6988 9.59017 16.8264 9.57323 16.9513Z" fill="white" stroke="white" stroke-width="0.155556"/>
<path d="M13.98 11.6415C11.8882 11.6415 10.1898 13.3398 10.1898 15.4317C10.1898 17.5236 11.8882 19.2218 13.98 19.2218C16.0719 19.2218 17.7702 17.5236 17.7702 15.4317C17.7702 13.3398 16.0719 11.6415 13.98 11.6415ZM13.98 12.234C15.7448 12.234 17.1776 13.6668 17.1776 15.4317C17.1776 17.1965 15.7448 18.6293 13.98 18.6293C12.2152 18.6293 10.7823 17.1965 10.7823 15.4317C10.7823 13.6668 12.2152 12.234 13.98 12.234Z" fill="white" stroke="white" stroke-width="0.155556"/>
<path d="M18.3838 5.2967L18.3839 5.2967L19.3112 5.15187L19.3113 5.15187C19.3883 5.13988 19.4548 5.09155 19.4901 5.022C19.4901 5.022 19.4901 5.02199 19.4901 5.02199L20.3402 3.34441L20.3402 3.34441C20.4824 3.06375 20.7703 2.88682 21.085 2.88682C21.3997 2.88682 21.6875 3.06376 21.8297 3.3444L22.6798 5.02199C22.7151 5.09153 22.7817 5.13988 22.8587 5.15187L22.8587 5.15187L24.7169 5.44194L24.7169 5.44194C25.0277 5.49051 25.2849 5.70965 25.3822 6.00892C25.4794 6.30818 25.4002 6.63671 25.1771 6.85865C25.1771 6.85866 25.1771 6.85867 25.1771 6.85868L23.8444 8.18556C23.7891 8.24058 23.7637 8.31877 23.7761 8.39579L23.7761 8.3958L24.0744 10.2526L24.0744 10.2526C24.1243 10.5633 23.9953 10.8757 23.7408 11.0606C23.4863 11.2455 23.1493 11.2716 22.8692 11.1282L22.8692 11.1282L21.1955 10.2707L21.1955 10.2707C21.1261 10.2352 21.0439 10.2351 20.9744 10.2707C20.9744 10.2707 20.9744 10.2707 20.9744 10.2707L19.3007 11.1282L19.3007 11.1282C19.0206 11.2716 18.6838 11.2455 18.4292 11.0606C18.4292 11.0606 18.4292 11.0606 18.4292 11.0606L18.4749 10.9977C18.244 10.83 18.1271 10.5467 18.1724 10.2649L18.3838 5.2967ZM18.3838 5.2967C18.3065 5.30879 18.2371 5.35104 18.1908 5.41413L18.2534 5.46013L18.1908 5.41403C18.1813 5.42691 18.1709 5.43906 18.1595 5.45038L18.1595 5.45045L17.0797 6.52536L17.0797 6.52541C17.024 6.58097 16.9925 6.65645 16.9925 6.73527C16.9925 6.81417 17.024 6.88965 17.0797 6.94523L17.0797 6.94528L18.3256 8.18556C18.3808 8.24058 18.4062 8.31877 18.3938 8.39579L18.3938 8.3958L18.0956 10.2526L18.3838 5.2967ZM24.8186 6.1921L24.8186 6.19202C24.7904 6.10515 24.7158 6.04154 24.6255 6.02738C24.6254 6.02738 24.6254 6.02738 24.6254 6.02737L22.7674 5.73731L24.8186 6.1921ZM24.8186 6.1921C24.8469 6.2789 24.8239 6.37424 24.7592 6.43874C24.7592 6.43875 24.7592 6.43875 24.7591 6.43876L23.4264 7.76563C23.236 7.95507 23.1485 8.22463 23.1911 8.48978L23.1911 8.48979L23.4894 10.3466C23.4894 10.3466 23.4894 10.3466 23.4894 10.3466C23.5039 10.4369 23.4664 10.5276 23.3926 10.5812L23.3925 10.5812C23.3186 10.635 23.2208 10.6425 23.1394 10.6008L21.4657 9.74332L21.4657 9.74332C21.2267 9.62085 20.9432 9.62085 20.7042 9.74332L20.7042 9.74332L19.0305 10.6008L19.0305 10.6008C18.9492 10.6425 18.8514 10.635 18.7775 10.5812L18.7774 10.5812C18.7035 10.5276 18.6661 10.4368 18.6806 10.3466L18.6806 10.3466L18.9788 8.48981C18.9788 8.4898 18.9788 8.4898 18.9789 8.48979C19.0215 8.22463 18.934 7.95507 18.7436 7.76563L17.7087 6.73527L18.5775 5.87037L18.5775 5.87038L18.5785 5.86934L18.5823 5.86542M24.8186 6.1921L18.5446 5.7926M19.4026 5.73731C19.668 5.69591 19.8972 5.52939 20.0187 5.28978C20.0187 5.28978 20.0187 5.28978 20.0187 5.28978L20.8687 3.6122C20.91 3.53074 20.9936 3.47937 21.085 3.47937C21.1763 3.47937 21.2599 3.5307 21.3013 3.61219L19.3906 5.66047M19.4026 5.73731L19.3906 5.66047M19.4026 5.73731L19.4026 5.73731L19.3906 5.66047M19.4026 5.73731L18.5823 5.86542M19.3906 5.66047L18.5446 5.7926M18.5823 5.86542L18.6005 5.84668L18.5446 5.7926M18.5823 5.86542L18.5756 5.86648L18.5739 5.86674L18.5566 5.86945L18.5528 5.84558L18.5526 5.84427L18.5446 5.7926" fill="white" stroke="white" stroke-width="0.155556"/>
<path d="M2.58618 6.00892C2.48893 6.30818 2.56813 6.63673 2.79111 6.85866L4.12387 8.18556L4.17875 8.13044L4.12388 8.18556C4.17917 8.24062 4.20463 8.31882 4.19225 8.39579L4.19225 8.3958L3.8939 10.2526C3.8939 10.2526 3.8939 10.2526 3.8939 10.2526C3.84395 10.5633 3.97301 10.8757 4.22753 11.0606C4.48205 11.2455 4.81902 11.2716 5.09899 11.1282L5.099 11.1282L6.7728 10.2707L6.77282 10.2707C6.84221 10.2352 6.92444 10.2352 6.99382 10.2707L6.99385 10.2707L8.66764 11.1282L8.66766 11.1282C8.94763 11.2716 9.28459 11.2455 9.53912 11.0606C9.79364 10.8757 9.9227 10.5633 9.87275 10.2526C9.87275 10.2526 9.87274 10.2526 9.87274 10.2526L9.57439 8.3958L9.57439 8.39579C9.56201 8.31882 9.58747 8.24062 9.64277 8.18556L10.8885 6.9453C10.9444 6.8897 10.9758 6.81418 10.9758 6.73527C10.9758 6.65644 10.9444 6.58092 10.8885 6.52534L9.80888 5.45046L9.8088 5.45038L2.66015 6.03296M2.58618 6.00892L2.66015 6.03296M2.58618 6.00892C2.58617 6.00893 2.58617 6.00894 2.58617 6.00895L2.66015 6.03296M2.58618 6.00892C2.68333 5.70962 2.94064 5.49051 3.25145 5.44194L3.25147 5.44194L5.10952 5.15187L5.10957 5.15187C5.18664 5.13988 5.25316 5.09155 5.28841 5.022L5.35779 5.05715M2.66015 6.03296C2.74824 5.76156 2.98157 5.56283 3.26346 5.51879L5.12153 5.22872C5.22335 5.21288 5.31123 5.14902 5.35779 5.05715M5.35779 5.05715L5.28842 5.02199M5.35779 5.05715L5.28842 5.02199M5.28842 5.02199L6.13848 3.34441L6.13849 3.34441C6.28072 3.06375 6.56866 2.88682 6.88332 2.88682C7.19799 2.88682 7.48593 3.06375 7.62816 3.34441L7.62817 3.34441L8.47823 5.02199L8.40885 5.05715L5.28842 5.02199ZM8.98938 8.48979L8.98937 8.48978C8.94682 8.22463 9.03435 7.95507 9.22471 7.76563L10.2597 6.73527L9.39082 5.87037L9.39069 5.87025C9.38908 5.86863 9.38747 5.86701 9.38589 5.8654L8.5657 5.73731C8.5657 5.73731 8.56569 5.73731 8.56569 5.73731C8.30029 5.69591 8.07109 5.52938 7.94968 5.28978M8.98938 8.48979L5.20096 5.73731C5.46635 5.69591 5.69555 5.52938 5.81697 5.28978C5.81697 5.28978 5.81697 5.28978 5.81697 5.28978L6.66704 3.6122C6.70832 3.53074 6.79192 3.47937 6.88332 3.47937C6.97472 3.47937 7.05832 3.53074 7.0996 3.61219C7.09961 3.61219 7.09961 3.61219 7.09961 3.6122L7.94968 5.28978M8.98938 8.48979L9.28773 10.3466L9.28773 10.3466C9.30226 10.4368 9.26479 10.5276 9.19088 10.5812L9.19084 10.5812C9.11695 10.635 9.01916 10.6425 8.93785 10.6008L8.93782 10.6008L7.26402 9.74332L7.22855 9.81254L7.26402 9.74332C7.02499 9.62085 6.74166 9.62085 6.50263 9.74332L6.53555 9.80757L6.50263 9.74332L4.82882 10.6008L4.8288 10.6008C4.74748 10.6425 4.6497 10.635 4.57581 10.5812L4.57576 10.5812C4.50186 10.5276 4.46439 10.4368 4.47891 10.3466L4.47892 10.3466L4.77727 8.48979L4.77727 8.48978C4.81982 8.22464 4.7323 7.95509 4.54195 7.76565C4.54194 7.76564 4.54194 7.76564 4.54193 7.76563L3.20919 6.43876C3.14445 6.37427 3.12143 6.27889 3.14962 6.19204C3.17789 6.10513 3.25258 6.04153 3.34288 6.02738C3.34289 6.02738 3.34291 6.02738 3.34292 6.02737L5.20094 5.73731L8.98938 8.48979ZM7.94968 5.28978L8.01905 5.25462M7.94968 5.28978L7.94968 5.28978L8.01905 5.25462M8.01905 5.25462C8.12917 5.47191 8.33702 5.62292 8.57769 5.66047L8.01905 5.25462Z" fill="white" stroke="white" stroke-width="0.155556"/>
</svg>
