<svg width="40" height="40" viewBox="0 0 32 37" fill="none" xmlns="http://www.w3.org/2000/svg">
<path d="M20.6559 23.5826L23.6217 5.34696C23.6473 5.18921 23.5306 5.04408 23.371 5.03533L12.5892 4.44583C12.4297 4.43708 12.2977 4.56864 12.306 4.72821L13.2869 23.5826" stroke="white" stroke-miterlimit="10" stroke-linecap="round" stroke-linejoin="round"/>
<path d="M20.8443 33.1228C21.4423 33.6384 21.8032 34.4159 21.7567 35.2653C21.7475 35.4341 21.6032 35.5634 21.4345 35.5541L11.1865 34.9938C11.0177 34.9846 10.8885 34.8403 10.8977 34.6716C10.9319 34.0462 11.1812 33.4838 11.57 33.0521" stroke="white" stroke-miterlimit="10" stroke-linecap="round" stroke-linejoin="round"/>
<path d="M17.2613 23.5826H12.406" stroke="white" stroke-miterlimit="10" stroke-linecap="round" stroke-linejoin="round"/>
<path d="M23.1553 25.9558H20.8862" stroke="white" stroke-miterlimit="10" stroke-linecap="round" stroke-linejoin="round"/>
<path d="M22.7574 28.3326H20.2307" stroke="white" stroke-miterlimit="10" stroke-linecap="round" stroke-linejoin="round"/>
<path d="M21.0626 30.7014H18.7256" stroke="white" stroke-miterlimit="10" stroke-linecap="round" stroke-linejoin="round"/>
<path d="M4.63818 30.8043H2.26587V23.4798H9.61212C9.61212 22.2261 10.6284 21.2098 11.8821 21.2098H13.1642L13.2867 23.5826H24.2325C24.8878 23.5826 25.419 24.1138 25.419 24.7691C25.419 25.4244 24.8878 25.9556 24.2325 25.9556H22.9054C23.575 25.9556 24.115 26.5103 24.0911 27.1853C24.0681 27.8282 23.5202 28.3285 22.8769 28.3285H22.2646H21.9428C22.5981 28.3285 23.1292 28.8596 23.1292 29.5149C23.1292 30.1701 22.5981 30.7014 21.9428 30.7014H20.9324H20.8861C21.5414 30.7014 22.0726 31.2326 22.0726 31.8878C22.0726 32.5431 21.5414 33.0743 20.8861 33.0743H11.8821C10.6284 33.0743 9.61212 32.058 9.61212 30.8043H6.78962" stroke="white" stroke-miterlimit="10" stroke-linecap="round" stroke-linejoin="round"/>
<path d="M26.4792 0.478602C26.343 0.869852 25.8532 1.92435 24.3418 2.77704C24.3083 2.79598 24.3083 2.84385 24.3418 2.86273C25.8532 3.71548 26.343 4.76998 26.4792 5.16129C26.4945 5.20535 26.5564 5.20535 26.5717 5.16129C26.708 4.76998 27.1977 3.71548 28.7092 2.86273C28.7426 2.84385 28.7426 2.79598 28.7092 2.77704C27.1977 1.92435 26.708 0.869852 26.5717 0.478602C26.5564 0.434478 26.4945 0.434478 26.4792 0.478602Z" stroke="white" stroke-width="0.8" stroke-miterlimit="10" stroke-linecap="round" stroke-linejoin="round"/>
<path d="M25.3607 9.68755C25.2957 9.87293 25.0618 10.3726 24.3401 10.7766C24.3241 10.7855 24.3241 10.8082 24.3401 10.8172C25.0618 11.2212 25.2957 11.7208 25.3607 11.9062C25.368 11.9271 25.3976 11.9271 25.4049 11.9062C25.47 11.7208 25.7038 11.2212 26.4255 10.8172C26.4415 10.8082 26.4415 10.7855 26.4255 10.7766C25.7038 10.3726 25.47 9.87293 25.4049 9.68755C25.3976 9.66665 25.368 9.66665 25.3607 9.68755Z" stroke="white" stroke-width="0.4" stroke-miterlimit="10" stroke-linecap="round" stroke-linejoin="round"/>
<path d="M28.1218 5.69637C28.0207 5.98602 27.6569 6.76668 26.5343 7.39794C26.5094 7.41196 26.5094 7.4474 26.5343 7.46138C27.6569 8.09268 28.0207 8.87334 28.1218 9.16303C28.1333 9.19566 28.1792 9.19566 28.1906 9.16303C28.2918 8.87334 28.6556 8.09268 29.7782 7.46138C29.8031 7.4474 29.8031 7.41196 29.7782 7.39794C28.6556 6.76668 28.2918 5.98602 28.1906 5.69637C28.1792 5.66371 28.1333 5.66371 28.1218 5.69637Z" stroke="white" stroke-width="0.6" stroke-miterlimit="10" stroke-linecap="round" stroke-linejoin="round"/>
</svg>
