<svg width="40" height="40" viewBox="0 0 28 32" fill="none" xmlns="http://www.w3.org/2000/svg">
<path fill-rule="evenodd" clip-rule="evenodd" d="M5.70728 3.51556H10.8635V1.40625C10.8635 0.890625 10.4415 0.46875 9.92603 0.46875H6.64478C6.12928 0.46875 5.70728 0.89075 5.70728 1.40625V3.51556Z" stroke="black" stroke-miterlimit="22.9256"/>
<path d="M5.70728 3.51562C4.59953 3.99488 3.48715 4.80425 2.68296 6.06181M2.23384 6.88425C1.7719 7.88581 1.48853 9.11419 1.48853 10.6093M15.0822 10.6093C15.0822 6.52019 12.9643 4.4245 10.8635 3.51562M15.0822 12.4843L13.2072 30.5938C13.1541 31.1066 12.7841 31.5313 12.2697 31.5313H9.69159M8.75415 31.5313H7.81665M6.87915 31.5313H4.30103C3.78653 31.5313 3.41659 31.1067 3.36353 30.5938L1.48853 12.4843" stroke="black" stroke-miterlimit="22.9256"/>
<path fill-rule="evenodd" clip-rule="evenodd" d="M15.0822 10.6094H1.48853C0.972963 10.6094 0.551025 11.0312 0.551025 11.5469C0.551025 12.0625 0.9729 12.4844 1.48853 12.4844H15.0822C15.5978 12.4844 16.0197 12.0625 16.0197 11.5469C16.0197 11.0312 15.5978 10.6094 15.0822 10.6094Z" stroke="black" stroke-miterlimit="22.9256"/>
<path d="M12.2698 8.26562H13.2073M11.3323 6.39062H12.2698" stroke="black" stroke-miterlimit="2.6131"/>
<path fill-rule="evenodd" clip-rule="evenodd" d="M26.0427 29.6562H19.4802C18.9651 29.6562 18.5427 30.0781 18.5427 30.5938C18.5427 31.1094 18.9646 31.5312 19.4802 31.5312H26.0427C26.5583 31.5312 26.9802 31.1094 26.9802 30.5938C26.9802 30.0781 26.5573 29.6562 26.0427 29.6562Z" stroke="black" stroke-miterlimit="22.9256"/>
<path d="M19.48 29.6563L20.8862 25.9062L19.0112 19.3438M26.5112 19.3438L24.6362 25.9062L26.0425 29.6563" stroke="black" stroke-miterlimit="22.9256"/>
<path fill-rule="evenodd" clip-rule="evenodd" d="M26.5112 17.4688H19.0112C18.4961 17.4688 18.0737 17.8906 18.0737 18.4062C18.0737 18.9219 18.4956 19.3438 19.0112 19.3438H26.5112C27.0268 19.3438 27.4487 18.9219 27.4487 18.4062C27.4487 17.8906 27.0259 17.4688 26.5112 17.4688Z" stroke="black" stroke-miterlimit="22.9256"/>
<path d="M20.8862 25.9062H24.6363" stroke="black" stroke-miterlimit="22.9256"/>
</svg> 