<svg width="40" height="40" viewBox="0 0 32 32" fill="none" xmlns="http://www.w3.org/2000/svg">
<path d="M16.8235 2.20801V3.85938" stroke="#774DFD" stroke-miterlimit="10" stroke-linecap="round" stroke-linejoin="round"/>
<path d="M15.1765 3.84563V2.20801" stroke="#774DFD" stroke-miterlimit="10" stroke-linecap="round" stroke-linejoin="round"/>
<path d="M18.1856 0.671625L18.5752 1.68631C18.6547 1.89344 18.5018 2.11594 18.2799 2.11594H13.7201C13.4982 2.11594 13.3454 1.89344 13.4249 1.68631L13.8145 0.671625C13.8614 0.549438 13.9788 0.46875 14.1097 0.46875H17.8903C18.0212 0.46875 18.1386 0.549438 18.1856 0.671625Z" stroke="#774DFD" stroke-miterlimit="10" stroke-linecap="round" stroke-linejoin="round"/>
<path d="M30.0125 17.0143C29.7818 13.7349 28.4262 10.7662 26.3293 8.49243" stroke="#774DFD" stroke-miterlimit="10" stroke-linecap="round" stroke-linejoin="round"/>
<path d="M1.98364 17.0763C2.46489 9.75446 8.55614 3.96509 15.9999 3.96509C19.293 3.96509 22.3211 5.09821 24.7161 6.99571" stroke="#774DFD" stroke-miterlimit="10" stroke-linecap="round" stroke-linejoin="round"/>
<path d="M9.35688 17.1426H30.6556C31.1394 17.1426 31.5312 17.5345 31.5312 18.0182V18.0388C31.5312 18.522 31.1394 18.9145 30.6556 18.9145H1.34438C0.860625 18.9145 0.46875 18.522 0.46875 18.0388V18.0182C0.46875 17.5345 0.860625 17.1426 1.34438 17.1426H7.16937" stroke="#774DFD" stroke-miterlimit="10" stroke-linecap="round" stroke-linejoin="round"/>
<path d="M18.9894 21.4431H3.19568C2.95131 21.4431 2.73006 21.5425 2.56943 21.7025C2.40943 21.8631 2.31006 22.0844 2.31006 22.3287C2.31006 22.8181 2.70693 23.215 3.19568 23.215H8.90068C8.90256 23.215 8.90443 23.215 8.90631 23.215H17.3176H28.8044C29.0488 23.215 29.2701 23.1156 29.4307 22.9556C29.5907 22.795 29.6901 22.5737 29.6901 22.3287C29.6901 21.84 29.2932 21.4431 28.8044 21.4431H21.1769" stroke="#774DFD" stroke-miterlimit="10" stroke-linecap="round" stroke-linejoin="round"/>
<path d="M2.99935 21.3925L1.86035 18.9893" stroke="#774DFD" stroke-miterlimit="10" stroke-linecap="round" stroke-linejoin="round"/>
<path d="M30.124 19.0225L29.0347 21.3208" stroke="#774DFD" stroke-miterlimit="10" stroke-linecap="round" stroke-linejoin="round"/>
<path d="M17.3175 23.2148C17.9519 23.2148 18.466 23.729 18.466 24.3633C18.466 24.9977 17.9519 25.5118 17.3175 25.5118H11.6702" stroke="#774DFD" stroke-miterlimit="10" stroke-linecap="round" stroke-linejoin="round"/>
<path d="M2.78491 31.5313L5.73297 27.4123C6.0571 26.9477 6.23429 26.3963 6.24154 25.8298C6.2521 25.006 6.64616 24.2342 7.30729 23.7426C7.77285 23.3964 8.33447 23.2138 8.90604 23.2148" stroke="#774DFD" stroke-miterlimit="10" stroke-linecap="round" stroke-linejoin="round"/>
<path d="M9.56494 31.5312L10.0718 30.4899C10.5468 29.5105 11.5393 28.8887 12.6281 28.8887H14.3968" stroke="#774DFD" stroke-miterlimit="10" stroke-linecap="round" stroke-linejoin="round"/>
<path d="M17.3176 25.5119H18.8038C19.3001 25.5119 19.7932 25.4263 20.2601 25.2594L25.1545 23.2807C25.7032 23.0863 26.3232 23.345 26.5632 23.8832C26.6295 24.0319 26.6613 24.1875 26.6613 24.3413C26.6613 24.7575 26.4295 25.1569 26.0326 25.3526L20.2613 28.3844C19.5351 28.7169 18.7457 28.8888 17.9476 28.8888H16.5845" stroke="#774DFD" stroke-miterlimit="10" stroke-linecap="round" stroke-linejoin="round"/>
<path d="M15.8189 14.3631C17.7837 14.3631 19.3765 12.7703 19.3765 10.8054C19.3765 8.84061 17.7837 7.2478 15.8189 7.2478C13.854 7.2478 12.2612 8.84061 12.2612 10.8054C12.2612 12.7703 13.854 14.3631 15.8189 14.3631Z" stroke="#774DFD" stroke-miterlimit="10" stroke-linecap="round" stroke-linejoin="round"/>
</svg>
