<svg width="17" height="19" viewBox="0 0 17 19" fill="none" xmlns="http://www.w3.org/2000/svg">
<path d="M16 2.76923C16 2.40201 15.8595 2.04983 15.6095 1.79016C15.3594 1.53049 15.0203 1.38462 14.6667 1.38462H12V0H10.6667V1.38462H5.33333V0H4V1.38462H1.33333C0.979711 1.38462 0.640573 1.53049 0.390524 1.79016C0.140476 2.04983 0 2.40201 0 2.76923V16.6154C0 16.9826 0.140476 17.3348 0.390524 17.5945C0.640573 17.8541 0.979711 18 1.33333 18H4V16.6154H1.33333V2.76923H4V4.15385H5.33333V2.76923H10.6667V4.15385H12V2.76923H14.6667V6.92308H16V2.76923Z" fill="#5D0ABC"/>
<path d="M11.5 9L13.2524 12.292L17 12.8193L14.25 15.382L14.9375 19L11.5 17.292L8.0625 19L8.75 15.382L6 12.8193L9.85 12.292L11.5 9Z" fill="#5D0ABC"/>
</svg>
