<svg width="1102" height="1195" viewBox="0 0 1102 1195" fill="none" xmlns="http://www.w3.org/2000/svg">
<path d="M1101.8 0.0121155L1038.37 314.114C1038.37 314.114 1034.17 336.037 1033.8 337.399C981.978 603.321 887.826 883.981 674.719 1066.17C521.707 1205.02 264.548 1253.69 106.97 1095.41C35.2767 1023.57 2.82335 928.693 0.972399 831.218C0.158885 741.129 22.7417 652.382 66.4961 573.719C69.9513 567.773 73.4064 561.333 76.9849 555.883C80.5634 550.434 85.9929 541.516 90.6819 534.704C95.371 527.892 100.307 520.955 105.243 514.391C120.227 494.745 136.731 476.316 154.602 459.275C165.337 449.614 176.319 440.448 187.672 431.902L199.271 423.604C209.143 416.544 219.138 409.732 229.503 403.539C234.563 400.442 239.869 397.346 245.175 394.621C250.481 391.896 255.664 388.924 261.093 386.199C257.638 390.905 254.059 395.612 250.728 400.319C239.622 415.305 229.133 430.416 219.632 445.774C210.13 461.133 200.258 476.986 191.374 493.211C191.42 493.582 191.42 493.956 191.374 494.326C188.412 499.652 185.574 504.978 182.983 510.304C180.391 515.63 177.307 521.327 174.592 526.901C171.877 532.474 169.162 538.172 166.571 543.869C95.4944 680.112 71.3086 890.669 198.407 994.09C200.505 995.7 202.973 997.31 205.811 999.168C253.072 1030.38 314.154 1035.58 371.78 1020.47C430.403 1002.98 482.702 968.768 522.324 922.005L524.792 919.404C597.103 837.906 644.734 724.577 672.868 628.959C694.772 548.619 710.531 466.718 720.006 383.969L579.951 382.731L1101.8 0.0121155Z" fill="#1C0A52"/>
<path d="M524.853 919.416C446.126 1038.2 330.503 1095.42 211.672 1066.31C78.6501 1034.23 17.5686 948.027 1.8972 830.982C1.08369 740.893 23.6665 652.146 67.421 573.483C70.8761 567.538 74.3312 561.097 77.9097 555.647C81.4882 550.198 86.9177 541.28 91.6068 534.468C96.2959 527.656 101.232 520.72 106.168 514.155C121.152 494.51 137.656 476.08 155.526 459.039C166.262 449.378 177.244 440.213 188.597 431.666L200.196 423.368C210.068 416.308 220.31 409.496 230.552 403.179C235.611 400.083 240.917 396.986 246.223 394.262C251.529 391.537 256.712 388.564 262.141 385.839C258.686 390.546 255.108 395.252 251.776 399.959L241.164 414.203C233.883 424.483 226.85 434.887 220.063 445.538C210.191 461.021 200.813 476.75 191.805 492.976C191.852 493.346 191.852 493.72 191.805 494.09C188.967 499.416 186.005 504.742 183.414 510.068C180.823 515.394 177.738 521.091 175.023 526.665C172.308 532.238 169.594 537.936 167.002 543.633C95.9257 679.876 71.7399 890.433 198.839 993.854C200.936 995.464 203.404 997.074 206.243 998.932C253.504 1030.14 314.585 1035.35 372.211 1020.24C430.67 1002.74 482.83 968.629 522.385 922.017L524.853 919.416Z" fill="#350ABC"/>
</svg>
