<svg viewBox="0 0 305 89" fill="none" xmlns="http://www.w3.org/2000/svg">
<g clip-path="url(#clip0_6216_97649)">
<path d="M76.7987 0L72.4126 21.7211C72.4126 21.7211 72.1224 23.2371 72.0968 23.3313C68.5129 41.7206 62.002 61.1291 47.265 73.7284C36.6838 83.3299 18.9004 86.696 8.00342 75.7498C3.04559 70.782 0.801342 64.2211 0.673343 57.4804C0.617086 51.2505 2.17876 45.1133 5.20451 39.6736C5.44344 39.2624 5.68237 38.8171 5.92984 38.4402C6.1773 38.0633 6.55277 37.4466 6.87703 36.9756C7.2013 36.5045 7.54263 36.0248 7.88396 35.5709C8.92015 34.2123 10.0615 32.9379 11.2973 31.7594C12.0397 31.0913 12.7991 30.4575 13.5842 29.8665L14.3863 29.2927C15.069 28.8044 15.7602 28.3334 16.477 27.9051C16.8268 27.691 17.1938 27.4769 17.5607 27.2884C17.9276 27.1 18.286 26.8944 18.6615 26.706C18.4225 27.0315 18.1751 27.3569 17.9447 27.6824C17.1767 28.7188 16.4514 29.7637 15.7943 30.8258C15.1372 31.8879 14.4546 32.9842 13.8402 34.1062C13.8434 34.1318 13.8434 34.1577 13.8402 34.1833C13.6354 34.5516 13.4391 34.9199 13.2599 35.2882C13.0807 35.6565 12.8674 36.0505 12.6797 36.436C12.4919 36.8214 12.3042 37.2154 12.125 37.6094C7.20983 47.031 5.53731 61.5917 14.3266 68.7435C14.4716 68.8549 14.6423 68.9662 14.8386 69.0947C18.1068 71.2531 22.3308 71.6128 26.3158 70.5679C30.3698 69.358 33.9864 66.9924 36.7264 63.7586L36.8971 63.5788C41.8976 57.9429 45.1914 50.1059 47.137 43.4936C48.6517 37.9379 49.7415 32.2741 50.3967 26.5518L40.7115 26.4662L76.7987 0Z" fill="#EBE6FF"/>
<path d="M72.8379 88.9961V30.0425H85.3989V35.627C86.6618 31.9011 91.6367 29.2802 98.0366 29.2802C100.851 29.206 103.648 29.7423 106.237 30.8524C108.826 31.9625 111.146 33.6203 113.038 35.7126C115.031 37.788 116.594 40.2399 117.635 42.9261C118.677 45.6124 119.176 48.4794 119.105 51.361C119.233 57.2043 117.052 62.8607 113.038 67.0951C111.124 69.1608 108.795 70.7943 106.204 71.887C103.613 72.9798 100.82 73.5069 98.011 73.4333C91.6111 73.4333 86.6362 70.8124 85.3733 67.0951V88.9961H72.8379ZM103.43 59.0183C104.445 58.0252 105.246 56.8328 105.782 55.5153C106.318 54.1979 106.577 52.7837 106.544 51.361C106.579 49.9565 106.318 48.5604 105.78 47.2634C105.242 45.9663 104.438 44.7974 103.421 43.8323C102.425 42.8083 101.228 42.002 99.9065 41.464C98.5849 40.9261 97.1668 40.668 95.7412 40.7061C94.2801 40.6693 92.8264 40.927 91.4662 41.464C90.1061 42.001 88.867 42.8063 87.8223 43.8323C86.7945 44.7932 85.9787 45.9596 85.4275 47.2563C84.8764 48.5531 84.6021 49.9514 84.6223 51.361C84.6109 52.7821 84.8889 54.1905 85.4391 55.4998C85.9894 56.8092 86.8004 57.9919 87.8223 58.9754C89.9639 61.0038 92.8144 62.1052 95.7583 62.0417C97.1762 62.0709 98.5856 61.8146 99.9032 61.288C101.221 60.7613 102.42 59.975 103.43 58.9754V59.0183Z" fill="#EBE6FF"/>
<path d="M153.657 35.6302V13.7207H166.218V72.6743H153.657V67.0984C152.394 70.8157 147.419 73.4366 141.019 73.4366C138.203 73.4986 135.405 72.9665 132.806 71.8747C130.207 70.7829 127.865 69.1558 125.932 67.0984C121.981 62.8317 119.838 57.1887 119.959 51.3643C119.823 45.5628 121.969 39.9411 125.932 35.7159C127.847 33.6285 130.183 31.975 132.784 30.8658C135.386 29.7566 138.193 29.2171 141.019 29.2835C147.419 29.2835 152.394 31.9044 153.657 35.6302ZM151.097 58.9787C152.146 58.0117 152.981 56.8341 153.547 55.5223C154.113 54.2105 154.397 52.7938 154.382 51.3643C154.406 49.9461 154.125 48.5395 153.558 47.2403C152.991 45.941 152.152 44.7798 151.097 43.8356C150.073 42.8037 148.848 41.9938 147.499 41.4561C146.15 40.9183 144.706 40.6642 143.255 40.7093C141.829 40.6713 140.411 40.9293 139.09 41.4673C137.768 42.0053 136.572 42.8116 135.575 43.8356C134.558 44.8007 133.754 45.9696 133.216 47.2667C132.678 48.5637 132.418 49.9598 132.452 51.3643C132.426 52.7804 132.69 54.1868 133.227 55.4965C133.764 56.8062 134.563 57.9914 135.575 58.9787C136.588 59.9747 137.789 60.7569 139.108 61.2791C140.428 61.8013 141.837 62.053 143.255 62.0193C144.703 62.0645 146.146 61.8188 147.499 61.2967C148.851 60.7746 150.086 59.9865 151.131 58.9787H151.097Z" fill="white"/>
<path d="M207.758 35.3772C209.988 37.3866 211.76 39.8555 212.953 42.6152C214.146 45.375 214.732 48.3606 214.67 51.3683C214.724 54.3861 214.135 57.3807 212.943 60.1517C211.751 62.9228 209.983 65.4064 207.758 67.4364C203.259 71.7141 197.271 74.0538 191.075 73.9544C184.851 74.0718 178.829 71.7311 174.307 67.4364C172.108 65.3901 170.364 62.9015 169.187 60.1328C168.011 57.3642 167.43 54.3777 167.481 51.3683C167.421 48.3689 167.999 45.3913 169.176 42.6338C170.353 39.8764 172.103 37.4025 174.307 35.3772C176.533 33.2245 179.159 31.5339 182.036 30.4022C184.914 29.2704 187.985 28.7199 191.075 28.7821C197.287 28.6746 203.287 31.0467 207.758 35.3772ZM183.233 59.3595C184.253 60.4036 185.475 61.2271 186.823 61.7795C188.172 62.3319 189.619 62.6014 191.075 62.5714C192.53 62.6002 193.976 62.3301 195.323 61.7778C196.67 61.2255 197.89 60.4025 198.909 59.3595C199.95 58.3111 200.77 57.0635 201.321 55.6907C201.872 54.318 202.143 52.8481 202.117 51.3683C202.147 49.9065 201.879 48.4541 201.328 47.1004C200.778 45.7467 199.958 44.5204 198.917 43.4969C197.914 42.4276 196.699 41.5815 195.349 41.0135C194 40.4454 192.547 40.1681 191.084 40.1994C189.62 40.1674 188.165 40.4444 186.814 41.0125C185.463 41.5805 184.246 42.4269 183.242 43.4969C182.202 44.5204 181.381 45.7467 180.831 47.1004C180.28 48.4541 180.012 49.9065 180.042 51.3683C180.011 52.8408 180.278 54.3043 180.827 55.6704C181.375 57.0365 182.194 58.2769 183.233 59.3167V59.3595Z" fill="white"/>
<path d="M216.52 72.6786V30.05H229.081V35.3775C230.847 31.6603 235.651 29.125 241.462 29.125C251.83 29.125 257.727 35.7201 257.727 46.8034V72.6786H245.174V48.3451C245.174 43.3602 242.392 40.311 237.418 40.311C236.305 40.2733 235.196 40.4671 234.161 40.8802C233.126 41.2934 232.188 41.917 231.405 42.7118C230.622 43.5066 230.011 44.4554 229.611 45.4986C229.211 46.5417 229.03 47.6567 229.081 48.7733V72.7042L216.52 72.6786Z" fill="white"/>
<path d="M259.289 51.2804C259.289 44.5996 261.482 39.1865 265.783 35.1266C270.084 31.0668 275.639 28.9512 282.295 28.9512C288.789 28.9512 294.011 31.0668 298.056 35.2123C300.055 37.2356 301.623 39.6455 302.666 42.2957C303.709 44.9459 304.205 47.7812 304.123 50.6294C304.123 52.0684 304.038 53.4217 303.952 54.6893H271.807C272.055 59.7599 276.441 63.066 283.097 63.066C286.964 63.1177 290.693 61.6267 293.465 58.9205L300.795 65.9353C298.454 68.4389 295.619 70.4246 292.47 71.7652C289.321 73.1059 285.928 73.772 282.508 73.721C275.511 73.721 269.947 71.691 265.655 67.7254C261.363 63.7598 259.289 58.3038 259.289 51.6144V51.2804ZM291.485 46.4582C291.485 42.484 287.355 39.3578 282.295 39.3578C276.816 39.3578 272.354 42.484 272.012 46.4582H291.485Z" fill="white"/>
<path d="M36.896 63.5821C31.4517 71.796 23.456 75.7531 15.2385 73.7403C6.03963 71.5219 1.81566 65.5606 0.731937 57.4666C0.67568 51.2367 2.23735 45.0995 5.26311 39.6597C5.50204 39.2486 5.74097 38.8032 5.98843 38.4263C6.2359 38.0495 6.61136 37.4328 6.93563 36.9617C7.25989 36.4906 7.60122 36.011 7.94255 35.557C8.97875 34.1985 10.1201 32.924 11.3559 31.7456C12.0983 31.0775 12.8577 30.4437 13.6428 29.8527L14.4449 29.2788C15.1276 28.7906 15.8358 28.3195 16.5441 27.8827C16.894 27.6686 17.2609 27.4545 17.6278 27.266C17.9948 27.0776 18.3531 26.872 18.7286 26.6836C18.4897 27.0091 18.2422 27.3345 18.0118 27.66L17.278 28.645C16.7745 29.3559 16.2881 30.0754 15.8188 30.812C15.1361 31.8826 14.4876 32.9704 13.8646 34.0924C13.8679 34.118 13.8679 34.1439 13.8646 34.1695C13.6684 34.5378 13.4636 34.9061 13.2844 35.2744C13.1052 35.6427 12.8919 36.0367 12.7041 36.4221C12.5164 36.8075 12.3287 37.2015 12.1495 37.5955C7.23429 47.0171 5.56177 61.5778 14.351 68.7297C14.4961 68.841 14.6668 68.9524 14.863 69.0809C18.1313 71.2393 22.3553 71.599 26.3403 70.5541C30.3829 69.3444 33.9899 66.9853 36.7253 63.7619L36.896 63.5821Z" fill="white"/>
</g>
<defs>
<clipPath id="clip0_6216_97649">
<rect width="303.409" height="89" fill="white" transform="translate(0.671875)"/>
</clipPath>
</defs>
</svg>
