<svg width="210" height="217" viewBox="0 0 210 217" fill="none" xmlns="http://www.w3.org/2000/svg">
<path d="M114.459 208.518C113.082 207.354 111.465 206.509 109.741 205.907C106.146 204.651 102.203 204.403 98.4054 204.398C95.9702 204.394 93.1346 204.319 90.7667 205.182C89.9234 205.299 89.1096 205.527 88.3961 206.011C86.86 207.052 85.7044 208.88 85.6071 210.687C85.5196 212.317 86.5718 213.725 87.8884 214.667C89.1122 215.542 90.6079 216.035 92.0925 216.331C95.0767 216.927 98.1384 216.801 101.166 216.733C103.013 216.692 104.861 216.491 106.686 216.224C108.984 215.887 111.34 215.437 113.467 214.512C114.929 213.876 116.621 212.719 116.236 210.97C116.018 209.984 115.225 209.166 114.459 208.518Z" fill="#EAEAEA"/>
<path d="M57.4623 20.1306C56.6336 19.5609 55.5514 19.4628 54.5612 19.5486C52.8171 19.6999 51.0861 20.3026 49.462 20.8969C47.632 21.5664 45.8685 22.3903 44.2343 23.4245C42.6639 24.4182 41.3138 25.6372 39.8824 26.795C38.5443 27.8771 37.1766 28.9416 35.9779 30.1676C34.887 31.2832 33.8528 32.6046 33.5387 34.1324C33.2866 35.3562 33.4221 36.733 34.1185 37.8103C34.5359 38.4561 35.1426 38.9466 35.8332 39.3003C36.0998 39.5611 36.3927 39.7947 36.7108 39.9913C38.4976 41.0972 40.6421 41.018 42.6234 40.5038C44.5462 40.0045 46.4082 39.2114 48.1357 38.2696C51.2282 36.5839 54.175 34.2371 56.0846 31.3413C57.2965 29.5038 58.2247 27.3664 58.6558 25.2333C58.9993 23.5345 59.1199 21.2699 57.4623 20.1306Z" fill="#EAEAEA"/>
<path d="M19.9349 127.884C18.9236 127.2 17.4438 127.209 16.4562 127.922C15.7691 128.419 15.3252 129.163 15.0279 129.958C14.317 130.692 13.7337 131.511 13.5067 132.52C13.2613 133.612 13.3541 134.738 13.4025 135.842C13.4456 136.828 13.4333 137.797 13.6844 138.763C14.0095 140.013 14.749 141.491 16.1932 141.824C17.8291 142.201 19.0863 140.751 19.8034 139.555C20.5169 138.365 20.9176 137.044 21.1961 135.706C21.4983 134.255 21.6641 132.745 21.5115 131.267C21.3852 130.051 21.0469 128.636 19.9349 127.884Z" fill="#E9E9E9"/>
<path d="M174.351 44.0278C173.779 43.6491 173.095 43.4476 172.399 43.4111C172.368 43.4019 172.339 43.3882 172.309 43.3794C170.965 42.9879 168.726 42.9672 168.118 44.4783C167.805 45.2543 168.142 46.1046 168.637 46.7613C168.652 46.8269 168.664 46.8929 168.687 46.9584C168.969 47.766 169.638 48.334 170.396 48.7562C170.72 48.9722 171.072 49.1513 171.443 49.2824C172.821 49.7684 174.735 49.7245 175.746 48.5772C177.044 47.1036 175.757 44.9586 174.351 44.0278Z" fill="#E9E9E9"/>
<path d="M198.308 45.267C197.199 43.2936 194.751 42.0795 192.574 41.5041C190.382 40.9248 187.629 40.7708 185.831 42.3443C185.53 42.6083 185.304 42.9083 185.14 43.2307C184.683 43.8281 184.463 44.6054 184.55 45.3523C184.655 46.2572 185.117 47.0948 185.722 47.814C186.614 49.285 188.237 50.983 190.153 50.8946C191.764 51.5777 193.518 51.9565 195.185 51.8139C196.521 51.6996 197.821 51.1453 198.472 49.9673C199.23 48.5921 199.063 46.6087 198.308 45.267Z" fill="#E9E9E9"/>
<path d="M199.367 140.555C200.112 134.496 199.58 128.292 198.212 122.347C196.957 116.886 194.847 111.575 195.259 105.879C195.459 103.118 196.865 101.127 198.797 99.1508C200.564 97.3424 202.413 95.5899 203.342 93.2294C205.103 88.7588 203.45 84.0268 201.123 80.0511C198.566 75.6803 195.115 71.8941 191.951 67.9267C188.782 63.954 185.262 58.9841 180.013 57.4067C176.933 56.4811 173.56 56.5427 170.651 55.1034C168.234 53.9073 166.217 51.8301 164.588 49.7859C161.649 46.0974 159.716 41.8199 157.288 37.834C154.837 33.8121 151.759 30.1966 147.433 27.9087C141.924 24.9953 135.942 22.6775 129.965 20.8C124.127 18.9665 118.113 17.6209 112.001 16.9589C99.751 15.6317 87.269 17.1652 75.9739 21.96C73.2412 23.12 70.4431 24.3843 68.0228 26.0765C65.9025 27.5599 64.0598 29.3731 62.3446 31.2642C58.7586 35.2175 55.6041 39.638 51.0996 42.7265C42.8798 48.3624 31.1913 48.1825 24.5248 56.0971C22.6139 58.3656 21.3527 61.0657 20.3136 63.7812C19.1237 66.8903 18.2976 70.1192 17.7266 73.3805C16.5499 80.1039 16.4338 86.9407 16.2926 93.7397C16.2292 96.7961 16.4149 99.739 17.1257 102.732C17.8322 105.706 18.8721 108.614 20.2015 111.388C22.4845 116.151 26.2342 120.268 28.1957 125.165C28.2089 125.207 28.2216 125.249 28.2348 125.292C28.4512 125.985 28.6769 126.677 28.9175 127.363C28.9378 127.421 28.9571 127.478 28.9769 127.535C29.8088 130.909 29.4247 134.448 28.7337 137.818C28.5238 138.842 28.281 139.858 28.0197 140.87C27.333 142.853 26.6574 144.838 25.8255 146.767C24.4451 149.966 23.1435 153.192 22.1119 156.511C20.3783 162.089 18.9328 168.293 20.4746 174.061C23.4536 185.206 35.5371 190.29 46.5106 191.683C53.1975 192.533 60.0018 192.268 66.6991 191.674C73.5659 191.065 80.4678 190.063 87.3671 190.884C94.4463 191.727 100.72 195.015 107.134 197.755C109.908 198.941 112.765 199.921 115.582 201.008C118.238 202.032 120.881 203.088 123.548 204.088C133.836 207.945 146.1 211.783 156.797 207.052C161.701 204.883 165.273 201.168 167.523 196.527C169.741 191.953 170.788 186.971 172.522 182.231C173.447 179.702 174.58 177.249 176.084 174.98C177.628 172.649 179.472 170.512 181.414 168.473C185.289 164.405 189.602 160.692 193.021 156.245C196.603 151.586 198.662 146.283 199.367 140.555Z" fill="#EAEAEA"/>
<path d="M173.168 92.9955C172.428 90.1023 171.162 87.3217 169.392 84.9129C167.549 82.4068 165.201 80.3543 162.833 78.3629C160.429 76.3416 157.957 74.3475 155.963 71.9026C153.88 69.349 152.792 66.3428 151.666 63.2908C150.589 60.3747 149.36 57.4217 147.003 55.294C144.694 53.2102 141.701 52.0735 138.671 51.5483C135.149 50.9377 131.588 51.1633 128.046 51.4383C124.094 51.7449 120.176 51.9802 116.244 51.3217C109.015 50.1111 102.275 46.9171 95.0191 45.8393C88.7968 44.9151 82.0211 45.4768 77.0793 49.7552C72.4991 53.72 70.5253 59.7466 68.4499 65.2342C67.2547 68.3953 65.9329 71.4829 64.2036 74.3941C62.3649 77.4897 60.1729 80.3208 57.7231 82.9549C55.4515 85.3976 53.0589 87.7348 51.0336 90.3935C49.0493 92.9986 47.5479 95.9204 46.8767 99.1404C45.5732 105.392 47.119 112.045 50.3751 117.465C52.1695 120.451 54.6395 122.918 56.6564 125.742C57.6738 127.166 58.5396 128.684 59.1369 130.333C59.7308 131.974 60.1051 133.684 60.3959 135.401C60.9836 138.87 61.2458 142.416 62.2734 145.797C63.1743 148.761 64.695 151.496 66.653 153.891C70.8847 159.068 76.9531 162.38 83.4059 163.9C84.7577 164.218 86.1266 164.449 87.5039 164.611C88.5064 164.837 89.5195 165.029 90.5471 165.177C94.2048 165.704 97.9897 165.838 101.635 165.146C108.819 163.781 114.25 158.508 120.97 155.982C124.492 154.658 128.183 153.93 131.938 153.736C135.694 153.541 139.459 153.749 143.214 153.522C149.522 153.14 157.346 151.138 159.074 144.116C159.844 140.989 159.373 137.72 159.148 134.556C158.915 131.288 158.976 128.061 160.452 125.063C163.174 119.532 168.575 115.888 171.371 110.383C174.072 105.063 174.64 98.759 173.168 92.9955Z" fill="#F4F4F4"/>
<path d="M168.067 127.23C167.749 126.442 167.137 125.922 166.276 125.849C165.34 125.771 164.512 126.182 163.955 126.917C163.517 127.496 163.24 128.194 163.047 128.909C163.005 128.995 162.961 129.08 162.922 129.166C162.406 130.319 162.042 131.613 162.511 132.849C162.713 133.383 163.055 133.863 163.606 134.068C164.039 134.229 164.54 134.178 164.969 134.028C165.967 133.679 166.852 132.83 167.456 131.984C167.937 131.311 168.192 130.515 168.296 129.699C168.398 128.895 168.374 127.99 168.067 127.23Z" fill="#F4F4F4"/>
<path d="M55.6121 69.581C54.3272 69.9038 53.084 70.5382 52.0542 71.3696C50.7095 72.4552 49.5438 73.8352 48.6165 75.3132C47.6518 75.9994 47.0891 77.4164 46.717 78.4321C46.2467 79.7161 45.718 81.3877 46.8877 82.4567C48.0965 83.5612 50.1609 83.1372 51.5466 82.6682C53.1399 82.1289 54.5322 80.9139 55.6842 79.7249C57.0976 78.2667 58.445 76.6245 59.228 74.7334C59.7902 73.3755 60.1144 71.3696 59.0327 70.1612C58.1644 69.1908 56.762 69.292 55.6121 69.581Z" fill="#F4F4F4"/>
<path d="M65.2779 57.1574C64.8596 56.2688 64.0115 55.6081 63.0125 55.5737C62.0209 55.5394 61.1288 56.1091 60.4642 56.7962C60.0449 57.2295 59.5949 57.826 59.2391 58.4854C58.9764 58.8822 58.778 59.3199 58.6791 59.8046C58.6509 59.9423 58.6355 60.0813 58.6267 60.2203C58.5075 61.0385 58.6676 61.8321 59.3253 62.4422C59.4075 62.5188 59.5197 62.4418 59.5184 62.356C60.5579 63.2019 62.1604 63.0959 63.2936 62.4541C65.0575 61.4542 66.1801 59.0735 65.2779 57.1574Z" fill="#F4F4F4"/>
<path d="M123.724 159.314C121.622 159.617 119.629 160.386 117.899 161.626C116.358 162.73 114.47 164.407 114.771 166.527C115.031 168.364 116.899 169.24 118.55 169.488C120.537 169.787 122.705 169.512 124.583 168.803C126.42 168.111 128.268 166.99 129.471 165.41C129.569 165.281 129.652 165.149 129.728 165.016C131.079 163.844 130.452 161.612 129.29 160.53C127.817 159.159 125.612 159.041 123.724 159.314Z" fill="#F4F4F4"/>
<path d="M106.52 46.3462C109.126 47.4582 111.969 47.9641 114.749 48.4304C115.548 48.5645 116.35 48.6824 117.154 48.7775C117.176 48.7849 117.196 48.7937 117.22 48.799C120.732 49.586 124.345 49.5424 127.842 48.7119C129.201 48.389 130.576 47.8497 131.74 47.0711C132.303 46.6946 132.82 46.2511 133.253 45.7294C133.732 45.1532 133.955 44.6319 134.061 43.8894C134.065 43.8647 134.062 43.8427 134.061 43.8203C134.116 43.7288 134.174 43.6386 134.223 43.5418C135.715 40.6359 133.607 37.6622 131.193 36.1191C128.745 34.5539 125.84 33.5716 122.997 33.0389C117.26 31.9638 111.251 32.687 105.974 35.1997C104.679 35.816 103.374 36.5251 102.245 37.4146C101.021 38.3779 100.668 39.7812 101.16 41.2487C101.982 43.6984 104.234 45.3709 106.52 46.3462Z" fill="#F4F4F4"/>
<mask id="mask0_9442_42138" style="mask-type:luminance" maskUnits="userSpaceOnUse" x="46" y="31" width="128" height="135">
<path d="M173.167 92.993C172.428 90.0998 171.162 87.3192 169.391 84.9104C167.549 82.4043 165.201 80.3517 162.833 78.3603C160.429 76.339 157.957 74.345 155.963 71.9001C153.88 69.3465 152.792 66.3402 151.665 63.2883C150.589 60.3722 149.36 57.4192 147.003 55.2914C144.694 53.2077 141.701 52.071 138.671 51.5457C135.149 50.9352 131.588 51.1608 128.046 51.4358C124.238 51.7314 120.461 51.9522 116.673 51.379C117.327 49.1655 117.936 46.8076 118.137 45.1286C118.636 40.9746 108.168 31.3379 108.168 31.3379L99.6018 46.779C98.0907 46.3963 96.5669 46.0664 95.019 45.8364C88.7967 44.9121 82.021 45.4739 77.0792 49.7523C72.499 53.7171 70.5252 59.7436 68.4498 65.2313C67.2546 68.3924 65.9327 71.48 64.2035 74.3912C62.3647 77.4867 60.1728 80.3179 57.723 82.952C55.4514 85.3947 53.0588 87.7319 51.0335 90.3906C49.0492 92.9956 47.5478 95.9174 46.8765 99.1379C45.5731 105.39 47.1189 112.042 50.375 117.462C52.1693 120.449 54.6393 122.915 56.6562 125.739C57.6737 127.164 58.5394 128.681 59.1368 130.331C59.7307 131.971 60.105 133.681 60.3958 135.399C60.9835 138.868 61.2457 142.413 62.2733 145.794C63.1742 148.759 64.6949 151.494 66.6528 153.889C70.8846 159.066 76.953 162.377 83.4058 163.897C84.7576 164.216 86.1265 164.447 87.5038 164.608C88.5063 164.835 89.5194 165.027 90.547 165.175C94.2047 165.701 97.9896 165.835 101.635 165.143C108.818 163.779 114.25 158.505 120.97 155.979C124.492 154.655 128.183 153.928 131.937 153.734C135.694 153.539 139.459 153.746 143.214 153.519C149.522 153.138 157.346 151.136 159.074 144.113C159.843 140.986 159.373 137.717 159.148 134.553C158.915 131.285 158.976 128.059 160.451 125.06C163.173 119.53 168.575 115.886 171.371 110.381C174.072 105.06 174.64 98.7565 173.167 92.993Z" fill="white"/>
</mask>
<g mask="url(#mask0_9442_42138)">
<path d="M146.249 82.0893C145.607 80.397 145.864 78.8314 144.279 77.8082C143.442 77.2681 141.425 76.7974 140.453 76.7199C139.239 76.6236 138.022 76.5647 136.805 76.5255C132.02 76.3716 127.238 76.5669 122.453 76.6073C119.796 76.6298 117.127 76.5669 114.479 76.3474C112.887 76.2158 111.32 75.9924 109.755 75.7425C109.046 75.4297 108.434 74.9705 108.266 74.1457C108.141 73.5298 108.195 72.8788 108.204 72.2546C108.213 71.5925 108.222 70.9309 108.229 70.2689C108.237 69.5031 108.287 68.6844 108.262 67.882C109.878 66.3371 111.155 64.3273 112.176 62.3847C113.384 60.0849 114.197 57.5762 114.687 55.0301C115.175 52.4924 115.284 49.9212 115.014 47.3504C114.734 44.6908 114.082 41.7875 112.668 39.4887C111.859 38.1729 110.811 37.0547 109.579 36.1252C109.072 35.7434 108.362 35.1882 107.71 35.1429C107.4 35.1214 107.116 35.252 106.939 35.4746C106.856 35.4557 106.758 35.4869 106.741 35.5846C106.616 36.2831 106.416 36.9623 106.284 37.6604C106.152 38.359 106.002 39.0532 105.834 39.7442C105.498 41.1308 105.07 42.4817 104.653 43.8449C103.817 46.5753 102.829 49.2539 101.819 51.9236C100.861 54.4543 99.9533 56.9586 98.393 59.1928C97.0003 61.1873 95.3239 62.964 93.6985 64.7663C92.3907 66.2162 91.1409 67.6793 90.1287 69.3187C89.984 69.2835 89.8111 69.3372 89.7456 69.5163C89.5551 70.0388 89.3655 70.5614 89.1759 71.084C89.1553 71.1285 89.1315 71.1707 89.1117 71.2151C89.0994 71.2428 89.0976 71.2688 89.0998 71.2934C88.29 73.525 87.4797 75.7539 86.6025 77.9618C85.4931 80.7525 84.4158 83.5555 83.2928 86.3409C82.2045 89.0405 81.1575 91.7846 79.8546 94.39C79.2194 95.6609 78.4984 96.901 77.6076 98.0113C76.7586 99.0701 75.7943 100.014 74.8011 100.935C70.3357 105.078 65.7269 109.072 61.1973 113.143C56.626 117.252 52.0964 121.408 47.5496 125.544C45.0115 127.853 42.4623 130.149 39.9162 132.449C37.3907 134.73 34.8094 136.978 32.4182 139.401C32.3764 139.422 32.3372 139.453 32.3095 139.506C32.3091 139.507 32.3086 139.508 32.3082 139.51C32.2796 139.539 32.2497 139.566 32.2211 139.595C32.1692 139.648 32.1793 139.708 32.2154 139.748C31.9017 140.649 32.3685 141.599 32.8977 142.349C33.6068 143.355 34.3973 144.313 35.1886 145.254C36.7934 147.162 38.5169 148.967 40.32 150.689C44.2065 154.399 48.4017 157.793 52.4791 161.29C53.6708 162.311 54.8633 163.332 56.0572 164.35C56.6541 164.86 57.2445 165.376 57.8414 165.886C58.3328 166.305 58.8004 166.773 59.385 167.046C59.3436 167.159 59.4664 167.269 59.5759 167.178C59.6014 167.157 59.6252 167.135 59.6507 167.114C59.7044 167.095 59.7483 167.054 59.7791 167.003C61.9878 165.163 64.0241 163.093 66.0824 161.09C68.2101 159.019 70.3559 156.968 72.5171 154.932C76.84 150.861 81.2042 146.836 85.6282 142.875C87.8079 140.923 90.0803 139.049 92.1852 137.014C93.3444 137.228 94.5466 137.244 95.7255 137.223C97.7983 137.184 99.8724 137.035 101.931 136.796C106.053 136.317 110.129 135.465 114.106 134.278C117.991 133.118 121.725 131.555 125.439 129.942C129.161 128.326 132.923 126.724 136.901 125.85C138.76 125.441 141.032 125.547 142.385 123.994C143.088 123.187 143.53 122.167 143.8 121.111C144.522 119.179 144.841 117.057 145.227 115.064C145.587 113.206 145.845 111.333 146.161 109.468C146.333 108.456 146.487 107.421 146.578 106.383C146.89 105.08 147.14 103.756 147.383 102.464C147.823 100.115 148.116 97.7442 148.209 95.3547C148.289 93.2828 147.584 91.3944 147.326 89.3278C147.025 86.9251 147.108 84.3521 146.249 82.0893Z" fill="#C4C4C4"/>
<path d="M111.449 97.9225C112.204 99.8097 113.476 101.634 113.297 103.658C113.133 105.497 111.778 107.084 111.693 108.927C111.634 110.196 112.184 111.4 112.561 112.612C112.938 113.824 113.12 115.235 112.411 116.288C111.636 117.439 110.029 117.751 108.671 117.466C107.313 117.182 106.109 116.429 104.858 115.83C101.934 114.429 98.6265 113.841 95.399 114.148C94.1097 114.271 92.8147 114.532 91.5306 114.365C90.2466 114.197 88.9291 113.481 88.5042 112.258C94.8118 112.216 101.031 109.125 104.872 104.122C106.513 101.985 107.706 99.5149 108.408 96.9156C109.051 94.5375 108.469 91.4649 109.404 89.2984C110.081 87.7284 111.961 86.5209 111.393 89.2078C110.747 92.2703 110.234 94.8824 111.449 97.9225Z" fill="#E9E9E9"/>
<path d="M108.164 68.7581C108.156 68.6627 108.153 68.5553 108.131 68.4616C108.103 68.3411 108.036 68.2369 108.012 68.1141C107.967 67.8889 107.625 67.7868 107.472 67.9681C107.38 67.958 107.282 67.9813 107.197 68.0605C106.536 68.6741 105.644 68.8694 104.827 69.1879C104.345 69.3757 103.855 69.5042 103.363 69.659C102.898 69.8051 102.291 69.8816 101.883 70.1425C101.817 70.1843 101.849 70.2722 101.92 70.2802C102.18 70.3087 102.407 70.234 102.664 70.1834C102.962 70.1249 103.263 70.0932 103.562 70.0404C103.799 69.9986 104.037 69.9687 104.274 69.9384C104.527 69.9573 104.787 69.959 105.034 70.0162C105.313 70.0809 105.486 70.2217 105.678 70.4266C105.767 70.5225 105.868 70.607 105.96 70.7011C105.983 70.7249 106.005 70.7486 106.027 70.7733C106.034 70.7799 106.047 70.797 106.052 70.8045C106.089 70.8529 106.125 70.9017 106.16 70.951C106.196 71.0029 106.23 71.0566 106.26 71.1124C106.264 71.1204 106.294 71.1877 106.296 71.1903C106.302 71.2066 106.31 71.2264 106.311 71.2303C106.333 71.2866 106.352 71.3425 106.363 71.4015C106.369 71.4305 106.374 71.4595 106.378 71.4885C106.378 71.4943 106.379 71.4965 106.379 71.4995C106.379 71.5083 106.38 71.5171 106.38 71.5321C106.383 71.5317 106.386 71.5312 106.389 71.5308C106.391 71.6355 106.429 71.7331 106.498 71.807C106.481 72.5443 106.513 73.297 106.364 74.0122C106.169 74.9501 105.517 75.3359 104.713 75.7348C104.226 75.9759 103.739 76.2183 103.272 76.4954C102.8 76.7756 102.401 77.1469 101.951 77.4601C101.843 77.5358 101.906 77.7166 102.045 77.6809C102.598 77.5375 103.161 77.4742 103.701 77.2811C104.226 77.0937 104.742 76.8812 105.254 76.6599C106.169 76.2645 106.952 75.7511 107.315 74.7825C107.519 74.2396 107.57 73.6625 107.584 73.0832C107.742 72.7097 107.834 72.3006 107.921 71.9056C108.009 71.4991 108.098 71.0825 108.143 70.6686C108.188 70.2498 108.208 69.831 108.196 69.41C108.19 69.1927 108.181 68.975 108.164 68.7581Z" fill="#E9E9E9"/>
<path d="M90.4995 134.496C90.2593 134.098 90.2061 133.628 90.0104 133.202C89.6057 132.323 89.0523 131.488 88.564 130.652C87.605 129.009 86.734 127.312 85.8732 125.617C85.0198 123.937 84.0401 122.329 83.0754 120.711C82.1429 119.146 81.15 117.432 79.8189 116.17C79.6997 116.057 79.5132 116.199 79.5924 116.344C80.0472 117.178 80.5927 117.964 81.0735 118.784C81.5574 119.609 82.0021 120.454 82.4328 121.308C83.2844 122.996 83.9944 124.765 84.7686 126.49C85.5459 128.222 86.4547 129.912 87.4084 131.554C87.8826 132.37 88.4061 133.249 89.0571 133.937C89.4046 134.305 89.8353 134.522 90.1564 134.921C90.4195 135.248 90.6381 135.653 91.019 135.849C91.1339 135.909 91.2667 135.811 91.2359 135.683C91.1264 135.224 90.7397 134.892 90.4995 134.496Z" fill="#E9E9E9"/>
<path d="M90.398 129.798C90.1521 129 89.7984 128.225 89.4747 127.456C88.8452 125.963 88.2421 124.321 87.2413 123.032C87.1318 122.891 86.9145 123.046 86.9554 123.198C87.3662 124.723 88.1902 126.153 88.8179 127.597C89.1368 128.331 89.4478 129.069 89.7491 129.811C89.8908 130.16 90.0588 130.496 90.1926 130.849C90.3439 131.246 90.4424 131.664 90.6052 132.056C90.6426 132.147 90.7679 132.136 90.7763 132.033C90.8379 131.311 90.6096 130.483 90.398 129.798Z" fill="#E9E9E9"/>
<path d="M141.987 101.089C141.841 98.8245 141.538 96.5736 141.362 94.3116C141.186 92.0409 141.208 89.8014 141.538 87.5461C141.828 85.5595 142.231 83.4405 141.634 81.4698C141.427 80.7862 141.065 80.1013 140.474 79.6759C139.736 79.1459 138.844 79.269 137.992 79.3332C135.715 79.5048 133.439 79.6764 131.163 79.8479C127.159 80.1497 122.756 79.9416 118.833 80.8122C116.006 81.4395 113.202 85.1838 113.033 88.1263C112.901 90.4225 114.165 92.5899 114.267 94.8875C114.351 96.7354 113.716 98.7651 114.699 100.332C115.215 101.153 116.118 101.712 116.49 102.608C117.125 104.138 115.983 105.591 115.374 106.914C114.711 108.355 114.263 109.726 114.555 111.336C114.778 112.567 115.27 113.731 115.627 114.929C115.984 116.128 116.206 117.418 115.877 118.624C115.539 119.86 114.644 120.789 113.377 120.913C112.108 121.038 111.018 121.274 110.351 122.555C109.718 123.77 110.193 125.458 111.395 126.116C113.29 127.153 114.849 125.124 116.238 124.159C116.997 123.631 117.687 123.014 118.432 122.466C119.269 121.85 120.311 121.209 121.396 121.464C122.404 121.701 123.023 122.635 123.319 123.568C123.728 124.86 123.526 127.749 125.671 127.448C125.744 127.438 125.804 127.348 125.801 127.278C125.739 125.881 125.73 123.779 127.302 123.177C129.37 122.385 130.858 124.605 131.757 126.079C131.847 126.226 132.094 126.171 132.089 125.99C132.044 124.264 133.62 123.074 134.868 122.15C136.248 121.128 137.459 120.019 138.414 118.577C140.517 115.401 141.401 111.459 141.832 107.726C142.086 105.523 142.13 103.302 141.987 101.089Z" fill="#E9E9E9"/>
<path d="M146.997 119.882C146.564 120.86 146.113 121.877 145.469 122.723C145.181 123.101 143.812 123.86 143.731 123.865C142.237 123.933 140.674 123.672 139.198 123.496C137.811 123.328 136.429 123.131 135.051 122.912C134.446 122.817 133.837 122.723 133.227 122.629C133.215 122.624 133.201 122.624 133.189 122.624C131.377 122.337 129.557 122.036 127.772 121.628C125.952 121.216 124.093 120.594 122.698 119.311C121.818 118.499 121.187 117.439 121.204 116.37C121.213 115.765 121.431 115.164 121.917 114.598C122.222 114.241 122.582 113.967 122.972 113.752C122.977 113.67 123.02 113.589 123.114 113.55C123.221 113.503 123.333 113.46 123.444 113.426C125.054 112.846 126.814 112.923 128.497 113.013C130.471 113.116 132.446 113.219 134.42 113.327C136.39 113.43 138.364 113.498 140.335 113.653C140.39 113.657 140.45 113.662 140.506 113.666C142.18 113.803 143.91 114.001 145.434 114.735C145.515 114.773 145.49 114.872 145.425 114.906C145.425 114.906 145.425 114.906 145.421 114.906C145.408 114.915 145.395 114.919 145.382 114.919C145.901 115.374 146.361 116.005 146.691 116.632C146.781 116.799 146.859 116.971 146.927 117.134C147.289 118.006 147.388 119.002 146.997 119.882Z" fill="#C4C4C4"/>
<path d="M146.692 116.634C146.641 116.655 146.585 116.677 146.529 116.694C145.817 116.934 145.061 117.08 144.319 117.192C142.864 117.411 141.391 117.445 139.928 117.355C138.413 117.265 136.91 117.033 135.425 116.75C134.653 116.604 133.88 116.445 133.094 116.385C132.318 116.321 131.605 116.441 130.841 116.527C130.807 116.642 130.777 116.754 130.738 116.866C130.643 117.171 130.562 117.488 130.442 117.784C130.317 118.106 130.193 118.411 130.094 118.742C130.064 118.853 129.901 118.806 129.927 118.694C130.047 118.145 130.137 117.587 130.21 117.025C130.24 116.763 130.313 116.466 130.287 116.205C130.266 115.977 130.009 115.84 129.833 115.733C129.433 115.484 128.948 115.329 128.472 115.415C128.262 115.458 128.06 115.51 127.876 115.621C127.837 115.642 127.807 115.672 127.777 115.694C127.713 115.771 127.648 115.844 127.605 115.934C127.567 116.007 127.532 116.071 127.494 116.136C127.498 116.17 127.506 116.205 127.506 116.243C127.511 116.338 127.404 116.355 127.348 116.299C127.296 116.334 127.24 116.363 127.163 116.372C127.099 116.381 127.068 116.286 127.111 116.248C127.163 116.196 127.197 116.14 127.232 116.08C126.901 115.475 126.154 115.247 125.536 115.042C124.695 114.758 123.854 114.475 123.012 114.192C122.866 114.14 122.819 113.969 122.927 113.853C123.081 113.681 123.253 113.539 123.446 113.428C125.056 112.848 126.816 112.925 128.498 113.015C130.473 113.118 132.447 113.221 134.422 113.329C136.392 113.432 138.366 113.5 140.336 113.655C140.392 113.659 140.452 113.664 140.508 113.668C141.268 113.788 142.019 113.942 142.766 114.136C143.633 114.359 144.547 114.595 145.423 114.908C145.41 114.917 145.397 114.921 145.384 114.921C145.903 115.376 146.362 116.007 146.692 116.634Z" fill="#E9E9E9"/>
<path d="M127.032 115.504C127.106 115.424 127.12 115.29 126.996 115.228C126.298 114.876 125.582 114.557 124.852 114.277C124.169 114.016 123.346 113.617 122.598 113.698C121.386 113.831 120.662 115.401 120.944 116.487C120.953 116.52 120.978 116.536 121.006 116.544C121.051 116.727 121.113 116.907 121.19 117.076C121.505 117.77 122.097 118.294 122.73 118.694C123.396 119.115 124.187 119.548 124.987 119.596C125.328 119.617 125.726 119.568 125.979 119.315C126.256 119.038 126.357 118.547 126.482 118.19C126.654 117.698 126.843 117.209 126.99 116.709C127.105 116.317 127.176 115.889 127.032 115.504Z" fill="#E8E8E8"/>
<path d="M151.822 108.083C151.68 109.04 151.346 110.01 151.007 110.912C150.68 111.779 150.234 112.577 149.629 113.285C149.204 113.783 148.667 114.367 148.075 114.732C147.702 115.238 146.993 115.41 146.371 115.483C145.062 115.637 143.718 115.646 142.4 115.616C137.589 115.513 132.829 114.59 128.184 113.363C126.991 113.045 125.806 112.71 124.622 112.358C123.647 112.071 122.66 111.792 121.754 111.315C121.235 111.041 120.686 110.629 120.243 110.131C120.214 110.131 120.188 110.122 120.166 110.088C120.115 110.019 120.071 109.942 120.024 109.865C119.651 109.384 119.398 108.834 119.35 108.263C119.033 106.942 119.235 105.521 120.213 104.469C120.342 104.327 120.484 104.203 120.634 104.091C122.003 103.052 124.067 103.134 125.694 103.104C128.038 103.061 130.377 103.203 132.721 103.289C137.459 103.46 142.121 103.104 146.778 102.185C146.778 102.181 146.778 102.181 146.778 102.181C146.744 102.095 146.842 102.009 146.924 102.031C147.216 102.121 147.443 102.34 147.688 102.511C147.954 102.696 148.229 102.863 148.504 103.031C149.023 103.34 149.555 103.64 150.036 104.005C150.062 104.027 150.087 104.044 150.113 104.066C150.534 104.396 150.912 104.761 151.22 105.199C151.457 105.542 151.718 106.027 151.765 106.478C151.925 106.989 151.895 107.581 151.822 108.083Z" fill="#C4C4C4"/>
<path d="M136.578 105.746C138.139 105.653 139.688 105.457 141.26 105.21C142.431 105.026 143.623 104.896 144.768 104.578C145.832 104.283 146.774 103.771 147.707 103.19C147.882 103.081 148.059 102.973 148.236 102.866C148.051 102.752 147.868 102.636 147.689 102.512C147.444 102.34 147.217 102.121 146.925 102.031C146.843 102.009 146.744 102.095 146.779 102.181C146.779 102.181 146.779 102.181 146.779 102.186C142.122 103.104 137.46 103.46 132.721 103.289C130.378 103.203 128.038 103.061 125.695 103.104C124.068 103.134 122.003 103.053 120.635 104.091C121.626 104.529 122.682 104.756 123.763 104.756C123.793 104.765 123.828 104.778 123.862 104.786C124.475 104.942 125.1 105.025 125.727 105.089C125.847 105.266 125.967 105.443 126.088 105.621C126.094 105.642 126.097 105.665 126.104 105.686C126.122 105.745 126.166 105.789 126.219 105.813C126.299 105.932 126.379 106.05 126.46 106.168C126.469 106.182 126.481 106.189 126.491 106.2C126.519 106.258 126.549 106.314 126.592 106.362C126.634 106.408 126.711 106.415 126.763 106.384C126.822 106.35 126.837 106.288 126.828 106.226C126.822 106.182 126.817 106.146 126.812 106.109C126.82 106.076 126.817 106.04 126.805 106.002C126.804 105.974 126.801 105.948 126.804 105.916C126.804 105.913 126.805 105.899 126.805 105.894C126.807 105.887 126.811 105.861 126.812 105.857C126.817 105.831 126.823 105.804 126.831 105.778C126.838 105.752 126.848 105.726 126.857 105.7C126.858 105.696 126.859 105.695 126.859 105.693C126.866 105.679 126.873 105.665 126.88 105.651C126.905 105.602 126.931 105.553 126.961 105.508C126.969 105.497 126.976 105.486 126.984 105.475C127.005 105.454 127.024 105.429 127.045 105.407C127.064 105.387 127.083 105.367 127.103 105.349C127.112 105.34 127.123 105.333 127.132 105.324C127.183 105.289 127.235 105.259 127.292 105.234C127.296 105.233 127.297 105.23 127.301 105.228C129.41 105.406 131.523 105.538 133.636 105.64C134.616 105.689 135.597 105.721 136.578 105.746Z" fill="#E9E9E9"/>
<path d="M128.366 107.41C128.33 107.324 128.193 107.3 128.165 107.41C128.042 107.916 127.953 108.431 127.832 108.939C127.711 109.452 127.509 109.938 127.315 110.426C127.248 110.593 127.487 110.703 127.601 110.592C128.014 110.191 128.274 109.653 128.429 109.103C128.585 108.556 128.59 107.94 128.366 107.41Z" fill="#E9E9E9"/>
<path d="M129.422 107.672C129.416 107.648 129.405 107.616 129.393 107.596C129.376 107.566 129.352 107.544 129.336 107.513C129.311 107.466 129.239 107.468 129.214 107.513C129.196 107.545 129.17 107.564 129.151 107.596C129.138 107.617 129.127 107.649 129.119 107.672C129.099 107.729 129.103 107.794 129.1 107.855C129.095 107.957 129.084 108.058 129.085 108.159C129.086 108.261 129.085 108.362 129.081 108.463C129.077 108.568 129.057 108.679 129.08 108.782C129.095 108.843 129.172 108.842 129.203 108.799C129.264 108.713 129.284 108.595 129.311 108.494C129.339 108.393 129.364 108.291 129.387 108.189C129.412 108.079 129.418 107.966 129.426 107.855C129.431 107.793 129.44 107.731 129.422 107.672Z" fill="#E9E9E9"/>
<path d="M126.702 106.312C126.557 105.642 126.102 105.12 125.549 104.771C125.209 104.556 124.839 104.403 124.458 104.291C124.426 104.27 124.396 104.248 124.363 104.228C124.31 104.196 124.255 104.169 124.201 104.139C124.096 104.074 123.986 104.018 123.873 103.97C123.547 103.816 123.209 103.69 122.863 103.601C122.106 103.406 121.159 103.325 120.365 103.581C120.337 103.544 120.296 103.519 120.25 103.538C119.589 103.826 119.241 104.408 119.03 105.098C118.788 105.886 118.562 106.809 118.659 107.639C118.858 109.338 120.676 109.82 122.018 110.187C123.645 110.634 125.457 110.464 126.271 108.728C126.614 107.996 126.879 107.129 126.702 106.312Z" fill="#E8E8E8"/>
<path d="M151.796 98.1894C151.68 99.6529 151.088 101.726 149.405 102.25H149.393C148.98 102.443 148.513 102.559 148.062 102.671C146.692 103.005 145.302 103.267 143.903 103.469C141.117 103.868 138.305 103.971 135.49 103.945C130.721 103.898 125.643 103.529 121.231 101.687C120.518 101.391 119.818 101.018 119.239 100.52C119.089 100.391 118.947 100.249 118.814 100.103C118.698 99.9745 118.595 99.8416 118.501 99.7039C118.05 99.0599 117.801 98.3134 117.672 97.5493C117.389 95.8667 117.17 93.6048 118.779 92.4373C119.595 91.8452 120.638 91.609 121.63 91.4331C122.848 91.214 124.089 91.1067 125.329 91.0723C126.785 91.0292 128.235 91.0811 129.682 91.1498C130.759 91.2012 131.836 91.2615 132.914 91.3002C135.541 91.3948 138.078 91.2188 140.675 90.8625C141.786 90.7081 142.902 90.515 144.027 90.4033C144.109 90.3945 144.19 90.3861 144.272 90.3777C144.817 90.3263 145.362 90.3307 145.864 90.4719C146.118 90.5361 146.358 90.6395 146.585 90.7811C147.379 91.0042 148.148 91.3864 148.856 91.7814C149.126 91.9319 149.393 92.0907 149.65 92.2535C149.779 92.3348 149.908 92.4167 150.032 92.5024C150.22 92.6313 150.41 92.7642 150.586 92.9058C150.598 92.9142 150.607 92.9274 150.62 92.9357C150.65 92.9357 150.684 92.9401 150.71 92.9656C151.392 93.5366 151.59 94.5669 151.71 95.378C151.852 96.3049 151.869 97.2577 151.796 98.1894Z" fill="#C4C4C4"/>
<path d="M123.51 99.674C123.304 99.7726 123.115 99.9142 122.909 99.996C122.759 100.056 122.6 100.103 122.441 100.15C122.029 100.49 121.359 100.549 120.866 100.588C120.449 100.618 120.033 100.601 119.617 100.545C119.561 100.536 119.51 100.523 119.454 100.515C119.385 100.52 119.317 100.52 119.239 100.52C119.089 100.391 118.947 100.249 118.814 100.103C118.698 99.974 118.595 99.8412 118.501 99.7035C118.836 99.8883 119.273 99.8152 119.643 99.8324C120.063 99.854 120.484 99.8623 120.905 99.854C121.239 99.8452 121.574 99.824 121.909 99.7937C122.089 99.7163 122.257 99.6221 122.437 99.5447C122.548 99.4932 122.711 99.5535 122.737 99.6692C122.763 99.6648 122.789 99.6608 122.815 99.652C123.029 99.6089 123.235 99.605 123.445 99.5276C123.531 99.4981 123.591 99.6353 123.51 99.674Z" fill="#E9E9E9"/>
<path d="M133.795 94.4274C134.12 94.4111 134.445 94.3948 134.771 94.3794C137.119 94.0262 139.486 93.8014 141.835 93.4464C143.216 93.2375 144.663 93.0294 145.947 92.4518C146.665 92.1289 147.342 91.7339 148.024 91.3472C147.559 91.1216 147.079 90.9188 146.586 90.7802C146.359 90.6386 146.118 90.5356 145.865 90.471C145.251 90.4367 144.642 90.4107 144.028 90.4023C142.904 90.5141 141.788 90.7072 140.676 90.8616C138.079 91.2179 135.542 91.3939 132.915 91.2993C131.838 91.2606 130.76 91.2003 129.683 91.1488C127.764 91.2949 125.849 91.4493 123.936 91.6169C122.107 91.7801 120.12 91.9345 118.652 93.1534C118.549 93.2392 118.681 93.4068 118.793 93.3378C118.806 93.329 118.819 93.325 118.832 93.3162C118.823 93.4534 118.905 93.5951 119.076 93.5995C121.094 93.6466 123.025 94.3249 124.657 95.5011C124.841 95.6384 125.034 95.4154 125.004 95.2394C124.961 94.9948 124.923 94.7542 124.884 94.5096C124.875 94.4538 124.721 93.8744 124.751 93.8269C124.803 93.7627 125.476 93.8441 125.562 93.8485C125.833 93.8656 126.103 93.8916 126.373 93.9171C127.395 94.0156 128.4 94.2048 129.421 94.3033C130.873 94.4463 132.336 94.4634 133.795 94.4274Z" fill="#E9E9E9"/>
<path d="M128.13 96.6667C128.109 96.5409 128.085 96.4173 128.044 96.2959C128.004 96.1732 127.968 96.0355 127.881 95.9374C127.817 95.8648 127.699 95.9075 127.674 95.9924C127.642 96.1032 127.661 96.2321 127.664 96.3478C127.668 96.4749 127.679 96.6003 127.687 96.7274C127.704 96.9733 127.727 97.2188 127.734 97.4651C127.741 97.7115 127.726 97.9574 127.733 98.2037C127.738 98.4408 127.733 98.6863 127.769 98.9207C127.776 98.9661 127.84 98.9661 127.861 98.9326C127.993 98.718 128.07 98.447 128.122 98.202C128.176 97.9521 128.182 97.6926 128.183 97.4374C128.185 97.1783 128.173 96.9223 128.13 96.6667Z" fill="#E9E9E9"/>
<path d="M149.577 89.8975C149.543 89.9534 149.483 89.9789 149.427 89.9789C148.281 91.3351 146.083 91.8419 144.469 92.0134C142.143 92.258 139.752 92.185 137.417 92.1894C135.073 92.1938 132.73 92.1291 130.395 91.9492C128.107 91.7732 125.828 91.5071 123.574 91.0822C123.325 91.0351 123.072 90.9832 122.823 90.9317C122.823 90.9317 122.823 90.9317 122.819 90.9317C121.913 90.743 121.016 90.5283 120.132 90.2794C119.956 90.2323 119.775 90.1808 119.591 90.125C119.578 90.1338 119.565 90.1465 119.544 90.1465C119.235 90.1421 118.947 90.0906 118.69 90.0049C116.037 89.1035 116.097 84.2488 118.505 82.9868C119.965 82.2183 121.789 82.2399 123.39 82.1624C125.343 82.0639 127.287 81.862 129.219 81.54C132.948 80.9219 136.631 80.0074 140.289 79.0291C141.185 78.7889 142.078 78.5096 142.92 78.1018C143.567 77.7842 143.967 77.5739 144.636 77.9302C146.066 78.6943 147.418 79.7804 148.508 80.9734C149.585 82.1497 150.508 83.5015 150.68 85.1242C150.848 86.7127 150.397 88.5325 149.577 89.8975Z" fill="#C4C4C4"/>
<path d="M125.841 88.3337C125.789 88.8533 125.308 89.3983 124.93 89.7242C124.535 90.0674 124.115 90.2693 123.639 90.3982C123.557 90.4795 123.475 90.5614 123.385 90.6344C123.209 90.7848 123.024 90.879 122.823 90.9304C122.823 90.9304 122.823 90.9304 122.819 90.9304C121.913 90.7417 121.016 90.527 120.132 90.2781C119.956 90.231 119.775 90.1795 119.591 90.1237C119.578 90.1325 119.565 90.1452 119.544 90.1452C119.235 90.1408 118.947 90.0894 118.69 90.0036C119.179 89.7634 119.917 89.7889 120.407 89.7718C121.136 89.7418 121.87 89.7761 122.6 89.7119C123.218 89.6561 123.789 89.4629 124.377 89.2742C124.665 89.1841 124.935 89.0596 125.18 88.8792C125.399 88.7116 125.545 88.4758 125.742 88.2911C125.776 88.2612 125.845 88.2823 125.841 88.3337Z" fill="#E9E9E9"/>
<path d="M125.809 86.8538C125.443 84.832 123.273 83.9866 121.471 83.7943C120.341 83.6738 118.899 83.508 117.834 84.0068C117.663 84.0864 117.502 84.1924 117.352 84.3116C116.822 84.4885 116.42 85.0718 116.215 85.6111C115.869 86.5256 115.685 87.643 116.223 88.5223C116.748 89.3805 117.743 89.7764 118.697 89.9106C119.875 90.076 121.095 90.0303 122.277 89.9326C123.209 89.8552 124.314 89.802 125.062 89.1672C125.722 88.6072 125.961 87.6874 125.809 86.8538Z" fill="#E8E8E8"/>
<path d="M122.141 93.3445C121.081 92.9896 119.767 92.6187 118.652 92.9091C117.979 93.0841 117.399 93.5742 117.197 94.2147C117.052 94.4562 116.939 94.7144 116.856 94.9431C116.494 95.9373 116.422 97.0757 116.813 98.0725C117.145 98.9215 117.783 99.646 118.633 99.9979C119.567 100.384 120.608 100.268 121.574 100.081C123.221 99.7617 125.254 99.1529 125.381 97.1624C125.508 95.1785 123.849 93.9169 122.141 93.3445Z" fill="#E8E8E8"/>
<path d="M131.912 126.092C131.716 125.653 131.482 125.236 131.314 124.783C131.161 124.373 131.047 123.952 130.944 123.529C130.839 123.1 130.756 122.667 130.685 122.231C130.617 121.812 130.627 121.283 130.433 120.902C130.381 120.8 130.205 120.82 130.182 120.935C130.097 121.354 130.252 121.87 130.321 122.286C130.4 122.764 130.492 123.242 130.615 123.71C130.837 124.56 131.172 125.54 131.78 126.194C131.849 126.268 131.948 126.173 131.912 126.092Z" fill="#767375"/>
<path d="M125.63 121.975C125.597 121.886 125.473 121.901 125.466 121.998C125.398 122.863 125.559 123.732 125.6 124.598C125.641 125.467 125.632 126.339 125.58 127.207C125.571 127.351 125.785 127.346 125.801 127.207C125.901 126.323 125.949 125.437 125.94 124.547C125.932 123.687 125.935 122.788 125.63 121.975Z" fill="#767375"/>
<path d="M125.005 85.0397C124.514 84.5884 123.931 84.2505 123.308 84.0187C122.588 83.7504 121.793 83.6167 121.025 83.607C120.198 83.5964 119.316 83.6391 118.506 83.8067C118.463 83.8155 118.477 83.8762 118.516 83.8793C119.26 83.936 120.007 83.874 120.754 83.9272C121.497 83.9804 122.241 84.0561 122.952 84.2906C123.534 84.4824 124.101 84.774 124.575 85.1668C124.822 85.3714 125.049 85.6037 125.237 85.8632C125.415 86.1087 125.528 86.3897 125.71 86.6304C125.78 86.7232 125.974 86.7113 125.96 86.5626C125.904 85.9762 125.424 85.4259 125.005 85.0397Z" fill="#767375"/>
<path d="M125.86 87.1673C125.824 87.4343 125.755 87.7022 125.672 87.9577C125.632 88.0809 125.586 88.2019 125.531 88.3189C125.504 88.377 125.475 88.4346 125.444 88.4913C125.403 88.5683 125.39 88.6356 125.379 88.7214C125.364 88.8472 125.526 88.8754 125.603 88.8138C125.728 88.7126 125.777 88.563 125.833 88.4161C125.883 88.2877 125.925 88.1557 125.959 88.022C126.031 87.7404 126.053 87.4567 126.041 87.1668C126.036 87.0476 125.875 87.0546 125.86 87.1673Z" fill="#767375"/>
<path d="M128.048 86.3586C127.991 85.8457 127.911 85.2523 127.507 84.8859C127.443 84.8274 127.327 84.9039 127.381 84.9835C127.686 85.4357 127.698 85.9667 127.739 86.4923C127.763 86.7937 127.772 87.095 127.782 87.3972C127.793 87.7104 127.776 88.0245 127.809 88.3351C127.818 88.4178 127.935 88.4442 127.96 88.3557C128.05 88.0461 128.066 87.7197 128.081 87.3976C128.097 87.0537 128.086 86.7004 128.048 86.3586Z" fill="#767375"/>
<path d="M129.183 86.0927C129.17 86.0514 129.13 86.0237 129.087 86.0303C129.042 86.0369 129.015 86.0716 129.012 86.1161C129.006 86.1772 129.007 86.2361 129.008 86.2973C129.008 86.3602 129.006 86.4227 129.008 86.486C129.011 86.5463 129.012 86.6065 129.01 86.6672C129.009 86.6971 129.005 86.7275 129.006 86.7574C129.007 86.7895 129.017 86.823 129.022 86.8546C129.03 86.9013 129.099 86.9052 129.12 86.8674C129.136 86.8392 129.155 86.8102 129.165 86.779C129.175 86.7491 129.179 86.7147 129.184 86.684C129.197 86.6184 129.206 86.5524 129.214 86.486C129.228 86.358 129.219 86.2159 129.183 86.0927Z" fill="#767375"/>
<path d="M124.072 93.9803C123.526 93.6745 122.918 93.4651 122.342 93.2232C121.724 92.9632 121.089 92.7072 120.42 92.6153C119.49 92.4868 118.338 92.6958 117.73 93.4775C117.695 93.5219 117.747 93.5742 117.791 93.539C118.617 92.8858 119.59 92.8053 120.594 93.038C121.614 93.2747 122.624 93.7506 123.565 94.2059C124.45 94.6344 125.108 95.42 125.225 96.4195C125.343 97.4299 124.819 98.2345 124.231 98.9951C124.176 99.0659 124.241 99.1512 124.324 99.116C125.281 98.7109 125.745 97.5183 125.685 96.5343C125.62 95.4684 125.001 94.5007 124.072 93.9803Z" fill="#767375"/>
<path d="M128.359 97.4283C128.35 97.1195 128.306 96.8222 128.225 96.5243C128.194 96.4117 128 96.4293 128.014 96.5529C128.047 96.842 128.063 97.138 128.059 97.4288C128.055 97.7222 128.001 98.0125 128.006 98.3055C128.008 98.4564 128.206 98.4691 128.256 98.3394C128.365 98.053 128.367 97.7305 128.359 97.4283Z" fill="#767375"/>
<path d="M147.203 95.9759C147.184 95.8946 147.166 95.8136 147.137 95.7353C147.075 95.5699 147.006 95.408 146.928 95.2492C146.779 94.9426 146.616 94.6444 146.383 94.3941C146.283 94.2876 146.138 94.4227 146.193 94.5406C146.331 94.8388 146.5 95.1203 146.635 95.4212C146.698 95.5646 146.756 95.7107 146.812 95.8572C146.843 95.9386 146.882 96.0164 146.917 96.096C146.952 96.1739 146.979 96.2434 147.034 96.3089C147.108 96.3965 147.223 96.3151 147.235 96.2258C147.245 96.1405 147.221 96.0591 147.203 95.9759Z" fill="#767375"/>
<path d="M147.91 95.154C147.906 95.1241 147.891 95.0972 147.878 95.0704C147.859 95.0312 147.839 94.993 147.818 94.9547C147.778 94.8803 147.735 94.8073 147.689 94.7365C147.593 94.5896 147.489 94.451 147.363 94.3296C147.283 94.2535 147.139 94.3534 147.205 94.4515C147.296 94.5869 147.389 94.7224 147.471 94.8641C147.511 94.9331 147.548 95.004 147.583 95.0761C147.6 95.1131 147.617 95.1509 147.634 95.1887C147.636 95.1927 147.643 95.2089 147.637 95.1962C147.646 95.2173 147.653 95.238 147.667 95.256C147.682 95.2749 147.699 95.2917 147.715 95.3088C147.783 95.381 147.921 95.3273 147.916 95.2257C147.915 95.2015 147.914 95.1777 147.91 95.154Z" fill="#767375"/>
<path d="M126.496 105.511C126.18 105.083 125.629 104.676 125.091 104.62C124.991 104.609 124.96 104.74 125.016 104.803C125.344 105.171 125.809 105.367 126.122 105.763C126.469 106.203 126.53 106.762 126.498 107.304C126.436 108.345 125.941 109.292 125.174 109.989C125.129 110.029 125.188 110.107 125.239 110.073C126.181 109.439 126.822 108.357 126.919 107.221C126.969 106.627 126.856 105.997 126.496 105.511Z" fill="#767375"/>
<path d="M128.285 107.401C128.238 107.643 128.232 107.892 128.185 108.134C128.136 108.385 128.071 108.632 127.99 108.874C127.827 109.362 127.57 109.798 127.347 110.258C127.326 110.301 127.379 110.348 127.415 110.311C127.773 109.941 128.002 109.455 128.186 108.979C128.281 108.733 128.36 108.481 128.42 108.225C128.479 107.974 128.549 107.695 128.542 107.435C128.538 107.294 128.314 107.25 128.285 107.401Z" fill="#767375"/>
<path d="M129.452 107.565C129.398 107.666 129.383 107.777 129.359 107.888C129.334 108.004 129.309 108.121 129.284 108.236C129.235 108.464 129.189 108.693 129.142 108.921C129.128 108.992 129.232 109.023 129.252 108.952C129.315 108.728 129.379 108.504 129.44 108.279L129.531 107.949C129.561 107.836 129.603 107.723 129.602 107.605C129.601 107.528 129.49 107.492 129.452 107.565Z" fill="#767375"/>
<path d="M127.101 115.249C126.874 114.993 126.547 114.847 126.247 114.689C125.942 114.529 125.631 114.387 125.312 114.259C124.986 114.13 124.657 114.015 124.321 113.915C124.011 113.821 123.677 113.703 123.351 113.688C123.318 113.686 123.306 113.735 123.335 113.75C123.625 113.907 123.959 113.995 124.265 114.121C124.578 114.251 124.888 114.392 125.192 114.542C125.487 114.688 125.779 114.84 126.067 114.997C126.366 115.16 126.646 115.372 126.974 115.467C127.105 115.505 127.185 115.343 127.101 115.249Z" fill="#767375"/>
<path d="M126.957 115.199C126.905 115.166 126.826 115.208 126.831 115.271C126.847 115.491 126.91 115.702 126.92 115.925C126.932 116.166 126.893 116.409 126.843 116.644C126.791 116.893 126.723 117.144 126.652 117.388C126.578 117.641 126.494 117.869 126.522 118.136C126.527 118.179 126.586 118.206 126.61 118.16C126.74 117.913 126.806 117.645 126.926 117.393C127.046 117.139 127.157 116.877 127.234 116.606C127.352 116.182 127.384 115.468 126.957 115.199Z" fill="#767375"/>
<path d="M130.524 117.221C130.347 117.367 130.252 117.567 130.157 117.772C130.062 117.975 129.973 118.182 129.928 118.402C129.884 118.619 129.864 118.837 129.831 119.054C129.816 119.159 129.804 119.265 129.795 119.371C129.787 119.472 129.768 119.583 129.796 119.681C129.8 119.694 129.817 119.692 129.822 119.681C129.863 119.583 129.861 119.466 129.878 119.362C129.895 119.255 129.917 119.148 129.942 119.042C129.989 118.844 130.08 118.644 130.169 118.46C130.258 118.277 130.331 118.087 130.425 117.906C130.526 117.712 130.647 117.539 130.709 117.329C130.743 117.215 130.604 117.155 130.524 117.221Z" fill="#767375"/>
<path d="M106.484 101.342C106.155 102.182 105.924 103.049 105.488 103.846C105.052 104.644 104.497 105.369 103.864 106.02C102.551 107.368 100.927 108.353 99.2122 109.104C97.3527 109.918 95.3873 110.458 93.4359 111.001C91.3825 111.571 89.1892 112.15 87.0821 111.518C87.0218 111.5 86.9783 111.596 87.0381 111.623C88.5359 112.294 90.1807 112.225 91.7568 111.894C93.4676 111.534 95.1717 111.039 96.8363 110.507C99.8544 109.541 102.836 108.148 104.87 105.632C105.805 104.474 106.773 102.914 106.721 101.374C106.716 101.232 106.532 101.219 106.484 101.342Z" fill="#767375"/>
<path d="M109.636 83.8776C109.613 83.7883 109.479 83.8094 109.478 83.8992C109.449 85.1208 109.566 86.3393 109.566 87.5613C109.566 88.7846 109.496 90.0084 109.358 91.2238C109.075 93.7246 108.444 96.1084 107.765 98.5234C107.734 98.6334 107.907 98.7144 107.955 98.6035C108.932 96.3499 109.463 93.8531 109.749 91.4209C109.896 90.1729 109.971 88.9166 109.972 87.6603C109.974 86.3934 109.947 85.1111 109.636 83.8776Z" fill="#767375"/>
<path d="M106.953 75.6722C105.938 76.0677 104.946 76.4918 103.912 76.8419C102.877 77.1925 101.821 77.4749 100.757 77.723C99.7203 77.9645 98.6743 78.1598 97.6273 78.3503C96.4955 78.5562 95.1006 78.9992 93.9669 78.693C93.8829 78.6701 93.8508 78.7942 93.9313 78.8223C94.9642 79.1857 96.1383 78.8716 97.1927 78.7348C98.3276 78.587 99.4542 78.3895 100.573 78.1458C102.764 77.6685 105.099 77.0328 107.023 75.8385C107.105 75.7862 107.052 75.6335 106.953 75.6722Z" fill="#767375"/>
<path d="M107.125 68.1821C106.746 68.2164 106.363 68.4575 106.011 68.5951C105.609 68.7522 105.203 68.8987 104.792 69.032C103.986 69.2946 103.166 69.5123 102.338 69.6896C102.186 69.7222 102.25 69.9527 102.402 69.9223C103.248 69.7534 104.085 69.5418 104.908 69.2845C105.306 69.1604 105.7 69.0271 106.091 68.8842C106.448 68.7535 106.924 68.644 107.211 68.388C107.285 68.3215 107.229 68.1724 107.125 68.1821Z" fill="#767375"/>
<path d="M100.059 69.8551C99.9921 69.8345 99.9231 69.8529 99.8553 69.8617C99.781 69.8714 99.7084 69.8916 99.6358 69.9097C99.4964 69.9444 99.3565 69.9752 99.2144 69.9959C98.9351 70.0364 98.6469 70.0509 98.3654 70.0403C98.2326 70.0355 98.1969 70.2576 98.3333 70.2774C98.6421 70.3219 98.9452 70.3329 99.2553 70.295C99.411 70.2761 99.5676 70.2519 99.7198 70.2136C99.8571 70.1793 100.038 70.1296 100.121 70.0082C100.16 69.9502 100.118 69.8736 100.059 69.8551Z" fill="#767375"/>
<path d="M112.51 55.2745C112.382 55.0528 112.203 54.8773 112.034 54.6868C111.866 54.4977 111.656 54.3332 111.454 54.1809C111.042 53.8704 110.603 53.6073 110.138 53.3834C110.035 53.3333 109.947 53.478 110.047 53.5396C110.474 53.8022 110.884 54.0987 111.266 54.4229C111.451 54.5795 111.627 54.7511 111.817 54.9011C112.016 55.0577 112.186 55.2428 112.39 55.3933C112.464 55.4483 112.551 55.3453 112.51 55.2745Z" fill="#767375"/>
<path d="M91.4551 135.403C90.9835 134.619 90.3826 133.919 89.9137 133.128C89.4742 132.387 89.0819 131.62 88.7066 130.844C87.9051 129.187 87.1982 127.482 86.3145 125.866C85.3867 124.169 84.3658 122.527 83.2964 120.915C82.2195 119.292 80.9882 117.792 79.8173 116.24C79.7768 116.186 79.6862 116.235 79.7244 116.294C80.7692 117.916 81.7506 119.585 82.8077 121.201C83.8836 122.845 84.92 124.52 85.8632 126.245C86.7456 127.86 87.5361 129.51 88.353 131.158C88.7489 131.956 89.1646 132.746 89.6317 133.506C90.0765 134.229 90.5573 135.038 91.2127 135.589C91.3407 135.697 91.551 135.561 91.4551 135.403Z" fill="#767375"/>
<path d="M89.6502 127.417C89.2913 126.643 88.9029 125.882 88.5241 125.116C88.1454 124.351 87.8106 123.5 87.3056 122.81C87.226 122.701 87.0272 122.76 87.0729 122.908C87.2937 123.629 87.7112 124.321 88.0517 124.99C88.43 125.734 88.8017 126.482 89.1888 127.221C89.9379 128.652 90.6405 130.122 90.8037 131.751C90.8125 131.839 90.9479 131.843 90.9444 131.751C90.8872 130.209 90.2903 128.799 89.6502 127.417Z" fill="#767375"/>
<path d="M80.3927 132.143C80.3184 132.016 80.2449 131.889 80.1648 131.765C79.9876 131.492 79.8107 131.218 79.6335 130.945C79.2833 130.405 78.9138 129.884 78.5372 129.361C78.4356 129.22 78.2122 129.342 78.2997 129.5C78.616 130.07 78.9353 130.634 79.2798 131.188C79.4461 131.455 79.6123 131.723 79.7786 131.99C79.8675 132.133 79.9638 132.271 80.0588 132.41C80.1486 132.541 80.2247 132.68 80.358 132.77C80.4948 132.863 80.6303 132.71 80.6091 132.577C80.5841 132.42 80.4723 132.278 80.3927 132.143Z" fill="#767375"/>
<path d="M87.3983 111.896C87.364 111.896 87.3636 111.95 87.3983 111.95C87.4331 111.95 87.4331 111.896 87.3983 111.896Z" fill="#E9E9E9"/>
<path d="M127.984 86.6678C127.959 86.3906 127.916 86.1161 127.848 85.846C127.812 85.7026 127.774 85.5575 127.72 85.4193C127.67 85.2891 127.629 85.1602 127.51 85.0802C127.43 85.0261 127.311 85.0802 127.288 85.1704C127.256 85.3019 127.308 85.4251 127.344 85.5522C127.382 85.6864 127.424 85.8188 127.456 85.9547C127.517 86.2076 127.567 86.465 127.595 86.7236C127.624 86.9823 127.634 87.2427 127.627 87.5027C127.619 87.7565 127.554 88.0578 127.622 88.3055C127.648 88.4005 127.766 88.4036 127.818 88.331C127.976 88.1106 127.985 87.7635 127.999 87.5027C128.014 87.2242 128.009 86.9449 127.984 86.6678Z" fill="#E9E9E9"/>
<path d="M112.442 59.265C112.432 59.1797 112.393 59.122 112.311 59.0921C112.121 59.0231 111.973 59.1277 111.852 59.2703C111.67 59.4814 111.527 59.7449 111.375 59.9785C111.022 60.5187 110.722 61.0862 110.468 61.68C110.261 62.1648 110.097 62.668 109.863 63.1418C109.649 63.5768 109.33 63.9354 109.091 64.3524C109.02 64.4769 109.104 64.6484 109.251 64.6559C109.237 64.6783 109.224 64.7021 109.21 64.7245C109.142 64.831 109.277 64.9682 109.384 64.8987C109.605 64.7553 109.796 64.6313 109.987 64.4439C110.18 64.2543 110.364 64.0678 110.527 63.8513C110.885 63.3762 111.202 62.873 111.502 62.3605C111.786 61.8762 112.076 61.3906 112.27 60.8618C112.467 60.3282 112.51 59.8289 112.442 59.265Z" fill="#E9E9E9"/>
<path d="M91.8465 98.351C91.726 98.3466 91.6107 98.3884 91.5038 98.4394C91.2456 98.4113 90.9975 98.4861 90.8004 98.6611C90.61 98.8305 90.5075 99.0914 90.4507 99.3337C90.3856 99.6118 90.3227 99.9012 90.4441 100.172C90.5664 100.445 90.8853 100.569 91.1682 100.568C91.3793 100.567 91.598 100.495 91.7687 100.37C92.1333 100.103 92.3366 99.6936 92.3854 99.2497C92.4087 99.0377 92.3964 98.7689 92.2706 98.589C92.1707 98.4452 92.0225 98.3576 91.8465 98.351ZM95.7805 87.8433C95.5144 86.6476 94.2417 86.2236 93.2238 86.828C92.6647 87.1601 92.2802 87.7069 91.8989 88.2181C91.8676 88.2603 91.8377 88.3038 91.8065 88.3461C91.7994 88.3513 91.7924 88.3571 91.7858 88.3623C91.334 88.7191 90.9236 89.1339 90.6254 89.6297C90.0531 90.5799 89.8824 91.7821 89.812 92.8717C89.7399 93.9851 90.2814 95.0703 91.5135 95.1059C92.5587 95.1363 93.5181 94.4408 94.1687 93.6824C94.8382 92.9021 95.2957 91.9646 95.5614 90.974C95.8214 90.0036 96.0018 88.8379 95.7805 87.8433Z" fill="white"/>
<path d="M122.44 85.6317C122.034 85.5059 121.575 85.501 121.154 85.4663C120.682 85.4275 120.206 85.4341 119.733 85.45C118.819 85.4808 117.938 85.6022 117.038 85.7663C116.964 85.7799 116.981 85.9009 117.056 85.8978C117.964 85.8635 118.876 85.8657 119.785 85.8591C120.241 85.856 120.698 85.8661 121.154 85.8538C121.577 85.8424 122.021 85.8811 122.44 85.8125C122.537 85.7966 122.521 85.6567 122.44 85.6317Z" fill="white"/>
<path d="M123.925 85.6236C123.898 85.6148 123.872 85.606 123.845 85.5972C123.834 85.5937 123.822 85.5884 123.811 85.5858C123.8 85.5814 123.803 85.5832 123.807 85.5862C123.803 85.5836 123.8 85.581 123.792 85.5748C123.741 85.5405 123.665 85.544 123.605 85.5365C123.499 85.5238 123.393 85.511 123.287 85.4987C123.219 85.4903 123.154 85.5647 123.157 85.6293C123.16 85.7024 123.214 85.7573 123.287 85.76C123.393 85.7639 123.499 85.7679 123.605 85.7719C123.629 85.7727 123.653 85.7741 123.678 85.7745C123.692 85.7749 123.707 85.7754 123.721 85.7749C123.733 85.7749 123.745 85.7736 123.756 85.771C123.769 85.767 123.781 85.7613 123.792 85.7551C123.778 85.7595 123.812 85.7516 123.811 85.7521C123.822 85.7503 123.834 85.7486 123.845 85.7468C123.872 85.7424 123.898 85.7384 123.925 85.734C123.985 85.7239 123.974 85.6395 123.925 85.6236Z" fill="white"/>
<path d="M122.496 95.2634C122.416 95.1754 122.287 95.1389 122.182 95.0874C122.08 95.0381 121.974 95.006 121.867 94.9735C121.641 94.9053 121.413 94.8613 121.178 94.8292C120.946 94.7975 120.712 94.7764 120.478 94.7685C120.239 94.7606 120.007 94.8054 119.773 94.8538C119.658 94.8776 119.698 95.0346 119.799 95.0447C120.027 95.0676 120.25 95.1081 120.478 95.1226C120.696 95.1367 120.912 95.1618 121.127 95.1991C121.342 95.2365 121.557 95.2814 121.769 95.3285C121.881 95.3531 121.99 95.3786 122.102 95.3971C122.207 95.4143 122.314 95.4604 122.42 95.4464C122.511 95.4341 122.563 95.3373 122.496 95.2634Z" fill="white"/>
<path d="M123.427 105.167C123.399 105.14 123.363 105.115 123.327 105.097C123.276 105.071 123.222 105.048 123.167 105.033C123.111 105.018 123.05 105.014 122.992 105.02C122.923 105.028 122.862 105.032 122.801 105.068C122.771 105.086 122.738 105.115 122.713 105.142C122.646 105.213 122.617 105.311 122.643 105.407C122.656 105.453 122.679 105.493 122.713 105.527C122.745 105.559 122.785 105.58 122.828 105.594C122.815 105.588 122.801 105.582 122.787 105.576C122.801 105.583 122.815 105.588 122.829 105.595C122.83 105.595 122.831 105.596 122.833 105.597C122.837 105.598 122.842 105.6 122.847 105.602C122.855 105.606 122.863 105.61 122.872 105.613C122.91 105.624 122.937 105.624 122.972 105.624C122.987 105.624 123.002 105.625 123.018 105.627C123.038 105.63 123.059 105.633 123.079 105.635C123.074 105.633 123.068 105.631 123.063 105.628C123.07 105.631 123.075 105.633 123.081 105.635C123.087 105.636 123.093 105.637 123.099 105.638C123.093 105.637 123.087 105.637 123.082 105.636C123.13 105.657 123.167 105.671 123.227 105.674C123.236 105.674 123.244 105.675 123.253 105.674C123.341 105.672 123.417 105.634 123.47 105.565C123.495 105.538 123.511 105.507 123.52 105.47C123.533 105.421 123.533 105.372 123.52 105.323C123.494 105.258 123.479 105.217 123.427 105.167Z" fill="white"/>
<path d="M122.47 105.997C122.469 105.994 122.468 105.991 122.467 105.988C122.467 105.986 122.466 105.984 122.465 105.982C122.465 105.981 122.465 105.981 122.465 105.98C122.461 105.964 122.454 105.951 122.443 105.94C122.435 105.927 122.424 105.917 122.41 105.909C122.409 105.908 122.408 105.908 122.406 105.907C122.404 105.905 122.402 105.904 122.399 105.902L122.385 105.893C122.375 105.887 122.365 105.882 122.355 105.875C122.335 105.864 122.313 105.858 122.289 105.857C122.278 105.859 122.266 105.861 122.255 105.862C122.233 105.868 122.213 105.88 122.197 105.896C122.184 105.908 122.176 105.922 122.17 105.938C122.162 105.953 122.158 105.97 122.159 105.989C122.158 106.007 122.162 106.023 122.17 106.039C122.176 106.055 122.185 106.069 122.197 106.081C122.213 106.098 122.233 106.109 122.255 106.115C122.266 106.117 122.278 106.118 122.289 106.119C122.294 106.12 122.3 106.12 122.306 106.121C122.309 106.122 122.312 106.122 122.315 106.123C122.317 106.123 122.318 106.123 122.32 106.123C122.336 106.128 122.351 106.129 122.367 106.125C122.384 106.123 122.399 106.12 122.413 106.109C122.414 106.109 122.416 106.107 122.417 106.106C122.421 106.104 122.424 106.102 122.427 106.1C122.433 106.095 122.439 106.091 122.446 106.087C122.457 106.078 122.466 106.069 122.472 106.056C122.477 106.043 122.479 106.029 122.475 106.015C122.473 106.009 122.472 106.003 122.47 105.997Z" fill="white"/>
<path d="M144.275 80.2895C144.203 80.1633 144.06 80.0603 143.917 80.034C143.74 80.001 143.578 80.0493 143.421 80.1268C143.373 80.1501 143.329 80.1804 143.283 80.2055C143.235 80.2187 143.188 80.2323 143.142 80.2473C142.921 80.3208 142.708 80.4224 142.516 80.5535C142.42 80.6195 142.355 80.7127 142.355 80.8337C142.355 80.945 142.417 81.0598 142.516 81.1135C142.963 81.3563 143.536 81.3387 143.973 81.08C144.107 81.0008 144.237 80.9045 144.299 80.7585C144.364 80.6049 144.359 80.436 144.275 80.2895Z" fill="white"/>
<path d="M145.553 81.4526C145.5 81.4007 145.416 81.3738 145.343 81.3971C145.253 81.4262 145.163 81.453 145.078 81.4957C145.008 81.5304 144.939 81.5639 144.871 81.6013C144.818 81.6303 144.767 81.6941 144.754 81.7535C144.751 81.7759 144.748 81.7988 144.745 81.8212C144.743 81.8564 144.751 81.8889 144.767 81.9193C144.787 81.9681 144.822 82.0156 144.871 82.0411C144.928 82.0715 145.004 82.0909 145.067 82.0667L145.216 82.0108C145.26 81.9941 145.304 81.976 145.348 81.9585C145.351 81.958 145.353 81.9571 145.356 81.9567L145.356 81.9554C145.376 81.947 145.397 81.9413 145.416 81.9316C145.47 81.9043 145.516 81.8392 145.532 81.7821C145.532 81.7799 145.532 81.7768 145.532 81.7746C145.539 81.7689 145.546 81.7627 145.553 81.7574C145.58 81.7306 145.598 81.6989 145.608 81.6624C145.619 81.6241 145.619 81.5859 145.608 81.548C145.602 81.5137 145.577 81.4763 145.553 81.4526Z" fill="white"/>
<path d="M110.477 39.0098C110.453 38.87 110.39 38.7314 110.323 38.6034C110.272 38.4925 110.211 38.3918 110.151 38.3117C110.098 38.2268 110.038 38.1459 109.968 38.0733C109.877 37.9792 109.758 37.882 109.628 37.8349C109.624 37.8331 109.62 37.8292 109.616 37.8274C109.599 37.8195 109.579 37.8164 109.561 37.8098L109.559 37.8094C109.426 37.7619 109.279 37.7535 109.159 37.8164C109.022 37.8402 108.908 37.9937 108.958 38.1292C108.959 38.1314 108.96 38.1331 108.961 38.1353C108.954 38.2805 109.019 38.4257 109.08 38.5633C109.139 38.694 109.203 38.8229 109.285 38.9403C109.383 39.0811 109.496 39.2038 109.641 39.2984C109.69 39.331 109.746 39.3569 109.804 39.3789C109.874 39.4299 109.949 39.4805 110.033 39.5025C110.186 39.5434 110.339 39.4814 110.426 39.3525C110.495 39.2513 110.497 39.126 110.477 39.0098Z" fill="white"/>
<path d="M61.1819 121.403C60.1675 121.928 59.2424 122.676 58.3226 123.35C57.3755 124.044 56.4297 124.75 55.5319 125.507C54.6543 126.248 53.8075 127.022 52.9598 127.796C52.589 128.134 52.1495 128.521 51.9366 128.985C51.9085 129.008 51.879 129.029 51.8513 129.052C51.6234 129.238 51.6661 129.509 51.8236 129.692C51.8271 129.718 51.8236 129.742 51.8289 129.768C51.8412 129.832 51.9278 129.849 51.9745 129.815C52.1143 129.896 52.2859 129.92 52.4487 129.826C54.1669 128.838 55.7619 127.519 57.2932 126.267C58.8548 124.991 60.3826 123.66 61.8875 122.316C62.3995 121.86 61.7476 121.11 61.1819 121.403ZM65.5373 118.331C65.5408 118.324 65.5443 118.317 65.5483 118.31C65.6098 118.19 65.6046 118.027 65.4994 117.931C65.3983 117.838 65.2421 117.807 65.1202 117.882C65.0182 117.944 64.8985 118.032 64.8541 118.149C64.7718 118.243 64.69 118.337 64.624 118.444C64.5809 118.513 64.5444 118.585 64.5167 118.661C64.5048 118.694 64.493 118.728 64.4846 118.762C64.4714 118.817 64.4815 118.869 64.489 118.925C64.4956 118.971 64.5449 119.011 64.5875 119.023C64.639 119.037 64.6852 119.02 64.7248 118.987C64.7433 118.971 64.7639 118.957 64.7811 118.941C64.7916 118.93 64.7991 118.916 64.8079 118.903C64.866 118.942 64.9337 118.967 65.0028 118.963C65.0833 118.959 65.1651 118.948 65.2403 118.918C65.3595 118.871 65.4884 118.809 65.5518 118.69C65.6129 118.574 65.609 118.44 65.5373 118.331Z" fill="white"/>
<path d="M71.4728 104.835C72.2193 104.141 72.9487 103.422 73.6512 102.683C74.3554 101.942 74.9577 101.133 75.5775 100.322C75.7816 100.055 75.361 99.7814 75.1349 99.9803C74.4425 100.589 73.715 101.153 73.0428 101.786C72.3979 102.392 71.7565 103.002 71.1064 103.603C69.781 104.828 68.4393 106.036 67.0866 107.232C64.2515 109.738 61.4252 112.265 58.6517 114.84C55.8773 117.415 53.0092 119.891 50.2224 122.454C47.4361 125.016 44.6147 127.537 41.8552 130.129C40.2936 131.596 38.7108 133.039 37.1321 134.487C35.5608 135.929 33.9811 137.412 32.6144 139.051C32.4718 139.221 32.657 139.528 32.8704 139.382C34.4267 138.324 35.8608 137.08 37.279 135.845C38.7056 134.602 40.1141 133.331 41.509 132.053C44.3274 129.473 47.2333 126.982 50.0676 124.418C55.7079 119.314 61.3425 114.203 66.9551 109.068C68.4785 107.675 69.9618 106.24 71.4728 104.835Z" fill="#767375"/>
<path d="M93.1248 65.9987C93.8862 65.1976 94.6675 64.4085 95.3762 63.5586C96.0593 62.7391 96.7359 61.9138 97.3645 61.0516C97.9803 60.2075 98.6917 59.2081 98.9925 58.1967C99.0647 57.9548 98.7656 57.818 98.5944 57.9649C97.8352 58.6177 97.2242 59.5512 96.6057 60.3351C95.9331 61.1876 95.2842 62.0515 94.565 62.8671C93.87 63.6549 93.1908 64.4564 92.4394 65.1924C91.6819 65.9345 90.8338 66.6709 90.1709 67.4974C90.0996 67.5863 90.0715 67.691 90.0746 67.7926C89.9725 67.8427 89.8859 67.9334 89.8397 68.0732C88.7109 71.5211 87.6622 75.0148 86.3632 78.4068C85.7249 80.0731 85.0871 81.7355 84.4347 83.3961C83.7718 85.0839 83.0244 86.7379 82.3654 88.4271C81.9942 89.3791 81.6321 90.3354 81.2565 91.2856C80.8839 92.2269 80.44 93.1401 80.0894 94.0899C80.0402 94.2232 80.239 94.2935 80.3102 94.1831C81.2824 92.6677 82.0989 91.0212 82.9355 89.4279C83.7793 87.821 84.4743 86.1467 85.2001 84.4844C86.6452 81.1733 87.825 77.743 88.9753 74.3224C89.6413 72.3424 90.2413 70.3479 90.7459 68.3231C90.7661 68.2413 90.7639 68.1683 90.7498 68.1014C91.619 67.5432 92.4179 66.743 93.1248 65.9987Z" fill="#767375"/>
<path d="M101.086 54.397C101.489 53.833 101.776 53.1842 102.065 52.5556C102.334 51.9679 102.603 51.3872 102.833 50.7819C103.065 50.1696 103.29 49.5573 103.517 48.9432C103.744 48.3264 104.046 47.6156 104.017 46.9518C104 46.5752 103.562 46.5 103.354 46.7723C102.981 47.2623 102.808 47.9679 102.622 48.5512C102.417 49.1935 102.191 49.8361 101.957 50.4683C101.73 51.0797 101.528 51.6987 101.305 52.311C101.076 52.9383 100.822 53.573 100.681 54.2263C100.627 54.4788 100.94 54.6002 101.086 54.397Z" fill="#767375"/>
<path d="M106.4 38.7753C106.493 38.6459 106.521 38.4972 106.562 38.3459C106.603 38.1964 106.662 38.0552 106.701 37.9052C106.779 37.6069 106.864 37.3104 106.955 37.0161C107.046 36.7214 107.133 36.4258 107.229 36.1324C107.328 35.8311 107.458 35.5178 107.402 35.1963C107.386 35.1096 107.337 35.0524 107.274 35.0181C109.48 35.696 111.006 37.5352 111.971 39.5622C112.988 41.7001 113.582 44.0857 113.944 46.4162C114.68 51.149 114.15 56.0917 112.434 60.5623C111.451 63.1229 110.117 65.4469 108.722 67.7968C108.644 67.9279 108.825 68.0669 108.933 67.9591C110.704 66.1991 111.979 63.9368 112.943 61.6497C113.932 59.3069 114.549 56.8048 114.882 54.2877C115.537 49.3274 115.011 43.9739 112.834 39.4223C111.742 37.1389 110.07 34.7014 107.33 34.437C107.001 34.4054 106.953 34.8914 107.234 35.0001C107.121 34.9605 106.981 34.9834 106.889 35.0608C106.65 35.2631 106.56 35.6366 106.47 35.923C106.375 36.2278 106.284 36.534 106.211 36.845C106.14 37.1455 106.076 37.4477 106.019 37.7512C105.989 37.9087 105.986 38.0648 105.964 38.2232C105.942 38.3939 105.913 38.5478 105.958 38.7172C106.016 38.9332 106.283 38.9367 106.4 38.7753Z" fill="#767375"/>
<path d="M89.5516 138.522C81.4786 145.802 73.3463 153.029 65.4766 160.53C64.3527 161.601 63.2288 162.672 62.1207 163.76C61.0575 164.803 59.9089 165.811 59.0247 167.016C58.9156 167.164 59.1263 167.357 59.2724 167.264C60.3906 166.552 61.3548 165.608 62.3433 164.731C63.3739 163.817 64.3962 162.893 65.4186 161.969C67.4095 160.17 69.3934 158.362 71.3567 156.533C75.3329 152.827 79.3504 149.164 83.3623 145.496C85.655 143.4 87.9464 141.304 90.2536 139.223C90.7287 138.795 90.0249 138.095 89.5516 138.522Z" fill="#767375"/>
<path d="M140.999 91.9865C140.367 92.009 139.73 92.0231 139.098 92.0217C137.79 92.0187 136.49 91.9527 135.184 91.8849C133.913 91.8185 132.651 91.6285 131.38 91.5621C130.095 91.4947 128.765 91.2871 127.481 91.4125C127.387 91.4217 127.367 91.5436 127.459 91.577C128.667 92.0187 130.008 92.1489 131.271 92.3644C132.564 92.5848 133.879 92.646 135.184 92.7528C136.482 92.8593 137.796 92.8905 139.098 92.8659C139.735 92.8536 140.365 92.8294 140.999 92.7806C141.51 92.7414 142.22 92.7674 142.6 92.3935C142.684 92.3108 142.657 92.1805 142.565 92.1194C142.142 91.8379 141.488 91.9694 140.999 91.9865Z" fill="#767375"/>
<path d="M131.593 76.5182C133.636 76.7443 135.725 76.688 137.778 76.7557C139.58 76.8151 141.407 76.9409 143.047 77.7688C144.497 78.5012 145.77 79.4456 146.975 80.5326C148.152 81.595 149.153 82.8342 150.331 83.8917C150.237 84.2101 150.209 84.5515 150.181 84.8797C150.139 85.3697 150.085 85.8584 150.019 86.3458C149.89 87.292 149.79 88.2902 149.499 89.2029C149.23 90.0431 148.653 90.6489 147.866 91.0307C147.023 91.4398 146.073 91.5625 145.201 91.8881C145.071 91.9364 145.096 92.112 145.233 92.1252C147.057 92.3024 149.254 91.6254 150.033 89.8087C150.432 88.8752 150.518 87.801 150.671 86.806C150.757 86.246 150.838 85.6833 150.889 85.119C150.926 84.7173 150.951 84.2972 150.856 83.9035C150.866 83.8565 150.859 83.8041 150.824 83.75C150.813 83.7337 150.802 83.7183 150.791 83.7025C150.777 83.6651 150.771 83.626 150.754 83.5895C150.737 83.5507 150.703 83.5301 150.664 83.5169C149.75 82.1717 148.576 80.9787 147.402 79.8658C146.24 78.7651 144.899 77.7257 143.428 77.0764C142.67 76.7421 141.909 76.4509 141.097 76.2745C140.152 76.069 139.162 76.0334 138.198 76.0176C136.005 75.9815 133.783 75.7813 131.593 75.901C131.189 75.9234 131.203 76.475 131.593 76.5182Z" fill="#767375"/>
<path d="M111.035 75.8332C110.328 75.7074 109.542 75.5037 108.99 75.0146C108.27 74.375 108.423 73.3685 108.405 72.498C108.383 71.4594 108.435 70.4212 108.408 69.3831C108.402 69.1926 108.141 69.2031 108.119 69.3831C108.002 70.3495 107.965 71.3234 107.855 72.2903C107.763 73.098 107.589 73.9729 107.917 74.7498C108.489 76.1051 110.23 76.4979 111.535 76.6695C113.445 76.9202 115.416 77.0033 117.341 77.0245C119.316 77.046 121.289 77.0715 123.265 77.0583C124.396 77.0509 125.52 76.9105 126.649 76.8648C127.709 76.8217 128.823 76.8164 129.864 76.6066C130.057 76.5674 129.986 76.3101 129.821 76.2903C128.919 76.1821 127.981 76.2379 127.072 76.2344C126.189 76.2309 125.311 76.1975 124.428 76.1755C122.631 76.1306 120.831 76.1676 119.033 76.1539C117.245 76.1403 115.447 76.1486 113.661 76.0813C112.78 76.0479 111.903 75.9881 111.035 75.8332Z" fill="#767375"/>
<path d="M148.92 102.789C149.487 102.604 150.033 102.362 150.507 102.002C151.448 101.289 151.801 100.227 151.945 99.0958C152.134 97.6231 152.323 95.9792 151.807 94.5522C151.427 93.4995 150.607 92.4165 149.472 92.153C149.291 92.1108 149.16 92.3743 149.34 92.4658C151.751 93.6847 151.439 96.6425 151.16 98.9221C151.011 100.136 150.592 101.163 149.47 101.762C148.488 102.287 147.307 102.47 146.229 102.692C141.175 103.728 135.983 103.953 130.853 103.439C129.392 103.292 127.917 103.115 126.472 102.854C125.089 102.604 123.693 102.181 122.287 102.1C122.198 102.095 122.164 102.227 122.241 102.269C123.478 102.926 124.942 103.19 126.302 103.47C127.648 103.746 128.987 103.989 130.354 104.146C133.212 104.474 136.098 104.543 138.97 104.378C141.807 104.215 144.634 103.819 147.404 103.187C147.519 103.161 147.635 103.134 147.75 103.107C147.785 103.145 147.828 103.175 147.888 103.187C149.792 103.57 151.092 105.485 151.213 107.354C151.364 109.675 150.11 111.929 148.745 113.718C148.033 114.651 147.112 115.145 145.952 115.291C144.815 115.435 143.645 115.311 142.508 115.23C139.934 115.047 137.368 114.761 134.82 114.354C131.96 113.897 129.129 113.302 126.293 112.72C126.052 112.671 125.959 113.007 126.192 113.089C131.599 114.986 137.432 115.718 143.126 116.094C144.077 116.157 145.05 116.224 146.002 116.116C146.025 116.278 146.132 116.386 146.231 116.533C146.365 116.733 146.471 116.945 146.54 117.176C146.668 117.601 146.665 118.03 146.63 118.468C146.546 119.526 146.083 120.533 145.662 121.494C145.314 122.291 144.797 123.092 143.883 123.256C143.373 123.348 142.823 123.299 142.308 123.289C141.719 123.277 141.157 123.272 140.567 123.319C140.41 123.332 140.356 123.568 140.528 123.609C141.025 123.729 141.515 123.81 142.013 123.881C141.157 124.686 139.98 125.088 138.852 125.361C137.413 125.71 135.942 125.892 134.521 126.32C132.8 126.838 131.141 127.556 129.483 128.241C127.814 128.931 126.145 129.622 124.472 130.302C117.798 133.017 110.824 135.493 103.628 136.313C99.5847 136.773 95.612 136.528 91.5765 136.125C91.2712 136.095 91.2391 136.552 91.507 136.639C95.0094 137.77 98.7854 137.749 102.419 137.449C106.075 137.148 109.674 136.357 113.189 135.328C116.788 134.275 120.266 132.87 123.74 131.469C127.144 130.096 130.493 128.497 133.98 127.346C135.675 126.786 137.416 126.545 139.137 126.105C140.54 125.747 141.782 125.153 142.638 123.97C143.184 124.04 143.739 124.099 144.281 123.969C145.343 123.714 145.922 122.75 146.352 121.832C146.849 120.769 147.378 119.544 147.398 118.353C147.407 117.825 147.291 117.274 147.093 116.787C147.006 116.571 146.865 116.233 146.663 116.012C146.683 116.008 146.703 116.005 146.722 116.001C147.862 115.746 148.734 115.101 149.427 114.178C150.89 112.23 152.262 109.725 152.032 107.206C151.858 105.288 150.729 103.417 148.92 102.789Z" fill="#767375"/>
<path d="M130.012 122.504C130.993 122.738 131.988 122.924 132.984 123.088C133.906 123.238 134.832 123.361 135.761 123.46C136.643 123.553 137.746 123.787 138.615 123.549C138.788 123.502 138.76 123.284 138.615 123.226C137.799 122.899 136.734 122.954 135.864 122.85C134.89 122.735 133.919 122.588 132.952 122.419C132.026 122.258 131.107 122.067 130.187 121.87C129.236 121.666 128.241 121.581 127.301 121.344C127.146 121.305 127.083 121.536 127.235 121.584C128.171 121.877 129.05 122.274 130.012 122.504Z" fill="#767375"/>
</g>
<path d="M87.8619 60.2322C87.3529 59.3255 86.7507 58.4691 86.3016 57.5294C85.8489 56.5832 85.4631 55.6084 84.9704 54.6816C84.5182 53.8299 83.9882 52.8331 83.1744 52.2732C83.0169 52.1649 82.8559 52.3453 82.9487 52.4993C83.484 53.3856 84.0616 54.2118 84.505 55.1558C84.9238 56.047 85.2797 56.9677 85.7073 57.8545C86.0996 58.6683 86.6139 59.4289 87.0982 60.1895C87.616 61.0033 88.3277 61.9636 88.5235 62.9208C88.5503 63.051 88.7416 63.0286 88.7298 62.894C88.6414 61.9152 88.3418 61.0864 87.8619 60.2322Z" fill="#767375"/>
<path d="M95.3555 47.7198C94.8629 46.0961 94.3381 44.4813 94.0125 42.8132C93.6883 41.153 93.274 39.529 92.7703 37.9141C92.5187 37.1073 92.1953 36.3287 91.9398 35.5224C91.6701 34.6703 91.4106 33.8222 91.0785 32.9917C91.0252 32.8584 90.844 32.909 90.8651 33.0506C90.9975 33.9366 91.2298 34.79 91.4691 35.6522C91.6855 36.4334 91.8381 37.2261 92.0515 38.0078C92.4958 39.6336 92.9322 41.2643 93.2762 42.9148C93.6158 44.5437 94.1291 46.126 94.6192 47.7141C94.8558 48.4817 95.0824 49.2524 95.3089 50.0226C95.5504 50.8443 95.6943 51.6933 95.9353 52.5129C95.9973 52.7236 96.3123 52.6822 96.3172 52.461C96.3519 50.8782 95.81 49.2167 95.3555 47.7198Z" fill="#767375"/>
<path d="M79.4868 46.7935C79.236 46.0488 78.8449 45.3392 78.5225 44.6235C78.2146 43.9399 77.8987 43.2603 77.5807 42.5815C77.2609 41.8993 76.9354 41.2196 76.5923 40.5488C76.2478 39.8758 75.888 39.1486 75.3957 38.5697C75.2761 38.4294 75.0447 38.5565 75.1142 38.7338C75.4054 39.4763 75.8352 40.1788 76.1946 40.8906C76.5342 41.5632 76.8571 42.2437 77.1751 42.9264C77.4918 43.6056 77.8024 44.2875 78.1332 44.9601C78.4627 45.63 78.7728 46.347 79.2171 46.9506C79.3271 47.101 79.5417 46.9567 79.4868 46.7935Z" fill="#767375"/>
<path d="M83.6135 71.2666C83.1287 70.316 82.4689 69.4182 81.8697 68.5357C81.268 67.6489 80.6464 66.7586 79.998 65.9052C78.7711 64.2899 77.5698 62.6596 76.3944 61.0056C75.2331 59.3714 74.0533 57.7179 72.7521 56.1914C71.4117 54.6192 69.9156 53.2041 68.5124 51.6931C67.871 51.0024 67.3414 50.2269 66.7845 49.4694C66.3023 48.8135 65.7564 48.0846 64.9998 47.7362C64.94 47.7085 64.8617 47.7873 64.9228 47.8365C66.2381 48.8931 66.9221 50.307 67.9066 51.6341C69.093 53.234 70.4475 54.6892 71.7478 56.1941C73.0749 57.7306 74.2319 59.3622 75.3637 61.0435C76.4907 62.7181 77.6322 64.3642 78.823 65.9936C79.5022 66.9226 80.2276 67.8244 80.9442 68.7249C81.6929 69.6658 82.4148 70.6829 83.2457 71.5512C83.4353 71.75 83.7314 71.4975 83.6135 71.2666Z" fill="#767375"/>
<path d="M63.7618 68.9358C62.9269 68.2869 61.9393 67.7868 61.0133 67.2787C60.0016 66.724 58.9837 66.1781 57.9592 65.6476C56.0047 64.6354 53.9082 63.8123 51.8622 63.0029C51.7813 62.9708 51.7241 63.1063 51.8028 63.1437C52.8071 63.6241 53.7986 64.1304 54.773 64.6679C55.7496 65.2068 56.6848 65.8209 57.6697 66.3439C58.6291 66.8538 59.5863 67.3684 60.5528 67.8651C61.5214 68.3626 62.5411 68.9261 63.5924 69.227C63.7482 69.2718 63.9048 69.0466 63.7618 68.9358Z" fill="#767375"/>
<path d="M78.2125 76.9976C76.6438 76.0883 74.8464 75.5934 73.1704 74.9199C72.2994 74.5698 71.4183 74.2324 70.5799 73.8101C69.7727 73.4036 68.91 72.9835 68.1908 72.435C68.0729 72.3452 67.9229 72.5419 68.0324 72.6404C68.7028 73.2431 69.3438 73.8105 70.1255 74.2711C70.941 74.7519 71.7847 75.1887 72.6619 75.5463C74.4074 76.2581 76.2079 76.9461 78.0317 77.426C78.2868 77.4938 78.4456 77.1326 78.2125 76.9976Z" fill="#767375"/>
<path d="M75.7674 84.9571C71.2493 84.7099 66.8481 83.8468 62.4179 82.9758C58.1633 82.1392 53.8866 81.3812 49.6478 80.4684C47.3815 79.9802 45.0122 79.4606 42.9113 78.4564C42.815 78.4102 42.7296 78.5523 42.8268 78.6011C44.6467 79.5156 46.4933 80.2775 48.4531 80.8402C50.4907 81.4252 52.5656 81.8295 54.6239 82.3279C56.8735 82.8725 59.1531 83.3502 61.4216 83.8116C63.6536 84.2656 65.8817 84.7618 68.141 85.0618C70.6655 85.397 73.2244 85.5066 75.7674 85.3931C76.0485 85.3803 76.0476 84.9725 75.7674 84.9571Z" fill="#767375"/>
<path d="M70.1684 90.977C69.3396 90.801 68.459 90.856 67.6166 90.8551C66.7126 90.8538 65.8095 90.8569 64.906 90.8705C63.0971 90.8973 61.2918 90.9598 59.4847 91.0478C59.3422 91.0548 59.3422 91.262 59.4847 91.2691C61.2918 91.357 63.0971 91.4195 64.906 91.4463C65.8095 91.4595 66.7126 91.4626 67.6166 91.4617C68.459 91.4604 69.3396 91.5154 70.1684 91.3399C70.3474 91.3012 70.3474 91.0152 70.1684 90.977Z" fill="#767375"/>
<path d="M68.9552 97.9774C67.003 98.1635 65.0595 98.4287 63.1077 98.6175C61.1524 98.8066 59.1825 98.9034 57.2197 98.9703C53.2484 99.1049 49.259 99.1735 45.2854 99.159C43.0393 99.151 40.7937 99.1233 38.5489 99.221C38.4499 99.2254 38.4495 99.371 38.5489 99.3754C42.5255 99.5527 46.5026 99.6618 50.477 99.8857C54.4286 100.108 58.4532 99.9763 62.3863 99.5478C64.6227 99.3041 66.8512 98.9861 68.997 98.2871C69.1567 98.2348 69.1413 97.9594 68.9552 97.9774Z" fill="#767375"/>
<path d="M57.6131 108.114C55.0547 108.765 52.4443 108.604 49.8489 108.969C49.1812 109.063 48.5376 109.249 47.8769 109.379C47.1322 109.526 46.3826 109.639 45.6312 109.746C44.0701 109.971 42.5304 110.222 41.0115 110.658C40.8747 110.697 40.9323 110.908 41.0704 110.871C42.64 110.454 44.2808 110.353 45.8925 110.2C47.331 110.063 48.7505 109.795 50.1855 109.651C51.5166 109.517 52.8591 109.518 54.1929 109.419C55.3938 109.33 56.7298 109.118 57.7393 108.414C57.8885 108.311 57.8018 108.066 57.6131 108.114Z" fill="#767375"/>
<path d="M63.8044 106.831C63.6197 106.85 63.4411 106.9 63.2572 106.926C63.0852 106.95 62.9119 106.966 62.7381 106.974C62.3735 106.99 62.0088 106.975 61.6446 106.96C61.455 106.952 61.4545 107.249 61.6446 107.255C62.022 107.268 62.4007 107.28 62.7782 107.257C63.134 107.235 63.5401 107.203 63.8603 107.037C63.9536 106.989 63.9148 106.819 63.8044 106.831Z" fill="#767375"/>
<path d="M94.1203 143.969C92.8547 147.998 92.8221 152.33 92.1055 156.466C91.7308 158.629 91.3912 160.796 91.1136 162.974C90.9755 164.056 90.8541 165.139 90.7639 166.226C90.6741 167.315 90.4669 168.493 90.5835 169.582C90.5994 169.729 90.8074 169.776 90.8536 169.618C91.1615 168.562 91.2068 167.397 91.3938 166.311C91.5843 165.205 91.7708 164.097 91.9661 162.991C92.3352 160.898 92.7205 158.793 92.9233 156.676C93.3293 152.437 93.5594 148.22 94.3011 144.018C94.3222 143.902 94.1568 143.852 94.1203 143.969Z" fill="#767375"/>
<path d="M85.9694 149.638C85.3202 150.034 84.9238 150.841 84.5807 151.491C84.1866 152.237 83.861 153.015 83.5447 153.796C82.8946 155.404 82.3223 157.126 81.292 158.542C81.1966 158.673 81.4179 158.846 81.5186 158.717C82.5761 157.361 83.2944 155.849 83.9745 154.277C84.3084 153.506 84.644 152.732 85.029 151.984C85.3993 151.264 85.962 150.61 86.2598 149.861C86.3253 149.697 86.1071 149.554 85.9694 149.638Z" fill="#767375"/>
<path d="M105.29 147.616C104.859 145.716 104.508 143.789 104.63 141.834C104.639 141.682 104.406 141.684 104.395 141.834C104.258 143.704 104.536 145.543 104.698 147.401C104.859 149.253 105 151.113 105.132 152.966C105.148 153.195 105.483 153.263 105.547 153.022C106.025 151.223 105.695 149.403 105.29 147.616Z" fill="#767375"/>
<path d="M106.421 166.212C106.415 165.59 106.389 164.97 106.355 164.349C106.285 163.103 106.156 161.858 106.118 160.611C106.114 160.469 105.901 160.468 105.897 160.611C105.864 161.859 105.853 163.1 105.886 164.349C105.902 164.97 105.923 165.591 105.938 166.212C105.952 166.784 105.896 167.405 106.012 167.966C106.047 168.131 106.295 168.121 106.336 167.966C106.481 167.414 106.428 166.78 106.421 166.212Z" fill="#767375"/>
<path d="M116.136 155.376C115.754 152.618 115.614 149.84 114.999 147.115C114.673 145.675 114.212 144.207 113.275 143.04C113.169 142.908 112.919 143.051 112.984 143.21C113.622 144.777 114.156 146.371 114.479 148.035C114.823 149.805 115.003 151.601 115.222 153.389C115.732 157.538 116.706 161.613 117.215 165.761C117.229 165.873 117.398 165.881 117.396 165.761C117.341 162.265 116.615 158.829 116.136 155.376Z" fill="#767375"/>
<path d="M132.944 161.333C132.221 159.725 131.17 158.23 130.236 156.739C129.287 155.225 128.374 153.677 127.504 152.116C126.641 150.568 125.876 148.977 125.076 147.396C124.257 145.775 123.33 144.21 122.454 142.619C121.597 141.063 120.128 139.751 119.684 137.999C119.667 137.932 119.566 137.96 119.581 138.028C119.922 139.528 120.826 140.841 121.583 142.153C122.475 143.699 123.238 145.339 124.034 146.937C125.66 150.2 127.236 153.457 129.149 156.567C130.203 158.278 131.234 160.111 132.608 161.593C132.784 161.784 133.038 161.541 132.944 161.333Z" fill="#767375"/>
<path d="M144.117 159.716C143.626 158.426 142.467 157.345 141.645 156.258C140.78 155.115 140.072 153.869 139.202 152.729C138.335 151.59 137.345 150.548 136.473 149.409C135.633 148.312 134.791 147.243 133.793 146.281C133.743 146.233 133.672 146.306 133.718 146.358C134.659 147.404 135.451 148.601 136.232 149.77C137.022 150.953 137.853 152.093 138.677 153.252C139.487 154.394 140.171 155.617 141.019 156.733C141.423 157.265 141.842 157.784 142.266 158.3C142.725 158.859 143.166 159.483 143.725 159.944C143.885 160.077 144.209 159.958 144.117 159.716Z" fill="#767375"/>
<path d="M131.18 142.582C130.808 142.293 130.524 141.92 130.269 141.528C130.144 141.336 130.024 141.14 129.902 140.946C129.844 140.853 129.785 140.761 129.724 140.67C129.659 140.574 129.6 140.459 129.494 140.404C129.401 140.354 129.301 140.435 129.322 140.536C129.345 140.65 129.437 140.743 129.502 140.837C129.565 140.927 129.626 141.019 129.685 141.111C129.817 141.313 129.946 141.516 130.083 141.715C130.353 142.109 130.653 142.478 131.038 142.766C131.144 142.845 131.285 142.663 131.18 142.582Z" fill="#767375"/>
<path d="M159.251 150.679C157.193 149.791 155.558 148.133 153.881 146.691C152.088 145.148 150.24 143.67 148.388 142.199C146.753 140.901 145.105 139.566 143.37 138.402C141.931 137.436 140.426 136.567 138.963 135.637C137.35 134.612 135.511 133.494 134.486 131.826C134.434 131.742 134.305 131.816 134.353 131.904C136.054 135.036 139.322 136.686 142.217 138.529C144.025 139.679 145.664 141.052 147.328 142.395C149.192 143.899 150.999 145.47 152.837 147.006C154.78 148.63 156.714 150.111 159.137 150.949C159.294 151.003 159.406 150.746 159.251 150.679Z" fill="#767375"/>
<path d="M154.017 133.523C153.75 133.317 153.397 133.177 153.096 133.023C152.74 132.841 152.396 132.631 152.053 132.424C151.349 131.999 150.652 131.563 149.981 131.087C148.694 130.174 147.488 129.19 146.074 128.478C145.979 128.43 145.874 128.576 145.968 128.639C147.311 129.547 148.53 130.656 149.798 131.665C150.423 132.162 151.04 132.67 151.734 133.072C152.083 133.274 152.445 133.441 152.819 133.588C153.14 133.714 153.562 133.863 153.909 133.846C154.064 133.838 154.144 133.621 154.017 133.523Z" fill="#767375"/>
<path d="M170.281 141.839C169.52 141.13 168.536 140.66 167.609 140.21C166.606 139.723 165.585 139.274 164.585 138.782C163.578 138.287 162.602 137.73 161.623 137.182C160.657 136.641 159.633 136.064 158.56 135.771C158.509 135.757 158.472 135.833 158.515 135.865C159.363 136.494 160.307 137.021 161.217 137.555C162.215 138.141 163.223 138.721 164.257 139.242C165.224 139.73 166.212 140.175 167.185 140.651C168.159 141.127 169.093 141.69 170.071 142.154C170.27 142.249 170.439 141.987 170.281 141.839Z" fill="#767375"/>
<path d="M178.869 127.065C177.244 126.375 175.453 125.989 173.729 125.634C171.941 125.266 170.136 124.984 168.344 124.641C166.539 124.295 164.767 123.852 162.999 123.353C161.229 122.853 159.445 122.48 157.65 122.092C155.684 121.668 153.693 121.385 151.7 121.128C151.585 121.113 151.557 121.314 151.672 121.332C155.227 121.878 158.627 123.002 162.072 123.991C163.806 124.488 165.533 124.959 167.302 125.316C169.094 125.676 170.896 125.967 172.697 126.275C174.714 126.619 176.72 127.05 178.737 127.378C178.911 127.406 179.063 127.148 178.869 127.065Z" fill="#767375"/>
<path d="M174.727 58.3554C173.417 59.7248 171.842 60.8865 170.329 62.0206C168.732 63.2166 167.097 64.3533 165.534 65.5956C163.9 66.8946 162.31 68.2534 160.745 69.6342C159.221 70.9772 157.596 72.2063 156.092 73.5695C154.63 74.8949 153.391 76.6396 151.663 77.6346C151.592 77.6755 151.639 77.796 151.719 77.7696C153.343 77.2418 154.526 75.9217 155.793 74.8466C157.32 73.5502 159.021 72.4751 160.558 71.1893C163.783 68.4918 167.006 65.783 170.171 63.0187C170.975 62.3166 171.809 61.6493 172.603 60.9349C173.427 60.1932 174.172 59.3588 174.864 58.4935C174.941 58.3976 174.815 58.2626 174.727 58.3554Z" fill="#767375"/>
<path d="M164.66 83.8814C163.91 83.9461 163.125 84.2417 162.443 84.5487C161.664 84.8989 160.935 85.4197 160.22 85.8838C159.524 86.3356 158.857 86.8423 158.142 87.2651C157.406 87.6997 156.637 87.9772 155.825 88.2289C155.71 88.2645 155.73 88.4374 155.854 88.4396C157.451 88.4673 158.999 87.5444 160.364 86.8274C161.127 86.4266 161.841 85.9124 162.579 85.4659C162.93 85.2539 163.264 85.0124 163.6 84.7788C163.957 84.5307 164.355 84.3516 164.725 84.1251C164.83 84.0617 164.795 83.8695 164.66 83.8814Z" fill="#767375"/>
<path d="M180.445 76.5479C178.427 76.7898 176.565 77.9296 174.833 78.9092C173.939 79.4156 173.051 79.9346 172.145 80.4207C171.169 80.9442 170.149 81.3586 169.126 81.7787C169.052 81.809 169.051 81.9348 169.146 81.93C171.162 81.8271 173.146 80.8325 174.884 79.8753C175.816 79.3619 176.735 78.8248 177.678 78.3312C178.144 78.0875 178.597 77.8218 179.056 77.5645C179.534 77.2962 180.044 77.0973 180.522 76.8352C180.649 76.7661 180.601 76.5294 180.445 76.5479Z" fill="#767375"/>
<path d="M181.413 93.8788C179.851 94.3099 178.296 94.529 176.685 94.6847C175.109 94.8369 173.579 94.9957 172.045 95.4083C170.4 95.8509 168.812 96.3264 167.121 96.5767C165.374 96.8354 163.606 97.028 161.873 97.3667C160.017 97.7297 158.182 98.2483 156.456 99.0256C156.326 99.0841 156.419 99.2882 156.551 99.2526C159.883 98.3455 163.349 98.0015 166.759 97.5102C168.461 97.2647 170.072 96.8983 171.7 96.3449C173.272 95.8108 174.86 95.5803 176.495 95.3384C178.165 95.0912 179.965 94.8202 181.495 94.075C181.607 94.0209 181.528 93.8472 181.413 93.8788Z" fill="#767375"/>
<path d="M181.774 114.467C179.842 114.292 177.897 114.27 175.964 114.093C174.066 113.918 172.186 113.6 170.288 113.424C168.597 113.267 166.896 113.164 165.197 113.142C163.606 113.121 162.011 113.125 160.423 113.006C159.54 112.939 158.657 112.877 157.783 112.726C156.967 112.585 156.182 112.361 155.379 112.175C155.278 112.151 155.233 112.277 155.311 112.334C156.477 113.188 158.082 113.474 159.478 113.677C161.06 113.908 162.683 113.925 164.279 113.934C167.873 113.953 171.449 114.158 175.035 114.411C177.26 114.567 179.542 114.893 181.774 114.702C181.925 114.689 181.925 114.481 181.774 114.467Z" fill="#767375"/>
<path d="M178.327 106.292C176.761 105.938 175.032 106.216 173.447 106.313C171.805 106.414 170.126 106.554 168.482 106.446C168.3 106.434 168.253 106.744 168.438 106.769C170.082 106.99 171.699 107.042 173.357 106.98C174.205 106.948 175.052 106.896 175.9 106.852C176.713 106.809 177.532 106.781 178.327 106.597C178.476 106.561 178.477 106.326 178.327 106.292Z" fill="#767375"/>
<path d="M154.936 53.722C154.162 55.142 152.803 56.0649 151.81 57.308C150.672 58.7324 149.557 60.1937 148.546 61.7114C147.591 63.1446 146.695 64.616 145.71 66.0298C145.187 66.782 144.635 67.5145 144.047 68.217C143.581 68.7726 142.86 69.3431 142.582 70.0157C142.539 70.1186 142.666 70.24 142.768 70.2013C143.462 69.9365 144.049 69.106 144.521 68.5583C145.09 67.8954 145.626 67.2039 146.152 66.5053C147.209 65.0999 148.197 63.6456 149.177 62.1865C150.233 60.6147 151.455 59.1683 152.538 57.6173C153.413 56.3649 154.609 55.2687 155.12 53.799C155.158 53.6912 154.99 53.6226 154.936 53.722Z" fill="#767375"/>
<path d="M139.79 55.2022C139.019 56.32 138.28 57.4668 137.594 58.64C136.909 59.8114 136.358 61.0704 135.784 62.2981C134.632 64.7571 133.61 67.2773 132.397 69.7068C132.378 69.7455 132.431 69.7759 132.455 69.7407C134.002 67.5131 135.337 65.1697 136.537 62.738C137.123 61.549 137.743 60.3683 138.278 59.1546C138.843 57.8732 139.395 56.59 140.016 55.3342C140.091 55.1824 139.886 55.0632 139.79 55.2022Z" fill="#767375"/>
<path d="M134.694 38.8035C134.143 40.8776 133.628 42.9508 133.008 45.0077C132.398 47.033 131.613 48.9932 130.906 50.9846C130.211 52.9452 129.463 54.8847 128.826 56.8655C128.57 57.6613 128.404 58.4751 128.217 59.2889C128.019 60.1555 127.633 60.8963 127.316 61.714C127.264 61.8482 127.445 61.9155 127.534 61.8412C128.128 61.3432 128.404 60.4652 128.655 59.7565C128.926 58.9911 129.157 58.2147 129.43 57.4501C130.151 55.4279 130.923 53.4247 131.626 51.3954C132.327 49.3728 132.841 47.2882 133.396 45.222C133.958 43.129 134.489 40.9801 134.811 38.8351C134.822 38.7608 134.715 38.7261 134.694 38.8035Z" fill="#767375"/>
<path d="M121.884 45.7766C121.342 47.6176 121.141 49.6042 120.844 51.4975C120.547 53.3903 120.375 55.3021 120.09 57.1967C119.808 59.0821 119.463 60.9587 119.125 62.8349C118.783 64.7365 118.333 66.621 118.004 68.5236C117.98 68.6634 118.19 68.7844 118.256 68.6296C119.741 65.1373 120.139 61.1962 120.559 57.4629C120.777 55.5251 121.059 53.5944 121.278 51.6571C121.499 49.7049 121.873 47.7531 122.036 45.7969C122.043 45.7085 121.908 45.6957 121.884 45.7766Z" fill="#767375"/>
<path d="M123.832 32.2831C123.819 32.1824 123.654 32.1336 123.634 32.2563C123.526 32.9271 123.495 33.6099 123.393 34.2825C123.284 35.0065 123.166 35.7306 123.05 36.4538C122.824 37.8632 122.446 39.2471 122.253 40.6605C122.232 40.8158 122.451 40.953 122.535 40.7793C123.156 39.4882 123.423 38.0229 123.643 36.617C123.753 35.9092 123.824 35.2106 123.848 34.4949C123.873 33.7678 123.919 33.0063 123.832 32.2831Z" fill="#767375"/>
</svg>
