<svg xmlns="http://www.w3.org/2000/svg" className='relative right-[2px]' viewBox="0 0 14 17" fill="none">
    <path d="M3.5 7C3.5 5.5 4.33333 4.66667 5 4V1.5L5.5 0.5H7H8.5L9 1V3.5L10.5 5L11 7L11.5 7.5L11 8.5V11.5L10.5 14.5L10 16L9.5 16.5H7H5L4 13L3.5 8.5L3 7.5L3.5 7Z" fill="#774DFD"/>
    <mask id="path-2-inside-1_5323_1962" fill="white">
        <path d="M5.73818 0.509548C5.18179 0.523705 4.74186 0.985584 4.75474 1.54198L4.81053 3.83744C3.82668 4.56143 3.22262 5.69117 3.16686 6.91141L3.15637 6.91171C2.99733 6.91558 2.87153 7.04765 2.8754 7.20669C2.8754 7.20669 2.8754 7.20669 2.8754 7.20674L2.89136 7.86689C2.89579 8.07379 2.98285 8.27034 3.1331 8.41264C3.17226 8.44977 3.19502 8.50099 3.19622 8.55495L3.19634 8.56047C3.23563 10.1642 3.43288 11.7601 3.78525 13.3251L4.42338 16.1555C4.53001 16.6237 4.95133 16.9524 5.43147 16.9417L9.43466 16.8444C9.91472 16.8317 10.3196 16.483 10.4034 16.0101L10.9031 13.152C11.179 11.5719 11.2985 9.96839 11.2599 8.3648L11.2598 8.3593C11.2587 8.30529 11.2789 8.25305 11.316 8.21383C11.4591 8.06435 11.5365 7.86386 11.5309 7.65698L11.5149 6.99668C11.511 6.83762 11.379 6.71181 11.2199 6.71568C11.2199 6.71568 11.2199 6.71568 11.2199 6.71568L11.2094 6.71599C11.0944 5.49985 10.4361 4.40076 9.41821 3.72541L9.36243 1.42994C9.34827 0.873551 8.88642 0.433595 8.32997 0.446479L5.73818 0.509548ZM5.44972 1.21935C5.52835 1.13578 5.63738 1.08751 5.75211 1.08542L8.344 1.0225C8.58248 1.017 8.78042 1.20552 8.78653 1.444L8.79012 1.58809L5.33423 1.67196L5.33064 1.52787C5.32751 1.41327 5.37038 1.30215 5.44972 1.21935ZM8.81085 2.45186L5.35528 2.53596L5.34828 2.24801L8.80407 2.16399L8.81085 2.45186ZM8.83901 3.60386L5.38324 3.68786L5.36921 3.11188L8.82523 3.02788L8.83901 3.60386ZM10.955 7.67101C10.9564 7.72504 10.9362 7.77742 10.8988 7.81645C10.7557 7.96581 10.6783 8.16625 10.6839 8.37302L10.684 8.37855C10.7217 9.94425 10.605 11.5099 10.3356 13.0527L9.83592 15.9108C9.80006 16.1135 9.62652 16.263 9.42076 16.2684L5.41746 16.3658C5.2117 16.3702 5.03123 16.2294 4.98558 16.0287L4.34763 13.1983C4.00351 11.6705 3.81084 10.1124 3.77234 8.54677L3.77222 8.54125C3.76776 8.33437 3.68071 8.13788 3.53048 7.99555C3.49124 7.95835 3.46851 7.90705 3.46736 7.85299L3.4583 7.48069L10.9459 7.29866L10.955 7.67101ZM10.6321 6.72997L7.9993 6.794L3.74416 6.89743C3.8046 5.84626 4.33882 4.87934 5.19655 4.26869L9.0536 4.17492C9.93998 4.74317 10.5206 5.68295 10.6321 6.72997Z"/>
    </mask>
    <path d="M5.73818 0.509548C5.18179 0.523705 4.74186 0.985584 4.75474 1.54198L4.81053 3.83744C3.82668 4.56143 3.22262 5.69117 3.16686 6.91141L3.15637 6.91171C2.99733 6.91558 2.87153 7.04765 2.8754 7.20669C2.8754 7.20669 2.8754 7.20669 2.8754 7.20674L2.89136 7.86689C2.89579 8.07379 2.98285 8.27034 3.1331 8.41264C3.17226 8.44977 3.19502 8.50099 3.19622 8.55495L3.19634 8.56047C3.23563 10.1642 3.43288 11.7601 3.78525 13.3251L4.42338 16.1555C4.53001 16.6237 4.95133 16.9524 5.43147 16.9417L9.43466 16.8444C9.91472 16.8317 10.3196 16.483 10.4034 16.0101L10.9031 13.152C11.179 11.5719 11.2985 9.96839 11.2599 8.3648L11.2598 8.3593C11.2587 8.30529 11.2789 8.25305 11.316 8.21383C11.4591 8.06435 11.5365 7.86386 11.5309 7.65698L11.5149 6.99668C11.511 6.83762 11.379 6.71181 11.2199 6.71568C11.2199 6.71568 11.2199 6.71568 11.2199 6.71568L11.2094 6.71599C11.0944 5.49985 10.4361 4.40076 9.41821 3.72541L9.36243 1.42994C9.34827 0.873551 8.88642 0.433595 8.32997 0.446479L5.73818 0.509548ZM5.44972 1.21935C5.52835 1.13578 5.63738 1.08751 5.75211 1.08542L8.344 1.0225C8.58248 1.017 8.78042 1.20552 8.78653 1.444L8.79012 1.58809L5.33423 1.67196L5.33064 1.52787C5.32751 1.41327 5.37038 1.30215 5.44972 1.21935ZM8.81085 2.45186L5.35528 2.53596L5.34828 2.24801L8.80407 2.16399L8.81085 2.45186ZM8.83901 3.60386L5.38324 3.68786L5.36921 3.11188L8.82523 3.02788L8.83901 3.60386ZM10.955 7.67101C10.9564 7.72504 10.9362 7.77742 10.8988 7.81645C10.7557 7.96581 10.6783 8.16625 10.6839 8.37302L10.684 8.37855C10.7217 9.94425 10.605 11.5099 10.3356 13.0527L9.83592 15.9108C9.80006 16.1135 9.62652 16.263 9.42076 16.2684L5.41746 16.3658C5.2117 16.3702 5.03123 16.2294 4.98558 16.0287L4.34763 13.1983C4.00351 11.6705 3.81084 10.1124 3.77234 8.54677L3.77222 8.54125C3.76776 8.33437 3.68071 8.13788 3.53048 7.99555C3.49124 7.95835 3.46851 7.90705 3.46736 7.85299L3.4583 7.48069L10.9459 7.29866L10.955 7.67101ZM10.6321 6.72997L7.9993 6.794L3.74416 6.89743C3.8046 5.84626 4.33882 4.87934 5.19655 4.26869L9.0536 4.17492C9.93998 4.74317 10.5206 5.68295 10.6321 6.72997Z" fill="white"/>
    <path d="M5.73818 0.509548L5.71385 -0.490157L5.71274 -0.490128L5.73818 0.509548ZM4.75474 1.54198L3.75501 1.56513L3.75503 1.56627L4.75474 1.54198ZM4.81053 3.83744L5.40322 4.64287L5.82289 4.33405L5.81023 3.81315L4.81053 3.83744ZM3.16686 6.91141L3.19595 7.91098L4.12346 7.88399L4.16582 6.95706L3.16686 6.91141ZM3.15637 6.91171L3.1807 7.91143L3.18546 7.91129L3.15637 6.91171ZM2.8754 7.20669L3.55963 7.93595L3.88599 7.62974L3.8751 7.18236L2.8754 7.20669ZM2.8754 7.20674L1.8754 7.20674L1.8754 7.21883L1.87569 7.23092L2.8754 7.20674ZM2.89136 7.86689L3.89114 7.84548L3.89107 7.84272L2.89136 7.86689ZM3.1331 8.41264L3.82108 7.68691L3.82075 7.6866L3.1331 8.41264ZM3.19622 8.55495L2.19646 8.57712L2.19648 8.57801L3.19622 8.55495ZM3.19634 8.56047L2.19661 8.58354L2.19664 8.58496L3.19634 8.56047ZM3.78525 13.3251L2.80967 13.5448L2.80974 13.5451L3.78525 13.3251ZM4.42338 16.1555L3.44786 16.3754L3.44834 16.3775L4.42338 16.1555ZM5.43147 16.9417L5.45357 17.9415L5.45577 17.9414L5.43147 16.9417ZM9.43466 16.8444L9.45897 17.8441L9.46107 17.8441L9.43466 16.8444ZM10.4034 16.0101L11.388 16.1846L11.3884 16.1824L10.4034 16.0101ZM10.9031 13.152L11.8881 13.3243L11.8882 13.3241L10.9031 13.152ZM11.2599 8.3648L10.2601 8.38331L10.2602 8.38886L11.2599 8.3648ZM11.2598 8.3593L12.2597 8.34079L12.2596 8.33809L11.2598 8.3593ZM11.316 8.21383L10.5937 7.52226L10.5898 7.52633L11.316 8.21383ZM11.5309 7.65698L10.5312 7.68131L10.5313 7.68393L11.5309 7.65698ZM11.5149 6.99668L10.5152 7.02084L10.5152 7.021L11.5149 6.99668ZM11.2199 6.71568L11.1956 5.71598L9.59963 5.75482L10.3311 7.17384L11.2199 6.71568ZM11.2199 6.71568V5.71568L11.2054 5.71568L11.1909 5.7161L11.2199 6.71568ZM11.2094 6.71599L10.2138 6.8101L10.302 7.74272L11.2384 7.71557L11.2094 6.71599ZM9.41821 3.72541L8.41851 3.74971L8.43117 4.27062L8.86536 4.55869L9.41821 3.72541ZM9.36243 1.42994L10.3621 1.40565L10.3621 1.40451L9.36243 1.42994ZM8.32997 0.446479L8.30682 -0.553254L8.30565 -0.553225L8.32997 0.446479ZM5.44972 1.21935L6.1718 1.91123L6.17803 1.9046L5.44972 1.21935ZM5.75211 1.08542L5.7703 2.08527L5.77637 2.08513L5.75211 1.08542ZM8.344 1.0225L8.32095 0.0227687L8.31973 0.0227983L8.344 1.0225ZM8.78653 1.444L9.78622 1.41908L9.7862 1.41838L8.78653 1.444ZM8.79012 1.58809L8.81438 2.58779L9.81474 2.56352L9.78981 1.56317L8.79012 1.58809ZM5.33423 1.67196L4.33454 1.69687L4.35943 2.69591L5.35849 2.67167L5.33423 1.67196ZM5.33064 1.52787L6.33033 1.50297L6.33026 1.50055L5.33064 1.52787ZM8.81085 2.45186L8.83518 3.45156L9.83407 3.42725L9.81057 2.42834L8.81085 2.45186ZM5.35528 2.53596L4.35558 2.56027L4.37989 3.55999L5.37961 3.53566L5.35528 2.53596ZM5.34828 2.24801L5.32397 1.24831L4.32427 1.27261L4.34858 2.27232L5.34828 2.24801ZM8.80407 2.16399L9.8038 2.14047L9.78026 1.13995L8.77977 1.16428L8.80407 2.16399ZM8.83901 3.60386L8.86331 4.60356L9.86262 4.57927L9.83872 3.57995L8.83901 3.60386ZM5.38324 3.68786L4.38354 3.71221L4.40789 4.71186L5.40754 4.68756L5.38324 3.68786ZM5.36921 3.11188L5.34491 2.11218L4.34516 2.13648L4.36951 3.13623L5.36921 3.11188ZM8.82523 3.02788L9.82495 3.00397L9.80103 2.00387L8.80093 2.02818L8.82523 3.02788ZM10.955 7.67101L9.95526 7.69535L9.95534 7.69834L10.955 7.67101ZM10.8988 7.81645L10.1768 7.12458L10.1767 7.12465L10.8988 7.81645ZM10.6839 8.37302L11.6836 8.34996L11.6835 8.34607L10.6839 8.37302ZM10.684 8.37855L9.68427 8.40161L9.68429 8.40264L10.684 8.37855ZM10.3356 13.0527L11.3207 13.225L11.3207 13.2248L10.3356 13.0527ZM9.83592 15.9108L10.8206 16.085L10.821 16.0831L9.83592 15.9108ZM9.42076 16.2684L9.44508 17.2681L9.44711 17.2681L9.42076 16.2684ZM5.41746 16.3658L5.43911 17.3656L5.44178 17.3655L5.41746 16.3658ZM4.98558 16.0287L4.01005 16.2486L4.01049 16.2506L4.98558 16.0287ZM4.34763 13.1983L3.37207 13.418L3.3721 13.4182L4.34763 13.1983ZM3.77234 8.54677L2.77261 8.56984L2.77264 8.57136L3.77234 8.54677ZM3.77222 8.54125L2.77245 8.56278L2.77248 8.56431L3.77222 8.54125ZM3.53048 7.99555L2.84246 8.72124L2.8427 8.72147L3.53048 7.99555ZM3.46736 7.85299L4.46714 7.8318L4.46706 7.82865L3.46736 7.85299ZM3.4583 7.48069L3.43399 6.48098L2.43425 6.50529L2.45859 7.50502L3.4583 7.48069ZM10.9459 7.29866L11.9456 7.27432L11.9213 6.27465L10.9216 6.29895L10.9459 7.29866ZM10.6321 6.72997L10.6564 7.72967L11.7414 7.70328L11.6265 6.62407L10.6321 6.72997ZM7.9993 6.794L8.0236 7.79371L8.02361 7.79371L7.9993 6.794ZM3.74416 6.89743L2.74581 6.84002L2.6835 7.92351L3.76846 7.89713L3.74416 6.89743ZM5.19655 4.26869L5.17225 3.26899L4.86608 3.27643L4.61658 3.45405L5.19655 4.26869ZM9.0536 4.17492L9.59331 3.33307L9.33547 3.16777L9.02929 3.17521L9.0536 4.17492ZM5.71274 -0.490128C4.60511 -0.461946 3.72936 0.457514 3.75501 1.56513L5.75447 1.51883C5.75443 1.51688 5.75459 1.51601 5.75461 1.51589C5.75464 1.51572 5.75467 1.51563 5.75472 1.51549C5.75488 1.51508 5.75553 1.51375 5.75707 1.51214C5.7586 1.51053 5.7599 1.50982 5.76029 1.50964C5.76043 1.50957 5.76052 1.50954 5.76069 1.5095C5.7608 1.50948 5.76167 1.50927 5.76362 1.50922L5.71274 -0.490128ZM3.75503 1.56627L3.81082 3.86174L5.81023 3.81315L5.75444 1.51768L3.75503 1.56627ZM4.21784 3.03201C2.9908 3.93495 2.23744 5.34394 2.1679 6.86576L4.16582 6.95706C4.2078 6.03841 4.66256 5.1879 5.40322 4.64287L4.21784 3.03201ZM3.13777 5.91183L3.12728 5.91214L3.18546 7.91129L3.19595 7.91098L3.13777 5.91183ZM3.13204 5.91201C2.42094 5.92931 1.85838 6.51981 1.87569 7.23102L3.8751 7.18236C3.88467 7.5755 3.57373 7.90185 3.1807 7.91142L3.13204 5.91201ZM2.8754 7.20669C2.19109 6.4775 2.14311 6.5257 2.09851 6.57705C2.0869 6.59164 2.05649 6.63277 2.03827 6.65969C2.00694 6.70764 1.98497 6.75027 1.97038 6.78131C1.94211 6.84146 1.92577 6.89199 1.91752 6.91952C1.90087 6.97503 1.89287 7.01975 1.88989 7.03708C1.88313 7.0763 1.88031 7.10728 1.8795 7.11621C1.87737 7.13962 1.87657 7.158 1.87638 7.16232C1.87581 7.17509 1.87563 7.18511 1.87559 7.18719C1.87546 7.19386 1.87542 7.19909 1.87542 7.20012C1.8754 7.20353 1.8754 7.20621 1.8754 7.20674L3.8754 7.20674C3.8754 7.20722 3.8754 7.20988 3.87537 7.21328C3.87537 7.21429 3.87534 7.21952 3.87521 7.22619C3.87517 7.22827 3.87498 7.23829 3.87441 7.25106C3.87422 7.25538 3.87342 7.27376 3.87129 7.29717C3.87048 7.3061 3.86766 7.33708 3.86091 7.3763C3.85792 7.39363 3.84992 7.43835 3.83328 7.49386C3.82502 7.52139 3.80868 7.57192 3.78041 7.63208C3.76582 7.66311 3.74386 7.70574 3.71255 7.75365C3.69431 7.78061 3.66389 7.82173 3.65228 7.83633C3.60769 7.88768 3.5597 7.93588 2.8754 7.20669ZM1.87569 7.23092L1.89165 7.89107L3.89107 7.84272L3.8751 7.18256L1.87569 7.23092ZM1.89159 7.8883C1.90174 8.36233 2.10118 8.81262 2.44544 9.13868L3.82075 7.6866C3.86451 7.72805 3.88984 7.78526 3.89113 7.84548L1.89159 7.8883ZM2.44512 9.13837C2.2912 8.99246 2.2012 8.79063 2.19646 8.57712L4.19597 8.53277C4.18884 8.21136 4.05331 7.90707 3.82108 7.68691L2.44512 9.13837ZM2.19648 8.57801L2.19661 8.58354L4.19608 8.53741L4.19595 8.53189L2.19648 8.57801ZM2.19664 8.58496C2.23754 10.2544 2.44287 11.9157 2.80967 13.5448L4.76083 13.1055C4.4229 11.6046 4.23372 10.074 4.19604 8.53598L2.19664 8.58496ZM2.80974 13.5451L3.44786 16.3754L5.39889 15.9355L4.76077 13.1052L2.80974 13.5451ZM3.44834 16.3775C3.66044 17.3089 4.49849 17.9626 5.45357 17.9415L5.40936 15.942C5.40713 15.942 5.40625 15.9417 5.40579 15.9416C5.40499 15.9413 5.40375 15.9407 5.40238 15.9397C5.401 15.9386 5.40013 15.9375 5.39967 15.9368C5.3994 15.9364 5.39891 15.9356 5.39841 15.9334L3.44834 16.3775ZM5.45577 17.9414L9.45897 17.8441L9.41035 15.8447L5.40716 15.942L5.45577 17.9414ZM9.46107 17.8441C10.4161 17.8188 11.2214 17.1251 11.388 16.1846L9.41869 15.8357C9.4183 15.8379 9.41784 15.8387 9.4176 15.8391C9.41718 15.8399 9.41636 15.841 9.41504 15.8421C9.41373 15.8433 9.41252 15.8439 9.41175 15.8442C9.41131 15.8444 9.41047 15.8447 9.40826 15.8447L9.46107 17.8441ZM11.3884 16.1824L11.8881 13.3243L9.91802 12.9798L9.4183 15.8379L11.3884 16.1824ZM11.8882 13.3241C12.1754 11.6792 12.2998 10.01 12.2597 8.34073L10.2602 8.38886C10.2973 9.92677 10.1826 11.4646 9.91798 12.98L11.8882 13.3241ZM12.2598 8.34629L12.2597 8.34079L10.26 8.37781L10.2601 8.38331L12.2598 8.34629ZM12.2596 8.33809C12.2641 8.54701 12.186 8.74943 12.0422 8.90134L10.5898 7.52633C10.3717 7.75666 10.2533 8.06358 10.2601 8.38051L12.2596 8.33809ZM12.0383 8.9054C12.366 8.56309 12.5433 8.10391 12.5306 7.63004L10.5313 7.68393C10.5297 7.62381 10.5522 7.5656 10.5937 7.52227L12.0383 8.9054ZM12.5306 7.63266L12.5146 6.97236L10.5152 7.021L10.5312 7.68131L12.5306 7.63266ZM12.5146 6.97251C12.4974 6.26127 11.9068 5.69867 11.1956 5.71598L11.2443 7.71539C10.8511 7.72495 10.5247 7.41396 10.5152 7.02084L12.5146 6.97251ZM11.2199 6.71568C10.3311 7.17397 10.3177 7.14689 10.305 7.11941C10.301 7.11011 10.2888 7.08045 10.2812 7.06034C10.2662 7.01951 10.2531 6.97552 10.2429 6.92881C10.2223 6.83418 10.2149 6.73418 10.2234 6.63208C10.2409 6.42331 10.32 6.25701 10.4017 6.14082C10.5448 5.93709 10.723 5.84608 10.773 5.8211C10.8966 5.75938 11.0048 5.73899 11.0191 5.73605C11.0808 5.7234 11.1306 5.71966 11.1374 5.7191C11.1665 5.71668 11.1895 5.71614 11.1931 5.71604C11.2071 5.71567 11.2181 5.71568 11.2199 5.71568V7.71568C11.2217 7.71568 11.2328 7.7157 11.2468 7.71532C11.2503 7.71523 11.2734 7.71468 11.3025 7.71227C11.3093 7.71171 11.359 7.70797 11.4207 7.69531C11.435 7.69238 11.5433 7.67199 11.6668 7.61027C11.7168 7.58528 11.895 7.49428 12.0382 7.29055C12.1198 7.17435 12.1989 7.00806 12.2164 6.79928C12.225 6.69719 12.2176 6.59719 12.1969 6.50256C12.1868 6.45584 12.1737 6.41186 12.1586 6.37082C12.151 6.35092 12.1389 6.32126 12.1346 6.31158C12.1222 6.28448 12.1087 6.25739 11.2199 6.71568ZM11.1909 5.7161L11.1804 5.71641L11.2384 7.71557L11.2489 7.71526L11.1909 5.7161ZM12.2049 6.62188C12.0616 5.10514 11.2406 3.7344 9.97106 2.89213L8.86536 4.55869C9.6317 5.06713 10.1273 5.89456 10.2138 6.8101L12.2049 6.62188ZM10.4179 3.70112L10.3621 1.40565L8.36272 1.45424L8.41851 3.74971L10.4179 3.70112ZM10.3621 1.40451C10.3339 0.29691 9.41452 -0.5789 8.30683 -0.553253L8.35312 1.44621C8.35507 1.44617 8.35595 1.44633 8.35607 1.44635C8.35625 1.44638 8.35634 1.44641 8.35649 1.44646C8.3569 1.44663 8.35822 1.44727 8.35983 1.4488C8.36144 1.45034 8.36215 1.45163 8.36233 1.45204C8.3624 1.45218 8.36243 1.45227 8.36247 1.45244C8.3625 1.45256 8.3627 1.45343 8.36275 1.45538L10.3621 1.40451ZM8.30565 -0.553225L5.71385 -0.490156L5.76251 1.50925L8.3543 1.44618L8.30565 -0.553225ZM6.17803 1.9046C6.0719 2.0174 5.92483 2.08244 5.7703 2.08526L5.73391 0.0855857C5.34992 0.0925741 4.9848 0.254164 4.72142 0.534095L6.17803 1.9046ZM5.77637 2.08513L8.36827 2.02221L8.31973 0.0227983L5.72784 0.0857148L5.77637 2.08513ZM8.36706 2.02224C8.05441 2.02945 7.79487 1.78226 7.78686 1.46962L9.7862 1.41838C9.76597 0.628786 9.11054 0.00455962 8.32095 0.0227698L8.36706 2.02224ZM7.78684 1.46892L7.79043 1.613L9.78981 1.56317L9.78622 1.41908L7.78684 1.46892ZM8.76586 0.588382L5.30996 0.672255L5.35849 2.67167L8.81438 2.58779L8.76586 0.588382ZM6.33392 1.64705L6.33033 1.50297L4.33095 1.55278L4.33454 1.69687L6.33392 1.64705ZM6.33026 1.50055C6.33443 1.65311 6.27736 1.80099 6.17177 1.9112L4.72768 0.527502C4.4634 0.803313 4.32058 1.17342 4.33101 1.55519L6.33026 1.50055ZM8.78652 1.45215L5.33095 1.53626L5.37961 3.53566L8.83518 3.45156L8.78652 1.45215ZM6.35499 2.51165L6.34799 2.2237L4.34858 2.27232L4.35558 2.56027L6.35499 2.51165ZM5.37259 3.24772L8.82838 3.16369L8.77977 1.16428L5.32397 1.24831L5.37259 3.24772ZM7.80435 2.18751L7.81112 2.47538L9.81057 2.42834L9.8038 2.14047L7.80435 2.18751ZM8.81471 2.60415L5.35894 2.68815L5.40754 4.68756L8.86331 4.60356L8.81471 2.60415ZM6.38294 3.66351L6.36892 3.08753L4.36951 3.13623L4.38354 3.71221L6.38294 3.66351ZM5.39351 4.11159L8.84953 4.02759L8.80093 2.02818L5.34491 2.11218L5.39351 4.11159ZM7.82552 3.05179L7.83929 3.62777L9.83872 3.57995L9.82495 3.00397L7.82552 3.05179ZM9.95534 7.69834C9.9495 7.4848 10.0295 7.27828 10.1768 7.12458L11.6208 8.50833C11.8429 8.27656 11.9634 7.96528 11.9546 7.64369L9.95534 7.69834ZM10.1767 7.12465C9.84882 7.46689 9.67146 7.92615 9.68424 8.39998L11.6835 8.34607C11.6851 8.40634 11.6626 8.46473 11.6209 8.50826L10.1767 7.12465ZM9.68414 8.39609L9.68427 8.40161L11.6837 8.35548L11.6836 8.34996L9.68414 8.39609ZM9.68429 8.40264C9.72044 9.90265 9.60865 11.4026 9.35054 12.8807L11.3207 13.2248C11.6014 11.6172 11.723 9.98585 11.6837 8.35445L9.68429 8.40264ZM9.35057 12.8805L8.85086 15.7386L10.821 16.0831L11.3207 13.225L9.35057 12.8805ZM8.8512 15.7367C8.89813 15.4714 9.12525 15.2758 9.39441 15.2687L9.44711 17.2681C10.1278 17.2501 10.702 16.7557 10.8206 16.085L8.8512 15.7367ZM9.39644 15.2687L5.39314 15.3661L5.44178 17.3655L9.44508 17.2681L9.39644 15.2687ZM5.39581 15.366C5.66485 15.3602 5.90095 15.5444 5.96066 15.8069L4.01049 16.2506C4.16151 16.9144 4.75855 17.3803 5.43911 17.3656L5.39581 15.366ZM5.96111 15.8089L5.32316 12.9784L3.3721 13.4182L4.01005 16.2486L5.96111 15.8089ZM5.32319 12.9786C4.99351 11.5149 4.80892 10.0222 4.77204 8.52219L2.77264 8.57136C2.81276 10.2027 3.01351 11.8261 3.37207 13.418L5.32319 12.9786ZM4.77208 8.52371L4.77195 8.51819L2.77248 8.56431L2.77261 8.56984L4.77208 8.52371ZM4.77198 8.51972C4.76177 8.04571 4.56231 7.59561 4.21826 7.26963L2.8427 8.72147C2.7991 8.68016 2.77374 8.62304 2.77245 8.56278L4.77198 8.51972ZM4.2185 7.26986C4.37279 7.41614 4.46261 7.61839 4.46714 7.8318L2.46758 7.87418C2.4744 8.1957 2.60969 8.50056 2.84246 8.72124L4.2185 7.26986ZM4.46706 7.82865L4.458 7.45635L2.45859 7.50502L2.46766 7.87733L4.46706 7.82865ZM3.4826 8.48039L10.9702 8.29836L10.9216 6.29895L3.43399 6.48098L3.4826 8.48039ZM9.9462 7.323L9.95526 7.69535L11.9547 7.64667L11.9456 7.27432L9.9462 7.323ZM10.6078 5.73026L7.97498 5.7943L8.02361 7.79371L10.6564 7.72967L10.6078 5.73026ZM7.975 5.7943L3.71986 5.89772L3.76846 7.89713L8.0236 7.79371L7.975 5.7943ZM4.74251 6.95484C4.78554 6.20645 5.16588 5.51807 5.77652 5.08333L4.61658 3.45405C3.51176 4.24062 2.82366 5.48607 2.74581 6.84002L4.74251 6.95484ZM5.22086 5.2684L9.07791 5.17462L9.02929 3.17521L5.17225 3.26899L5.22086 5.2684ZM8.51389 5.01677C9.14496 5.42135 9.55832 6.09042 9.63771 6.83586L11.6265 6.62407C11.4828 5.27547 10.735 4.065 9.59331 3.33307L8.51389 5.01677Z" fill="white" mask="url(#path-2-inside-1_5323_1962)"/>
    <mask id="path-4-inside-2_5323_1962" fill="white">
        <path d="M4.77229 5.29891C4.62728 5.5974 4.51943 5.91256 4.45111 6.23728C4.4184 6.39298 4.51808 6.54572 4.67378 6.57844C4.82948 6.61116 4.98222 6.51148 5.01494 6.35578C5.07353 6.07715 5.16603 5.80677 5.29044 5.55067C5.35998 5.40755 5.30034 5.23523 5.15725 5.16566C5.01415 5.0961 4.84178 5.15573 4.77224 5.29886L4.77229 5.29891Z"/>
    </mask>
    <path d="M4.77229 5.29891L5.67177 5.73587L5.98294 5.09534L5.4794 4.5918L4.77229 5.29891ZM4.45111 6.23728L3.47254 6.0314L3.47249 6.03163L4.45111 6.23728ZM5.01494 6.35578L4.03634 6.15001L4.03632 6.15013L5.01494 6.35578ZM5.29044 5.55067L4.39098 5.11367L4.39096 5.11372L5.29044 5.55067ZM4.77224 5.29886L3.87278 4.86185L3.56157 5.5024L4.06513 6.00596L4.77224 5.29886ZM3.87281 4.86194C3.69208 5.23398 3.55767 5.62675 3.47254 6.0314L5.42969 6.44315C5.48119 6.19837 5.56249 5.96082 5.67177 5.73587L3.87281 4.86194ZM3.47249 6.03163C3.32621 6.72774 3.77188 7.41076 4.46813 7.55707L4.87943 5.59982C5.26428 5.68069 5.51058 6.05822 5.42974 6.44293L3.47249 6.03163ZM4.46813 7.55707C5.16424 7.70335 5.84726 7.25768 5.99357 6.56143L4.03632 6.15013C4.11719 5.76528 4.49472 5.51898 4.87943 5.59982L4.46813 7.55707ZM5.99354 6.56155C6.03532 6.36286 6.10127 6.17013 6.18992 5.98763L4.39096 5.11372C4.2308 5.44341 4.11174 5.79143 4.03634 6.15001L5.99354 6.56155ZM6.1899 5.98768C6.5008 5.34778 6.23407 4.57723 5.59445 4.2663L4.72005 6.06503C4.36662 5.89322 4.21915 5.46733 4.39098 5.11367L6.1899 5.98768ZM5.59445 4.2663C4.95452 3.95522 4.18368 4.22195 3.87278 4.86185L5.6717 5.73586C5.49987 6.08952 5.07379 6.23699 4.72005 6.06503L5.59445 4.2663ZM4.06513 6.00596L4.06518 6.00601L5.4794 4.5918L5.47935 4.59175L4.06513 6.00596Z" fill="#774DFD" mask="url(#path-4-inside-2_5323_1962)"/>
    <path d="M5.42506 13.1871C5.42506 13.1871 5.42506 13.1871 5.42506 13.1871L5.42506 13.1871Z" stroke="#774DFD"/>
    <path d="M4.46112 10.3591L4.46107 10.3591L4.46112 10.3591ZM4.46112 10.3591L4.46112 10.3591M4.46112 10.3591L4.46112 10.3591M4.46112 10.3591L4.46117 10.3591L4.46112 10.3591ZM4.95859 10.3095C4.95859 10.3095 4.95859 10.3095 4.95859 10.3095L4.95859 10.3095ZM4.95859 10.3095C4.94912 10.2146 4.94022 10.1197 4.9319 10.0246M4.95859 10.3095L4.9319 10.0246M4.9319 10.0246C4.93189 10.0246 4.93189 10.0246 4.93189 10.0245L4.72079 10.043L4.72079 10.043L5.00774 10.0179L4.72078 10.0429L4.69566 9.7565L4.72078 10.0429L4.50966 10.0614C4.50966 10.0614 4.50966 10.0615 4.50967 10.0615L4.9319 10.0246ZM4.9319 10.0246L4.7208 10.0431L4.9319 10.0246ZM4.9586 10.3095L4.9586 10.3095L4.9586 10.3095ZM4.88872 10.1723C4.85396 10.2175 4.8012 10.2485 4.74002 10.2541C4.73979 10.2541 4.73955 10.2542 4.73932 10.2542L4.73426 10.1965L4.73426 10.1965L4.72751 10.1196C4.78863 10.1137 4.8462 10.1344 4.88872 10.1723ZM4.72657 10.1196C4.72688 10.1196 4.72719 10.1196 4.7275 10.1196L4.73416 10.1955L4.73416 10.1955L4.7393 10.2542C4.67875 10.2595 4.62188 10.2388 4.57978 10.2013C4.61418 10.1566 4.66619 10.1257 4.72657 10.1196Z" stroke="#774DFD"/>
    <path d="M1.55263 6.83265C1.55263 6.83264 1.55263 6.83263 1.55263 6.83262L1.55263 6.83265ZM1.55263 6.83265L1.55264 6.83335C1.55264 6.83312 1.55263 6.83288 1.55263 6.83265Z" stroke="#774DFD"/>
    <mask id="path-9-inside-3_5323_1962" fill="white">
        <path d="M1.34563 4.90544C1.23029 4.79616 1.04831 4.80061 0.938441 4.91542C0.524533 5.34761 0.300697 5.9274 0.316865 6.52563L0.318062 6.57505C0.321932 6.73409 0.454003 6.85989 0.613064 6.85605C0.772099 6.85218 0.897906 6.72011 0.894061 6.56105L0.892864 6.51163C0.880795 6.06625 1.04744 5.63454 1.35561 5.31278C1.46535 5.19759 1.46092 5.01523 1.3457 4.90551C1.34565 4.90546 1.34565 4.90546 1.34563 4.90544Z"/>
    </mask>
    <path d="M1.34563 4.90544L2.05273 4.19833L2.0432 4.1888L2.03341 4.17952L1.34563 4.90544ZM0.938441 4.91542L1.66066 5.60709L1.66092 5.60681L0.938441 4.91542ZM0.316865 6.52563L1.31658 6.50143L1.3165 6.49861L0.316865 6.52563ZM0.318062 6.57505L-0.681645 6.59926L-0.681642 6.59938L0.318062 6.57505ZM0.613064 6.85605L0.637228 7.85576L0.637392 7.85575L0.613064 6.85605ZM0.894061 6.56105L1.89377 6.53688L1.89377 6.53684L0.894061 6.56105ZM0.892864 6.51163L1.89258 6.48742L1.8925 6.48454L0.892864 6.51163ZM1.35561 5.31278L2.07781 6.00446L2.07963 6.00255L1.35561 5.31278ZM1.3457 4.90551L0.638597 5.61262L0.647241 5.62126L0.656093 5.62969L1.3457 4.90551ZM2.03341 4.17952C1.51854 3.6917 0.706303 3.71164 0.215963 4.22403L1.66092 5.60681C1.39032 5.88958 0.942034 5.90061 0.657847 5.63136L2.03341 4.17952ZM0.216225 4.22375C-0.382404 4.84882 -0.706155 5.68739 -0.68277 6.55265L1.3165 6.49861C1.30755 6.16741 1.43147 5.8464 1.66066 5.60709L0.216225 4.22375ZM-0.682842 6.54983L-0.681645 6.59926L1.31777 6.55085L1.31657 6.50143L-0.682842 6.54983ZM-0.681642 6.59938C-0.664335 7.31057 -0.0737922 7.87294 0.637228 7.85576L0.588899 5.85634C0.981798 5.84684 1.3082 6.1576 1.31777 6.55072L-0.681642 6.59938ZM0.637392 7.85575C1.34858 7.83845 1.91096 7.2479 1.89377 6.53688L-0.105647 6.58521C-0.115144 6.19231 0.195615 5.86591 0.588735 5.85634L0.637392 7.85575ZM1.89377 6.53684L1.89257 6.48742L-0.106843 6.53583L-0.105646 6.58525L1.89377 6.53684ZM1.8925 6.48454C1.88766 6.30621 1.9544 6.13332 2.07781 6.00446L0.633408 4.62109C0.140491 5.13576 -0.126074 5.82628 -0.106769 6.53871L1.8925 6.48454ZM2.07963 6.00255C2.57035 5.48747 2.55058 4.67201 2.03532 4.18133L0.656093 5.62969C0.371256 5.35845 0.360345 4.90771 0.631585 4.623L2.07963 6.00255ZM2.05281 4.19841C2.05281 4.19841 2.05281 4.19841 2.05281 4.19841C2.05281 4.19841 2.05281 4.19841 2.05281 4.19841C2.05281 4.19841 2.05281 4.19841 2.05281 4.19841C2.05281 4.19841 2.05281 4.19841 2.05281 4.19841C2.05281 4.19841 2.05281 4.19841 2.05281 4.19841C2.05281 4.19841 2.05281 4.19841 2.05281 4.19841C2.05281 4.19841 2.05281 4.19841 2.05281 4.19841C2.05281 4.19841 2.05281 4.19841 2.05281 4.19841C2.05281 4.19841 2.05281 4.19841 2.05281 4.19841C2.05281 4.19841 2.05281 4.19841 2.05281 4.19841C2.05281 4.1984 2.05281 4.1984 2.05281 4.1984C2.05281 4.1984 2.05281 4.1984 2.05281 4.1984C2.05281 4.1984 2.05281 4.1984 2.05281 4.1984C2.05281 4.1984 2.05281 4.1984 2.05281 4.1984C2.05281 4.1984 2.05281 4.1984 2.05281 4.1984C2.05281 4.1984 2.05281 4.1984 2.05281 4.1984C2.05281 4.1984 2.05281 4.1984 2.05281 4.1984C2.05281 4.1984 2.05281 4.1984 2.05281 4.1984C2.05281 4.1984 2.05281 4.1984 2.05281 4.1984C2.05281 4.1984 2.05281 4.1984 2.05281 4.1984C2.0528 4.1984 2.0528 4.1984 2.0528 4.1984C2.0528 4.1984 2.0528 4.1984 2.0528 4.1984C2.0528 4.1984 2.0528 4.1984 2.0528 4.1984C2.0528 4.1984 2.0528 4.1984 2.0528 4.1984C2.0528 4.1984 2.0528 4.1984 2.0528 4.1984C2.0528 4.1984 2.0528 4.1984 2.0528 4.1984C2.0528 4.1984 2.0528 4.1984 2.0528 4.1984C2.0528 4.1984 2.0528 4.1984 2.0528 4.1984C2.0528 4.1984 2.0528 4.1984 2.0528 4.1984C2.0528 4.1984 2.0528 4.1984 2.0528 4.1984C2.0528 4.1984 2.0528 4.1984 2.0528 4.1984C2.0528 4.1984 2.0528 4.1984 2.0528 4.1984C2.0528 4.1984 2.0528 4.1984 2.0528 4.1984C2.0528 4.1984 2.0528 4.1984 2.0528 4.1984C2.0528 4.1984 2.0528 4.1984 2.0528 4.1984C2.0528 4.1984 2.0528 4.1984 2.0528 4.1984C2.0528 4.1984 2.0528 4.1984 2.0528 4.1984C2.0528 4.1984 2.0528 4.1984 2.0528 4.1984C2.0528 4.1984 2.0528 4.1984 2.0528 4.1984C2.0528 4.1984 2.0528 4.1984 2.0528 4.1984C2.0528 4.1984 2.0528 4.1984 2.0528 4.1984C2.0528 4.1984 2.0528 4.1984 2.0528 4.1984C2.0528 4.1984 2.0528 4.1984 2.0528 4.1984C2.0528 4.1984 2.0528 4.1984 2.0528 4.1984C2.0528 4.1984 2.0528 4.1984 2.0528 4.1984C2.0528 4.1984 2.0528 4.1984 2.0528 4.1984C2.0528 4.1984 2.0528 4.1984 2.0528 4.1984C2.0528 4.1984 2.0528 4.1984 2.0528 4.19839C2.0528 4.19839 2.0528 4.19839 2.0528 4.19839C2.0528 4.19839 2.0528 4.19839 2.0528 4.19839C2.0528 4.19839 2.0528 4.19839 2.0528 4.19839C2.0528 4.19839 2.0528 4.19839 2.0528 4.19839C2.0528 4.19839 2.0528 4.19839 2.0528 4.19839C2.0528 4.19839 2.0528 4.19839 2.0528 4.19839C2.0528 4.19839 2.0528 4.19839 2.0528 4.19839C2.0528 4.19839 2.0528 4.19839 2.0528 4.19839C2.0528 4.19839 2.0528 4.19839 2.0528 4.19839C2.0528 4.19839 2.0528 4.19839 2.0528 4.19839C2.0528 4.19839 2.0528 4.19839 2.0528 4.19839C2.05279 4.19839 2.05279 4.19839 2.05279 4.19839C2.05279 4.19839 2.05279 4.19839 2.05279 4.19839C2.05279 4.19839 2.05279 4.19839 2.05279 4.19839C2.05279 4.19839 2.05279 4.19839 2.05279 4.19839C2.05279 4.19839 2.05279 4.19839 2.05279 4.19839C2.05279 4.19839 2.05279 4.19839 2.05279 4.19839C2.05279 4.19839 2.05279 4.19839 2.05279 4.19839C2.05279 4.19839 2.05279 4.19839 2.05279 4.19839C2.05279 4.19839 2.05279 4.19839 2.05279 4.19839C2.05279 4.19839 2.05279 4.19839 2.05279 4.19839C2.05279 4.19839 2.05279 4.19839 2.05279 4.19839C2.05279 4.19839 2.05279 4.19839 2.05279 4.19839C2.05279 4.19839 2.05279 4.19839 2.05279 4.19839C2.05279 4.19839 2.05279 4.19839 2.05279 4.19839C2.05279 4.19839 2.05279 4.19839 2.05279 4.19839C2.05279 4.19839 2.05279 4.19839 2.05279 4.19839C2.05279 4.19839 2.05279 4.19839 2.05279 4.19839C2.05279 4.19839 2.05279 4.19839 2.05279 4.19839C2.05279 4.19839 2.05279 4.19839 2.05279 4.19839C2.05279 4.19839 2.05279 4.19839 2.05279 4.19839C2.05279 4.19839 2.05279 4.19839 2.05279 4.19839C2.05279 4.19839 2.05279 4.19839 2.05279 4.19839C2.05279 4.19839 2.05279 4.19839 2.05279 4.19839C2.05279 4.19839 2.05279 4.19839 2.05279 4.19839C2.05279 4.19839 2.05279 4.19839 2.05279 4.19839C2.05279 4.19839 2.05279 4.19839 2.05279 4.19839C2.05279 4.19839 2.05279 4.19839 2.05279 4.19839C2.05279 4.19839 2.05279 4.19839 2.05279 4.19839C2.05279 4.19839 2.05279 4.19839 2.05279 4.19839C2.05279 4.19839 2.05279 4.19839 2.05279 4.19839C2.05279 4.19839 2.05279 4.19839 2.05279 4.19839C2.05279 4.19839 2.05279 4.19839 2.05279 4.19839C2.05279 4.19839 2.05279 4.19839 2.05279 4.19839C2.05279 4.19838 2.05279 4.19838 2.05279 4.19838C2.05279 4.19838 2.05279 4.19838 2.05279 4.19838C2.05279 4.19838 2.05279 4.19838 2.05279 4.19838C2.05279 4.19838 2.05279 4.19838 2.05279 4.19838C2.05279 4.19838 2.05279 4.19838 2.05279 4.19838C2.05279 4.19838 2.05279 4.19838 2.05279 4.19838C2.05279 4.19838 2.05279 4.19838 2.05279 4.19838C2.05279 4.19838 2.05279 4.19838 2.05279 4.19838C2.05279 4.19838 2.05279 4.19838 2.05279 4.19838C2.05279 4.19838 2.05279 4.19838 2.05279 4.19838C2.05279 4.19838 2.05279 4.19838 2.05279 4.19838C2.05279 4.19838 2.05279 4.19838 2.05279 4.19838C2.05279 4.19838 2.05279 4.19838 2.05279 4.19838C2.05279 4.19838 2.05279 4.19838 2.05279 4.19838C2.05278 4.19838 2.05278 4.19838 2.05278 4.19838C2.05278 4.19838 2.05278 4.19838 2.05278 4.19838C2.05278 4.19838 2.05278 4.19838 2.05278 4.19838C2.05278 4.19838 2.05278 4.19838 2.05278 4.19838C2.05278 4.19838 2.05278 4.19838 2.05278 4.19838C2.05278 4.19838 2.05278 4.19838 2.05278 4.19838C2.05278 4.19838 2.05278 4.19838 2.05278 4.19838C2.05278 4.19838 2.05278 4.19838 2.05278 4.19838C2.05278 4.19838 2.05278 4.19838 2.05278 4.19838C2.05278 4.19838 2.05278 4.19838 2.05278 4.19838C2.05278 4.19838 2.05278 4.19838 2.05278 4.19838C2.05278 4.19838 2.05278 4.19838 2.05278 4.19838C2.05278 4.19838 2.05278 4.19838 2.05278 4.19838C2.05278 4.19838 2.05278 4.19838 2.05278 4.19838C2.05278 4.19838 2.05278 4.19838 2.05278 4.19838C2.05278 4.19838 2.05278 4.19838 2.05278 4.19838C2.05278 4.19838 2.05278 4.19838 2.05278 4.19838C2.05278 4.19838 2.05278 4.19838 2.05278 4.19838C2.05278 4.19838 2.05278 4.19838 2.05278 4.19838C2.05278 4.19838 2.05278 4.19838 2.05278 4.19838C2.05278 4.19838 2.05278 4.19838 2.05278 4.19838C2.05278 4.19838 2.05278 4.19838 2.05278 4.19838C2.05278 4.19838 2.05278 4.19838 2.05278 4.19838C2.05278 4.19838 2.05278 4.19838 2.05278 4.19838C2.05278 4.19838 2.05278 4.19838 2.05278 4.19838C2.05278 4.19838 2.05278 4.19838 2.05278 4.19838C2.05278 4.19838 2.05278 4.19838 2.05278 4.19838C2.05278 4.19838 2.05278 4.19838 2.05278 4.19838C2.05278 4.19838 2.05278 4.19838 2.05278 4.19838C2.05278 4.19838 2.05278 4.19838 2.05278 4.19838C2.05278 4.19838 2.05278 4.19838 2.05278 4.19838C2.05278 4.19838 2.05278 4.19838 2.05278 4.19838C2.05278 4.19838 2.05278 4.19838 2.05278 4.19838C2.05278 4.19838 2.05278 4.19838 2.05278 4.19838C2.05278 4.19838 2.05278 4.19838 2.05278 4.19838C2.05278 4.19838 2.05278 4.19838 2.05278 4.19838C2.05278 4.19838 2.05278 4.19838 2.05278 4.19838C2.05278 4.19838 2.05278 4.19838 2.05278 4.19838C2.05278 4.19838 2.05278 4.19838 2.05278 4.19838C2.05278 4.19838 2.05278 4.19838 2.05278 4.19838C2.05278 4.19838 2.05278 4.19838 2.05278 4.19837C2.05278 4.19837 2.05278 4.19837 2.05278 4.19837C2.05278 4.19837 2.05278 4.19837 2.05278 4.19837C2.05278 4.19837 2.05278 4.19837 2.05278 4.19837C2.05278 4.19837 2.05278 4.19837 2.05278 4.19837C2.05278 4.19837 2.05278 4.19837 2.05278 4.19837C2.05278 4.19837 2.05278 4.19837 2.05278 4.19837C2.05278 4.19837 2.05278 4.19837 2.05278 4.19837C2.05278 4.19837 2.05278 4.19837 2.05278 4.19837C2.05278 4.19837 2.05278 4.19837 2.05278 4.19837C2.05278 4.19837 2.05278 4.19837 2.05278 4.19837C2.05278 4.19837 2.05278 4.19837 2.05278 4.19837C2.05278 4.19837 2.05278 4.19837 2.05278 4.19837C2.05278 4.19837 2.05278 4.19837 2.05278 4.19837C2.05278 4.19837 2.05278 4.19837 2.05278 4.19837C2.05278 4.19837 2.05278 4.19837 2.05278 4.19837C2.05278 4.19837 2.05278 4.19837 2.05278 4.19837C2.05278 4.19837 2.05278 4.19837 2.05277 4.19837C2.05277 4.19837 2.05277 4.19837 2.05277 4.19837C2.05277 4.19837 2.05277 4.19837 2.05277 4.19837C2.05277 4.19837 2.05277 4.19837 2.05277 4.19837C2.05277 4.19837 2.05277 4.19837 2.05277 4.19837C2.05277 4.19837 2.05277 4.19837 2.05277 4.19837C2.05277 4.19837 2.05277 4.19837 2.05277 4.19837C2.05277 4.19837 2.05277 4.19837 2.05277 4.19837C2.05277 4.19837 2.05277 4.19837 2.05277 4.19837C2.05277 4.19837 2.05277 4.19837 2.05277 4.19837C2.05277 4.19837 2.05277 4.19837 2.05277 4.19837C2.05277 4.19837 2.05277 4.19837 2.05277 4.19837C2.05277 4.19837 2.05277 4.19837 2.05277 4.19837C2.05277 4.19837 2.05277 4.19837 2.05277 4.19837C2.05277 4.19837 2.05277 4.19837 2.05277 4.19837C2.05277 4.19837 2.05277 4.19837 2.05277 4.19837C2.05277 4.19837 2.05277 4.19837 2.05277 4.19837C2.05277 4.19837 2.05277 4.19837 2.05277 4.19837C2.05277 4.19837 2.05277 4.19837 2.05277 4.19837C2.05277 4.19837 2.05277 4.19837 2.05277 4.19837C2.05277 4.19837 2.05277 4.19837 2.05277 4.19837C2.05277 4.19837 2.05277 4.19837 2.05277 4.19837C2.05277 4.19837 2.05277 4.19837 2.05277 4.19837C2.05277 4.19837 2.05277 4.19837 2.05277 4.19837C2.05277 4.19837 2.05277 4.19837 2.05277 4.19837C2.05277 4.19837 2.05277 4.19837 2.05277 4.19837C2.05277 4.19837 2.05277 4.19837 2.05277 4.19837C2.05277 4.19837 2.05277 4.19837 2.05277 4.19837C2.05277 4.19837 2.05277 4.19837 2.05277 4.19837C2.05277 4.19837 2.05277 4.19837 2.05277 4.19837C2.05277 4.19837 2.05277 4.19837 2.05277 4.19837C2.05277 4.19837 2.05277 4.19837 2.05277 4.19837C2.05277 4.19837 2.05277 4.19837 2.05277 4.19837C2.05277 4.19837 2.05277 4.19837 2.05277 4.19837C2.05277 4.19837 2.05277 4.19837 2.05277 4.19837C2.05277 4.19837 2.05277 4.19837 2.05277 4.19837C2.05277 4.19837 2.05277 4.19837 2.05277 4.19837C2.05277 4.19837 2.05277 4.19837 2.05277 4.19837C2.05277 4.19837 2.05277 4.19837 2.05277 4.19837C2.05277 4.19837 2.05277 4.19837 2.05277 4.19837C2.05277 4.19837 2.05277 4.19837 2.05277 4.19837C2.05277 4.19837 2.05277 4.19837 2.05277 4.19837C2.05277 4.19837 2.05277 4.19837 2.05277 4.19837C2.05277 4.19837 2.05277 4.19837 2.05277 4.19837C2.05277 4.19837 2.05277 4.19837 2.05277 4.19837C2.05277 4.19837 2.05277 4.19837 2.05277 4.19837C2.05277 4.19837 2.05277 4.19837 2.05277 4.19837C2.05277 4.19837 2.05277 4.19837 2.05277 4.19837C2.05277 4.19837 2.05277 4.19837 2.05277 4.19837C2.05277 4.19837 2.05277 4.19837 2.05277 4.19837C2.05277 4.19837 2.05277 4.19837 2.05277 4.19837C2.05277 4.19837 2.05277 4.19837 2.05277 4.19837C2.05277 4.19837 2.05277 4.19837 2.05277 4.19837C2.05277 4.19837 2.05277 4.19836 2.05277 4.19836C2.05277 4.19836 2.05277 4.19836 2.05277 4.19836C2.05277 4.19836 2.05277 4.19836 2.05277 4.19836C2.05277 4.19836 2.05277 4.19836 2.05277 4.19836C2.05277 4.19836 2.05277 4.19836 2.05277 4.19836C2.05277 4.19836 2.05277 4.19836 2.05277 4.19836C2.05277 4.19836 2.05277 4.19836 2.05277 4.19836C2.05277 4.19836 2.05277 4.19836 2.05277 4.19836C2.05277 4.19836 2.05277 4.19836 2.05277 4.19836C2.05277 4.19836 2.05277 4.19836 2.05277 4.19836C2.05277 4.19836 2.05277 4.19836 2.05277 4.19836C2.05277 4.19836 2.05277 4.19836 2.05277 4.19836C2.05277 4.19836 2.05277 4.19836 2.05277 4.19836C2.05277 4.19836 2.05277 4.19836 2.05277 4.19836C2.05277 4.19836 2.05277 4.19836 2.05277 4.19836C2.05277 4.19836 2.05277 4.19836 2.05277 4.19836C2.05277 4.19836 2.05277 4.19836 2.05277 4.19836C2.05277 4.19836 2.05277 4.19836 2.05277 4.19836C2.05277 4.19836 2.05277 4.19836 2.05277 4.19836C2.05277 4.19836 2.05277 4.19836 2.05277 4.19836C2.05277 4.19836 2.05277 4.19836 2.05277 4.19836C2.05277 4.19836 2.05277 4.19836 2.05277 4.19836C2.05277 4.19836 2.05277 4.19836 2.05276 4.19836C2.05276 4.19836 2.05276 4.19836 2.05276 4.19836C2.05276 4.19836 2.05276 4.19836 2.05276 4.19836C2.05276 4.19836 2.05276 4.19836 2.05276 4.19836C2.05276 4.19836 2.05276 4.19836 2.05276 4.19836C2.05276 4.19836 2.05276 4.19836 2.05276 4.19836C2.05276 4.19836 2.05276 4.19836 2.05276 4.19836C2.05276 4.19836 2.05276 4.19836 2.05276 4.19836C2.05276 4.19836 2.05276 4.19836 2.05276 4.19836C2.05276 4.19836 2.05276 4.19836 2.05276 4.19836C2.05276 4.19836 2.05276 4.19836 2.05276 4.19836C2.05276 4.19836 2.05276 4.19836 2.05276 4.19836C2.05276 4.19836 2.05276 4.19836 2.05276 4.19836C2.05276 4.19836 2.05276 4.19836 2.05276 4.19836C2.05276 4.19836 2.05276 4.19836 2.05276 4.19836C2.05276 4.19836 2.05276 4.19836 2.05276 4.19836C2.05276 4.19836 2.05276 4.19836 2.05276 4.19836C2.05276 4.19836 2.05276 4.19836 2.05276 4.19836C2.05276 4.19836 2.05276 4.19836 2.05276 4.19836C2.05276 4.19836 2.05276 4.19836 2.05276 4.19836C2.05276 4.19836 2.05276 4.19836 2.05276 4.19836C2.05276 4.19836 2.05276 4.19836 2.05276 4.19836C2.05276 4.19836 2.05276 4.19836 2.05276 4.19836C2.05276 4.19836 2.05276 4.19836 2.05276 4.19836C2.05276 4.19836 2.05276 4.19836 2.05276 4.19836C2.05276 4.19836 2.05276 4.19836 2.05276 4.19836C2.05276 4.19836 2.05276 4.19836 2.05276 4.19836C2.05276 4.19836 2.05276 4.19836 2.05276 4.19836C2.05276 4.19836 2.05276 4.19836 2.05276 4.19836C2.05276 4.19836 2.05276 4.19836 2.05276 4.19836C2.05276 4.19836 2.05276 4.19836 2.05276 4.19836C2.05276 4.19836 2.05276 4.19836 2.05276 4.19836C2.05276 4.19836 2.05276 4.19836 2.05276 4.19836C2.05276 4.19836 2.05276 4.19836 2.05276 4.19836C2.05276 4.19836 2.05276 4.19836 2.05276 4.19836C2.05276 4.19836 2.05276 4.19836 2.05276 4.19836C2.05276 4.19836 2.05276 4.19836 2.05276 4.19836C2.05276 4.19836 2.05276 4.19836 2.05276 4.19836C2.05276 4.19836 2.05276 4.19836 2.05276 4.19836C2.05276 4.19836 2.05276 4.19836 2.05276 4.19836C2.05276 4.19836 2.05276 4.19836 2.05276 4.19836C2.05276 4.19836 2.05276 4.19836 2.05276 4.19836C2.05276 4.19836 2.05276 4.19836 2.05276 4.19836C2.05276 4.19836 2.05276 4.19836 2.05276 4.19836C2.05276 4.19836 2.05276 4.19836 2.05276 4.19836C2.05276 4.19836 2.05276 4.19836 2.05276 4.19836C2.05276 4.19836 2.05276 4.19836 2.05276 4.19836C2.05276 4.19836 2.05276 4.19836 2.05276 4.19836C2.05276 4.19836 2.05276 4.19836 2.05276 4.19836C2.05276 4.19836 2.05276 4.19836 2.05276 4.19836C2.05276 4.19836 2.05276 4.19836 2.05276 4.19836C2.05276 4.19836 2.05276 4.19836 2.05276 4.19836C2.05276 4.19836 2.05276 4.19836 2.05276 4.19836C2.05276 4.19836 2.05276 4.19836 2.05276 4.19836C2.05276 4.19836 2.05276 4.19836 2.05276 4.19836C2.05276 4.19836 2.05276 4.19836 2.05276 4.19836C2.05276 4.19836 2.05276 4.19836 2.05276 4.19836C2.05276 4.19836 2.05276 4.19836 2.05276 4.19836C2.05276 4.19836 2.05276 4.19836 2.05276 4.19836C2.05276 4.19836 2.05276 4.19836 2.05276 4.19836C2.05276 4.19836 2.05276 4.19836 2.05276 4.19836C2.05276 4.19836 2.05276 4.19836 2.05276 4.19836C2.05276 4.19836 2.05276 4.19836 2.05276 4.19836C2.05276 4.19836 2.05276 4.19836 2.05276 4.19836C2.05276 4.19836 2.05276 4.19836 2.05276 4.19836C2.05276 4.19836 2.05276 4.19836 2.05276 4.19836C2.05276 4.19836 2.05276 4.19836 2.05276 4.19836C2.05276 4.19836 2.05276 4.19836 2.05276 4.19835C2.05276 4.19835 2.05276 4.19835 2.05276 4.19835C2.05276 4.19835 2.05276 4.19835 2.05276 4.19835C2.05276 4.19835 2.05276 4.19835 2.05276 4.19835C2.05276 4.19835 2.05276 4.19835 2.05276 4.19835C2.05276 4.19835 2.05276 4.19835 2.05276 4.19835C2.05276 4.19835 2.05276 4.19835 2.05276 4.19835C2.05276 4.19835 2.05276 4.19835 2.05276 4.19835C2.05276 4.19835 2.05276 4.19835 2.05276 4.19835C2.05276 4.19835 2.05276 4.19835 2.05276 4.19835C2.05276 4.19835 2.05276 4.19835 2.05276 4.19835C2.05276 4.19835 2.05276 4.19835 2.05276 4.19835C2.05276 4.19835 2.05276 4.19835 2.05276 4.19835C2.05276 4.19835 2.05276 4.19835 2.05276 4.19835C2.05276 4.19835 2.05276 4.19835 2.05276 4.19835C2.05276 4.19835 2.05276 4.19835 2.05276 4.19835C2.05276 4.19835 2.05276 4.19835 2.05276 4.19835C2.05276 4.19835 2.05276 4.19835 2.05276 4.19835C2.05276 4.19835 2.05276 4.19835 2.05276 4.19835C2.05276 4.19835 2.05276 4.19835 2.05276 4.19835C2.05276 4.19835 2.05276 4.19835 2.05276 4.19835C2.05276 4.19835 2.05276 4.19835 2.05276 4.19835C2.05276 4.19835 2.05276 4.19835 2.05276 4.19835C2.05276 4.19835 2.05276 4.19835 2.05276 4.19835C2.05276 4.19835 2.05276 4.19835 2.05276 4.19835C2.05276 4.19835 2.05276 4.19835 2.05276 4.19835C2.05276 4.19835 2.05276 4.19835 2.05276 4.19835C2.05276 4.19835 2.05276 4.19835 2.05275 4.19835C2.05275 4.19835 2.05275 4.19835 2.05275 4.19835C2.05275 4.19835 2.05275 4.19835 2.05275 4.19835C2.05275 4.19835 2.05275 4.19835 2.05275 4.19835C2.05275 4.19835 2.05275 4.19835 2.05275 4.19835C2.05275 4.19835 2.05275 4.19835 2.05275 4.19835C2.05275 4.19835 2.05275 4.19835 2.05275 4.19835C2.05275 4.19835 2.05275 4.19835 2.05275 4.19835C2.05275 4.19835 2.05275 4.19835 2.05275 4.19835C2.05275 4.19835 2.05275 4.19835 2.05275 4.19835C2.05275 4.19835 2.05275 4.19835 2.05275 4.19835C2.05275 4.19835 2.05275 4.19835 2.05275 4.19835C2.05275 4.19835 2.05275 4.19835 2.05275 4.19835C2.05275 4.19835 2.05275 4.19835 2.05275 4.19835C2.05275 4.19835 2.05275 4.19835 2.05275 4.19835C2.05275 4.19835 2.05275 4.19835 2.05275 4.19835C2.05275 4.19835 2.05275 4.19835 2.05275 4.19835C2.05275 4.19835 2.05275 4.19835 2.05275 4.19835C2.05275 4.19835 2.05275 4.19835 2.05275 4.19835C2.05275 4.19835 2.05275 4.19835 2.05275 4.19835C2.05275 4.19835 2.05275 4.19835 2.05275 4.19835C2.05275 4.19835 2.05275 4.19835 2.05275 4.19835C2.05275 4.19835 2.05275 4.19835 2.05275 4.19835C2.05275 4.19835 2.05275 4.19835 2.05275 4.19835C2.05275 4.19835 2.05275 4.19835 2.05275 4.19835C2.05275 4.19835 2.05275 4.19835 2.05275 4.19835C2.05275 4.19835 2.05275 4.19835 2.05275 4.19835C2.05275 4.19835 2.05275 4.19835 2.05275 4.19835C2.05275 4.19835 2.05275 4.19835 2.05275 4.19835C2.05275 4.19835 2.05275 4.19835 2.05275 4.19835C2.05275 4.19835 2.05275 4.19835 2.05275 4.19835C2.05275 4.19835 2.05275 4.19835 2.05275 4.19835C2.05275 4.19835 2.05275 4.19835 2.05275 4.19835C2.05275 4.19835 2.05275 4.19835 2.05275 4.19835C2.05275 4.19835 2.05275 4.19835 2.05275 4.19835C2.05275 4.19835 2.05275 4.19835 2.05275 4.19835C2.05275 4.19835 2.05275 4.19835 2.05275 4.19835C2.05275 4.19835 2.05275 4.19835 2.05275 4.19835C2.05275 4.19835 2.05275 4.19835 2.05275 4.19835C2.05275 4.19835 2.05275 4.19835 2.05275 4.19835C2.05275 4.19835 2.05275 4.19835 2.05275 4.19835C2.05275 4.19835 2.05275 4.19835 2.05275 4.19835C2.05275 4.19835 2.05275 4.19835 2.05275 4.19835C2.05275 4.19835 2.05275 4.19835 2.05275 4.19835C2.05275 4.19835 2.05275 4.19835 2.05275 4.19835C2.05275 4.19835 2.05275 4.19835 2.05275 4.19835C2.05275 4.19835 2.05275 4.19835 2.05275 4.19835C2.05275 4.19835 2.05275 4.19835 2.05275 4.19835C2.05275 4.19835 2.05275 4.19835 2.05275 4.19835C2.05275 4.19835 2.05275 4.19835 2.05275 4.19835C2.05275 4.19835 2.05275 4.19835 2.05275 4.19835C2.05275 4.19835 2.05275 4.19835 2.05275 4.19835C2.05275 4.19835 2.05275 4.19835 2.05275 4.19835C2.05275 4.19835 2.05275 4.19835 2.05275 4.19835C2.05275 4.19835 2.05275 4.19835 2.05275 4.19835C2.05275 4.19835 2.05275 4.19835 2.05275 4.19835C2.05275 4.19835 2.05275 4.19835 2.05275 4.19835C2.05275 4.19835 2.05275 4.19835 2.05275 4.19835C2.05275 4.19835 2.05275 4.19835 2.05275 4.19835C2.05275 4.19835 2.05275 4.19835 2.05275 4.19835C2.05275 4.19835 2.05275 4.19835 2.05275 4.19835C2.05275 4.19835 2.05275 4.19835 2.05275 4.19835C2.05275 4.19835 2.05275 4.19835 2.05275 4.19835C2.05275 4.19835 2.05275 4.19835 2.05275 4.19835C2.05275 4.19835 2.05275 4.19835 2.05275 4.19835C2.05275 4.19835 2.05275 4.19835 2.05275 4.19835C2.05275 4.19835 2.05275 4.19835 2.05275 4.19835C2.05275 4.19835 2.05275 4.19835 2.05275 4.19835C2.05275 4.19835 2.05275 4.19835 2.05275 4.19835C2.05275 4.19835 2.05275 4.19835 2.05275 4.19835C2.05275 4.19835 2.05275 4.19835 2.05275 4.19835C2.05275 4.19835 2.05275 4.19835 2.05275 4.19835C2.05275 4.19835 2.05275 4.19835 2.05275 4.19834C2.05275 4.19834 2.05275 4.19834 2.05275 4.19834C2.05275 4.19834 2.05275 4.19834 2.05275 4.19834C2.05275 4.19834 2.05275 4.19834 2.05275 4.19834C2.05275 4.19834 2.05275 4.19834 2.05275 4.19834C2.05275 4.19834 2.05275 4.19834 2.05275 4.19834C2.05275 4.19834 2.05275 4.19834 2.05275 4.19834C2.05275 4.19834 2.05275 4.19834 2.05275 4.19834C2.05275 4.19834 2.05275 4.19834 2.05275 4.19834C2.05275 4.19834 2.05275 4.19834 2.05275 4.19834C2.05275 4.19834 2.05275 4.19834 2.05275 4.19834C2.05275 4.19834 2.05275 4.19834 2.05275 4.19834C2.05275 4.19834 2.05275 4.19834 2.05275 4.19834C2.05275 4.19834 2.05275 4.19834 2.05275 4.19834C2.05275 4.19834 2.05275 4.19834 2.05275 4.19834C2.05275 4.19834 2.05275 4.19834 2.05275 4.19834C2.05275 4.19834 2.05275 4.19834 2.05275 4.19834C2.05275 4.19834 2.05275 4.19834 2.05275 4.19834C2.05275 4.19834 2.05275 4.19834 2.05275 4.19834C2.05275 4.19834 2.05275 4.19834 2.05275 4.19834C2.05275 4.19834 2.05275 4.19834 2.05275 4.19834C2.05275 4.19834 2.05275 4.19834 2.05275 4.19834C2.05275 4.19834 2.05275 4.19834 2.05275 4.19834C2.05275 4.19834 2.05275 4.19834 2.05275 4.19834C2.05275 4.19834 2.05275 4.19834 2.05275 4.19834C2.05275 4.19834 2.05275 4.19834 2.05274 4.19834C2.05274 4.19834 2.05274 4.19834 2.05274 4.19834C2.05274 4.19834 2.05274 4.19834 2.05274 4.19834C2.05274 4.19834 2.05274 4.19834 2.05274 4.19834C2.05274 4.19834 2.05274 4.19834 2.05274 4.19834C2.05274 4.19834 2.05274 4.19834 2.05274 4.19834C2.05274 4.19834 2.05274 4.19834 2.05274 4.19834C2.05274 4.19834 2.05274 4.19834 2.05274 4.19834C2.05274 4.19834 2.05274 4.19834 2.05274 4.19834C2.05274 4.19834 2.05274 4.19834 2.05274 4.19834C2.05274 4.19834 2.05274 4.19834 2.05274 4.19834C2.05274 4.19834 2.05274 4.19834 2.05274 4.19834C2.05274 4.19834 2.05274 4.19834 2.05274 4.19834C2.05274 4.19834 2.05274 4.19834 2.05274 4.19834C2.05274 4.19834 2.05274 4.19834 2.05274 4.19834C2.05274 4.19834 2.05274 4.19834 2.05274 4.19834C2.05274 4.19834 2.05274 4.19834 2.05274 4.19834C2.05274 4.19834 2.05274 4.19834 2.05274 4.19834C2.05274 4.19834 2.05274 4.19834 2.05274 4.19834C2.05274 4.19834 2.05274 4.19834 2.05274 4.19834C2.05274 4.19834 2.05274 4.19834 2.05274 4.19834C2.05274 4.19834 2.05274 4.19834 2.05274 4.19834C2.05274 4.19834 2.05274 4.19834 2.05274 4.19834C2.05274 4.19834 2.05274 4.19834 2.05274 4.19834C2.05274 4.19834 2.05274 4.19834 2.05274 4.19834C2.05274 4.19834 2.05274 4.19834 2.05274 4.19834C2.05274 4.19834 2.05274 4.19834 2.05274 4.19834C2.05274 4.19834 2.05274 4.19834 2.05274 4.19834C2.05274 4.19834 2.05274 4.19834 2.05274 4.19834C2.05274 4.19834 2.05274 4.19834 2.05274 4.19834C2.05274 4.19834 2.05274 4.19834 2.05274 4.19834C2.05274 4.19834 2.05274 4.19834 2.05274 4.19834C2.05274 4.19834 2.05274 4.19834 2.05274 4.19834C2.05274 4.19834 2.05274 4.19834 2.05274 4.19834C2.05274 4.19834 2.05274 4.19834 2.05274 4.19834C2.05274 4.19834 2.05274 4.19834 2.05274 4.19834C2.05274 4.19834 2.05274 4.19834 2.05274 4.19834C2.05274 4.19834 2.05274 4.19834 2.05274 4.19834C2.05274 4.19834 2.05274 4.19834 2.05274 4.19834C2.05274 4.19834 2.05274 4.19834 2.05274 4.19834C2.05274 4.19834 2.05274 4.19834 2.05274 4.19834C2.05274 4.19834 2.05274 4.19834 2.05274 4.19834C2.05274 4.19834 2.05274 4.19834 2.05274 4.19834C2.05274 4.19834 2.05274 4.19834 2.05274 4.19834C2.05274 4.19834 2.05274 4.19834 2.05274 4.19834C2.05274 4.19834 2.05274 4.19834 2.05274 4.19834C2.05274 4.19834 2.05274 4.19834 2.05274 4.19834C2.05274 4.19834 2.05274 4.19834 2.05274 4.19834C2.05274 4.19834 2.05274 4.19834 2.05274 4.19834C2.05274 4.19834 2.05274 4.19834 2.05274 4.19834C2.05274 4.19834 2.05274 4.19834 2.05274 4.19834C2.05274 4.19834 2.05274 4.19834 2.05274 4.19834C2.05274 4.19834 2.05274 4.19834 2.05274 4.19834C2.05274 4.19834 2.05274 4.19834 2.05274 4.19834C2.05274 4.19834 2.05274 4.19834 2.05274 4.19834C2.05274 4.19834 2.05274 4.19834 2.05274 4.19834C2.05274 4.19834 2.05274 4.19834 2.05274 4.19834C2.05274 4.19834 2.05274 4.19834 2.05274 4.19834C2.05274 4.19834 2.05274 4.19834 2.05274 4.19834C2.05274 4.19834 2.05274 4.19833 2.05274 4.19833C2.05274 4.19833 2.05274 4.19833 2.05274 4.19833C2.05274 4.19833 2.05274 4.19833 2.05274 4.19833C2.05274 4.19833 2.05274 4.19833 2.05274 4.19833C2.05274 4.19833 2.05274 4.19833 2.05274 4.19833C2.05274 4.19833 2.05274 4.19833 2.05274 4.19833C2.05274 4.19833 2.05274 4.19833 2.05274 4.19833C2.05274 4.19833 2.05274 4.19833 2.05274 4.19833C2.05274 4.19833 2.05274 4.19833 2.05274 4.19833C2.05274 4.19833 2.05274 4.19833 2.05274 4.19833C2.05274 4.19833 2.05274 4.19833 2.05274 4.19833C2.05274 4.19833 2.05274 4.19833 2.05274 4.19833C2.05274 4.19833 2.05274 4.19833 2.05274 4.19833C2.05274 4.19833 2.05274 4.19833 2.05274 4.19833C2.05274 4.19833 2.05274 4.19833 2.05274 4.19833C2.05274 4.19833 2.05274 4.19833 2.05274 4.19833C2.05274 4.19833 2.05274 4.19833 2.05274 4.19833C2.05274 4.19833 2.05274 4.19833 2.05274 4.19833C2.05274 4.19833 2.05274 4.19833 2.05274 4.19833C2.05274 4.19833 2.05274 4.19833 2.05273 4.19833C2.05273 4.19833 2.05273 4.19833 2.05273 4.19833C2.05273 4.19833 2.05273 4.19833 2.05273 4.19833C2.05273 4.19833 2.05273 4.19833 2.05273 4.19833C2.05273 4.19833 2.05273 4.19833 2.05273 4.19833L0.638521 5.61255C0.638521 5.61255 0.638521 5.61255 0.638521 5.61255C0.638521 5.61255 0.638521 5.61255 0.638521 5.61255C0.638521 5.61255 0.638521 5.61255 0.638521 5.61255C0.638521 5.61255 0.638521 5.61255 0.638521 5.61255C0.638522 5.61255 0.638522 5.61255 0.638522 5.61255C0.638522 5.61255 0.638522 5.61255 0.638522 5.61255C0.638522 5.61255 0.638522 5.61255 0.638522 5.61255C0.638522 5.61255 0.638522 5.61255 0.638522 5.61255C0.638522 5.61255 0.638522 5.61255 0.638522 5.61255C0.638522 5.61255 0.638522 5.61255 0.638522 5.61255C0.638522 5.61255 0.638522 5.61255 0.638523 5.61255C0.638523 5.61255 0.638523 5.61255 0.638523 5.61255C0.638523 5.61255 0.638523 5.61255 0.638523 5.61255C0.638523 5.61255 0.638523 5.61255 0.638523 5.61255C0.638523 5.61255 0.638523 5.61255 0.638523 5.61255C0.638523 5.61255 0.638523 5.61255 0.638523 5.61255C0.638523 5.61255 0.638523 5.61255 0.638523 5.61255C0.638523 5.61255 0.638523 5.61255 0.638524 5.61255C0.638524 5.61255 0.638524 5.61255 0.638524 5.61255C0.638524 5.61255 0.638524 5.61255 0.638524 5.61255C0.638524 5.61255 0.638524 5.61255 0.638524 5.61255C0.638524 5.61255 0.638524 5.61255 0.638524 5.61255C0.638524 5.61255 0.638524 5.61255 0.638524 5.61255C0.638524 5.61255 0.638524 5.61255 0.638524 5.61255C0.638524 5.61255 0.638524 5.61255 0.638524 5.61255C0.638525 5.61255 0.638525 5.61255 0.638525 5.61255C0.638525 5.61255 0.638525 5.61255 0.638525 5.61255C0.638525 5.61255 0.638525 5.61255 0.638525 5.61255C0.638525 5.61255 0.638525 5.61255 0.638525 5.61255C0.638525 5.61255 0.638525 5.61255 0.638525 5.61255C0.638525 5.61255 0.638525 5.61255 0.638525 5.61255C0.638525 5.61255 0.638525 5.61255 0.638525 5.61255C0.638525 5.61255 0.638526 5.61255 0.638526 5.61255C0.638526 5.61255 0.638526 5.61255 0.638526 5.61255C0.638526 5.61255 0.638526 5.61255 0.638526 5.61255C0.638526 5.61255 0.638526 5.61255 0.638526 5.61255C0.638526 5.61255 0.638526 5.61255 0.638526 5.61255C0.638526 5.61255 0.638526 5.61255 0.638526 5.61255C0.638526 5.61255 0.638526 5.61255 0.638526 5.61255C0.638526 5.61255 0.638526 5.61255 0.638526 5.61255C0.638526 5.61255 0.638527 5.61255 0.638527 5.61255C0.638527 5.61255 0.638527 5.61255 0.638527 5.61255C0.638527 5.61255 0.638527 5.61255 0.638527 5.61255C0.638527 5.61255 0.638527 5.61255 0.638527 5.61255C0.638527 5.61255 0.638527 5.61255 0.638527 5.61255C0.638527 5.61255 0.638527 5.61255 0.638527 5.61255C0.638527 5.61255 0.638527 5.61255 0.638527 5.61255C0.638527 5.61255 0.638527 5.61255 0.638527 5.61255C0.638528 5.61255 0.638528 5.61255 0.638528 5.61255C0.638528 5.61255 0.638528 5.61255 0.638528 5.61255C0.638528 5.61255 0.638528 5.61255 0.638528 5.61255C0.638528 5.61255 0.638528 5.61255 0.638528 5.61255C0.638528 5.61255 0.638528 5.61255 0.638528 5.61255C0.638528 5.61255 0.638528 5.61255 0.638528 5.61255C0.638528 5.61255 0.638528 5.61255 0.638528 5.61255C0.638528 5.61255 0.638528 5.61255 0.638528 5.61255C0.638528 5.61255 0.638529 5.61255 0.638529 5.61255C0.638529 5.61255 0.638529 5.61255 0.638529 5.61255C0.638529 5.61255 0.638529 5.61255 0.638529 5.61255C0.638529 5.61255 0.638529 5.61255 0.638529 5.61255C0.638529 5.61255 0.638529 5.61255 0.638529 5.61255C0.638529 5.61255 0.638529 5.61255 0.638529 5.61255C0.638529 5.61255 0.638529 5.61255 0.638529 5.61255C0.638529 5.61255 0.638529 5.61255 0.638529 5.61255C0.638529 5.61255 0.63853 5.61255 0.63853 5.61255C0.63853 5.61255 0.63853 5.61255 0.63853 5.61255C0.63853 5.61255 0.63853 5.61255 0.63853 5.61255C0.63853 5.61255 0.63853 5.61255 0.63853 5.61255C0.63853 5.61255 0.63853 5.61255 0.63853 5.61255C0.63853 5.61255 0.63853 5.61255 0.63853 5.61255C0.63853 5.61255 0.63853 5.61255 0.63853 5.61255C0.63853 5.61255 0.63853 5.61255 0.63853 5.61255C0.63853 5.61255 0.63853 5.61255 0.63853 5.61255C0.638531 5.61255 0.638531 5.61255 0.638531 5.61255C0.638531 5.61255 0.638531 5.61255 0.638531 5.61255C0.638531 5.61255 0.638531 5.61255 0.638531 5.61255C0.638531 5.61256 0.638531 5.61256 0.638531 5.61256C0.638531 5.61256 0.638531 5.61256 0.638531 5.61256C0.638531 5.61256 0.638531 5.61256 0.638531 5.61256C0.638531 5.61256 0.638531 5.61256 0.638531 5.61256C0.638531 5.61256 0.638531 5.61256 0.638531 5.61256C0.638531 5.61256 0.638531 5.61256 0.638532 5.61256C0.638532 5.61256 0.638532 5.61256 0.638532 5.61256C0.638532 5.61256 0.638532 5.61256 0.638532 5.61256C0.638532 5.61256 0.638532 5.61256 0.638532 5.61256C0.638532 5.61256 0.638532 5.61256 0.638532 5.61256C0.638532 5.61256 0.638532 5.61256 0.638532 5.61256C0.638532 5.61256 0.638532 5.61256 0.638532 5.61256C0.638532 5.61256 0.638532 5.61256 0.638532 5.61256C0.638532 5.61256 0.638532 5.61256 0.638532 5.61256C0.638532 5.61256 0.638532 5.61256 0.638532 5.61256C0.638533 5.61256 0.638533 5.61256 0.638533 5.61256C0.638533 5.61256 0.638533 5.61256 0.638533 5.61256C0.638533 5.61256 0.638533 5.61256 0.638533 5.61256C0.638533 5.61256 0.638533 5.61256 0.638533 5.61256C0.638533 5.61256 0.638533 5.61256 0.638533 5.61256C0.638533 5.61256 0.638533 5.61256 0.638533 5.61256C0.638533 5.61256 0.638533 5.61256 0.638533 5.61256C0.638533 5.61256 0.638533 5.61256 0.638533 5.61256C0.638533 5.61256 0.638533 5.61256 0.638533 5.61256C0.638534 5.61256 0.638534 5.61256 0.638534 5.61256C0.638534 5.61256 0.638534 5.61256 0.638534 5.61256C0.638534 5.61256 0.638534 5.61256 0.638534 5.61256C0.638534 5.61256 0.638534 5.61256 0.638534 5.61256C0.638534 5.61256 0.638534 5.61256 0.638534 5.61256C0.638534 5.61256 0.638534 5.61256 0.638534 5.61256C0.638534 5.61256 0.638534 5.61256 0.638534 5.61256C0.638534 5.61256 0.638534 5.61256 0.638534 5.61256C0.638534 5.61256 0.638534 5.61256 0.638534 5.61256C0.638534 5.61256 0.638535 5.61256 0.638535 5.61256C0.638535 5.61256 0.638535 5.61256 0.638535 5.61256C0.638535 5.61256 0.638535 5.61256 0.638535 5.61256C0.638535 5.61256 0.638535 5.61256 0.638535 5.61256C0.638535 5.61256 0.638535 5.61256 0.638535 5.61256C0.638535 5.61256 0.638535 5.61256 0.638535 5.61256C0.638535 5.61256 0.638535 5.61256 0.638535 5.61256C0.638535 5.61256 0.638535 5.61256 0.638535 5.61256C0.638535 5.61256 0.638535 5.61256 0.638535 5.61256C0.638535 5.61256 0.638535 5.61256 0.638536 5.61256C0.638536 5.61256 0.638536 5.61256 0.638536 5.61256C0.638536 5.61256 0.638536 5.61256 0.638536 5.61256C0.638536 5.61256 0.638536 5.61256 0.638536 5.61256C0.638536 5.61256 0.638536 5.61256 0.638536 5.61256C0.638536 5.61256 0.638536 5.61256 0.638536 5.61256C0.638536 5.61256 0.638536 5.61256 0.638536 5.61256C0.638536 5.61256 0.638536 5.61256 0.638536 5.61256C0.638536 5.61256 0.638536 5.61256 0.638536 5.61256C0.638536 5.61256 0.638536 5.61256 0.638536 5.61256C0.638536 5.61256 0.638537 5.61256 0.638537 5.61256C0.638537 5.61256 0.638537 5.61256 0.638537 5.61256C0.638537 5.61256 0.638537 5.61256 0.638537 5.61256C0.638537 5.61256 0.638537 5.61256 0.638537 5.61256C0.638537 5.61256 0.638537 5.61256 0.638537 5.61256C0.638537 5.61256 0.638537 5.61256 0.638537 5.61256C0.638537 5.61256 0.638537 5.61256 0.638537 5.61256C0.638537 5.61256 0.638537 5.61256 0.638537 5.61256C0.638537 5.61256 0.638537 5.61256 0.638537 5.61256C0.638537 5.61256 0.638537 5.61256 0.638537 5.61256C0.638537 5.61256 0.638538 5.61256 0.638538 5.61256C0.638538 5.61256 0.638538 5.61256 0.638538 5.61256C0.638538 5.61256 0.638538 5.61256 0.638538 5.61256C0.638538 5.61256 0.638538 5.61256 0.638538 5.61256C0.638538 5.61256 0.638538 5.61256 0.638538 5.61256C0.638538 5.61256 0.638538 5.61256 0.638538 5.61256C0.638538 5.61256 0.638538 5.61256 0.638538 5.61256C0.638538 5.61256 0.638538 5.61256 0.638538 5.61256C0.638538 5.61256 0.638538 5.61256 0.638538 5.61256C0.638538 5.61256 0.638538 5.61256 0.638538 5.61256C0.638538 5.61256 0.638539 5.61256 0.638539 5.61256C0.638539 5.61256 0.638539 5.61256 0.638539 5.61256C0.638539 5.61256 0.638539 5.61256 0.638539 5.61256C0.638539 5.61256 0.638539 5.61256 0.638539 5.61256C0.638539 5.61256 0.638539 5.61256 0.638539 5.61256C0.638539 5.61256 0.638539 5.61256 0.638539 5.61256C0.638539 5.61256 0.638539 5.61256 0.638539 5.61256C0.638539 5.61256 0.638539 5.61256 0.638539 5.61256C0.638539 5.61256 0.638539 5.61256 0.638539 5.61256C0.638539 5.61256 0.638539 5.61256 0.638539 5.61256C0.638539 5.61256 0.63854 5.61256 0.63854 5.61256C0.63854 5.61256 0.63854 5.61256 0.63854 5.61256C0.63854 5.61256 0.63854 5.61256 0.63854 5.61256C0.63854 5.61256 0.63854 5.61256 0.63854 5.61256C0.63854 5.61256 0.63854 5.61256 0.63854 5.61256C0.63854 5.61256 0.63854 5.61256 0.63854 5.61256C0.63854 5.61256 0.63854 5.61256 0.63854 5.61256C0.63854 5.61256 0.63854 5.61256 0.63854 5.61256C0.63854 5.61256 0.63854 5.61256 0.63854 5.61256C0.63854 5.61256 0.63854 5.61256 0.63854 5.61256C0.63854 5.61256 0.638541 5.61256 0.638541 5.61256C0.638541 5.61256 0.638541 5.61256 0.638541 5.61256C0.638541 5.61256 0.638541 5.61256 0.638541 5.61256C0.638541 5.61256 0.638541 5.61257 0.638541 5.61257C0.638541 5.61257 0.638541 5.61257 0.638541 5.61257C0.638541 5.61257 0.638541 5.61257 0.638541 5.61257C0.638541 5.61257 0.638541 5.61257 0.638541 5.61257C0.638541 5.61257 0.638541 5.61257 0.638541 5.61257C0.638541 5.61257 0.638541 5.61257 0.638541 5.61257C0.638541 5.61257 0.638541 5.61257 0.638541 5.61257C0.638541 5.61257 0.638542 5.61257 0.638542 5.61257C0.638542 5.61257 0.638542 5.61257 0.638542 5.61257C0.638542 5.61257 0.638542 5.61257 0.638542 5.61257C0.638542 5.61257 0.638542 5.61257 0.638542 5.61257C0.638542 5.61257 0.638542 5.61257 0.638542 5.61257C0.638542 5.61257 0.638542 5.61257 0.638542 5.61257C0.638542 5.61257 0.638542 5.61257 0.638542 5.61257C0.638542 5.61257 0.638542 5.61257 0.638542 5.61257C0.638542 5.61257 0.638542 5.61257 0.638542 5.61257C0.638542 5.61257 0.638542 5.61257 0.638542 5.61257C0.638542 5.61257 0.638543 5.61257 0.638543 5.61257C0.638543 5.61257 0.638543 5.61257 0.638543 5.61257C0.638543 5.61257 0.638543 5.61257 0.638543 5.61257C0.638543 5.61257 0.638543 5.61257 0.638543 5.61257C0.638543 5.61257 0.638543 5.61257 0.638543 5.61257C0.638543 5.61257 0.638543 5.61257 0.638543 5.61257C0.638543 5.61257 0.638543 5.61257 0.638543 5.61257C0.638543 5.61257 0.638543 5.61257 0.638543 5.61257C0.638543 5.61257 0.638543 5.61257 0.638543 5.61257C0.638543 5.61257 0.638543 5.61257 0.638543 5.61257C0.638543 5.61257 0.638544 5.61257 0.638544 5.61257C0.638544 5.61257 0.638544 5.61257 0.638544 5.61257C0.638544 5.61257 0.638544 5.61257 0.638544 5.61257C0.638544 5.61257 0.638544 5.61257 0.638544 5.61257C0.638544 5.61257 0.638544 5.61257 0.638544 5.61257C0.638544 5.61257 0.638544 5.61257 0.638544 5.61257C0.638544 5.61257 0.638544 5.61257 0.638544 5.61257C0.638544 5.61257 0.638544 5.61257 0.638544 5.61257C0.638544 5.61257 0.638544 5.61257 0.638544 5.61257C0.638544 5.61257 0.638544 5.61257 0.638544 5.61257C0.638544 5.61257 0.638545 5.61257 0.638545 5.61257C0.638545 5.61257 0.638545 5.61257 0.638545 5.61257C0.638545 5.61257 0.638545 5.61257 0.638545 5.61257C0.638545 5.61257 0.638545 5.61257 0.638545 5.61257C0.638545 5.61257 0.638545 5.61257 0.638545 5.61257C0.638545 5.61257 0.638545 5.61257 0.638545 5.61257C0.638545 5.61257 0.638545 5.61257 0.638545 5.61257C0.638545 5.61257 0.638545 5.61257 0.638545 5.61257C0.638545 5.61257 0.638545 5.61257 0.638545 5.61257C0.638545 5.61257 0.638545 5.61257 0.638545 5.61257C0.638546 5.61257 0.638546 5.61257 0.638546 5.61257C0.638546 5.61257 0.638546 5.61257 0.638546 5.61257C0.638546 5.61257 0.638546 5.61257 0.638546 5.61257C0.638546 5.61257 0.638546 5.61257 0.638546 5.61257C0.638546 5.61257 0.638546 5.61257 0.638546 5.61257C0.638546 5.61257 0.638546 5.61257 0.638546 5.61257C0.638546 5.61257 0.638546 5.61257 0.638546 5.61257C0.638546 5.61257 0.638546 5.61257 0.638546 5.61257C0.638546 5.61257 0.638546 5.61257 0.638546 5.61257C0.638546 5.61257 0.638546 5.61257 0.638547 5.61257C0.638547 5.61257 0.638547 5.61257 0.638547 5.61257C0.638547 5.61257 0.638547 5.61257 0.638547 5.61257C0.638547 5.61257 0.638547 5.61257 0.638547 5.61257C0.638547 5.61257 0.638547 5.61257 0.638547 5.61257C0.638547 5.61257 0.638547 5.61257 0.638547 5.61257C0.638547 5.61257 0.638547 5.61257 0.638547 5.61257C0.638547 5.61257 0.638547 5.61257 0.638547 5.61257C0.638547 5.61257 0.638547 5.61257 0.638547 5.61257C0.638547 5.61257 0.638547 5.61257 0.638547 5.61257C0.638548 5.61257 0.638548 5.61257 0.638548 5.61257C0.638548 5.61257 0.638548 5.61257 0.638548 5.61257C0.638548 5.61257 0.638548 5.61257 0.638548 5.61257C0.638548 5.61257 0.638548 5.61257 0.638548 5.61257C0.638548 5.61257 0.638548 5.61257 0.638548 5.61257C0.638548 5.61257 0.638548 5.61257 0.638548 5.61257C0.638548 5.61257 0.638548 5.61257 0.638548 5.61257C0.638548 5.61257 0.638548 5.61257 0.638548 5.61257C0.638548 5.61257 0.638548 5.61257 0.638548 5.61257C0.638548 5.61257 0.638549 5.61257 0.638549 5.61257C0.638549 5.61257 0.638549 5.61257 0.638549 5.61257C0.638549 5.61257 0.638549 5.61257 0.638549 5.61257C0.638549 5.61257 0.638549 5.61257 0.638549 5.61257C0.638549 5.61257 0.638549 5.61257 0.638549 5.61257C0.638549 5.61257 0.638549 5.61257 0.638549 5.61257C0.638549 5.61257 0.638549 5.61257 0.638549 5.61257C0.638549 5.61257 0.638549 5.61257 0.638549 5.61257C0.638549 5.61257 0.638549 5.61257 0.638549 5.61257C0.638549 5.61257 0.63855 5.61257 0.63855 5.61257C0.63855 5.61257 0.63855 5.61257 0.63855 5.61257C0.63855 5.61257 0.63855 5.61257 0.63855 5.61257C0.63855 5.61257 0.63855 5.61257 0.63855 5.61257C0.63855 5.61257 0.63855 5.61257 0.63855 5.61257C0.63855 5.61257 0.63855 5.61257 0.63855 5.61257C0.63855 5.61257 0.63855 5.61257 0.63855 5.61257C0.63855 5.61257 0.63855 5.61257 0.63855 5.61257C0.63855 5.61257 0.63855 5.61257 0.63855 5.61257C0.63855 5.61257 0.638551 5.61257 0.638551 5.61257C0.638551 5.61257 0.638551 5.61257 0.638551 5.61257C0.638551 5.61257 0.638551 5.61257 0.638551 5.61257C0.638551 5.61258 0.638551 5.61258 0.638551 5.61258C0.638551 5.61258 0.638551 5.61258 0.638551 5.61258C0.638551 5.61258 0.638551 5.61258 0.638551 5.61258C0.638551 5.61258 0.638551 5.61258 0.638551 5.61258C0.638551 5.61258 0.638551 5.61258 0.638551 5.61258C0.638551 5.61258 0.638551 5.61258 0.638552 5.61258C0.638552 5.61258 0.638552 5.61258 0.638552 5.61258C0.638552 5.61258 0.638552 5.61258 0.638552 5.61258C0.638552 5.61258 0.638552 5.61258 0.638552 5.61258C0.638552 5.61258 0.638552 5.61258 0.638552 5.61258C0.638552 5.61258 0.638552 5.61258 0.638552 5.61258C0.638552 5.61258 0.638552 5.61258 0.638552 5.61258C0.638552 5.61258 0.638552 5.61258 0.638552 5.61258C0.638552 5.61258 0.638552 5.61258 0.638552 5.61258C0.638552 5.61258 0.638553 5.61258 0.638553 5.61258C0.638553 5.61258 0.638553 5.61258 0.638553 5.61258C0.638553 5.61258 0.638553 5.61258 0.638553 5.61258C0.638553 5.61258 0.638553 5.61258 0.638553 5.61258C0.638553 5.61258 0.638553 5.61258 0.638553 5.61258C0.638553 5.61258 0.638553 5.61258 0.638553 5.61258C0.638553 5.61258 0.638553 5.61258 0.638553 5.61258C0.638553 5.61258 0.638553 5.61258 0.638553 5.61258C0.638553 5.61258 0.638554 5.61258 0.638554 5.61258C0.638554 5.61258 0.638554 5.61258 0.638554 5.61258C0.638554 5.61258 0.638554 5.61258 0.638554 5.61258C0.638554 5.61258 0.638554 5.61258 0.638554 5.61258C0.638554 5.61258 0.638554 5.61258 0.638554 5.61258C0.638554 5.61258 0.638554 5.61258 0.638554 5.61258C0.638554 5.61258 0.638554 5.61258 0.638554 5.61258C0.638554 5.61258 0.638554 5.61258 0.638554 5.61258C0.638554 5.61258 0.638555 5.61258 0.638555 5.61258C0.638555 5.61258 0.638555 5.61258 0.638555 5.61258C0.638555 5.61258 0.638555 5.61258 0.638555 5.61258C0.638555 5.61258 0.638555 5.61258 0.638555 5.61258C0.638555 5.61258 0.638555 5.61258 0.638555 5.61258C0.638555 5.61258 0.638555 5.61258 0.638555 5.61258C0.638555 5.61258 0.638555 5.61258 0.638555 5.61258C0.638555 5.61258 0.638555 5.61258 0.638555 5.61258C0.638555 5.61258 0.638556 5.61258 0.638556 5.61258C0.638556 5.61258 0.638556 5.61258 0.638556 5.61258C0.638556 5.61258 0.638556 5.61258 0.638556 5.61258C0.638556 5.61258 0.638556 5.61258 0.638556 5.61258C0.638556 5.61258 0.638556 5.61258 0.638556 5.61258C0.638556 5.61258 0.638556 5.61258 0.638556 5.61258C0.638556 5.61258 0.638556 5.61258 0.638556 5.61258C0.638556 5.61258 0.638556 5.61258 0.638557 5.61258C0.638557 5.61258 0.638557 5.61258 0.638557 5.61258C0.638557 5.61258 0.638557 5.61258 0.638557 5.61258C0.638557 5.61258 0.638557 5.61258 0.638557 5.61258C0.638557 5.61258 0.638557 5.61258 0.638557 5.61258C0.638557 5.61258 0.638557 5.61258 0.638557 5.61258C0.638557 5.61258 0.638557 5.61258 0.638557 5.61258C0.638557 5.61258 0.638557 5.61258 0.638557 5.61258C0.638558 5.61258 0.638558 5.61258 0.638558 5.61258C0.638558 5.61258 0.638558 5.61258 0.638558 5.61258C0.638558 5.61258 0.638558 5.61258 0.638558 5.61258C0.638558 5.61258 0.638558 5.61258 0.638558 5.61258C0.638558 5.61258 0.638558 5.61258 0.638558 5.61258C0.638558 5.61258 0.638558 5.61258 0.638558 5.61258C0.638558 5.61258 0.638558 5.61258 0.638558 5.61258C0.638558 5.61258 0.638559 5.61258 0.638559 5.61258C0.638559 5.61258 0.638559 5.61258 0.638559 5.61258C0.638559 5.61258 0.638559 5.61258 0.638559 5.61258C0.638559 5.61258 0.638559 5.61258 0.638559 5.61258C0.638559 5.61258 0.638559 5.61258 0.638559 5.61258C0.638559 5.61258 0.638559 5.61258 0.638559 5.61258C0.638559 5.61258 0.638559 5.61258 0.638559 5.61258C0.638559 5.61258 0.63856 5.61258 0.63856 5.61258C0.63856 5.61258 0.63856 5.61258 0.63856 5.61258C0.63856 5.61258 0.63856 5.61258 0.63856 5.61258C0.63856 5.61258 0.63856 5.61258 0.63856 5.61258C0.63856 5.61258 0.63856 5.61258 0.63856 5.61258C0.63856 5.61258 0.63856 5.61258 0.63856 5.61258C0.63856 5.61258 0.63856 5.61258 0.63856 5.61258C0.638561 5.61258 0.638561 5.61258 0.638561 5.61258C0.638561 5.61258 0.638561 5.61258 0.638561 5.61258C0.638561 5.61259 0.638561 5.61259 0.638561 5.61259C0.638561 5.61259 0.638561 5.61259 0.638561 5.61259C0.638561 5.61259 0.638561 5.61259 0.638561 5.61259C0.638561 5.61259 0.638561 5.61259 0.638561 5.61259C0.638561 5.61259 0.638561 5.61259 0.638562 5.61259C0.638562 5.61259 0.638562 5.61259 0.638562 5.61259C0.638562 5.61259 0.638562 5.61259 0.638562 5.61259C0.638562 5.61259 0.638562 5.61259 0.638562 5.61259C0.638562 5.61259 0.638562 5.61259 0.638562 5.61259C0.638562 5.61259 0.638562 5.61259 0.638562 5.61259C0.638562 5.61259 0.638562 5.61259 0.638562 5.61259C0.638563 5.61259 0.638563 5.61259 0.638563 5.61259C0.638563 5.61259 0.638563 5.61259 0.638563 5.61259C0.638563 5.61259 0.638563 5.61259 0.638563 5.61259C0.638563 5.61259 0.638563 5.61259 0.638563 5.61259C0.638563 5.61259 0.638563 5.61259 0.638563 5.61259C0.638563 5.61259 0.638563 5.61259 0.638563 5.61259C0.638563 5.61259 0.638564 5.61259 0.638564 5.61259C0.638564 5.61259 0.638564 5.61259 0.638564 5.61259C0.638564 5.61259 0.638564 5.61259 0.638564 5.61259C0.638564 5.61259 0.638564 5.61259 0.638564 5.61259C0.638564 5.61259 0.638564 5.61259 0.638564 5.61259C0.638564 5.61259 0.638564 5.61259 0.638564 5.61259C0.638564 5.61259 0.638564 5.61259 0.638565 5.61259C0.638565 5.61259 0.638565 5.61259 0.638565 5.61259C0.638565 5.61259 0.638565 5.61259 0.638565 5.61259C0.638565 5.61259 0.638565 5.61259 0.638565 5.61259C0.638565 5.61259 0.638565 5.61259 0.638565 5.61259C0.638565 5.61259 0.638565 5.61259 0.638565 5.61259C0.638565 5.61259 0.638565 5.61259 0.638566 5.61259C0.638566 5.61259 0.638566 5.61259 0.638566 5.61259C0.638566 5.61259 0.638566 5.61259 0.638566 5.61259C0.638566 5.61259 0.638566 5.61259 0.638566 5.61259C0.638566 5.61259 0.638566 5.61259 0.638566 5.61259C0.638566 5.61259 0.638566 5.61259 0.638566 5.61259C0.638566 5.61259 0.638567 5.61259 0.638567 5.61259C0.638567 5.61259 0.638567 5.61259 0.638567 5.61259C0.638567 5.61259 0.638567 5.61259 0.638567 5.61259C0.638567 5.61259 0.638567 5.61259 0.638567 5.61259C0.638567 5.61259 0.638567 5.61259 0.638567 5.61259C0.638567 5.61259 0.638567 5.61259 0.638567 5.61259C0.638568 5.61259 0.638568 5.61259 0.638568 5.61259C0.638568 5.61259 0.638568 5.61259 0.638568 5.61259C0.638568 5.61259 0.638568 5.61259 0.638568 5.61259C0.638568 5.61259 0.638568 5.61259 0.638568 5.61259C0.638568 5.61259 0.638568 5.61259 0.638568 5.61259C0.638568 5.61259 0.638568 5.61259 0.638569 5.61259C0.638569 5.61259 0.638569 5.61259 0.638569 5.61259C0.638569 5.61259 0.638569 5.61259 0.638569 5.61259C0.638569 5.61259 0.638569 5.61259 0.638569 5.61259C0.638569 5.61259 0.638569 5.61259 0.638569 5.61259C0.638569 5.61259 0.638569 5.61259 0.638569 5.61259C0.63857 5.61259 0.63857 5.61259 0.63857 5.61259C0.63857 5.61259 0.63857 5.61259 0.63857 5.61259C0.63857 5.61259 0.63857 5.61259 0.63857 5.61259C0.63857 5.61259 0.63857 5.61259 0.63857 5.61259C0.63857 5.61259 0.63857 5.61259 0.63857 5.61259C0.63857 5.61259 0.638571 5.61259 0.638571 5.61259C0.638571 5.61259 0.638571 5.61259 0.638571 5.61259C0.638571 5.6126 0.638571 5.6126 0.638571 5.6126C0.638571 5.6126 0.638571 5.6126 0.638571 5.6126C0.638571 5.6126 0.638571 5.6126 0.638571 5.6126C0.638571 5.6126 0.638571 5.6126 0.638572 5.6126C0.638572 5.6126 0.638572 5.6126 0.638572 5.6126C0.638572 5.6126 0.638572 5.6126 0.638572 5.6126C0.638572 5.6126 0.638572 5.6126 0.638572 5.6126C0.638572 5.6126 0.638572 5.6126 0.638572 5.6126C0.638572 5.6126 0.638572 5.6126 0.638573 5.6126C0.638573 5.6126 0.638573 5.6126 0.638573 5.6126C0.638573 5.6126 0.638573 5.6126 0.638573 5.6126C0.638573 5.6126 0.638573 5.6126 0.638573 5.6126C0.638573 5.6126 0.638573 5.6126 0.638573 5.6126C0.638573 5.6126 0.638573 5.6126 0.638574 5.6126C0.638574 5.6126 0.638574 5.6126 0.638574 5.6126C0.638574 5.6126 0.638574 5.6126 0.638574 5.6126C0.638574 5.6126 0.638574 5.6126 0.638574 5.6126C0.638574 5.6126 0.638574 5.6126 0.638574 5.6126C0.638574 5.6126 0.638574 5.6126 0.638575 5.6126C0.638575 5.6126 0.638575 5.6126 0.638575 5.6126C0.638575 5.6126 0.638575 5.6126 0.638575 5.6126C0.638575 5.6126 0.638575 5.6126 0.638575 5.6126C0.638575 5.6126 0.638575 5.6126 0.638575 5.6126C0.638575 5.6126 0.638576 5.6126 0.638576 5.6126C0.638576 5.6126 0.638576 5.6126 0.638576 5.6126C0.638576 5.6126 0.638576 5.6126 0.638576 5.6126C0.638576 5.6126 0.638576 5.6126 0.638576 5.6126C0.638576 5.6126 0.638576 5.6126 0.638576 5.6126C0.638577 5.6126 0.638577 5.6126 0.638577 5.6126C0.638577 5.6126 0.638577 5.6126 0.638577 5.6126C0.638577 5.6126 0.638577 5.6126 0.638577 5.6126C0.638577 5.6126 0.638577 5.6126 0.638577 5.6126C0.638577 5.6126 0.638577 5.6126 0.638578 5.6126C0.638578 5.6126 0.638578 5.6126 0.638578 5.6126C0.638578 5.6126 0.638578 5.6126 0.638578 5.6126C0.638578 5.6126 0.638578 5.6126 0.638578 5.6126C0.638578 5.6126 0.638578 5.6126 0.638578 5.6126C0.638578 5.6126 0.638579 5.6126 0.638579 5.6126C0.638579 5.6126 0.638579 5.6126 0.638579 5.6126C0.638579 5.6126 0.638579 5.6126 0.638579 5.6126C0.638579 5.6126 0.638579 5.6126 0.638579 5.6126C0.638579 5.6126 0.638579 5.6126 0.63858 5.6126C0.63858 5.6126 0.63858 5.6126 0.63858 5.6126C0.63858 5.6126 0.63858 5.6126 0.63858 5.6126C0.63858 5.6126 0.63858 5.6126 0.63858 5.6126C0.63858 5.6126 0.63858 5.6126 0.63858 5.6126C0.638581 5.6126 0.638581 5.6126 0.638581 5.6126C0.638581 5.6126 0.638581 5.61261 0.638581 5.61261C0.638581 5.61261 0.638581 5.61261 0.638581 5.61261C0.638581 5.61261 0.638581 5.61261 0.638581 5.61261C0.638581 5.61261 0.638582 5.61261 0.638582 5.61261C0.638582 5.61261 0.638582 5.61261 0.638582 5.61261C0.638582 5.61261 0.638582 5.61261 0.638582 5.61261C0.638582 5.61261 0.638582 5.61261 0.638582 5.61261C0.638582 5.61261 0.638582 5.61261 0.638583 5.61261C0.638583 5.61261 0.638583 5.61261 0.638583 5.61261C0.638583 5.61261 0.638583 5.61261 0.638583 5.61261C0.638583 5.61261 0.638583 5.61261 0.638583 5.61261C0.638583 5.61261 0.638583 5.61261 0.638584 5.61261C0.638584 5.61261 0.638584 5.61261 0.638584 5.61261C0.638584 5.61261 0.638584 5.61261 0.638584 5.61261C0.638584 5.61261 0.638584 5.61261 0.638584 5.61261C0.638584 5.61261 0.638584 5.61261 0.638585 5.61261C0.638585 5.61261 0.638585 5.61261 0.638585 5.61261C0.638585 5.61261 0.638585 5.61261 0.638585 5.61261C0.638585 5.61261 0.638585 5.61261 0.638585 5.61261C0.638585 5.61261 0.638585 5.61261 0.638585 5.61261C0.638586 5.61261 0.638586 5.61261 0.638586 5.61261C0.638586 5.61261 0.638586 5.61261 0.638586 5.61261C0.638586 5.61261 0.638586 5.61261 0.638586 5.61261C0.638586 5.61261 0.638586 5.61261 0.638587 5.61261C0.638587 5.61261 0.638587 5.61261 0.638587 5.61261C0.638587 5.61261 0.638587 5.61261 0.638587 5.61261C0.638587 5.61261 0.638587 5.61261 0.638587 5.61261C0.638587 5.61261 0.638587 5.61261 0.638588 5.61261C0.638588 5.61261 0.638588 5.61261 0.638588 5.61261C0.638588 5.61261 0.638588 5.61261 0.638588 5.61261C0.638588 5.61261 0.638588 5.61261 0.638588 5.61261C0.638588 5.61261 0.638589 5.61261 0.638589 5.61261C0.638589 5.61261 0.638589 5.61261 0.638589 5.61261C0.638589 5.61261 0.638589 5.61261 0.638589 5.61261C0.638589 5.61261 0.638589 5.61261 0.638589 5.61261C0.638589 5.61261 0.63859 5.61261 0.63859 5.61261C0.63859 5.61261 0.63859 5.61261 0.63859 5.61261C0.63859 5.61261 0.63859 5.61261 0.63859 5.61261C0.63859 5.61261 0.63859 5.61261 0.63859 5.61261C0.638591 5.61261 0.638591 5.61261 0.638591 5.61261C0.638591 5.61262 0.638591 5.61262 0.638591 5.61262C0.638591 5.61262 0.638591 5.61262 0.638591 5.61262C0.638591 5.61262 0.638591 5.61262 0.638592 5.61262C0.638592 5.61262 0.638592 5.61262 0.638592 5.61262C0.638592 5.61262 0.638592 5.61262 0.638592 5.61262C0.638592 5.61262 0.638592 5.61262 0.638592 5.61262C0.638592 5.61262 0.638593 5.61262 0.638593 5.61262C0.638593 5.61262 0.638593 5.61262 0.638593 5.61262C0.638593 5.61262 0.638593 5.61262 0.638593 5.61262C0.638593 5.61262 0.638593 5.61262 0.638594 5.61262C0.638594 5.61262 0.638594 5.61262 0.638594 5.61262C0.638594 5.61262 0.638594 5.61262 0.638594 5.61262C0.638594 5.61262 0.638594 5.61262 0.638594 5.61262C0.638594 5.61262 0.638595 5.61262 0.638595 5.61262C0.638595 5.61262 0.638595 5.61262 0.638595 5.61262C0.638595 5.61262 0.638595 5.61262 0.638595 5.61262C0.638595 5.61262 0.638595 5.61262 0.638596 5.61262C0.638596 5.61262 0.638596 5.61262 0.638596 5.61262C0.638596 5.61262 0.638596 5.61262 0.638596 5.61262C0.638596 5.61262 0.638596 5.61262 0.638596 5.61262C0.638596 5.61262 0.638597 5.61262 0.638597 5.61262C0.638597 5.61262 0.638597 5.61262 0.638597 5.61262C0.638597 5.61262 0.638597 5.61262 0.638597 5.61262L2.05281 4.19841Z" fill="#774DFD" mask="url(#path-9-inside-3_5323_1962)"/>
    <path d="M12.0984 14.3841C12.1036 14.3789 12.1086 14.3735 12.1135 14.3678M12.0984 14.3841L11.9017 14.1871L12.0549 14.3192C12.0551 14.3189 12.0554 14.3186 12.0557 14.3183M12.0984 14.3841L11.8989 14.1847L11.8944 14.1808L11.8944 14.1808L11.79 14.0907L11.7339 14.0423L11.6763 13.9926M12.0984 14.3841C11.9918 14.4905 11.8214 14.4969 11.7071 14.3988C11.5865 14.2952 11.5726 14.1133 11.6763 13.9926M12.1135 14.3678L12.0557 14.3183M12.1135 14.3678C12.5044 13.9147 12.6978 13.324 12.6506 12.7274L12.1135 14.3678ZM12.0557 14.3183C12.0557 14.3183 12.0556 14.3183 12.0556 14.3183L12.0037 14.2738L12.0037 14.2738L11.8952 14.1806L12.0557 14.3183ZM11.6763 13.9926L11.734 14.0422L11.6763 13.9926ZM11.8925 14.1783L11.734 14.0422C11.7343 14.0419 11.7346 14.0415 11.7349 14.0412C11.738 14.0377 11.7413 14.0341 11.7448 14.0306L11.8841 14.1699L11.8925 14.1783ZM12.5672 12.7338L12.5689 12.7337L12.5672 12.7338ZM12.1483 12.7164L12.1483 12.7165L12.1483 12.7164Z" stroke="#774DFD"/>
    <mask id="path-12-inside-4_5323_1962" fill="white">
        <path d="M12.8782 14.5977C12.9924 14.6957 13.1628 14.6893 13.2693 14.5831C13.2745 14.5778 13.2796 14.5724 13.2845 14.5667C13.6754 14.1137 13.8688 13.523 13.8215 12.9264L13.8178 12.8771C13.8076 12.7184 13.6706 12.5979 13.5118 12.6081C13.3531 12.6184 13.2326 12.7553 13.2429 12.9141C13.243 12.9164 13.2432 12.9187 13.2434 12.921L13.2471 12.9703C13.2823 13.4145 13.1383 13.8542 12.8472 14.1915C12.7436 14.3123 12.7575 14.4941 12.8782 14.5977Z"/>
    </mask>
    <path d="M12.8782 14.5977L12.2269 15.3566L12.227 15.3566L12.8782 14.5977ZM13.2693 14.5831L13.9756 15.291L13.9764 15.2902L13.2693 14.5831ZM13.2845 14.5667L14.0408 15.2209L14.0416 15.22L13.2845 14.5667ZM13.8215 12.9264L12.8244 13.0021L12.8246 13.0054L13.8215 12.9264ZM13.8178 12.8771L12.8198 12.9413L12.8207 12.9529L13.8178 12.8771ZM13.2429 12.9141L12.2449 12.9783L12.2451 12.9806L13.2429 12.9141ZM13.2434 12.921L14.2405 12.8448L14.2404 12.8443L13.2434 12.921ZM13.2471 12.9703L12.25 13.0465L12.2502 13.0492L13.2471 12.9703ZM12.8472 14.1915L12.0901 13.5383L12.0884 13.5402L12.8472 14.1915ZM12.227 15.3566C12.7377 15.7949 13.4994 15.766 13.9756 15.291L12.563 13.8751C12.8262 13.6126 13.2472 13.5966 13.5295 13.8389L12.227 15.3566ZM13.9764 15.2902C14 15.2665 14.0215 15.2433 14.0408 15.2209L12.5281 13.9126C12.5377 13.9015 12.549 13.8891 12.5622 13.8759L13.9764 15.2902ZM14.0416 15.22C14.6071 14.5647 14.8868 13.7103 14.8184 12.8474L12.8246 13.0054C12.8508 13.3357 12.7437 13.6627 12.5273 13.9134L14.0416 15.22ZM14.8187 12.8506L14.8149 12.8014L12.8207 12.9529L12.8244 13.0021L14.8187 12.8506ZM14.8157 12.8129C14.7701 12.1031 14.1576 11.5646 13.4476 11.6102L13.576 13.6061C13.1836 13.6313 12.8451 13.3337 12.8198 12.9413L14.8157 12.8129ZM13.4476 11.6102C12.7378 11.6559 12.1993 12.2684 12.2449 12.9783L14.2408 12.8499C14.266 13.2423 13.9684 13.5809 13.576 13.6061L13.4476 11.6102ZM12.2451 12.9806C12.2456 12.9888 12.2462 12.9962 12.2463 12.9977L14.2404 12.8443C14.2403 12.843 14.2403 12.8431 14.2403 12.8434C14.2404 12.8439 14.2405 12.8454 14.2406 12.8476L12.2451 12.9806ZM12.2463 12.9972L12.25 13.0465L14.2442 12.8941L14.2405 12.8448L12.2463 12.9972ZM12.2502 13.0492C12.2643 13.2271 12.2066 13.4032 12.0901 13.5383L13.6044 14.8448C14.0699 14.3052 14.3002 13.6019 14.244 12.8915L12.2502 13.0492ZM12.0884 13.5402C11.6249 14.0802 11.6873 14.8934 12.2269 15.3566L13.5295 13.8389C13.8277 14.0948 13.8623 14.5443 13.6061 14.8428L12.0884 13.5402Z" fill="#774DFD" mask="url(#path-12-inside-4_5323_1962)"/>
</svg>