<svg className='relative right-[2px]'  xmlns="http://www.w3.org/2000/svg"  viewBox="0 0 14 18" fill="none">
    <mask id="path-1-inside-1_5254_56055" fill="white">
        <path d="M5.7383 0.843044C5.18191 0.857201 4.74198 1.31908 4.75486 1.87547L4.81065 4.17094C3.8268 4.89492 3.22274 6.02467 3.16698 7.2449L3.15649 7.24521C2.99746 7.24908 2.87165 7.38115 2.87552 7.54019C2.87552 7.54019 2.87552 7.54019 2.87552 7.54024L2.89148 8.20039C2.89591 8.40729 2.98297 8.60383 3.13322 8.74614C3.17238 8.78326 3.19514 8.83449 3.19634 8.88844L3.19647 8.89397C3.23575 10.4977 3.43301 12.0936 3.78537 13.6586L4.4235 16.489C4.53013 16.9572 4.95145 17.2859 5.43159 17.2752L9.43478 17.1779C9.91484 17.1652 10.3197 16.8165 10.4035 16.3436L10.9032 13.4855C11.1792 11.9054 11.2987 10.3019 11.2601 8.69829L11.26 8.6928C11.2588 8.63879 11.279 8.58654 11.3161 8.54733C11.4592 8.39784 11.5366 8.19736 11.5311 7.99048L11.515 7.33018C11.5112 7.17112 11.3791 7.04531 11.22 7.04918C11.22 7.04918 11.22 7.04918 11.22 7.04918L11.2095 7.04948C11.0945 5.83335 10.4363 4.73426 9.41834 4.05891L9.36255 1.76344C9.34839 1.20705 8.88654 0.767091 8.33009 0.779975L5.7383 0.843044ZM5.44984 1.55285C5.52847 1.46928 5.6375 1.421 5.75223 1.41892L8.34412 1.356C8.5826 1.3505 8.78054 1.53902 8.78665 1.7775L8.79024 1.92158L5.33435 2.00546L5.33076 1.86137C5.32763 1.74676 5.3705 1.63565 5.44984 1.55285ZM8.81097 2.78535L5.35541 2.86946L5.3484 2.58151L8.80419 2.49748L8.81097 2.78535ZM8.83913 3.93735L5.38336 4.02135L5.36933 3.44538L8.82535 3.36138L8.83913 3.93735ZM10.9551 8.00451C10.9566 8.05854 10.9363 8.11091 10.8989 8.14995C10.7558 8.29931 10.6784 8.49974 10.684 8.70652L10.6841 8.71204C10.7219 10.2777 10.6052 11.8434 10.3358 13.3862L9.83604 16.2443C9.80019 16.447 9.62664 16.5965 9.42088 16.6019L5.41758 16.6993C5.21183 16.7037 5.03135 16.5629 4.9857 16.3622L4.34775 13.5318C4.00363 12.004 3.81096 10.4459 3.77246 8.88027L3.77234 8.87475C3.76788 8.66787 3.68083 8.47138 3.5306 8.32905C3.49137 8.29185 3.46863 8.24054 3.46748 8.18649L3.45842 7.81418L10.946 7.63215L10.9551 8.00451ZM10.6322 7.06346L7.99942 7.1275L3.74428 7.23093C3.80472 6.17976 4.33894 5.21284 5.19668 4.60219L9.05372 4.50841C9.9401 5.07667 10.5207 6.01644 10.6322 7.06346Z"/>
    </mask>
    <path d="M5.7383 0.843044L5.71398 -0.156661L5.71287 -0.156632L5.7383 0.843044ZM4.75486 1.87547L3.75513 1.89862L3.75516 1.89977L4.75486 1.87547ZM4.81065 4.17094L5.40334 4.97637L5.82301 4.66754L5.81035 4.14664L4.81065 4.17094ZM3.16698 7.2449L3.1961 8.24448L4.12358 8.21746L4.16594 7.29055L3.16698 7.2449ZM3.15649 7.24521L3.18082 8.24493L3.18561 8.24479L3.15649 7.24521ZM2.87552 7.54019L3.5258 8.29988L3.88678 7.99088L3.87522 7.51586L2.87552 7.54019ZM2.87552 7.54024L1.87552 7.54024L1.87552 7.55233L1.87581 7.56441L2.87552 7.54024ZM2.89148 8.20039L3.89126 8.17898L3.89119 8.17621L2.89148 8.20039ZM3.13322 8.74614L3.8212 8.02041L3.82087 8.0201L3.13322 8.74614ZM3.19634 8.88844L2.19658 8.91062L2.1966 8.91154L3.19634 8.88844ZM3.19647 8.89397L2.19673 8.91706L2.19677 8.91846L3.19647 8.89397ZM3.78537 13.6586L2.8098 13.8783L2.80986 13.8786L3.78537 13.6586ZM4.4235 16.489L3.44798 16.7089L3.44846 16.711L4.4235 16.489ZM5.43159 17.2752L5.4537 18.275L5.4559 18.2749L5.43159 17.2752ZM9.43478 17.1779L9.45909 18.1776L9.46119 18.1775L9.43478 17.1779ZM10.4035 16.3436L11.3882 16.5181L11.3885 16.5159L10.4035 16.3436ZM10.9032 13.4855L11.8883 13.6578L11.8883 13.6576L10.9032 13.4855ZM11.2601 8.69829L10.2602 8.7168L10.2604 8.72236L11.2601 8.69829ZM11.26 8.6928L12.2598 8.67429L12.2597 8.67158L11.26 8.6928ZM11.3161 8.54733L10.5938 7.85576L10.5899 7.85982L11.3161 8.54733ZM11.5311 7.99048L10.5314 8.0148L10.5314 8.01742L11.5311 7.99048ZM11.515 7.33018L10.5153 7.35434L10.5153 7.3545L11.515 7.33018ZM11.22 7.04918L11.1957 6.04947L10.1473 6.07499L10.2226 7.121L11.22 7.04918ZM11.22 7.04918L11.22 6.04918L11.2055 6.04918L11.191 6.0496L11.22 7.04918ZM11.2095 7.04948L10.2139 7.14359L10.3021 8.07625L11.2385 8.04906L11.2095 7.04948ZM9.41834 4.05891L8.41863 4.0832L8.43129 4.60412L8.86548 4.89219L9.41834 4.05891ZM9.36255 1.76344L10.3623 1.73915L10.3622 1.73801L9.36255 1.76344ZM8.33009 0.779975L8.30695 -0.219758L8.30577 -0.219729L8.33009 0.779975ZM5.44984 1.55285L6.17192 2.24472L6.17815 2.2381L5.44984 1.55285ZM5.75223 1.41892L5.77042 2.41877L5.7765 2.41862L5.75223 1.41892ZM8.34412 1.356L8.32107 0.356265L8.31986 0.356295L8.34412 1.356ZM8.78665 1.7775L9.78634 1.75258L9.78632 1.75188L8.78665 1.7775ZM8.79024 1.92158L8.8145 2.92129L9.81486 2.89701L9.78993 1.89667L8.79024 1.92158ZM5.33435 2.00546L4.33466 2.03036L4.35955 3.02941L5.35861 3.00516L5.33435 2.00546ZM5.33076 1.86137L6.33045 1.83646L6.33039 1.83405L5.33076 1.86137ZM8.81097 2.78535L8.8353 3.78506L9.83419 3.76075L9.81069 2.76184L8.81097 2.78535ZM5.35541 2.86946L4.3557 2.89376L4.38001 3.89349L5.37974 3.86916L5.35541 2.86946ZM5.3484 2.58151L5.3241 1.5818L4.32439 1.60611L4.3487 2.60582L5.3484 2.58151ZM8.80419 2.49748L9.80392 2.47396L9.78038 1.47345L8.77989 1.49778L8.80419 2.49748ZM8.83913 3.93735L8.86343 4.93706L9.86274 4.91277L9.83884 3.91344L8.83913 3.93735ZM5.38336 4.02135L4.38366 4.0457L4.40801 5.04535L5.40766 5.02106L5.38336 4.02135ZM5.36933 3.44538L5.34504 2.44567L4.34528 2.46997L4.36963 3.46973L5.36933 3.44538ZM8.82535 3.36138L9.82507 3.33747L9.80115 2.33737L8.80106 2.36167L8.82535 3.36138ZM10.9551 8.00451L9.95538 8.02885L9.95546 8.03183L10.9551 8.00451ZM10.8989 8.14995L10.1769 7.45807L10.1768 7.45814L10.8989 8.14995ZM10.684 8.70652L11.6837 8.68346L11.6836 8.67956L10.684 8.70652ZM10.6841 8.71204L9.68439 8.7351L9.68441 8.73614L10.6841 8.71204ZM10.3358 13.3862L11.3208 13.5585L11.3208 13.5583L10.3358 13.3862ZM9.83604 16.2443L10.8208 16.4185L10.8211 16.4166L9.83604 16.2443ZM9.42088 16.6019L9.4452 17.6016L9.44723 17.6016L9.42088 16.6019ZM5.41758 16.6993L5.43923 17.6991L5.4419 17.699L5.41758 16.6993ZM4.9857 16.3622L4.01017 16.5821L4.01062 16.5841L4.9857 16.3622ZM4.34775 13.5318L3.37219 13.7515L3.37222 13.7517L4.34775 13.5318ZM3.77246 8.88027L2.77273 8.90337L2.77277 8.90485L3.77246 8.88027ZM3.77234 8.87475L2.77257 8.89628L2.7726 8.89784L3.77234 8.87475ZM3.5306 8.32905L2.84258 9.05474L2.84282 9.05497L3.5306 8.32905ZM3.46748 8.18649L4.46726 8.16529L4.46719 8.16215L3.46748 8.18649ZM3.45842 7.81418L3.43411 6.81448L2.43437 6.83878L2.45871 7.83852L3.45842 7.81418ZM10.946 7.63215L11.9457 7.60782L11.9214 6.60815L10.9217 6.63245L10.946 7.63215ZM10.6322 7.06346L10.6565 8.06317L11.7415 8.03678L11.6266 6.95757L10.6322 7.06346ZM7.99942 7.1275L8.02372 8.1272H8.02374L7.99942 7.1275ZM3.74428 7.23093L2.74593 7.17352L2.68362 8.257L3.76858 8.23063L3.74428 7.23093ZM5.19668 4.60219L5.17237 3.60248L4.8662 3.60993L4.61671 3.78755L5.19668 4.60219ZM9.05372 4.50841L9.59343 3.66656L9.3356 3.50126L9.02942 3.50871L9.05372 4.50841ZM5.71287 -0.156632C4.60524 -0.12845 3.72948 0.79101 3.75513 1.89862L5.75459 1.85232C5.75455 1.85038 5.75471 1.84951 5.75473 1.84939C5.75476 1.84921 5.75479 1.84912 5.75484 1.84898C5.75501 1.84857 5.75565 1.84724 5.75719 1.84563C5.75872 1.84402 5.76002 1.84331 5.76042 1.84313C5.76055 1.84307 5.76064 1.84304 5.76081 1.843C5.76093 1.84297 5.76179 1.84277 5.76374 1.84272L5.71287 -0.156632ZM3.75516 1.89977L3.81094 4.19524L5.81035 4.14664L5.75457 1.85118L3.75516 1.89977ZM4.21796 3.36551C2.99092 4.26845 2.23757 5.67743 2.16802 7.19925L4.16594 7.29055C4.20792 6.3719 4.66268 5.5214 5.40334 4.97637L4.21796 3.36551ZM3.13787 6.24533L3.12737 6.24563L3.18561 8.24479L3.1961 8.24448L3.13787 6.24533ZM3.13216 6.24551C2.42106 6.26281 1.85851 6.8533 1.87581 7.56451L3.87522 7.51586C3.88479 7.909 3.57385 8.23535 3.18082 8.24491L3.13216 6.24551ZM2.87552 7.54019C2.22526 6.78047 2.17703 6.82456 2.13179 6.8717C2.11966 6.88546 2.08738 6.92469 2.06783 6.95058C2.03356 6.99752 2.00884 7.04 1.99182 7.07213C1.95884 7.1344 1.93923 7.1875 1.9289 7.21782C1.90831 7.27828 1.89822 7.32738 1.89432 7.34719C1.88565 7.39127 1.88198 7.42618 1.88091 7.43652C1.87812 7.4632 1.87708 7.48418 1.87682 7.48918C1.87607 7.50383 1.87582 7.51533 1.87577 7.51774C1.8756 7.52541 1.87556 7.53143 1.87555 7.53261C1.87552 7.53654 1.87552 7.53963 1.87552 7.54024H3.87552C3.87552 7.54079 3.87552 7.54386 3.87549 7.54777C3.87548 7.54895 3.87544 7.55496 3.87527 7.56263C3.87521 7.56504 3.87496 7.57654 3.87422 7.59119C3.87396 7.59619 3.87291 7.61717 3.87013 7.64385C3.86905 7.65419 3.86539 7.68911 3.85672 7.73318C3.85282 7.75299 3.84272 7.80209 3.82213 7.86255C3.81181 7.89287 3.7922 7.94597 3.75922 8.00823C3.7422 8.04038 3.71748 8.08285 3.68324 8.12976C3.66366 8.15568 3.63138 8.19492 3.61923 8.20869C3.574 8.25581 3.52578 8.2999 2.87552 7.54019ZM1.87581 7.56441L1.89178 8.22456L3.89119 8.17621L3.87523 7.51606L1.87581 7.56441ZM1.89171 8.2218C1.90186 8.69583 2.1013 9.14612 2.44557 9.47218L3.82087 8.0201C3.86463 8.06155 3.88996 8.11875 3.89125 8.17898L1.89171 8.2218ZM2.44524 9.47187C2.29132 9.32596 2.20132 9.12412 2.19658 8.91062L4.19609 8.86627C4.18896 8.54486 4.05343 8.24056 3.8212 8.02041L2.44524 9.47187ZM2.1966 8.91154L2.19673 8.91706L4.1962 8.87088L4.19607 8.86535L2.1966 8.91154ZM2.19677 8.91846C2.23766 10.5879 2.443 12.2492 2.8098 13.8783L4.76095 13.439C4.42302 11.9381 4.23384 10.4075 4.19617 8.86948L2.19677 8.91846ZM2.80986 13.8786L3.44799 16.7089L5.39901 16.269L4.76089 13.4387L2.80986 13.8786ZM3.44846 16.711C3.66057 17.6424 4.49861 18.2961 5.4537 18.275L5.40948 16.2755C5.40725 16.2755 5.40637 16.2752 5.40592 16.2751C5.40511 16.2748 5.40387 16.2742 5.4025 16.2732C5.40113 16.2721 5.40025 16.271 5.39979 16.2703C5.39953 16.2699 5.39903 16.2691 5.39854 16.2669L3.44846 16.711ZM5.4559 18.2749L9.45909 18.1776L9.41047 16.1782L5.40728 16.2755L5.4559 18.2749ZM9.46119 18.1775C10.4162 18.1523 11.2215 17.4586 11.3882 16.5181L9.41881 16.1692C9.41842 16.1714 9.41797 16.1722 9.41772 16.1726C9.4173 16.1734 9.41648 16.1745 9.41517 16.1756C9.41385 16.1768 9.41265 16.1774 9.41187 16.1777C9.41144 16.1779 9.41059 16.1782 9.40838 16.1782L9.46119 18.1775ZM11.3885 16.5159L11.8883 13.6578L9.91814 13.3133L9.41842 16.1714L11.3885 16.5159ZM11.8883 13.6576C12.1755 12.0127 12.3 10.3435 12.2598 8.67423L10.2604 8.72236C10.2974 10.2603 10.1828 11.7981 9.91811 13.3135L11.8883 13.6576ZM12.2599 8.67979L12.2598 8.67429L10.2601 8.7113L10.2602 8.7168L12.2599 8.67979ZM12.2597 8.67158C12.2642 8.88051 12.1861 9.08293 12.0423 9.23484L10.5899 7.85982C10.3719 8.09016 10.2535 8.39707 10.2602 8.71401L12.2597 8.67158ZM12.0384 9.23889C12.3662 8.89659 12.5435 8.43741 12.5307 7.96354L10.5314 8.01742C10.5298 7.9573 10.5523 7.8991 10.5938 7.85577L12.0384 9.23889ZM12.5308 7.96615L12.5147 7.30585L10.5153 7.3545L10.5314 8.0148L12.5308 7.96615ZM12.5147 7.30601C12.4975 6.59477 11.9069 6.03217 11.1957 6.04947L11.2444 8.04888C10.8512 8.05845 10.5248 7.74746 10.5153 7.35434L12.5147 7.30601ZM11.22 7.04918C10.2226 7.12019 10.2201 7.05673 10.2216 6.99324C10.223 6.97186 10.2299 6.90883 10.2367 6.8674C10.252 6.78484 10.2765 6.70992 10.3061 6.64336C10.3644 6.51205 10.4404 6.41677 10.5016 6.35357C10.6159 6.2355 10.7316 6.1749 10.7802 6.15108C10.8836 6.10045 10.972 6.08019 10.9934 6.0752C11.0545 6.06098 11.1036 6.05594 11.113 6.05492C11.1446 6.05152 11.1696 6.05044 11.1742 6.05023C11.19 6.0495 11.2025 6.04933 11.2048 6.0493C11.2127 6.04917 11.2189 6.04918 11.22 6.04918L11.22 8.04918C11.2211 8.04918 11.2274 8.04918 11.2353 8.04906C11.2376 8.04903 11.2501 8.04885 11.2659 8.04813C11.2705 8.04792 11.2954 8.04684 11.3271 8.04344C11.3365 8.04242 11.3856 8.03738 11.4467 8.02315C11.4681 8.01817 11.5564 7.99791 11.6598 7.94727C11.7085 7.92345 11.8241 7.86286 11.9385 7.74478C11.9997 7.68159 12.0757 7.58631 12.134 7.45501C12.1636 7.38844 12.1881 7.31351 12.2033 7.23116C12.2101 7.18952 12.2171 7.1265 12.2185 7.10512C12.22 7.04163 12.2175 6.97817 11.22 7.04918ZM11.191 6.0496L11.1805 6.0499L11.2385 8.04906L11.249 8.04876L11.191 6.0496ZM12.2051 6.95537C12.0617 5.43864 11.2407 4.06789 9.97119 3.22563L8.86548 4.89219C9.63182 5.40062 10.1274 6.22806 10.2139 7.14359L12.2051 6.95537ZM10.418 4.03461L10.3623 1.73914L8.36284 1.78774L8.41863 4.0832L10.418 4.03461ZM10.3622 1.73801C10.334 0.630406 9.41464 -0.245404 8.30695 -0.219757L8.35324 1.77971C8.3552 1.77966 8.35608 1.77982 8.3562 1.77984C8.35637 1.77988 8.35647 1.7799 8.35661 1.77996C8.35702 1.78012 8.35835 1.78077 8.35996 1.7823C8.36156 1.78383 8.36228 1.78513 8.36246 1.78553C8.36252 1.78567 8.36255 1.78576 8.36259 1.78594C8.36262 1.78606 8.36282 1.78692 8.36287 1.78888L10.3622 1.73801ZM8.30577 -0.219729L5.71397 -0.15666L5.76263 1.84275L8.35442 1.77968L8.30577 -0.219729ZM6.17815 2.2381C6.07202 2.3509 5.92496 2.41594 5.77042 2.41875L5.73403 0.419082C5.35004 0.42607 4.98492 0.587662 4.72154 0.867591L6.17815 2.2381ZM5.7765 2.41862L8.36839 2.35571L8.31986 0.356295L5.72796 0.419211L5.7765 2.41862ZM8.36718 2.35573C8.05453 2.36294 7.79499 2.11576 7.78698 1.80311L9.78632 1.75188C9.76609 0.962283 9.11067 0.338056 8.32107 0.356265L8.36718 2.35573ZM7.78696 1.80241L7.79055 1.9465L9.78993 1.89667L9.78634 1.75258L7.78696 1.80241ZM8.76598 0.921879L5.31009 1.00575L5.35861 3.00516L8.8145 2.92129L8.76598 0.921879ZM6.33404 1.98055L6.33045 1.83646L4.33107 1.88628L4.33466 2.03036L6.33404 1.98055ZM6.33039 1.83405C6.33455 1.98661 6.27749 2.13449 6.17189 2.24469L4.7278 0.860998C4.46352 1.13681 4.3207 1.50692 4.33113 1.88868L6.33039 1.83405ZM8.78664 1.78565L5.33107 1.86975L5.37974 3.86916L8.8353 3.78506L8.78664 1.78565ZM6.35511 2.84515L6.34811 2.5572L4.3487 2.60582L4.3557 2.89376L6.35511 2.84515ZM5.37271 3.58121L8.8285 3.49719L8.77989 1.49778L5.3241 1.5818L5.37271 3.58121ZM7.80447 2.521L7.81124 2.80887L9.81069 2.76184L9.80392 2.47396L7.80447 2.521ZM8.81483 2.93765L5.35906 3.02165L5.40766 5.02106L8.86343 4.93706L8.81483 2.93765ZM6.38307 3.997L6.36904 3.42103L4.36963 3.46973L4.38366 4.0457L6.38307 3.997ZM5.39363 4.44508L8.84965 4.36108L8.80106 2.36167L5.34504 2.44567L5.39363 4.44508ZM7.82564 3.38529L7.83941 3.96126L9.83884 3.91344L9.82507 3.33747L7.82564 3.38529ZM9.95546 8.03183C9.94963 7.8183 10.0296 7.61177 10.1769 7.45807L11.6209 8.84182C11.843 8.61005 11.9635 8.29878 11.9547 7.97719L9.95546 8.03183ZM10.1768 7.45814C9.84894 7.80039 9.67158 8.25964 9.68436 8.73348L11.6836 8.67956C11.6853 8.73984 11.6627 8.79822 11.621 8.84175L10.1768 7.45814ZM9.68426 8.72958L9.68439 8.7351L11.6839 8.68898L11.6837 8.68346L9.68426 8.72958ZM9.68441 8.73614C9.72056 10.2361 9.60877 11.7361 9.35066 13.2142L11.3208 13.5583C11.6016 11.9507 11.7231 10.3193 11.6838 8.68795L9.68441 8.73614ZM9.3507 13.214L8.85098 16.0721L10.8211 16.4166L11.3208 13.5585L9.3507 13.214ZM8.85132 16.0702C8.89825 15.8049 9.12537 15.6093 9.39453 15.6022L9.44723 17.6016C10.1279 17.5836 10.7021 17.0892 10.8208 16.4185L8.85132 16.0702ZM9.39656 15.6022L5.39326 15.6996L5.4419 17.699L9.4452 17.6016L9.39656 15.6022ZM5.39593 15.6995C5.66498 15.6937 5.90107 15.8779 5.96078 16.1404L4.01062 16.5841C4.16163 17.2478 4.75867 17.7138 5.43923 17.6991L5.39593 15.6995ZM5.96123 16.1424L5.32328 13.3119L3.37222 13.7517L4.01017 16.5821L5.96123 16.1424ZM5.32331 13.3121C4.99364 11.8483 4.80905 10.3557 4.77216 8.85569L2.77277 8.90485C2.81288 10.5362 3.01363 12.1596 3.37219 13.7515L5.32331 13.3121ZM4.7722 8.85718L4.77207 8.85165L2.7726 8.89784L2.77273 8.90337L4.7722 8.85718ZM4.77211 8.85321C4.7619 8.3792 4.56243 7.9291 4.21838 7.60313L2.84282 9.05497C2.79922 9.01365 2.77387 8.95653 2.77257 8.89628L4.77211 8.85321ZM4.21862 7.60335C4.37291 7.74964 4.46273 7.95188 4.46726 8.16529L2.46771 8.20768C2.47452 8.5292 2.60982 8.83406 2.84258 9.05474L4.21862 7.60335ZM4.46719 8.16215L4.45812 7.78984L2.45871 7.83852L2.46778 8.21083L4.46719 8.16215ZM3.48272 8.81389L10.9703 8.63186L10.9217 6.63245L3.43411 6.81448L3.48272 8.81389ZM9.94632 7.65649L9.95539 8.02885L11.9548 7.98017L11.9457 7.60782L9.94632 7.65649ZM10.6079 6.06376L7.97511 6.12779L8.02374 8.1272L10.6565 8.06317L10.6079 6.06376ZM7.97512 6.12779L3.71998 6.23122L3.76858 8.23063L8.02372 8.1272L7.97512 6.12779ZM4.74263 7.28834C4.78566 6.53995 5.166 5.85157 5.77665 5.41683L4.61671 3.78755C3.51189 4.57411 2.82379 5.81956 2.74593 7.17352L4.74263 7.28834ZM5.22098 5.60189L9.07803 5.50812L9.02942 3.50871L5.17237 3.60248L5.22098 5.60189ZM8.51401 5.35026C9.14508 5.75484 9.55845 6.42392 9.63783 7.16936L11.6266 6.95757C11.483 5.60897 10.7351 4.3985 9.59343 3.66656L8.51401 5.35026Z" fill="#6B6B6B" mask="url(#path-1-inside-1_5254_56055)"/>
    <mask id="path-3-inside-2_5254_56055" fill="white">
        <path d="M4.77229 5.6324C4.62728 5.93089 4.51943 6.24606 4.45111 6.57077C4.4184 6.72647 4.51808 6.87922 4.67378 6.91194C4.82948 6.94466 4.98222 6.84497 5.01494 6.68927C5.07353 6.41065 5.16603 6.14027 5.29044 5.88417C5.35998 5.74105 5.30034 5.56872 5.15725 5.49916C5.01415 5.4296 4.84178 5.48923 4.77224 5.63235L4.77229 5.6324Z"/>
    </mask>
    <path d="M4.77229 5.6324L5.67177 6.06937L5.98294 5.42884L5.4794 4.9253L4.77229 5.6324ZM4.45111 6.57077L3.47254 6.3649L3.47249 6.36513L4.45111 6.57077ZM5.01494 6.68927L4.03634 6.4835L4.03632 6.48363L5.01494 6.68927ZM5.29044 5.88417L4.39098 5.44716L4.39096 5.44722L5.29044 5.88417ZM4.77224 5.63235L3.87278 5.19534L3.56157 5.83589L4.06513 6.33946L4.77224 5.63235ZM3.87281 5.19544C3.69208 5.56747 3.55767 5.96025 3.47254 6.3649L5.42969 6.77665C5.48119 6.53187 5.56249 6.29431 5.67177 6.06937L3.87281 5.19544ZM3.47249 6.36513C3.32621 7.06123 3.77188 7.74426 4.46813 7.89057L4.87943 5.93331C5.26428 6.01419 5.51058 6.39172 5.42974 6.77642L3.47249 6.36513ZM4.46813 7.89057C5.16424 8.03684 5.84726 7.59118 5.99357 6.89492L4.03632 6.48363C4.11719 6.09877 4.49472 5.85247 4.87943 5.93331L4.46813 7.89057ZM5.99354 6.89505C6.03532 6.69636 6.10127 6.50363 6.18992 6.32112L4.39096 5.44722C4.2308 5.7769 4.11174 6.12493 4.03634 6.4835L5.99354 6.89505ZM6.1899 6.32118C6.5008 5.68127 6.23407 4.91073 5.59445 4.5998L4.72005 6.39852C4.36662 6.22671 4.21915 5.80082 4.39098 5.44716L6.1899 6.32118ZM5.59445 4.5998C4.95452 4.28871 4.18368 4.55545 3.87278 5.19534L5.6717 6.06936C5.49987 6.42301 5.07379 6.57049 4.72005 6.39852L5.59445 4.5998ZM4.06513 6.33946L4.06518 6.33951L5.4794 4.9253L5.47935 4.92524L4.06513 6.33946Z" fill="#6B6B6B" mask="url(#path-3-inside-2_5254_56055)"/>
    <path d="M5.42506 13.5206C5.42506 13.5206 5.42506 13.5206 5.42506 13.5206L5.42506 13.5206Z" stroke="#6B6B6B"/>
    <path d="M4.461 10.6926L4.46094 10.6926L4.461 10.6926ZM4.461 10.6926L4.461 10.6926M4.461 10.6926L4.461 10.6926M4.461 10.6926L4.46105 10.6926L4.461 10.6926ZM4.95847 10.643C4.95847 10.643 4.95847 10.643 4.95847 10.643L4.95847 10.643ZM4.95847 10.643C4.949 10.5481 4.9401 10.4532 4.93178 10.3581M4.95847 10.643L4.93178 10.3581M4.93178 10.3581C4.93177 10.3581 4.93177 10.3581 4.93177 10.358L4.72067 10.3765L4.72067 10.3765L5.00762 10.3514L4.72066 10.3764L4.69554 10.09L4.72065 10.3764L4.50953 10.3949C4.50954 10.3949 4.50954 10.3949 4.50954 10.395L4.93178 10.3581ZM4.93178 10.3581L4.72068 10.3766L4.93178 10.3581ZM4.95848 10.643L4.95847 10.643L4.95848 10.643ZM4.8886 10.5058C4.85384 10.551 4.80108 10.582 4.7399 10.5876C4.73966 10.5876 4.73943 10.5877 4.73919 10.5877L4.73413 10.53L4.73413 10.53L4.72738 10.4531C4.78851 10.4472 4.84608 10.4679 4.8886 10.5058ZM4.72645 10.4531C4.72676 10.4531 4.72706 10.4531 4.72737 10.4531L4.73403 10.529L4.73403 10.529L4.73918 10.5877C4.67863 10.593 4.62176 10.5723 4.57966 10.5348C4.61406 10.4901 4.66606 10.4592 4.72645 10.4531Z" stroke="#6B6B6B"/>
    <path d="M1.55263 7.16614C1.55263 7.16613 1.55263 7.16612 1.55263 7.16611L1.55263 7.16614ZM1.55263 7.16614L1.55264 7.16685C1.55264 7.16661 1.55263 7.16638 1.55263 7.16614Z" stroke="#6B6B6B"/>
    <mask id="path-8-inside-3_5254_56055" fill="white">
        <path d="M1.34551 5.23893C1.23016 5.12965 1.04819 5.13411 0.938319 5.24892C0.524411 5.68111 0.300575 6.2609 0.316743 6.85913L0.31794 6.90855C0.32181 7.06758 0.453881 7.19339 0.612941 7.18954C0.771977 7.18567 0.897783 7.0536 0.893939 6.89454L0.892742 6.84512C0.880673 6.39974 1.04732 5.96804 1.35549 5.64627C1.46523 5.53108 1.4608 5.34873 1.34558 5.23901C1.34553 5.23896 1.34553 5.23896 1.34551 5.23893Z"/>
    </mask>
    <path d="M1.34551 5.23893L2.05261 4.53183L2.04308 4.52229L2.03329 4.51302L1.34551 5.23893ZM0.938319 5.24892L1.66054 5.94058L1.6608 5.94031L0.938319 5.24892ZM0.316743 6.85913L1.31645 6.83492L1.31638 6.83211L0.316743 6.85913ZM0.31794 6.90855L-0.681767 6.93275L-0.681764 6.93288L0.31794 6.90855ZM0.612941 7.18954L0.637106 8.18925L0.63727 8.18925L0.612941 7.18954ZM0.893939 6.89454L1.89365 6.87038L1.89365 6.87034L0.893939 6.89454ZM0.892742 6.84512L1.89245 6.82092L1.89238 6.81803L0.892742 6.84512ZM1.35549 5.64627L2.07769 6.33796L2.07951 6.33605L1.35549 5.64627ZM1.34558 5.23901L0.638475 5.94612L0.647119 5.95476L0.655971 5.96319L1.34558 5.23901ZM2.03329 4.51302C1.51841 4.02519 0.706181 4.04514 0.215841 4.55752L1.6608 5.94031C1.39019 6.22308 0.941912 6.23411 0.657725 5.96485L2.03329 4.51302ZM0.216103 4.55725C-0.382526 5.18232 -0.706277 6.02089 -0.682892 6.88614L1.31638 6.83211C1.30743 6.50091 1.43135 6.17989 1.66054 5.94058L0.216103 4.55725ZM-0.682964 6.88333L-0.681767 6.93275L1.31765 6.88434L1.31645 6.83492L-0.682964 6.88333ZM-0.681764 6.93288C-0.664457 7.64407 -0.0739143 8.20644 0.637106 8.18925L0.588777 6.18984C0.981676 6.18034 1.30808 6.4911 1.31764 6.88422L-0.681764 6.93288ZM0.63727 8.18925C1.34846 8.17194 1.91083 7.5814 1.89365 6.87038L-0.105769 6.91871C-0.115266 6.52581 0.195493 6.19941 0.588613 6.18984L0.63727 8.18925ZM1.89365 6.87034L1.89245 6.82092L-0.106965 6.86933L-0.105768 6.91875L1.89365 6.87034ZM1.89238 6.81803C1.88754 6.63971 1.95427 6.46682 2.07769 6.33796L0.633286 4.95459C0.140369 5.46926 -0.126196 6.15978 -0.106891 6.87221L1.89238 6.81803ZM2.07951 6.33605C2.57023 5.82096 2.55046 5.0055 2.03519 4.51483L0.655971 5.96319C0.371134 5.69195 0.360223 5.24121 0.631463 4.9565L2.07951 6.33605ZM2.05269 4.5319C2.05269 4.5319 2.05269 4.5319 2.05269 4.5319C2.05269 4.5319 2.05269 4.5319 2.05269 4.5319C2.05269 4.5319 2.05269 4.5319 2.05269 4.5319C2.05269 4.5319 2.05269 4.5319 2.05269 4.5319C2.05269 4.5319 2.05269 4.5319 2.05269 4.5319C2.05269 4.5319 2.05269 4.5319 2.05269 4.5319C2.05269 4.5319 2.05269 4.5319 2.05269 4.5319C2.05269 4.5319 2.05269 4.5319 2.05269 4.5319C2.05269 4.5319 2.05269 4.5319 2.05269 4.5319C2.05269 4.5319 2.05269 4.5319 2.05269 4.5319C2.05269 4.5319 2.05269 4.5319 2.05269 4.5319C2.05269 4.5319 2.05269 4.5319 2.05269 4.5319C2.05269 4.5319 2.05268 4.5319 2.05268 4.5319C2.05268 4.5319 2.05268 4.5319 2.05268 4.5319C2.05268 4.5319 2.05268 4.5319 2.05268 4.5319C2.05268 4.5319 2.05268 4.5319 2.05268 4.5319C2.05268 4.5319 2.05268 4.5319 2.05268 4.5319C2.05268 4.5319 2.05268 4.5319 2.05268 4.5319C2.05268 4.5319 2.05268 4.5319 2.05268 4.5319C2.05268 4.5319 2.05268 4.5319 2.05268 4.5319C2.05268 4.5319 2.05268 4.5319 2.05268 4.5319C2.05268 4.5319 2.05268 4.5319 2.05268 4.5319C2.05268 4.5319 2.05268 4.5319 2.05268 4.5319C2.05268 4.5319 2.05268 4.5319 2.05268 4.5319C2.05268 4.5319 2.05268 4.5319 2.05268 4.5319C2.05268 4.5319 2.05268 4.5319 2.05268 4.5319C2.05268 4.5319 2.05268 4.5319 2.05268 4.5319C2.05268 4.5319 2.05268 4.5319 2.05268 4.5319C2.05268 4.5319 2.05268 4.5319 2.05268 4.5319C2.05268 4.5319 2.05268 4.5319 2.05268 4.5319C2.05268 4.5319 2.05268 4.5319 2.05268 4.5319C2.05268 4.5319 2.05268 4.5319 2.05268 4.5319C2.05268 4.5319 2.05268 4.53189 2.05268 4.53189C2.05268 4.53189 2.05268 4.53189 2.05268 4.53189C2.05268 4.53189 2.05268 4.53189 2.05268 4.53189C2.05268 4.53189 2.05268 4.53189 2.05268 4.53189C2.05268 4.53189 2.05268 4.53189 2.05268 4.53189C2.05268 4.53189 2.05268 4.53189 2.05268 4.53189C2.05268 4.53189 2.05268 4.53189 2.05268 4.53189C2.05268 4.53189 2.05268 4.53189 2.05268 4.53189C2.05268 4.53189 2.05268 4.53189 2.05268 4.53189C2.05268 4.53189 2.05268 4.53189 2.05268 4.53189C2.05268 4.53189 2.05268 4.53189 2.05268 4.53189C2.05268 4.53189 2.05268 4.53189 2.05268 4.53189C2.05268 4.53189 2.05268 4.53189 2.05268 4.53189C2.05268 4.53189 2.05268 4.53189 2.05268 4.53189C2.05268 4.53189 2.05268 4.53189 2.05268 4.53189C2.05268 4.53189 2.05268 4.53189 2.05268 4.53189C2.05268 4.53189 2.05268 4.53189 2.05268 4.53189C2.05268 4.53189 2.05268 4.53189 2.05268 4.53189C2.05268 4.53189 2.05267 4.53189 2.05267 4.53189C2.05267 4.53189 2.05267 4.53189 2.05267 4.53189C2.05267 4.53189 2.05267 4.53189 2.05267 4.53189C2.05267 4.53189 2.05267 4.53189 2.05267 4.53189C2.05267 4.53189 2.05267 4.53189 2.05267 4.53189C2.05267 4.53189 2.05267 4.53189 2.05267 4.53189C2.05267 4.53189 2.05267 4.53189 2.05267 4.53189C2.05267 4.53189 2.05267 4.53189 2.05267 4.53189C2.05267 4.53189 2.05267 4.53189 2.05267 4.53189C2.05267 4.53189 2.05267 4.53189 2.05267 4.53189C2.05267 4.53189 2.05267 4.53189 2.05267 4.53189C2.05267 4.53189 2.05267 4.53189 2.05267 4.53189C2.05267 4.53189 2.05267 4.53189 2.05267 4.53189C2.05267 4.53189 2.05267 4.53189 2.05267 4.53189C2.05267 4.53189 2.05267 4.53189 2.05267 4.53189C2.05267 4.53189 2.05267 4.53189 2.05267 4.53189C2.05267 4.53189 2.05267 4.53189 2.05267 4.53189C2.05267 4.53189 2.05267 4.53189 2.05267 4.53189C2.05267 4.53189 2.05267 4.53189 2.05267 4.53189C2.05267 4.53189 2.05267 4.53189 2.05267 4.53189C2.05267 4.53189 2.05267 4.53189 2.05267 4.53189C2.05267 4.53189 2.05267 4.53189 2.05267 4.53189C2.05267 4.53189 2.05267 4.53189 2.05267 4.53189C2.05267 4.53189 2.05267 4.53189 2.05267 4.53189C2.05267 4.53188 2.05267 4.53188 2.05267 4.53188C2.05267 4.53188 2.05267 4.53188 2.05267 4.53188C2.05267 4.53188 2.05267 4.53188 2.05267 4.53188C2.05267 4.53188 2.05267 4.53188 2.05267 4.53188C2.05267 4.53188 2.05267 4.53188 2.05267 4.53188C2.05267 4.53188 2.05267 4.53188 2.05267 4.53188C2.05267 4.53188 2.05267 4.53188 2.05267 4.53188C2.05267 4.53188 2.05267 4.53188 2.05267 4.53188C2.05267 4.53188 2.05267 4.53188 2.05267 4.53188C2.05267 4.53188 2.05267 4.53188 2.05267 4.53188C2.05267 4.53188 2.05267 4.53188 2.05267 4.53188C2.05267 4.53188 2.05267 4.53188 2.05267 4.53188C2.05267 4.53188 2.05267 4.53188 2.05267 4.53188C2.05267 4.53188 2.05267 4.53188 2.05267 4.53188C2.05267 4.53188 2.05267 4.53188 2.05267 4.53188C2.05267 4.53188 2.05267 4.53188 2.05267 4.53188C2.05267 4.53188 2.05267 4.53188 2.05267 4.53188C2.05267 4.53188 2.05267 4.53188 2.05267 4.53188C2.05267 4.53188 2.05267 4.53188 2.05267 4.53188C2.05267 4.53188 2.05267 4.53188 2.05267 4.53188C2.05267 4.53188 2.05267 4.53188 2.05267 4.53188C2.05267 4.53188 2.05266 4.53188 2.05266 4.53188C2.05266 4.53188 2.05266 4.53188 2.05266 4.53188C2.05266 4.53188 2.05266 4.53188 2.05266 4.53188C2.05266 4.53188 2.05266 4.53188 2.05266 4.53188C2.05266 4.53188 2.05266 4.53188 2.05266 4.53188C2.05266 4.53188 2.05266 4.53188 2.05266 4.53188C2.05266 4.53188 2.05266 4.53188 2.05266 4.53188C2.05266 4.53188 2.05266 4.53188 2.05266 4.53188C2.05266 4.53188 2.05266 4.53188 2.05266 4.53188C2.05266 4.53188 2.05266 4.53188 2.05266 4.53188C2.05266 4.53188 2.05266 4.53188 2.05266 4.53188C2.05266 4.53188 2.05266 4.53188 2.05266 4.53188C2.05266 4.53188 2.05266 4.53188 2.05266 4.53188C2.05266 4.53188 2.05266 4.53188 2.05266 4.53188C2.05266 4.53188 2.05266 4.53188 2.05266 4.53188C2.05266 4.53188 2.05266 4.53188 2.05266 4.53188C2.05266 4.53188 2.05266 4.53188 2.05266 4.53188C2.05266 4.53188 2.05266 4.53188 2.05266 4.53188C2.05266 4.53188 2.05266 4.53188 2.05266 4.53188C2.05266 4.53188 2.05266 4.53188 2.05266 4.53188C2.05266 4.53188 2.05266 4.53188 2.05266 4.53188C2.05266 4.53188 2.05266 4.53188 2.05266 4.53188C2.05266 4.53188 2.05266 4.53188 2.05266 4.53188C2.05266 4.53188 2.05266 4.53188 2.05266 4.53188C2.05266 4.53188 2.05266 4.53188 2.05266 4.53188C2.05266 4.53188 2.05266 4.53188 2.05266 4.53188C2.05266 4.53188 2.05266 4.53188 2.05266 4.53188C2.05266 4.53188 2.05266 4.53188 2.05266 4.53188C2.05266 4.53188 2.05266 4.53188 2.05266 4.53188C2.05266 4.53187 2.05266 4.53187 2.05266 4.53187C2.05266 4.53187 2.05266 4.53187 2.05266 4.53187C2.05266 4.53187 2.05266 4.53187 2.05266 4.53187C2.05266 4.53187 2.05266 4.53187 2.05266 4.53187C2.05266 4.53187 2.05266 4.53187 2.05266 4.53187C2.05266 4.53187 2.05266 4.53187 2.05266 4.53187C2.05266 4.53187 2.05266 4.53187 2.05266 4.53187C2.05266 4.53187 2.05266 4.53187 2.05266 4.53187C2.05266 4.53187 2.05266 4.53187 2.05266 4.53187C2.05266 4.53187 2.05266 4.53187 2.05266 4.53187C2.05266 4.53187 2.05266 4.53187 2.05266 4.53187C2.05266 4.53187 2.05266 4.53187 2.05266 4.53187C2.05266 4.53187 2.05266 4.53187 2.05266 4.53187C2.05266 4.53187 2.05266 4.53187 2.05266 4.53187C2.05266 4.53187 2.05266 4.53187 2.05266 4.53187C2.05266 4.53187 2.05266 4.53187 2.05266 4.53187C2.05266 4.53187 2.05266 4.53187 2.05266 4.53187C2.05266 4.53187 2.05266 4.53187 2.05266 4.53187C2.05266 4.53187 2.05266 4.53187 2.05266 4.53187C2.05266 4.53187 2.05266 4.53187 2.05266 4.53187C2.05266 4.53187 2.05266 4.53187 2.05266 4.53187C2.05266 4.53187 2.05266 4.53187 2.05266 4.53187C2.05266 4.53187 2.05266 4.53187 2.05266 4.53187C2.05266 4.53187 2.05266 4.53187 2.05266 4.53187C2.05266 4.53187 2.05266 4.53187 2.05266 4.53187C2.05266 4.53187 2.05266 4.53187 2.05266 4.53187C2.05266 4.53187 2.05266 4.53187 2.05265 4.53187C2.05265 4.53187 2.05265 4.53187 2.05265 4.53187C2.05265 4.53187 2.05265 4.53187 2.05265 4.53187C2.05265 4.53187 2.05265 4.53187 2.05265 4.53187C2.05265 4.53187 2.05265 4.53187 2.05265 4.53187C2.05265 4.53187 2.05265 4.53187 2.05265 4.53187C2.05265 4.53187 2.05265 4.53187 2.05265 4.53187C2.05265 4.53187 2.05265 4.53187 2.05265 4.53187C2.05265 4.53187 2.05265 4.53187 2.05265 4.53187C2.05265 4.53187 2.05265 4.53187 2.05265 4.53187C2.05265 4.53187 2.05265 4.53187 2.05265 4.53187C2.05265 4.53187 2.05265 4.53187 2.05265 4.53187C2.05265 4.53187 2.05265 4.53187 2.05265 4.53187C2.05265 4.53187 2.05265 4.53187 2.05265 4.53187C2.05265 4.53187 2.05265 4.53187 2.05265 4.53187C2.05265 4.53187 2.05265 4.53187 2.05265 4.53187C2.05265 4.53187 2.05265 4.53187 2.05265 4.53187C2.05265 4.53187 2.05265 4.53187 2.05265 4.53187C2.05265 4.53187 2.05265 4.53187 2.05265 4.53187C2.05265 4.53187 2.05265 4.53187 2.05265 4.53187C2.05265 4.53187 2.05265 4.53187 2.05265 4.53187C2.05265 4.53187 2.05265 4.53187 2.05265 4.53187C2.05265 4.53187 2.05265 4.53187 2.05265 4.53187C2.05265 4.53187 2.05265 4.53187 2.05265 4.53187C2.05265 4.53187 2.05265 4.53187 2.05265 4.53187C2.05265 4.53187 2.05265 4.53187 2.05265 4.53187C2.05265 4.53187 2.05265 4.53187 2.05265 4.53187C2.05265 4.53187 2.05265 4.53187 2.05265 4.53187C2.05265 4.53187 2.05265 4.53187 2.05265 4.53187C2.05265 4.53187 2.05265 4.53187 2.05265 4.53187C2.05265 4.53187 2.05265 4.53187 2.05265 4.53187C2.05265 4.53187 2.05265 4.53187 2.05265 4.53187C2.05265 4.53187 2.05265 4.53187 2.05265 4.53187C2.05265 4.53187 2.05265 4.53187 2.05265 4.53187C2.05265 4.53187 2.05265 4.53187 2.05265 4.53187C2.05265 4.53187 2.05265 4.53187 2.05265 4.53187C2.05265 4.53187 2.05265 4.53187 2.05265 4.53186C2.05265 4.53186 2.05265 4.53186 2.05265 4.53186C2.05265 4.53186 2.05265 4.53186 2.05265 4.53186C2.05265 4.53186 2.05265 4.53186 2.05265 4.53186C2.05265 4.53186 2.05265 4.53186 2.05265 4.53186C2.05265 4.53186 2.05265 4.53186 2.05265 4.53186C2.05265 4.53186 2.05265 4.53186 2.05265 4.53186C2.05265 4.53186 2.05265 4.53186 2.05265 4.53186C2.05265 4.53186 2.05265 4.53186 2.05265 4.53186C2.05265 4.53186 2.05265 4.53186 2.05265 4.53186C2.05265 4.53186 2.05265 4.53186 2.05265 4.53186C2.05265 4.53186 2.05265 4.53186 2.05265 4.53186C2.05265 4.53186 2.05265 4.53186 2.05265 4.53186C2.05265 4.53186 2.05265 4.53186 2.05265 4.53186C2.05265 4.53186 2.05265 4.53186 2.05265 4.53186C2.05265 4.53186 2.05265 4.53186 2.05265 4.53186C2.05265 4.53186 2.05265 4.53186 2.05265 4.53186C2.05265 4.53186 2.05265 4.53186 2.05265 4.53186C2.05265 4.53186 2.05265 4.53186 2.05265 4.53186C2.05265 4.53186 2.05265 4.53186 2.05265 4.53186C2.05265 4.53186 2.05265 4.53186 2.05265 4.53186C2.05265 4.53186 2.05265 4.53186 2.05265 4.53186C2.05265 4.53186 2.05265 4.53186 2.05265 4.53186C2.05265 4.53186 2.05265 4.53186 2.05265 4.53186C2.05265 4.53186 2.05265 4.53186 2.05265 4.53186C2.05265 4.53186 2.05265 4.53186 2.05265 4.53186C2.05265 4.53186 2.05265 4.53186 2.05265 4.53186C2.05265 4.53186 2.05265 4.53186 2.05265 4.53186C2.05265 4.53186 2.05265 4.53186 2.05265 4.53186C2.05265 4.53186 2.05265 4.53186 2.05265 4.53186C2.05265 4.53186 2.05265 4.53186 2.05265 4.53186C2.05265 4.53186 2.05265 4.53186 2.05265 4.53186C2.05265 4.53186 2.05265 4.53186 2.05265 4.53186C2.05265 4.53186 2.05265 4.53186 2.05265 4.53186C2.05265 4.53186 2.05265 4.53186 2.05265 4.53186C2.05265 4.53186 2.05264 4.53186 2.05264 4.53186C2.05264 4.53186 2.05264 4.53186 2.05264 4.53186C2.05264 4.53186 2.05264 4.53186 2.05264 4.53186C2.05264 4.53186 2.05264 4.53186 2.05264 4.53186C2.05264 4.53186 2.05264 4.53186 2.05264 4.53186C2.05264 4.53186 2.05264 4.53186 2.05264 4.53186C2.05264 4.53186 2.05264 4.53186 2.05264 4.53186C2.05264 4.53186 2.05264 4.53186 2.05264 4.53186C2.05264 4.53186 2.05264 4.53186 2.05264 4.53186C2.05264 4.53186 2.05264 4.53186 2.05264 4.53186C2.05264 4.53186 2.05264 4.53186 2.05264 4.53186C2.05264 4.53186 2.05264 4.53186 2.05264 4.53186C2.05264 4.53186 2.05264 4.53186 2.05264 4.53186C2.05264 4.53186 2.05264 4.53186 2.05264 4.53186C2.05264 4.53186 2.05264 4.53186 2.05264 4.53186C2.05264 4.53186 2.05264 4.53186 2.05264 4.53186C2.05264 4.53186 2.05264 4.53186 2.05264 4.53186C2.05264 4.53186 2.05264 4.53186 2.05264 4.53186C2.05264 4.53186 2.05264 4.53186 2.05264 4.53186C2.05264 4.53186 2.05264 4.53186 2.05264 4.53186C2.05264 4.53186 2.05264 4.53186 2.05264 4.53186C2.05264 4.53186 2.05264 4.53186 2.05264 4.53186C2.05264 4.53186 2.05264 4.53186 2.05264 4.53186C2.05264 4.53186 2.05264 4.53186 2.05264 4.53186C2.05264 4.53186 2.05264 4.53186 2.05264 4.53186C2.05264 4.53186 2.05264 4.53186 2.05264 4.53186C2.05264 4.53186 2.05264 4.53186 2.05264 4.53186C2.05264 4.53186 2.05264 4.53186 2.05264 4.53186C2.05264 4.53186 2.05264 4.53186 2.05264 4.53186C2.05264 4.53186 2.05264 4.53186 2.05264 4.53186C2.05264 4.53186 2.05264 4.53186 2.05264 4.53186C2.05264 4.53186 2.05264 4.53186 2.05264 4.53186C2.05264 4.53186 2.05264 4.53186 2.05264 4.53186C2.05264 4.53186 2.05264 4.53186 2.05264 4.53186C2.05264 4.53186 2.05264 4.53186 2.05264 4.53186C2.05264 4.53186 2.05264 4.53186 2.05264 4.53186C2.05264 4.53186 2.05264 4.53186 2.05264 4.53186C2.05264 4.53186 2.05264 4.53186 2.05264 4.53186C2.05264 4.53186 2.05264 4.53186 2.05264 4.53186C2.05264 4.53186 2.05264 4.53186 2.05264 4.53186C2.05264 4.53186 2.05264 4.53186 2.05264 4.53186C2.05264 4.53186 2.05264 4.53186 2.05264 4.53186C2.05264 4.53186 2.05264 4.53186 2.05264 4.53186C2.05264 4.53186 2.05264 4.53186 2.05264 4.53186C2.05264 4.53186 2.05264 4.53186 2.05264 4.53186C2.05264 4.53186 2.05264 4.53186 2.05264 4.53186C2.05264 4.53186 2.05264 4.53186 2.05264 4.53186C2.05264 4.53186 2.05264 4.53185 2.05264 4.53185C2.05264 4.53185 2.05264 4.53185 2.05264 4.53185C2.05264 4.53185 2.05264 4.53185 2.05264 4.53185C2.05264 4.53185 2.05264 4.53185 2.05264 4.53185C2.05264 4.53185 2.05264 4.53185 2.05264 4.53185C2.05264 4.53185 2.05264 4.53185 2.05264 4.53185C2.05264 4.53185 2.05264 4.53185 2.05264 4.53185C2.05264 4.53185 2.05264 4.53185 2.05264 4.53185C2.05264 4.53185 2.05264 4.53185 2.05264 4.53185C2.05264 4.53185 2.05264 4.53185 2.05264 4.53185C2.05264 4.53185 2.05264 4.53185 2.05264 4.53185C2.05264 4.53185 2.05264 4.53185 2.05264 4.53185C2.05264 4.53185 2.05264 4.53185 2.05264 4.53185C2.05264 4.53185 2.05264 4.53185 2.05264 4.53185C2.05264 4.53185 2.05264 4.53185 2.05264 4.53185C2.05264 4.53185 2.05264 4.53185 2.05264 4.53185C2.05264 4.53185 2.05264 4.53185 2.05264 4.53185C2.05264 4.53185 2.05264 4.53185 2.05264 4.53185C2.05264 4.53185 2.05264 4.53185 2.05264 4.53185C2.05264 4.53185 2.05264 4.53185 2.05264 4.53185C2.05264 4.53185 2.05264 4.53185 2.05264 4.53185C2.05264 4.53185 2.05264 4.53185 2.05264 4.53185C2.05264 4.53185 2.05264 4.53185 2.05264 4.53185C2.05264 4.53185 2.05264 4.53185 2.05264 4.53185C2.05264 4.53185 2.05264 4.53185 2.05264 4.53185C2.05264 4.53185 2.05264 4.53185 2.05264 4.53185C2.05264 4.53185 2.05264 4.53185 2.05264 4.53185C2.05264 4.53185 2.05264 4.53185 2.05264 4.53185C2.05264 4.53185 2.05264 4.53185 2.05264 4.53185C2.05264 4.53185 2.05264 4.53185 2.05264 4.53185C2.05264 4.53185 2.05264 4.53185 2.05264 4.53185C2.05264 4.53185 2.05264 4.53185 2.05264 4.53185C2.05264 4.53185 2.05264 4.53185 2.05264 4.53185C2.05264 4.53185 2.05264 4.53185 2.05264 4.53185C2.05264 4.53185 2.05264 4.53185 2.05264 4.53185C2.05264 4.53185 2.05264 4.53185 2.05264 4.53185C2.05264 4.53185 2.05264 4.53185 2.05264 4.53185C2.05264 4.53185 2.05264 4.53185 2.05264 4.53185C2.05264 4.53185 2.05264 4.53185 2.05264 4.53185C2.05264 4.53185 2.05264 4.53185 2.05264 4.53185C2.05264 4.53185 2.05264 4.53185 2.05264 4.53185C2.05264 4.53185 2.05264 4.53185 2.05264 4.53185C2.05264 4.53185 2.05264 4.53185 2.05264 4.53185C2.05264 4.53185 2.05264 4.53185 2.05264 4.53185C2.05264 4.53185 2.05263 4.53185 2.05263 4.53185C2.05263 4.53185 2.05263 4.53185 2.05263 4.53185C2.05263 4.53185 2.05263 4.53185 2.05263 4.53185C2.05263 4.53185 2.05263 4.53185 2.05263 4.53185C2.05263 4.53185 2.05263 4.53185 2.05263 4.53185C2.05263 4.53185 2.05263 4.53185 2.05263 4.53185C2.05263 4.53185 2.05263 4.53185 2.05263 4.53185C2.05263 4.53185 2.05263 4.53185 2.05263 4.53185C2.05263 4.53185 2.05263 4.53185 2.05263 4.53185C2.05263 4.53185 2.05263 4.53185 2.05263 4.53185C2.05263 4.53185 2.05263 4.53185 2.05263 4.53185C2.05263 4.53185 2.05263 4.53185 2.05263 4.53185C2.05263 4.53185 2.05263 4.53185 2.05263 4.53185C2.05263 4.53185 2.05263 4.53185 2.05263 4.53185C2.05263 4.53185 2.05263 4.53185 2.05263 4.53185C2.05263 4.53185 2.05263 4.53185 2.05263 4.53185C2.05263 4.53185 2.05263 4.53185 2.05263 4.53185C2.05263 4.53185 2.05263 4.53185 2.05263 4.53185C2.05263 4.53185 2.05263 4.53185 2.05263 4.53185C2.05263 4.53185 2.05263 4.53185 2.05263 4.53185C2.05263 4.53185 2.05263 4.53185 2.05263 4.53185C2.05263 4.53185 2.05263 4.53185 2.05263 4.53185C2.05263 4.53185 2.05263 4.53185 2.05263 4.53185C2.05263 4.53185 2.05263 4.53185 2.05263 4.53185C2.05263 4.53185 2.05263 4.53185 2.05263 4.53185C2.05263 4.53185 2.05263 4.53185 2.05263 4.53185C2.05263 4.53185 2.05263 4.53185 2.05263 4.53185C2.05263 4.53185 2.05263 4.53185 2.05263 4.53185C2.05263 4.53185 2.05263 4.53185 2.05263 4.53185C2.05263 4.53185 2.05263 4.53185 2.05263 4.53185C2.05263 4.53185 2.05263 4.53185 2.05263 4.53185C2.05263 4.53185 2.05263 4.53185 2.05263 4.53185C2.05263 4.53185 2.05263 4.53185 2.05263 4.53185C2.05263 4.53185 2.05263 4.53185 2.05263 4.53185C2.05263 4.53185 2.05263 4.53185 2.05263 4.53185C2.05263 4.53185 2.05263 4.53185 2.05263 4.53185C2.05263 4.53185 2.05263 4.53185 2.05263 4.53185C2.05263 4.53185 2.05263 4.53185 2.05263 4.53185C2.05263 4.53185 2.05263 4.53185 2.05263 4.53185C2.05263 4.53185 2.05263 4.53185 2.05263 4.53185C2.05263 4.53185 2.05263 4.53185 2.05263 4.53185C2.05263 4.53185 2.05263 4.53185 2.05263 4.53185C2.05263 4.53185 2.05263 4.53185 2.05263 4.53185C2.05263 4.53185 2.05263 4.53185 2.05263 4.53185C2.05263 4.53185 2.05263 4.53185 2.05263 4.53185C2.05263 4.53185 2.05263 4.53185 2.05263 4.53185C2.05263 4.53185 2.05263 4.53185 2.05263 4.53185C2.05263 4.53185 2.05263 4.53185 2.05263 4.53185C2.05263 4.53185 2.05263 4.53185 2.05263 4.53185C2.05263 4.53185 2.05263 4.53185 2.05263 4.53185C2.05263 4.53185 2.05263 4.53185 2.05263 4.53185C2.05263 4.53185 2.05263 4.53185 2.05263 4.53185C2.05263 4.53185 2.05263 4.53185 2.05263 4.53185C2.05263 4.53185 2.05263 4.53185 2.05263 4.53185C2.05263 4.53185 2.05263 4.53185 2.05263 4.53184C2.05263 4.53184 2.05263 4.53184 2.05263 4.53184C2.05263 4.53184 2.05263 4.53184 2.05263 4.53184C2.05263 4.53184 2.05263 4.53184 2.05263 4.53184C2.05263 4.53184 2.05263 4.53184 2.05263 4.53184C2.05263 4.53184 2.05263 4.53184 2.05263 4.53184C2.05263 4.53184 2.05263 4.53184 2.05263 4.53184C2.05263 4.53184 2.05263 4.53184 2.05263 4.53184C2.05263 4.53184 2.05263 4.53184 2.05263 4.53184C2.05263 4.53184 2.05263 4.53184 2.05263 4.53184C2.05263 4.53184 2.05263 4.53184 2.05263 4.53184C2.05263 4.53184 2.05263 4.53184 2.05263 4.53184C2.05263 4.53184 2.05263 4.53184 2.05263 4.53184C2.05263 4.53184 2.05263 4.53184 2.05263 4.53184C2.05263 4.53184 2.05263 4.53184 2.05263 4.53184C2.05263 4.53184 2.05263 4.53184 2.05263 4.53184C2.05263 4.53184 2.05263 4.53184 2.05263 4.53184C2.05263 4.53184 2.05263 4.53184 2.05263 4.53184C2.05263 4.53184 2.05263 4.53184 2.05263 4.53184C2.05263 4.53184 2.05263 4.53184 2.05263 4.53184C2.05263 4.53184 2.05263 4.53184 2.05263 4.53184C2.05263 4.53184 2.05263 4.53184 2.05263 4.53184C2.05263 4.53184 2.05263 4.53184 2.05263 4.53184C2.05263 4.53184 2.05263 4.53184 2.05263 4.53184C2.05263 4.53184 2.05263 4.53184 2.05263 4.53184C2.05263 4.53184 2.05263 4.53184 2.05263 4.53184C2.05263 4.53184 2.05263 4.53184 2.05263 4.53184C2.05263 4.53184 2.05263 4.53184 2.05263 4.53184C2.05263 4.53184 2.05263 4.53184 2.05263 4.53184C2.05263 4.53184 2.05263 4.53184 2.05263 4.53184C2.05263 4.53184 2.05263 4.53184 2.05263 4.53184C2.05263 4.53184 2.05263 4.53184 2.05263 4.53184C2.05263 4.53184 2.05263 4.53184 2.05263 4.53184C2.05263 4.53184 2.05263 4.53184 2.05263 4.53184C2.05263 4.53184 2.05263 4.53184 2.05263 4.53184C2.05263 4.53184 2.05263 4.53184 2.05263 4.53184C2.05263 4.53184 2.05263 4.53184 2.05263 4.53184C2.05263 4.53184 2.05263 4.53184 2.05263 4.53184C2.05263 4.53184 2.05263 4.53184 2.05263 4.53184C2.05263 4.53184 2.05263 4.53184 2.05263 4.53184C2.05263 4.53184 2.05263 4.53184 2.05263 4.53184C2.05263 4.53184 2.05263 4.53184 2.05263 4.53184C2.05263 4.53184 2.05263 4.53184 2.05263 4.53184C2.05263 4.53184 2.05263 4.53184 2.05263 4.53184C2.05263 4.53184 2.05263 4.53184 2.05262 4.53184C2.05262 4.53184 2.05262 4.53184 2.05262 4.53184C2.05262 4.53184 2.05262 4.53184 2.05262 4.53184C2.05262 4.53184 2.05262 4.53184 2.05262 4.53184C2.05262 4.53184 2.05262 4.53184 2.05262 4.53184C2.05262 4.53184 2.05262 4.53184 2.05262 4.53184C2.05262 4.53184 2.05262 4.53184 2.05262 4.53184C2.05262 4.53184 2.05262 4.53184 2.05262 4.53184C2.05262 4.53184 2.05262 4.53184 2.05262 4.53184C2.05262 4.53184 2.05262 4.53184 2.05262 4.53184C2.05262 4.53184 2.05262 4.53184 2.05262 4.53184C2.05262 4.53184 2.05262 4.53184 2.05262 4.53184C2.05262 4.53184 2.05262 4.53184 2.05262 4.53184C2.05262 4.53184 2.05262 4.53184 2.05262 4.53184C2.05262 4.53184 2.05262 4.53184 2.05262 4.53184C2.05262 4.53184 2.05262 4.53184 2.05262 4.53184C2.05262 4.53184 2.05262 4.53184 2.05262 4.53184C2.05262 4.53184 2.05262 4.53184 2.05262 4.53184C2.05262 4.53184 2.05262 4.53184 2.05262 4.53184C2.05262 4.53184 2.05262 4.53184 2.05262 4.53184C2.05262 4.53184 2.05262 4.53184 2.05262 4.53184C2.05262 4.53184 2.05262 4.53184 2.05262 4.53184C2.05262 4.53184 2.05262 4.53184 2.05262 4.53184C2.05262 4.53184 2.05262 4.53184 2.05262 4.53184C2.05262 4.53184 2.05262 4.53184 2.05262 4.53184C2.05262 4.53184 2.05262 4.53184 2.05262 4.53184C2.05262 4.53184 2.05262 4.53184 2.05262 4.53184C2.05262 4.53184 2.05262 4.53184 2.05262 4.53184C2.05262 4.53184 2.05262 4.53184 2.05262 4.53184C2.05262 4.53184 2.05262 4.53184 2.05262 4.53184C2.05262 4.53184 2.05262 4.53184 2.05262 4.53184C2.05262 4.53184 2.05262 4.53184 2.05262 4.53184C2.05262 4.53184 2.05262 4.53184 2.05262 4.53184C2.05262 4.53184 2.05262 4.53184 2.05262 4.53184C2.05262 4.53184 2.05262 4.53184 2.05262 4.53184C2.05262 4.53184 2.05262 4.53184 2.05262 4.53184C2.05262 4.53184 2.05262 4.53184 2.05262 4.53184C2.05262 4.53184 2.05262 4.53184 2.05262 4.53184C2.05262 4.53184 2.05262 4.53184 2.05262 4.53184C2.05262 4.53184 2.05262 4.53184 2.05262 4.53184C2.05262 4.53184 2.05262 4.53184 2.05262 4.53184C2.05262 4.53184 2.05262 4.53184 2.05262 4.53184C2.05262 4.53184 2.05262 4.53184 2.05262 4.53184C2.05262 4.53184 2.05262 4.53184 2.05262 4.53184C2.05262 4.53184 2.05262 4.53184 2.05262 4.53184C2.05262 4.53184 2.05262 4.53184 2.05262 4.53184C2.05262 4.53184 2.05262 4.53184 2.05262 4.53184C2.05262 4.53184 2.05262 4.53184 2.05262 4.53184C2.05262 4.53184 2.05262 4.53183 2.05262 4.53183C2.05262 4.53183 2.05262 4.53183 2.05262 4.53183C2.05262 4.53183 2.05262 4.53183 2.05262 4.53183C2.05262 4.53183 2.05262 4.53183 2.05262 4.53183C2.05262 4.53183 2.05262 4.53183 2.05262 4.53183C2.05262 4.53183 2.05262 4.53183 2.05262 4.53183C2.05262 4.53183 2.05262 4.53183 2.05262 4.53183C2.05262 4.53183 2.05262 4.53183 2.05262 4.53183C2.05262 4.53183 2.05262 4.53183 2.05262 4.53183C2.05262 4.53183 2.05262 4.53183 2.05262 4.53183C2.05262 4.53183 2.05262 4.53183 2.05262 4.53183C2.05262 4.53183 2.05262 4.53183 2.05262 4.53183C2.05262 4.53183 2.05262 4.53183 2.05262 4.53183C2.05262 4.53183 2.05262 4.53183 2.05262 4.53183C2.05262 4.53183 2.05262 4.53183 2.05262 4.53183C2.05262 4.53183 2.05262 4.53183 2.05262 4.53183C2.05262 4.53183 2.05262 4.53183 2.05262 4.53183C2.05262 4.53183 2.05262 4.53183 2.05262 4.53183C2.05262 4.53183 2.05262 4.53183 2.05262 4.53183C2.05262 4.53183 2.05262 4.53183 2.05262 4.53183C2.05262 4.53183 2.05262 4.53183 2.05262 4.53183C2.05262 4.53183 2.05262 4.53183 2.05262 4.53183C2.05262 4.53183 2.05262 4.53183 2.05262 4.53183C2.05262 4.53183 2.05262 4.53183 2.05262 4.53183C2.05262 4.53183 2.05262 4.53183 2.05262 4.53183C2.05262 4.53183 2.05262 4.53183 2.05262 4.53183C2.05262 4.53183 2.05262 4.53183 2.05262 4.53183C2.05262 4.53183 2.05262 4.53183 2.05262 4.53183C2.05262 4.53183 2.05262 4.53183 2.05262 4.53183C2.05262 4.53183 2.05262 4.53183 2.05262 4.53183C2.05262 4.53183 2.05262 4.53183 2.05262 4.53183C2.05262 4.53183 2.05262 4.53183 2.05262 4.53183C2.05262 4.53183 2.05262 4.53183 2.05262 4.53183C2.05262 4.53183 2.05262 4.53183 2.05262 4.53183C2.05262 4.53183 2.05262 4.53183 2.05262 4.53183C2.05261 4.53183 2.05261 4.53183 2.05261 4.53183C2.05261 4.53183 2.05261 4.53183 2.05261 4.53183C2.05261 4.53183 2.05261 4.53183 2.05261 4.53183C2.05261 4.53183 2.05261 4.53183 2.05261 4.53183C2.05261 4.53183 2.05261 4.53183 2.05261 4.53183C2.05261 4.53183 2.05261 4.53183 2.05261 4.53183C2.05261 4.53183 2.05261 4.53183 2.05261 4.53183C2.05261 4.53183 2.05261 4.53183 2.05261 4.53183C2.05261 4.53183 2.05261 4.53183 2.05261 4.53183C2.05261 4.53183 2.05261 4.53183 2.05261 4.53183C2.05261 4.53183 2.05261 4.53183 2.05261 4.53183C2.05261 4.53183 2.05261 4.53183 2.05261 4.53183C2.05261 4.53183 2.05261 4.53183 2.05261 4.53183C2.05261 4.53183 2.05261 4.53183 2.05261 4.53183C2.05261 4.53183 2.05261 4.53183 2.05261 4.53183C2.05261 4.53183 2.05261 4.53183 2.05261 4.53183C2.05261 4.53183 2.05261 4.53183 2.05261 4.53183C2.05261 4.53183 2.05261 4.53183 2.05261 4.53183C2.05261 4.53183 2.05261 4.53183 2.05261 4.53183L0.638399 5.94604C0.638399 5.94604 0.638399 5.94604 0.638399 5.94604C0.638399 5.94604 0.638399 5.94604 0.638399 5.94604C0.638399 5.94604 0.638399 5.94604 0.638399 5.94604C0.638399 5.94604 0.638399 5.94604 0.638399 5.94604C0.638399 5.94604 0.6384 5.94604 0.6384 5.94604C0.6384 5.94604 0.6384 5.94604 0.6384 5.94604C0.6384 5.94604 0.6384 5.94604 0.6384 5.94604C0.6384 5.94604 0.6384 5.94604 0.6384 5.94604C0.6384 5.94604 0.6384 5.94604 0.6384 5.94604C0.6384 5.94604 0.6384 5.94604 0.6384 5.94604C0.6384 5.94604 0.6384 5.94604 0.6384 5.94604C0.638401 5.94604 0.638401 5.94604 0.638401 5.94604C0.638401 5.94604 0.638401 5.94604 0.638401 5.94604C0.638401 5.94604 0.638401 5.94604 0.638401 5.94604C0.638401 5.94604 0.638401 5.94604 0.638401 5.94604C0.638401 5.94604 0.638401 5.94604 0.638401 5.94604C0.638401 5.94604 0.638401 5.94604 0.638401 5.94604C0.638401 5.94604 0.638401 5.94604 0.638401 5.94604C0.638401 5.94604 0.638402 5.94604 0.638402 5.94604C0.638402 5.94604 0.638402 5.94604 0.638402 5.94604C0.638402 5.94604 0.638402 5.94604 0.638402 5.94604C0.638402 5.94604 0.638402 5.94604 0.638402 5.94604C0.638402 5.94604 0.638402 5.94604 0.638402 5.94604C0.638402 5.94604 0.638402 5.94604 0.638402 5.94604C0.638402 5.94604 0.638402 5.94604 0.638402 5.94604C0.638402 5.94604 0.638402 5.94604 0.638403 5.94604C0.638403 5.94604 0.638403 5.94604 0.638403 5.94605C0.638403 5.94605 0.638403 5.94605 0.638403 5.94605C0.638403 5.94605 0.638403 5.94605 0.638403 5.94605C0.638403 5.94605 0.638403 5.94605 0.638403 5.94605C0.638403 5.94605 0.638403 5.94605 0.638403 5.94605C0.638403 5.94605 0.638403 5.94605 0.638403 5.94605C0.638403 5.94605 0.638403 5.94605 0.638403 5.94605C0.638404 5.94605 0.638404 5.94605 0.638404 5.94605C0.638404 5.94605 0.638404 5.94605 0.638404 5.94605C0.638404 5.94605 0.638404 5.94605 0.638404 5.94605C0.638404 5.94605 0.638404 5.94605 0.638404 5.94605C0.638404 5.94605 0.638404 5.94605 0.638404 5.94605C0.638404 5.94605 0.638404 5.94605 0.638404 5.94605C0.638404 5.94605 0.638404 5.94605 0.638404 5.94605C0.638404 5.94605 0.638404 5.94605 0.638405 5.94605C0.638405 5.94605 0.638405 5.94605 0.638405 5.94605C0.638405 5.94605 0.638405 5.94605 0.638405 5.94605C0.638405 5.94605 0.638405 5.94605 0.638405 5.94605C0.638405 5.94605 0.638405 5.94605 0.638405 5.94605C0.638405 5.94605 0.638405 5.94605 0.638405 5.94605C0.638405 5.94605 0.638405 5.94605 0.638405 5.94605C0.638405 5.94605 0.638405 5.94605 0.638405 5.94605C0.638405 5.94605 0.638405 5.94605 0.638406 5.94605C0.638406 5.94605 0.638406 5.94605 0.638406 5.94605C0.638406 5.94605 0.638406 5.94605 0.638406 5.94605C0.638406 5.94605 0.638406 5.94605 0.638406 5.94605C0.638406 5.94605 0.638406 5.94605 0.638406 5.94605C0.638406 5.94605 0.638406 5.94605 0.638406 5.94605C0.638406 5.94605 0.638406 5.94605 0.638406 5.94605C0.638406 5.94605 0.638406 5.94605 0.638406 5.94605C0.638406 5.94605 0.638406 5.94605 0.638407 5.94605C0.638407 5.94605 0.638407 5.94605 0.638407 5.94605C0.638407 5.94605 0.638407 5.94605 0.638407 5.94605C0.638407 5.94605 0.638407 5.94605 0.638407 5.94605C0.638407 5.94605 0.638407 5.94605 0.638407 5.94605C0.638407 5.94605 0.638407 5.94605 0.638407 5.94605C0.638407 5.94605 0.638407 5.94605 0.638407 5.94605C0.638407 5.94605 0.638407 5.94605 0.638407 5.94605C0.638407 5.94605 0.638407 5.94605 0.638407 5.94605C0.638407 5.94605 0.638408 5.94605 0.638408 5.94605C0.638408 5.94605 0.638408 5.94605 0.638408 5.94605C0.638408 5.94605 0.638408 5.94605 0.638408 5.94605C0.638408 5.94605 0.638408 5.94605 0.638408 5.94605C0.638408 5.94605 0.638408 5.94605 0.638408 5.94605C0.638408 5.94605 0.638408 5.94605 0.638408 5.94605C0.638408 5.94605 0.638408 5.94605 0.638408 5.94605C0.638408 5.94605 0.638408 5.94605 0.638408 5.94605C0.638408 5.94605 0.638408 5.94605 0.638409 5.94605C0.638409 5.94605 0.638409 5.94605 0.638409 5.94605C0.638409 5.94605 0.638409 5.94605 0.638409 5.94605C0.638409 5.94605 0.638409 5.94605 0.638409 5.94605C0.638409 5.94605 0.638409 5.94605 0.638409 5.94605C0.638409 5.94605 0.638409 5.94605 0.638409 5.94605C0.638409 5.94605 0.638409 5.94605 0.638409 5.94605C0.638409 5.94605 0.638409 5.94605 0.638409 5.94605C0.638409 5.94605 0.638409 5.94605 0.638409 5.94605C0.638409 5.94605 0.63841 5.94605 0.63841 5.94605C0.63841 5.94605 0.63841 5.94605 0.63841 5.94605C0.63841 5.94605 0.63841 5.94605 0.63841 5.94605C0.63841 5.94605 0.63841 5.94605 0.63841 5.94605C0.63841 5.94605 0.63841 5.94605 0.63841 5.94605C0.63841 5.94605 0.63841 5.94605 0.63841 5.94605C0.63841 5.94605 0.63841 5.94605 0.63841 5.94605C0.63841 5.94605 0.63841 5.94605 0.63841 5.94605C0.63841 5.94605 0.63841 5.94605 0.63841 5.94605C0.63841 5.94605 0.638411 5.94605 0.638411 5.94605C0.638411 5.94605 0.638411 5.94605 0.638411 5.94605C0.638411 5.94605 0.638411 5.94605 0.638411 5.94605C0.638411 5.94605 0.638411 5.94605 0.638411 5.94605C0.638411 5.94605 0.638411 5.94605 0.638411 5.94605C0.638411 5.94605 0.638411 5.94605 0.638411 5.94605C0.638411 5.94605 0.638411 5.94605 0.638411 5.94605C0.638411 5.94605 0.638411 5.94605 0.638411 5.94605C0.638411 5.94605 0.638411 5.94605 0.638411 5.94605C0.638411 5.94605 0.638411 5.94605 0.638412 5.94605C0.638412 5.94605 0.638412 5.94605 0.638412 5.94605C0.638412 5.94605 0.638412 5.94605 0.638412 5.94605C0.638412 5.94605 0.638412 5.94605 0.638412 5.94605C0.638412 5.94605 0.638412 5.94605 0.638412 5.94605C0.638412 5.94605 0.638412 5.94605 0.638412 5.94605C0.638412 5.94605 0.638412 5.94605 0.638412 5.94605C0.638412 5.94605 0.638412 5.94605 0.638412 5.94605C0.638412 5.94605 0.638412 5.94605 0.638412 5.94605C0.638412 5.94605 0.638412 5.94605 0.638412 5.94605C0.638413 5.94605 0.638413 5.94605 0.638413 5.94605C0.638413 5.94605 0.638413 5.94606 0.638413 5.94606C0.638413 5.94606 0.638413 5.94606 0.638413 5.94606C0.638413 5.94606 0.638413 5.94606 0.638413 5.94606C0.638413 5.94606 0.638413 5.94606 0.638413 5.94606C0.638413 5.94606 0.638413 5.94606 0.638413 5.94606C0.638413 5.94606 0.638413 5.94606 0.638413 5.94606C0.638413 5.94606 0.638413 5.94606 0.638413 5.94606C0.638413 5.94606 0.638413 5.94606 0.638413 5.94606C0.638413 5.94606 0.638414 5.94606 0.638414 5.94606C0.638414 5.94606 0.638414 5.94606 0.638414 5.94606C0.638414 5.94606 0.638414 5.94606 0.638414 5.94606C0.638414 5.94606 0.638414 5.94606 0.638414 5.94606C0.638414 5.94606 0.638414 5.94606 0.638414 5.94606C0.638414 5.94606 0.638414 5.94606 0.638414 5.94606C0.638414 5.94606 0.638414 5.94606 0.638414 5.94606C0.638414 5.94606 0.638414 5.94606 0.638414 5.94606C0.638414 5.94606 0.638414 5.94606 0.638414 5.94606C0.638414 5.94606 0.638414 5.94606 0.638414 5.94606C0.638414 5.94606 0.638415 5.94606 0.638415 5.94606C0.638415 5.94606 0.638415 5.94606 0.638415 5.94606C0.638415 5.94606 0.638415 5.94606 0.638415 5.94606C0.638415 5.94606 0.638415 5.94606 0.638415 5.94606C0.638415 5.94606 0.638415 5.94606 0.638415 5.94606C0.638415 5.94606 0.638415 5.94606 0.638415 5.94606C0.638415 5.94606 0.638415 5.94606 0.638415 5.94606C0.638415 5.94606 0.638415 5.94606 0.638415 5.94606C0.638415 5.94606 0.638415 5.94606 0.638415 5.94606C0.638415 5.94606 0.638415 5.94606 0.638415 5.94606C0.638416 5.94606 0.638416 5.94606 0.638416 5.94606C0.638416 5.94606 0.638416 5.94606 0.638416 5.94606C0.638416 5.94606 0.638416 5.94606 0.638416 5.94606C0.638416 5.94606 0.638416 5.94606 0.638416 5.94606C0.638416 5.94606 0.638416 5.94606 0.638416 5.94606C0.638416 5.94606 0.638416 5.94606 0.638416 5.94606C0.638416 5.94606 0.638416 5.94606 0.638416 5.94606C0.638416 5.94606 0.638416 5.94606 0.638416 5.94606C0.638416 5.94606 0.638416 5.94606 0.638416 5.94606C0.638416 5.94606 0.638416 5.94606 0.638416 5.94606C0.638417 5.94606 0.638417 5.94606 0.638417 5.94606C0.638417 5.94606 0.638417 5.94606 0.638417 5.94606C0.638417 5.94606 0.638417 5.94606 0.638417 5.94606C0.638417 5.94606 0.638417 5.94606 0.638417 5.94606C0.638417 5.94606 0.638417 5.94606 0.638417 5.94606C0.638417 5.94606 0.638417 5.94606 0.638417 5.94606C0.638417 5.94606 0.638417 5.94606 0.638417 5.94606C0.638417 5.94606 0.638417 5.94606 0.638417 5.94606C0.638417 5.94606 0.638417 5.94606 0.638417 5.94606C0.638417 5.94606 0.638417 5.94606 0.638417 5.94606C0.638418 5.94606 0.638418 5.94606 0.638418 5.94606C0.638418 5.94606 0.638418 5.94606 0.638418 5.94606C0.638418 5.94606 0.638418 5.94606 0.638418 5.94606C0.638418 5.94606 0.638418 5.94606 0.638418 5.94606C0.638418 5.94606 0.638418 5.94606 0.638418 5.94606C0.638418 5.94606 0.638418 5.94606 0.638418 5.94606C0.638418 5.94606 0.638418 5.94606 0.638418 5.94606C0.638418 5.94606 0.638418 5.94606 0.638418 5.94606C0.638418 5.94606 0.638418 5.94606 0.638418 5.94606C0.638418 5.94606 0.638418 5.94606 0.638418 5.94606C0.638419 5.94606 0.638419 5.94606 0.638419 5.94606C0.638419 5.94606 0.638419 5.94606 0.638419 5.94606C0.638419 5.94606 0.638419 5.94606 0.638419 5.94606C0.638419 5.94606 0.638419 5.94606 0.638419 5.94606C0.638419 5.94606 0.638419 5.94606 0.638419 5.94606C0.638419 5.94606 0.638419 5.94606 0.638419 5.94606C0.638419 5.94606 0.638419 5.94606 0.638419 5.94606C0.638419 5.94606 0.638419 5.94606 0.638419 5.94606C0.638419 5.94606 0.638419 5.94606 0.638419 5.94606C0.638419 5.94606 0.638419 5.94606 0.638419 5.94606C0.63842 5.94606 0.63842 5.94606 0.63842 5.94606C0.63842 5.94606 0.63842 5.94606 0.63842 5.94606C0.63842 5.94606 0.63842 5.94606 0.63842 5.94606C0.63842 5.94606 0.63842 5.94606 0.63842 5.94606C0.63842 5.94606 0.63842 5.94606 0.63842 5.94606C0.63842 5.94606 0.63842 5.94606 0.63842 5.94606C0.63842 5.94606 0.63842 5.94606 0.63842 5.94606C0.63842 5.94606 0.63842 5.94606 0.63842 5.94606C0.63842 5.94606 0.63842 5.94606 0.63842 5.94606C0.63842 5.94606 0.63842 5.94606 0.63842 5.94606C0.638421 5.94606 0.638421 5.94606 0.638421 5.94606C0.638421 5.94606 0.638421 5.94606 0.638421 5.94606C0.638421 5.94606 0.638421 5.94606 0.638421 5.94606C0.638421 5.94606 0.638421 5.94606 0.638421 5.94606C0.638421 5.94606 0.638421 5.94606 0.638421 5.94606C0.638421 5.94606 0.638421 5.94606 0.638421 5.94606C0.638421 5.94606 0.638421 5.94606 0.638421 5.94606C0.638421 5.94606 0.638421 5.94606 0.638421 5.94606C0.638421 5.94606 0.638421 5.94606 0.638421 5.94606C0.638421 5.94606 0.638421 5.94606 0.638421 5.94606C0.638422 5.94606 0.638422 5.94606 0.638422 5.94606C0.638422 5.94606 0.638422 5.94606 0.638422 5.94606C0.638422 5.94606 0.638422 5.94606 0.638422 5.94606C0.638422 5.94606 0.638422 5.94606 0.638422 5.94606C0.638422 5.94606 0.638422 5.94606 0.638422 5.94606C0.638422 5.94606 0.638422 5.94606 0.638422 5.94606C0.638422 5.94606 0.638422 5.94606 0.638422 5.94606C0.638422 5.94606 0.638422 5.94606 0.638422 5.94606C0.638422 5.94606 0.638422 5.94606 0.638422 5.94606C0.638422 5.94606 0.638422 5.94606 0.638422 5.94606C0.638423 5.94606 0.638423 5.94606 0.638423 5.94606C0.638423 5.94606 0.638423 5.94607 0.638423 5.94607C0.638423 5.94607 0.638423 5.94607 0.638423 5.94607C0.638423 5.94607 0.638423 5.94607 0.638423 5.94607C0.638423 5.94607 0.638423 5.94607 0.638423 5.94607C0.638423 5.94607 0.638423 5.94607 0.638423 5.94607C0.638423 5.94607 0.638423 5.94607 0.638423 5.94607C0.638423 5.94607 0.638423 5.94607 0.638423 5.94607C0.638423 5.94607 0.638423 5.94607 0.638423 5.94607C0.638423 5.94607 0.638423 5.94607 0.638424 5.94607C0.638424 5.94607 0.638424 5.94607 0.638424 5.94607C0.638424 5.94607 0.638424 5.94607 0.638424 5.94607C0.638424 5.94607 0.638424 5.94607 0.638424 5.94607C0.638424 5.94607 0.638424 5.94607 0.638424 5.94607C0.638424 5.94607 0.638424 5.94607 0.638424 5.94607C0.638424 5.94607 0.638424 5.94607 0.638424 5.94607C0.638424 5.94607 0.638424 5.94607 0.638424 5.94607C0.638424 5.94607 0.638424 5.94607 0.638424 5.94607C0.638424 5.94607 0.638424 5.94607 0.638424 5.94607C0.638424 5.94607 0.638425 5.94607 0.638425 5.94607C0.638425 5.94607 0.638425 5.94607 0.638425 5.94607C0.638425 5.94607 0.638425 5.94607 0.638425 5.94607C0.638425 5.94607 0.638425 5.94607 0.638425 5.94607C0.638425 5.94607 0.638425 5.94607 0.638425 5.94607C0.638425 5.94607 0.638425 5.94607 0.638425 5.94607C0.638425 5.94607 0.638425 5.94607 0.638425 5.94607C0.638425 5.94607 0.638425 5.94607 0.638425 5.94607C0.638425 5.94607 0.638425 5.94607 0.638425 5.94607C0.638425 5.94607 0.638425 5.94607 0.638426 5.94607C0.638426 5.94607 0.638426 5.94607 0.638426 5.94607C0.638426 5.94607 0.638426 5.94607 0.638426 5.94607C0.638426 5.94607 0.638426 5.94607 0.638426 5.94607C0.638426 5.94607 0.638426 5.94607 0.638426 5.94607C0.638426 5.94607 0.638426 5.94607 0.638426 5.94607C0.638426 5.94607 0.638426 5.94607 0.638426 5.94607C0.638426 5.94607 0.638426 5.94607 0.638426 5.94607C0.638426 5.94607 0.638426 5.94607 0.638426 5.94607C0.638426 5.94607 0.638426 5.94607 0.638426 5.94607C0.638427 5.94607 0.638427 5.94607 0.638427 5.94607C0.638427 5.94607 0.638427 5.94607 0.638427 5.94607C0.638427 5.94607 0.638427 5.94607 0.638427 5.94607C0.638427 5.94607 0.638427 5.94607 0.638427 5.94607C0.638427 5.94607 0.638427 5.94607 0.638427 5.94607C0.638427 5.94607 0.638427 5.94607 0.638427 5.94607C0.638427 5.94607 0.638427 5.94607 0.638427 5.94607C0.638427 5.94607 0.638427 5.94607 0.638427 5.94607C0.638427 5.94607 0.638427 5.94607 0.638427 5.94607C0.638428 5.94607 0.638428 5.94607 0.638428 5.94607C0.638428 5.94607 0.638428 5.94607 0.638428 5.94607C0.638428 5.94607 0.638428 5.94607 0.638428 5.94607C0.638428 5.94607 0.638428 5.94607 0.638428 5.94607C0.638428 5.94607 0.638428 5.94607 0.638428 5.94607C0.638428 5.94607 0.638428 5.94607 0.638428 5.94607C0.638428 5.94607 0.638428 5.94607 0.638428 5.94607C0.638428 5.94607 0.638428 5.94607 0.638428 5.94607C0.638428 5.94607 0.638428 5.94607 0.638429 5.94607C0.638429 5.94607 0.638429 5.94607 0.638429 5.94607C0.638429 5.94607 0.638429 5.94607 0.638429 5.94607C0.638429 5.94607 0.638429 5.94607 0.638429 5.94607C0.638429 5.94607 0.638429 5.94607 0.638429 5.94607C0.638429 5.94607 0.638429 5.94607 0.638429 5.94607C0.638429 5.94607 0.638429 5.94607 0.638429 5.94607C0.638429 5.94607 0.638429 5.94607 0.638429 5.94607C0.638429 5.94607 0.638429 5.94607 0.638429 5.94607C0.638429 5.94607 0.63843 5.94607 0.63843 5.94607C0.63843 5.94607 0.63843 5.94607 0.63843 5.94607C0.63843 5.94607 0.63843 5.94607 0.63843 5.94607C0.63843 5.94607 0.63843 5.94607 0.63843 5.94607C0.63843 5.94607 0.63843 5.94607 0.63843 5.94607C0.63843 5.94607 0.63843 5.94607 0.63843 5.94607C0.63843 5.94607 0.63843 5.94607 0.63843 5.94607C0.63843 5.94607 0.63843 5.94607 0.63843 5.94607C0.63843 5.94607 0.63843 5.94607 0.638431 5.94607C0.638431 5.94607 0.638431 5.94607 0.638431 5.94607C0.638431 5.94607 0.638431 5.94607 0.638431 5.94607C0.638431 5.94607 0.638431 5.94607 0.638431 5.94607C0.638431 5.94607 0.638431 5.94607 0.638431 5.94607C0.638431 5.94607 0.638431 5.94607 0.638431 5.94607C0.638431 5.94607 0.638431 5.94607 0.638431 5.94607C0.638431 5.94607 0.638431 5.94607 0.638431 5.94607C0.638431 5.94607 0.638431 5.94607 0.638431 5.94607C0.638432 5.94607 0.638432 5.94607 0.638432 5.94607C0.638432 5.94607 0.638432 5.94607 0.638432 5.94607C0.638432 5.94607 0.638432 5.94607 0.638432 5.94607C0.638432 5.94607 0.638432 5.94607 0.638432 5.94607C0.638432 5.94607 0.638432 5.94607 0.638432 5.94607C0.638432 5.94607 0.638432 5.94607 0.638432 5.94607C0.638432 5.94607 0.638432 5.94607 0.638432 5.94607C0.638432 5.94607 0.638432 5.94607 0.638432 5.94607C0.638433 5.94607 0.638433 5.94607 0.638433 5.94607C0.638433 5.94608 0.638433 5.94608 0.638433 5.94608C0.638433 5.94608 0.638433 5.94608 0.638433 5.94608C0.638433 5.94608 0.638433 5.94608 0.638433 5.94608C0.638433 5.94608 0.638433 5.94608 0.638433 5.94608C0.638433 5.94608 0.638433 5.94608 0.638433 5.94608C0.638433 5.94608 0.638433 5.94608 0.638433 5.94608C0.638433 5.94608 0.638433 5.94608 0.638434 5.94608C0.638434 5.94608 0.638434 5.94608 0.638434 5.94608C0.638434 5.94608 0.638434 5.94608 0.638434 5.94608C0.638434 5.94608 0.638434 5.94608 0.638434 5.94608C0.638434 5.94608 0.638434 5.94608 0.638434 5.94608C0.638434 5.94608 0.638434 5.94608 0.638434 5.94608C0.638434 5.94608 0.638434 5.94608 0.638434 5.94608C0.638434 5.94608 0.638434 5.94608 0.638434 5.94608C0.638434 5.94608 0.638435 5.94608 0.638435 5.94608C0.638435 5.94608 0.638435 5.94608 0.638435 5.94608C0.638435 5.94608 0.638435 5.94608 0.638435 5.94608C0.638435 5.94608 0.638435 5.94608 0.638435 5.94608C0.638435 5.94608 0.638435 5.94608 0.638435 5.94608C0.638435 5.94608 0.638435 5.94608 0.638435 5.94608C0.638435 5.94608 0.638435 5.94608 0.638435 5.94608C0.638435 5.94608 0.638435 5.94608 0.638436 5.94608C0.638436 5.94608 0.638436 5.94608 0.638436 5.94608C0.638436 5.94608 0.638436 5.94608 0.638436 5.94608C0.638436 5.94608 0.638436 5.94608 0.638436 5.94608C0.638436 5.94608 0.638436 5.94608 0.638436 5.94608C0.638436 5.94608 0.638436 5.94608 0.638436 5.94608C0.638436 5.94608 0.638436 5.94608 0.638436 5.94608C0.638436 5.94608 0.638436 5.94608 0.638437 5.94608C0.638437 5.94608 0.638437 5.94608 0.638437 5.94608C0.638437 5.94608 0.638437 5.94608 0.638437 5.94608C0.638437 5.94608 0.638437 5.94608 0.638437 5.94608C0.638437 5.94608 0.638437 5.94608 0.638437 5.94608C0.638437 5.94608 0.638437 5.94608 0.638437 5.94608C0.638437 5.94608 0.638437 5.94608 0.638437 5.94608C0.638437 5.94608 0.638437 5.94608 0.638438 5.94608C0.638438 5.94608 0.638438 5.94608 0.638438 5.94608C0.638438 5.94608 0.638438 5.94608 0.638438 5.94608C0.638438 5.94608 0.638438 5.94608 0.638438 5.94608C0.638438 5.94608 0.638438 5.94608 0.638438 5.94608C0.638438 5.94608 0.638438 5.94608 0.638438 5.94608C0.638438 5.94608 0.638438 5.94608 0.638438 5.94608C0.638438 5.94608 0.638438 5.94608 0.638439 5.94608C0.638439 5.94608 0.638439 5.94608 0.638439 5.94608C0.638439 5.94608 0.638439 5.94608 0.638439 5.94608C0.638439 5.94608 0.638439 5.94608 0.638439 5.94608C0.638439 5.94608 0.638439 5.94608 0.638439 5.94608C0.638439 5.94608 0.638439 5.94608 0.638439 5.94608C0.638439 5.94608 0.638439 5.94608 0.638439 5.94608C0.63844 5.94608 0.63844 5.94608 0.63844 5.94608C0.63844 5.94608 0.63844 5.94608 0.63844 5.94608C0.63844 5.94608 0.63844 5.94608 0.63844 5.94608C0.63844 5.94608 0.63844 5.94608 0.63844 5.94608C0.63844 5.94608 0.63844 5.94608 0.63844 5.94608C0.63844 5.94608 0.63844 5.94608 0.63844 5.94608C0.63844 5.94608 0.638441 5.94608 0.638441 5.94608C0.638441 5.94608 0.638441 5.94608 0.638441 5.94608C0.638441 5.94608 0.638441 5.94608 0.638441 5.94608C0.638441 5.94608 0.638441 5.94608 0.638441 5.94608C0.638441 5.94608 0.638441 5.94608 0.638441 5.94608C0.638441 5.94608 0.638441 5.94608 0.638441 5.94608C0.638441 5.94608 0.638441 5.94608 0.638441 5.94608C0.638442 5.94608 0.638442 5.94608 0.638442 5.94608C0.638442 5.94608 0.638442 5.94608 0.638442 5.94608C0.638442 5.94608 0.638442 5.94608 0.638442 5.94608C0.638442 5.94608 0.638442 5.94608 0.638442 5.94608C0.638442 5.94608 0.638442 5.94608 0.638442 5.94608C0.638442 5.94608 0.638442 5.94608 0.638442 5.94608C0.638443 5.94608 0.638443 5.94608 0.638443 5.94609C0.638443 5.94609 0.638443 5.94609 0.638443 5.94609C0.638443 5.94609 0.638443 5.94609 0.638443 5.94609C0.638443 5.94609 0.638443 5.94609 0.638443 5.94609C0.638443 5.94609 0.638443 5.94609 0.638443 5.94609C0.638443 5.94609 0.638443 5.94609 0.638443 5.94609C0.638444 5.94609 0.638444 5.94609 0.638444 5.94609C0.638444 5.94609 0.638444 5.94609 0.638444 5.94609C0.638444 5.94609 0.638444 5.94609 0.638444 5.94609C0.638444 5.94609 0.638444 5.94609 0.638444 5.94609C0.638444 5.94609 0.638444 5.94609 0.638444 5.94609C0.638444 5.94609 0.638444 5.94609 0.638445 5.94609C0.638445 5.94609 0.638445 5.94609 0.638445 5.94609C0.638445 5.94609 0.638445 5.94609 0.638445 5.94609C0.638445 5.94609 0.638445 5.94609 0.638445 5.94609C0.638445 5.94609 0.638445 5.94609 0.638445 5.94609C0.638445 5.94609 0.638445 5.94609 0.638445 5.94609C0.638445 5.94609 0.638446 5.94609 0.638446 5.94609C0.638446 5.94609 0.638446 5.94609 0.638446 5.94609C0.638446 5.94609 0.638446 5.94609 0.638446 5.94609C0.638446 5.94609 0.638446 5.94609 0.638446 5.94609C0.638446 5.94609 0.638446 5.94609 0.638446 5.94609C0.638446 5.94609 0.638446 5.94609 0.638446 5.94609C0.638447 5.94609 0.638447 5.94609 0.638447 5.94609C0.638447 5.94609 0.638447 5.94609 0.638447 5.94609C0.638447 5.94609 0.638447 5.94609 0.638447 5.94609C0.638447 5.94609 0.638447 5.94609 0.638447 5.94609C0.638447 5.94609 0.638447 5.94609 0.638447 5.94609C0.638447 5.94609 0.638447 5.94609 0.638448 5.94609C0.638448 5.94609 0.638448 5.94609 0.638448 5.94609C0.638448 5.94609 0.638448 5.94609 0.638448 5.94609C0.638448 5.94609 0.638448 5.94609 0.638448 5.94609C0.638448 5.94609 0.638448 5.94609 0.638448 5.94609C0.638448 5.94609 0.638448 5.94609 0.638449 5.94609C0.638449 5.94609 0.638449 5.94609 0.638449 5.94609C0.638449 5.94609 0.638449 5.94609 0.638449 5.94609C0.638449 5.94609 0.638449 5.94609 0.638449 5.94609C0.638449 5.94609 0.638449 5.94609 0.638449 5.94609C0.638449 5.94609 0.638449 5.94609 0.638449 5.94609C0.63845 5.94609 0.63845 5.94609 0.63845 5.94609C0.63845 5.94609 0.63845 5.94609 0.63845 5.94609C0.63845 5.94609 0.63845 5.94609 0.63845 5.94609C0.63845 5.94609 0.63845 5.94609 0.63845 5.94609C0.63845 5.94609 0.63845 5.94609 0.63845 5.94609C0.638451 5.94609 0.638451 5.94609 0.638451 5.94609C0.638451 5.94609 0.638451 5.94609 0.638451 5.94609C0.638451 5.94609 0.638451 5.94609 0.638451 5.94609C0.638451 5.94609 0.638451 5.94609 0.638451 5.94609C0.638451 5.94609 0.638451 5.94609 0.638451 5.94609C0.638452 5.94609 0.638452 5.94609 0.638452 5.94609C0.638452 5.94609 0.638452 5.94609 0.638452 5.94609C0.638452 5.94609 0.638452 5.94609 0.638452 5.94609C0.638452 5.94609 0.638452 5.94609 0.638452 5.94609C0.638452 5.94609 0.638452 5.94609 0.638452 5.94609C0.638453 5.94609 0.638453 5.94609 0.638453 5.9461C0.638453 5.9461 0.638453 5.9461 0.638453 5.9461C0.638453 5.9461 0.638453 5.9461 0.638453 5.9461C0.638453 5.9461 0.638453 5.9461 0.638453 5.9461C0.638453 5.9461 0.638453 5.9461 0.638454 5.9461C0.638454 5.9461 0.638454 5.9461 0.638454 5.9461C0.638454 5.9461 0.638454 5.9461 0.638454 5.9461C0.638454 5.9461 0.638454 5.9461 0.638454 5.9461C0.638454 5.9461 0.638454 5.9461 0.638454 5.9461C0.638454 5.9461 0.638455 5.9461 0.638455 5.9461C0.638455 5.9461 0.638455 5.9461 0.638455 5.9461C0.638455 5.9461 0.638455 5.9461 0.638455 5.9461C0.638455 5.9461 0.638455 5.9461 0.638455 5.9461C0.638455 5.9461 0.638455 5.9461 0.638455 5.9461C0.638456 5.9461 0.638456 5.9461 0.638456 5.9461C0.638456 5.9461 0.638456 5.9461 0.638456 5.9461C0.638456 5.9461 0.638456 5.9461 0.638456 5.9461C0.638456 5.9461 0.638456 5.9461 0.638456 5.9461C0.638456 5.9461 0.638456 5.9461 0.638457 5.9461C0.638457 5.9461 0.638457 5.9461 0.638457 5.9461C0.638457 5.9461 0.638457 5.9461 0.638457 5.9461C0.638457 5.9461 0.638457 5.9461 0.638457 5.9461C0.638457 5.9461 0.638457 5.9461 0.638457 5.9461C0.638458 5.9461 0.638458 5.9461 0.638458 5.9461C0.638458 5.9461 0.638458 5.9461 0.638458 5.9461C0.638458 5.9461 0.638458 5.9461 0.638458 5.9461C0.638458 5.9461 0.638458 5.9461 0.638458 5.9461C0.638458 5.9461 0.638459 5.9461 0.638459 5.9461C0.638459 5.9461 0.638459 5.9461 0.638459 5.9461C0.638459 5.9461 0.638459 5.9461 0.638459 5.9461C0.638459 5.9461 0.638459 5.9461 0.638459 5.9461C0.638459 5.9461 0.638459 5.9461 0.63846 5.9461C0.63846 5.9461 0.63846 5.9461 0.63846 5.9461C0.63846 5.9461 0.63846 5.9461 0.63846 5.9461C0.63846 5.9461 0.63846 5.9461 0.63846 5.9461C0.63846 5.9461 0.63846 5.9461 0.63846 5.9461C0.638461 5.9461 0.638461 5.9461 0.638461 5.9461C0.638461 5.9461 0.638461 5.9461 0.638461 5.9461C0.638461 5.9461 0.638461 5.9461 0.638461 5.9461C0.638461 5.9461 0.638461 5.9461 0.638461 5.9461C0.638462 5.9461 0.638462 5.9461 0.638462 5.9461C0.638462 5.9461 0.638462 5.9461 0.638462 5.9461C0.638462 5.9461 0.638462 5.9461 0.638462 5.9461C0.638462 5.9461 0.638462 5.9461 0.638462 5.9461C0.638463 5.9461 0.638463 5.9461 0.638463 5.94611C0.638463 5.94611 0.638463 5.94611 0.638463 5.94611C0.638463 5.94611 0.638463 5.94611 0.638463 5.94611C0.638463 5.94611 0.638463 5.94611 0.638463 5.94611C0.638464 5.94611 0.638464 5.94611 0.638464 5.94611C0.638464 5.94611 0.638464 5.94611 0.638464 5.94611C0.638464 5.94611 0.638464 5.94611 0.638464 5.94611C0.638464 5.94611 0.638464 5.94611 0.638464 5.94611C0.638465 5.94611 0.638465 5.94611 0.638465 5.94611C0.638465 5.94611 0.638465 5.94611 0.638465 5.94611C0.638465 5.94611 0.638465 5.94611 0.638465 5.94611C0.638465 5.94611 0.638465 5.94611 0.638465 5.94611C0.638466 5.94611 0.638466 5.94611 0.638466 5.94611C0.638466 5.94611 0.638466 5.94611 0.638466 5.94611C0.638466 5.94611 0.638466 5.94611 0.638466 5.94611C0.638466 5.94611 0.638466 5.94611 0.638467 5.94611C0.638467 5.94611 0.638467 5.94611 0.638467 5.94611C0.638467 5.94611 0.638467 5.94611 0.638467 5.94611C0.638467 5.94611 0.638467 5.94611 0.638467 5.94611C0.638467 5.94611 0.638467 5.94611 0.638468 5.94611C0.638468 5.94611 0.638468 5.94611 0.638468 5.94611C0.638468 5.94611 0.638468 5.94611 0.638468 5.94611C0.638468 5.94611 0.638468 5.94611 0.638468 5.94611C0.638468 5.94611 0.638469 5.94611 0.638469 5.94611C0.638469 5.94611 0.638469 5.94611 0.638469 5.94611C0.638469 5.94611 0.638469 5.94611 0.638469 5.94611C0.638469 5.94611 0.638469 5.94611 0.638469 5.94611C0.63847 5.94611 0.63847 5.94611 0.63847 5.94611C0.63847 5.94611 0.63847 5.94611 0.63847 5.94611C0.63847 5.94611 0.63847 5.94611 0.63847 5.94611C0.63847 5.94611 0.638471 5.94611 0.638471 5.94611C0.638471 5.94611 0.638471 5.94611 0.638471 5.94611C0.638471 5.94611 0.638471 5.94611 0.638471 5.94611C0.638471 5.94611 0.638471 5.94611 0.638471 5.94611C0.638472 5.94611 0.638472 5.94611 0.638472 5.94611C0.638472 5.94611 0.638472 5.94611 0.638472 5.94611C0.638472 5.94611 0.638472 5.94611 0.638472 5.94611C0.638472 5.94611 0.638472 5.94611 0.638473 5.94611C0.638473 5.94612 0.638473 5.94612 0.638473 5.94612C0.638473 5.94612 0.638473 5.94612 0.638473 5.94612C0.638473 5.94612 0.638473 5.94612 0.638473 5.94612C0.638474 5.94612 0.638474 5.94612 0.638474 5.94612C0.638474 5.94612 0.638474 5.94612 0.638474 5.94612C0.638474 5.94612 0.638474 5.94612 0.638474 5.94612C0.638474 5.94612 0.638475 5.94612 0.638475 5.94612C0.638475 5.94612 0.638475 5.94612 0.638475 5.94612C0.638475 5.94612 0.638475 5.94612 0.638475 5.94612L2.05269 4.5319Z" fill="#6B6B6B" mask="url(#path-8-inside-3_5254_56055)"/>
    <path d="M12.0982 14.7176C12.1035 14.7124 12.1085 14.707 12.1134 14.7013M12.0982 14.7176L11.9016 14.5206L12.0547 14.6527C12.055 14.6524 12.0553 14.6521 12.0556 14.6518M12.0982 14.7176L11.8988 14.5182L11.8943 14.5143L11.8943 14.5143L11.7899 14.4242L11.7338 14.3758L11.6762 14.3261M12.0982 14.7176C11.9917 14.824 11.8212 14.8304 11.707 14.7323C11.5863 14.6287 11.5725 14.4468 11.6762 14.3261M12.1134 14.7013L12.0556 14.6518M12.1134 14.7013C12.5043 14.2482 12.6977 13.6575 12.6505 13.0609L12.1134 14.7013ZM12.0556 14.6518C12.0555 14.6518 12.0555 14.6518 12.0555 14.6518L12.0036 14.6073L12.0036 14.6073L11.8951 14.5141L12.0556 14.6518ZM11.6762 14.3261L11.7339 14.3757L11.6762 14.3261ZM11.8924 14.5118L11.7339 14.3757C11.7342 14.3754 11.7345 14.375 11.7348 14.3747C11.7379 14.3712 11.7412 14.3676 11.7447 14.3641L11.884 14.5034L11.8924 14.5118ZM12.5671 13.0673L12.5688 13.0672L12.5671 13.0673ZM12.1482 13.0499L12.1482 13.05L12.1482 13.0499Z" stroke="#6B6B6B"/>
    <mask id="path-11-inside-4_5254_56055" fill="white">
        <path d="M12.8784 14.9312C12.9926 15.0292 13.1629 15.0228 13.2694 14.9165C13.2746 14.9113 13.2797 14.9059 13.2846 14.9002C13.6755 14.4472 13.8689 13.8565 13.8216 13.2599L13.8179 13.2106C13.8077 13.0519 13.6707 12.9314 13.512 12.9416C13.3532 12.9519 13.2328 13.0888 13.243 13.2476C13.2431 13.2499 13.2433 13.2522 13.2435 13.2545L13.2473 13.3038C13.2824 13.748 13.1384 14.1877 12.8473 14.525C12.7437 14.6458 12.7576 14.8276 12.8784 14.9312Z"/>
    </mask>
    <path d="M12.8784 14.9312L12.2271 15.6901L12.2271 15.6901L12.8784 14.9312ZM13.2694 14.9165L13.9757 15.6245L13.9765 15.6237L13.2694 14.9165ZM13.2846 14.9002L14.0409 15.5544L14.0417 15.5535L13.2846 14.9002ZM13.8216 13.2599L12.8245 13.3356L12.8248 13.3389L13.8216 13.2599ZM13.8179 13.2106L12.8199 13.2748L12.8208 13.2864L13.8179 13.2106ZM13.243 13.2476L12.245 13.3118L12.2452 13.3141L13.243 13.2476ZM13.2435 13.2545L14.2406 13.1783L14.2405 13.1778L13.2435 13.2545ZM13.2473 13.3038L12.2502 13.38L12.2504 13.3827L13.2473 13.3038ZM12.8473 14.525L12.0902 13.8718L12.0885 13.8737L12.8473 14.525ZM12.2271 15.6901C12.7378 16.1284 13.4995 16.0995 13.9757 15.6245L12.5632 14.2086C12.8263 13.9461 13.2473 13.9301 13.5296 14.1724L12.2271 15.6901ZM13.9765 15.6237C14.0002 15.6 14.0216 15.5768 14.0409 15.5544L12.5282 14.2461C12.5378 14.235 12.5491 14.2226 12.5623 14.2094L13.9765 15.6237ZM14.0417 15.5535C14.6072 14.8982 14.8869 14.0438 14.8185 13.1809L12.8248 13.3389C12.8509 13.6692 12.7439 13.9962 12.5275 14.2469L14.0417 15.5535ZM14.8188 13.1841L14.815 13.1349L12.8208 13.2864L12.8245 13.3356L14.8188 13.1841ZM14.8158 13.1464C14.7702 12.4366 14.1577 11.898 13.4478 11.9437L13.5761 13.9396C13.1837 13.9648 12.8452 13.6672 12.82 13.2748L14.8158 13.1464ZM13.4478 11.9437C12.7379 11.9894 12.1994 12.6019 12.245 13.3118L14.2409 13.1834C14.2662 13.5758 13.9685 13.9143 13.5761 13.9396L13.4478 11.9437ZM12.2452 13.3141C12.2457 13.3223 12.2463 13.3297 12.2464 13.3312L14.2405 13.1778C14.2404 13.1765 14.2404 13.1766 14.2405 13.1769C14.2405 13.1774 14.2406 13.1789 14.2408 13.1811L12.2452 13.3141ZM12.2464 13.3307L12.2502 13.38L14.2443 13.2276L14.2406 13.1783L12.2464 13.3307ZM12.2504 13.3827C12.2644 13.5606 12.2068 13.7367 12.0902 13.8718L13.6045 15.1783C14.07 14.6387 14.3003 13.9354 14.2441 13.225L12.2504 13.3827ZM12.0885 13.8737C11.6251 14.4137 11.6874 15.2269 12.2271 15.6901L13.5297 14.1724C13.8278 14.4283 13.8624 14.8778 13.6062 15.1763L12.0885 13.8737Z" fill="#6B6B6B" mask="url(#path-11-inside-4_5254_56055)"/>
</svg>