<svg xmlns="http://www.w3.org/2000/svg" width="58" height="58" viewBox="0 0 58 58" fill="none">
  <path d="M50.5181 50.6125H7.48208C6.93239 50.6128 6.39236 50.468 5.91648 50.1928C5.44061 49.9177 5.04574 49.5219 4.77171 49.0454C4.49768 48.5688 4.35419 48.0285 4.35573 47.4788C4.35726 46.9291 4.50376 46.3895 4.78044 45.9145L26.2984 8.94012L26.9782 9.338L26.299 8.94302C26.574 8.47043 26.9682 8.07827 27.4421 7.80568C27.9161 7.5331 28.4533 7.38965 29.0001 7.38965C29.5469 7.38965 30.084 7.5331 30.558 7.80568C31.032 8.07827 31.4262 8.47043 31.7011 8.94302L53.2191 45.9174C53.4958 46.3924 53.6423 46.932 53.6439 47.4817C53.6454 48.0314 53.5019 48.5717 53.2279 49.0483C52.9538 49.5248 52.559 49.9206 52.0831 50.1957C51.6072 50.4709 51.0672 50.6157 50.5175 50.6154L50.5181 50.6125ZM29.0001 8.95926C28.728 8.9578 28.4604 9.02847 28.2246 9.16408C27.9887 9.29969 27.793 9.49538 27.6574 9.73124L6.13938 46.7057C6.00186 46.9417 5.92904 47.2099 5.92827 47.4831C5.9275 47.7563 5.9988 48.0249 6.135 48.2618C6.27119 48.4986 6.46744 48.6953 6.70395 48.8321C6.94047 48.9689 7.20887 49.0408 7.48208 49.0407H50.5181C50.7913 49.0408 51.0597 48.9689 51.2962 48.8321C51.5327 48.6953 51.729 48.4986 51.8652 48.2618C52.0014 48.0249 52.0727 47.7563 52.0719 47.4831C52.0711 47.2099 51.9983 46.9417 51.8608 46.7057L30.3428 9.73124C30.2072 9.49538 30.0115 9.29969 29.7756 9.16408C29.5397 9.02847 29.2721 8.9578 29.0001 8.95926Z" fill="#FF8307"/>
  <path d="M28.9999 38.623C28.2182 38.6261 27.4654 38.3279 26.8979 37.7903C26.3304 37.2527 25.9919 36.5171 25.9526 35.7364L25.2352 20.9023C25.209 20.3973 25.2867 19.8923 25.4635 19.4185C25.6403 18.9448 25.9124 18.5123 26.2629 18.1479C26.6164 17.778 27.0412 17.4835 27.5116 17.2824C27.982 17.0812 28.4883 16.9775 28.9999 16.9775C29.5116 16.9775 30.0179 17.0812 30.4883 17.2824C30.9587 17.4835 31.3835 17.778 31.737 18.1479C32.0875 18.5123 32.3596 18.9448 32.5364 19.4185C32.7132 19.8923 32.7909 20.3973 32.7647 20.9023L32.0473 35.7364C32.008 36.5171 31.6695 37.2527 31.102 37.7903C30.5345 38.3279 29.7817 38.6261 28.9999 38.623ZM28.9999 18.5492C28.7009 18.5477 28.4047 18.6075 28.1297 18.7249C27.8547 18.8423 27.6066 19.0149 27.4009 19.2319C27.1981 19.443 27.0407 19.6933 26.9382 19.9675C26.8358 20.2417 26.7905 20.534 26.8052 20.8263L27.5233 35.6604C27.5468 36.036 27.7127 36.3886 27.987 36.6463C28.2613 36.9039 28.6236 37.0474 28.9999 37.0474C29.3763 37.0474 29.7386 36.9039 30.0129 36.6463C30.2872 36.3886 30.4531 36.036 30.4766 35.6604L31.1947 20.8263C31.2094 20.534 31.1641 20.2417 31.0617 19.9675C30.9592 19.6933 30.8018 19.443 30.599 19.2319C30.3933 19.0149 30.1452 18.8423 29.8702 18.7249C29.5952 18.6075 29.299 18.5477 28.9999 18.5492Z" fill="#FF8307"/>
  <path d="M28.9999 46.061C28.4217 46.0576 27.8575 45.883 27.3784 45.5592C26.8993 45.2355 26.5268 44.7771 26.308 44.242C26.0891 43.7068 26.0336 43.1188 26.1485 42.5521C26.2634 41.9854 26.5435 41.4654 26.9536 41.0578C27.3637 40.6501 27.8853 40.3731 28.4526 40.2615C29.02 40.15 29.6077 40.209 30.1415 40.431C30.6754 40.6531 31.1316 41.0283 31.4525 41.5093C31.7733 41.9903 31.9446 42.5555 31.9446 43.1338C31.9414 43.9121 31.6296 44.6575 31.0775 45.2062C30.5255 45.755 29.7783 46.0624 28.9999 46.061ZM28.9999 41.7789C28.7326 41.7822 28.4722 41.8645 28.2515 42.0155C28.0308 42.1665 27.8597 42.3793 27.7597 42.6273C27.6597 42.8753 27.6353 43.1473 27.6895 43.4091C27.7437 43.671 27.8742 43.9109 28.0645 44.0988C28.2547 44.2866 28.4963 44.414 28.7588 44.4649C29.0213 44.5158 29.293 44.4879 29.5397 44.3848C29.7864 44.2816 29.9971 44.1078 30.1452 43.8852C30.2933 43.6626 30.3723 43.4011 30.3722 43.1338C30.3695 42.7723 30.2234 42.4266 29.9662 42.1726C29.7089 41.9186 29.3615 41.777 28.9999 41.7789Z" fill="#FF8307"/>
</svg>