<svg width="150" height="44" viewBox="0 0 150 44" fill="none" xmlns="http://www.w3.org/2000/svg">
<g id="Layer_1" clip-path="url(#clip0_9277_96370)">
<path id="Vector" d="M37.6357 0L35.4673 10.7385C35.4673 10.7385 35.3239 11.488 35.3112 11.5346C33.5394 20.6259 30.3205 30.2211 23.0348 36.45C17.8036 41.1968 9.01186 42.8609 3.62459 37.4493C1.17352 34.9934 0.0640061 31.7498 0.000725699 28.4173C-0.0270867 25.3373 0.744976 22.3032 2.24085 19.6139C2.35898 19.4106 2.4771 19.1905 2.59944 19.0041C2.72179 18.8178 2.90741 18.5129 3.06772 18.2801C3.22803 18.0472 3.39678 17.81 3.56552 17.5856C4.0778 16.9139 4.64204 16.2839 5.253 15.7013C5.62003 15.371 5.99549 15.0576 6.38361 14.7655L6.78017 14.4818C7.11767 14.2404 7.45938 14.0075 7.81375 13.7958C7.98672 13.6899 8.16812 13.5841 8.34953 13.4909C8.53093 13.3977 8.70812 13.2961 8.89374 13.203C8.77561 13.3639 8.65327 13.5248 8.53937 13.6857C8.15969 14.1981 7.8011 14.7147 7.47626 15.2397C7.15142 15.7648 6.81392 16.3068 6.51017 16.8615C6.51176 16.8742 6.51176 16.887 6.51017 16.8996C6.40893 17.0817 6.3119 17.2638 6.2233 17.4459C6.13471 17.6279 6.02924 17.8227 5.93643 18.0133C5.84362 18.2038 5.75081 18.3986 5.66222 18.5934C3.23225 23.2513 2.40538 30.4498 6.75064 33.9856C6.82236 34.0406 6.90673 34.0957 7.00376 34.1592C8.61952 35.2262 10.7078 35.4041 12.6779 34.8875C14.6821 34.2893 16.4701 33.1199 17.8247 31.5211L17.9091 31.4322C20.3813 28.6459 22.0097 24.7714 22.9715 21.5025C23.7204 18.7558 24.2591 15.9558 24.5831 13.1267L19.7948 13.0844L37.6357 0Z" fill="white"/>
<path id="Vector_2" d="M35.6797 44.0004V14.8548H41.8896V17.6157C42.514 15.7737 44.9735 14.478 48.1375 14.478C49.5289 14.4413 50.9117 14.7064 52.1917 15.2552C53.4716 15.804 54.6185 16.6236 55.554 17.658C56.5393 18.684 57.3117 19.8962 57.8266 21.2243C58.3415 22.5523 58.5886 23.9697 58.5535 25.3943C58.6165 28.2831 57.5382 31.0796 55.554 33.173C54.6079 34.1942 53.4561 35.0018 52.1753 35.542C50.8944 36.0823 49.5137 36.3428 48.1248 36.3065C44.9608 36.3065 42.5013 35.0107 41.877 33.173V44.0004H35.6797ZM50.8037 29.1799C51.3057 28.689 51.7016 28.0994 51.9665 27.4481C52.2315 26.7968 52.3598 26.0977 52.3435 25.3943C52.3605 24.6999 52.2318 24.0097 51.9658 23.3685C51.6998 22.7273 51.3024 22.1494 50.7995 21.6723C50.3068 21.166 49.7153 20.7674 49.0619 20.5014C48.4086 20.2355 47.7075 20.1079 47.0027 20.1267C46.2803 20.1085 45.5617 20.2359 44.8892 20.5014C44.2168 20.7669 43.6042 21.165 43.0877 21.6723C42.5796 22.1473 42.1763 22.724 41.9038 23.365C41.6313 24.0061 41.4957 24.6974 41.5057 25.3943C41.5001 26.0969 41.6375 26.7931 41.9095 27.4405C42.1816 28.0878 42.5825 28.6725 43.0877 29.1587C44.1465 30.1615 45.5557 30.706 47.0111 30.6747C47.7121 30.6891 48.4089 30.5624 49.0603 30.302C49.7117 30.0416 50.3045 29.6529 50.8037 29.1587V29.1799Z" fill="white"/>
<path id="Vector_3" d="M75.6314 17.6149V6.7832H81.8413V35.9288H75.6314V33.1722C75.007 35.0099 72.5475 36.3057 69.3835 36.3057C67.991 36.3363 66.6076 36.0733 65.3228 35.5335C64.038 34.9937 62.8804 34.1893 61.9248 33.1722C59.9711 31.0628 58.912 28.273 58.9718 25.3935C58.9046 22.5254 59.9655 19.7461 61.9248 17.6572C62.8713 16.6253 64.0261 15.8078 65.3123 15.2594C66.5985 14.711 67.9865 14.4444 69.3835 14.4772C72.5475 14.4772 75.007 15.7729 75.6314 17.6149ZM74.3658 29.1579C74.8844 28.6799 75.297 28.0977 75.5768 27.4492C75.8566 26.8006 75.9974 26.1002 75.99 25.3935C76.0017 24.6924 75.8627 23.997 75.5824 23.3547C75.3021 22.7124 74.8871 22.1382 74.3658 21.6715C73.8593 21.1613 73.2539 20.7609 72.587 20.4951C71.9201 20.2292 71.206 20.1036 70.4888 20.1259C69.784 20.1071 69.0829 20.2347 68.4295 20.5006C67.7762 20.7666 67.1846 21.1652 66.692 21.6715C66.189 22.1486 65.7917 22.7265 65.5257 23.3677C65.2597 24.0089 65.131 24.6992 65.1479 25.3935C65.1351 26.0936 65.2655 26.7889 65.5311 27.4364C65.7967 28.0839 66.1918 28.6698 66.692 29.1579C67.1927 29.6503 67.7867 30.037 68.4388 30.2952C69.0909 30.5534 69.788 30.6778 70.4888 30.6612C71.2049 30.6835 71.9182 30.5621 72.5868 30.3039C73.2555 30.0458 73.8661 29.6562 74.3826 29.1579H74.3658Z" fill="#F9F7FF"/>
<path id="Vector_4" d="M102.379 17.4875C103.482 18.4809 104.358 19.7014 104.948 21.0658C105.537 22.4302 105.827 23.9062 105.796 25.3932C105.823 26.8851 105.532 28.3656 104.943 29.7355C104.353 31.1055 103.479 32.3333 102.379 33.337C100.155 35.4518 97.1947 36.6085 94.1316 36.5594C91.0544 36.6174 88.0775 35.4602 85.8419 33.337C84.7547 32.3253 83.8922 31.095 83.3107 29.7262C82.7291 28.3574 82.4416 26.881 82.4669 25.3932C82.4374 23.9103 82.7231 22.4382 83.3051 21.075C83.887 19.7118 84.7519 18.4887 85.8419 17.4875C86.9419 16.4232 88.2405 15.5874 89.663 15.0279C91.0855 14.4684 92.6041 14.1962 94.1316 14.227C97.2027 14.1738 100.169 15.3465 102.379 17.4875ZM90.2546 29.3439C90.7587 29.86 91.3628 30.2672 92.0295 30.5403C92.6963 30.8134 93.4116 30.9466 94.1316 30.9318C94.8509 30.946 95.5655 30.8125 96.2314 30.5394C96.8974 30.2664 97.5008 29.8595 98.0044 29.3439C98.5189 28.8256 98.9245 28.2088 99.197 27.5301C99.4694 26.8514 99.6033 26.1247 99.5906 25.3932C99.6054 24.6705 99.4726 23.9524 99.2006 23.2832C98.9285 22.614 98.5229 22.0077 98.0086 21.5017C97.5127 20.973 96.9118 20.5548 96.2446 20.2739C95.5775 19.9931 94.8591 19.856 94.1358 19.8715C93.4119 19.8556 92.6928 19.9926 92.0249 20.2734C91.3571 20.5543 90.7554 20.9727 90.2589 21.5017C89.7446 22.0077 89.339 22.614 89.0669 23.2832C88.7948 23.9524 88.6621 24.6705 88.6768 25.3932C88.6618 26.1212 88.7938 26.8447 89.065 27.52C89.3362 28.1954 89.7409 28.8086 90.2546 29.3227V29.3439Z" fill="#F9F7FF"/>
<path id="Vector_5" d="M106.711 35.9286V14.8538H112.921V17.4876C113.794 15.6499 116.169 14.3965 119.042 14.3965C124.168 14.3965 127.083 17.657 127.083 23.1364V35.9286H120.877V23.8986C120.877 21.4341 119.502 19.9267 117.043 19.9267C116.492 19.908 115.944 20.0038 115.433 20.2081C114.921 20.4123 114.457 20.7206 114.07 21.1135C113.683 21.5065 113.381 21.9755 113.183 22.4913C112.985 23.007 112.896 23.5582 112.921 24.1103V35.9413L106.711 35.9286Z" fill="#F9F7FF"/>
<path id="Vector_6" d="M127.855 25.3517C127.855 22.0488 128.94 19.3726 131.066 17.3655C133.192 15.3584 135.938 14.3125 139.229 14.3125C142.44 14.3125 145.021 15.3584 147.021 17.4079C148.009 18.4082 148.785 19.5996 149.3 20.9098C149.816 22.22 150.061 23.6217 150.021 25.0299C150.021 25.7412 149.978 26.4103 149.936 27.037H134.044C134.167 29.5438 136.335 31.1782 139.626 31.1782C141.537 31.2038 143.381 30.4667 144.751 29.1288L148.375 32.5968C147.218 33.8345 145.816 34.8162 144.26 35.479C142.703 36.1418 141.025 36.4711 139.335 36.4459C135.875 36.4459 133.125 35.4423 131.003 33.4818C128.881 31.5212 127.855 28.8239 127.855 25.5168V25.3517ZM143.773 22.9677C143.773 21.0029 141.731 19.4573 139.229 19.4573C136.521 19.4573 134.314 21.0029 134.146 22.9677H143.773Z" fill="#F9F7FF"/>
<path id="Vector_7" d="M17.9108 31.4314C15.2193 35.4922 11.2664 37.4485 7.20376 36.4534C2.65601 35.3567 0.56775 32.4095 0.0319757 28.408C0.00416326 25.3281 0.776226 22.294 2.2721 19.6046C2.39023 19.4014 2.50835 19.1812 2.63069 18.9949C2.75304 18.8085 2.93866 18.5037 3.09897 18.2708C3.25928 18.0379 3.42803 17.8008 3.59678 17.5763C4.10905 16.9047 4.67329 16.2746 5.28425 15.692C5.65128 15.3617 6.02674 15.0484 6.41487 14.7562L6.81142 14.4725C7.14892 14.2311 7.49907 13.9982 7.84922 13.7823C8.02219 13.6764 8.20359 13.5706 8.385 13.4774C8.5664 13.3842 8.74359 13.2826 8.92921 13.1895C8.81109 13.3504 8.68874 13.5113 8.57484 13.6722L8.21203 14.1591C7.96313 14.5106 7.72266 14.8663 7.49063 15.2304C7.15314 15.7598 6.83252 16.2975 6.52455 16.8522C6.52614 16.8649 6.52614 16.8777 6.52455 16.8903C6.42752 17.0724 6.32627 17.2545 6.23768 17.4366C6.14909 17.6187 6.04362 17.8135 5.95081 18.004C5.858 18.1946 5.76519 18.3893 5.67659 18.5841C3.24662 23.242 2.41976 30.4405 6.76502 33.9763C6.83673 34.0313 6.92111 34.0864 7.01814 34.1499C8.6339 35.217 10.7222 35.3948 12.6923 34.8782C14.6909 34.2802 16.4741 33.1139 17.8264 31.5203L17.9108 31.4314Z" fill="#F9F7FF"/>
</g>
<defs>
<clipPath id="clip0_9277_96370">
<rect width="150" height="44" fill="white"/>
</clipPath>
</defs>
</svg>
