<svg width="26" height="26" viewBox="0 0 26 26" fill="none" xmlns="http://www.w3.org/2000/svg">
<rect width="26" height="26" fill="#1E1E1E"/>
<g id="no offer event details" clip-path="url(#clip0_7320_46122)">
<rect width="393" height="896" transform="translate(-35 -630)" fill="#F6F9FC"/>
<g id="Frame 1410127641">
<g id="Frame 1410127633">
<g id="Frame 1410127629">
<rect x="-11" y="-15" width="345" height="177" rx="4" fill="#FFF7EC"/>
<rect x="-11" y="-15" width="345" height="177" rx="4" stroke="#FFE0B0" stroke-linecap="round" stroke-linejoin="round" stroke-dasharray="4 4"/>
<g id="image 118_layerstyle">
<g id="Group">
<path id="Vector" d="M4.90332 1.32308C5.10331 1.22063 5.37647 1.10842 5.51305 1.07426C5.71792 1.01572 7.25932 1.00596 14.6346 1.00108C22.2782 0.996203 23.5513 1.00596 23.7806 1.06938C23.9269 1.10842 24.2147 1.22063 24.4147 1.32308C24.6683 1.44993 24.883 1.60606 25.1269 1.84512C25.3903 2.10857 25.5171 2.28909 25.6683 2.60621C25.7805 2.83552 25.8927 3.138 25.9219 3.27949C25.9512 3.42098 25.9756 4.05522 25.9756 4.7285C25.9756 5.91405 25.9756 5.92381 25.8683 5.99699C25.8049 6.03602 25.7171 6.07018 25.6732 6.07018C25.6244 6.07018 25.5415 6.02627 25.4878 5.9726C25.3951 5.8799 25.3903 5.8116 25.3903 4.77729C25.3903 4.16744 25.3659 3.56734 25.3366 3.42586C25.3073 3.28437 25.2147 3.02579 25.1269 2.85503C25.0439 2.6794 24.8586 2.4257 24.7025 2.26957C24.5464 2.10857 24.3025 1.93294 24.1171 1.84512C23.9464 1.7573 23.6879 1.6646 23.5513 1.63533C23.366 1.5963 20.7612 1.58166 14.659 1.58166C8.44951 1.58166 5.95206 1.5963 5.77158 1.63533C5.63012 1.6646 5.37159 1.76218 5.20087 1.84512C5.02526 1.92806 4.77162 2.11345 4.61553 2.26957C4.45456 2.4257 4.27896 2.66964 4.18628 2.85503C4.10335 3.02579 4.01067 3.29901 3.98141 3.46001C3.94238 3.66004 3.92775 5.65548 3.92775 9.80247C3.92775 15.0862 3.93751 15.8912 4.0058 16.1693C4.04482 16.345 4.15213 16.6133 4.23505 16.7743C4.32286 16.9304 4.51309 17.1744 4.65943 17.3159C4.80576 17.4525 5.0399 17.6232 5.1716 17.6915C5.30818 17.7598 5.50329 17.8476 5.61061 17.8818C5.77157 17.9355 7.19591 17.955 20.6831 17.9989L21.0002 18.1501C21.2002 18.2477 21.5904 18.5356 22.0733 18.9405C22.4879 19.2918 23.4001 20.0578 25.3659 21.7166L25.3805 14.4666C25.3903 7.68019 25.4 7.21182 25.4781 7.13376C25.522 7.08497 25.6098 7.04106 25.6732 7.03618C25.7366 7.02642 25.8293 7.05082 25.8829 7.08497C25.9756 7.14352 25.9756 7.28012 25.9756 14.8179C25.9756 22.0142 25.9659 22.4923 25.8878 22.5752C25.8439 22.624 25.7512 22.663 25.6829 22.6582C25.5951 22.6582 25.1512 22.3166 24.1123 21.4385C23.2147 20.6871 22.6343 20.2334 22.6001 20.2529C22.566 20.2724 22.4684 20.3358 22.3904 20.3944C22.3123 20.4529 22.1563 20.5456 22.0489 20.5993C21.9416 20.653 21.7465 20.7359 21.6099 20.7847C21.3758 20.8725 21.0343 20.8774 6.48862 20.9262L6.22034 21.0579C6.04473 21.1409 5.16184 21.8483 3.68386 23.0924C1.99125 24.517 1.38639 25 1.29371 25C1.22542 25 1.13275 24.961 1.08397 24.9122C1.00592 24.8341 0.996166 24.6829 1.00104 22.707C1.00104 20.7652 1.0108 20.5749 1.08884 20.4968C1.13275 20.4481 1.21567 20.409 1.26932 20.4139C1.32298 20.4139 1.41078 20.4432 1.46444 20.4822C1.55712 20.5505 1.562 20.6237 1.61077 24.0584L3.61069 22.3801C4.71308 21.4531 5.69841 20.6481 5.80572 20.5847C5.91303 20.5212 6.13254 20.4334 6.2935 20.3895C6.55203 20.3261 7.42516 20.3163 13.7712 20.3163C18.8149 20.3163 21.0295 20.3017 21.2051 20.2627C21.3465 20.2334 21.6051 20.1407 21.7758 20.0529C21.9465 19.9699 22.1026 19.8821 22.127 19.8528C22.1514 19.8236 21.9416 19.6138 21.5855 19.3162C21.2685 19.0478 20.8978 18.7746 20.5368 18.5844L5.65938 18.5356L5.34232 18.4282C5.16672 18.3697 4.84966 18.2038 4.63992 18.0623C4.42529 17.9208 4.17164 17.711 4.07896 17.594C3.98141 17.4817 3.82044 17.2524 3.72288 17.0817C3.62045 16.9158 3.49362 16.6133 3.43997 16.4133C3.34729 16.0571 3.34241 15.8864 3.34241 10.0367C3.34241 4.33819 3.33753 4.02107 3.25461 4.02107C3.21071 4.02107 3.03023 4.09425 2.85462 4.18207C2.67902 4.26989 2.41562 4.45529 2.26928 4.60653C2.10344 4.77241 1.93759 4.99684 1.84491 5.19199C1.76199 5.36763 1.66931 5.6262 1.64004 5.76769C1.60102 5.94333 1.58638 7.99243 1.58638 12.6468C1.59126 18.9356 1.58638 19.2723 1.50346 19.3454C1.45468 19.3894 1.36688 19.4381 1.30347 19.4577C1.2303 19.4772 1.16689 19.4577 1.0986 19.3894C1.00104 19.2918 1.00104 19.2284 1.00104 12.5493C1.00104 6.58245 1.0108 5.76769 1.07909 5.50911C1.12299 5.34811 1.23518 5.06026 1.33274 4.87487C1.44493 4.6602 1.63516 4.4065 1.85467 4.18695C2.11807 3.91862 2.28879 3.79665 2.61073 3.64052C2.83999 3.53319 3.10827 3.42586 3.20583 3.40146C3.3668 3.36731 3.39119 3.34292 3.41558 3.19167C3.43509 3.09897 3.53752 2.83552 3.64483 2.60621C3.80093 2.28909 3.92775 2.10857 4.19115 1.84512C4.43505 1.60606 4.64967 1.44993 4.90332 1.32308Z" fill="#E59927" stroke="#C08328" stroke-width="0.0487785" stroke-linecap="round"/>
<path id="Vector_2" d="M2.26936 4.60645C2.41569 4.46009 2.6791 4.26982 2.8547 4.182C3.0303 4.09418 3.21078 4.021 3.25468 4.021C3.3376 4.021 3.34248 4.33812 3.34248 10.0317C3.34248 15.8863 3.34736 16.057 3.44004 16.4132C3.4937 16.6132 3.62052 16.9157 3.72295 17.0816C3.82051 17.2524 3.98148 17.4817 4.07904 17.5939C4.17172 17.711 4.42536 17.9208 4.63999 18.0622C4.84974 18.2037 5.1668 18.3696 5.65946 18.5355L20.5369 18.5843L20.771 18.7062C20.8978 18.7746 21.2686 19.0478 21.5856 19.3161C21.9417 19.6137 22.1515 19.8235 22.1271 19.8528C22.1027 19.882 21.9466 19.9699 21.7759 20.0528C21.6051 20.1406 21.3466 20.2333 21.2052 20.2626C21.0295 20.3016 18.815 20.3163 13.7713 20.3163C7.42524 20.3163 6.5521 20.326 6.29358 20.3894C6.13261 20.4333 5.91311 20.5212 5.80579 20.5846C5.69848 20.648 4.71316 21.453 1.61085 24.0583L1.58646 22.3068C1.56207 20.6236 1.55719 20.5504 1.46451 20.4821C1.41086 20.4431 1.35232 20.4138 1.32793 20.4138C1.30842 20.4138 1.28891 20.1943 1.27915 19.926C1.2694 19.521 1.28403 19.4381 1.34257 19.4381C1.38159 19.4381 1.45476 19.399 1.50353 19.3503C1.58646 19.2722 1.59134 18.9356 1.58646 12.6419C1.58646 7.99236 1.60109 5.94325 1.64011 5.76761C1.66938 5.62613 1.76206 5.36755 1.84498 5.19191C1.93766 4.99676 2.10351 4.77233 2.26936 4.60645Z" fill="#FCC87A" stroke="#C08328" stroke-width="0.0487785" stroke-linecap="round"/>
<path id="Vector_3" d="M5.17646 1.85469C5.33743 1.77663 5.57157 1.68393 5.70815 1.64978C5.89838 1.60099 7.91293 1.59123 14.62 1.58635C20.7661 1.58148 23.3659 1.59611 23.5513 1.63514C23.6879 1.66442 23.9464 1.75711 24.1171 1.84493C24.3025 1.93275 24.5464 2.10839 24.7025 2.26939C24.8586 2.42551 25.0439 2.67921 25.1268 2.85485C25.2146 3.02561 25.3073 3.28418 25.3366 3.42567C25.3659 3.56716 25.3903 4.16725 25.3903 4.7771C25.3903 5.81141 25.3951 5.87972 25.4878 5.97241C25.5415 6.02608 25.6049 6.06999 25.6341 6.06999C25.6634 6.06999 25.6829 6.26514 25.6829 6.55787C25.6829 6.91891 25.6683 7.04575 25.6244 7.04575C25.5902 7.04088 25.522 7.07991 25.4781 7.12869C25.4 7.21163 25.3903 7.68488 25.3659 21.7164L24.0976 20.6479C23.4001 20.0576 22.4879 19.2916 22.0733 18.9403C21.5904 18.5354 21.2002 18.2475 20.6831 17.9987L13.2444 17.9743C7.19589 17.9548 5.77156 17.9353 5.61059 17.8816C5.50328 17.8475 5.30816 17.7596 5.17158 17.6913C5.03988 17.623 4.80575 17.4523 4.65941 17.3157C4.51308 17.1742 4.32284 16.9302 4.23504 16.7741C4.15212 16.6131 4.0448 16.3448 4.00578 16.1691C3.93749 15.8911 3.92773 15.0861 3.92773 9.80229C3.92773 5.65529 3.94237 3.65985 3.98139 3.45982C4.01066 3.29882 4.10334 3.02561 4.18626 2.85485C4.27894 2.66945 4.45454 2.42551 4.61551 2.26939C4.76672 2.11815 5.02037 1.93275 5.17646 1.85469Z" fill="#FFE4BD" stroke="#C08328" stroke-width="0.0487785" stroke-linecap="round"/>
<g id="Vector_4">
<path d="M7.35633 9.2167C7.41487 9.10937 7.55144 8.97764 7.65876 8.91421C7.83924 8.81176 7.91728 8.802 8.58555 8.802C9.24893 8.802 9.33674 8.81176 9.53673 8.90934C9.6977 8.99228 9.7855 9.08009 9.86842 9.2411C9.9611 9.43625 9.97573 9.53383 9.97573 10.0705C9.97573 10.6072 9.9611 10.7047 9.86842 10.8999C9.7855 11.0609 9.6977 11.1487 9.53673 11.2317C9.33674 11.3292 9.24893 11.339 8.60994 11.339C7.97094 11.339 7.88314 11.3292 7.68315 11.2317C7.53681 11.1585 7.4295 11.056 7.35633 10.9243C7.25877 10.7487 7.24414 10.6608 7.24414 10.0705C7.24414 9.48016 7.25877 9.39234 7.35633 9.2167Z" fill="#774DFD"/>
<path d="M13.4049 9.2167C13.4634 9.10937 13.6 8.97764 13.7073 8.91421C13.8878 8.81176 13.9658 8.802 14.6341 8.802C15.2975 8.802 15.3853 8.81176 15.5853 8.90934C15.7462 8.99228 15.834 9.08009 15.9169 9.2411C16.0096 9.43625 16.0243 9.53383 16.0243 10.0705C16.0243 10.6072 16.0096 10.7047 15.9169 10.8999C15.834 11.0609 15.7462 11.1487 15.5853 11.2317C15.3853 11.3292 15.2975 11.339 14.6585 11.339C14.0195 11.339 13.9317 11.3292 13.7317 11.2317C13.5853 11.1585 13.478 11.056 13.4049 10.9243C13.3073 10.7487 13.2927 10.6608 13.2927 10.0705C13.2927 9.48016 13.3073 9.39234 13.4049 9.2167Z" fill="#774DFD"/>
<path d="M19.4534 9.2167C19.5119 9.10937 19.6485 8.97764 19.7558 8.91421C19.9363 8.81176 20.0143 8.802 20.6826 8.802C21.346 8.802 21.4338 8.81176 21.6338 8.90934C21.7948 8.99228 21.8826 9.08009 21.9655 9.2411C22.0582 9.43625 22.0728 9.53383 22.0728 10.0705C22.0728 10.6072 22.0582 10.7047 21.9655 10.8999C21.8826 11.0609 21.7948 11.1487 21.6338 11.2317C21.4338 11.3292 21.346 11.339 20.707 11.339C20.068 11.339 19.9802 11.3292 19.7802 11.2317C19.6339 11.1585 19.5266 11.056 19.4534 10.9243C19.3558 10.7487 19.3412 10.6608 19.3412 10.0705C19.3412 9.48016 19.3558 9.39234 19.4534 9.2167Z" fill="#774DFD"/>
<path d="M7.35633 9.2167C7.41487 9.10937 7.55144 8.97764 7.65876 8.91421C7.83924 8.81176 7.91728 8.802 8.58555 8.802C9.24893 8.802 9.33674 8.81176 9.53673 8.90934C9.6977 8.99228 9.7855 9.08009 9.86842 9.2411C9.9611 9.43625 9.97573 9.53383 9.97573 10.0705C9.97573 10.6072 9.9611 10.7047 9.86842 10.8999C9.7855 11.0609 9.6977 11.1487 9.53673 11.2317C9.33674 11.3292 9.24893 11.339 8.60994 11.339C7.97094 11.339 7.88314 11.3292 7.68315 11.2317C7.53681 11.1585 7.4295 11.056 7.35633 10.9243C7.25877 10.7487 7.24414 10.6608 7.24414 10.0705C7.24414 9.48016 7.25877 9.39234 7.35633 9.2167Z" stroke="#774DFD" stroke-width="0.0487785" stroke-linecap="round"/>
<path d="M13.4049 9.2167C13.4634 9.10937 13.6 8.97764 13.7073 8.91421C13.8878 8.81176 13.9658 8.802 14.6341 8.802C15.2975 8.802 15.3853 8.81176 15.5853 8.90934C15.7462 8.99228 15.834 9.08009 15.9169 9.2411C16.0096 9.43625 16.0243 9.53383 16.0243 10.0705C16.0243 10.6072 16.0096 10.7047 15.9169 10.8999C15.834 11.0609 15.7462 11.1487 15.5853 11.2317C15.3853 11.3292 15.2975 11.339 14.6585 11.339C14.0195 11.339 13.9317 11.3292 13.7317 11.2317C13.5853 11.1585 13.478 11.056 13.4049 10.9243C13.3073 10.7487 13.2927 10.6608 13.2927 10.0705C13.2927 9.48016 13.3073 9.39234 13.4049 9.2167Z" stroke="#774DFD" stroke-width="0.0487785" stroke-linecap="round"/>
<path d="M19.4534 9.2167C19.5119 9.10937 19.6485 8.97764 19.7558 8.91421C19.9363 8.81176 20.0143 8.802 20.6826 8.802C21.346 8.802 21.4338 8.81176 21.6338 8.90934C21.7948 8.99228 21.8826 9.08009 21.9655 9.2411C22.0582 9.43625 22.0728 9.53383 22.0728 10.0705C22.0728 10.6072 22.0582 10.7047 21.9655 10.8999C21.8826 11.0609 21.7948 11.1487 21.6338 11.2317C21.4338 11.3292 21.346 11.339 20.707 11.339C20.068 11.339 19.9802 11.3292 19.7802 11.2317C19.6339 11.1585 19.5266 11.056 19.4534 10.9243C19.3558 10.7487 19.3412 10.6608 19.3412 10.0705C19.3412 9.48016 19.3558 9.39234 19.4534 9.2167Z" stroke="#774DFD" stroke-width="0.0487785" stroke-linecap="round"/>
</g>
</g>
</g>
</g>
</g>
</g>
</g>
<defs>
<clipPath id="clip0_7320_46122">
<rect width="393" height="896" fill="white" transform="translate(-35 -630)"/>
</clipPath>
</defs>
</svg>
