<svg width="16" height="17" viewBox="0 0 16 17" fill="none" xmlns="http://www.w3.org/2000/svg">
<path d="M10.6665 14.3334V13C10.6665 12.2928 10.3856 11.6145 9.88546 11.1144C9.38536 10.6143 8.70708 10.3334 7.99984 10.3334H3.33317C2.62593 10.3334 1.94765 10.6143 1.44755 11.1144C0.947456 11.6145 0.666504 12.2928 0.666504 13V14.3334" stroke="#774DFD" stroke-linecap="round" stroke-linejoin="round"/>
<path d="M5.66667 7.66671C7.13943 7.66671 8.33333 6.4728 8.33333 5.00004C8.33333 3.52728 7.13943 2.33337 5.66667 2.33337C4.19391 2.33337 3 3.52728 3 5.00004C3 6.4728 4.19391 7.66671 5.66667 7.66671Z" fill="#774DFD" stroke="#774DFD" stroke-linecap="round" stroke-linejoin="round"/>
<path d="M13.3335 5.66669V9.66669" stroke="#774DFD" stroke-linecap="round" stroke-linejoin="round"/>
<path d="M15.3335 7.66669H11.3335" stroke="#774DFD" stroke-linecap="round" stroke-linejoin="round"/>
</svg>
