<svg xmlns="http://www.w3.org/2000/svg" width="32" height="32" viewBox="0 0 32 32" fill="none">
  <g clip-path="url(#clip0_5428_54957)">
    <path fill-rule="evenodd" clip-rule="evenodd" d="M7.70728 3.51556H12.8635V1.40625C12.8635 0.890625 12.4415 0.46875 11.926 0.46875H8.64478C8.12928 0.46875 7.70728 0.89075 7.70728 1.40625V3.51556Z" stroke="#6B6B6B" stroke-miterlimit="22.9256"/>
    <path d="M7.70728 3.51562C6.59953 3.99488 5.48715 4.80425 4.68296 6.06181M4.23384 6.88425C3.7719 7.88581 3.48853 9.11419 3.48853 10.6093M17.0822 10.6093C17.0822 6.52019 14.9643 4.4245 12.8635 3.51562M17.0822 12.4843L15.2072 30.5938C15.1541 31.1066 14.7841 31.5313 14.2697 31.5313H11.6916M10.7542 31.5313H9.81665M8.87915 31.5313H6.30103C5.78653 31.5313 5.41659 31.1067 5.36353 30.5938L3.48853 12.4843" stroke="#6B6B6B" stroke-miterlimit="22.9256"/>
    <path fill-rule="evenodd" clip-rule="evenodd" d="M17.0822 10.6093H3.48853C2.97296 10.6093 2.55103 11.0311 2.55103 11.5468C2.55103 12.0624 2.9729 12.4843 3.48853 12.4843H17.0822C17.5978 12.4843 18.0197 12.0624 18.0197 11.5468C18.0197 11.0311 17.5978 10.6093 17.0822 10.6093Z" stroke="#6B6B6B" stroke-miterlimit="22.9256"/>
    <path d="M14.2698 8.26562H15.2073M13.3323 6.39062H14.2698" stroke="#6B6B6B" stroke-miterlimit="2.6131"/>
    <path fill-rule="evenodd" clip-rule="evenodd" d="M28.0427 29.6562H21.4802C20.9651 29.6562 20.5427 30.0781 20.5427 30.5938C20.5427 31.1094 20.9646 31.5312 21.4802 31.5312H28.0427C28.5583 31.5312 28.9802 31.1094 28.9802 30.5938C28.9802 30.0781 28.5573 29.6562 28.0427 29.6562Z" stroke="#6B6B6B" stroke-miterlimit="22.9256"/>
    <path d="M21.48 29.6563L22.8862 25.9062L21.0112 19.3438M28.5112 19.3438L26.6362 25.9062L28.0425 29.6563" stroke="#6B6B6B" stroke-miterlimit="22.9256"/>
    <path fill-rule="evenodd" clip-rule="evenodd" d="M28.5112 17.4688H21.0112C20.4961 17.4688 20.0737 17.8906 20.0737 18.4062C20.0737 18.9219 20.4956 19.3438 21.0112 19.3438H28.5112C29.0268 19.3438 29.4487 18.9219 29.4487 18.4062C29.4487 17.8906 29.0259 17.4688 28.5112 17.4688Z" stroke="#6B6B6B" stroke-miterlimit="22.9256"/>
    <path d="M22.8862 25.9062H26.6363" stroke="#6B6B6B" stroke-miterlimit="22.9256"/>
  </g>
  <defs>
    <clipPath id="clip0_5428_54957">
      <rect width="32" height="32" fill="#6B6B6B"/>
    </clipPath>
  </defs>
</svg>