<svg width="14" height="15" viewBox="0 0 14 15" fill="none" xmlns="http://www.w3.org/2000/svg">
<path d="M11.666 4.58333H2.33268C1.68835 4.58333 1.16602 5.10567 1.16602 5.75V11.5833C1.16602 12.2277 1.68835 12.75 2.33268 12.75H11.666C12.3103 12.75 12.8327 12.2277 12.8327 11.5833V5.75C12.8327 5.10567 12.3103 4.58333 11.666 4.58333Z" stroke="#350ABC" stroke-width="0.753846" stroke-linecap="round" stroke-linejoin="round"/>
<path d="M9.33268 12.75V3.41667C9.33268 3.10725 9.20977 2.8105 8.99097 2.59171C8.77218 2.37292 8.47543 2.25 8.16602 2.25H5.83268C5.52326 2.25 5.22652 2.37292 5.00772 2.59171C4.78893 2.8105 4.66602 3.10725 4.66602 3.41667V12.75" stroke="#350ABC" stroke-width="0.753846" stroke-linecap="round" stroke-linejoin="round"/>
</svg>
