<svg width="18" height="18" viewBox="0 0 18 18" fill="none" xmlns="http://www.w3.org/2000/svg">
<g clip-path="url(#clip0_268_16872)">
<path d="M12.2069 5.2168C12.3525 5.2168 12.4706 5.09874 12.4706 4.95312C12.4706 4.80751 12.3525 4.68945 12.2069 4.68945H10.4141C10.2684 4.68945 10.1504 4.80751 10.1504 4.95312C10.1504 5.09874 10.2684 5.2168 10.4141 5.2168H12.2069Z" fill="black"/>
<path d="M5.60547 9.64105H6.16839V10.204C6.16839 10.3496 6.28644 10.4676 6.43206 10.4676C6.57768 10.4676 6.69573 10.3496 6.69573 10.204V9.64105H7.25866C7.40427 9.64105 7.52233 9.52299 7.52233 9.37738C7.52233 9.23176 7.40427 9.1137 7.25866 9.1137H6.69573V8.55078C6.69573 8.40516 6.57768 8.28711 6.43206 8.28711C6.28644 8.28711 6.16839 8.40516 6.16839 8.55078V9.1137H5.60547C5.45985 9.1137 5.3418 9.23176 5.3418 9.37738C5.3418 9.52299 5.45985 9.64105 5.60547 9.64105Z" fill="black"/>
<path d="M12.3153 13.6953H10.6621C10.5165 13.6953 10.3984 13.8134 10.3984 13.959C10.3984 14.1046 10.5165 14.2227 10.6621 14.2227H12.3153C12.4609 14.2227 12.579 14.1046 12.579 13.959C12.579 13.8134 12.4609 13.6953 12.3153 13.6953Z" fill="black"/>
<path d="M12.3153 14.6406H10.6621C10.5165 14.6406 10.3984 14.7587 10.3984 14.9043C10.3984 15.0499 10.5165 15.168 10.6621 15.168H12.3153C12.4609 15.168 12.579 15.0499 12.579 14.9043C12.579 14.7587 12.4609 14.6406 12.3153 14.6406Z" fill="black"/>
<path d="M5.66124 15.2021C5.71271 15.2536 5.78021 15.2793 5.84767 15.2793C5.91514 15.2793 5.98264 15.2536 6.03411 15.2021L6.43215 14.804L6.83019 15.2021C6.88165 15.2536 6.94915 15.2793 7.01662 15.2793C7.08408 15.2793 7.15158 15.2536 7.20305 15.2021C7.30603 15.0991 7.30603 14.9322 7.20305 14.8292L6.80501 14.4311L7.20305 14.0331C7.30603 13.9301 7.30603 13.7632 7.20305 13.6602C7.10008 13.5573 6.93312 13.5573 6.83019 13.6602L6.43215 14.0583L6.03411 13.6602C5.93113 13.5573 5.76418 13.5573 5.66124 13.6602C5.55827 13.7632 5.55827 13.9302 5.66124 14.0331L6.05928 14.4311L5.66124 14.8292C5.55823 14.9322 5.55823 15.0991 5.66124 15.2021Z" fill="black"/>
<path d="M13.6548 8.30453C13.6548 7.69991 13.1629 7.20801 12.5583 7.20801H10.4129C9.80828 7.20801 9.31641 7.69991 9.31641 8.30453V10.4499C9.31641 11.0545 9.80831 11.5464 10.4129 11.5464H12.5583C13.1629 11.5464 13.6548 11.0545 13.6548 10.4499V8.30453ZM13.1274 10.4499C13.1274 10.7637 12.8721 11.0191 12.5583 11.0191H10.4129C10.0991 11.0191 9.84375 10.7637 9.84375 10.4499V8.30453C9.84375 7.99069 10.0991 7.73535 10.4129 7.73535H12.5583C12.8721 7.73535 13.1274 7.99069 13.1274 8.30453V10.4499Z" fill="black"/>
<path d="M12.3153 9.11426H10.6621C10.5165 9.11426 10.3984 9.23231 10.3984 9.37793C10.3984 9.52355 10.5165 9.6416 10.6621 9.6416H12.3153C12.4609 9.6416 12.579 9.52355 12.579 9.37793C12.579 9.23231 12.4609 9.11426 12.3153 9.11426Z" fill="black"/>
<path d="M4.26367 10.4498C4.26367 11.0545 4.75558 11.5464 5.36016 11.5464H7.50553C8.11015 11.5464 8.60206 11.0545 8.60206 10.4498V8.30447C8.60206 7.69985 8.11015 7.20795 7.50553 7.20795H5.36016C4.75554 7.20795 4.26367 7.69985 4.26367 8.30447V10.4498ZM4.79102 8.30447C4.79102 7.99063 5.04636 7.73529 5.36016 7.73529H7.50553C7.81937 7.73529 8.07471 7.99063 8.07471 8.30447V10.4498C8.07471 10.7637 7.81937 11.019 7.50553 11.019H5.36016C5.04632 11.019 4.79102 10.7637 4.79102 10.4498V8.30447Z" fill="black"/>
<path d="M4.26367 15.5036C4.26367 16.1082 4.75558 16.6001 5.36016 16.6001H7.50553C8.11015 16.6001 8.60206 16.1082 8.60206 15.5036V13.3582C8.60206 12.7536 8.11015 12.2617 7.50553 12.2617H5.36016C4.75554 12.2617 4.26367 12.7536 4.26367 13.3582V15.5036ZM4.79102 13.3582C4.79102 13.0444 5.04636 12.7891 5.36016 12.7891H7.50553C7.81937 12.7891 8.07471 13.0444 8.07471 13.3582V15.5036C8.07471 15.8175 7.81937 16.0728 7.50553 16.0728H5.36016C5.04632 16.0728 4.79102 15.8174 4.79102 15.5036V13.3582Z" fill="black"/>
<path d="M12.5583 12.2617H10.4129C9.80828 12.2617 9.31641 12.7536 9.31641 13.3582V15.5036C9.31641 16.1082 9.80831 16.6001 10.4129 16.6001H12.5583C13.1629 16.6001 13.6548 16.1082 13.6548 15.5036V13.3582C13.6548 12.7536 13.1629 12.2617 12.5583 12.2617ZM13.1274 15.5036C13.1274 15.8175 12.8721 16.0728 12.5583 16.0728H10.4129C10.0991 16.0728 9.84375 15.8174 9.84375 15.5036V13.3582C9.84375 13.0444 10.0991 12.7891 10.4129 12.7891H12.5583C12.8721 12.7891 13.1274 13.0444 13.1274 13.3582V15.5036Z" fill="black"/>
<path d="M13.9908 0H4.00779C3.21948 0 2.57812 0.641355 2.57812 1.42966V12.4034C2.57812 12.549 2.69618 12.667 2.8418 12.667C2.98741 12.667 3.10547 12.549 3.10547 12.4034V1.42966C3.10547 0.932133 3.51026 0.527344 4.00779 0.527344H13.9908C14.4883 0.527344 14.893 0.932133 14.893 1.42966V16.5704C14.893 17.0679 14.4883 17.4727 13.9908 17.4727H12.062C11.9164 17.4727 11.7983 17.5907 11.7983 17.7363C11.7983 17.8819 11.9164 18 12.062 18H13.9908C14.7791 18 15.4204 17.3586 15.4204 16.5704V1.42966C15.4204 0.641355 14.7791 0 13.9908 0Z" fill="black"/>
<path d="M10.9129 17.4729H4.00779C3.51026 17.4729 3.10547 17.0681 3.10547 16.5706V13.5527C3.10547 13.4071 2.98741 13.2891 2.8418 13.2891C2.69618 13.2891 2.57812 13.4071 2.57812 13.5527V16.5706C2.57812 17.3589 3.21948 18.0002 4.00779 18.0002H10.9129C11.0585 18.0002 11.1766 17.8822 11.1766 17.7366C11.1766 17.591 11.0585 17.4729 10.9129 17.4729Z" fill="black"/>
<path d="M5.36016 2.15842H9.8506C9.99621 2.15842 10.1143 2.04036 10.1143 1.89474C10.1143 1.74913 9.99621 1.63107 9.8506 1.63107H5.36016C4.75554 1.63107 4.26367 2.12298 4.26367 2.7276V5.24999C4.26367 5.8546 4.75558 6.34648 5.36016 6.34648H12.5604C13.1651 6.34648 13.657 5.85457 13.657 5.24999V2.7276C13.657 2.12298 13.1651 1.63107 12.5604 1.63107H10.9888C10.8432 1.63107 10.7251 1.74913 10.7251 1.89474C10.7251 2.04036 10.8432 2.15842 10.9888 2.15842H12.5604C12.8743 2.15842 13.1296 2.41376 13.1296 2.7276V5.24999C13.1296 5.56383 12.8743 5.81913 12.5604 5.81913H5.36016C5.04632 5.81913 4.79102 5.56379 4.79102 5.24999V2.7276C4.79102 2.41376 5.04632 2.15842 5.36016 2.15842Z" fill="black"/>
</g>
<defs>
<clipPath id="clip0_268_16872">
<rect width="18" height="18" fill="white"/>
</clipPath>
</defs>
</svg>
