<svg width="14" height="14" viewBox="0 0 14 14" fill="none" xmlns="http://www.w3.org/2000/svg">
<g id="note 1" clip-path="url(#clip0_268_16823)">
<path id="Vector" d="M2.95288 8.96865H8.85913C9.05249 8.96903 9.2388 8.89607 9.38048 8.76448C9.52216 8.63289 9.60866 8.45247 9.62254 8.2596C9.63642 8.06674 9.57664 7.87579 9.45526 7.72527C9.33388 7.57475 9.15993 7.47587 8.96851 7.44856V6.9999C8.97053 6.33051 8.75211 5.67907 8.34698 5.14619C7.94184 4.61331 7.37253 4.22864 6.72697 4.05159L6.78101 3.52178C6.78407 3.49127 6.78069 3.46045 6.77108 3.43133C6.76147 3.40222 6.74584 3.37544 6.72521 3.35275C6.70459 3.33006 6.67942 3.31196 6.65135 3.29963C6.62327 3.28729 6.59292 3.281 6.56226 3.28115H5.24976C5.21909 3.281 5.18874 3.28729 5.16066 3.29963C5.13259 3.31196 5.10742 3.33006 5.0868 3.35275C5.06617 3.37544 5.05054 3.40222 5.04093 3.43133C5.03132 3.46045 5.02794 3.49127 5.03101 3.52178L5.08394 4.05159C4.43861 4.22888 3.86956 4.61364 3.46465 5.14649C3.05973 5.67935 2.84145 6.33066 2.84351 6.9999V7.44856C2.65208 7.47587 2.47814 7.57475 2.35676 7.72527C2.23538 7.87579 2.17559 8.06674 2.18947 8.2596C2.20335 8.45247 2.28985 8.63289 2.43153 8.76448C2.57321 8.89607 2.75952 8.96903 2.95288 8.96865ZM7.87476 5.2615V6.1249C7.87476 6.18292 7.85171 6.23856 7.81069 6.27958C7.76966 6.32061 7.71402 6.34365 7.65601 6.34365C7.59799 6.34365 7.54235 6.32061 7.50133 6.27958C7.4603 6.23856 7.43726 6.18292 7.43726 6.1249V4.86665C7.59754 4.98132 7.74431 5.11378 7.87476 5.2615ZM6.32163 3.71865L6.16851 5.23022C6.16198 5.29553 6.13141 5.35609 6.08274 5.40014C6.03407 5.44419 5.97077 5.46858 5.90513 5.46858C5.83949 5.46858 5.77619 5.44419 5.72752 5.40014C5.67885 5.35609 5.64828 5.29553 5.64176 5.23022L5.49038 3.71865H6.32163ZM4.37476 4.86665V6.1249C4.37476 6.18292 4.35171 6.23856 4.31069 6.27958C4.26966 6.32061 4.21402 6.34365 4.15601 6.34365C4.09799 6.34365 4.04235 6.32061 4.00133 6.27958C3.9603 6.23856 3.93726 6.18292 3.93726 6.1249V5.2615C4.06771 5.11378 4.21448 4.98132 4.37476 4.86665ZM3.49976 5.94728V6.1249C3.49976 6.29895 3.5689 6.46587 3.69197 6.58894C3.81504 6.71201 3.98196 6.78115 4.15601 6.78115C4.33005 6.78115 4.49697 6.71201 4.62004 6.58894C4.74312 6.46587 4.81226 6.29895 4.81226 6.1249V4.61378C4.91524 4.5669 5.02111 4.52664 5.12922 4.49325L5.20732 5.27375C5.22468 5.44699 5.30578 5.6076 5.43489 5.72442C5.564 5.84123 5.7319 5.90591 5.90601 5.90591C6.08012 5.90591 6.24802 5.84123 6.37712 5.72442C6.50623 5.6076 6.58733 5.44699 6.60469 5.27375L6.68279 4.49325C6.79097 4.52645 6.89685 4.56671 6.99976 4.61378V6.1249C6.99976 6.29895 7.0689 6.46587 7.19197 6.58894C7.31504 6.71201 7.48196 6.78115 7.65601 6.78115C7.83005 6.78115 7.99697 6.71201 8.12004 6.58894C8.24312 6.46587 8.31226 6.29895 8.31226 6.1249V5.94728C8.45681 6.27937 8.53128 6.63772 8.53101 6.9999V7.4374H6.78101V6.78115C6.78101 6.72314 6.75796 6.6675 6.71694 6.62647C6.67591 6.58545 6.62027 6.5624 6.56226 6.5624H5.24976C5.19174 6.5624 5.1361 6.58545 5.09508 6.62647C5.05405 6.6675 5.03101 6.72314 5.03101 6.78115V7.4374H3.28101V6.9999C3.28073 6.63772 3.3552 6.27937 3.49976 5.94728ZM6.34351 7.4374H5.46851V6.9999H6.34351V7.4374ZM2.95288 7.8749H8.85913C8.94616 7.8749 9.02962 7.90947 9.09115 7.97101C9.15269 8.03254 9.18726 8.116 9.18726 8.20303C9.18726 8.29005 9.15269 8.37351 9.09115 8.43505C9.02962 8.49658 8.94616 8.53115 8.85913 8.53115H2.95288C2.86586 8.53115 2.7824 8.49658 2.72086 8.43505C2.65933 8.37351 2.62476 8.29005 2.62476 8.20303C2.62476 8.116 2.65933 8.03254 2.72086 7.97101C2.7824 7.90947 2.86586 7.8749 2.95288 7.8749Z" fill="#350ABC"/>
<path id="Vector_2" d="M1.75036 10.1901L1.46752 9.90723L1.1582 10.2165L1.5957 10.654C1.63672 10.695 1.69235 10.7181 1.75036 10.7181C1.80836 10.7181 1.86399 10.695 1.90502 10.654L2.78002 9.77904L2.4707 9.46973L1.75036 10.1901Z" fill="#350ABC"/>
<path id="Vector_3" d="M1.75036 11.9401L1.46752 11.6572L1.1582 11.9665L1.5957 12.404C1.63672 12.445 1.69235 12.4681 1.75036 12.4681C1.80836 12.4681 1.86399 12.445 1.90502 12.404L2.78002 11.529L2.4707 11.2197L1.75036 11.9401Z" fill="#350ABC"/>
<path id="Vector_4" d="M7.21875 10.2812H2.84375V10.7187H7.21875V10.2812Z" fill="#350ABC"/>
<path id="Vector_5" d="M7.21875 12.0312H2.84375V12.4687H7.21875V12.0312Z" fill="#350ABC"/>
<path id="Vector_6" d="M12.9439 6.1247C12.8338 6.12438 12.7248 6.14591 12.6232 6.18804C12.5215 6.23017 12.4293 6.29207 12.3517 6.37013L11.5938 7.12788V1.09345C11.5938 1.03543 11.5707 0.97979 11.5297 0.938767C11.4887 0.897743 11.433 0.874696 11.375 0.874696H10.6877C10.6399 0.6871 10.5311 0.520759 10.3782 0.401954C10.2254 0.283148 10.0373 0.218651 9.84375 0.218651C9.65017 0.218651 9.46211 0.283148 9.30928 0.401954C9.15645 0.520759 9.04756 0.6871 8.99981 0.874696H8.06269C8.01494 0.6871 7.90605 0.520759 7.75322 0.401954C7.60039 0.283148 7.41233 0.218651 7.21875 0.218651C7.02517 0.218651 6.83711 0.283148 6.68428 0.401954C6.53145 0.520759 6.42256 0.6871 6.37481 0.874696H5.43769C5.38994 0.6871 5.28105 0.520759 5.12822 0.401954C4.97539 0.283148 4.78733 0.218651 4.59375 0.218651C4.40017 0.218651 4.21211 0.283148 4.05928 0.401954C3.90645 0.520759 3.79756 0.6871 3.74981 0.874696H2.81269C2.76494 0.6871 2.65605 0.520759 2.50322 0.401954C2.35039 0.283148 2.16233 0.218651 1.96875 0.218651C1.77517 0.218651 1.58711 0.283148 1.43428 0.401954C1.28145 0.520759 1.17256 0.6871 1.12481 0.874696H0.4375C0.379484 0.874696 0.323844 0.897743 0.28282 0.938767C0.241797 0.97979 0.21875 1.03543 0.21875 1.09345V13.5622C0.21875 13.6202 0.241797 13.6759 0.28282 13.7169C0.323844 13.7579 0.379484 13.7809 0.4375 13.7809H11.375C11.433 13.7809 11.4887 13.7579 11.5297 13.7169C11.5707 13.6759 11.5938 13.6202 11.5938 13.5622V9.49651L13.536 7.55423C13.6532 7.43712 13.7329 7.2879 13.7652 7.12546C13.7976 6.96301 13.781 6.79463 13.7176 6.64161C13.6542 6.48859 13.5469 6.3578 13.4091 6.26579C13.2714 6.17378 13.1095 6.12468 12.9439 6.1247ZM8.40809 11.1234L8.78259 11.4979L8.22084 11.6851L8.40809 11.1234ZM9.1875 11.2841L8.62181 10.7184L12.0313 7.30901L12.5969 7.8747L9.1875 11.2841ZM9.84375 0.655946C9.92021 0.656177 9.99526 0.676509 10.0614 0.714904C10.1275 0.753299 10.1823 0.808406 10.2204 0.874696H9.46706C9.50516 0.808406 9.56001 0.753299 9.62613 0.714904C9.69224 0.676509 9.76729 0.656177 9.84375 0.655946ZM7.21875 0.655946C7.29521 0.656177 7.37026 0.676509 7.43637 0.714904C7.50249 0.753299 7.55734 0.808406 7.59544 0.874696H6.84206C6.88016 0.808406 6.93501 0.753299 7.00113 0.714904C7.06724 0.676509 7.14229 0.656177 7.21875 0.655946ZM4.59375 0.655946C4.67021 0.656177 4.74526 0.676509 4.81137 0.714904C4.87749 0.753299 4.93234 0.808406 4.97044 0.874696H4.21706C4.25516 0.808406 4.31001 0.753299 4.37613 0.714904C4.44224 0.676509 4.51729 0.656177 4.59375 0.655946ZM1.96875 0.655946C2.04521 0.656177 2.12026 0.676509 2.18637 0.714904C2.25249 0.753299 2.30734 0.808406 2.34544 0.874696H1.59206C1.63016 0.808406 1.68501 0.753299 1.75113 0.714904C1.81724 0.676509 1.89229 0.656177 1.96875 0.655946ZM2.34544 1.3122C2.30734 1.37849 2.25249 1.43359 2.18637 1.47199C2.12026 1.51038 2.04521 1.53072 1.96875 1.53095V1.96845C2.16217 1.96772 2.3499 1.90293 2.50259 1.78419C2.65529 1.66546 2.76433 1.49948 2.81269 1.3122H4.97044C4.93234 1.37849 4.87749 1.43359 4.81137 1.47199C4.74526 1.51038 4.67021 1.53072 4.59375 1.53095V1.96845C4.78717 1.96772 4.9749 1.90293 5.12759 1.78419C5.28029 1.66546 5.38933 1.49948 5.43769 1.3122H7.59544C7.55734 1.37849 7.50249 1.43359 7.43637 1.47199C7.37026 1.51038 7.29521 1.53072 7.21875 1.53095V1.96845C7.41217 1.96772 7.5999 1.90293 7.7526 1.78419C7.90529 1.66546 8.01433 1.49948 8.06269 1.3122H10.2204C10.1823 1.37849 10.1275 1.43359 10.0614 1.47199C9.99526 1.51038 9.92021 1.53072 9.84375 1.53095V1.96845C10.0372 1.96772 10.2249 1.90293 10.3776 1.78419C10.5303 1.66546 10.6393 1.49948 10.6877 1.3122H11.1563V2.40595H0.65625V1.3122H2.34544ZM11.1563 13.3434H0.65625V2.84345H11.1563V7.56538L8.15784 10.5638C8.13387 10.5878 8.11582 10.6171 8.10512 10.6493L7.66762 11.9618C7.65668 11.9947 7.65369 12.0297 7.65892 12.0639C7.66414 12.0982 7.67743 12.1307 7.69767 12.1588C7.71792 12.1869 7.74456 12.2098 7.77539 12.2256C7.80622 12.2414 7.84036 12.2497 7.875 12.2497C7.89851 12.2497 7.92186 12.2459 7.94413 12.2383L9.25663 11.8008C9.28884 11.7901 9.31812 11.7721 9.34216 11.7481L11.1563 9.93401V13.3434ZM13.2267 7.24491L12.9063 7.56538L12.3406 6.9997L12.661 6.67923C12.717 6.62336 12.7883 6.58534 12.8659 6.56996C12.9434 6.55458 13.0238 6.56254 13.0969 6.59283C13.1699 6.62312 13.2324 6.67438 13.2763 6.74014C13.3203 6.8059 13.3437 6.8832 13.3438 6.96229C13.3439 7.0148 13.3336 7.06681 13.3135 7.11533C13.2935 7.16384 13.2639 7.20788 13.2267 7.24491Z" fill="#350ABC"/>
</g>
<defs>
<clipPath id="clip0_268_16823">
<rect width="14" height="14" fill="white"/>
</clipPath>
</defs>
</svg>
