<svg width="146" height="144" viewBox="0 0 146 144" fill="none" xmlns="http://www.w3.org/2000/svg">
<g filter="url(#filter0_d_5543_17109)">
<path d="M118 71.9991L110.133 80.4797L113.551 91.5328L102.771 95.7403L101.058 107.185L89.5226 106.317L83.0125 115.88L73 110.078L62.9856 115.88L56.4757 106.317L44.9388 107.182L43.2269 95.7384L32.4494 91.5291L35.8694 80.4777L28 71.9991L35.8694 63.5203L32.4494 52.4691L43.2288 48.2577L44.9425 36.8147L56.4774 37.6827L62.9875 28.1202L73 33.9215L83.0144 28.1202L89.5243 37.6847L101.061 36.8184L102.773 48.2616L113.551 52.4691L110.133 63.5222L118 71.9991Z" fill="white"/>
<path d="M89.4725 60.6347C88.7657 59.6016 87.3482 59.3671 86.3337 60.1023C79.1731 65.2866 72.9069 71.5247 67.6624 78.6966L59.9131 70.9473C59.0506 70.0829 57.6519 70.0829 56.7875 70.9473C55.925 71.8116 55.925 73.2104 56.7875 74.0748L66.3875 83.6729C67.3662 84.6517 68.9938 84.5035 69.7757 83.3616C75.035 75.6816 81.4813 69.0648 88.955 63.6629C89.9206 62.9654 90.1455 61.621 89.4725 60.6347Z" fill="#774DFD"/>
<path d="M103 72C103 88.5685 89.5685 102 73 102C56.4315 102 43 88.5685 43 72C43 55.4315 56.4315 42 73 42C89.5685 42 103 55.4315 103 72ZM44.9874 72C44.9874 87.471 57.529 100.013 73 100.013C88.471 100.013 101.013 87.471 101.013 72C101.013 56.529 88.471 43.9874 73 43.9874C57.529 43.9874 44.9874 56.529 44.9874 72Z" fill="#D9D9D9"/>
<path d="M73 42.9937C73 42.4449 73.445 41.9983 73.9935 42.0165C77.5943 42.1358 81.147 42.9028 84.4805 44.2836C88.1203 45.7913 91.4274 48.001 94.2132 50.7868C96.999 53.5726 99.2087 56.8797 100.716 60.5195C102.097 63.853 102.864 67.4057 102.984 71.0065C103.002 71.555 102.555 72 102.006 72C101.458 72 101.014 71.555 100.995 71.0065C100.877 67.6668 100.161 64.3724 98.8803 61.28C97.4725 57.8814 95.4091 54.7933 92.8079 52.1921C90.2067 49.5909 87.1186 47.5275 83.72 46.1197C80.6276 44.8388 77.3332 44.1235 73.9935 44.005C73.445 43.9855 73 43.5425 73 42.9937Z" fill="#774DFD"/>
</g>
<defs>
<filter id="filter0_d_5543_17109" x="0" y="-1" width="146" height="146" filterUnits="userSpaceOnUse" color-interpolation-filters="sRGB">
<feFlood flood-opacity="0" result="BackgroundImageFix"/>
<feColorMatrix in="SourceAlpha" type="matrix" values="0 0 0 0 0 0 0 0 0 0 0 0 0 0 0 0 0 0 127 0" result="hardAlpha"/>
<feOffset/>
<feGaussianBlur stdDeviation="14"/>
<feComposite in2="hardAlpha" operator="out"/>
<feColorMatrix type="matrix" values="0 0 0 0 0.466667 0 0 0 0 0.301961 0 0 0 0 0.992157 0 0 0 0.09 0"/>
<feBlend mode="normal" in2="BackgroundImageFix" result="effect1_dropShadow_5543_17109"/>
<feBlend mode="normal" in="SourceGraphic" in2="effect1_dropShadow_5543_17109" result="shape"/>
</filter>
</defs>
</svg>
