<svg width="146" height="144" viewBox="0 0 146 144" fill="none" xmlns="http://www.w3.org/2000/svg">
<g filter="url(#filter0_d_5543_17450)">
<path d="M118 71.9991L110.133 80.4797L113.551 91.5328L102.771 95.7403L101.058 107.185L89.5226 106.317L83.0125 115.88L73 110.078L62.9856 115.88L56.4757 106.317L44.9388 107.182L43.2269 95.7384L32.4494 91.5291L35.8694 80.4777L28 71.9991L35.8694 63.5203L32.4494 52.4691L43.2288 48.2577L44.9425 36.8147L56.4774 37.6827L62.9875 28.1202L73 33.9215L83.0144 28.1202L89.5243 37.6847L101.061 36.8184L102.773 48.2616L113.551 52.4691L110.133 63.5222L118 71.9991Z" fill="white"/>
<path d="M89.4725 60.6347C88.7657 59.6016 87.3482 59.3671 86.3337 60.1023C79.1731 65.2866 72.9069 71.5247 67.6624 78.6966L59.9131 70.9473C59.0506 70.0829 57.6519 70.0829 56.7875 70.9473C55.925 71.8116 55.925 73.2104 56.7875 74.0748L66.3875 83.6729C67.3662 84.6517 68.9938 84.5035 69.7757 83.3616C75.035 75.6816 81.4813 69.0648 88.955 63.6629C89.9206 62.9654 90.1455 61.621 89.4725 60.6347Z" fill="#774DFD"/>
<path d="M103 72C103 88.5685 89.5685 102 73 102C56.4315 102 43 88.5685 43 72C43 55.4315 56.4315 42 73 42C89.5685 42 103 55.4315 103 72ZM44.9874 72C44.9874 87.471 57.529 100.013 73 100.013C88.471 100.013 101.013 87.471 101.013 72C101.013 56.529 88.471 43.9874 73 43.9874C57.529 43.9874 44.9874 56.529 44.9874 72Z" fill="#D9D9D9"/>
<path d="M73 42.9937C73 42.4449 73.4451 41.9983 73.9936 42.0165C79.8603 42.2108 85.5494 44.1228 90.3499 47.5259C95.4211 51.1209 99.2503 56.2024 101.308 62.068C103.366 67.9336 103.551 74.2936 101.838 80.269C100.125 86.2443 96.5973 91.5399 91.7438 95.4237C86.8903 99.3075 80.9502 101.588 74.7446 101.949C68.539 102.311 62.3743 100.736 57.1027 97.4416C51.8311 94.1476 47.7129 89.2974 45.3173 83.5614C43.0495 78.1315 42.4315 72.1617 43.5282 66.3951C43.6308 65.856 44.1641 65.5196 44.6995 65.64C45.235 65.7603 45.5696 66.2917 45.4684 66.8311C44.4612 72.1956 45.0421 77.7456 47.1511 82.7956C49.388 88.1516 53.2334 92.6805 58.1558 95.7562C63.0782 98.832 68.8345 100.303 74.6291 99.9652C80.4236 99.6277 85.9702 97.4985 90.5021 93.872C95.0341 90.2454 98.3277 85.3007 99.9275 79.7212C101.527 74.1417 101.355 68.203 99.4329 62.7259C97.5113 57.2489 93.9358 52.5041 89.2006 49.1472C84.736 45.9822 79.4483 44.1985 73.9935 44.005C73.4451 43.9855 73 43.5425 73 42.9937Z" fill="#774DFD"/>
</g>
<defs>
<filter id="filter0_d_5543_17450" x="0" y="-1" width="146" height="146" filterUnits="userSpaceOnUse" color-interpolation-filters="sRGB">
<feFlood flood-opacity="0" result="BackgroundImageFix"/>
<feColorMatrix in="SourceAlpha" type="matrix" values="0 0 0 0 0 0 0 0 0 0 0 0 0 0 0 0 0 0 127 0" result="hardAlpha"/>
<feOffset/>
<feGaussianBlur stdDeviation="14"/>
<feComposite in2="hardAlpha" operator="out"/>
<feColorMatrix type="matrix" values="0 0 0 0 0.466667 0 0 0 0 0.301961 0 0 0 0 0.992157 0 0 0 0.09 0"/>
<feBlend mode="normal" in2="BackgroundImageFix" result="effect1_dropShadow_5543_17450"/>
<feBlend mode="normal" in="SourceGraphic" in2="effect1_dropShadow_5543_17450" result="shape"/>
</filter>
</defs>
</svg>
