<svg width="146" height="144" viewBox="0 0 146 144" fill="none" xmlns="http://www.w3.org/2000/svg">
<g filter="url(#filter0_d_5543_17016)">
<path d="M118 71.9991L110.133 80.4797L113.551 91.5328L102.771 95.7403L101.058 107.185L89.5226 106.317L83.0125 115.88L73 110.078L62.9856 115.88L56.4757 106.317L44.9388 107.182L43.2269 95.7384L32.4494 91.5291L35.8694 80.4777L28 71.9991L35.8694 63.5203L32.4494 52.4691L43.2288 48.2577L44.9425 36.8147L56.4774 37.6827L62.9875 28.1202L73 33.9215L83.0144 28.1202L89.5243 37.6847L101.061 36.8184L102.773 48.2616L113.551 52.4691L110.133 63.5222L118 71.9991Z" fill="white"/>
<path d="M89.4725 60.6347C88.7657 59.6016 87.3482 59.3671 86.3337 60.1023C79.1731 65.2866 72.9069 71.5247 67.6624 78.6966L59.9131 70.9473C59.0506 70.0829 57.6519 70.0829 56.7875 70.9473C55.925 71.8116 55.925 73.2104 56.7875 74.0748L66.3875 83.6729C67.3662 84.6517 68.9938 84.5035 69.7757 83.3616C75.035 75.6816 81.4813 69.0648 88.955 63.6629C89.9206 62.9654 90.1455 61.621 89.4725 60.6347Z" fill="#774DFD"/>
<path d="M103 72C103 88.5685 89.5685 102 73 102C56.4315 102 43 88.5685 43 72C43 55.4315 56.4315 42 73 42C89.5685 42 103 55.4315 103 72ZM44.9874 72C44.9874 87.471 57.529 100.013 73 100.013C88.471 100.013 101.013 87.471 101.013 72C101.013 56.529 88.471 43.9874 73 43.9874C57.529 43.9874 44.9874 56.529 44.9874 72Z" fill="#D9D9D9"/>
<path d="M73 42.9937C73 42.4449 73.4452 41.9983 73.9937 42.0164C81.2589 42.257 88.1915 45.1286 93.4989 50.0958C93.8996 50.4708 93.8986 51.1014 93.5106 51.4894C93.1225 51.8775 92.4944 51.8759 92.0928 51.5019C87.1594 46.9063 80.7317 44.2439 73.9937 44.005C73.4452 43.9855 73 43.5425 73 42.9937Z" fill="#774DFD"/>
</g>
<defs>
<filter id="filter0_d_5543_17016" x="0" y="-1" width="146" height="146" filterUnits="userSpaceOnUse" color-interpolation-filters="sRGB">
<feFlood flood-opacity="0" result="BackgroundImageFix"/>
<feColorMatrix in="SourceAlpha" type="matrix" values="0 0 0 0 0 0 0 0 0 0 0 0 0 0 0 0 0 0 127 0" result="hardAlpha"/>
<feOffset/>
<feGaussianBlur stdDeviation="14"/>
<feComposite in2="hardAlpha" operator="out"/>
<feColorMatrix type="matrix" values="0 0 0 0 0.466667 0 0 0 0 0.301961 0 0 0 0 0.992157 0 0 0 0.09 0"/>
<feBlend mode="normal" in2="BackgroundImageFix" result="effect1_dropShadow_5543_17016"/>
<feBlend mode="normal" in="SourceGraphic" in2="effect1_dropShadow_5543_17016" result="shape"/>
</filter>
</defs>
</svg>
