<svg width="20" height="20" viewBox="0 0 20 20" fill="none" xmlns="http://www.w3.org/2000/svg">
<path d="M17.0116 3.95996C17.6252 4.66422 18.1141 5.58285 18.3831 6.6393C19.0888 9.4079 18.0208 12.0704 15.9981 12.5858C13.9753 13.101 11.7635 11.2744 11.0579 8.50585C10.7886 7.44952 10.7784 6.40894 10.98 5.49701L17.0116 3.95996Z" fill="white"/>
<path d="M18.6077 8.54932C18.5474 10.5484 17.5591 12.2017 16.0091 12.5966C13.9944 13.1099 11.7934 11.3715 11.0781 8.54932H18.6077Z" fill="white" stroke="#FE5D85" stroke-miterlimit="10" stroke-linecap="round" stroke-linejoin="round"/>
<path d="M17.0306 4.03247C17.6236 4.65548 18.124 5.61891 18.393 6.67548C19.0988 9.44431 18.026 12.0884 16.0032 12.604C13.9805 13.1194 11.7757 11.3201 11.0702 8.55131C10.8009 7.49486 10.7769 6.40019 10.9992 5.56964L17.0306 4.03247Z" stroke="#FE5D85" stroke-miterlimit="10" stroke-linecap="round" stroke-linejoin="round"/>
<path d="M15.96 12.5869L17.1084 17.0933" stroke="#FE5D85" stroke-miterlimit="10" stroke-linecap="round" stroke-linejoin="round"/>
<path d="M18.0344 16.7798L16.1445 17.2614" stroke="#FE5D85" stroke-miterlimit="10" stroke-linecap="round" stroke-linejoin="round"/>
<path d="M2.9884 2.66626C2.37481 3.37052 1.88597 4.28915 1.61692 5.3456C0.911251 8.1142 1.97923 10.7767 4.00193 11.2921C6.02476 11.8073 8.23655 9.98074 8.94211 7.21215C9.21139 6.15581 9.22163 5.11524 9.01995 4.20331L2.9884 2.66626Z" fill="white"/>
<path d="M1.39258 7.25562C1.4529 9.25469 2.44115 10.908 3.99114 11.3029C6.00585 11.8162 8.20694 10.0778 8.92226 7.25562H1.39258Z" fill="white" stroke="#FE5D85" stroke-miterlimit="10" stroke-linecap="round" stroke-linejoin="round"/>
<path d="M2.97013 2.73877C2.37711 3.36177 1.87676 4.32521 1.60759 5.38178C0.901918 8.15061 1.97471 10.7947 3.99754 11.3103C6.02024 11.8257 8.22498 10.0264 8.93054 7.25761C9.19983 6.20116 9.22381 5.10649 9.00156 4.27594L2.97013 2.73877Z" stroke="#FE5D85" stroke-miterlimit="10" stroke-linecap="round" stroke-linejoin="round"/>
<path d="M4.04087 11.2932L2.89258 15.7996" stroke="#FE5D85" stroke-miterlimit="10" stroke-linecap="round" stroke-linejoin="round"/>
<path d="M1.96582 15.4861L3.85565 15.9677" stroke="#FE5D85" stroke-miterlimit="10" stroke-linecap="round" stroke-linejoin="round"/>
</svg>
