<svg width="16" height="17" viewBox="0 0 16 17" fill="none" xmlns="http://www.w3.org/2000/svg">
<g clip-path="url(#clip0_6795_102134)">
<path d="M14 7.03516C14 11.7018 8 15.7018 8 15.7018C8 15.7018 2 11.7018 2 7.03516C2 5.44386 2.63214 3.91773 3.75736 2.79252C4.88258 1.6673 6.4087 1.03516 8 1.03516C9.5913 1.03516 11.1174 1.6673 12.2426 2.79252C13.3679 3.91773 14 5.44386 14 7.03516Z" stroke="#4C4B4B" stroke-linecap="round" stroke-linejoin="round"/>
<path d="M8 9.03516C9.10457 9.03516 10 8.13973 10 7.03516C10 5.93059 9.10457 5.03516 8 5.03516C6.89543 5.03516 6 5.93059 6 7.03516C6 8.13973 6.89543 9.03516 8 9.03516Z" stroke="#4C4B4B" stroke-linecap="round" stroke-linejoin="round"/>
</g>
<defs>
<clipPath id="clip0_6795_102134">
<rect width="16" height="16" fill="white" transform="translate(0 0.368164)"/>
</clipPath>
</defs>
</svg>
