<svg viewBox="0 0 87 86" fill="none" xmlns="http://www.w3.org/2000/svg">
<path opacity="0.25" d="M10.7079 18.9899H12.2645L12.0968 17.0713C11.9368 15.2403 13.2922 13.756 15.1231 13.756H27.9595L27.8666 12.6973C27.7771 11.6731 28.5348 10.844 29.5573 10.844H36.0271C36.1587 9.0922 37.5614 7.75404 39.394 7.75404C41.2267 7.75404 42.8633 9.0922 43.301 10.844H49.7708C50.7942 10.844 51.6963 11.6731 51.7858 12.6973L51.8786 13.756H60.6893C62.5211 13.756 64.1354 15.2403 64.2953 17.0713L64.6729 21.3842C64.6875 21.3687 64.7021 21.3532 64.7176 21.3386C66.1693 19.8869 68.1739 18.9891 70.3893 18.9891H76.2622C78.4767 18.9891 80.4822 18.0912 81.9339 16.6404C83.3847 15.1887 84.2826 13.1841 84.2826 10.9696C84.2826 6.53972 80.6921 2.94922 76.2622 2.94922H10.7079C8.49336 2.94922 6.4887 3.84706 5.03702 5.29788C3.58534 6.74956 2.6875 8.75422 2.6875 10.9696C2.6875 15.3986 6.27886 18.9891 10.7079 18.9891V18.9899Z" fill="#C6B8FF"/>
<path opacity="0.25" d="M81.9336 48.7211C83.3844 47.2694 84.2822 45.2648 84.2822 43.0494C84.2822 38.6204 80.6917 35.0299 76.2619 35.0299H70.3889C68.6543 35.0299 67.0487 34.4795 65.7363 33.543L67.2697 51.0698H76.2619C78.4764 51.0698 80.4819 50.1719 81.9336 48.7211Z" fill="#C6B8FF"/>
<path opacity="0.25" d="M10.7079 51.0701H15.0001C15.0242 51.0701 15.0474 51.0701 15.0715 51.071L13.668 35.0303H10.7079C8.49336 35.0303 6.4887 35.9281 5.03702 37.3789C3.58534 38.8306 2.6875 40.8353 2.6875 43.0498C2.6875 47.4796 6.27886 51.0701 10.7079 51.0701Z" fill="#C6B8FF"/>
<path opacity="0.25" d="M77.5617 67.1096H74.5801C73.4613 72.181 69.6351 76.2342 64.6927 77.6773C63.4276 78.0471 62.0895 78.2449 60.7049 78.2449C59.7339 78.2449 58.7888 78.1477 57.8729 77.9611H57.872C55.6059 77.5036 53.5368 76.5068 51.8022 75.1093H20.4896C18.6595 75.1093 17.0444 73.6258 16.8844 71.794L16.463 66.9746C16.3994 66.9866 16.3358 66.9987 16.2721 67.009C15.8576 67.0752 15.4328 67.1096 15.0002 67.1096H9.46522C7.75984 67.3814 6.2342 68.1906 5.06632 69.3577C3.61464 70.8093 2.7168 72.814 2.7168 75.0285C2.7168 79.4584 6.30816 83.0489 10.7372 83.0489H76.2907C78.5052 83.0489 80.5107 82.151 81.9624 80.7002C83.4132 79.2485 84.311 77.243 84.311 75.0285C84.311 71.0321 81.3879 67.7185 77.5626 67.1096H77.5617Z" fill="#C6B8FF"/>
<path opacity="0.25" d="M63.5695 36.4248H18.0996L21.1173 70.9168C21.2025 71.8964 22.0659 72.6893 23.0455 72.6893H49.4354C47.5924 70.2933 46.4968 67.2928 46.4968 64.0351C46.4968 56.1876 52.8591 49.827 60.7066 49.827C62.1282 49.827 63.4999 50.0352 64.7942 50.4239L63.5695 36.4248ZM34.2822 65.6313L30.6926 62.5602C30.4578 62.359 30.125 62.359 29.9324 62.5602L26.9886 65.6313C26.6686 65.9649 26.0615 65.7138 26.0108 65.2271L24.7594 53.3195C24.7268 53.0125 24.9495 52.7648 25.2557 52.7648H33.3096C33.6166 52.7648 33.8918 53.0125 33.9236 53.3195L35.1749 65.2271C35.2257 65.7138 34.6718 65.9649 34.2822 65.6313Z" fill="#774DFD"/>
<path opacity="0.25" d="M63.5701 36.4245H18.1002L16.4834 17.9482C16.3982 16.9696 17.1223 16.1758 18.101 16.1758H28.1725L28.2937 17.5518C28.3823 18.5752 29.2845 19.4042 30.3079 19.4042H50.5204C51.5438 19.4042 52.3015 18.5752 52.2121 17.5518L52.0908 16.1758H60.026C61.0047 16.1758 61.8681 16.9696 61.9541 17.9482L63.5701 36.4245Z" fill="#774DFD"/>
<path opacity="0.5" d="M51.8051 75.1091H22.3802C20.5501 75.1091 18.935 73.6256 18.7751 71.7938L13.9874 17.0712C13.8275 15.2402 15.182 13.7559 17.0121 13.7559H27.9607L28.1723 16.1759H18.1008C17.1221 16.1759 16.398 16.9697 16.484 17.9484L21.1177 70.9166C21.2028 71.8962 22.0663 72.6891 23.0458 72.6891H49.4358C50.1264 73.5869 50.921 74.4005 51.8034 75.1091H51.8051Z" fill="#774DFD"/>
<path opacity="0.5" d="M67.305 51.4488C66.5103 51.0308 65.671 50.6868 64.7955 50.4237L61.9549 17.9484C61.8698 16.9688 61.0063 16.1759 60.0268 16.1759H52.0924L51.8809 13.7559H60.6924C62.5234 13.7559 64.1384 15.2394 64.2984 17.0712L67.3058 51.4488H67.305Z" fill="#774DFD"/>
<path d="M52.5375 75.3673H22.3798C20.4216 75.3673 18.6887 73.7746 18.5184 71.8164L13.7308 17.0937C13.6465 16.1322 13.9441 15.2284 14.5676 14.5481C15.1877 13.8713 16.0563 13.498 17.0126 13.498H28.1977L28.4549 16.4341H18.1013C17.7023 16.4341 17.342 16.588 17.0865 16.8667C16.8285 17.1479 16.7064 17.5237 16.7417 17.9262L21.3754 70.8944C21.4493 71.7424 22.1992 72.4313 23.0463 72.4313H49.5636L49.641 72.5319C50.3195 73.4151 51.1021 74.2141 51.9664 74.9081L52.5383 75.3673H52.5375ZM17.0117 14.014C16.2025 14.014 15.4689 14.3271 14.9477 14.8964C14.4231 15.4692 14.1729 16.2337 14.2442 17.049L19.0319 71.7716C19.1798 73.4701 20.6822 74.8513 22.3798 74.8513H51.0995C50.4485 74.2734 49.8491 73.6353 49.3099 72.9473H23.0455C21.9378 72.9473 20.9574 72.0468 20.8602 70.9392L16.2265 17.9709C16.1784 17.4231 16.3487 16.9071 16.7056 16.5184C17.0599 16.1314 17.5561 15.9181 18.1005 15.9181H27.8907L27.7239 14.014H17.0109H17.0117Z" fill="#774DFD"/>
<path d="M67.6031 51.898L67.1843 51.6779C66.4034 51.2668 65.5744 50.9279 64.7204 50.6717L64.5527 50.6218L64.5372 50.4472L61.6966 17.9719C61.6227 17.1248 60.8728 16.4351 60.0257 16.4351H51.8548L51.5977 13.499H60.6913C62.6504 13.499 64.3833 15.0917 64.5536 17.05L67.6023 51.8989L67.6031 51.898ZM65.0369 50.2288C65.7128 50.4412 66.3733 50.7026 67.0071 51.0096L64.0401 17.0938C63.8922 15.3953 62.3898 14.0142 60.6913 14.0142H52.161L52.3278 15.9182H60.0257C61.1333 15.9182 62.1137 16.8186 62.2109 17.9263L65.0369 50.2288Z" fill="#774DFD"/>
<path opacity="0.75" d="M22.3801 75.1091H20.4924C18.6623 75.1091 17.0463 73.6256 16.8864 71.7938L12.0988 17.0712C11.9388 15.2402 13.2942 13.7559 15.1242 13.7559H17.0119C15.1819 13.7559 13.8274 15.2394 13.9873 17.0712L18.7749 71.7938C18.9349 73.6248 20.5491 75.1091 22.3801 75.1091Z" fill="#774DFD"/>
<path d="M22.3797 75.3673H20.492C18.533 75.3673 16.8001 73.7746 16.6298 71.8164L11.8422 17.0937C11.7579 16.1331 12.0554 15.2292 12.6789 14.5481C13.2999 13.8704 14.1685 13.498 15.1248 13.498H17.0125V14.014C16.2032 14.014 15.4696 14.3271 14.9485 14.8964C14.4239 15.4692 14.1736 16.2337 14.245 17.049L19.0326 71.7716C19.1805 73.4701 20.683 74.8513 22.3806 74.8513V75.3673H22.3797ZM15.1248 14.014C14.3147 14.014 13.5811 14.3279 13.0599 14.8973C12.5353 15.47 12.2851 16.2346 12.3564 17.049L17.1441 71.7716C17.292 73.4701 18.7944 74.8513 20.4929 74.8513C19.4145 74.2278 18.631 73.1003 18.5183 71.8164L13.7307 17.0937C13.6464 16.1322 13.944 15.2284 14.5675 14.5481C14.7576 14.3408 14.97 14.1628 15.2013 14.014H15.1239H15.1248Z" fill="#774DFD"/>
<path d="M49.9603 72.9471H23.0457C21.938 72.9471 20.9576 72.0467 20.8604 70.939L16.2268 17.9708C16.1786 17.423 16.3489 16.907 16.7049 16.5182C17.0601 16.1312 17.5555 15.918 18.1007 15.918H28.4087L28.5506 17.5296C28.628 18.4214 29.4157 19.1473 30.3075 19.1473H50.521C50.9407 19.1473 51.3208 18.9856 51.59 18.6906C51.8617 18.3939 51.9916 17.9974 51.9546 17.5743L51.8093 15.918H60.0248C61.1334 15.918 62.1138 16.8192 62.2101 17.9261L65.0834 50.7806L64.7187 50.6706C63.4261 50.2818 62.0759 50.084 60.706 50.084C53.0133 50.084 46.7542 56.3423 46.7542 64.0341C46.7542 67.1387 47.7518 70.0773 49.6395 72.5309L49.9585 72.9463L49.9603 72.9471ZM18.1016 16.434C17.7025 16.434 17.3422 16.5879 17.0859 16.8674C16.8288 17.1486 16.7058 17.5244 16.741 17.9261L21.3747 70.8943C21.4487 71.7423 22.1986 72.4311 23.0457 72.4311H48.9231C47.1653 69.9733 46.239 67.0811 46.239 64.035C46.239 56.0585 52.7295 49.5689 60.7068 49.5689C61.9994 49.5689 63.2748 49.7383 64.5046 50.0729L61.6967 17.9716C61.6236 17.1237 60.8737 16.4348 60.0257 16.4348H52.3734L52.4697 17.5305C52.5188 18.0998 52.3416 18.6364 51.9709 19.0406C51.602 19.4422 51.0877 19.6641 50.521 19.6641H30.3075C29.1551 19.6641 28.136 18.7267 28.0363 17.5752L27.9357 16.4348H18.0998L18.1016 16.434Z" fill="#774DFD"/>
<path d="M49.7718 10.8439H43.3021C42.8643 9.09207 41.2269 7.75391 39.3951 7.75391C37.5633 7.75391 36.1598 9.09207 36.029 10.8439H29.5593C28.5359 10.8439 27.7791 11.6738 27.8685 12.698L28.2933 17.5527C28.3828 18.5761 29.2849 19.406 30.3083 19.406H50.5209C51.5443 19.406 52.3011 18.5761 52.2117 17.5527L51.7868 12.698C51.6974 11.6738 50.7952 10.8439 49.7718 10.8439ZM39.5292 9.28471C40.2766 9.28471 40.9353 9.89015 41.0007 10.6383C41.0661 11.3848 40.5131 11.992 39.7657 11.992C39.0184 11.992 38.3596 11.3857 38.2943 10.6383C38.2289 9.89101 38.7819 9.28471 39.5292 9.28471Z" fill="#774DFD"/>
<path d="M29.7181 33.6509H23.1348C22.6626 33.6509 22.2438 33.2665 22.2025 32.7944L21.6263 26.2111C21.5851 25.7389 21.9359 25.3545 22.4081 25.3545H28.9914C29.4635 25.3545 29.8815 25.7389 29.9236 26.2111L30.4998 32.7944C30.5411 33.2665 30.1902 33.6509 29.7181 33.6509ZM22.4562 25.8877C22.2782 25.8877 22.1458 26.033 22.1613 26.2111L22.7375 32.7944C22.7529 32.9724 22.9112 33.1177 23.0892 33.1177H29.6725C29.8505 33.1177 29.983 32.9724 29.9675 32.7944L29.3913 26.2111C29.3758 26.033 29.2176 25.8877 29.0395 25.8877H22.4562Z" fill="#774DFD"/>
<path d="M55.6585 28.3041H34.1447C34.002 28.3041 33.8867 28.1888 33.8867 28.0461C33.8867 27.9033 34.002 27.7881 34.1447 27.7881H55.6585C55.8012 27.7881 55.9165 27.9033 55.9165 28.0461C55.9165 28.1888 55.8012 28.3041 55.6585 28.3041Z" fill="#774DFD"/>
<path d="M55.9124 31.2172H34.3986C34.2559 31.2172 34.1406 31.1019 34.1406 30.9592C34.1406 30.8164 34.2559 30.7012 34.3986 30.7012H55.9124C56.0551 30.7012 56.1704 30.8164 56.1704 30.9592C56.1704 31.1019 56.0551 31.2172 55.9124 31.2172Z" fill="#774DFD"/>
<path d="M31.0579 45.9283H24.4746C24.0025 45.9283 23.5837 45.5438 23.5424 45.0717L22.9662 38.4884C22.9249 38.0163 23.2758 37.6318 23.7479 37.6318H30.3312C30.8034 37.6318 31.2213 38.0163 31.2635 38.4884L31.8397 45.0717C31.8809 45.5438 31.5301 45.9283 31.0579 45.9283ZM23.7961 38.165C23.6181 38.165 23.4856 38.3104 23.5011 38.4884L24.0773 45.0717C24.0928 45.2497 24.251 45.3951 24.429 45.3951H31.0124C31.1904 45.3951 31.3228 45.2497 31.3073 45.0717L30.7311 38.4884C30.7156 38.3104 30.5574 38.165 30.3794 38.165H23.7961Z" fill="#774DFD"/>
<path d="M56.9983 40.5814H35.4846C35.3418 40.5814 35.2266 40.4662 35.2266 40.3234C35.2266 40.1807 35.3418 40.0654 35.4846 40.0654H56.9983C57.1411 40.0654 57.2563 40.1807 57.2563 40.3234C57.2563 40.4662 57.1411 40.5814 56.9983 40.5814Z" fill="#774DFD"/>
<path d="M57.2522 43.4945H35.7385C35.5957 43.4945 35.4805 43.3793 35.4805 43.2365C35.4805 43.0938 35.5957 42.9785 35.7385 42.9785H57.2522C57.395 42.9785 57.5102 43.0938 57.5102 43.2365C57.5102 43.3793 57.395 43.4945 57.2522 43.4945Z" fill="#774DFD"/>
<path opacity="0.75" d="M34.2817 65.6311L30.6929 62.5592C30.4581 62.3588 30.1253 62.3588 29.9327 62.5592L26.9889 65.6311C26.669 65.9648 26.0618 65.7128 26.0102 65.2269L24.7589 53.3193C24.7271 53.0123 24.949 52.7646 25.256 52.7646H33.3099C33.6169 52.7646 33.8912 53.0123 33.9239 53.3193L35.1752 65.2269C35.226 65.7137 34.6721 65.9648 34.2825 65.6311H34.2817Z" fill="#774DFD"/>
<path d="M34.6764 66.0414C34.4786 66.0414 34.2782 65.9683 34.114 65.8273L30.5252 62.7562C30.3945 62.6453 30.2156 62.6375 30.1184 62.739L27.1755 65.8101C26.9674 66.0268 26.6526 66.0982 26.3525 65.995C26.0239 65.8823 25.7892 65.5916 25.7539 65.2536L24.5026 53.3461C24.4794 53.1233 24.5456 52.9126 24.6901 52.7527C24.8337 52.5936 25.0341 52.5059 25.256 52.5059H33.3099C33.7519 52.5059 34.1346 52.8507 34.1802 53.2919L35.4315 65.1995C35.465 65.5194 35.3154 65.8075 35.0402 65.952C34.9267 66.0122 34.802 66.0414 34.6773 66.0414H34.6764ZM30.2964 62.1525C30.4925 62.1525 30.6946 62.223 30.8597 62.364L34.4494 65.436C34.5801 65.5478 34.716 65.54 34.7994 65.4962C34.8501 65.4695 34.9327 65.4024 34.9172 65.2545L33.6659 53.3469C33.6478 53.1715 33.4844 53.0236 33.309 53.0236H25.2551C25.1811 53.0236 25.1166 53.0502 25.0719 53.0993C25.0272 53.1491 25.0066 53.2179 25.0143 53.2936L26.2656 65.2012C26.2837 65.3697 26.4127 65.4721 26.5184 65.5082C26.5709 65.5263 26.7033 65.5564 26.8014 65.454L29.7452 62.383C29.8914 62.2307 30.0909 62.1542 30.2964 62.1542V62.1525Z" fill="#774DFD"/>
<g opacity="0.5">
<path d="M68.4012 52.0898C68.046 51.861 67.6796 51.646 67.3029 51.4491C66.5083 51.0311 65.6689 50.6871 64.7934 50.424C63.5 50.0353 62.1275 49.8271 60.7059 49.8271C52.8584 49.8271 46.4961 56.1877 46.4961 64.0352C46.4961 67.2929 47.5917 70.2934 49.4356 72.6894C50.1262 73.5872 50.9208 74.4008 51.8032 75.1094C53.5378 76.5069 55.6078 77.5037 57.8739 77.9612H57.8748C58.7898 78.1478 59.7358 78.245 60.7059 78.245C62.0913 78.245 63.4295 78.0472 64.6946 77.6774C70.6019 75.9531 74.9157 70.499 74.9157 64.0352C74.9157 59.0231 72.321 54.6191 68.402 52.0898H68.4012ZM66.2288 65.4834C66.2288 65.812 66.2176 66.1302 66.1944 66.4346C66.0697 68.1193 65.601 69.4515 64.7874 70.4345C63.826 71.5963 62.4706 72.176 60.7222 72.176C58.9738 72.176 57.5953 71.592 56.6303 70.4241C55.6654 69.2554 55.1838 67.6085 55.1838 65.4834V62.5878C55.1838 60.4481 55.6646 58.7961 56.6252 57.6359C57.5858 56.4749 58.9446 55.8944 60.7007 55.8944C62.4568 55.8944 63.8174 56.4784 64.7814 57.6471C65.0773 58.0049 65.3275 58.4074 65.5313 58.8563C65.9966 59.8719 66.2288 61.1189 66.2288 62.5981V65.4826V65.4834Z" fill="#774DFD"/>
<path d="M60.7009 58.7245C60.0696 58.7245 59.6104 58.9859 59.324 59.508C59.0376 60.03 58.8828 60.8212 58.8613 61.8807V65.9296C58.8613 67.1121 59.0101 67.9772 59.3077 68.5251C59.6052 69.0729 60.0765 69.3463 60.7224 69.3463C61.3682 69.3463 61.8068 69.0798 62.1044 68.5466C62.4019 68.0134 62.5542 67.1774 62.561 66.0379V62.1198C62.561 60.9811 62.4123 60.1297 62.1147 59.5673C61.8171 59.0049 61.3459 58.7236 60.7 58.7236L60.7009 58.7245Z" fill="#774DFD"/>
</g>
<path d="M60.7061 78.5033C59.7403 78.5033 58.7779 78.4078 57.8457 78.2195L57.8225 78.2152C55.5719 77.7602 53.4348 76.7558 51.6417 75.311C50.7464 74.592 49.9346 73.763 49.2311 72.8479C47.2729 70.3023 46.2383 67.2553 46.2383 64.0364C46.2383 56.0599 52.7287 49.5703 60.7061 49.5703C62.1251 49.5703 63.526 49.775 64.8685 50.1783C65.7534 50.4441 66.6134 50.7949 67.4244 51.2224C67.8002 51.4184 68.1769 51.6378 68.5424 51.8743C72.6953 54.5549 75.1747 59.1008 75.1747 64.0364C75.1747 67.2295 74.1556 70.2567 72.2266 72.7912C70.3596 75.2439 67.7108 77.0671 64.7678 77.9262C63.4555 78.3098 62.0889 78.5042 60.7069 78.5042L60.7061 78.5033ZM57.8999 77.7035L57.9265 77.7087C58.8321 77.8936 59.7669 77.9873 60.7061 77.9873C62.0391 77.9873 63.3566 77.7998 64.6225 77.43C70.5316 75.7057 74.6587 70.1974 74.6587 64.0355C74.6587 59.2763 72.267 54.892 68.2629 52.3068C67.9103 52.0789 67.5474 51.8674 67.1844 51.6782C66.4027 51.2662 65.5737 50.9283 64.7197 50.672C63.4254 50.2833 62.0752 50.0855 60.7061 50.0855C53.0134 50.0855 46.7543 56.3437 46.7543 64.0355C46.7543 67.1401 47.7519 70.0787 49.6404 72.5323C50.319 73.4155 51.1016 74.2145 51.9659 74.9085C53.6885 76.2965 55.7404 77.2623 57.9007 77.7035H57.8999Z" fill="#774DFD"/>
<path d="M60.723 72.4341C58.8878 72.4341 57.4447 71.8132 56.4316 70.5886C55.4323 69.3777 54.9258 67.6603 54.9258 65.4836V62.588C54.9258 60.3958 55.4306 58.6741 56.4265 57.471C57.4344 56.2532 58.8723 55.6357 60.7007 55.6357C62.529 55.6357 63.9695 56.2567 64.9809 57.4822C65.2914 57.8571 65.5554 58.2837 65.7669 58.7489C66.2451 59.793 66.4876 61.0881 66.4876 62.5983V65.4827C66.4876 65.8199 66.4756 66.1467 66.4524 66.4537C66.3242 68.1831 65.8314 69.5772 64.9869 70.598C63.979 71.8158 62.5437 72.4333 60.723 72.4333V72.4341ZM60.7015 56.1526C59.034 56.1526 57.7302 56.7073 56.8247 57.8004C55.907 58.908 55.4426 60.5188 55.4426 62.588V65.4836C55.4426 67.5373 55.9096 69.1446 56.8307 70.26C57.7406 71.36 59.0503 71.9181 60.7239 71.9181C62.3975 71.9181 63.672 71.3789 64.5905 70.2704C65.3653 69.3338 65.8194 68.0369 65.9389 66.4158C65.9613 66.1217 65.9725 65.8078 65.9725 65.4836V62.5992C65.9725 61.1638 65.7454 59.9409 65.2982 58.9648C65.1056 58.5408 64.8648 58.153 64.5836 57.8124C63.6746 56.7116 62.3691 56.1535 60.7015 56.1535V56.1526Z" fill="#774DFD"/>
<path d="M60.7226 69.6047C59.9778 69.6047 59.4257 69.283 59.0808 68.6483C58.7592 68.0575 58.6035 67.1683 58.6035 65.9299V61.881C58.6267 60.7639 58.7884 59.9486 59.098 59.3844C59.4317 58.7755 59.9709 58.4668 60.7011 58.4668C61.4312 58.4668 61.9997 58.797 62.3437 59.4472C62.6644 60.0526 62.8201 60.9273 62.8201 62.1201V66.0382C62.8124 67.2345 62.6524 68.0954 62.3308 68.6724C61.9859 69.2908 61.445 69.6047 60.7234 69.6047H60.7226ZM60.7011 58.9828C60.167 58.9828 59.7903 59.1952 59.5504 59.6321C59.2855 60.1154 59.1402 60.8731 59.1195 61.8862V65.9299C59.1195 67.0642 59.2588 67.8958 59.5349 68.4024C59.786 68.8651 60.1747 69.0895 60.7234 69.0895C61.2721 69.0895 61.6299 68.8711 61.8801 68.4222C62.1545 67.9302 62.2972 67.1279 62.3041 66.0374V62.1209C62.3041 61.0296 62.1639 60.2117 61.8879 59.6897C61.6367 59.215 61.248 58.9837 60.7011 58.9837V58.9828Z" fill="#774DFD"/>
</svg>
