<svg viewBox="0 0 16 17" fill="none" xmlns="http://www.w3.org/2000/svg">
<path d="M14.8908 7.20898C14.8426 8.80824 14.052 10.1309 12.812 10.4468C11.2002 10.8575 9.43944 9.46676 8.86719 7.20898H14.8908Z" stroke="#4C4B4B" stroke-miterlimit="10" stroke-linecap="round" stroke-linejoin="round"/>
<path d="M13.6311 3.59277C14.1055 4.09118 14.5058 4.86192 14.7211 5.70718C15.2857 7.92224 14.4275 10.0375 12.8092 10.45C11.191 10.8623 9.42724 9.42291 8.8628 7.20785C8.64737 6.36269 8.62817 5.48695 8.80597 4.82251L13.6311 3.59277Z" stroke="#4C4B4B" stroke-miterlimit="10" stroke-linecap="round" stroke-linejoin="round"/>
<path d="M12.7734 10.4365L13.6922 14.0416" stroke="#4C4B4B" stroke-miterlimit="10" stroke-linecap="round" stroke-linejoin="round"/>
<path d="M14.4298 13.7949L12.918 14.1802" stroke="#4C4B4B" stroke-miterlimit="10" stroke-linecap="round" stroke-linejoin="round"/>
<path d="M1.11914 6.17188C1.1674 7.77113 1.958 9.09381 3.19799 9.40971C4.80975 9.82034 6.57063 8.42965 7.14288 6.17188H1.11914Z" stroke="#4C4B4B" stroke-miterlimit="10" stroke-linecap="round" stroke-linejoin="round"/>
<path d="M2.38079 2.55762C1.90638 3.05602 1.50609 3.82677 1.29076 4.67202C0.726222 6.88709 1.58446 9.00234 3.20272 9.41485C4.82088 9.82718 6.58468 8.38775 7.14912 6.17269C7.36455 5.32753 7.38374 4.4518 7.20594 3.78735L2.38079 2.55762Z" stroke="#4C4B4B" stroke-miterlimit="10" stroke-linecap="round" stroke-linejoin="round"/>
<path d="M3.23699 9.40137L2.31836 13.0065" stroke="#4C4B4B" stroke-miterlimit="10" stroke-linecap="round" stroke-linejoin="round"/>
<path d="M1.57422 12.7578L3.08608 13.1431" stroke="#4C4B4B" stroke-miterlimit="10" stroke-linecap="round" stroke-linejoin="round"/>
</svg>
