<svg width="743" height="549" viewBox="0 0 743 549" fill="none" xmlns="http://www.w3.org/2000/svg">
<path d="M366 0.5C366 0.223858 366.224 0 366.5 0C366.776 0 367 0.223858 367 0.5H366ZM742 239.5C742.276 239.5 742.5 239.724 742.5 240C742.5 240.276 742.276 240.5 742 240.5V239.5ZM115.5 354C115.224 354 115 353.776 115 353.5C115 353.224 115.224 353 115.5 353V354ZM629 478.5C629.276 478.5 629.5 478.724 629.5 479C629.5 479.276 629.276 479.5 629 479.5V478.5ZM366.5 239.5H742V240.5H366.5V239.5ZM367 240V353.5H366V240H367ZM366.5 354H115.5V353H366.5V354ZM367 353.5V479H366V353.5H367ZM366.5 478.5H629V479.5H366.5V478.5ZM367 479V549H366V479H367ZM367 0.5V120.25H366V0.5H367ZM367 120.25V240H366V120.25H367ZM366.5 120.75H0.5V119.75H366.5V120.75Z" fill="#EBE6FF"/>
</svg>
