<svg viewBox="0 0 49 48" fill="none" xmlns="http://www.w3.org/2000/svg">
<ellipse opacity="0.1" cx="23.9437" cy="23.9438" rx="23.9437" ry="23.9438" fill="#C7B9FF"/>
<ellipse opacity="0.15" cx="23.6704" cy="23.6704" rx="18.0891" ry="18.0891" fill="#C2B2FF"/>
<ellipse opacity="0.18" cx="23.79" cy="23.7903" rx="13.1853" ry="13.1853" fill="#BAA9FF"/>
<path d="M37.6511 26.4439C37.6511 27.0667 37.5352 27.6605 37.3324 28.2181C37.2166 28.5368 37.0717 28.8482 36.8907 29.1378C36.7386 29.3841 36.601 29.6303 36.4634 29.891L33.1828 36.2349C32.8425 36.8939 31.8938 36.8939 31.5534 36.2349L28.2729 29.891C28.1425 29.6375 27.9977 29.3841 27.8456 29.1378C27.6718 28.8482 27.527 28.544 27.4038 28.2181C27.2011 27.6533 27.0852 27.0522 27.0852 26.4149C27.0852 23.4892 29.4678 21.1139 32.408 21.1428C35.3192 21.1718 37.6655 23.5544 37.6511 26.4439Z" fill="#D3D5E7"/>
<path d="M33.2048 21.2802C33.1975 22.2144 33.031 23.1124 32.7341 23.9452C32.5603 24.4304 32.3358 24.8866 32.0751 25.3211C31.8506 25.6905 31.6333 26.0671 31.4378 26.4509L26.5061 35.9811C25.9919 36.9733 24.5725 36.9733 24.0583 35.9811L19.1266 26.4581C18.9311 26.0743 18.7138 25.6977 18.4893 25.3284C18.2286 24.8939 18.0041 24.4304 17.8303 23.9524C17.5262 23.1051 17.3596 22.1999 17.3596 21.2512C17.3596 16.8554 20.9443 13.2924 25.3546 13.3286C29.6997 13.3504 33.2265 16.9351 33.2048 21.2802Z" fill="#D3D5E7"/>
<path d="M22.0011 29.1453C22.0011 29.6015 21.9142 30.0433 21.7694 30.4488C21.6825 30.6878 21.5739 30.9123 21.4435 31.1223C21.3349 31.3034 21.2263 31.4844 21.1321 31.6727L18.7133 36.3437C18.4599 36.8289 17.7647 36.8289 17.5112 36.3437L15.0924 31.6727C14.9983 31.4844 14.8896 31.3034 14.781 31.1223C14.6507 30.9123 14.542 30.6806 14.4551 30.4488C14.303 30.0361 14.2234 29.5871 14.2234 29.1236C14.2234 26.9655 15.9832 25.2202 18.1485 25.2347C20.2776 25.2564 22.0084 27.0162 22.0011 29.1453Z" fill="#D3D5E7"/>
<path d="M32.0383 21.2804C32.031 22.2146 31.8645 23.1125 31.5676 23.9454C31.3938 24.4306 31.1693 24.8868 30.9086 25.3213C30.6841 25.6906 30.4668 26.0672 30.2713 26.451L25.3396 35.9741C24.8254 36.9662 23.406 36.9662 22.8918 35.9741L17.9601 26.451C17.7646 26.0672 17.5473 25.6906 17.3228 25.3213C17.0621 24.8868 16.8376 24.4233 16.6638 23.9454C16.3597 23.0981 16.1931 22.1928 16.1931 21.2441C16.1931 16.8483 19.7778 13.2854 24.1881 13.3216C28.5332 13.3505 32.06 16.9352 32.0383 21.2804Z" fill="white" stroke="#1E247E" stroke-width="0.220951" stroke-miterlimit="10" stroke-linecap="round"/>
<path d="M24.1156 25.5388C26.1954 25.5388 27.8814 23.8529 27.8814 21.7731C27.8814 19.6933 26.1954 18.0073 24.1156 18.0073C22.0358 18.0073 20.3499 19.6933 20.3499 21.7731C20.3499 23.8529 22.0358 25.5388 24.1156 25.5388Z" fill="#FF6756" stroke="#1E247E" stroke-width="0.220951" stroke-miterlimit="10" stroke-linecap="round"/>
<path d="M27.6208 15.3708C28.2436 15.6388 28.7868 16.0661 29.1996 16.602" stroke="#1E247E" stroke-width="0.220951" stroke-miterlimit="10" stroke-linecap="round"/>
<path d="M22.4138 27.9939L22.8918 28.356" stroke="#1E247E" stroke-width="0.220951" stroke-miterlimit="10" stroke-linecap="round"/>
<path d="M22.4138 27.5376L23.3625 28.269" stroke="#1E247E" stroke-width="0.220951" stroke-miterlimit="10" stroke-linecap="round"/>
<path d="M23.1018 27.6025L23.3625 27.8053" stroke="#1E247E" stroke-width="0.220951" stroke-miterlimit="10" stroke-linecap="round"/>
<path d="M20.8351 29.1448C20.8351 29.6011 20.7482 30.0428 20.6034 30.4484C20.5165 30.6873 20.4079 30.9118 20.2775 31.1218C20.1689 31.3029 20.0602 31.4839 19.9661 31.6722L17.5473 36.3432C17.2939 36.8284 16.5986 36.8284 16.3452 36.3432L13.9264 31.6722C13.8323 31.4839 13.7236 31.3029 13.615 31.1218C13.4846 30.9118 13.376 30.6801 13.2891 30.4484C13.137 30.0356 13.0574 29.5866 13.0574 29.1231C13.0574 26.965 14.8171 25.2197 16.9825 25.2342C19.1116 25.2559 20.8424 27.0085 20.8351 29.1448Z" fill="white" stroke="#1E247E" stroke-width="0.220951" stroke-miterlimit="10" stroke-linecap="round"/>
<path d="M16.9463 31.2309C17.9662 31.2309 18.793 30.4042 18.793 29.3843C18.793 28.3644 17.9662 27.5376 16.9463 27.5376C15.9264 27.5376 15.0996 28.3644 15.0996 29.3843C15.0996 30.4042 15.9264 31.2309 16.9463 31.2309Z" fill="#ECB500" stroke="#1E247E" stroke-width="0.220951" stroke-miterlimit="10" stroke-linecap="round"/>
<path d="M18.4019 26.4653C18.7133 26.6029 18.9884 26.8129 19.1912 27.0809" stroke="#1E247E" stroke-width="0.220951" stroke-miterlimit="10" stroke-linecap="round"/>
<path d="M16.2366 32.8672L16.6204 33.1569" stroke="#1E247E" stroke-width="0.220951" stroke-miterlimit="10" stroke-linecap="round"/>
<path d="M16.2366 32.5051L16.997 33.0845" stroke="#1E247E" stroke-width="0.220951" stroke-miterlimit="10" stroke-linecap="round"/>
<path d="M16.7874 32.5557L16.9974 32.715" stroke="#1E247E" stroke-width="0.220951" stroke-miterlimit="10" stroke-linecap="round"/>
<path d="M36.4848 26.4439C36.4848 27.0667 36.3689 27.6605 36.1662 28.2181C36.0503 28.5368 35.9055 28.8482 35.7244 29.1378C35.5723 29.3841 35.4347 29.6303 35.2971 29.891L32.0166 36.2349C31.6762 36.8939 30.7275 36.8939 30.3872 36.2349L27.1066 29.891C26.9763 29.6375 26.8314 29.3841 26.6793 29.1378C26.5055 28.8482 26.3607 28.544 26.2376 28.2181C26.0348 27.6533 25.9189 27.0522 25.9189 26.4149C25.9189 23.4892 28.3015 21.1139 31.2417 21.1428C34.1529 21.1646 36.4993 23.5471 36.4848 26.4439Z" fill="white" stroke="#1E247E" stroke-width="0.220951" stroke-miterlimit="10" stroke-linecap="round"/>
<path d="M31.213 29.2755C32.5968 29.2755 33.7186 28.1537 33.7186 26.7698C33.7186 25.386 32.5968 24.2642 31.213 24.2642C29.8291 24.2642 28.7073 25.386 28.7073 26.7698C28.7073 28.1537 29.8291 29.2755 31.213 29.2755Z" fill="#7CA9FF" stroke="#1E247E" stroke-width="0.220951" stroke-miterlimit="10" stroke-linecap="round"/>
<path d="M33.2695 22.5044C33.7258 22.7361 34.1241 23.0475 34.4572 23.4241" stroke="#1E247E" stroke-width="0.220951" stroke-miterlimit="10" stroke-linecap="round"/>
<path d="M30.5825 31.9189L31.0605 32.281" stroke="#1E247E" stroke-width="0.220951" stroke-miterlimit="10" stroke-linecap="round"/>
<path d="M30.5833 31.4624L31.5319 32.1866" stroke="#1E247E" stroke-width="0.220951" stroke-miterlimit="10" stroke-linecap="round"/>
<path d="M31.2708 31.5203L31.5315 31.723" stroke="#1E247E" stroke-width="0.220951" stroke-miterlimit="10" stroke-linecap="round"/>
<path d="M37.4985 36.72H39.729" stroke="#1E247E" stroke-width="0.220951" stroke-miterlimit="10" stroke-linecap="round"/>
<path d="M28.5042 36.72H36.4847" stroke="#1E247E" stroke-width="0.220951" stroke-miterlimit="10" stroke-linecap="round"/>
<path d="M14.0349 36.72H26.9978" stroke="#1E247E" stroke-width="0.220951" stroke-miterlimit="10" stroke-linecap="round"/>
<path d="M8.67603 36.72H13.0573" stroke="#1E247E" stroke-width="0.220951" stroke-miterlimit="10" stroke-linecap="round"/>
<path d="M12.2025 24.8505L11.8042 24.3002L11.2176 24.0032C11.2032 23.996 11.2032 23.9743 11.2176 23.967L12.3039 23.5615C12.3184 23.5543 12.3329 23.5687 12.3257 23.5832L12.2315 24.8361C12.2315 24.8578 12.2098 24.865 12.2025 24.8505Z" fill="#1E247E" stroke="#1E247E" stroke-width="0.220951" stroke-miterlimit="10" stroke-linecap="round"/>
<path d="M14.0492 22.4101L13.6509 21.8597L13.0643 21.5628C13.0498 21.5556 13.0498 21.5339 13.0643 21.5266L14.1506 21.1211C14.1651 21.1138 14.1796 21.1283 14.1723 21.1428L14.0782 22.3956C14.0782 22.4174 14.0565 22.4246 14.0492 22.4101Z" fill="#1E247E" stroke="#1E247E" stroke-width="0.220951" stroke-miterlimit="10" stroke-linecap="round"/>
<path d="M30.4456 12.0759L29.8518 12.2859" stroke="white" stroke-width="0.220951" stroke-miterlimit="10" stroke-linecap="round"/>
<path d="M29.7351 11.2432L29.2861 11.7935" stroke="white" stroke-width="0.220951" stroke-miterlimit="10" stroke-linecap="round"/>
<path d="M28.6348 11.3953L28.6999 10.729" stroke="white" stroke-width="0.220951" stroke-miterlimit="10" stroke-linecap="round"/>
</svg>
