<svg viewBox="0 0 49 48" fill="none" xmlns="http://www.w3.org/2000/svg">
<ellipse opacity="0.1" cx="23.9437" cy="23.9438" rx="23.9437" ry="23.9438" fill="#C7B9FF"/>
<ellipse opacity="0.14" cx="23.6704" cy="23.6704" rx="18.0891" ry="18.0891" fill="#C2B2FF"/>
<ellipse opacity="0.18" cx="23.79" cy="23.7903" rx="13.1853" ry="13.1853" fill="#BAA9FF"/>
<g clip-path="url(#clip0_6002_23785)">
<path d="M12.1899 31.6268C12.1899 31.9547 12.4544 32.2227 12.7859 32.2227H30.6283C30.9562 32.2227 31.2242 31.9583 31.2242 31.6268V20.2302H12.1899V31.6268Z" fill="white"/>
<path d="M31.2243 16.115C31.2243 15.787 30.9599 15.519 30.6284 15.519H28.9429V17.2398C28.9429 17.5677 28.6785 17.8357 28.347 17.8357C28.0191 17.8357 27.7511 17.5713 27.7511 17.2398V15.519H25.7024V17.2398C25.7024 17.5677 25.4379 17.8357 25.1065 17.8357C24.7785 17.8357 24.5106 17.5713 24.5106 17.2398V15.519H18.9003V17.2398C18.9003 17.5677 18.6359 17.8357 18.3044 17.8357C17.973 17.8357 17.7085 17.5713 17.7085 17.2398V15.519H15.6598V17.2398C15.6598 17.5677 15.3954 17.8357 15.0639 17.8357C14.7324 17.8357 14.468 17.5713 14.468 17.2398V15.519H12.7895C12.4616 15.519 12.1936 15.7835 12.1936 16.115V19.0417H31.2279V16.115H31.2243Z" fill="#FFECB7"/>
<path d="M30.6292 14.3308H28.9436V12.5959C28.9436 12.268 28.6792 12 28.3477 12C28.0198 12 27.7518 12.2644 27.7518 12.5959V14.3308H25.703V12.5959C25.703 12.268 25.4386 12 25.1071 12C24.7792 12 24.5112 12.2644 24.5112 12.5959V14.3308H18.9011V12.5959C18.9011 12.268 18.6331 12 18.3016 12C17.9701 12 17.7057 12.2644 17.7057 12.5959V14.3308H15.657V12.5959C15.657 12.268 15.3925 12 15.0611 12C14.7296 12 14.4652 12.2644 14.4652 12.5959V14.3308H12.7867C11.8029 14.3308 11.0024 15.1312 11.0024 16.115V31.6301C11.0024 32.6139 11.8029 33.4144 12.7867 33.4144H30.6291C31.6129 33.4144 32.4133 32.6139 32.4133 31.6301V16.115C32.4134 15.1312 31.6129 14.3308 30.6292 14.3308ZM31.2251 31.6267C31.2251 31.9546 30.9606 32.2226 30.6292 32.2226H12.7867C12.4588 32.2226 12.1908 31.9581 12.1908 31.6267V20.2301H31.2251V31.6267ZM12.1908 16.115C12.1908 15.7871 12.4552 15.5191 12.7867 15.5191H14.4722V17.2399C14.4722 17.5678 14.7366 17.8358 15.0681 17.8358C15.3996 17.8358 15.664 17.5713 15.664 17.2399V15.5191H17.7127V17.2399C17.7127 17.5678 17.9772 17.8358 18.3086 17.8358C18.6401 17.8358 18.9046 17.5713 18.9046 17.2399V15.5191H24.5218V17.2399C24.5218 17.5678 24.7862 17.8358 25.1177 17.8358C25.4456 17.8358 25.7136 17.5713 25.7136 17.2399V15.5191H27.7623V17.2399C27.7623 17.5678 28.0268 17.8358 28.3582 17.8358C28.6861 17.8358 28.9541 17.5713 28.9541 17.2399V15.5191H30.6396C30.9676 15.5191 31.2355 15.7835 31.2355 16.115V19.0418H12.1908V16.115Z" fill="#ECB500"/>
<path d="M29.054 21.4363H14.3999C13.8476 21.4363 13.3999 21.884 13.3999 22.4363V30.0522C13.3999 30.6044 13.8476 31.0522 14.3999 31.0522H29.054C29.6063 31.0522 30.054 30.6044 30.054 30.0522V22.4363C30.054 21.884 29.6063 21.4363 29.054 21.4363Z" fill="#FF6756"/>
<path d="M16.8436 22.4729H14.8995C14.7339 22.4729 14.5996 22.595 14.5996 22.7456C14.5996 22.8962 14.7339 23.0184 14.8995 23.0184H16.8436C17.0092 23.0184 17.1433 22.8962 17.1433 22.7456C17.1433 22.595 17.0092 22.4729 16.8436 22.4729Z" fill="white"/>
<path d="M20.7138 22.4729H18.7546C18.5878 22.4729 18.4524 22.595 18.4524 22.7456C18.4524 22.8962 18.5878 23.0184 18.7546 23.0184H20.7138C20.8807 23.0184 21.016 22.8962 21.016 22.7456C21.016 22.595 20.8807 22.4729 20.7138 22.4729Z" fill="white"/>
<path d="M24.5864 22.4729H22.6272C22.4602 22.4729 22.325 22.595 22.325 22.7456C22.325 22.8962 22.4602 23.0184 22.6272 23.0184H24.5864C24.7534 23.0184 24.8886 22.8962 24.8886 22.7456C24.8886 22.595 24.7534 22.4729 24.5864 22.4729Z" fill="white"/>
<path d="M28.4594 22.4729H26.5002C26.3334 22.4729 26.198 22.595 26.198 22.7456C26.198 22.8962 26.3334 23.0184 26.5002 23.0184H28.4594C28.6261 23.0184 28.7616 22.8962 28.7616 22.7456C28.7616 22.595 28.6263 22.4729 28.4594 22.4729Z" fill="white"/>
<path d="M16.8436 24.8364H14.8995C14.7339 24.8364 14.5996 24.9585 14.5996 25.1091C14.5996 25.2597 14.7339 25.3819 14.8995 25.3819H16.8436C17.0092 25.3819 17.1433 25.2597 17.1433 25.1091C17.1433 24.9585 17.0092 24.8364 16.8436 24.8364Z" fill="white"/>
<path d="M20.7138 24.8364H18.7546C18.5878 24.8364 18.4524 24.9585 18.4524 25.1091C18.4524 25.2597 18.5878 25.3819 18.7546 25.3819H20.7138C20.8807 25.3819 21.016 25.2597 21.016 25.1091C21.016 24.9585 20.8807 24.8364 20.7138 24.8364Z" fill="white"/>
<path d="M24.5864 24.8367H22.6272C22.4602 24.8367 22.325 24.9587 22.325 25.1093C22.325 25.2599 22.4602 25.3821 22.6272 25.3821H24.5864C24.7534 25.3821 24.8886 25.2599 24.8886 25.1093C24.8886 24.9587 24.7534 24.8367 24.5864 24.8367Z" fill="white"/>
<path d="M28.4594 24.8364H26.5002C26.3334 24.8364 26.198 24.9585 26.198 25.1091C26.198 25.2597 26.3334 25.3819 26.5002 25.3819H28.4594C28.6261 25.3819 28.7616 25.2597 28.7616 25.1091C28.7616 24.9585 28.6263 24.8364 28.4594 24.8364Z" fill="white"/>
<path d="M16.8436 27.2002H14.8995C14.7339 27.2002 14.5996 27.3223 14.5996 27.4729C14.5996 27.6235 14.7339 27.7456 14.8995 27.7456H16.8436C17.0092 27.7456 17.1433 27.6235 17.1433 27.4729C17.1433 27.3223 17.0092 27.2002 16.8436 27.2002Z" fill="white"/>
<path d="M20.7138 27.2002H18.7546C18.5878 27.2002 18.4524 27.3223 18.4524 27.4729C18.4524 27.6235 18.5878 27.7456 18.7546 27.7456H20.7138C20.8807 27.7456 21.016 27.6235 21.016 27.4729C21.016 27.3223 20.8807 27.2002 20.7138 27.2002Z" fill="white"/>
<path d="M24.5864 27.2002H22.6272C22.4602 27.2002 22.325 27.3223 22.325 27.4729C22.325 27.6235 22.4602 27.7456 22.6272 27.7456H24.5864C24.7534 27.7456 24.8886 27.6235 24.8886 27.4729C24.8886 27.3223 24.7534 27.2002 24.5864 27.2002Z" fill="white"/>
<path d="M28.4594 27.2002H26.5002C26.3334 27.2002 26.198 27.3223 26.198 27.4729C26.198 27.6235 26.3334 27.7456 26.5002 27.7456H28.4594C28.6261 27.7456 28.7616 27.6235 28.7616 27.4729C28.7616 27.3223 28.6263 27.2002 28.4594 27.2002Z" fill="white"/>
<path d="M16.8436 29.5637H14.8995C14.7339 29.5637 14.5996 29.6858 14.5996 29.8364C14.5996 29.987 14.7339 30.1092 14.8995 30.1092H16.8436C17.0092 30.1092 17.1433 29.987 17.1433 29.8364C17.1433 29.6858 17.0092 29.5637 16.8436 29.5637Z" fill="white"/>
<path d="M20.7138 29.5637H18.7546C18.5878 29.5637 18.4524 29.6858 18.4524 29.8364C18.4524 29.987 18.5878 30.1092 18.7546 30.1092H20.7138C20.8807 30.1092 21.016 29.987 21.016 29.8364C21.016 29.6858 20.8807 29.5637 20.7138 29.5637Z" fill="white"/>
<path d="M24.5864 29.564H22.6272C22.4602 29.564 22.325 29.686 22.325 29.8366C22.325 29.9872 22.4602 30.1094 22.6272 30.1094H24.5864C24.7534 30.1094 24.8886 29.9872 24.8886 29.8366C24.8886 29.686 24.7534 29.564 24.5864 29.564Z" fill="white"/>
<path d="M28.4594 29.5637H26.5002C26.3334 29.5637 26.198 29.6858 26.198 29.8364C26.198 29.987 26.3334 30.1092 26.5002 30.1092H28.4594C28.6261 30.1092 28.7616 29.987 28.7616 29.8364C28.7616 29.6858 28.6263 29.5637 28.4594 29.5637Z" fill="white"/>
</g>
<g clip-path="url(#clip1_6002_23785)">
<path d="M22.729 28.9378C22.729 30.7069 23.4318 32.4035 24.6827 33.6545C25.9337 34.9055 27.6303 35.6082 29.3994 35.6082C31.1686 35.6082 32.8652 34.9055 34.1162 33.6545C35.3671 32.4035 36.0699 30.7069 36.0699 28.9378C36.0699 27.1687 35.3671 25.472 34.1162 24.2211C32.8652 22.9701 31.1686 22.2673 29.3994 22.2673C27.6303 22.2673 25.9337 22.9701 24.6827 24.2211C23.4318 25.472 22.729 27.1687 22.729 28.9378Z" fill="#EBE6FF"/>
<path d="M29.3994 35.8165C28.4709 35.8165 27.57 35.6344 26.7215 35.2757C25.902 34.9294 25.1667 34.4327 24.5348 33.8022C23.9043 33.1704 23.4091 32.435 23.0628 31.6155C22.7041 30.7671 22.522 29.8662 22.522 28.9377C22.522 28.0092 22.7041 27.1083 23.0628 26.2612C23.4091 25.4417 23.9057 24.7064 24.5362 24.0745C25.1667 23.4427 25.9034 22.9474 26.7229 22.6011C27.5714 22.2424 28.4723 22.0603 29.4007 22.0603C30.3292 22.0603 31.2301 22.2424 32.0786 22.6011C32.8981 22.9474 33.6334 23.4441 34.2653 24.0745C34.8971 24.7064 35.3924 25.4417 35.7387 26.2612C36.0974 27.1097 36.2795 28.0106 36.2795 28.9391C36.2795 29.8676 36.0974 30.7684 35.7387 31.6169C35.3924 32.4364 34.8958 33.1717 34.2653 33.8036C33.6334 34.4355 32.8981 34.9307 32.0786 35.277C31.2287 35.6343 30.3278 35.8165 29.3994 35.8165ZM29.3994 22.4742C28.5274 22.4742 27.6804 22.6453 26.8843 22.9819C26.1145 23.3075 25.4233 23.7738 24.8287 24.367C24.2341 24.9603 23.7691 25.6528 23.4436 26.4226C23.1069 27.2201 22.9359 28.0658 22.9359 28.9391C22.9359 29.8124 23.1069 30.6581 23.4436 31.4555C23.7691 32.2239 24.2355 32.9151 24.8287 33.5084C25.4219 34.1016 26.1131 34.5679 26.8829 34.8935C27.6804 35.2301 28.5261 35.4012 29.3994 35.4012C30.2727 35.4012 31.1184 35.2301 31.9158 34.8935C32.6856 34.5679 33.3768 34.1016 33.97 33.5084C34.5633 32.9151 35.0296 32.2239 35.3552 31.4541C35.6918 30.6567 35.8629 29.811 35.8629 28.9377C35.8629 28.0644 35.6918 27.2187 35.3552 26.4213C35.0296 25.6514 34.5633 24.9603 33.97 24.367C33.3768 23.7738 32.6856 23.3075 31.9158 22.9819C31.1184 22.6453 30.2727 22.4742 29.3994 22.4742Z" fill="#350ABC"/>
<path d="M23.9319 28.9379C23.9319 30.3879 24.5079 31.7786 25.5333 32.8039C26.5586 33.8293 27.9493 34.4053 29.3993 34.4053C30.8494 34.4053 32.24 33.8293 33.2654 32.8039C34.2907 31.7786 34.8667 30.3879 34.8667 28.9379C34.8667 27.4878 34.2907 26.0972 33.2654 25.0718C32.24 24.0465 30.8494 23.4705 29.3993 23.4705C27.9493 23.4705 26.5586 24.0465 25.5333 25.0718C24.5079 26.0972 23.9319 27.4878 23.9319 28.9379Z" fill="#ABCDFF"/>
<path d="M29.3995 34.6122C28.6338 34.6122 27.8902 34.4619 27.1907 34.1666C26.5147 33.881 25.9077 33.4713 25.3875 32.9512C24.8674 32.4311 24.4577 31.8227 24.1721 31.148C23.8755 30.4472 23.7251 29.7036 23.7251 28.9379C23.7251 28.1722 23.8755 27.4286 24.1707 26.7291C24.4563 26.0531 24.866 25.4461 25.3862 24.926C25.9077 24.4045 26.5147 23.9961 27.1893 23.7105C27.8888 23.4139 28.6324 23.2649 29.3981 23.2649C30.1638 23.2649 30.9074 23.4153 31.6068 23.7105C32.2829 23.9961 32.8899 24.4058 33.41 24.926C33.9315 25.4474 34.3399 26.0545 34.6254 26.7291C34.9221 27.4286 35.0711 28.1722 35.0711 28.9379C35.0711 29.7036 34.9207 30.4472 34.6254 31.1466C34.3399 31.8227 33.9301 32.4297 33.41 32.9498C32.8899 33.4699 32.2815 33.8797 31.6068 34.1652C30.9088 34.4632 30.1665 34.6122 29.3995 34.6122ZM29.3995 23.6774C28.689 23.6774 28.0005 23.8167 27.3521 24.0913C26.7258 24.3562 26.1629 24.7356 25.68 25.2184C25.1971 25.7013 24.8178 26.2642 24.5529 26.8905C24.2783 27.5389 24.139 28.2274 24.139 28.9379C24.139 29.6484 24.2783 30.3368 24.5529 30.9852C24.8178 31.6116 25.1971 32.1745 25.68 32.6573C26.1629 33.1402 26.7258 33.5196 27.3521 33.7845C28.0005 34.059 28.689 34.1984 29.3995 34.1984C30.11 34.1984 30.7984 34.059 31.4468 33.7845C32.0732 33.5196 32.636 33.1402 33.1189 32.6573C33.6018 32.1745 33.9812 31.6116 34.2461 30.9852C34.5206 30.3368 34.6599 29.6484 34.6599 28.9379C34.6599 28.2274 34.5206 27.5389 34.2461 26.8905C33.9812 26.2642 33.6018 25.7013 33.1189 25.2184C32.636 24.7356 32.0732 24.3562 31.4468 24.0913C30.7984 23.8167 30.11 23.6774 29.3995 23.6774Z" fill="#350ABC"/>
<path d="M29.3994 25.2762C29.2849 25.2762 29.1925 25.1838 29.1925 25.0693V24.4181C29.1925 24.3036 29.2849 24.2112 29.3994 24.2112C29.5139 24.2112 29.6064 24.3036 29.6064 24.4181V25.0693C29.6064 25.1838 29.5139 25.2762 29.3994 25.2762ZM29.3994 33.6643C29.2849 33.6643 29.1925 33.5719 29.1925 33.4574V32.8062C29.1925 32.6917 29.2849 32.5992 29.3994 32.5992C29.5139 32.5992 29.6064 32.6917 29.6064 32.8062V33.4574C29.6064 33.5719 29.5139 33.6643 29.3994 33.6643ZM32.1352 26.4089C32.0828 26.4089 32.029 26.3882 31.989 26.3482C31.9076 26.2668 31.9076 26.1357 31.989 26.0557L32.4497 25.5949C32.5311 25.5135 32.6622 25.5135 32.7422 25.5949C32.8236 25.6763 32.8236 25.8074 32.7422 25.8874L32.2814 26.3482C32.2414 26.3896 32.189 26.4089 32.1352 26.4089ZM26.2042 32.3413C26.1518 32.3413 26.098 32.3206 26.058 32.2806C25.9766 32.1992 25.9766 32.0681 26.058 31.9881L26.5188 31.5273C26.6002 31.4459 26.7312 31.4459 26.8113 31.5273C26.8927 31.6087 26.8927 31.7397 26.8113 31.8198L26.3505 32.2806C26.3105 32.3206 26.2567 32.3413 26.2042 32.3413ZM33.919 29.1447H33.2679C33.1534 29.1447 33.0609 29.0523 33.0609 28.9377C33.0609 28.8232 33.1534 28.7308 33.2679 28.7308H33.919C34.0335 28.7308 34.126 28.8232 34.126 28.9377C34.126 29.0523 34.0335 29.1447 33.919 29.1447ZM25.531 29.1447H24.8798C24.7653 29.1447 24.6729 29.0523 24.6729 28.9377C24.6729 28.8232 24.7653 28.7308 24.8798 28.7308H25.531C25.6455 28.7308 25.7379 28.8232 25.7379 28.9377C25.7379 29.0523 25.6455 29.1447 25.531 29.1447Z" fill="#350ABC"/>
<path d="M32.596 32.3413C32.5436 32.3413 32.4898 32.3206 32.4498 32.2806L31.989 31.8198C31.9076 31.7384 31.9076 31.6074 31.989 31.5273C32.0704 31.4459 32.2015 31.4459 32.2815 31.5273L32.7423 31.9881C32.8237 32.0695 32.8237 32.2006 32.7423 32.2806C32.7023 32.3206 32.6485 32.3413 32.596 32.3413ZM26.6637 26.409C26.6113 26.409 26.5575 26.3883 26.5174 26.3483L26.0567 25.8875C25.9753 25.8061 25.9753 25.675 26.0567 25.595C26.1381 25.5136 26.2691 25.5136 26.3491 25.595L26.8099 26.0558C26.8913 26.1372 26.8913 26.2682 26.8099 26.3483C26.7699 26.3896 26.7175 26.409 26.6637 26.409Z" fill="#003EB5"/>
<path d="M29.147 28.9378L29.3994 25.635L29.6533 28.9378H29.147Z" fill="#B6CDEF"/>
<path d="M29.6532 29.1448H29.1469C29.089 29.1448 29.0338 29.1214 28.9952 29.0786C28.9565 29.0358 28.9358 28.9793 28.94 28.9227L29.1924 25.6185C29.2007 25.5109 29.2904 25.4268 29.3994 25.4268C29.507 25.4268 29.5981 25.5095 29.6063 25.6185L29.8588 28.9227C29.8629 28.9806 29.8436 29.0372 29.8036 29.0786C29.7636 29.12 29.7098 29.1448 29.6532 29.1448ZM29.3704 28.7309H29.4297L29.4008 28.346L29.3704 28.7309Z" fill="#774DFD"/>
<path d="M29.485 28.7666L31.4012 31.0016L29.1663 29.0853L29.485 28.7666Z" fill="#B6CDEF"/>
<path d="M31.4011 31.2086C31.3529 31.2086 31.3059 31.192 31.2659 31.1589L29.031 29.2426C28.9868 29.2054 28.9606 29.1516 28.9592 29.0936C28.9565 29.0357 28.9785 28.9805 29.0199 28.9391L29.3372 28.6218C29.3786 28.5804 29.4338 28.5597 29.4917 28.5611C29.5497 28.5639 29.6035 28.5901 29.6407 28.6328L31.557 30.8678C31.6274 30.9506 31.6233 31.072 31.546 31.1493C31.5074 31.1879 31.4549 31.2086 31.4011 31.2086ZM29.4711 29.0729L29.4835 29.084L29.4724 29.0716L29.4711 29.0729Z" fill="#774DFD"/>
<path d="M25.6841 30.3781L29.3539 28.9377L25.6841 30.3781Z" fill="#B6CDEF"/>
<path d="M25.6841 30.585C25.6013 30.585 25.5241 30.5353 25.491 30.4539C25.4496 30.3477 25.502 30.2276 25.6082 30.1863L29.278 28.7473C29.3842 28.7059 29.5043 28.7583 29.5457 28.8646C29.587 28.9708 29.5346 29.0908 29.4284 29.1322L25.7586 30.5712C25.7352 30.5794 25.7089 30.585 25.6841 30.585Z" fill="#774DFD"/>
<path d="M28.9841 28.9377C28.9841 28.9923 28.9949 29.0463 29.0157 29.0966C29.0366 29.147 29.0672 29.1928 29.1058 29.2314C29.1443 29.2699 29.1901 29.3005 29.2405 29.3214C29.2909 29.3422 29.3449 29.353 29.3994 29.353C29.4539 29.353 29.5079 29.3422 29.5583 29.3214C29.6087 29.3005 29.6545 29.2699 29.693 29.2314C29.7316 29.1928 29.7622 29.147 29.783 29.0966C29.8039 29.0463 29.8147 28.9923 29.8147 28.9377C29.8147 28.8832 29.8039 28.8292 29.783 28.7788C29.7622 28.7284 29.7316 28.6826 29.693 28.6441C29.6545 28.6055 29.6087 28.5749 29.5583 28.5541C29.5079 28.5332 29.4539 28.5225 29.3994 28.5225C29.3449 28.5225 29.2909 28.5332 29.2405 28.5541C29.1901 28.5749 29.1443 28.6055 29.1058 28.6441C29.0672 28.6826 29.0366 28.7284 29.0157 28.7788C28.9949 28.8292 28.9841 28.8832 28.9841 28.9377Z" fill="#B6CDEF"/>
<path d="M29.3993 29.5613C29.0558 29.5613 28.7771 29.2826 28.7771 28.9391C28.7771 28.5956 29.0558 28.3169 29.3993 28.3169C29.7428 28.3169 30.0215 28.5956 30.0215 28.9391C30.0229 29.2812 29.7428 29.5613 29.3993 29.5613ZM29.3993 28.7294C29.2848 28.7294 29.191 28.8232 29.191 28.9377C29.191 29.0522 29.2848 29.146 29.3993 29.146C29.5138 29.146 29.6076 29.0522 29.6076 28.9377C29.609 28.8232 29.5152 28.7294 29.3993 28.7294Z" fill="#003EB5"/>
</g>
<defs>
<clipPath id="clip0_6002_23785">
<rect width="21.4144" height="21.4144" fill="white" transform="translate(11 12)"/>
</clipPath>
<clipPath id="clip1_6002_23785">
<rect width="14.1273" height="14.1273" fill="white" transform="translate(22.3455 21.8728)"/>
</clipPath>
</defs>
</svg>
