<svg  viewBox="0 0 49 48" fill="none" xmlns="http://www.w3.org/2000/svg">
<ellipse opacity="0.1" cx="23.9437" cy="23.9438" rx="23.9437" ry="23.9438" fill="#C7B9FF"/>
<ellipse opacity="0.15" cx="23.6704" cy="23.6704" rx="18.0891" ry="18.0891" fill="#C2B2FF"/>
<ellipse opacity="0.18" cx="23.79" cy="23.7903" rx="13.1853" ry="13.1853" fill="#BAA9FF"/>
<path d="M24.8792 12.7334H38.238V15.0448H24.8792V12.7334Z" fill="#2D6ADE"/>
<path d="M20.6394 25.4463H12.9262C11.8636 25.4463 10.9998 26.3095 10.9998 27.3713V35.0749C10.9998 36.1367 11.8636 36.9999 12.9262 36.9999H20.6358C21.6984 36.9999 22.5622 36.1367 22.5622 35.0749V27.3713C22.5659 26.3095 21.702 25.4463 20.6394 25.4463ZM20.2526 33.6194C20.2526 34.2117 19.7719 34.6921 19.1792 34.6921H14.3865C13.7937 34.6921 13.313 34.2117 13.313 33.6194V28.8304C13.313 28.2381 13.7937 27.7577 14.3865 27.7577H19.1828C19.7755 27.7577 20.2562 28.2381 20.2562 28.8304V33.6194H20.2526Z" fill="#ECB500"/>
<path d="M24.8792 27.1799H38.238V29.4914H24.8792V27.1799Z" fill="#2D6ADE"/>
<path d="M20.6396 11H12.9265C11.8638 11 11 11.8632 11 12.925V20.6286C11 21.6904 11.8638 22.5536 12.9265 22.5536H20.636C21.6986 22.5536 22.5625 21.6904 22.5625 20.6286V12.925C22.5661 11.8632 21.7023 11 20.6396 11ZM20.2529 19.1731C20.2529 19.7654 19.7722 20.2458 19.1794 20.2458H14.3867C13.7939 20.2458 13.3132 19.7654 13.3132 19.1731V14.3841C13.3132 13.7918 13.7939 13.3114 14.3867 13.3114H19.183C19.7758 13.3114 20.2565 13.7918 20.2565 14.3841V19.1731H20.2529Z" fill="#FF6756"/>
<path d="M24.8792 18.512H38.238V20.8234H24.8792V18.512ZM24.8792 32.9585H38.238V35.2699H24.8792V32.9585Z" fill="#2D6ADE"/>
</svg>
