<svg viewBox="0 0 56 48" fill="none" xmlns="http://www.w3.org/2000/svg">
<ellipse opacity="0.1" cx="27.9789" cy="22.9789" rx="22.9789" ry="22.9789" fill="#C7B9FF"/>
<ellipse opacity="0.15" cx="27.9415" cy="22.9415" rx="17.3602" ry="17.3602" fill="#C2B2FF"/>
<ellipse opacity="0.18" cx="27.7004" cy="22.7006" rx="12.654" ry="12.654" fill="#BAA9FF"/>
<path d="M55.6512 33.427H0.786377V33.4544H55.6512V33.427Z" fill="#EBEBEB"/>
<path d="M50.154 35.1931H46.5195V35.2205H50.154V35.1931Z" fill="#EBEBEB"/>
<path d="M37.1311 35.491H36.1772V35.5184H37.1311V35.491Z" fill="#EBEBEB"/>
<path d="M46.4094 34.1743H44.3035V34.2017H46.4094V34.1743Z" fill="#EBEBEB"/>
<path d="M11.282 34.3584H6.54248V34.3858H11.282V34.3584Z" fill="#EBEBEB"/>
<path d="M12.9549 34.3584H12.259V34.3859H12.9549V34.3584Z" fill="#EBEBEB"/>
<path d="M25.4917 34.822H15.2126V34.8495H25.4917V34.822Z" fill="#EBEBEB"/>
<path d="M28.219 38.3826C39.9691 38.3826 49.4944 37.8264 49.4944 37.1402C49.4944 36.454 39.9691 35.8977 28.219 35.8977C16.4689 35.8977 6.9436 36.454 6.9436 37.1402C6.9436 37.8264 16.4689 38.3826 28.219 38.3826Z" fill="#F5F5F5"/>
<path d="M27.606 19.7878C28.4716 19.1039 29.5939 18.7799 30.6906 18.847C31.5052 18.9235 31.9943 19.0383 32.7256 19.1671C33.8745 19.3825 35.1618 19.6364 36.294 19.8338C37.2517 19.9941 38.2368 20.1779 39.1857 20.1911C39.1874 20.1915 39.1866 20.1924 39.1875 20.1939C39.164 20.2033 39.1434 20.2094 39.1152 20.2217C39.0222 20.257 38.9368 20.3045 38.8542 20.3627C38.5383 20.5637 38.2432 21.1035 38.3489 21.4497C38.3549 21.4505 38.3529 21.4189 38.3427 21.3761C38.2802 21.1341 38.1253 20.8231 37.992 20.5696C37.4437 19.5688 36.7884 18.6089 36.1081 17.6548C35.7709 17.183 35.3803 16.6707 35.023 16.2085L34.8371 15.9716C34.776 15.8936 34.7051 15.8191 34.6966 15.6987L36.1329 14.2876C36.2676 14.3137 36.3389 14.3869 36.4196 14.4568L36.6573 14.6655L37.128 15.0863C38.6404 16.5068 41.8403 19.2901 41.7351 21.5C41.7236 22.2845 41.1833 23.1105 40.4421 23.4199C40.0477 23.6017 39.5685 23.6752 39.1499 23.7032C38.4244 23.7505 37.7218 23.7031 37.0353 23.6474C35.7681 23.5401 34.5051 23.3579 33.2659 23.1587C32.5538 23.0517 31.5784 22.8694 30.8623 22.751C30.4391 22.6872 30.3145 22.6238 29.9973 22.7922C29.9973 22.7922 29.9912 22.7956 29.9972 22.792L30.0051 22.7859L30.053 22.7478L27.606 19.7878Z" fill="black"/>
<path d="M27.606 19.7878C28.4716 19.1039 29.5939 18.7799 30.6906 18.847C31.5052 18.9235 31.9943 19.0383 32.7256 19.1671C33.8745 19.3825 35.1618 19.6364 36.294 19.8338C37.2517 19.9941 38.2368 20.1779 39.1857 20.1911C39.1874 20.1915 39.1866 20.1924 39.1875 20.1939C39.164 20.2033 39.1434 20.2094 39.1152 20.2217C39.0222 20.257 38.9368 20.3045 38.8542 20.3627C38.5383 20.5637 38.2432 21.1035 38.3489 21.4497C38.3549 21.4505 38.3529 21.4189 38.3427 21.3761C38.2802 21.1341 38.1253 20.8231 37.992 20.5696C37.4437 19.5688 36.7884 18.6089 36.1081 17.6548C35.7709 17.183 35.3803 16.6707 35.023 16.2085L34.8371 15.9716C34.776 15.8936 34.7051 15.8191 34.6966 15.6987L36.1329 14.2876C36.2676 14.3137 36.3389 14.3869 36.4196 14.4568L36.6573 14.6655L37.128 15.0863C38.6404 16.5068 41.8403 19.2901 41.7351 21.5C41.7236 22.2845 41.1833 23.1105 40.4421 23.4199C40.0477 23.6017 39.5685 23.6752 39.1499 23.7032C38.4244 23.7505 37.7218 23.7031 37.0353 23.6474C35.7681 23.5401 34.5051 23.3579 33.2659 23.1587C32.5538 23.0517 31.5784 22.8694 30.8623 22.751C30.4391 22.6872 30.3145 22.6238 29.9973 22.7922C29.9973 22.7922 29.9912 22.7956 29.9972 22.792L30.0051 22.7859L30.053 22.7478L27.606 19.7878Z" fill="white"/>
<path d="M34.2962 23.3179C33.9505 23.2679 33.6079 23.2146 33.2662 23.1591C32.8571 23.0941 32.4498 23.0245 32.047 22.9549L31.9604 22.9399L32.0827 20.4131C32.0826 20.4129 33.7219 21.3872 34.2962 23.3179Z" fill="white"/>
<path d="M36.175 16.1892L34.0515 16.0092L34.9724 13.625C34.9724 13.625 36.8753 14.0213 36.8281 15.0664L36.175 16.1892Z" fill="#EBB376"/>
<path d="M32.6107 14.3284L33.0743 13.5472C33.2589 13.2362 33.6415 13.1047 33.9782 13.2363L34.9721 13.6249L34.0512 16.0091L32.8823 15.3482C32.5219 15.1444 32.3993 14.6843 32.6107 14.3284Z" fill="#EBB376"/>
<path d="M21.5146 30.9909C21.5201 31.0092 21.5267 31.0286 21.5332 31.048C22.0824 33.4164 21.6646 33.3355 22.0311 35.2667C22.0311 35.2667 21.9633 35.5654 22.0079 35.8613H33.449C33.8215 35.6125 33.9739 34.6529 33.3655 34.1061C33.094 30.555 33.3764 27.7756 33.3996 25.9917C33.3996 25.9917 33.3996 25.9917 33.3995 25.9906C33.4028 25.6761 33.4029 25.365 33.3929 25.0491C33.3703 24.2141 33.2929 23.3436 33.0985 22.2851C32.8435 20.8916 30.6536 18.8393 30.6524 18.8394C29.8188 18.7499 29.4109 18.865 28.7216 18.92C26.3846 19.107 23.5243 19.6662 21.4468 20.3255C20.584 20.5991 19.9458 21.2525 19.6614 22.0411C19.4528 22.6144 19.4319 23.2595 19.6458 23.8817C20.6822 26.9019 20.7697 28.718 21.5146 30.9909Z" fill="#263238"/>
<path d="M29.1282 23.6868C29.1298 24.0285 29.1171 24.3721 29.0878 24.7122C28.9085 24.4342 28.429 24.0557 27.8036 23.6214C26.222 22.5219 23.7107 21.069 22.793 20.0083L26.6571 19.8942C26.6571 19.8942 26.8445 19.3327 27.3661 19.3037C28.4761 19.4426 29.1156 21.4993 29.1282 23.6868Z" fill="black"/>
<path d="M29.1282 23.6868C29.1298 24.0285 29.1171 24.3721 29.0878 24.7122C28.9085 24.4342 28.429 24.0557 27.8036 23.6214C26.222 22.5219 23.7107 21.069 22.793 20.0083L26.6571 19.8942C26.6571 19.8942 26.8445 19.3327 27.3661 19.3037C28.4761 19.4426 29.1156 21.4993 29.1282 23.6868Z" fill="white"/>
<path d="M29.1285 23.6868C29.13 24.0285 29.1174 24.3721 29.0881 24.7122C28.9088 24.4342 28.4293 24.0557 27.8038 23.6214L27.318 21.6011L25.9019 20.6089L26.5383 19.7271L27.7716 20.0052L27.8477 21.3638L29.1285 23.6868Z" fill="black"/>
<path d="M21.5146 30.9907C20.7697 28.7179 20.6822 26.9018 19.6458 23.8815C19.4319 23.2593 19.4528 22.6141 19.6614 22.0409C20.9515 20.9003 22.8864 23.2845 23.1594 26.5498C23.34 28.7113 22.5361 30.6851 21.5146 30.9907Z" fill="black"/>
<path d="M23.185 27.1638C23.1832 29.074 22.4388 30.7148 21.5145 30.9908C21.0017 29.4281 20.8009 28.0799 20.3874 26.4083C20.2097 25.6896 19.9936 24.9104 19.6959 24.0293C19.68 23.9807 19.663 23.9311 19.6458 23.8815C19.4319 23.2593 19.4528 22.6141 19.6614 22.0409C20.784 21.0483 22.3946 22.7253 22.9745 25.3282C23.06 25.7168 23.1235 26.1254 23.1594 26.5498C23.1765 26.7565 23.1847 26.9627 23.185 27.1638Z" fill="white"/>
<path d="M29.9068 26.9094C29.9276 27.0638 29.8653 27.1995 29.7678 27.2126C29.6704 27.2257 29.5746 27.1112 29.5538 26.9568C29.533 26.8024 29.5953 26.6667 29.6928 26.6536C29.7904 26.6404 29.8862 26.755 29.9068 26.9094Z" fill="white"/>
<path d="M30.2809 29.8598C30.3016 30.0142 30.2393 30.1499 30.1419 30.163C30.0444 30.1761 29.9486 30.0616 29.9278 29.9072C29.9071 29.7528 29.9694 29.6171 30.0668 29.604C30.1643 29.591 30.2601 29.7055 30.2809 29.8598Z" fill="white"/>
<path d="M30.6769 33.0164C30.6976 33.1707 30.6353 33.3064 30.5379 33.3195C30.4404 33.3326 30.3446 33.2181 30.3238 33.0637C30.303 32.9093 30.3654 32.7736 30.4628 32.7606C30.5603 32.7474 30.6561 32.862 30.6769 33.0164Z" fill="white"/>
<path d="M24.3838 27.0209C24.0082 27.143 23.6004 27.1824 23.1851 27.1638C22.1947 27.1215 21.1564 26.7532 20.3876 26.4083C20.2099 25.6896 19.9937 24.9104 19.696 24.0293C20.7333 24.3394 21.9806 24.8289 22.9747 25.3282C24.3598 26.0232 25.2494 26.7394 24.3838 27.0209Z" fill="white"/>
<path d="M33.393 25.0494C31.6504 23.3315 30.6526 18.8396 30.6526 18.8396C30.6537 18.8395 32.8436 20.8918 33.0986 22.2853C33.293 23.3438 33.3704 24.2143 33.393 25.0494Z" fill="black"/>
<path d="M33.393 25.0494C31.6504 23.3315 30.6526 18.8396 30.6526 18.8396C30.6537 18.8395 32.8436 20.8918 33.0986 22.2853C33.293 23.3438 33.3704 24.2143 33.393 25.0494Z" fill="white"/>
<path d="M23.1731 15.5098C23.5419 17.4743 23.3819 18.6742 23.1403 19.8185C23.1171 19.9284 23.1622 20.0431 23.258 20.1017C24.1343 20.6382 25.103 20.2791 26.6638 20.0097C28.2063 19.7435 28.3092 19.9768 27.844 19.5036C27.7779 19.4363 27.6957 19.3865 27.6071 19.354C26.4382 18.926 26.2448 18.0971 26.4445 17.5379L23.1731 15.5098Z" fill="#EBB376"/>
<path opacity="0.2" d="M23.1738 15.5107L26.4454 17.5385C26.3323 17.8516 26.3439 18.2519 26.5858 18.6181C26.0379 18.7387 25.4406 18.6681 24.8692 18.341C24.0344 17.8629 23.6538 17.1849 23.2842 16.1971C23.2561 15.9791 23.2183 15.7519 23.1738 15.5107Z" fill="black"/>
<path d="M26.0181 10.9487C26.0181 10.9487 27.4468 11.7217 27.1502 14.1828C26.8536 16.644 23.5834 12.0169 26.0181 10.9487Z" fill="#EBB376"/>
<path opacity="0.5" d="M26.0181 10.9487C26.0181 10.9487 27.4468 11.7217 27.1502 14.1828C26.8536 16.644 23.5834 12.0169 26.0181 10.9487Z" fill="black"/>
<path d="M22.0936 14.3493C22.568 16.2037 22.357 16.5547 23.4892 17.3283C25.1922 18.4919 27.5798 18.3299 27.5553 16.364C27.5334 14.5944 27.1192 11.4596 25.1392 11.0808C23.1886 10.7076 21.6194 12.4949 22.0936 14.3493Z" fill="#EBB376"/>
<path d="M24.4009 14.108C24.4377 14.2671 24.5134 14.2672 24.6174 14.2422C24.7213 14.2173 24.8141 14.1766 24.7774 14.0175C24.7407 13.8584 24.6265 13.7495 24.5225 13.7746C24.4186 13.7995 24.3641 13.9489 24.4009 14.108Z" fill="#263238"/>
<path d="M26.3816 13.8577C26.4184 14.0169 26.4941 14.0169 26.598 13.992C26.702 13.967 26.7947 13.9264 26.758 13.7673C26.7212 13.6082 26.6073 13.4994 26.5033 13.5243C26.3994 13.5493 26.3449 13.6986 26.3816 13.8577Z" fill="#263238"/>
<path d="M26.0652 13.8425C26.0652 13.8425 26.465 14.5057 26.8315 14.7952C26.6471 15.0377 26.2601 15.0098 26.2601 15.0098L26.0652 13.8425Z" fill="#D58745"/>
<path d="M23.9676 13.4452C23.9517 13.4448 23.9357 13.4403 23.9211 13.4315C23.876 13.4042 23.862 13.3452 23.8897 13.2998C24.1675 12.8456 24.6097 12.8249 24.6283 12.8243C24.6813 12.8224 24.7252 12.8639 24.7266 12.9168C24.7281 12.9696 24.6865 13.0139 24.6338 13.016C24.6192 13.0166 24.2747 13.0364 24.053 13.3989C24.0343 13.4297 24.0011 13.4462 23.9676 13.4452Z" fill="#263238"/>
<path d="M27.0137 12.9678C26.9846 12.9785 26.9509 12.9749 26.9243 12.9551C26.5856 12.7043 26.2602 12.8193 26.2465 12.8243C26.1969 12.8426 26.1421 12.8172 26.1242 12.7676C26.1062 12.718 26.1315 12.663 26.1807 12.6444C26.1987 12.638 26.6142 12.4859 27.0384 12.8002C27.0807 12.8316 27.0895 12.8917 27.058 12.9345C27.0463 12.9502 27.0307 12.9615 27.0137 12.9678Z" fill="#263238"/>
<path d="M26.0344 15.9891C25.2228 15.9891 24.9175 15.5278 24.903 15.5049C24.8908 15.4858 24.8963 15.4605 24.9155 15.4482C24.9346 15.4359 24.9599 15.4415 24.9723 15.4606C24.9763 15.4667 25.3792 16.0685 26.4822 15.8632C26.5046 15.8589 26.526 15.8738 26.5302 15.8961C26.5344 15.9185 26.5197 15.9399 26.4973 15.9442C26.3275 15.9756 26.1734 15.9891 26.0344 15.9891Z" fill="#263238"/>
<path d="M23.0215 12.7929C23.0215 12.7929 23.0024 12.1326 23.5334 11.842C24.0644 11.5514 25.5903 12.1027 26.4305 11.3424C26.4305 11.3424 27.1758 10.0391 25.6386 9.6035C24.1015 9.16788 21.4909 10.1685 20.8097 11.4606C20.1285 12.7526 20.6126 13.6335 20.6126 13.6335C20.5655 13.2455 20.6425 13.0476 20.6425 13.0476C20.6425 13.0476 20.593 13.9295 21.2594 14.4375L23.0215 12.7929Z" fill="#263238"/>
<path d="M22.5271 15.5839C23.4408 15.9937 23.1503 15.1159 23.08 15.0303C22.773 14.656 22.9513 14.0779 23.1639 13.266C23.2585 12.9047 23.1061 12.3459 23.1061 12.3459C23.1061 12.3459 22.0216 12.2471 21.4025 12.4713C20.7633 12.7027 20.7929 13.2329 20.7929 13.2329C21.1027 14.8792 21.7909 15.2536 22.5271 15.5839Z" fill="#EBB376"/>
<path opacity="0.5" d="M22.5271 15.5839C23.4408 15.9937 23.1503 15.1159 23.08 15.0303C22.773 14.656 22.9513 14.0779 23.1639 13.266C23.2585 12.9047 23.1061 12.3459 23.1061 12.3459C23.1061 12.3459 22.0216 12.2471 21.4025 12.4713C20.7633 12.7027 20.7929 13.2329 20.7929 13.2329C21.1027 14.8792 21.7909 15.2536 22.5271 15.5839Z" fill="black"/>
<path d="M21.4755 15.766C21.7456 16.1817 22.1524 16.4365 22.5135 16.5179C23.0568 16.6403 23.2416 16.0963 23.0177 15.5554C22.8163 15.0686 22.2909 14.4182 21.7806 14.5391C21.2779 14.6583 21.1666 15.2908 21.4755 15.766Z" fill="#EBB376"/>
<path d="M23.2715 18.834C23.2715 18.834 23.9601 19.4075 26.5384 19.7268C26.5384 19.7268 26.7763 19.09 26.5857 18.6177L27.8966 18.9644C27.8966 18.9644 28.5391 19.5673 28.728 20.8702L26.6636 20.0096L25.669 22.1813C25.669 22.1813 23.1291 21.0047 22.6345 19.8885C22.6345 19.8885 22.986 18.6679 23.2715 18.834Z" fill="black"/>
<path d="M23.2715 18.834C23.2715 18.834 23.9601 19.4075 26.5384 19.7268C26.5384 19.7268 26.7763 19.09 26.5857 18.6177L27.8966 18.9644C27.8966 18.9644 28.5391 19.5673 28.728 20.8702L26.6636 20.0096L25.669 22.1813C25.669 22.1813 23.1291 21.0047 22.6345 19.8885C22.6345 19.8885 22.986 18.6679 23.2715 18.834Z" fill="white"/>
<path d="M34.2574 19.6026C33.4939 19.1798 32.7303 18.757 31.9667 18.3341C31.9533 17.8575 31.9332 17.3768 31.9116 16.895C33.0208 15.1658 34.2975 13.5206 35.5942 11.8997C36.3248 12.3042 37.0555 12.7088 37.7862 13.1135C37.1004 15.0727 36.3835 17.0279 35.5064 18.8856C35.0865 19.1229 34.6685 19.3611 34.2574 19.6026Z" fill="#263238"/>
<path opacity="0.6" d="M34.2574 19.6026C33.4939 19.1798 32.7303 18.757 31.9667 18.3341C31.9533 17.8575 31.9332 17.3768 31.9116 16.895C33.0208 15.1658 34.2975 13.5206 35.5942 11.8997C36.3248 12.3042 37.0555 12.7088 37.7862 13.1135C37.1004 15.0727 36.3835 17.0279 35.5064 18.8856C35.0865 19.1229 34.6685 19.3611 34.2574 19.6026Z" fill="white"/>
<path opacity="0.2" d="M31.9116 16.8955L35.5064 18.886C35.5064 18.886 34.6369 18.0692 31.9116 16.8955Z" fill="black"/>
<path opacity="0.2" d="M33.4299 19.0017L34.1314 18.3169L34.8715 18.7267L33.989 19.3114L33.4299 19.0017Z" fill="white"/>
<path opacity="0.2" d="M36.8971 12.7405L34.3997 17.9881L35.0739 18.3614L37.3247 12.9773L36.8971 12.7405Z" fill="white"/>
<path d="M33.2221 21.0217L31.8083 19.4272L34.1193 18.3354C34.1193 18.3354 35.2241 19.9347 34.4692 20.659L33.2221 21.0217Z" fill="#EBB376"/>
<path d="M31.924 17.2166L32.7984 16.9706C33.1465 16.8726 33.5144 17.0412 33.6675 17.3688L34.1192 18.3355L31.8083 19.4272L31.4174 18.1425C31.297 17.7464 31.5254 17.3286 31.924 17.2166Z" fill="#EBB376"/>
<path d="M20.335 21.7438C21.7668 21.6898 28.8989 24.485 28.8989 24.485L32.5268 20.2377C32.5268 20.2377 33.8253 19.9683 34.7783 20.7435C34.7783 20.7435 32.2725 27.1355 30.3969 27.9454C27.6852 29.1163 21.9822 26.6994 20.7671 25.9631C19.5519 25.2269 18.8501 24.1458 19.6614 22.041L20.335 21.7438Z" fill="black"/>
<path d="M20.335 21.7438C21.7668 21.6898 28.8989 24.485 28.8989 24.485L32.5268 20.2377C32.5268 20.2377 33.8253 19.9683 34.7783 20.7435C34.7783 20.7435 32.2725 27.1355 30.3969 27.9454C27.6852 29.1163 21.9822 26.6994 20.7671 25.9631C19.5519 25.2269 18.8501 24.1458 19.6614 22.041L20.335 21.7438Z" fill="white"/>
<path d="M44.9327 26.2002V20.5617C44.9327 20.5075 44.8888 20.4636 44.8346 20.4636H43.6416C43.5874 20.4636 43.5435 20.5075 43.5435 20.5617V26.2002C43.5435 26.5347 43.3666 26.8444 43.0784 27.0144L42.565 27.3172C42.2487 27.5039 42.0544 27.8438 42.0544 28.2111V35.0188H46.4214V28.2111C46.4214 27.8438 46.2272 27.5038 45.9108 27.3171L45.3974 27.0143C45.1094 26.8443 44.9327 26.5347 44.9327 26.2002Z" fill="black"/>
<path opacity="0.5" d="M44.9327 26.2002V20.5617C44.9327 20.5075 44.8888 20.4636 44.8346 20.4636H43.6416C43.5874 20.4636 43.5435 20.5075 43.5435 20.5617V26.2002C43.5435 26.5347 43.3666 26.8444 43.0784 27.0144L42.565 27.3172C42.2487 27.5039 42.0544 27.8438 42.0544 28.2111V35.0188H46.4214V28.2111C46.4214 27.8438 46.2272 27.5038 45.9108 27.3171L45.3974 27.0143C45.1094 26.8443 44.9327 26.5347 44.9327 26.2002Z" fill="white"/>
<path opacity="0.4" d="M45.7994 27.5061L45.286 27.2032C44.9326 26.9946 44.7131 26.6103 44.7131 26.2V23.4314H43.763V26.1999C43.763 26.6102 43.5435 26.9945 43.19 27.2032L42.6765 27.5061C42.4282 27.6526 42.2739 27.9227 42.2739 28.211V34.7993H46.2019V28.211C46.2019 27.9227 46.0478 27.6526 45.7994 27.5061Z" fill="black"/>
<path d="M44.911 21.1302H43.5653C43.5054 21.1302 43.4568 21.0816 43.4568 21.0217V20.9386C43.4568 20.8787 43.5054 20.8301 43.5653 20.8301H44.911C44.9709 20.8301 45.0196 20.8787 45.0196 20.9386V21.0217C45.0196 21.0816 44.9709 21.1302 44.911 21.1302Z" fill="black"/>
<path opacity="0.6" d="M44.911 21.1302H43.5653C43.5054 21.1302 43.4568 21.0816 43.4568 21.0217V20.9386C43.4568 20.8787 43.5054 20.8301 43.5653 20.8301H44.911C44.9709 20.8301 45.0196 20.8787 45.0196 20.9386V21.0217C45.0196 21.0816 44.9709 21.1302 44.911 21.1302Z" fill="white"/>
<path d="M46.4214 29.0884H42.0544V34.1172H46.4214V29.0884Z" fill="#263238"/>
<path opacity="0.2" d="M46.4214 33.3899H42.0544V33.8457H46.4214V33.3899Z" fill="white"/>
<path opacity="0.2" d="M46.4545 29.418H42.0544V29.5916H46.4545V29.418Z" fill="white"/>
<path d="M39.9059 28.4671C39.9741 28.3681 39.9032 28.2332 39.783 28.2332H35.4752C35.3549 28.2332 35.2841 28.3681 35.3523 28.4671L37.3065 31.3015V34.3165L36.2869 34.7636C36.1546 34.8215 36.1961 35.0189 36.3404 35.0189H38.9178C39.0621 35.0189 39.1034 34.8215 38.9713 34.7636L37.9517 34.3165V31.3015L39.9059 28.4671Z" fill="black"/>
<path opacity="0.7" d="M39.9059 28.4671C39.9741 28.3681 39.9032 28.2332 39.783 28.2332H35.4752C35.3549 28.2332 35.2841 28.3681 35.3523 28.4671L37.3065 31.3015V34.3165L36.2869 34.7636C36.1546 34.8215 36.1961 35.0189 36.3404 35.0189H38.9178C39.0621 35.0189 39.1034 34.8215 38.9713 34.7636L37.9517 34.3165V31.3015L39.9059 28.4671Z" fill="white"/>
<path d="M36.0378 29.0747L37.4673 31.1481C37.5039 31.2013 37.5644 31.233 37.629 31.233C37.6937 31.233 37.754 31.2013 37.7907 31.1481L39.2201 29.0747H36.0378Z" fill="black"/>
<path opacity="0.2" d="M38.7018 28.4021L37.6423 31.1332V34.3492L38.4859 34.8495H38.9213L37.7467 34.3165V31.155L39.4614 28.4021H38.7018Z" fill="white"/>
<path d="M16.05 29.1372L15.8188 29.197L17.1618 34.3871L17.393 34.3273L16.05 29.1372Z" fill="black"/>
<path opacity="0.7" d="M16.05 29.1372L15.8188 29.197L17.1618 34.3871L17.393 34.3273L16.05 29.1372Z" fill="white"/>
<path d="M16.3396 30.004L15.9877 30.0951C15.876 30.1239 15.762 30.0569 15.7331 29.9452L15.0331 27.2398C15.0042 27.1281 15.0713 27.0141 15.183 26.9852L15.535 26.8942C15.6467 26.8653 15.7607 26.9323 15.7895 27.044L16.4896 29.7494C16.5185 29.8611 16.4513 29.9751 16.3396 30.004Z" fill="black"/>
<path d="M20.1225 30.5073H16.042V35.0189H20.1225V30.5073Z" fill="#263238"/>
<path opacity="0.6" d="M20.1225 30.5073H16.042V35.0189H20.1225V30.5073Z" fill="white"/>
<path opacity="0.2" d="M19.4949 30.7988H18.603V34.8494H19.4949V30.7988Z" fill="white"/>
<path d="M13.0871 29.1364V24.7119H11.8716V29.1364C11.8716 29.2919 11.7455 29.418 11.5901 29.418H10.9983C10.6655 29.418 10.3958 29.6877 10.3958 30.0205V35.0188H14.5631V30.0205C14.5631 29.6877 14.2932 29.418 13.9605 29.418H13.3688C13.2131 29.418 13.0871 29.2919 13.0871 29.1364Z" fill="black"/>
<path opacity="0.3" d="M13.0871 29.1364V24.7119H11.8716V29.1364C11.8716 29.2919 11.7455 29.418 11.5901 29.418H10.9983C10.6655 29.418 10.3958 29.6877 10.3958 30.0205V35.0188H14.5631V30.0205C14.5631 29.6877 14.2932 29.418 13.9605 29.418H13.3688C13.2131 29.418 13.0871 29.2919 13.0871 29.1364Z" fill="white"/>
<path opacity="0.7" d="M14.06 30.7939H10.8984V33.9555H14.06V30.7939Z" fill="white"/>
<path opacity="0.7" d="M13.8958 33.7911H11.0635V30.9587H13.8958V33.7911ZM11.1732 33.6814H13.7861V31.0685H11.1732V33.6814Z" fill="white"/>
<path d="M13.0632 25.1969H11.8948C11.8429 25.1969 11.8008 25.1547 11.8008 25.1028V24.9292C11.8008 24.8773 11.8429 24.8352 11.8948 24.8352H13.0632C13.1151 24.8352 13.1573 24.8773 13.1573 24.9292V25.1028C13.1573 25.1547 13.1151 25.1969 13.0632 25.1969Z" fill="black"/>
<path opacity="0.5" d="M13.0632 25.1969H11.8948C11.8429 25.1969 11.8008 25.1547 11.8008 25.1028V24.9292C11.8008 24.8773 11.8429 24.8352 11.8948 24.8352H13.0632C13.1151 24.8352 13.1573 24.8773 13.1573 24.9292V25.1028C13.1573 25.1547 13.1151 25.1969 13.0632 25.1969Z" fill="white"/>
<path d="M47.8588 35.208H8.12476V37.1769H47.8588V35.208Z" fill="#263238"/>
<path opacity="0.2" d="M47.8588 35.208H8.12476V37.1769H47.8588V35.208Z" fill="white"/>
<path d="M48.2883 35.019H7.69504C7.57258 35.019 7.47339 35.1182 7.47339 35.2407V35.559C7.47339 35.6815 7.57258 35.7807 7.69504 35.7807H48.2883C48.4108 35.7807 48.51 35.6815 48.51 35.559V35.2407C48.5099 35.1182 48.4107 35.019 48.2883 35.019Z" fill="#263238"/>
<path opacity="0.4" d="M48.2883 35.019H7.69504C7.57258 35.019 7.47339 35.1182 7.47339 35.2407V35.559C7.47339 35.6815 7.57258 35.7807 7.69504 35.7807H48.2883C48.4108 35.7807 48.51 35.6815 48.51 35.559V35.2407C48.5099 35.1182 48.4107 35.019 48.2883 35.019Z" fill="white"/>
<path d="M44.8782 14.4857C44.3362 14.6388 43.7693 14.7174 43.1777 14.7174C39.6608 14.7174 36.8101 11.8666 36.8101 8.34978C36.8101 4.83291 39.6608 1.98218 43.1777 1.98218C46.6945 1.98218 49.5453 4.83291 49.5453 8.34978C49.5453 9.2021 49.3756 10.0172 49.0736 10.7619C48.333 12.57 46.7856 13.9602 44.8782 14.4857ZM46.5249 8.34978C46.5249 7.8781 46.1401 7.49745 45.6726 7.49745H44.03V5.85487C44.03 5.38733 43.6452 5.00255 43.1777 5.00255C42.946 5.00255 42.7308 5.09771 42.5736 5.2508C42.4205 5.40802 42.3253 5.61903 42.3253 5.85487V7.49745H40.6828C40.2152 7.49745 39.8304 7.8781 39.8304 8.34978C39.8304 8.81731 40.2152 9.2021 40.6828 9.2021H42.3253V10.8447C42.3253 11.3122 42.7101 11.697 43.1777 11.697C43.4135 11.697 43.6245 11.6018 43.7817 11.4488C43.9348 11.2915 44.03 11.0764 44.03 10.8447V9.2021H45.6726C46.1401 9.2021 46.5249 8.81731 46.5249 8.34978Z" fill="#6B4EC3"/>
<path d="M45.6727 7.49735C46.1402 7.49735 46.525 7.878 46.525 8.34967C46.525 8.81721 46.1402 9.202 45.6727 9.202H44.0301V10.8446C44.0301 11.0763 43.935 11.2914 43.7819 11.4487C43.6246 11.6017 43.4136 11.6969 43.1778 11.6969C42.7103 11.6969 42.3255 11.3121 42.3255 10.8446V9.202H40.6829C40.2154 9.202 39.8306 8.81721 39.8306 8.34967C39.8306 7.878 40.2154 7.49735 40.6829 7.49735H42.3255V5.85476C42.3255 5.61893 42.4206 5.40792 42.5737 5.25069C42.7309 5.0976 42.9461 5.00244 43.1778 5.00244C43.6453 5.00244 44.0301 5.38723 44.0301 5.85476V7.49735H45.6727Z" fill="#FFF5E1"/>
<path d="M43.1858 14.8582C39.6027 14.8582 36.6858 11.9412 36.6858 8.35815C36.6858 4.77508 39.6027 1.85815 43.1858 1.85815C46.7689 1.85815 49.6858 4.77508 49.6858 8.35815C49.6858 9.21048 49.5244 10.038 49.2058 10.82C48.4487 12.6694 46.8475 14.0927 44.9235 14.6223C44.3608 14.7795 43.7775 14.8582 43.1858 14.8582ZM43.1858 2.12295C39.7475 2.12295 36.9506 4.9199 36.9506 8.35815C36.9506 11.7964 39.7475 14.5934 43.1858 14.5934C43.7526 14.5934 44.3112 14.5189 44.8491 14.3699C46.6985 13.8569 48.2335 12.4915 48.9576 10.7165C49.2638 9.96764 49.421 9.17324 49.421 8.35815C49.421 4.9199 46.624 2.12295 43.1858 2.12295Z" fill="white"/>
</svg>
