<svg width="27" height="34" viewBox="0 0 27 34" fill="none" xmlns="http://www.w3.org/2000/svg">
<path fill-rule="evenodd" clip-rule="evenodd" d="M12.2562 18.1126C10.1221 16.2341 6.77649 17.0929 3.94577 16.7905C4.40813 15.3792 5.02596 13.8419 5.70639 12.2174C6.30806 10.779 6.31412 10.7809 7.43268 11.0116C7.63862 11.0542 7.87283 11.1027 8.10906 11.1473L11.8362 11.8529C12.024 11.9033 12.1633 11.9828 12.2582 12.0894C12.3551 12.198 12.4177 12.3414 12.448 12.5217C12.4298 13.0451 12.4218 13.6248 12.4137 14.2296C12.3975 15.4548 12.3794 16.7982 12.2562 18.1126ZM17.9176 33.3633C17.5522 33.4311 17.1989 33.2004 17.1282 32.8496C17.0575 32.4987 17.2978 32.1594 17.6632 32.0916L20.5041 31.5643L19.2906 25.8688C18.8767 25.9075 18.4789 25.9017 18.1014 25.8513C17.2695 25.7408 16.5346 25.421 15.8945 24.8976C14.1198 23.4494 13.4293 21.0863 13.1507 18.6205C12.872 21.0844 12.1815 23.4475 10.4068 24.8976C9.76469 25.421 9.02975 25.7408 8.19992 25.8513C7.82236 25.9017 7.42662 25.9075 7.0107 25.8688L5.71446 31.9578L8.44423 32.4657C8.80968 32.5336 9.04994 32.8728 8.97928 33.2237C8.90861 33.5746 8.55528 33.8053 8.18983 33.7374L1.37551 32.4715C1.01006 32.4037 0.769791 32.0644 0.840458 31.7136C0.911125 31.3627 1.26446 31.132 1.62991 31.1998L4.38996 31.7116L5.69023 25.6109C5.64178 25.5974 5.59332 25.5819 5.54284 25.5664C5.53477 25.5644 5.52669 25.5625 5.51861 25.5586C2.85144 24.725 1.99334 22.9066 2.17505 20.4117C2.34466 18.0738 3.46523 15.1427 4.83012 11.8801C5.73061 9.73213 5.73869 9.73407 7.62853 10.1237C7.81226 10.1625 8.02224 10.2051 8.28876 10.2555L12.024 10.9631C12.0341 10.9651 12.0442 10.967 12.0543 10.9689C12.444 11.0678 12.7468 11.2462 12.973 11.4982C13.0396 11.5738 13.0982 11.6533 13.1507 11.7385C13.2011 11.6533 13.2617 11.5718 13.3283 11.4982C13.5545 11.2462 13.8593 11.0678 14.247 10.9689C14.2571 10.967 14.2672 10.9651 14.2773 10.9631L18.0125 10.2555C18.2791 10.2051 18.489 10.1625 18.6728 10.1237C20.5626 9.73407 20.5707 9.73213 21.4692 11.8801C22.8361 15.1427 23.9546 18.0738 24.1242 20.4117C24.3059 22.9047 23.4478 24.725 20.7807 25.5586C20.7726 25.5605 20.7645 25.5625 20.7564 25.5664C20.708 25.5819 20.6575 25.5954 20.609 25.6109L21.8245 31.32L24.4755 30.8276C24.841 30.7598 25.1943 30.9905 25.265 31.3414C25.3357 31.6922 25.0954 32.0315 24.7299 32.0993L17.9176 33.3633ZM15.7896 21.4663C15.735 21.3325 15.8037 21.1833 15.943 21.1309C16.0823 21.0786 16.2378 21.1445 16.2923 21.2782C16.6376 22.1215 17.1161 22.7419 17.7097 23.1684C18.3013 23.591 19.014 23.8255 19.8317 23.8934C19.9811 23.905 20.0901 24.031 20.078 24.1745C20.0659 24.3179 19.9347 24.4226 19.7853 24.411C18.8686 24.3334 18.063 24.0678 17.3866 23.5851C16.7143 23.1005 16.1752 22.4046 15.7896 21.4663ZM14.0653 18.3258C17.1322 16.9979 20.3122 15.5653 21.9457 15.6137C21.5519 14.5378 21.0896 13.3999 20.5949 12.2174C19.9932 10.779 19.9872 10.7809 18.8686 11.0116C18.6627 11.0542 18.4285 11.1027 18.1922 11.1473L14.4671 11.8529C14.2793 11.9033 14.14 11.9828 14.0451 12.0894C13.9482 12.198 13.8856 12.3414 13.8553 12.5217C13.8735 13.0451 13.8815 13.6248 13.8896 14.2296C13.9038 15.5207 13.9219 16.9436 14.0653 18.3258ZM10.6571 20.2973C10.6773 20.1558 10.8146 20.0569 10.962 20.0783C11.1094 20.0977 11.2124 20.2295 11.1901 20.371C11.0387 21.3674 10.6813 22.1642 10.1382 22.7826C9.59509 23.4029 8.87429 23.8391 8.00205 24.1144C7.86072 24.159 7.70727 24.0853 7.66083 23.9496C7.6144 23.8139 7.69112 23.6666 7.83245 23.622C8.61383 23.3758 9.25185 22.9919 9.72633 22.4491C10.2048 21.9063 10.5198 21.1968 10.6571 20.2973Z" fill="#857E7E"/>
<path d="M16.4127 1.45998L15.6726 1.27262C15.4283 1.21069 15.2376 1.02798 15.1735 0.79424L14.9788 0.083189C14.9651 0.0333135 14.9191 0 14.8664 0C14.8127 0 14.7668 0.0333135 14.7535 0.083189L14.5584 0.79424C14.4947 1.02798 14.3036 1.21074 14.0593 1.27262L13.3195 1.45998C13.2679 1.47235 13.2324 1.51725 13.2324 1.56759C13.2324 1.61905 13.2679 1.66325 13.3195 1.67599L14.0593 1.86331C14.3036 1.92523 14.4946 2.10752 14.5583 2.3421L14.7535 3.05315C14.7667 3.10228 14.8127 3.13639 14.8663 3.13639C14.9191 3.13639 14.9651 3.10233 14.9788 3.05315L15.1735 2.3421C15.2375 2.10752 15.4282 1.92523 15.6725 1.86331L16.4127 1.67599C16.4639 1.66325 16.4994 1.61909 16.4994 1.56759C16.4994 1.51725 16.4639 1.47235 16.4127 1.45998Z" fill="#857E7E"/>
<path d="M23.2605 9.91288L24.1313 10.1327C24.4184 10.2055 24.6429 10.4207 24.7183 10.6955L24.9473 11.5316C24.963 11.5896 25.0174 11.6299 25.0799 11.6299C25.1424 11.6299 25.1969 11.5896 25.2125 11.5316L25.4415 10.6955C25.5173 10.4207 25.7414 10.2055 26.0284 10.1327L26.8996 9.91288C26.9593 9.89744 27.0016 9.84552 27.0016 9.78517C27.0016 9.72557 26.9593 9.67328 26.8996 9.65783L26.0284 9.43758C25.7414 9.3656 25.5173 9.14996 25.4415 8.8748L25.2125 8.03874C25.1968 7.98067 25.1423 7.94043 25.0799 7.94043C25.0174 7.94043 24.9629 7.98063 24.9473 8.03874L24.7183 8.8748C24.6429 9.15 24.4183 9.3656 24.1313 9.43758L23.2605 9.65783C23.2005 9.67328 23.1582 9.72557 23.1582 9.78517C23.1582 9.84552 23.2005 9.89744 23.2605 9.91288Z" fill="#857E7E"/>
<path d="M0.137909 5.82688L1.30782 6.1226C1.69402 6.22012 1.99518 6.50969 2.09636 6.87971L2.40436 8.00298C2.42568 8.08114 2.4987 8.13497 2.58254 8.13497C2.66637 8.13497 2.73978 8.08114 2.76071 8.00298L3.06871 6.87971C3.17032 6.50969 3.47187 6.22016 3.85725 6.1226L5.02794 5.82688C5.10857 5.80674 5.16502 5.7363 5.16502 5.65581C5.16502 5.57532 5.10857 5.50525 5.02794 5.48436L3.85725 5.18864C3.47182 5.09108 3.17032 4.80197 3.06871 4.4319L2.76071 3.30826C2.73978 3.23047 2.66641 3.17627 2.58254 3.17627C2.4987 3.17627 2.42573 3.23043 2.40436 3.30826L2.09636 4.4319C1.99518 4.80197 1.69407 5.09108 1.30782 5.18864L0.137909 5.48436C0.0565002 5.50525 0 5.57532 0 5.65581C0 5.7363 0.0565002 5.80674 0.137909 5.82688Z" fill="#857E7E"/>
</svg>
