<svg width="22" height="22" viewBox="0 0 22 22" fill="none" xmlns="http://www.w3.org/2000/svg">
<path d="M11.1207 11.7794C11.0507 11.7694 10.9607 11.7694 10.8807 11.7794C9.12073 11.7194 7.7207 10.2794 7.7207 8.50942C7.7207 6.69946 9.18073 5.22949 11.0007 5.22949C12.8107 5.22949 14.2807 6.69946 14.2807 8.50942C14.2707 10.2794 12.8807 11.7194 11.1207 11.7794Z" stroke="#929292" stroke-width="0.75" stroke-linecap="round" stroke-linejoin="round"/>
<path d="M17.7358 18.38C15.9558 20.0099 13.5958 20.9999 10.9958 20.9999C8.39586 20.9999 6.03586 20.0099 4.25586 18.38C4.35586 17.44 4.95586 16.52 6.02586 15.8C8.76586 13.9801 13.2458 13.9801 15.9658 15.8C17.0358 16.52 17.6358 17.44 17.7358 18.38Z" stroke="#929292" stroke-width="0.75" stroke-linecap="round" stroke-linejoin="round"/>
<path d="M11 20.9996C16.5228 20.9996 21 16.5225 21 10.9998C21 5.47705 16.5228 1 11 1C5.47715 1 1 5.47705 1 10.9998C1 16.5225 5.47715 20.9996 11 20.9996Z" stroke="#929292" stroke-width="0.75" stroke-linecap="round" stroke-linejoin="round"/>
</svg>
