<svg width="23" height="23" viewBox="0 0 23 23" fill="none" xmlns="http://www.w3.org/2000/svg">
<path d="M15.6787 0H6.93864C6.29653 0 5.68073 0.255075 5.22669 0.709112C4.77265 1.16315 4.51758 1.77895 4.51758 2.42106V10.1523C4.51758 10.7944 4.77265 11.4102 5.22669 11.8643C5.68073 12.3183 6.29653 12.5734 6.93864 12.5734H7.83846L11.002 16.2978C11.0553 16.3601 11.1264 16.4046 11.2057 16.4255C11.2849 16.4464 11.3687 16.4427 11.4458 16.4148C11.5241 16.387 11.5918 16.3356 11.6395 16.2676C11.6872 16.1996 11.7126 16.1185 11.7122 16.0355V12.5734H15.6787C16.3208 12.5734 16.9366 12.3183 17.3906 11.8643C17.8446 11.4102 18.0997 10.7944 18.0997 10.1523V2.42106C18.0997 1.77895 17.8446 1.16315 17.3906 0.709112C16.9366 0.255075 16.3208 0 15.6787 0ZM17.2927 10.1523C17.2927 10.5804 17.1227 10.9909 16.82 11.2936C16.5173 11.5963 16.1067 11.7663 15.6787 11.7663H11.3086C11.2016 11.7663 11.099 11.8089 11.0233 11.8845C10.9477 11.9602 10.9051 12.0628 10.9051 12.1699V14.9379L8.33075 11.9076C8.29267 11.8635 8.2456 11.8281 8.19271 11.8037C8.13981 11.7794 8.08231 11.7666 8.02408 11.7663H6.93864C6.51057 11.7663 6.10003 11.5963 5.79734 11.2936C5.49465 10.9909 5.3246 10.5804 5.3246 10.1523V2.42106C5.3246 1.99299 5.49465 1.58245 5.79734 1.27976C6.10003 0.97707 6.51057 0.80702 6.93864 0.80702H15.6787C16.1067 0.80702 16.5173 0.97707 16.82 1.27976C17.1227 1.58245 17.2927 1.99299 17.2927 2.42106V10.1523Z" fill="#929292"/>
<path d="M16.418 2.92548C16.418 3.0325 16.3755 3.13513 16.2999 3.21081C16.2242 3.28648 16.1215 3.32899 16.0145 3.32899H6.60468C6.49766 3.32899 6.39503 3.28648 6.31936 3.21081C6.24368 3.13513 6.20117 3.0325 6.20117 2.92548C6.20117 2.81847 6.24368 2.71583 6.31936 2.64016C6.39503 2.56449 6.49766 2.52197 6.60468 2.52197H16.0145C16.1215 2.52197 16.2242 2.56449 16.2999 2.64016C16.3755 2.71583 16.418 2.81847 16.418 2.92548Z" fill="#929292"/>
<path d="M16.418 4.60763C16.418 4.71465 16.3755 4.81728 16.2999 4.89296C16.2242 4.96863 16.1215 5.01114 16.0145 5.01114H6.60468C6.49766 5.01114 6.39503 4.96863 6.31936 4.89296C6.24368 4.81728 6.20117 4.71465 6.20117 4.60763C6.20117 4.50061 6.24368 4.39798 6.31936 4.32231C6.39503 4.24663 6.49766 4.20412 6.60468 4.20412H16.0145C16.0677 4.20358 16.1204 4.21365 16.1696 4.23374C16.2188 4.25383 16.2635 4.28353 16.3011 4.3211C16.3386 4.35868 16.3683 4.40338 16.3884 4.45258C16.4085 4.50178 16.4186 4.55449 16.418 4.60763Z" fill="#929292"/>
<path d="M16.418 6.28681C16.418 6.39383 16.3755 6.49646 16.2999 6.57214C16.2242 6.64781 16.1215 6.69032 16.0145 6.69032H6.60468C6.49766 6.69032 6.39503 6.64781 6.31936 6.57214C6.24368 6.49646 6.20117 6.39383 6.20117 6.28681C6.20117 6.17979 6.24368 6.07716 6.31936 6.00149C6.39503 5.92581 6.49766 5.8833 6.60468 5.8833H16.0145C16.1215 5.8833 16.2242 5.92581 16.2999 6.00149C16.3755 6.07716 16.418 6.17979 16.418 6.28681Z" fill="#929292"/>
<path d="M16.4162 7.96945C16.4162 8.07647 16.3737 8.1791 16.298 8.25477C16.2223 8.33045 16.1197 8.37296 16.0127 8.37296H9.96406C9.85704 8.37296 9.7544 8.33045 9.67873 8.25477C9.60306 8.1791 9.56055 8.07647 9.56055 7.96945C9.56055 7.86243 9.60306 7.7598 9.67873 7.68412C9.7544 7.60845 9.85704 7.56594 9.96406 7.56594H16.0127C16.0658 7.5654 16.1185 7.57547 16.1677 7.59555C16.2169 7.61564 16.2616 7.64534 16.2992 7.68292C16.3368 7.7205 16.3665 7.7652 16.3866 7.8144C16.4067 7.8636 16.4167 7.91631 16.4162 7.96945Z" fill="#929292"/>
<path d="M16.4162 9.64765C16.4162 9.75467 16.3737 9.8573 16.298 9.93298C16.2223 10.0086 16.1197 10.0512 16.0127 10.0512H9.96406C9.85704 10.0512 9.7544 10.0086 9.67873 9.93298C9.60306 9.8573 9.56055 9.75467 9.56055 9.64765C9.56055 9.54063 9.60306 9.438 9.67873 9.36233C9.7544 9.28665 9.85704 9.24414 9.96406 9.24414H16.0127C16.1197 9.24414 16.2223 9.28665 16.298 9.36233C16.3737 9.438 16.4162 9.54063 16.4162 9.64765Z" fill="#929292"/>
<path d="M5.92093 17.3712C5.89408 17.2906 5.84268 17.2204 5.77394 17.1705C5.70519 17.1206 5.62256 17.0934 5.5376 17.0928H3.8711L3.35461 15.507C3.32808 15.4263 3.27673 15.356 3.2079 15.3062C3.13906 15.2563 3.05626 15.2295 2.97128 15.2295C2.8863 15.2295 2.80349 15.2563 2.73466 15.3062C2.66582 15.356 2.61448 15.4263 2.58794 15.507L2.07145 17.0928H0.404954C0.31956 17.0925 0.236271 17.1193 0.167072 17.1693C0.0978731 17.2194 0.0463326 17.2901 0.0198674 17.3713C-0.0065978 17.4524 -0.00662304 17.5399 0.0197953 17.6211C0.0462135 17.7023 0.0977131 17.7731 0.166883 17.8232L1.51461 18.8037L1.00215 20.3854C0.982405 20.446 0.977275 20.5104 0.987178 20.5733C0.99708 20.6362 1.02173 20.6959 1.05912 20.7474C1.09651 20.799 1.14558 20.841 1.2023 20.8699C1.25902 20.8989 1.32179 20.914 1.38548 20.914C1.47091 20.9141 1.55419 20.8872 1.62355 20.8374L2.97128 19.8568L4.319 20.8374C4.38771 20.8871 4.47034 20.9138 4.55513 20.9139C4.63993 20.914 4.72259 20.8873 4.79138 20.8377C4.86017 20.7881 4.91159 20.7182 4.93834 20.6377C4.96509 20.5572 4.96581 20.4704 4.9404 20.3895L4.42391 18.8037L5.77567 17.8232C5.84396 17.7724 5.89467 17.7015 5.92072 17.6205C5.94676 17.5394 5.94684 17.4523 5.92093 17.3712ZM3.56847 18.7714L3.7904 19.4574L3.20935 19.0337C3.14049 18.9826 3.05702 18.955 2.97128 18.955C2.88553 18.955 2.80206 18.9826 2.73321 19.0337L2.15215 19.4574L2.37408 18.7714C2.4003 18.691 2.40037 18.6043 2.37427 18.5238C2.34818 18.4434 2.29725 18.3732 2.22882 18.3235L1.64776 17.8998H2.36601C2.45097 17.8992 2.53361 17.872 2.60235 17.8221C2.67109 17.7722 2.72249 17.702 2.74935 17.6214L2.97128 16.9354L3.19321 17.6214C3.21959 17.7023 3.27086 17.7728 3.33971 17.8228C3.40856 17.8728 3.49145 17.8998 3.57654 17.8998H4.29479L3.71374 18.3235C3.64456 18.3726 3.59306 18.4427 3.56689 18.5234C3.54072 18.6041 3.54127 18.6911 3.56847 18.7714Z" fill="#929292"/>
<path d="M14.2588 19.4533C14.2324 19.3724 14.1812 19.3019 14.1123 19.2519C14.0435 19.2019 13.9606 19.1749 13.8755 19.1748H12.209L11.6925 17.589C11.666 17.5083 11.6146 17.438 11.5458 17.3882C11.477 17.3384 11.3941 17.3115 11.3092 17.3115C11.2242 17.3115 11.1414 17.3384 11.0725 17.3882C11.0037 17.438 10.9524 17.5083 10.9258 17.589L10.4093 19.1748H8.74284C8.65745 19.1745 8.57416 19.2013 8.50496 19.2514C8.43576 19.3014 8.38422 19.3721 8.35776 19.4533C8.33129 19.5345 8.33127 19.622 8.35769 19.7032C8.3841 19.7844 8.4356 19.8551 8.50477 19.9052L9.85653 20.8857L9.34004 22.4715C9.31414 22.5526 9.31421 22.6397 9.34026 22.7207C9.3663 22.8018 9.41701 22.8726 9.4853 22.9234C9.55493 22.9727 9.6381 22.9991 9.72337 22.9991C9.80864 22.9991 9.89182 22.9727 9.96144 22.9234L11.3092 21.9429L12.6569 22.9234C12.7263 22.9733 12.8095 23.0001 12.895 23.0001C12.9804 23.0001 13.0637 22.9733 13.133 22.9234C13.2013 22.8726 13.252 22.8018 13.2781 22.7207C13.3041 22.6397 13.3042 22.5526 13.2783 22.4715L12.7618 20.8857L14.1136 19.9052C14.1824 19.8549 14.2336 19.784 14.2597 19.7028C14.2858 19.6216 14.2855 19.5343 14.2588 19.4533ZM11.9064 20.8575L12.1283 21.5394L11.5472 21.1157C11.4779 21.0659 11.3946 21.039 11.3092 21.039C11.2237 21.039 11.1405 21.0659 11.0711 21.1157L10.49 21.5394L10.712 20.8575C10.7391 20.7765 10.7397 20.689 10.7136 20.6076C10.6874 20.5263 10.636 20.4555 10.5667 20.4055L9.98565 19.9819H10.7039C10.789 19.9818 10.8719 19.9548 10.9407 19.9048C11.0096 19.8548 11.0609 19.7843 11.0872 19.7034L11.3092 19.0215L11.5311 19.7034C11.5575 19.7843 11.6088 19.8548 11.6776 19.9048C11.7464 19.9548 11.8293 19.9818 11.9144 19.9819H12.6327L12.0516 20.4055C11.9824 20.4555 11.9309 20.5263 11.9048 20.6076C11.8786 20.689 11.8792 20.7765 11.9064 20.8575Z" fill="#929292"/>
<path d="M22.5928 17.3712C22.5669 17.29 22.5158 17.2192 22.4468 17.1691C22.3779 17.119 22.2947 17.0923 22.2095 17.0928H20.543L20.0265 15.507C20 15.4263 19.9486 15.356 19.8798 15.3062C19.8109 15.2563 19.7281 15.2295 19.6432 15.2295C19.5582 15.2295 19.4754 15.2563 19.4065 15.3062C19.3377 15.356 19.2864 15.4263 19.2598 15.507L18.7433 17.0928H17.0768C16.9914 17.0925 16.9081 17.1193 16.8389 17.1693C16.7697 17.2194 16.7182 17.2901 16.6917 17.3713C16.6653 17.4524 16.6653 17.5399 16.6917 17.6211C16.7181 17.7023 16.7696 17.7731 16.8388 17.8232L18.1905 18.8037L17.674 20.3895C17.6486 20.4704 17.6493 20.5572 17.6761 20.6377C17.7028 20.7182 17.7543 20.7881 17.8231 20.8377C17.8918 20.8873 17.9745 20.914 18.0593 20.9139C18.1441 20.9138 18.2267 20.8871 18.2954 20.8374L19.6432 19.8568L20.9909 20.8374C21.0602 20.8872 21.1435 20.9141 21.2289 20.914C21.3146 20.9153 21.3982 20.8884 21.467 20.8374C21.5365 20.7876 21.5882 20.7168 21.6143 20.6354C21.6405 20.554 21.6398 20.4664 21.6123 20.3854L21.0998 18.8037L22.4475 17.8232C22.5164 17.7728 22.5676 17.702 22.5937 17.6208C22.6198 17.5396 22.6195 17.4522 22.5928 17.3712ZM20.2403 18.7714L20.4623 19.4574L19.8812 19.0337C19.8121 18.9833 19.7287 18.9564 19.6432 18.957C19.5577 18.957 19.4744 18.9838 19.4051 19.0337L18.824 19.4574L19.046 18.7714C19.0732 18.6911 19.0737 18.6041 19.0475 18.5234C19.0214 18.4427 18.9699 18.3726 18.9007 18.3235L18.3196 17.8998H19.0379C19.123 17.8998 19.2059 17.8728 19.2747 17.8228C19.3436 17.7728 19.3948 17.7023 19.4212 17.6214L19.6432 16.9354L19.8651 17.6214C19.8919 17.702 19.9433 17.7722 20.0121 17.8221C20.0808 17.872 20.1635 17.8992 20.2484 17.8998H20.9667L20.3856 18.3235C20.3172 18.3732 20.2663 18.4434 20.2402 18.5238C20.2141 18.6043 20.2141 18.691 20.2403 18.7714Z" fill="#929292"/>
</svg>
