<svg xmlns="http://www.w3.org/2000/svg" width="14" height="15" viewBox="0 0 14 15" fill="none">
  <path d="M11.667 4.58334H2.33366C1.68933 4.58334 1.16699 5.10568 1.16699 5.75001V11.5833C1.16699 12.2277 1.68933 12.75 2.33366 12.75H11.667C12.3113 12.75 12.8337 12.2277 12.8337 11.5833V5.75001C12.8337 5.10568 12.3113 4.58334 11.667 4.58334Z" stroke="#350ABC" stroke-width="0.753846" stroke-linecap="round" stroke-linejoin="round" />
  <path d="M9.33366 12.75V3.41667C9.33366 3.10725 9.21074 2.8105 8.99195 2.59171C8.77316 2.37292 8.47641 2.25 8.16699 2.25H5.83366C5.52424 2.25 5.22749 2.37292 5.0087 2.59171C4.78991 2.8105 4.66699 3.10725 4.66699 3.41667V12.75" stroke="#350ABC" stroke-width="0.753846" stroke-linecap="round" stroke-linejoin="round" />
</svg>