<svg width="41" height="41" viewBox="0 0 41 41" fill="none" xmlns="http://www.w3.org/2000/svg">
<path d="M0.821429 5.64286C0.821429 2.98005 2.98006 0.821429 5.64286 0.821429H35.3571C38.0199 0.821429 40.1786 2.98006 40.1786 5.64286V35.3571C40.1786 38.0199 38.0199 40.1786 35.3571 40.1786H5.64286C2.98005 40.1786 0.821429 38.0199 0.821429 35.3571V5.64286Z" fill="#FFF5EC"/>
<path d="M0.821429 5.64286C0.821429 2.98005 2.98006 0.821429 5.64286 0.821429H35.3571C38.0199 0.821429 40.1786 2.98006 40.1786 5.64286V35.3571C40.1786 38.0199 38.0199 40.1786 35.3571 40.1786H5.64286C2.98005 40.1786 0.821429 38.0199 0.821429 35.3571V5.64286Z" stroke="#FFD6B1" stroke-width="0.642857"/>
<path d="M27.4861 13.1982H14.1528C13.1008 13.1982 12.248 14.051 12.248 15.103V28.4363C12.248 29.4883 13.1008 30.3411 14.1528 30.3411H27.4861C28.5381 30.3411 29.3909 29.4883 29.3909 28.4363V15.103C29.3909 14.051 28.5381 13.1982 27.4861 13.1982Z" stroke="#C46914" stroke-width="0.952381" stroke-linecap="round" stroke-linejoin="round"/>
<path d="M24.6289 11.2935V15.103" stroke="#C46914" stroke-width="0.952381" stroke-linecap="round" stroke-linejoin="round"/>
<path d="M17.0098 11.2935V15.103" stroke="#C46914" stroke-width="0.952381" stroke-linecap="round" stroke-linejoin="round"/>
<path d="M12.248 18.9126H29.3909" stroke="#C46914" stroke-width="0.952381" stroke-linecap="round" stroke-linejoin="round"/>
</svg>
