<svg width="40" height="41" viewBox="0 0 40 41" fill="none" xmlns="http://www.w3.org/2000/svg">
<path d="M0.321429 5.64286C0.321429 2.98005 2.48006 0.821429 5.14286 0.821429H34.8571C37.5199 0.821429 39.6786 2.98006 39.6786 5.64286V35.3571C39.6786 38.0199 37.5199 40.1786 34.8571 40.1786H5.14286C2.48005 40.1786 0.321429 38.0199 0.321429 35.3571V5.64286Z" fill="#FFF1FD"/>
<path d="M0.321429 5.64286C0.321429 2.98005 2.48006 0.821429 5.14286 0.821429H34.8571C37.5199 0.821429 39.6786 2.98006 39.6786 5.64286V35.3571C39.6786 38.0199 37.5199 40.1786 34.8571 40.1786H5.14286C2.48005 40.1786 0.321429 38.0199 0.321429 35.3571V5.64286Z" stroke="#FFB3F4" stroke-width="0.642857"/>
<g clip-path="url(#clip0_8173_19057)">
<path d="M28.8909 18.9125C28.8909 25.5792 20.3195 31.2934 20.3195 31.2934C20.3195 31.2934 11.748 25.5792 11.748 18.9125C11.748 16.6392 12.6511 14.459 14.2586 12.8516C15.866 11.2441 18.0462 10.3411 20.3195 10.3411C22.5928 10.3411 24.7729 11.2441 26.3804 12.8516C27.9878 14.459 28.8909 16.6392 28.8909 18.9125Z" stroke="#E229C7" stroke-width="0.952381" stroke-linecap="round" stroke-linejoin="round"/>
<path d="M20.32 21.7697C21.898 21.7697 23.1772 20.4905 23.1772 18.9126C23.1772 17.3346 21.898 16.0554 20.32 16.0554C18.7421 16.0554 17.4629 17.3346 17.4629 18.9126C17.4629 20.4905 18.7421 21.7697 20.32 21.7697Z" stroke="#E229C7" stroke-width="0.952381" stroke-linecap="round" stroke-linejoin="round"/>
</g>
<defs>
<clipPath id="clip0_8173_19057">
<rect width="22.8571" height="22.8571" fill="white" transform="translate(8.89062 9.38867)"/>
</clipPath>
</defs>
</svg>
