<svg  xmlns="http://www.w3.org/2000/svg"
    viewBox="0 0 158 73" fill="none">
    <path
        d="M139.518 47.1303C136.946 47.1303 134.506 47.6875 132.305 48.682C132.865 46.7359 133.171 44.6813 133.171 42.5552C133.171 30.3274 123.258 20.4171 111.033 20.4171C107.224 20.4171 103.64 21.3801 100.511 23.0747C96.499 9.96668 84.3055 0.433594 69.883 0.433594C52.1942 0.433594 37.8546 14.7732 37.8546 32.462C37.8546 33.3336 37.9003 34.1937 37.9689 35.0482C37.1888 34.9424 36.3915 34.8824 35.5828 34.8824C25.8811 34.8824 18.0197 42.7467 18.0197 52.4455C18.0197 53.5057 18.1197 54.543 18.2998 55.5517C18.2055 55.5517 18.114 55.546 18.0197 55.546C8.80668 55.546 1.2568 62.6415 0.519531 71.6631H155.646C156.572 69.5256 157.087 67.1709 157.087 64.6962C157.087 54.9945 149.222 47.1331 139.524 47.1331L139.518 47.1303Z"
        fill="white" />
    <path
        d="M157.084 64.6923C157.084 67.1698 156.57 69.5245 155.644 71.6621H150.309C148.777 63.5264 141.633 57.371 133.051 57.371C130.48 57.371 128.039 57.9282 125.836 58.9227C126.396 56.9766 126.702 54.922 126.702 52.7988C126.702 40.5709 116.789 30.6578 104.561 30.6578C100.752 30.6578 97.1681 31.6208 94.039 33.3125C90.0268 20.2045 77.8333 10.6715 63.4136 10.6715C54.192 10.6715 45.882 14.5664 40.041 20.8018C44.7018 8.87687 56.3067 0.429688 69.8833 0.429688C84.3058 0.429688 96.4994 9.96277 100.512 23.0708C103.641 21.3762 107.224 20.416 111.033 20.416C123.261 20.416 133.174 30.3292 133.174 42.557C133.174 44.6831 132.869 46.7349 132.308 48.6809C134.509 47.6893 136.949 47.1292 139.521 47.1292C149.22 47.1292 157.084 54.9934 157.084 64.6923Z"
        fill="#F7F8FF" />
    <path
        d="M53.0143 17.7461C51.7884 19.595 50.6825 21.4667 49.7509 23.4071C48.8164 25.3417 48.0506 27.3335 47.4591 29.3624C46.8761 31.3942 46.4789 33.466 46.2531 35.552L46.1731 36.335L46.1245 37.1209L46.0731 37.9067L46.0588 38.6926C46.0588 38.9555 46.0417 39.2155 46.0531 39.4784L46.0845 40.2643L46.1417 41.836L46.2074 43.5791L44.5414 43.3534C43.7184 43.242 42.8982 43.1534 42.0724 43.1705C41.2465 43.1734 40.415 43.2048 39.592 43.3305C37.946 43.5506 36.3228 44.0078 34.774 44.6793C33.2223 45.3537 31.762 46.2653 30.4189 47.3627L29.916 47.7799L29.4359 48.2257C29.1073 48.5171 28.8072 48.8372 28.4986 49.1544L28.2671 49.3944L28.0528 49.6488C27.9071 49.8174 27.7671 49.9888 27.6156 50.1574C27.3241 50.4975 27.0698 50.8661 26.7783 51.2176C26.9383 50.7947 27.0984 50.366 27.287 49.9488C27.3841 49.7431 27.4899 49.5402 27.5927 49.3344L27.747 49.0258L27.9214 48.7286C28.1557 48.3314 28.3843 47.9256 28.6644 47.557L29.0673 46.9883L29.5131 46.4511C30.7133 45.0251 32.1621 43.762 33.811 42.8076C35.4513 41.8388 37.2716 41.1473 39.1605 40.7615C39.632 40.6529 40.1092 40.5986 40.5893 40.5329C41.0665 40.4557 41.5494 40.45 42.0324 40.4186C43.0011 40.3729 43.9756 40.4243 44.93 40.5472L43.3269 42.0617L43.2412 40.3472L43.2012 39.4899C43.1926 39.2041 43.2126 38.9183 43.2183 38.6326L43.244 37.7753L43.3069 36.918C43.3298 36.6322 43.3526 36.3465 43.3841 36.0636L43.4984 35.212C43.8098 32.9459 44.3985 30.7198 45.2272 28.5994C46.0588 26.479 47.1561 24.4758 48.4621 22.6412C49.7709 20.8095 51.2883 19.1406 53.0143 17.7461Z"
        fill="#F7F8FF" />
    <path
        d="M100.792 22.9216C100.698 22.9702 100.606 23.0217 100.512 23.0702C100.475 22.9531 100.438 22.8359 100.4 22.7188C100.532 22.7845 100.66 22.8531 100.792 22.9216Z"
        fill="white" />
    <path
        d="M155.924 72.0907H0.0507812L0.0879319 71.6278C0.45371 67.1384 2.48263 62.9777 5.79463 59.9057C9.07234 56.8681 13.3245 55.1735 17.7881 55.1163C17.6538 54.2219 17.5852 53.3246 17.5852 52.4444C17.5852 42.5227 25.6581 34.4527 35.577 34.4527C36.2028 34.4527 36.8486 34.487 37.4973 34.5585C37.4458 33.8012 37.4201 33.1125 37.4201 32.461C37.4201 14.5636 51.9798 0.00390625 69.8772 0.00390625C76.967 0.00390625 83.6996 2.24715 89.352 6.49646C94.6786 10.5 98.7136 16.1524 100.76 22.4564C103.92 20.8418 107.458 19.9902 111.027 19.9902C123.472 19.9902 133.594 30.1148 133.594 42.557C133.594 44.3716 133.374 46.1805 132.94 47.9465C135.037 47.1207 137.243 46.7034 139.512 46.7034C149.434 46.7034 157.504 54.7763 157.504 64.6951C157.504 67.1699 157.007 69.5731 156.029 71.8335L155.918 72.0907H155.924ZM0.988095 71.2334H155.361C156.221 69.1559 156.655 66.9584 156.655 64.6951C156.655 55.2478 148.968 47.5607 139.521 47.5607C137.077 47.5607 134.708 48.0694 132.485 49.0724L131.642 49.4525L131.899 48.5638C132.462 46.6063 132.748 44.5831 132.748 42.557C132.748 30.5864 123.009 20.8475 111.039 20.8475C107.438 20.8475 103.869 21.7477 100.72 23.4508L100.26 23.6994L100.105 23.1994C96.016 9.83704 83.871 0.861198 69.8886 0.861198C52.4656 0.861198 38.2888 15.0379 38.2888 32.461C38.2888 33.2354 38.326 34.0727 38.4003 35.0128L38.4432 35.5444L37.9145 35.4729C37.1258 35.3643 36.3428 35.31 35.5855 35.31C26.1382 35.31 18.4511 42.9971 18.4511 52.4444C18.4511 53.4446 18.5426 54.4619 18.7226 55.4764L18.814 55.9879L18.1682 55.9765C18.1196 55.9765 18.0711 55.9736 18.0225 55.9736C9.32382 55.9736 1.93396 62.6405 0.993799 71.2334H0.988095Z"
        fill="#E9DEFF" />
</svg>