<svg xmlns="http://www.w3.org/2000/svg"
    viewBox="0 0 188 232" fill="none">
    <g clip-path="url(#clip0_268_18848)">
        <path
            d="M1.66993 48.717L37.2025 75.3896L49.3529 63.8796C49.3529 63.8796 49.3548 63.8787 49.3558 63.8758L55.9192 57.6598L1.66993 48.717Z"
            fill="white" />
        <path d="M6.78466 47.8335L62.5287 47.5523L77.1815 40.3579L6.78466 47.8335Z" fill="white" />
        <path
            d="M56.6538 57.1334L57.0007 57.5198L61.8564 67.4093L62.2743 48.1966L4.22626 48.4907L56.6538 57.1334Z"
            fill="#D4D8F3" />
        <path d="M50.1862 63.9735L61.5077 68.1518L56.5137 57.9805L50.1862 63.9735Z" fill="#838EE8" />
        <path
            d="M56.7505 57.7362C56.8407 57.6919 56.9083 57.6064 56.9253 57.5005C56.9544 57.3268 56.8371 57.1607 56.6614 57.1327L0.481532 47.872C0.307763 47.8431 0.141482 47.9604 0.113377 48.136C0.0843307 48.3097 0.201607 48.4758 0.377298 48.5037L56.5552 57.7655C56.623 57.7774 56.691 57.7654 56.7486 57.7372L56.7505 57.7362Z"
            fill="#27191C" />
        <path
            d="M37.2498 76.2236L56.8302 57.6771C56.9583 57.5547 56.9637 57.3522 56.8433 57.2233C56.7209 57.0954 56.5183 57.0902 56.3893 57.2107L37.2017 75.3834L0.622549 47.9279C0.479961 47.8218 0.279937 47.851 0.172751 47.9917C0.066504 48.1343 0.0955739 48.3342 0.236244 48.4412L37.2479 76.2245L37.2498 76.2236Z"
            fill="#27191C" />
        <path
            d="M62.7437 48.159L79.0873 40.1345C79.2466 40.0563 79.3121 39.8647 79.234 39.7056C79.1558 39.5464 78.9642 39.4811 78.8049 39.5593L62.4613 47.5838C62.302 47.662 62.2365 47.8536 62.3146 48.0128C62.3928 48.1719 62.5844 48.2372 62.7437 48.159Z"
            fill="#27191C" />
        <path
            d="M62.2893 69.017C62.3929 68.9661 62.4664 68.8586 62.4683 68.7363L62.9299 47.5509L6.78248 47.8351L78.979 40.1683C79.156 40.1505 79.2824 39.9908 79.2637 39.8168C79.2459 39.6399 79.0882 39.5127 78.9121 39.5325L0.39622 47.8678L0.431493 48.5072L62.2749 48.1961L61.826 68.7233C61.8227 68.901 61.9631 69.0463 62.1389 69.0503C62.1915 69.0507 62.2432 69.0396 62.2874 69.0179L62.2893 69.017Z"
            fill="#27191C" />
        <path
            d="M62.2895 69.0175C62.4487 68.9393 62.5143 68.7477 62.4361 68.5886L56.8971 57.3071C56.8189 57.148 56.6273 57.0827 56.468 57.1609C56.3087 57.2391 56.2432 57.4307 56.3213 57.5898L61.8604 68.8713C61.9385 69.0304 62.1302 69.0957 62.2895 69.0175Z"
            fill="#27191C" />
        <path
            d="M62.2895 69.0152C62.3605 68.9803 62.4183 68.9186 62.4486 68.8395C62.5101 68.6737 62.4245 68.4897 62.2586 68.4283L49.7007 63.7935C49.5348 63.7322 49.3506 63.8179 49.2891 63.9837C49.2276 64.1495 49.3132 64.3335 49.4791 64.3949L62.037 69.0297C62.1238 69.0609 62.2137 69.0548 62.2904 69.0171L62.2895 69.0152Z"
            fill="#27191C" />
        <path
            d="M163.477 195.039C163.598 194.979 163.696 194.874 163.744 194.739C164.222 193.398 164.674 192.024 165.084 190.652C165.169 190.37 165.009 190.072 164.725 189.988C164.442 189.903 164.145 190.064 164.06 190.348C163.655 191.701 163.21 193.059 162.737 194.381C162.638 194.658 162.783 194.965 163.061 195.065C163.202 195.114 163.351 195.103 163.476 195.042L163.477 195.039ZM165.93 186.855C166.067 186.788 166.174 186.662 166.214 186.502C166.551 185.12 166.86 183.708 167.131 182.301C167.187 182.012 166.997 181.732 166.708 181.676C166.419 181.621 166.138 181.811 166.082 182.1C165.816 183.489 165.51 184.884 165.178 186.249C165.109 186.535 165.284 186.825 165.571 186.894C165.697 186.924 165.825 186.907 165.932 186.854L165.93 186.855ZM167.542 178.466C167.695 178.391 167.811 178.243 167.836 178.06C168.035 176.651 168.202 175.215 168.333 173.79C168.36 173.496 168.144 173.235 167.85 173.208C167.555 173.182 167.295 173.398 167.268 173.692C167.137 175.1 166.972 176.519 166.776 177.909C166.733 178.201 166.938 178.472 167.229 178.512C167.339 178.528 167.446 178.508 167.538 178.463L167.542 178.466ZM168.326 169.957C168.495 169.875 168.615 169.703 168.626 169.501C168.687 168.079 168.715 166.632 168.71 165.205C168.708 164.911 168.467 164.672 168.173 164.674C167.878 164.676 167.639 164.917 167.641 165.211C167.647 166.624 167.618 168.051 167.558 169.456C167.545 169.75 167.775 170 168.069 170.012C168.162 170.017 168.25 169.997 168.329 169.958L168.326 169.957ZM168.292 161.415C168.479 161.323 168.601 161.127 168.591 160.907C168.518 159.483 168.411 158.042 168.271 156.621C168.241 156.329 167.981 156.114 167.685 156.142C167.393 156.172 167.177 156.432 167.206 156.728C167.345 158.132 167.451 159.555 167.522 160.962C167.538 161.257 167.788 161.484 168.083 161.468C168.157 161.464 168.226 161.445 168.289 161.414L168.292 161.415ZM167.456 152.914C167.659 152.814 167.783 152.592 167.75 152.358C167.543 150.949 167.303 149.522 167.029 148.122C166.973 147.833 166.692 147.643 166.403 147.699C166.114 147.755 165.923 148.037 165.979 148.326C166.247 149.71 166.486 151.118 166.689 152.512C166.732 152.803 167.003 153.006 167.295 152.965C167.35 152.957 167.404 152.94 167.454 152.915L167.456 152.914ZM165.83 144.53C166.051 144.421 166.174 144.173 166.114 143.924C165.777 142.538 165.403 141.142 165.002 139.773C164.918 139.49 164.622 139.329 164.339 139.411C164.056 139.495 163.894 139.791 163.976 140.074C164.373 141.426 164.742 142.808 165.076 144.177C165.145 144.464 165.434 144.639 165.721 144.569C165.759 144.56 165.796 144.547 165.83 144.53ZM163.428 136.334C163.666 136.217 163.786 135.937 163.698 135.68C163.233 134.331 162.728 132.977 162.199 131.652C162.088 131.378 161.778 131.245 161.505 131.355C161.232 131.463 161.098 131.777 161.208 132.049C161.73 133.356 162.229 134.696 162.69 136.028C162.786 136.306 163.09 136.455 163.369 136.358C163.389 136.351 163.411 136.342 163.43 136.333L163.428 136.334ZM160.255 128.405C160.514 128.278 160.626 127.968 160.506 127.703C160.168 126.967 159.819 126.227 159.465 125.506C159.194 124.954 158.911 124.393 158.625 123.839C158.489 123.577 158.169 123.478 157.905 123.61C157.643 123.746 157.539 124.068 157.675 124.33C157.957 124.876 158.236 125.429 158.505 125.976C158.855 126.689 159.201 127.418 159.533 128.148C159.655 128.416 159.973 128.534 160.241 128.412C160.245 128.41 160.251 128.407 160.255 128.405ZM99.471 150.827C99.8568 150.638 100.246 150.437 100.626 150.229C100.885 150.088 100.98 149.763 100.839 149.504C100.697 149.245 100.368 149.152 100.113 149.291C98.8772 149.967 97.5879 150.552 96.2956 151.025C96.0176 151.128 95.8748 151.434 95.9769 151.71C96.077 151.987 96.3847 152.128 96.6618 152.028C97.607 151.683 98.5518 151.279 99.4691 150.828L99.471 150.827ZM104.202 147.933C104.231 147.919 104.259 147.903 104.287 147.882C105.437 147.027 106.549 146.081 107.595 145.068C107.806 144.862 107.811 144.524 107.607 144.312C107.402 144.102 107.063 144.097 106.851 144.301C105.839 145.281 104.76 146.198 103.649 147.025C103.412 147.201 103.363 147.534 103.539 147.771C103.694 147.98 103.976 148.044 104.204 147.932L104.202 147.933ZM92.6008 153.149C92.8119 153.045 92.937 152.81 92.8901 152.569C92.834 152.28 92.5544 152.089 92.2653 152.145C91.0293 152.383 89.7701 152.53 88.524 152.578C88.3863 152.584 88.2458 152.589 88.1062 152.59C87.8097 152.598 87.5766 152.841 87.5829 153.135C87.5893 153.43 87.8332 153.664 88.1277 153.658C88.274 153.655 88.4193 153.65 88.5637 153.644C89.8633 153.593 91.177 153.441 92.4647 153.192C92.5126 153.182 92.5576 153.167 92.5999 153.147L92.6008 153.149ZM156.327 120.822C156.338 120.817 156.35 120.811 156.361 120.805C156.617 120.656 156.702 120.331 156.555 120.075C155.837 118.84 155.076 117.61 154.297 116.417C154.136 116.171 153.806 116.1 153.557 116.262C153.31 116.424 153.238 116.754 153.4 117.001C154.169 118.179 154.918 119.394 155.629 120.613C155.77 120.858 156.075 120.946 156.325 120.823L156.327 120.822ZM110.334 142.003C110.403 141.969 110.465 141.92 110.515 141.857C111.418 140.731 112.258 139.537 113.013 138.31C113.168 138.058 113.09 137.73 112.838 137.575C112.586 137.421 112.258 137.499 112.103 137.751C111.37 138.941 110.554 140.098 109.68 141.189C109.496 141.42 109.532 141.756 109.763 141.941C109.931 142.074 110.154 142.091 110.332 142.004L110.334 142.003ZM84.0921 153.331C84.2437 153.257 84.3576 153.11 84.3857 152.93C84.431 152.639 84.2285 152.367 83.9372 152.322C82.5746 152.118 81.2062 151.795 79.8643 151.366C79.584 151.276 79.2836 151.43 79.1906 151.712C79.0996 151.992 79.255 152.294 79.5344 152.383C80.9287 152.831 82.3553 153.165 83.7743 153.378C83.8851 153.395 83.9942 153.374 84.0883 153.328L84.0921 153.331ZM114.802 134.741C114.91 134.688 115 134.599 115.054 134.481C115.655 133.158 116.172 131.791 116.591 130.422C116.676 130.14 116.518 129.841 116.235 129.756C115.953 129.671 115.654 129.83 115.569 130.112C115.165 131.438 114.666 132.759 114.083 134.042C113.961 134.311 114.08 134.627 114.349 134.749C114.5 134.818 114.667 134.809 114.805 134.741L114.802 134.741ZM151.658 113.671C151.685 113.657 151.713 113.641 151.737 113.622C151.975 113.448 152.028 113.115 151.854 112.877C151.093 111.83 150.298 110.795 149.494 109.793L149.233 109.469C149.046 109.24 148.712 109.204 148.48 109.391C148.25 109.578 148.215 109.914 148.402 110.144L148.661 110.464C149.456 111.451 150.238 112.476 150.989 113.506C151.143 113.719 151.428 113.784 151.656 113.672L151.658 113.671ZM75.983 150.747C76.0847 150.698 76.1704 150.615 76.2267 150.506C76.3587 150.242 76.2493 149.922 75.9874 149.791C74.7493 149.176 73.5339 148.462 72.3728 147.663C72.1293 147.497 71.7971 147.558 71.6308 147.802C71.4645 148.045 71.5251 148.377 71.7666 148.544C72.9678 149.37 74.2278 150.113 75.5117 150.748C75.6659 150.825 75.8419 150.819 75.9858 150.748L75.983 150.747ZM117.282 126.587C117.432 126.513 117.546 126.372 117.575 126.193C117.809 124.784 117.96 123.334 118.028 121.885C118.04 121.591 117.813 121.341 117.518 121.329C117.224 121.316 116.974 121.544 116.961 121.838C116.897 123.245 116.747 124.653 116.521 126.021C116.473 126.311 116.671 126.587 116.961 126.635C117.074 126.653 117.187 126.636 117.283 126.589L117.282 126.587ZM68.9559 145.929C69.0154 145.9 69.0692 145.859 69.1155 145.808C69.3131 145.589 69.2976 145.252 69.0792 145.055C68.0472 144.117 67.0655 143.102 66.1625 142.035C65.9711 141.81 65.6339 141.783 65.4097 141.971C65.1845 142.163 65.1562 142.498 65.3456 142.724C66.2779 143.827 67.2919 144.878 68.36 145.846C68.5271 145.997 68.764 146.023 68.9559 145.929ZM146.276 107.037C146.321 107.016 146.362 106.988 146.399 106.953C146.619 106.755 146.637 106.418 146.439 106.199C145.477 105.134 144.479 104.084 143.475 103.083C143.265 102.874 142.926 102.877 142.719 103.085C142.51 103.295 142.511 103.632 142.721 103.841C143.713 104.829 144.697 105.864 145.645 106.917C145.808 107.098 146.068 107.142 146.277 107.039L146.276 107.037ZM117.684 118.071C117.872 117.978 117.998 117.779 117.981 117.556C117.887 116.136 117.715 114.691 117.468 113.261C117.419 112.971 117.142 112.776 116.85 112.826C116.558 112.877 116.365 113.153 116.415 113.444C116.657 114.839 116.824 116.247 116.917 117.629C116.935 117.924 117.19 118.147 117.484 118.126C117.556 118.121 117.623 118.103 117.685 118.073L117.684 118.071ZM63.4559 139.423C63.4732 139.414 63.4924 139.405 63.5078 139.393C63.7566 139.235 63.8299 138.904 63.6702 138.656C63.0467 137.682 62.4751 136.668 61.9724 135.645C61.8632 135.422 61.7568 135.201 61.6543 134.977C61.5302 134.71 61.2127 134.592 60.9451 134.716C60.6841 134.835 60.5593 135.158 60.6835 135.426C60.7897 135.657 60.9008 135.888 61.0128 136.116C61.5334 137.176 62.1248 138.225 62.7691 139.232C62.9165 139.464 63.2141 139.542 63.454 139.424L63.4559 139.423ZM140.222 101.013C140.282 100.984 140.337 100.942 140.386 100.89C140.582 100.67 140.562 100.332 140.344 100.135C139.272 99.1788 138.164 98.2473 137.05 97.3664C136.819 97.1824 136.484 97.2211 136.3 97.454C136.116 97.6849 136.154 98.0205 136.387 98.2036C137.483 99.072 138.575 99.9919 139.633 100.934C139.799 101.083 140.035 101.107 140.225 101.014L140.222 101.013ZM116.24 109.664C116.467 109.552 116.589 109.292 116.518 109.042C116.138 107.67 115.684 106.289 115.17 104.937C115.066 104.662 114.757 104.524 114.48 104.629C114.205 104.733 114.066 105.042 114.171 105.318C114.674 106.639 115.118 107.99 115.489 109.328C115.57 109.612 115.863 109.778 116.148 109.699C116.182 109.69 116.211 109.678 116.24 109.664ZM133.528 95.7123C133.606 95.6737 133.676 95.6159 133.731 95.5389C133.9 95.2964 133.841 94.9635 133.599 94.7947C132.417 93.9687 131.204 93.1769 129.992 92.4416C129.741 92.2889 129.412 92.3698 129.259 92.6209C129.106 92.8721 129.185 93.2023 129.438 93.354C130.629 94.0778 131.824 94.857 132.987 95.6685C133.153 95.7843 133.36 95.7924 133.529 95.7095L133.528 95.7123ZM59.9013 131.684C60.1316 131.57 60.2522 131.307 60.1776 131.053C59.913 130.155 59.6915 129.238 59.5206 128.327C59.4361 127.874 59.3593 127.412 59.2949 126.956C59.2541 126.664 58.9832 126.462 58.6913 126.503C58.3994 126.544 58.1966 126.814 58.2374 127.106C58.3036 127.58 58.3831 128.058 58.4703 128.527C58.6486 129.472 58.8775 130.423 59.1524 131.356C59.2363 131.639 59.5324 131.8 59.816 131.718C59.8447 131.709 59.8735 131.7 59.9003 131.686L59.9013 131.684ZM113.208 101.689C113.473 101.559 113.582 101.241 113.454 100.976L113.385 100.836C112.779 99.6012 112.11 98.3708 111.398 97.1812C111.247 96.9269 110.915 96.8473 110.665 96.9984C110.41 97.1496 110.329 97.4777 110.481 97.7309C111.179 98.8947 111.832 100.099 112.426 101.309L112.493 101.445C112.623 101.71 112.942 101.82 113.207 101.692L113.208 101.689ZM126.227 91.2826C126.327 91.2336 126.412 91.154 126.465 91.0492C126.601 90.7874 126.5 90.4657 126.237 90.3282C124.955 89.6631 123.647 89.0398 122.346 88.4767C122.076 88.3592 121.761 88.4832 121.644 88.7547C121.527 89.0262 121.65 89.3395 121.922 89.456C123.199 90.0093 124.485 90.622 125.745 91.2765C125.902 91.3588 126.081 91.3542 126.227 91.2826ZM58.6989 123.253C58.8774 123.166 58.9992 122.982 58.9979 122.771C58.9922 121.386 59.0785 119.976 59.2546 118.578C59.2922 118.286 59.0848 118.019 58.7907 117.983C58.4984 117.945 58.2311 118.153 58.1944 118.447C58.0123 119.89 57.9247 121.347 57.9291 122.777C57.9307 123.071 58.1698 123.311 58.4661 123.308C58.5493 123.308 58.6279 123.288 58.6989 123.253ZM108.827 94.3651C108.853 94.3519 108.879 94.3368 108.903 94.3178C109.143 94.1456 109.198 93.8116 109.026 93.5725C108.188 92.4088 107.291 91.2666 106.359 90.1796C106.168 89.9548 105.83 89.9305 105.607 90.121C105.381 90.3124 105.357 90.6505 105.547 90.8735C106.461 91.9383 107.338 93.0565 108.16 94.1952C108.315 94.4094 108.597 94.4753 108.827 94.3622L108.827 94.3651ZM118.39 87.8945C118.511 87.8351 118.611 87.7288 118.66 87.5906C118.757 87.3123 118.61 87.0084 118.33 86.91C117.35 86.5679 116.352 86.2515 115.364 85.9677C114.979 85.8571 114.594 85.7513 114.205 85.6492C113.921 85.5747 113.628 85.7446 113.551 86.0298C113.477 86.314 113.646 86.6066 113.932 86.683C114.311 86.7821 114.689 86.887 115.067 86.9966C116.037 87.2745 117.017 87.586 117.977 87.9213C118.118 87.971 118.263 87.9567 118.388 87.8954L118.39 87.8945ZM59.7509 114.796C59.8871 114.729 59.9932 114.606 60.0346 114.447C60.3747 113.103 60.7999 111.752 61.2984 110.434C61.4038 110.158 61.2637 109.849 60.9891 109.746C60.7137 109.641 60.4038 109.781 60.3004 110.055C59.7853 111.412 59.3483 112.802 58.9993 114.187C58.9274 114.472 59.1011 114.763 59.3863 114.835C59.5142 114.867 59.6415 114.85 59.7528 114.795L59.7509 114.796ZM110.128 85.7283C110.276 85.6558 110.389 85.517 110.42 85.3424C110.473 85.0523 110.277 84.7749 109.988 84.7241C108.577 84.4747 107.136 84.2804 105.71 84.1474C105.416 84.1205 105.155 84.3366 105.127 84.6288C105.1 84.9228 105.316 85.1832 105.609 85.211C107.006 85.341 108.417 85.5312 109.8 85.7777C109.918 85.7985 110.03 85.7792 110.127 85.7312L110.128 85.7283ZM103.278 87.8808C103.329 87.8553 103.378 87.8222 103.42 87.7776C103.629 87.5679 103.628 87.2306 103.418 87.0219C102.728 86.335 102.008 85.6536 101.269 84.9883C101.306 84.9895 101.344 84.9898 101.379 84.9891C101.674 84.992 101.917 84.7558 101.92 84.4616C101.924 84.1673 101.687 83.924 101.393 83.921C99.9534 83.9044 98.5009 83.949 97.0757 84.0538C96.7811 84.0748 96.5593 84.3312 96.5819 84.6247C96.6026 84.9191 96.859 85.1406 97.1527 85.1178C97.9848 85.0566 98.8255 85.0174 99.6659 84.9974C100.702 85.895 101.711 86.8296 102.662 87.7763C102.829 87.9417 103.076 87.975 103.274 87.8779L103.278 87.8808ZM62.7705 106.82C62.8702 106.771 62.955 106.691 63.0093 106.584C63.6469 105.34 64.3627 104.115 65.1355 102.944C65.298 102.697 65.2307 102.366 64.9843 102.204C64.738 102.042 64.4048 102.11 64.2442 102.356C63.4492 103.56 62.7159 104.817 62.0599 106.096C61.925 106.359 62.0278 106.68 62.2915 106.815C62.4477 106.895 62.6246 106.892 62.7724 106.819L62.7705 106.82ZM67.468 99.695C67.5333 99.6629 67.5938 99.6165 67.645 99.5557C68.5404 98.4736 69.5024 97.4302 70.505 96.4596C70.7159 96.2538 70.7214 95.9156 70.5174 95.704C70.3116 95.4933 69.9732 95.4882 69.7613 95.6921C68.7318 96.6902 67.7428 97.7611 66.8223 98.8746C66.6341 99.1026 66.666 99.4391 66.894 99.627C67.0621 99.7657 67.2876 99.7835 67.4699 99.694L67.468 99.695ZM93.1073 85.562C93.3127 85.4612 93.4377 85.2356 93.3994 84.9975C93.3519 84.7067 93.0781 84.508 92.7871 84.5557C91.359 84.7857 89.9362 85.0798 88.554 85.4324C88.2686 85.506 88.0943 85.7962 88.1676 86.0814C88.241 86.3666 88.5312 86.5406 88.8167 86.4671C90.1672 86.1228 91.5594 85.8342 92.954 85.6088C93.0067 85.5996 93.0584 85.5837 93.1045 85.5611L93.1073 85.562ZM73.5962 93.7569C73.6289 93.7409 73.6577 93.722 73.6875 93.7002C74.2058 93.3005 74.7403 92.9096 75.2746 92.5426C75.8887 92.1197 76.5248 91.7075 77.1654 91.3192C77.4189 91.1661 77.4979 90.8371 77.3459 90.5857C77.193 90.3324 76.8637 90.2537 76.6121 90.4058C75.9552 90.8045 75.3009 91.2281 74.6714 91.6633C74.1198 92.0436 73.5709 92.4439 73.0372 92.8559C72.8044 93.0368 72.7598 93.3728 72.9406 93.6053C73.0978 93.8089 73.3745 93.8681 73.5991 93.7579L73.5962 93.7569ZM96.8147 82.3046C96.8876 82.2688 96.954 82.2148 97.0061 82.1463C97.1828 81.9096 97.1357 81.5759 96.899 81.3994C95.7688 80.5528 94.5839 79.7211 93.373 78.9284C93.1266 78.7662 92.7944 78.8365 92.6338 79.0819C92.4713 79.3283 92.5415 79.6603 92.7869 79.8206C93.9778 80.6017 95.1465 81.4199 96.2577 82.252C96.4241 82.3774 96.64 82.3903 96.8147 82.3046ZM84.8353 87.6771C85.0752 87.5593 85.1959 87.2763 85.1023 87.0177C85.004 86.74 84.6973 86.5955 84.4202 86.6959C83.0571 87.1843 81.7116 87.7426 80.423 88.3539C80.165 88.4734 80.0411 88.7984 80.17 89.0658C80.2961 89.3323 80.6145 89.4472 80.8822 89.3182C82.14 88.722 83.4501 88.1787 84.7806 87.7015C84.7988 87.695 84.819 87.6875 84.8362 87.679L84.8353 87.6771ZM89.6738 77.618C89.7659 77.5728 89.8448 77.5007 89.9 77.4046C90.0483 77.1486 89.9599 76.8231 89.7039 76.6752C88.4856 75.9742 87.2098 75.2871 85.9175 74.6343C85.6546 74.5016 85.3326 74.6073 85.1996 74.8701C85.0667 75.1329 85.1722 75.4546 85.4351 75.5873C86.7112 76.2314 87.9689 76.9108 89.171 77.6031C89.3309 77.6959 89.5192 77.6962 89.6747 77.6199L89.6738 77.618ZM82.0524 73.7574C82.1618 73.7037 82.2514 73.6145 82.3049 73.4955C82.4254 73.2269 82.3036 72.9107 82.0349 72.7904C80.7496 72.2198 79.4155 71.6613 78.0687 71.1352C77.7942 71.0273 77.4844 71.1627 77.3762 71.4372C77.268 71.7116 77.4033 72.0211 77.6778 72.129C79.0103 72.6503 80.3292 73.202 81.5992 73.7658C81.7488 73.8328 81.9142 73.8253 82.0524 73.7574ZM74.0965 70.637C74.2194 70.5767 74.3196 70.4703 74.3656 70.3312C74.4623 70.0528 74.3127 69.748 74.0323 69.6524C72.7022 69.1943 71.3251 68.752 69.945 68.3375C69.6627 68.2524 69.3632 68.4137 69.2798 68.695C69.1944 68.9772 69.3547 69.2745 69.637 69.3596C71.0057 69.7702 72.3675 70.2105 73.6853 70.6628C73.8254 70.7106 73.9718 70.6982 74.0946 70.6379L74.0965 70.637Z"
            fill="#838EE8" />
    </g>
    <defs>
        <clipPath id="clip0_268_18848">
            <rect width="109" height="204" fill="white"
                transform="matrix(-0.89764 0.44073 0.44073 0.89764 97.8428 0)" />
        </clipPath>
    </defs>
</svg>