<svg width="25" height="25" viewBox="0 0 25 25" fill="none" xmlns="http://www.w3.org/2000/svg">
<g clip-path="url(#clip0_5955_43609)">
<path d="M19.0458 18.8173L18.3966 21.1681C18.3372 21.3865 18.2329 21.5902 18.0902 21.766C17.9476 21.9418 17.7698 22.0859 17.5682 22.189C17.3667 22.2922 17.1458 22.352 16.9197 22.3649C16.6937 22.3777 16.4675 22.3432 16.2556 22.2635C13.9167 21.3356 11.828 19.872 10.1575 17.9903C8.59647 16.2643 7.43459 14.2158 6.75439 11.9903C5.99466 9.58031 5.8133 7.02527 6.225 4.53215C6.26526 4.31005 6.35133 4.09877 6.47772 3.91176C6.60411 3.72475 6.76806 3.5661 6.95912 3.44592C7.15018 3.32574 7.36418 3.24666 7.58748 3.21371C7.81078 3.18077 8.03849 3.19468 8.25612 3.25456L10.6069 3.90378C10.9882 4.00506 11.3197 4.24154 11.5396 4.56915C11.7594 4.89675 11.8526 5.29312 11.8019 5.68438C11.6933 6.46408 11.6733 7.25356 11.7423 8.03776C11.7703 8.34734 11.7089 8.65845 11.5655 8.93423C11.422 9.21001 11.2026 9.43889 10.933 9.59376L9.66305 10.3141C10.2368 12.5839 11.4125 14.6568 13.0662 16.3141L14.3362 15.5938C14.6074 15.4419 14.9165 15.371 15.2268 15.3894C15.5371 15.4079 15.8356 15.5149 16.0869 15.6978C16.7246 16.1594 17.4124 16.5474 18.1373 16.8544C18.5032 17.0132 18.7978 17.3009 18.9653 17.6629C19.1328 18.0248 19.1615 18.4356 19.0458 18.8173Z" stroke="#350ABC" stroke-width="0.636204" stroke-linecap="round" stroke-linejoin="round"/>
</g>
<defs>
<clipPath id="clip0_5955_43609">
<rect width="19.5103" height="19.5103" fill="white" transform="translate(5.46826 0.797943) rotate(15.4387)"/>
</clipPath>
</defs>
</svg>
