<svg viewBox="0 0 423 328"
    fill="none" xmlns="http://www.w3.org/2000/svg">
    <g clip-path="url(#clip0_268_18863)">
        <path d="M254.093 85.5944L373.422 75.9165L291.795 66.5706L283.86 65.6624L254.093 85.5944Z"
            fill="white" />
        <path d="M291.496 83.4068L293.669 90.5126L368.928 77.1321L291.496 83.4068Z" fill="#838EE8" />
        <path d="M292.365 65.7906L364.562 74.0552L293.195 61.2736L292.365 65.7906Z" fill="#D4D8F3" />
        <path d="M294.6 60.6683L372.048 74.5411L312.758 54.8507L294.6 60.6683Z" fill="white" />
        <path
            d="M377.781 76.4108L377.793 75.5728L283.647 64.7905L250.934 86.6959L377.781 76.4108ZM283.859 65.6608L373.422 75.9177L254.093 85.5955L283.859 65.6608Z"
            fill="#27191C" />
        <path
            d="M379.456 76.1147L312.763 53.9669L292.492 60.4612L291.457 66.0811C291.415 66.3092 291.567 66.5284 291.795 66.5715C292.023 66.6147 292.242 66.462 292.285 66.2338L293.227 61.1099L312.758 54.8523L376.041 75.8667L293.67 90.515L291.342 82.9075C291.274 82.6877 291.046 82.5628 290.825 82.6257C290.822 82.6264 290.819 82.6272 290.817 82.628C290.595 82.697 290.469 82.9312 290.538 83.1537L293.084 91.4755L379.456 76.1147Z"
            fill="#27191C" />
        <path
            d="M377.861 76.3986C378.012 76.3556 378.131 76.2313 378.161 76.0683C378.201 75.8409 378.048 75.6217 377.82 75.5786L292.933 60.3731C292.706 60.3327 292.487 60.4854 292.444 60.7135C292.404 60.9409 292.557 61.1601 292.785 61.2032L377.675 76.4079C377.739 76.4188 377.805 76.4147 377.864 76.3978L377.861 76.3986Z"
            fill="#27191C" />
        <path
            d="M72.547 325.494C73.9377 325.098 75.3343 324.61 76.6916 324.046C77.0485 323.898 77.2174 323.488 77.069 323.13C76.9207 322.773 76.5112 322.603 76.1543 322.752C74.4473 323.459 72.6838 324.04 70.9386 324.469C70.5763 324.558 70.3331 324.942 70.4256 325.318C70.5182 325.695 70.8984 325.925 71.2741 325.833C71.6965 325.73 72.1238 325.614 72.547 325.494ZM65.7737 326.724C66.089 326.634 66.3064 326.333 66.2796 325.993C66.2487 325.608 65.9101 325.319 65.5256 325.35C65.1899 325.378 64.8545 325.398 64.5158 325.415C64.1308 325.434 63.8315 325.765 63.8509 326.15C63.871 326.538 64.2003 326.836 64.5853 326.817C64.9356 326.799 65.2879 326.777 65.6351 326.748C65.6832 326.744 65.7279 326.737 65.771 326.724L65.7737 326.724ZM81.6191 321.561C81.6757 321.545 81.7327 321.52 81.7854 321.491C83.4006 320.532 84.978 319.441 86.4728 318.254C86.7771 318.013 86.8267 317.573 86.5855 317.268C86.3443 316.963 85.9047 316.913 85.6005 317.154C84.1527 318.302 82.6291 319.357 81.0687 320.282C80.7371 320.479 80.6267 320.91 80.824 321.245C80.9909 321.524 81.3199 321.647 81.6191 321.561ZM90.384 314.614C90.4972 314.582 90.6047 314.52 90.6956 314.43C92.0134 313.071 93.2559 311.612 94.389 310.096C94.621 309.785 94.5577 309.347 94.2468 309.115C93.936 308.882 93.4994 308.945 93.2674 309.256C92.1701 310.724 90.967 312.137 89.6892 313.452C89.4188 313.731 89.4258 314.175 89.7032 314.443C89.8886 314.624 90.1496 314.681 90.384 314.614ZM97.0785 305.654C97.251 305.605 97.4024 305.492 97.4976 305.324C98.4341 303.66 99.261 301.928 99.9528 300.182C100.095 299.823 99.9209 299.414 99.5592 299.269C99.2009 299.126 98.7931 299.301 98.6485 299.663C97.9779 301.35 97.1785 303.025 96.2728 304.634C96.0831 304.971 96.2018 305.398 96.5393 305.591C96.709 305.686 96.9007 305.704 97.0758 305.654L97.0785 305.654ZM101.187 295.255C101.422 295.188 101.616 294.999 101.678 294.745C102.125 292.875 102.43 290.979 102.588 289.108C102.621 288.722 102.335 288.383 101.947 288.35C101.562 288.317 101.223 288.603 101.191 288.991C101.04 290.794 100.747 292.62 100.315 294.42C100.224 294.796 100.457 295.177 100.832 295.265C100.954 295.295 101.075 295.29 101.186 295.258L101.187 295.255ZM102.1 284.116C102.413 284.028 102.633 283.726 102.607 283.389C102.582 283.057 102.549 282.725 102.516 282.393C102.349 280.845 102.096 279.279 101.757 277.742C101.673 277.363 101.302 277.124 100.923 277.206C100.542 277.288 100.308 277.664 100.389 278.041C100.715 279.526 100.963 281.041 101.121 282.539C101.156 282.856 101.185 283.175 101.208 283.492C101.239 283.877 101.575 284.167 101.961 284.139C102.009 284.134 102.053 284.127 102.099 284.114L102.1 284.116ZM99.7151 273.175C99.7285 273.171 99.7447 273.167 99.7582 273.163C100.123 273.033 100.312 272.632 100.185 272.268C99.5721 270.543 98.8372 268.779 97.9946 267.026C97.8254 266.677 97.4052 266.531 97.059 266.697C96.7101 266.863 96.5647 267.284 96.7312 267.634C97.5519 269.341 98.2675 271.057 98.865 272.737C98.988 273.087 99.3628 273.278 99.7158 273.178L99.7151 273.175ZM94.8995 263.06C94.9561 263.044 95.0131 263.019 95.0658 262.989C95.4001 262.792 95.5078 262.362 95.3105 262.027C94.3865 260.469 93.389 258.908 92.258 257.258C92.0388 256.938 91.6023 256.858 91.283 257.077C90.9637 257.296 90.8842 257.733 91.1034 258.053C92.2179 259.676 93.1996 261.212 94.1071 262.743C94.2713 263.023 94.603 263.144 94.9022 263.059L94.8995 263.06ZM88.5859 253.782C88.6667 253.759 88.7465 253.722 88.8181 253.667C89.1274 253.433 89.1858 252.993 88.952 252.683C87.915 251.312 86.7788 249.858 85.4768 248.241C85.2337 247.94 84.795 247.893 84.4907 248.134C84.1899 248.377 84.1411 248.82 84.3841 249.121C85.6742 250.727 86.8039 252.168 87.8323 253.53C88.0108 253.768 88.3129 253.857 88.5824 253.78L88.5859 253.782ZM81.5706 245.008C81.6622 244.982 81.7485 244.937 81.824 244.874C82.1205 244.627 82.1639 244.185 81.9162 243.888L80.535 242.218C79.803 241.335 79.0703 240.449 78.3402 239.563C78.0944 239.262 77.6518 239.222 77.3544 239.467C77.0544 239.713 77.0144 240.156 77.2594 240.454C77.9903 241.343 78.7257 242.228 79.4584 243.114L80.8389 244.781C81.0216 245.003 81.3126 245.084 81.5713 245.01L81.5706 245.008ZM74.4555 236.323C74.5417 236.298 74.6261 236.257 74.6996 236.198C75.0012 235.958 75.0527 235.514 74.8096 235.212C73.5403 233.619 72.4234 232.171 71.3949 230.789C71.1638 230.478 70.7231 230.414 70.413 230.645C70.103 230.876 70.0392 231.317 70.2703 231.628C71.308 233.022 72.4342 234.482 73.7127 236.088C73.8942 236.316 74.1894 236.402 74.4536 236.326L74.4555 236.323ZM67.7791 227.306C67.8492 227.286 67.9162 227.255 67.9774 227.215C68.2974 226.998 68.3832 226.562 68.1667 226.242C67.0895 224.637 66.0939 223.052 65.2091 221.53C65.0145 221.194 64.5866 221.083 64.2515 221.277C63.9165 221.472 63.8027 221.901 63.9999 222.236C64.9004 223.783 65.9099 225.395 67.0055 227.024C67.1786 227.284 67.4942 227.39 67.7798 227.309L67.7791 227.306ZM62.1756 217.596C62.2134 217.585 62.2476 217.572 62.2838 217.556C62.6327 217.39 62.7823 216.974 62.6178 216.621C61.8348 214.964 61.1176 213.243 60.4855 211.502C60.3525 211.137 59.9473 210.952 59.5884 211.083C59.2242 211.216 59.0387 211.619 59.1709 211.981C59.818 213.764 60.5521 215.525 61.352 217.22C61.4997 217.534 61.8522 217.688 62.1756 217.596ZM142.437 188.794C142.792 188.693 143.01 188.33 142.926 187.966C142.842 187.587 142.468 187.349 142.09 187.434C140.329 187.827 138.498 188.1 136.65 188.24C136.266 188.271 135.977 188.607 136.005 188.993C136.036 189.378 136.372 189.668 136.757 189.64C138.673 189.491 140.568 189.212 142.395 188.803C142.409 188.799 142.422 188.795 142.436 188.791L142.437 188.794ZM147.789 187.157C147.81 187.151 147.832 187.145 147.855 187.135C149.427 186.516 150.952 185.784 152.386 184.956C152.586 184.841 152.783 184.724 152.982 184.603C153.312 184.401 153.42 183.971 153.218 183.64C153.016 183.309 152.587 183.204 152.256 183.403C152.067 183.518 151.878 183.63 151.688 183.74C150.313 184.531 148.85 185.236 147.344 185.828C146.985 185.971 146.807 186.378 146.95 186.737C147.084 187.075 147.449 187.254 147.794 187.156L147.789 187.157ZM131.294 189.668C131.574 189.588 131.783 189.339 131.801 189.034C131.822 188.648 131.527 188.315 131.142 188.293C129.32 188.19 127.48 187.967 125.67 187.627C125.289 187.557 124.923 187.807 124.854 188.188C124.782 188.571 125.035 188.937 125.416 189.006C127.284 189.356 129.184 189.585 131.065 189.692C131.144 189.696 131.224 189.688 131.297 189.667L131.294 189.668ZM157.311 181.355C157.408 181.327 157.501 181.277 157.582 181.205C159.008 179.938 160.329 178.538 161.511 177.04C161.75 176.736 161.698 176.296 161.393 176.055C161.089 175.815 160.649 175.867 160.41 176.172C159.282 177.604 158.017 178.945 156.652 180.156C156.364 180.413 156.335 180.856 156.593 181.148C156.777 181.355 157.058 181.43 157.309 181.358L157.311 181.355ZM58.3419 207.061C58.7085 206.957 58.9239 206.577 58.8276 206.208C58.3576 204.433 57.958 202.609 57.6401 200.785C57.5726 200.405 57.2113 200.149 56.8306 200.213C56.4479 200.281 56.1951 200.642 56.2599 201.024C56.5832 202.887 56.9915 204.752 57.4723 206.564C57.5729 206.938 57.9542 207.163 58.3312 207.064C58.3339 207.063 58.3393 207.062 58.3446 207.06L58.3419 207.061ZM120.303 187.616C120.522 187.554 120.705 187.388 120.779 187.157C120.895 186.788 120.693 186.393 120.323 186.273C118.589 185.717 116.86 185.038 115.191 184.261C114.839 184.099 114.423 184.252 114.26 184.602C114.098 184.955 114.251 185.369 114.601 185.535C116.324 186.338 118.108 187.035 119.896 187.609C120.034 187.652 120.174 187.652 120.301 187.616L120.303 187.616ZM164.209 172.587C164.386 172.537 164.544 172.416 164.637 172.241C165.542 170.524 166.275 168.74 166.812 166.932C166.923 166.562 166.712 166.17 166.342 166.059C165.973 165.948 165.581 166.159 165.471 166.529C164.959 168.251 164.263 169.951 163.399 171.586C163.22 171.929 163.35 172.353 163.692 172.533C163.857 172.62 164.044 172.634 164.211 172.586L164.209 172.587ZM110.16 182.909C110.322 182.863 110.469 182.757 110.565 182.604C110.769 182.275 110.666 181.843 110.337 181.639C108.789 180.682 107.268 179.615 105.811 178.468C105.507 178.228 105.067 178.28 104.827 178.584C104.588 178.889 104.64 179.329 104.944 179.569C106.442 180.748 108.008 181.846 109.599 182.832C109.773 182.94 109.977 182.961 110.16 182.909ZM56.4168 196.015C56.7321 195.926 56.9514 195.621 56.9212 195.279C56.7608 193.446 56.6754 191.579 56.6681 189.731C56.6657 189.344 56.3522 189.03 55.9653 189.032C55.5784 189.034 55.2656 189.348 55.268 189.736C55.2745 191.622 55.3625 193.528 55.5249 195.399C55.5593 195.786 55.8998 196.072 56.2836 196.039C56.329 196.034 56.3737 196.028 56.4168 196.015ZM167.358 161.898C167.633 161.82 167.841 161.58 167.866 161.278C167.926 160.505 167.948 159.722 167.937 158.955C167.92 157.81 167.827 156.655 167.659 155.524C167.603 155.14 167.247 154.874 166.864 154.93C166.481 154.987 166.218 155.342 166.272 155.726C166.428 156.796 166.518 157.891 166.535 158.975C166.546 159.698 166.523 160.437 166.469 161.168C166.439 161.555 166.727 161.891 167.114 161.921C167.201 161.928 167.283 161.919 167.361 161.897L167.358 161.898ZM101.356 175.989C101.469 175.956 101.577 175.894 101.665 175.804C101.935 175.526 101.929 175.084 101.654 174.813C100.349 173.535 99.085 172.164 97.8987 170.739C97.651 170.442 97.2083 170.402 96.9118 170.65C96.6152 170.897 96.5752 171.341 96.8229 171.638C98.0396 173.098 99.334 174.504 100.674 175.815C100.861 175.998 101.121 176.055 101.356 175.989ZM56.37 184.803C56.6422 184.725 56.8533 184.484 56.8754 184.183C57.0195 182.345 57.2432 180.489 57.5381 178.669C57.6011 178.286 57.3412 177.926 56.9597 177.865C56.5775 177.802 56.2174 178.062 56.1544 178.444C55.8525 180.301 55.6253 182.196 55.4778 184.073C55.4475 184.458 55.736 184.796 56.1205 184.827C56.2071 184.834 56.2891 184.826 56.3673 184.803L56.37 184.803ZM165.755 150.877C165.774 150.872 165.792 150.867 165.809 150.862C166.172 150.727 166.354 150.322 166.219 149.96C165.564 148.209 164.715 146.475 163.696 144.81C163.494 144.479 163.062 144.374 162.732 144.576C162.402 144.778 162.298 145.211 162.5 145.541C163.474 147.132 164.282 148.784 164.905 150.451C165.035 150.796 165.405 150.98 165.753 150.881L165.755 150.877ZM94.1808 167.379C94.2509 167.359 94.3178 167.329 94.3837 167.284C94.7037 167.067 94.7861 166.629 94.5695 166.309C93.54 164.789 92.5652 163.196 91.6767 161.579C91.4894 161.238 91.0637 161.114 90.7264 161.3C90.3864 161.488 90.2629 161.914 90.4494 162.252C91.3583 163.91 92.3554 165.541 93.4099 167.097C93.5849 167.353 93.8978 167.46 94.1808 167.379ZM58.1654 173.737C58.3999 173.67 58.5917 173.485 58.6535 173.231C59.0981 171.435 59.6259 169.645 60.2145 167.904C60.3399 167.536 60.1427 167.14 59.7774 167.013C59.4122 166.887 59.014 167.085 58.8879 167.45C58.2862 169.226 57.7488 171.054 57.2918 172.889C57.198 173.265 57.4287 173.646 57.8016 173.739C57.9244 173.771 58.048 173.765 58.1612 173.733L58.1654 173.737ZM159.976 141.331C160.071 141.304 160.162 141.255 160.244 141.185C160.536 140.932 160.567 140.489 160.315 140.196C159.101 138.796 157.742 137.441 156.275 136.165C155.981 135.911 155.541 135.942 155.287 136.236C155.033 136.531 155.066 136.974 155.359 137.226C156.775 138.454 158.086 139.765 159.257 141.115C159.44 141.329 159.726 141.402 159.979 141.33L159.976 141.331ZM88.7903 157.547C88.8199 157.539 88.8496 157.53 88.8777 157.516C89.2331 157.363 89.395 156.949 89.2421 156.596C88.5095 154.902 87.85 153.157 87.2822 151.408C87.1628 151.039 86.7645 150.837 86.3999 150.958C86.0318 151.078 85.8298 151.474 85.952 151.842C86.5347 153.634 87.2092 155.42 87.9587 157.153C88.1013 157.481 88.4595 157.644 88.7937 157.549L88.7903 157.547ZM61.7744 163.127C61.9685 163.072 62.1361 162.934 62.2247 162.734C62.9684 161.037 63.7945 159.363 64.6752 157.758C64.8613 157.42 64.7373 156.994 64.3979 156.804C64.0592 156.618 63.6342 156.742 63.4453 157.081C62.5454 158.72 61.7008 160.431 60.9421 162.168C60.7863 162.521 60.9481 162.936 61.3014 163.093C61.458 163.162 61.6227 163.168 61.7737 163.125L61.7744 163.127ZM151.549 133.973C151.703 133.93 151.844 133.831 151.94 133.687C152.154 133.366 152.068 132.93 151.745 132.715C150.19 131.675 148.54 130.707 146.841 129.836C146.497 129.66 146.075 129.794 145.899 130.139C145.723 130.484 145.858 130.906 146.202 131.083C147.853 131.929 149.455 132.871 150.967 133.882C151.146 134.001 151.358 134.028 151.549 133.973ZM67.1707 153.31C67.3243 153.267 67.4633 153.172 67.5593 153.028C68.4267 151.745 69.3472 150.485 70.3023 149.285C70.4891 149.051 70.6787 148.816 70.869 148.584C71.1129 148.284 71.072 147.844 70.7715 147.596C70.471 147.349 70.0318 147.393 69.7852 147.693C69.5902 147.93 69.396 148.169 69.2053 148.41C68.2287 149.636 67.282 150.927 66.3973 152.241C66.1799 152.562 66.2663 152.999 66.5868 153.214C66.7642 153.336 66.9786 153.362 67.1699 153.308L67.1707 153.31ZM85.3259 146.887C85.6816 146.786 85.899 146.423 85.8157 146.059C85.4127 144.253 85.0936 142.415 84.8677 140.597C84.8198 140.214 84.4709 139.94 84.0874 139.985C83.7021 140.033 83.4312 140.382 83.4764 140.766C83.7065 142.629 84.0324 144.512 84.445 146.361C84.5295 146.74 84.9031 146.978 85.2812 146.894C85.2947 146.89 85.3082 146.886 85.3216 146.882L85.3259 146.887ZM141.587 128.859C141.792 128.801 141.97 128.648 142.051 128.432C142.187 128.07 142.005 127.666 141.642 127.527C139.954 126.887 138.224 126.338 136.508 125.895L136.222 125.822C135.848 125.727 135.466 125.952 135.37 126.33C135.275 126.704 135.501 127.086 135.878 127.183L136.16 127.255C137.83 127.687 139.508 128.219 141.151 128.84C141.297 128.895 141.45 128.898 141.59 128.858L141.587 128.859ZM74.2757 144.656C74.3862 144.624 74.4917 144.565 74.58 144.476C75.8677 143.176 77.239 141.913 78.6541 140.723C78.9507 140.475 78.9879 140.032 78.7402 139.735C78.4898 139.439 78.0506 139.4 77.754 139.648C76.3058 140.865 74.9048 142.157 73.5847 143.487C73.3135 143.762 73.3144 144.206 73.5872 144.478C73.7741 144.664 74.0386 144.723 74.273 144.657L74.2757 144.656ZM130.751 126.06C131.007 125.987 131.208 125.772 131.251 125.491C131.311 125.109 131.048 124.749 130.664 124.689C128.814 124.402 126.917 124.195 125.03 124.075C124.644 124.05 124.311 124.344 124.287 124.73C124.262 125.116 124.556 125.45 124.941 125.474C126.787 125.591 128.639 125.794 130.45 126.075C130.553 126.092 130.653 126.084 130.747 126.058L130.751 126.06ZM82.8403 137.445C82.9131 137.424 82.9855 137.392 83.0506 137.344C84.5518 136.293 86.1246 135.288 87.7216 134.358C88.0567 134.163 88.1705 133.734 87.9759 133.398C87.7814 133.063 87.3526 132.948 87.0176 133.143C86.1554 133.645 85.3012 134.165 84.4612 134.705C84.4494 133.987 84.4545 133.268 84.4715 132.56C84.4972 131.555 84.5483 130.536 84.6256 129.528C84.6551 129.14 84.3674 128.805 83.9801 128.775C83.5956 128.744 83.2582 129.033 83.2287 129.421C83.1514 130.449 83.0991 131.494 83.0707 132.521C83.0501 133.37 83.0484 134.234 83.0663 135.096C83.0708 135.255 83.1273 135.402 83.2189 135.519C82.8915 135.741 82.5676 135.964 82.2445 136.191C81.9287 136.412 81.8498 136.851 82.0737 137.167C82.2498 137.418 82.5612 137.519 82.8388 137.44L82.8403 137.445ZM119.578 125.343C119.877 125.258 120.095 124.977 120.086 124.65C120.075 124.262 119.755 123.956 119.367 123.967C117.495 124.013 115.595 124.142 113.716 124.35C113.33 124.393 113.055 124.739 113.098 125.124C113.14 125.509 113.487 125.786 113.871 125.744C115.707 125.54 117.568 125.416 119.402 125.37C119.463 125.367 119.522 125.359 119.578 125.343ZM92.5202 131.819C92.5579 131.809 92.5922 131.796 92.6284 131.78C94.2892 130.992 96.0078 130.264 97.7343 129.615C98.0978 129.479 98.2798 129.075 98.1441 128.71C98.0085 128.346 97.5986 128.165 97.2405 128.299C95.4797 128.961 93.725 129.705 92.028 130.509C91.6791 130.675 91.5294 131.092 91.694 131.445C91.8416 131.759 92.1941 131.912 92.5175 131.82L92.5202 131.819ZM108.452 126.571C108.8 126.472 109.017 126.121 108.947 125.762C108.871 125.381 108.504 125.135 108.125 125.208C106.285 125.571 104.43 126.014 102.622 126.529C102.25 126.635 102.034 127.023 102.14 127.395C102.246 127.768 102.634 127.984 103.006 127.879C104.779 127.374 106.593 126.94 108.397 126.584C108.416 126.579 108.435 126.573 108.454 126.568L108.452 126.571ZM84.7963 124.589C85.0497 124.517 85.2488 124.305 85.2956 124.029C85.5978 122.225 85.9844 120.399 86.4467 118.604C86.544 118.229 86.3187 117.847 85.9442 117.749C85.5697 117.651 85.188 117.877 85.0908 118.252C84.6168 120.088 84.2214 121.954 83.9122 123.796C83.8492 124.178 84.1065 124.54 84.4887 124.603C84.5953 124.62 84.6985 124.614 84.7956 124.586L84.7963 124.589ZM259.14 69.414C259.366 69.3495 259.557 69.1698 259.624 68.9259C259.728 68.5521 259.507 68.1656 259.134 68.0617C257.331 67.5621 255.53 67.0679 253.721 66.5786C253.349 66.4775 252.963 66.6981 252.863 67.0738C252.762 67.4468 252.983 67.8334 253.358 67.9338C255.16 68.4219 256.964 68.9153 258.761 69.4138C258.891 69.4498 259.018 69.4458 259.139 69.4113L259.14 69.414ZM87.5875 113.736C87.8004 113.675 87.9795 113.516 88.0586 113.293C88.6599 111.566 89.3451 109.828 90.0961 108.126C90.2519 107.772 90.0928 107.356 89.7368 107.201C89.3835 107.044 88.9684 107.203 88.8135 107.56C88.0486 109.295 87.3495 111.067 86.7351 112.829C86.6062 113.195 86.8015 113.595 87.1641 113.722C87.3065 113.772 87.4527 113.774 87.5875 113.736ZM248.315 66.4914C248.547 66.4255 248.737 66.243 248.803 65.9937C248.9 65.6188 248.678 65.2357 248.303 65.138C246.437 64.6506 244.607 64.1791 242.866 63.7436C242.492 63.6486 242.112 63.8766 242.018 64.2534C241.924 64.6303 242.152 65.0119 242.528 65.1034C244.266 65.5397 246.089 66.0074 247.952 66.4955C248.079 66.5296 248.206 66.5256 248.321 66.4926L248.315 66.4914ZM237.439 63.7646C237.676 63.6972 237.87 63.5078 237.928 63.2519C238.016 62.8766 237.783 62.4965 237.408 62.4077C235.555 61.9662 233.712 61.5421 231.933 61.1466C231.557 61.0612 231.182 61.302 231.097 61.6792C231.012 62.0565 231.253 62.4315 231.63 62.5169C233.403 62.9112 235.236 63.335 237.083 63.7726C237.205 63.8021 237.326 63.7968 237.436 63.7654L237.439 63.7646ZM92.1037 103.478C92.2788 103.428 92.4375 103.31 92.5304 103.135C93.3957 101.517 94.338 99.9036 95.3306 98.3343C95.5376 98.0069 95.4405 97.5735 95.1134 97.366C94.7863 97.1585 94.3536 97.2554 94.1466 97.5827C93.1351 99.1778 92.1755 100.822 91.2928 102.471C91.1101 102.812 91.2369 103.237 91.5809 103.422C91.7491 103.512 91.9338 103.526 92.1037 103.478ZM226.494 61.3315C226.737 61.2625 226.936 61.0627 226.989 60.7968C227.067 60.4157 226.822 60.0476 226.442 59.9691C224.579 59.5858 222.722 59.2241 220.926 58.8918C220.545 58.8222 220.179 59.0723 220.11 59.4538C220.041 59.8353 220.291 60.2019 220.672 60.2715C222.459 60.6034 224.307 60.9647 226.16 61.3449C226.274 61.3678 226.386 61.3622 226.492 61.3322L226.494 61.3315ZM98.0986 94.0041C98.2415 93.9635 98.374 93.8762 98.4711 93.7464C99.5618 92.2659 100.724 90.8001 101.925 89.3903C102.176 89.0943 102.14 88.6521 101.844 88.4007C101.549 88.1493 101.107 88.1845 100.856 88.4805C99.6362 89.9161 98.4553 91.4077 97.3422 92.9121C97.1129 93.2224 97.1769 93.6623 97.4905 93.8941C97.6717 94.0293 97.8965 94.0616 98.0986 94.0041ZM215.469 59.2918C215.723 59.2197 215.925 59.0076 215.968 58.7297C216.031 58.3471 215.771 57.9862 215.389 57.9228C213.519 57.6174 211.649 57.3324 209.832 57.0791C209.449 57.0245 209.094 57.2919 209.041 57.6777C208.986 58.0608 209.254 58.4166 209.639 58.4704C211.445 58.724 213.305 59.0059 215.166 59.311C215.27 59.3281 215.376 59.3213 215.47 59.2945L215.469 59.2918ZM204.365 57.7415C204.629 57.6664 204.838 57.4377 204.869 57.1459C204.911 56.7605 204.637 56.4124 204.252 56.3702C202.376 56.1569 200.493 55.969 198.657 55.8116C198.271 55.7783 197.933 56.0642 197.9 56.45C197.867 56.8358 198.153 57.1747 198.538 57.2081C200.362 57.3631 202.231 57.5521 204.097 57.7623C204.191 57.7736 204.282 57.7653 204.368 57.7408L204.365 57.7415ZM105.356 85.464C105.469 85.4318 105.576 85.3691 105.665 85.2798C106.952 83.9592 108.299 82.6626 109.673 81.4284C109.96 81.1686 109.986 80.7265 109.726 80.4386C109.467 80.1506 109.025 80.1245 108.738 80.3843C107.341 81.6396 105.971 82.9574 104.661 84.3019C104.39 84.5802 104.397 85.022 104.675 85.293C104.861 85.4764 105.122 85.5334 105.356 85.4667L105.356 85.464ZM193.198 56.7898C193.479 56.7101 193.69 56.4602 193.705 56.1526C193.725 55.7645 193.43 55.434 193.043 55.413C191.433 55.3254 189.817 55.257 188.237 55.2134C187.964 55.2064 187.694 55.1987 187.421 55.1917C187.034 55.1823 186.713 55.4894 186.704 55.8772C186.695 56.265 187.002 56.5861 187.389 56.5956C187.659 56.6006 187.929 56.6084 188.199 56.6161C189.767 56.6601 191.371 56.7261 192.967 56.8149C193.046 56.8185 193.123 56.8113 193.198 56.7898ZM113.689 77.9744C113.773 77.9507 113.855 77.9099 113.928 77.8511C115.384 76.7103 116.893 75.6067 118.414 74.5701C118.734 74.3536 118.816 73.9158 118.599 73.5951C118.383 73.2744 117.946 73.1917 117.626 73.4082C116.078 74.4613 114.544 75.5834 113.063 76.7461C112.758 76.9846 112.706 77.4256 112.944 77.7312C113.127 77.9624 113.423 78.0503 113.689 77.9744ZM181.995 56.54C182.292 56.4557 182.508 56.1811 182.503 55.8558C182.498 55.4691 182.179 55.1572 181.793 55.162C179.912 55.1865 178.02 55.2461 176.165 55.3393C175.777 55.3591 175.481 55.6886 175.5 56.0741C175.52 56.4624 175.849 56.7597 176.234 56.7406C178.073 56.6493 179.947 56.5889 181.811 56.5663C181.874 56.5657 181.936 56.5569 181.993 56.5408L181.995 56.54ZM122.942 71.6677C122.999 71.6516 123.053 71.6274 123.109 71.5971C124.687 70.6635 126.326 69.7566 127.978 68.9072C128.321 68.7308 128.457 68.307 128.28 67.9633C128.104 67.6195 127.681 67.4832 127.337 67.6596C125.66 68.5221 123.999 69.4413 122.396 70.3906C122.064 70.5871 121.954 71.0182 122.15 71.3504C122.314 71.6306 122.647 71.7548 122.946 71.6697L122.942 71.6677ZM170.803 57.1044C171.121 57.0139 171.337 56.71 171.307 56.3685C171.273 55.9814 170.932 55.696 170.546 55.7328C168.668 55.8996 166.786 56.1053 164.946 56.3457C164.562 56.3968 164.292 56.7479 164.342 57.1304C164.394 57.5156 164.744 57.7863 165.126 57.736C166.947 57.4983 168.812 57.2972 170.67 57.1304C170.715 57.1262 170.759 57.1166 170.8 57.1051L170.803 57.1044ZM132.903 66.5371C132.935 66.5279 132.968 66.5187 132.995 66.5021C134.671 65.7568 136.402 65.0425 138.14 64.3817C138.503 64.2435 138.682 63.8394 138.543 63.476C138.405 63.1127 137.999 62.9336 137.639 63.0711C135.875 63.7422 134.12 64.4662 132.424 65.2203C132.069 65.3767 131.91 65.7924 132.07 66.1468C132.214 66.4705 132.572 66.6314 132.9 66.5378L132.903 66.5371ZM159.689 58.5508C160.028 58.4542 160.249 58.1141 160.185 57.7559C160.12 57.3746 159.756 57.1192 159.376 57.1838C157.515 57.5059 155.656 57.8716 153.845 58.2671C153.465 58.3521 153.23 58.7253 153.311 59.102C153.393 59.4814 153.766 59.7195 154.145 59.6379C155.936 59.2451 157.776 58.8848 159.614 58.5661C159.639 58.5592 159.664 58.555 159.688 58.5481L159.689 58.5508ZM143.371 62.5432C143.371 62.5432 143.387 62.5386 143.395 62.5363C145.143 61.9719 146.941 61.4426 148.735 60.9585C149.107 60.8527 149.331 60.4737 149.23 60.0996C149.13 59.7255 148.746 59.5022 148.372 59.6026C146.554 60.0909 144.734 60.629 142.965 61.1995C142.597 61.3189 142.395 61.7148 142.514 62.0835C142.632 62.4441 143.012 62.6452 143.373 62.5424L143.371 62.5432Z"
            fill="#838EE8" />
    </g>
    <defs>
        <clipPath id="clip0_268_18863">
            <rect width="372" height="235" fill="white"
                transform="matrix(-0.961823 0.273674 0.273674 0.961823 357.798 0)" />
        </clipPath>
    </defs>
</svg>