<svg xmlns="http://www.w3.org/2000/svg"
    viewBox="0 0 103 39" fill="none">
    <path
        d="M102.532 36.5148C102.532 37.0092 102.509 37.5035 102.466 37.9893H4.70088C2.02613 34.563 0.428711 30.2508 0.428711 25.5672C0.428711 17.2772 5.42101 10.1531 12.5651 7.03825C13.9939 6.41242 15.5113 5.94949 17.0916 5.6723C18.2404 5.46655 19.4234 5.36081 20.6322 5.36081C24.5358 5.36081 28.1821 6.46957 31.2712 8.39277C32.44 6.29526 34.106 4.51209 36.1092 3.20329C38.4267 1.68589 41.1986 0.808594 44.1734 0.808594C47.6512 0.808594 50.846 2.01166 53.3693 4.02058C55.8955 6.03521 57.7472 8.85856 58.5274 12.0991C60.4306 9.11003 63.1539 6.69533 66.3802 5.16935C68.8263 4.00915 71.5611 3.36332 74.4444 3.36332C84.6805 3.36332 93.0105 11.5105 93.3077 21.6751C98.7715 24.3755 102.529 30.0022 102.529 36.5148H102.532Z"
        fill="white" />
    <path
        d="M5.09559 29.1891C4.5012 27.2316 4.48977 25.1255 4.86698 23.0909C5.25276 21.0534 6.06147 19.0816 7.20738 17.3327C8.35044 15.581 9.83927 14.0579 11.5481 12.8863C13.2627 11.7261 15.1945 10.8888 17.232 10.6602C15.686 11.989 14.2686 13.2406 12.997 14.6037C11.7225 15.9554 10.5908 17.3842 9.59351 18.8987C8.5962 20.4161 7.7389 22.0221 7.01021 23.7281C6.26722 25.437 5.69569 27.2373 5.09273 29.1862L5.09559 29.1891Z"
        fill="#F7F8FF" />
    <path
        d="M102.532 36.5187C102.532 37.013 102.509 37.5074 102.466 37.9932H86.3348C86.3806 37.5045 86.4034 37.013 86.4034 36.5187C86.4034 30.0061 82.6485 24.3794 77.1818 21.6789C76.9704 14.3805 72.6125 8.1223 66.3828 5.17321C68.829 4.01301 71.5637 3.36719 74.4471 3.36719C84.6831 3.36719 93.0131 11.5143 93.3103 21.6789C98.7741 24.3794 102.532 30.0061 102.532 36.5187Z"
        fill="#F7F8FF" />
    <path
        d="M102.858 38.4198H4.48935L4.36076 38.254C1.50598 34.5991 0 30.2127 0 25.569C0 14.1927 9.25589 4.93398 20.6322 4.93398C24.3357 4.93398 27.9534 5.92273 31.1197 7.79734C33.8545 3.21083 38.8153 0.378906 44.1734 0.378906C50.9031 0.378906 56.7441 4.73395 58.693 11.0836C62.3137 5.96273 68.1318 2.9365 74.4472 2.9365C79.5024 2.9365 84.2832 4.87683 87.9038 8.40316C91.4587 11.8609 93.5191 16.4703 93.7277 21.4083C99.4287 24.3316 102.958 30.0955 102.958 36.5166C102.958 37.0138 102.935 37.5253 102.889 38.0312L102.855 38.4198H102.858ZM4.90942 37.5625H102.069C102.092 37.211 102.103 36.8595 102.103 36.5137C102.103 30.3355 98.6628 24.7974 93.1219 22.057L92.8904 21.9426L92.8818 21.6855C92.5904 11.6523 84.4918 3.79093 74.4472 3.79093C68.1118 3.79093 62.2965 6.98291 58.8902 12.3295L58.3473 13.1811L58.1101 12.201C56.5555 5.74555 50.8231 1.23906 44.1705 1.23906C38.9753 1.23906 34.1745 4.05955 31.6426 8.60319L31.4226 8.99469L31.0397 8.7575C27.9191 6.81717 24.3185 5.79414 20.6264 5.79414C9.72169 5.79414 0.851576 14.6671 0.851576 25.5719C0.851576 29.9526 2.25182 34.0962 4.90371 37.5654L4.90942 37.5625Z"
        fill="#E9DEFF" />
</svg>