<svg width="16" height="16" viewBox="0 0 16 16" fill="none" xmlns="http://www.w3.org/2000/svg">
<path d="M15.704 11.7176V13.9725C15.7048 14.1819 15.6619 14.3891 15.5781 14.5809C15.4942 14.7727 15.3712 14.9448 15.217 15.0863C15.0627 15.2279 14.8806 15.3356 14.6823 15.4027C14.484 15.4697 14.2739 15.4946 14.0654 15.4758C11.7525 15.2245 9.53078 14.4341 7.57879 13.1683C5.76272 12.0143 4.223 10.4746 3.06899 8.65848C1.79871 6.69762 1.00819 4.46511 0.761472 2.14181C0.742689 1.93396 0.767391 1.72447 0.834005 1.52669C0.900619 1.32891 1.00769 1.14716 1.14839 0.993027C1.28909 0.838891 1.46034 0.715741 1.65125 0.631417C1.84215 0.547093 2.04853 0.503443 2.25722 0.503247H4.51213C4.8769 0.499657 5.23053 0.628829 5.50711 0.866686C5.78369 1.10454 5.96434 1.43486 6.01539 1.79606C6.11057 2.51768 6.28707 3.22621 6.54154 3.90815C6.64266 4.17718 6.66455 4.46956 6.6046 4.75064C6.54466 5.03173 6.40539 5.28974 6.2033 5.4941L5.24873 6.44867C6.31872 8.33042 7.87678 9.88848 9.75853 10.9585L10.7131 10.0039C10.9175 9.80181 11.1755 9.66255 11.4566 9.6026C11.7376 9.54265 12.03 9.56454 12.2991 9.66567C12.981 9.92013 13.6895 10.0966 14.4111 10.1918C14.7763 10.2433 15.1097 10.4272 15.3481 10.7086C15.5864 10.9899 15.7131 11.349 15.704 11.7176Z" stroke="#161616" stroke-width="0.588235" stroke-linecap="round" stroke-linejoin="round"/>
</svg>
