<svg width="16" height="16" viewBox="0 0 16 16" fill="none" xmlns="http://www.w3.org/2000/svg">
<g clip-path="url(#clip0_8269_29503)">
<path d="M8 0C3.58867 0 0 3.58867 0 8C0 12.4113 3.58867 16 8 16H16V8C16 3.58867 12.4113 0 8 0ZM15.3333 15.3333H8C3.95667 15.3333 0.666667 12.0433 0.666667 8C0.666667 3.95667 3.95667 0.666667 8 0.666667C12.0433 0.666667 15.3333 3.95667 15.3333 8V15.3333ZM8.66667 8C8.66667 8.368 8.368 8.66667 8 8.66667C7.632 8.66667 7.33333 8.368 7.33333 8C7.33333 7.632 7.632 7.33333 8 7.33333C8.368 7.33333 8.66667 7.632 8.66667 8ZM12 8C12 8.368 11.7013 8.66667 11.3333 8.66667C10.9653 8.66667 10.6667 8.368 10.6667 8C10.6667 7.632 10.9653 7.33333 11.3333 7.33333C11.7013 7.33333 12 7.632 12 8ZM5.33333 8C5.33333 8.368 5.03467 8.66667 4.66667 8.66667C4.29867 8.66667 4 8.368 4 8C4 7.632 4.29867 7.33333 4.66667 7.33333C5.03467 7.33333 5.33333 7.632 5.33333 8Z" fill="#794A00"/>
</g>
<defs>
<clipPath id="clip0_8269_29503">
<rect width="16" height="16" fill="white"/>
</clipPath>
</defs>
</svg>
