<svg width="75" height="84" viewBox="0 0 75 84" fill="none" xmlns="http://www.w3.org/2000/svg">
<path d="M31.9839 20.6317C32.5031 20.1124 32.5031 19.2704 31.9839 18.7511C31.4646 18.2319 30.6226 18.2319 30.1033 18.7511C29.5841 19.2704 29.5841 20.1124 30.1033 20.6317C30.6226 21.151 31.4646 21.151 31.9839 20.6317Z" fill="#774DFD"/>
<path d="M36.5009 18.6229C36.6208 18.8786 36.739 19.0867 36.8192 19.3085C37.566 21.3728 38.3825 23.4157 39.0297 25.5109C39.93 28.4249 40.4829 31.4216 40.7037 34.4675C40.8736 36.8134 40.8569 39.1517 40.1317 41.4306C39.8648 42.269 39.49 43.0381 38.7737 43.5723C38.464 43.8032 38.4705 44.018 38.5645 44.3404C39.6025 47.9016 40.6259 51.467 41.6579 55.0299C42.0247 56.2961 42.4039 57.5586 42.783 58.8415C44.379 58.4956 45.9185 57.9779 47.6012 57.9779C47.718 57.9779 47.8355 57.9804 47.9537 57.9856C47.1924 59.1138 40.2273 61.197 37.7936 61.197C37.4859 61.197 37.2503 61.1636 37.1092 61.0909C37.4279 60.899 37.6896 60.6869 37.9887 60.5713C39.1451 60.1242 40.3089 59.6953 41.48 59.2882C41.7993 59.1772 41.9221 59.0591 41.8033 58.7136C41.6534 58.2777 41.5565 57.8237 41.4282 57.38C40.4553 54.0147 39.4827 50.6493 38.5045 47.2854C38.1949 46.2207 37.8684 45.1609 37.5983 44.2607C36.9495 44.0308 36.3796 43.9318 35.9288 43.6456C35.1972 43.1813 34.4737 42.6624 33.8707 42.0455C32.275 40.413 31.1303 38.4535 30.1284 36.4227C28.8364 33.8043 27.7805 31.0834 27.0599 28.2526C26.5576 26.2793 26.1986 24.2698 25.7701 22.2776C25.6872 21.8922 25.7542 21.6758 26.2062 21.5836C26.8591 21.4502 27.4928 21.2231 28.1345 21.0351C29.9526 20.5022 31.7694 19.9647 33.5892 19.4374C34.5498 19.159 35.5154 18.898 36.5009 18.6229ZM36.5009 18.4604C36.4863 18.4604 36.4717 18.4624 36.4572 18.4665C36.1486 18.5526 35.8419 18.6374 35.5368 18.7217C34.8819 18.9027 34.2046 19.0899 33.544 19.2814C32.293 19.6439 31.0227 20.0173 29.7941 20.3784C29.2258 20.5455 28.6574 20.7126 28.0888 20.8792C27.8989 20.9349 27.7071 20.9947 27.5217 21.0526C27.0817 21.1899 26.6266 21.3319 26.1737 21.4245C25.9199 21.4762 25.7581 21.5673 25.6642 21.7109C25.5427 21.8969 25.5721 22.1297 25.6113 22.3118C25.751 22.9615 25.8857 23.6245 26.0159 24.2656C26.2849 25.5902 26.5632 26.96 26.9025 28.2927C27.5861 30.9783 28.6224 33.7378 29.9825 36.4946C30.82 38.1921 32.0057 40.3701 33.7543 42.159C34.2794 42.6962 34.9426 43.2121 35.8415 43.7828C36.165 43.988 36.5442 44.1021 36.9458 44.2229C37.114 44.2735 37.2872 44.3255 37.4664 44.3869C37.5413 44.636 37.6202 44.8968 37.7018 45.166C37.9137 45.8659 38.1328 46.5896 38.3483 47.3308C39.2698 50.4993 40.2015 53.7224 41.1025 56.8393L41.2719 57.4251C41.319 57.5877 41.3627 57.7555 41.405 57.9177C41.4779 58.1973 41.5532 58.4864 41.6495 58.7666C41.7272 58.9923 41.698 59.0405 41.4265 59.1349C40.2891 59.5303 39.1126 59.9626 37.9299 60.4199C37.7114 60.5044 37.5185 60.6318 37.3143 60.7667C37.2215 60.828 37.1255 60.8914 37.0253 60.9518C36.9748 60.9821 36.9448 61.0374 36.9467 61.0962C36.9486 61.1551 36.9822 61.2083 37.0346 61.2353C37.1967 61.3189 37.4448 61.3595 37.7935 61.3595C38.9517 61.3595 41.2107 60.8925 43.5486 60.1696C44.4756 59.8831 47.5426 58.8851 48.0882 58.0766C48.121 58.0278 48.1251 57.9652 48.0986 57.9127C48.0722 57.8602 48.0194 57.826 47.9607 57.8235C47.8424 57.8182 47.7214 57.8156 47.6011 57.8156C46.3217 57.8155 45.1109 58.1134 43.94 58.4014C43.5983 58.4855 43.2463 58.5721 42.8957 58.6504C42.7908 58.2956 42.6858 57.9422 42.5811 57.5898C42.3274 56.7355 42.065 55.8521 41.8138 54.9848C41.4316 53.6652 41.0441 52.3231 40.6694 51.0252C40.0325 48.8188 39.3738 46.5374 38.7203 44.295C38.634 43.999 38.6436 43.8719 38.8707 43.7026C39.6937 43.0888 40.0595 42.1924 40.2863 41.4799C41.0674 39.0259 41.0174 36.5521 40.8655 34.4559C40.6423 31.376 40.0769 28.3504 39.1848 25.463C38.725 23.9747 38.1718 22.4904 37.6368 21.055C37.4169 20.465 37.1895 19.8549 36.9719 19.2534C36.9149 19.0959 36.841 18.9472 36.7628 18.7899C36.7253 18.7145 36.6865 18.6365 36.6478 18.554C36.6206 18.4958 36.5625 18.4604 36.5009 18.4604Z" fill="#161616"/>
<path d="M39.2055 30.2603C39.4623 31.6674 39.6445 33.0959 39.7489 34.5369C39.8931 36.5268 39.943 38.8675 39.2195 41.1404C38.9546 41.9726 38.6502 42.4704 38.2015 42.805C37.9909 42.9621 37.8443 43.1302 37.7442 43.299C37.5753 43.243 37.4145 43.1946 37.2684 43.1507C36.9286 43.0485 36.6351 42.9603 36.4418 42.8376C35.6177 42.3145 35.0183 41.8502 34.5553 41.3765C32.9171 39.7005 31.7878 37.6225 30.987 35.9993C30.0736 34.1481 29.3106 32.2974 28.707 30.4716L39.2055 30.2603Z" fill="#774DFD"/>
<path d="M37.3802 27.5858C37.4455 27.0604 37.0725 26.5816 36.5471 26.5163C36.0217 26.451 35.5429 26.824 35.4776 27.3494C35.4123 27.8749 35.7853 28.3537 36.3107 28.419C36.8361 28.4843 37.315 28.1112 37.3802 27.5858Z" fill="#774DFD"/>
<path d="M34.5416 24.776C34.5919 24.551 34.4502 24.3278 34.2252 24.2776C34.0002 24.2273 33.777 24.369 33.7267 24.594C33.6765 24.819 33.8182 25.0422 34.0432 25.0925C34.2682 25.1427 34.4914 25.0011 34.5416 24.776Z" fill="#774DFD"/>
<path d="M36.0718 33.1688C36.4244 33.1688 36.7137 33.451 36.7209 33.8051C36.7281 34.1637 36.4432 34.4602 36.0847 34.4674C36.0802 34.4675 36.0758 34.4675 36.0713 34.4675C35.7188 34.4675 35.4295 34.1853 35.4224 33.8312C35.4152 33.4727 35.7 33.1761 36.0585 33.1689C36.063 33.1688 36.0674 33.1688 36.0718 33.1688ZM36.0718 33.0063C36.0663 33.0063 36.0608 33.0064 36.0552 33.0065C35.6077 33.0155 35.2509 33.387 35.2599 33.8345C35.2687 34.2732 35.6327 34.63 36.0713 34.63C36.0769 34.63 36.0823 34.6299 36.0879 34.6298C36.5355 34.6208 36.8923 34.2494 36.8832 33.8019C36.8744 33.3632 36.5104 33.0063 36.0718 33.0063Z" fill="#161616"/>
<path d="M34.5786 35.8998C35.1494 35.8998 35.6178 36.3566 35.6293 36.93C35.641 37.5106 35.1798 37.9907 34.5993 38.0024C34.5921 38.0025 34.5849 38.0026 34.5777 38.0026C34.0069 38.0026 33.5385 37.5457 33.5269 36.9724C33.5152 36.3918 33.9764 35.9117 34.557 35.9C34.5642 35.8998 34.5713 35.8998 34.5786 35.8998ZM34.5786 35.7373C34.5703 35.7373 34.562 35.7374 34.5537 35.7376C33.8845 35.7511 33.351 36.3064 33.3645 36.9756C33.3709 37.2954 33.5004 37.5948 33.7289 37.8185C33.9572 38.042 34.2586 38.165 34.5776 38.165C34.5859 38.165 34.5942 38.1649 34.6025 38.1647C34.9267 38.1582 35.2289 38.0259 35.4535 37.792C35.678 37.5582 35.7982 37.2509 35.7917 36.9267C35.7853 36.6069 35.6558 36.3075 35.4273 36.0838C35.199 35.8604 34.8976 35.7373 34.5786 35.7373Z" fill="#161616"/>
<path d="M37.8166 38.783C37.9844 38.783 38.1222 38.9174 38.1256 39.086C38.129 39.2568 37.9933 39.398 37.8226 39.4014C37.8204 39.4015 37.8183 39.4015 37.8162 39.4015C37.6484 39.4015 37.5106 39.2671 37.5072 39.0985C37.5038 38.9277 37.6394 38.7865 37.8101 38.7831C37.8123 38.7831 37.8145 38.783 37.8166 38.783ZM37.8166 38.6206L37.8069 38.6207C37.681 38.6232 37.5636 38.6747 37.4762 38.7656C37.389 38.8564 37.3423 38.9758 37.3448 39.1018C37.35 39.3567 37.5615 39.564 37.8162 39.564L37.8259 39.5639C38.0859 39.5586 38.2932 39.3429 38.288 39.0828C38.2829 38.8279 38.0714 38.6206 37.8166 38.6206Z" fill="#161616"/>
<path d="M31.9278 32.056C32.0844 32.056 32.213 32.1814 32.2162 32.3388C32.2193 32.4982 32.0927 32.63 31.9334 32.6332C31.9314 32.6332 31.9294 32.6332 31.9275 32.6332C31.7708 32.6332 31.6422 32.5078 31.6391 32.3504C31.6359 32.1911 31.7625 32.0593 31.9218 32.0561C31.9238 32.056 31.9258 32.056 31.9278 32.056ZM31.9278 31.8936L31.9185 31.8937C31.6699 31.8986 31.4716 32.105 31.4767 32.3537C31.4816 32.5974 31.6838 32.7957 31.9275 32.7957L31.9367 32.7956C32.1853 32.7906 32.3835 32.5842 32.3786 32.3356C32.3737 32.0918 32.1714 31.8936 31.9278 31.8936Z" fill="#161616"/>
<path d="M12.8338 55.9559H12.834H12.8338ZM12.8338 55.9559L11.5883 62.5192C11.4647 63.1712 11.8929 63.8002 12.545 63.9239L16.5455 64.6829C17.7229 64.9064 18.4963 66.0421 18.2729 67.2196L1.58339 64.0528C1.78091 63.0119 2.69109 62.2868 3.71304 62.2869C3.84718 62.2869 3.98341 62.2993 4.12001 62.3253L8.12045 63.0844C8.19618 63.0987 8.27153 63.1057 8.34584 63.1057C8.91176 63.1057 9.41576 62.7041 9.52513 62.1277L10.5611 56.6678C10.6638 56.6529 10.766 56.6343 10.8674 56.6105C11.2889 56.5119 11.6959 56.3621 12.1015 56.2126C12.3441 56.1232 12.5874 56.0344 12.8338 55.9559ZM12.8338 55.7935C12.8311 55.7935 12.8286 55.7935 12.8259 55.7937C12.8102 55.7944 12.795 55.7974 12.7808 55.8023C12.5362 55.8804 12.2933 55.9688 12.0453 56.0601C11.6508 56.2055 11.2429 56.3558 10.8302 56.4523C10.7375 56.474 10.6417 56.4919 10.5377 56.507C10.4691 56.517 10.4144 56.5694 10.4015 56.6375L9.36544 62.0974C9.2725 62.5875 8.84365 62.9432 8.34574 62.9432C8.28077 62.9432 8.21512 62.937 8.15068 62.9248L4.15024 62.1657C4.00587 62.1383 3.85878 62.1244 3.71299 62.1244C2.59527 62.1243 1.63245 62.9226 1.42375 64.0225C1.41572 64.0648 1.4248 64.1086 1.44904 64.1442C1.47329 64.1798 1.51071 64.2043 1.553 64.2123L18.2425 67.3791C18.2528 67.381 18.263 67.382 18.273 67.382C18.3495 67.382 18.4176 67.3277 18.4324 67.2498C18.6722 65.9862 17.8392 64.7631 16.5757 64.5233L12.5752 63.7642C12.0122 63.6574 11.6411 63.1124 11.7479 62.5494L12.9921 55.9926C12.9948 55.9808 12.9962 55.9685 12.9962 55.9559C12.9962 55.8669 12.9246 55.7945 12.8357 55.7935C12.8352 55.7935 12.8344 55.7935 12.8338 55.7935Z" fill="#161616"/>
<path d="M0.918592 34.0721L29.8731 39.5662L29.2739 42.7241C28.4706 46.9576 24.7687 49.9066 20.6123 49.9066C20.0667 49.9066 19.5127 49.8556 18.957 49.7502L14.8305 48.9672C14.789 48.9594 14.7476 48.9556 14.7068 48.9556C14.3964 48.9556 14.1199 49.1758 14.0599 49.492L12.8428 55.6877C12.8054 55.684 12.7678 55.6824 12.7301 55.6824C12.675 55.6824 12.62 55.6857 12.5664 55.6905C12.4033 55.7047 12.242 55.7335 12.0801 55.7575C11.8981 55.7843 11.7168 55.8004 11.5364 55.8392C11.3456 55.8802 11.1567 55.925 10.9697 55.981C10.9576 55.9847 10.9455 55.9885 10.9334 55.9922C10.8353 56.0023 10.7374 56.0156 10.6399 56.0319L11.9966 49.1004C12.0645 48.7427 11.8296 48.3978 11.4719 48.3299L7.34535 47.5469C2.55622 46.6381 -0.589465 42.0192 0.319241 37.23L0.918592 34.0721ZM0.918382 33.9097C0.841922 33.9097 0.773805 33.9639 0.759006 34.0419L0.159761 37.1998C-0.0664186 38.392 -0.0524071 39.5928 0.201586 40.769C0.446815 41.905 0.904318 42.9702 1.56145 43.9351C2.21852 44.9 3.04216 45.7159 4.00933 46.3602C5.01076 47.0274 6.12303 47.4803 7.31512 47.7065L11.4417 48.4895C11.5721 48.5143 11.685 48.5883 11.7597 48.6979C11.8344 48.8076 11.8619 48.9398 11.8371 49.0702L10.4804 56.0017C10.4705 56.0539 10.4867 56.1076 10.5239 56.1455C10.5547 56.177 10.5967 56.1943 10.64 56.1943C10.6489 56.1943 10.6579 56.1936 10.6669 56.1921C10.7599 56.1765 10.8554 56.1637 10.9503 56.1538C10.9608 56.1527 10.971 56.1506 10.9811 56.1475L10.996 56.1429L11.0166 56.1366C11.1755 56.089 11.3464 56.0463 11.5707 55.998C11.6869 55.9731 11.8034 55.958 11.9267 55.9421C11.9846 55.9347 12.0444 55.927 12.1041 55.9182C12.1449 55.9121 12.1857 55.9058 12.2265 55.8994C12.3486 55.8804 12.4638 55.8625 12.5808 55.8523C12.6376 55.8473 12.6865 55.8449 12.7303 55.8449C12.7651 55.8449 12.7967 55.8464 12.8269 55.8494C12.8324 55.8499 12.8378 55.8502 12.8432 55.8502C12.9203 55.8502 12.9879 55.7953 13.0026 55.718L14.2197 49.5223C14.2641 49.288 14.4691 49.118 14.707 49.118C14.7382 49.118 14.7695 49.121 14.8004 49.1268L18.9269 49.9098C19.4836 50.0154 20.0507 50.069 20.6125 50.069C24.9196 50.069 28.6295 46.9928 29.4337 42.7544L30.0329 39.5965C30.0496 39.5083 29.9918 39.4233 29.9036 39.4066L0.948872 33.9126C0.938639 33.9106 0.928458 33.9097 0.918382 33.9097Z" fill="#161616"/>
<path d="M2.09863 42.6583C3.19127 44.6446 5.12808 46.1478 7.52416 46.6024L11.6507 47.3854C12.0758 47.4661 12.4442 47.7075 12.6878 48.0652C12.8318 48.2767 12.9216 48.5139 12.9546 48.7603C13.0682 48.7826 13.1836 48.7965 13.2977 48.8161C13.579 48.32 14.1109 47.9941 14.7063 47.9941C14.8076 47.9941 14.9094 48.0038 15.0091 48.0227L19.1357 48.8057C19.6232 48.8982 20.1199 48.9451 20.6119 48.9452H20.6125C24.3415 48.9451 27.5584 46.3081 28.3064 42.6582L2.09863 42.6583Z" fill="#FFBB56"/>
<path d="M15.0854 41.0142C15.8462 41.0142 16.4629 40.3975 16.4629 39.6367C16.4629 38.876 15.8462 38.2593 15.0854 38.2593C14.3247 38.2593 13.708 38.876 13.708 39.6367C13.708 40.3975 14.3247 41.0142 15.0854 41.0142Z" fill="#FFBB56"/>
<path d="M14.4823 34.3904C14.6084 33.8566 14.2779 33.3218 13.7441 33.1957C13.2104 33.0697 12.6755 33.4002 12.5495 33.934C12.4235 34.4677 12.754 35.0026 13.2877 35.1286C13.8215 35.2546 14.3563 34.9241 14.4823 34.3904Z" fill="#FFBB56"/>
<path d="M16.005 31.6273C16.2257 31.5359 16.3304 31.2829 16.239 31.0622C16.1476 30.8415 15.8946 30.7367 15.674 30.8281C15.4533 30.9196 15.3485 31.1725 15.4399 31.3932C15.5313 31.6139 15.7843 31.7187 16.005 31.6273Z" fill="#FFBB56"/>
<path d="M17.8512 44.5325C18.4527 44.5325 18.9403 45.0202 18.9403 45.6217C18.9403 46.2232 18.4527 46.7108 17.8512 46.7108C17.2497 46.7108 16.762 46.2232 16.762 45.6217C16.762 45.0202 17.2497 44.5325 17.8512 44.5325ZM17.8512 44.3701C17.1611 44.3701 16.5996 44.9316 16.5996 45.6217C16.5996 46.3118 17.1611 46.8733 17.8512 46.8733C18.5413 46.8733 19.1028 46.3118 19.1028 45.6217C19.1028 44.9316 18.5413 44.3701 17.8512 44.3701Z" fill="#161616"/>
<path d="M14.056 44.5804C14.2329 44.5804 14.3764 44.7239 14.3764 44.9008C14.3764 45.0777 14.2329 45.2211 14.056 45.2211C13.8791 45.2211 13.7357 45.0777 13.7357 44.9008C13.7357 44.7239 13.8791 44.5804 14.056 44.5804ZM14.056 44.418C13.7898 44.418 13.5732 44.6345 13.5732 44.9008C13.5732 45.167 13.7898 45.3836 14.056 45.3836C14.3223 45.3836 14.5388 45.167 14.5388 44.9008C14.5388 44.6345 14.3223 44.418 14.056 44.418Z" fill="#161616"/>
<path d="M27.5791 63.8987C27.5314 63.8987 27.4848 63.8747 27.4579 63.8311L25.7858 61.1165C25.7446 61.0497 25.7654 60.9622 25.8323 60.921C25.8991 60.88 25.9866 60.9006 26.0279 60.9675L27.7 63.682C27.7411 63.7489 27.7203 63.8364 27.6535 63.8776C27.6303 63.8918 27.6046 63.8987 27.5791 63.8987Z" fill="#FFBB56"/>
<path d="M29.1706 66.4813C29.1229 66.4813 29.0763 66.4573 29.0494 66.4137L28.5875 65.6639C28.5464 65.597 28.5672 65.5095 28.634 65.4683C28.7009 65.4273 28.7884 65.448 28.8296 65.5148L29.2915 66.2646C29.3326 66.3314 29.3118 66.419 29.245 66.4601C29.2218 66.4744 29.196 66.4813 29.1706 66.4813Z" fill="#FFBB56"/>
<path d="M30.4012 68.4804C30.3535 68.4804 30.3069 68.4564 30.28 68.4128L29.0485 66.4134C29.0073 66.3466 29.0281 66.259 29.095 66.2178C29.1618 66.1768 29.2494 66.1975 29.2905 66.2643L30.5221 68.2636C30.5632 68.3305 30.5425 68.418 30.4756 68.4592C30.4524 68.4735 30.4266 68.4804 30.4012 68.4804Z" fill="#FFBB56"/>
<path d="M32.6124 72.0694C32.5647 72.0694 32.5181 72.0454 32.4912 72.0018L30.691 69.0794C30.6499 69.0126 30.6707 68.925 30.7375 68.8838C30.8043 68.8429 30.8919 68.8635 30.9331 68.9303L32.7333 71.8527C32.7744 71.9196 32.7536 72.0071 32.6868 72.0483C32.6635 72.0625 32.6378 72.0694 32.6124 72.0694Z" fill="#FFBB56"/>
<path d="M19.8247 72.4477C19.7481 72.4477 19.6849 72.3867 19.6827 72.3096C19.6805 72.2312 19.7422 72.1657 19.8207 72.1635L22.7963 72.0787C22.874 72.0762 22.9402 72.1382 22.9424 72.2167C22.9446 72.2952 22.8829 72.3606 22.8044 72.3629L19.8288 72.4477C19.8274 72.4477 19.8261 72.4477 19.8247 72.4477Z" fill="#FFBB56"/>
<path d="M22.8003 72.3631C22.7237 72.3631 22.6605 72.3021 22.6583 72.225C22.6561 72.1465 22.7178 72.0811 22.7963 72.0788L24.2764 72.0367C24.3539 72.034 24.4203 72.0963 24.4226 72.1748C24.4248 72.2532 24.363 72.3187 24.2846 72.3209L22.8045 72.3631C22.803 72.3631 22.8016 72.3631 22.8003 72.3631Z" fill="#FFBB56"/>
<path d="M26.4399 72.2594C26.3633 72.2594 26.3001 72.1985 26.2979 72.1214C26.2957 72.0429 26.3575 71.9775 26.436 71.9752L27.5486 71.9435C27.6258 71.9404 27.6925 72.003 27.6948 72.0815C27.697 72.16 27.6352 72.2254 27.5567 72.2277L26.4441 72.2594C26.4426 72.2594 26.4413 72.2594 26.4399 72.2594Z" fill="#FFBB56"/>
<path d="M30.2065 72.1519C30.1299 72.1519 30.0667 72.0909 30.0645 72.0138C30.0623 71.9354 30.1241 71.8699 30.2026 71.8677L32.6004 71.7994C32.6784 71.7976 32.7443 71.8589 32.7466 71.9374C32.7488 72.0159 32.687 72.0813 32.6086 72.0836L30.2107 72.1519C30.2092 72.1519 30.2079 72.1519 30.2065 72.1519Z" fill="#FFBB56"/>
<path d="M26.5385 83.3469C26.5157 83.3469 26.4926 83.3414 26.4711 83.3298C26.402 83.2925 26.3763 83.2062 26.4136 83.1372L27.4875 81.1483C27.5248 81.0793 27.611 81.0536 27.6801 81.0908C27.7492 81.1281 27.7749 81.2143 27.7376 81.2834L26.6637 83.2722C26.638 83.3198 26.589 83.3469 26.5385 83.3469Z" fill="#FFBB56"/>
<path d="M27.6128 81.3579C27.5899 81.3579 27.5668 81.3524 27.5453 81.3408C27.4763 81.3035 27.4505 81.2172 27.4878 81.1482L28.2289 79.7758C28.2662 79.7067 28.3523 79.681 28.4215 79.7183C28.4906 79.7556 28.5163 79.8418 28.479 79.9108L27.7379 81.2832C27.7123 81.3308 27.6632 81.3579 27.6128 81.3579Z" fill="#FFBB56"/>
<path d="M28.9702 78.8458C28.9474 78.8458 28.9243 78.8403 28.9027 78.8287C28.8337 78.7914 28.8079 78.7051 28.8452 78.6361L29.9146 76.6556C29.9518 76.5866 30.0381 76.5609 30.1072 76.5981C30.1762 76.6354 30.202 76.7216 30.1647 76.7907L29.0953 78.7712C29.0697 78.8188 29.0207 78.8458 28.9702 78.8458Z" fill="#FFBB56"/>
<path d="M30.0386 76.865C30.0157 76.865 29.9926 76.8595 29.9711 76.8479C29.9021 76.8106 29.8763 76.7244 29.9136 76.6553L30.2899 75.9584C30.3272 75.8893 30.4135 75.8636 30.4825 75.9008C30.5516 75.9382 30.5773 76.0244 30.54 76.0934L30.1637 76.7904C30.1381 76.838 30.0891 76.865 30.0386 76.865Z" fill="#FFBB56"/>
<path d="M31.2729 74.5773C31.2501 74.5773 31.227 74.5718 31.2055 74.5602C31.1364 74.5229 31.1107 74.4367 31.148 74.3676L32.4868 71.8881C32.5241 71.819 32.6103 71.7933 32.6794 71.8305C32.7485 71.8678 32.7743 71.954 32.7369 72.0231L31.3981 74.5026C31.3724 74.5503 31.3234 74.5773 31.2729 74.5773Z" fill="#FFBB56"/>
<path d="M38.5467 81.5457C38.499 81.5457 38.4525 81.5217 38.4255 81.4781L37.8873 80.6043C37.8462 80.5375 37.867 80.4499 37.9338 80.4087C38.0006 80.3678 38.0882 80.3884 38.1294 80.4552L38.6676 81.329C38.7088 81.3959 38.688 81.4834 38.6211 81.5246C38.5979 81.5389 38.5722 81.5457 38.5467 81.5457Z" fill="#FFBB56"/>
<path d="M37.3351 79.7371C37.2874 79.7371 37.2408 79.713 37.2139 79.6695L35.445 76.7977C35.4038 76.7308 35.4246 76.6433 35.4914 76.6021C35.5583 76.5611 35.6458 76.5817 35.687 76.6486L37.456 79.5204C37.4972 79.5873 37.4764 79.6748 37.4095 79.716C37.3863 79.7302 37.3606 79.7371 37.3351 79.7371Z" fill="#FFBB56"/>
<path d="M34.9838 75.9192C34.9361 75.9192 34.8896 75.8951 34.8626 75.8515L32.5084 72.0296C32.4673 71.9628 32.4881 71.8752 32.5549 71.834C32.6217 71.7931 32.7093 71.8137 32.7505 71.8805L35.1047 75.7024C35.1459 75.7693 35.1251 75.8568 35.0582 75.898C35.035 75.9123 35.0093 75.9192 34.9838 75.9192Z" fill="#FFBB56"/>
<path d="M42.5073 71.8013C42.4307 71.8013 42.3675 71.7403 42.3653 71.6632C42.3631 71.5847 42.4249 71.5193 42.5034 71.5171L45.4125 71.4341C45.4913 71.4321 45.5564 71.4937 45.5587 71.5721C45.5609 71.6506 45.4991 71.716 45.4207 71.7183L42.5115 71.8012C42.51 71.8013 42.5087 71.8013 42.5073 71.8013Z" fill="#FFBB56"/>
<path d="M38.2768 71.9219C38.2002 71.9219 38.137 71.8609 38.1348 71.7838C38.1326 71.7054 38.1944 71.6399 38.2728 71.6377L41.5393 71.5446C41.6182 71.5413 41.6832 71.6041 41.6854 71.6826C41.6876 71.761 41.6259 71.8265 41.5474 71.8287L38.281 71.9218C38.2796 71.9219 38.2782 71.9219 38.2768 71.9219Z" fill="#FFBB56"/>
<path d="M35.0796 72.0132C35.0029 72.0132 34.9398 71.9522 34.9376 71.8751C34.9354 71.7967 34.9971 71.7312 35.0756 71.729L37.7629 71.6524C37.8418 71.6507 37.9068 71.7119 37.909 71.7904C37.9112 71.8688 37.8495 71.9343 37.7709 71.9365L35.0837 72.0132C35.0823 72.0132 35.0809 72.0132 35.0796 72.0132Z" fill="#FFBB56"/>
<path d="M34.4008 72.0322C34.3242 72.0322 34.2611 71.9712 34.2588 71.8941C34.2566 71.8157 34.3184 71.7502 34.3969 71.748L35.0763 71.7286C35.1546 71.7261 35.2202 71.7882 35.2224 71.8666C35.2246 71.9451 35.1629 72.0105 35.0844 72.0128L34.405 72.0321C34.4036 72.0322 34.4022 72.0322 34.4008 72.0322Z" fill="#FFBB56"/>
<path d="M32.6372 72.0826C32.5606 72.0826 32.4974 72.0216 32.4952 71.9445C32.493 71.8661 32.5547 71.8006 32.6332 71.7984L34.397 71.7481C34.475 71.7463 34.5409 71.8076 34.5431 71.8861C34.5453 71.9646 34.4836 72.03 34.4051 72.0323L32.6414 72.0825C32.6399 72.0826 32.6385 72.0826 32.6372 72.0826Z" fill="#FFBB56"/>
<path d="M35.2163 67.2753C35.1935 67.2753 35.1704 67.2698 35.1489 67.2582C35.0798 67.2209 35.054 67.1347 35.0913 67.0656L36.7058 64.0756C36.7431 64.0065 36.8293 63.9808 36.8984 64.018C36.9675 64.0553 36.9933 64.1416 36.9559 64.2106L35.3414 67.2007C35.3158 67.2483 35.2668 67.2753 35.2163 67.2753Z" fill="#FFBB56"/>
<path d="M33.9214 69.6752C33.8986 69.6752 33.8754 69.6697 33.8539 69.6581C33.7849 69.6208 33.7591 69.5346 33.7964 69.4655L34.1813 68.7528C34.2186 68.6838 34.3048 68.658 34.3739 68.6953C34.4429 68.7326 34.4687 68.8188 34.4314 68.8879L34.0465 69.6006C34.0208 69.6481 33.9719 69.6752 33.9214 69.6752Z" fill="#FFBB56"/>
<path d="M33.8218 69.8598C33.7989 69.8598 33.7758 69.8543 33.7543 69.8427C33.6853 69.8054 33.6595 69.7191 33.6968 69.6501L33.7963 69.4658C33.8335 69.3967 33.9197 69.3709 33.9888 69.4082C34.0579 69.4455 34.0837 69.5317 34.0464 69.6008L33.9469 69.7851C33.9213 69.8327 33.8723 69.8598 33.8218 69.8598Z" fill="#FFBB56"/>
<path d="M32.6284 72.0687C32.6056 72.0687 32.5825 72.0632 32.5609 72.0516C32.4919 72.0143 32.4661 71.928 32.5034 71.859L33.6963 69.6498C33.7335 69.5807 33.8197 69.555 33.8888 69.5922C33.9579 69.6296 33.9837 69.7158 33.9464 69.7848L32.7536 71.994C32.7279 72.0416 32.6789 72.0687 32.6284 72.0687Z" fill="#FFBB56"/>
<path d="M32.0839 64.1444C32.0098 64.1444 31.9473 64.0869 31.9422 64.0118L31.8255 62.2864C31.8202 62.2081 31.8794 62.1403 31.9577 62.135C32.0348 62.1305 32.1038 62.1888 32.1091 62.2673L32.2258 63.9926C32.2311 64.071 32.1719 64.1387 32.0936 64.144C32.0904 64.1443 32.0871 64.1444 32.0839 64.1444Z" fill="#FFBB56"/>
<path d="M32.2828 67.103C32.2087 67.103 32.1462 67.0455 32.1412 66.9705L32.0628 65.8123C32.0575 65.734 32.1167 65.6662 32.195 65.6609C32.2723 65.6566 32.3411 65.7148 32.3464 65.7931L32.4248 66.9513C32.43 67.0296 32.3709 67.0974 32.2925 67.1027C32.2893 67.1029 32.2861 67.103 32.2828 67.103Z" fill="#FFBB56"/>
<path d="M32.6191 72.0668C32.545 72.0668 32.4825 72.0093 32.4775 71.9342L32.2249 68.2024C32.2197 68.1241 32.2788 68.0563 32.3572 68.051C32.435 68.0464 32.5033 68.1049 32.5086 68.1832L32.7611 71.915C32.7663 71.9934 32.7072 72.0611 32.6289 72.0664C32.6256 72.0667 32.6223 72.0668 32.6191 72.0668Z" fill="#FFBB56"/>
<path d="M25.5437 68.6116C25.5227 68.6116 25.5013 68.6069 25.4812 68.597L23.521 67.6355C23.4505 67.6009 23.4214 67.5158 23.456 67.4453C23.4906 67.3748 23.5757 67.3457 23.6461 67.3803L25.6064 68.3418C25.6769 68.3764 25.706 68.4615 25.6714 68.532C25.6467 68.5824 25.5962 68.6116 25.5437 68.6116Z" fill="#FFBB56"/>
<path d="M27.5234 69.5831C27.5024 69.5831 27.4811 69.5784 27.461 69.5685L26.7534 69.2215C26.6829 69.1869 26.6538 69.1018 26.6884 69.0313C26.723 68.9607 26.8081 68.9316 26.8786 68.9663L27.5861 69.3133C27.6566 69.3479 27.6857 69.433 27.6511 69.5035C27.6264 69.5539 27.5759 69.5831 27.5234 69.5831Z" fill="#FFBB56"/>
<path d="M29.3464 70.4772C29.3254 70.4772 29.3041 70.4725 29.284 70.4626L27.4614 69.5686C27.3909 69.534 27.3618 69.4489 27.3964 69.3784C27.431 69.3079 27.5162 69.2788 27.5866 69.3134L29.4091 70.2074C29.4797 70.242 29.5087 70.3271 29.4742 70.3976C29.4494 70.4479 29.399 70.4772 29.3464 70.4772Z" fill="#FFBB56"/>
<path d="M32.6063 72.076C32.5853 72.076 32.5639 72.0713 32.5438 72.0615L29.9175 70.7732C29.847 70.7386 29.8179 70.6535 29.8525 70.583C29.887 70.5125 29.9722 70.4834 30.0426 70.518L32.669 71.8063C32.7395 71.8409 32.7686 71.926 32.734 71.9964C32.7093 72.0468 32.6588 72.076 32.6063 72.076Z" fill="#FFBB56"/>
<path d="M21.9919 79.2176C21.9461 79.2176 21.9012 79.1955 21.8737 79.1546C21.83 79.0895 21.8473 79.0012 21.9126 78.9574L24.0902 77.4958C24.1553 77.4521 24.2436 77.4694 24.2874 77.5346C24.3312 77.5997 24.3138 77.688 24.2486 77.7318L22.071 79.1935C22.0466 79.2097 22.0191 79.2176 21.9919 79.2176Z" fill="#FFBB56"/>
<path d="M24.1696 77.7558C24.1238 77.7558 24.0789 77.7338 24.0515 77.6929C24.0078 77.6277 24.0251 77.5394 24.0903 77.4957L24.9442 76.9225C25.0093 76.8789 25.0976 76.8961 25.1414 76.9614C25.1851 77.0265 25.1678 77.1148 25.1025 77.1586L24.2487 77.7317C24.2243 77.748 24.1968 77.7558 24.1696 77.7558Z" fill="#FFBB56"/>
<path d="M26.0808 76.4729C26.035 76.4729 25.9901 76.4508 25.9626 76.41C25.9189 76.3448 25.9362 76.2565 26.0015 76.2128L26.5502 75.8444C26.6153 75.8008 26.7036 75.818 26.7474 75.8832C26.7911 75.9484 26.7738 76.0367 26.7085 76.0805L26.1598 76.4488C26.1355 76.4651 26.108 76.4729 26.0808 76.4729Z" fill="#FFBB56"/>
<path d="M26.6296 76.1049C26.5838 76.1049 26.5389 76.0828 26.5115 76.0419C26.4677 75.9768 26.4851 75.8885 26.5503 75.8447L28.4603 74.5627C28.5254 74.519 28.6137 74.5363 28.6575 74.6015C28.7012 74.6667 28.6839 74.755 28.6186 74.7987L26.7087 76.0808C26.6844 76.0971 26.6568 76.1049 26.6296 76.1049Z" fill="#FFBB56"/>
<path d="M30.0456 73.8117C29.9998 73.8117 29.9549 73.7896 29.9274 73.7487C29.8837 73.6836 29.901 73.5953 29.9663 73.5515L31.1434 72.7614C31.2085 72.7177 31.2968 72.735 31.3406 72.8003C31.3843 72.8654 31.367 72.9538 31.3017 72.9975L30.1247 73.7876C30.1004 73.8038 30.0729 73.8117 30.0456 73.8117Z" fill="#FFBB56"/>
<path d="M31.2233 73.0216C31.1775 73.0216 31.1326 72.9995 31.1052 72.9587C31.0615 72.8935 31.0788 72.8052 31.144 72.7615L32.5284 71.8322C32.5936 71.7885 32.6818 71.8058 32.7256 71.8711C32.7693 71.9362 32.752 72.0246 32.6868 72.0683L31.3024 72.9975C31.2781 73.0138 31.2505 73.0216 31.2233 73.0216Z" fill="#FFBB56"/>
<path d="M33.3595 83.2355C33.2854 83.2355 33.2229 83.1781 33.2178 83.103L33.1009 81.3753C33.0956 81.297 33.1548 81.2292 33.2331 81.2239C33.3104 81.2193 33.3792 81.2777 33.3845 81.3561L33.5014 83.0838C33.5067 83.1621 33.4475 83.2299 33.3692 83.2352C33.366 83.2354 33.3627 83.2355 33.3595 83.2355Z" fill="#FFBB56"/>
<path d="M33.1074 79.5221C33.0333 79.5221 32.9708 79.4646 32.9658 79.3895L32.722 75.7864C32.7167 75.7081 32.7759 75.6403 32.8542 75.635C32.9312 75.6307 33.0003 75.6889 33.0056 75.7672L33.2494 79.3704C33.2547 79.4487 33.1955 79.5165 33.1172 79.5218C33.1139 79.522 33.1107 79.5221 33.1074 79.5221Z" fill="#FFBB56"/>
<path d="M32.7819 74.4708C32.7078 74.4708 32.6453 74.4133 32.6402 74.3382L32.4798 71.9671C32.4746 71.8888 32.5337 71.821 32.6121 71.8157C32.6899 71.8114 32.7582 71.8695 32.7635 71.9479L32.9239 74.3191C32.9291 74.3974 32.87 74.4652 32.7917 74.4705C32.7883 74.4707 32.7851 74.4708 32.7819 74.4708Z" fill="#FFBB56"/>
<path d="M44.1127 77.7205C44.0917 77.7205 44.0703 77.7159 44.0502 77.706L41.2905 76.3523C41.22 76.3177 41.1909 76.2326 41.2255 76.1621C41.2601 76.0916 41.3453 76.0625 41.4157 76.0971L44.1754 77.4508C44.2458 77.4854 44.275 77.5705 44.2404 77.641C44.2157 77.6913 44.1652 77.7205 44.1127 77.7205Z" fill="#FFBB56"/>
<path d="M41.3533 76.367C41.3323 76.367 41.311 76.3623 41.2909 76.3525L40.6225 76.0247C40.5521 75.9901 40.523 75.905 40.5575 75.8345C40.5921 75.7639 40.6772 75.7349 40.7477 75.7695L41.416 76.0973C41.4865 76.1319 41.5156 76.217 41.4811 76.2875C41.4564 76.3378 41.4059 76.367 41.3533 76.367Z" fill="#FFBB56"/>
<path d="M38.333 74.8846C38.3119 74.8846 38.2907 74.8799 38.2705 74.87L37.5395 74.5115C37.4691 74.4769 37.4399 74.3918 37.4745 74.3213C37.5091 74.2508 37.5942 74.2217 37.6647 74.2563L38.3957 74.6148C38.4661 74.6494 38.4953 74.7345 38.4607 74.805C38.436 74.8554 38.3855 74.8846 38.333 74.8846Z" fill="#FFBB56"/>
<path d="M37.6012 74.5266C37.5801 74.5266 37.5588 74.5219 37.5387 74.512L35.8882 73.7024C35.8177 73.6678 35.7886 73.5827 35.8232 73.5122C35.8577 73.4417 35.943 73.4126 36.0133 73.4472L37.6639 74.2568C37.7343 74.2914 37.7635 74.3765 37.7289 74.447C37.7042 74.4973 37.6537 74.5266 37.6012 74.5266Z" fill="#FFBB56"/>
<path d="M35.0729 73.2862C35.0519 73.2862 35.0305 73.2816 35.0104 73.2717L32.5727 72.0759C32.5023 72.0413 32.4731 71.9562 32.5077 71.8857C32.5423 71.8152 32.6275 71.7861 32.6979 71.8207L35.1356 73.0165C35.2061 73.0511 35.2352 73.1362 35.2006 73.2067C35.176 73.257 35.1255 73.2862 35.0729 73.2862Z" fill="#FFBB56"/>
<path d="M39.2106 67.6595C39.1648 67.6595 39.1199 67.6374 39.0925 67.5965C39.0488 67.5314 39.0661 67.443 39.1313 67.3993L40.4934 66.4851C40.5586 66.4413 40.6468 66.4587 40.6906 66.5239C40.7344 66.5891 40.717 66.6774 40.6518 66.7211L39.2897 67.6354C39.2654 67.6517 39.2379 67.6595 39.2106 67.6595Z" fill="#FFBB56"/>
<path d="M36.1413 69.7198C36.0955 69.7198 36.0506 69.6978 36.0231 69.6569C35.9794 69.5917 35.9968 69.5034 36.062 69.4597L37.5271 68.4763C37.5923 68.4326 37.6806 68.4499 37.7244 68.5151C37.7681 68.5803 37.7507 68.6686 37.6855 68.7123L36.2203 69.6957C36.196 69.712 36.1685 69.7198 36.1413 69.7198Z" fill="#FFBB56"/>
<path d="M34.9841 70.4973C34.9383 70.4973 34.8934 70.4752 34.8659 70.4344C34.8222 70.3692 34.8395 70.2809 34.9048 70.2371L35.2717 69.9909C35.3369 69.9472 35.4251 69.9645 35.4689 70.0298C35.5127 70.0949 35.4953 70.1833 35.4301 70.227L35.0632 70.4732C35.0388 70.4895 35.0113 70.4973 34.9841 70.4973Z" fill="#FFBB56"/>
<path d="M32.6345 72.0741C32.5887 72.0741 32.5438 72.052 32.5163 72.0111C32.4726 71.946 32.4899 71.8577 32.5552 71.8139L34.9044 70.237C34.9696 70.1933 35.0578 70.2106 35.1016 70.2758C35.1453 70.341 35.128 70.4293 35.0628 70.4731L32.7135 72.05C32.6892 72.0662 32.6618 72.0741 32.6345 72.0741Z" fill="#FFBB56"/>
<path d="M74.8584 17.0883C74.8558 17.0883 74.8531 17.0882 74.8505 17.0881L70.8873 16.8714C70.809 16.8671 70.7489 16.8001 70.7531 16.7217C70.7574 16.6434 70.8238 16.5841 70.9029 16.5875L74.866 16.8042C74.9444 16.8085 75.0045 16.8755 75.0002 16.9539C74.996 17.0296 74.9333 17.0883 74.8584 17.0883Z" fill="#774DFD"/>
<path d="M68.2193 16.7254C68.2167 16.7254 68.2141 16.7253 68.2115 16.7252L67.1168 16.6654C67.0385 16.6611 66.9784 16.594 66.9826 16.5156C66.9869 16.4373 67.0533 16.3778 67.1324 16.3815L68.227 16.4413C68.3053 16.4456 68.3654 16.5127 68.3612 16.5911C68.357 16.6667 68.2943 16.7254 68.2193 16.7254Z" fill="#774DFD"/>
<path d="M67.1237 16.6655C67.1211 16.6655 67.1184 16.6654 67.1158 16.6652L64.1969 16.5057C64.1185 16.5014 64.0585 16.4344 64.0627 16.356C64.0671 16.2776 64.1329 16.2179 64.2124 16.2219L67.1314 16.3814C67.2097 16.3857 67.2698 16.4527 67.2655 16.5311C67.2614 16.6068 67.1987 16.6655 67.1237 16.6655Z" fill="#774DFD"/>
<path d="M63.2331 16.4529C63.2305 16.4529 63.2279 16.4529 63.2252 16.4527L58.9586 16.2196C58.8802 16.2153 58.8201 16.1483 58.8244 16.0699C58.8287 15.9915 58.8949 15.9319 58.9742 15.9357L63.2408 16.1689C63.3192 16.1732 63.3793 16.2402 63.375 16.3186C63.3707 16.3943 63.308 16.4529 63.2331 16.4529Z" fill="#774DFD"/>
<path d="M65.6303 5.97669C65.6036 5.97669 65.5767 5.96923 65.5527 5.95354C65.487 5.91062 65.4685 5.82256 65.5114 5.75686L67.5367 2.65337C67.5796 2.58756 67.6676 2.56909 67.7334 2.61202C67.7991 2.65494 67.8177 2.743 67.7747 2.8087L65.7494 5.91219C65.7222 5.95396 65.6767 5.97669 65.6303 5.97669Z" fill="#774DFD"/>
<path d="M64.6215 7.51986C64.5948 7.51986 64.5679 7.51241 64.5439 7.49677C64.4782 7.45385 64.4597 7.36579 64.5026 7.30009L65.51 5.7564C65.5529 5.69059 65.6409 5.67212 65.7067 5.71504C65.7724 5.75797 65.791 5.84603 65.748 5.91173L64.7406 7.45542C64.7134 7.49714 64.6679 7.51986 64.6215 7.51986Z" fill="#774DFD"/>
<path d="M62.3949 10.9326C62.3683 10.9326 62.3414 10.9251 62.3174 10.9095C62.2517 10.8666 62.2331 10.7785 62.2761 10.7128L63.0334 9.55227C63.0763 9.48651 63.1643 9.46799 63.2301 9.51097C63.2958 9.55384 63.3143 9.6419 63.2714 9.70766L62.5141 10.8682C62.4868 10.9099 62.4413 10.9326 62.3949 10.9326Z" fill="#774DFD"/>
<path d="M58.9555 16.2018C58.9288 16.2018 58.9019 16.1943 58.8779 16.1786C58.8122 16.1358 58.7937 16.0477 58.8366 15.9819L60.4687 13.481C60.5116 13.4152 60.5996 13.3967 60.6654 13.4397C60.7311 13.4826 60.7496 13.5706 60.7067 13.6364L59.0746 16.1373C59.0474 16.1791 59.0019 16.2018 58.9555 16.2018Z" fill="#774DFD"/>
<path d="M53.0147 4.5131C52.9628 4.5131 52.9128 4.4846 52.8878 4.43517L51.616 1.92515C51.5805 1.85514 51.6085 1.7696 51.6785 1.73413C51.7484 1.69865 51.834 1.72663 51.8695 1.79668L53.1413 4.3067C53.1768 4.37676 53.1488 4.46224 53.0788 4.49772C53.0582 4.50811 53.0363 4.5131 53.0147 4.5131Z" fill="#774DFD"/>
<path d="M53.893 6.24542C53.8411 6.24542 53.7911 6.21692 53.7661 6.16749L52.8884 4.4354C52.853 4.3654 52.8809 4.27986 52.951 4.24438C53.0209 4.20891 53.1065 4.23688 53.142 4.30694L54.0196 6.03902C54.0551 6.10903 54.0271 6.19457 53.9571 6.23004C53.9365 6.24043 53.9146 6.24542 53.893 6.24542Z" fill="#774DFD"/>
<path d="M55.8873 10.1836C55.8354 10.1836 55.7854 10.1552 55.7604 10.1057L54.4939 7.6063C54.4584 7.5363 54.4864 7.45076 54.5564 7.41528C54.6263 7.37981 54.712 7.40778 54.7475 7.47784L56.014 9.97725C56.0494 10.0473 56.0215 10.1328 55.9514 10.1683C55.9308 10.1787 55.9089 10.1836 55.8873 10.1836Z" fill="#774DFD"/>
<path d="M56.3341 11.0634C56.2822 11.0634 56.2322 11.0349 56.2072 10.9854L55.7615 10.1058C55.726 10.0357 55.754 9.95026 55.824 9.91478C55.8939 9.87931 55.9795 9.90733 56.015 9.97734L56.4607 10.857C56.4962 10.927 56.4682 11.0125 56.3982 11.048C56.3776 11.0584 56.3557 11.0634 56.3341 11.0634Z" fill="#774DFD"/>
<path d="M58.9369 16.2008C58.885 16.2008 58.835 16.1723 58.81 16.1228L57.2244 12.9935C57.1889 12.9235 57.2169 12.838 57.2869 12.8025C57.3568 12.767 57.4424 12.795 57.4779 12.8651L59.0636 15.9944C59.099 16.0644 59.0711 16.1499 59.001 16.1854C58.9804 16.1958 58.9585 16.2008 58.9369 16.2008Z" fill="#774DFD"/>
<path d="M46.3379 15.6313C46.3353 15.6313 46.3326 15.6312 46.33 15.6311L45.0543 15.5614C44.976 15.5571 44.9159 15.4901 44.9201 15.4117C44.9244 15.3333 44.9905 15.2736 45.0699 15.2775L46.3455 15.3473C46.4239 15.3516 46.484 15.4186 46.4797 15.497C46.4755 15.5727 46.4128 15.6313 46.3379 15.6313Z" fill="#774DFD"/>
<path d="M51.9639 15.8371C51.9613 15.8371 51.9587 15.8371 51.9561 15.8369L47.7633 15.6078C47.685 15.6035 47.6249 15.5365 47.6291 15.4581C47.6334 15.3797 47.6997 15.3203 47.7788 15.3239L51.9716 15.553C52.05 15.5573 52.11 15.6243 52.1058 15.7027C52.1016 15.7784 52.0389 15.8371 51.9639 15.8371Z" fill="#774DFD"/>
<path d="M58.9253 16.2177C58.9227 16.2177 58.9201 16.2177 58.9174 16.2175L53.3375 15.9125C53.2592 15.9082 53.1991 15.8412 53.2033 15.7628C53.2076 15.6844 53.2741 15.6247 53.3531 15.6286L58.933 15.9336C59.0113 15.9379 59.0714 16.0049 59.0671 16.0833C59.063 16.1591 59.0003 16.2177 58.9253 16.2177Z" fill="#774DFD"/>
<path d="M50.2358 29.5641C50.2091 29.5641 50.1822 29.5566 50.1582 29.541C50.0925 29.4981 50.074 29.4101 50.1169 29.3443L52.097 26.3101C52.1399 26.2444 52.2279 26.2258 52.2937 26.2688C52.3594 26.3117 52.378 26.3997 52.3351 26.4655L50.3549 29.4997C50.3276 29.5414 50.2822 29.5641 50.2358 29.5641Z" fill="#774DFD"/>
<path d="M52.8725 25.5241C52.8458 25.5241 52.8189 25.5167 52.7949 25.501C52.7292 25.4581 52.7107 25.3701 52.7536 25.3043L54.9769 21.8975C55.0198 21.8317 55.1078 21.8132 55.1736 21.8561C55.2393 21.899 55.2578 21.9871 55.2149 22.0528L52.9916 25.4596C52.9644 25.5015 52.9189 25.5241 52.8725 25.5241Z" fill="#774DFD"/>
<path d="M55.4428 21.5865C55.4161 21.5865 55.3892 21.5791 55.3652 21.5634C55.2995 21.5206 55.281 21.4325 55.3239 21.3667L57.153 18.564C57.1959 18.4983 57.2839 18.4797 57.3497 18.5227C57.4154 18.5656 57.434 18.6536 57.391 18.7194L55.562 21.5221C55.5347 21.5639 55.4892 21.5865 55.4428 21.5865Z" fill="#774DFD"/>
<path d="M57.2719 18.7839C57.2452 18.7839 57.2183 18.7764 57.1943 18.7607C57.1286 18.7179 57.1101 18.6298 57.153 18.5641L57.6154 17.8555C57.6583 17.7897 57.7463 17.7712 57.8121 17.8142C57.8778 17.8571 57.8963 17.9451 57.8534 18.0109L57.391 18.7194C57.3638 18.7612 57.3183 18.7839 57.2719 18.7839Z" fill="#774DFD"/>
<path d="M57.7338 18.075C57.7071 18.075 57.6802 18.0676 57.6562 18.0519C57.5905 18.009 57.572 17.921 57.6149 17.8552L58.8154 16.0157C58.8583 15.9499 58.9463 15.9314 59.0121 15.9744C59.0778 16.0172 59.0963 16.1053 59.0534 16.171L57.8529 18.0106C57.8257 18.0524 57.7802 18.075 57.7338 18.075Z" fill="#774DFD"/>
<path d="M63.9333 26.0599C63.8815 26.0599 63.8315 26.0314 63.8064 25.982L61.8943 22.2084C61.8588 22.1383 61.8868 22.0528 61.9568 22.0173C62.0267 21.9819 62.1123 22.0098 62.1479 22.0799L64.06 25.8535C64.0955 25.9235 64.0675 26.0091 63.9974 26.0445C63.9769 26.055 63.9549 26.0599 63.9333 26.0599Z" fill="#774DFD"/>
<path d="M60.9418 20.157C60.89 20.157 60.84 20.1285 60.815 20.0791L60.3591 19.1795C60.3237 19.1095 60.3516 19.024 60.4217 18.9885C60.4916 18.953 60.5772 18.9811 60.6127 19.0511L61.0685 19.9506C61.104 20.0206 61.076 20.1061 61.006 20.1416C60.9854 20.152 60.9635 20.157 60.9418 20.157Z" fill="#774DFD"/>
<path d="M60.4857 19.2571C60.4338 19.2571 60.3838 19.2286 60.3588 19.1792L60.241 18.9466C60.2055 18.8766 60.2335 18.7911 60.3035 18.7556C60.3735 18.7201 60.4591 18.7481 60.4945 18.8182L60.6124 19.0507C60.6478 19.1208 60.6198 19.2062 60.5498 19.2417C60.5292 19.2521 60.5073 19.2571 60.4857 19.2571Z" fill="#774DFD"/>
<path d="M60.3685 19.0246C60.3167 19.0246 60.2666 18.9961 60.2416 18.9466L58.8289 16.1585C58.7934 16.0885 58.8214 16.003 58.8914 15.9675C58.9613 15.932 59.047 15.9601 59.0824 16.0301L60.4952 18.8182C60.5307 18.8882 60.5027 18.9737 60.4326 19.0092C60.4121 19.0196 60.3901 19.0246 60.3685 19.0246Z" fill="#774DFD"/>
<path d="M69.2943 22.4096C69.2694 22.4096 69.2443 22.4031 69.2214 22.3894L67.3739 21.2841C67.3065 21.2438 67.2846 21.1566 67.3249 21.0892C67.3652 21.0218 67.4525 21 67.5198 21.0402L69.3674 22.1454C69.4347 22.1858 69.4567 22.273 69.4164 22.3404C69.3897 22.3849 69.3426 22.4096 69.2943 22.4096Z" fill="#774DFD"/>
<path d="M65.518 20.1508C65.4931 20.1508 65.468 20.1442 65.4452 20.1306L64.2049 19.3886C64.1376 19.3483 64.1156 19.261 64.1559 19.1937C64.1963 19.1263 64.2837 19.1045 64.3509 19.1446L65.5911 19.8866C65.6585 19.927 65.6804 20.0142 65.6401 20.0816C65.6134 20.1261 65.5663 20.1508 65.518 20.1508Z" fill="#774DFD"/>
<path d="M62.9583 18.6197C62.9334 18.6197 62.9083 18.6132 62.8854 18.5995L58.8895 16.2089C58.8221 16.1686 58.8002 16.0814 58.8405 16.014C58.8809 15.9466 58.9682 15.9248 59.0354 15.965L63.0314 18.3555C63.0988 18.3958 63.1207 18.4831 63.0804 18.5505C63.0537 18.595 63.0067 18.6197 62.9583 18.6197Z" fill="#774DFD"/>
<path d="M67.5202 11.4441C67.4703 11.4441 67.4219 11.4177 67.3959 11.3711C67.3577 11.3025 67.3824 11.216 67.4509 11.1777L69.8258 9.85541C69.8945 9.81715 69.9809 9.84187 70.0191 9.91041C70.0573 9.979 70.0327 10.0655 69.9641 10.1037L67.5892 11.4261C67.5673 11.4382 67.5436 11.4441 67.5202 11.4441Z" fill="#774DFD"/>
<path d="M65.1208 12.7807C65.0709 12.7807 65.0225 12.7543 64.9965 12.7077C64.9583 12.6391 64.9829 12.5526 65.0515 12.5143L65.9087 12.0371C65.9773 11.9988 66.0639 12.0235 66.102 12.0921C66.1402 12.1606 66.1155 12.2472 66.047 12.2854L65.1898 12.7627C65.168 12.7748 65.1442 12.7807 65.1208 12.7807Z" fill="#774DFD"/>
<path d="M62.9118 14.0099C62.8619 14.0099 62.8135 13.9835 62.7875 13.9369C62.7493 13.8683 62.774 13.7818 62.8425 13.7436L65.0505 12.5141C65.1193 12.4758 65.2057 12.5006 65.2438 12.5691C65.2821 12.6377 65.2574 12.7242 65.1889 12.7624L62.9808 13.9919C62.9589 14.0041 62.9352 14.0099 62.9118 14.0099Z" fill="#774DFD"/>
<path d="M58.9645 16.2088C58.9146 16.2088 58.8662 16.1825 58.8402 16.1358C58.802 16.0672 58.8267 15.9807 58.8953 15.9425L62.0771 14.1708C62.1457 14.1326 62.2323 14.1573 62.2704 14.2258C62.3086 14.2944 62.284 14.381 62.2154 14.4192L59.0336 16.1908C59.0117 16.203 58.9879 16.2088 58.9645 16.2088Z" fill="#774DFD"/>
<path d="M59.1432 3.54893C59.1424 3.54893 59.1416 3.54893 59.1409 3.54893C59.0624 3.54773 58.9998 3.48313 59.001 3.40462L59.0517 0.13997C59.0529 0.0614627 59.118 -0.00229795 59.1961 6.35502e-05C59.2746 0.00127054 59.3372 0.0658708 59.336 0.144378L59.2853 3.40903C59.284 3.48675 59.2207 3.54893 59.1432 3.54893Z" fill="#774DFD"/>
<path d="M59.1226 4.8291C59.1219 4.8291 59.1211 4.8291 59.1204 4.8291C59.0419 4.8279 58.9793 4.7633 58.9805 4.68479L59.0004 3.40459C59.0016 3.32609 59.0675 3.26285 59.1447 3.26469C59.2232 3.26589 59.2859 3.33049 59.2846 3.409L59.2648 4.6892C59.2635 4.76692 59.2001 4.8291 59.1226 4.8291Z" fill="#774DFD"/>
<path d="M59.0855 7.2363C59.0848 7.2363 59.084 7.2363 59.0833 7.2363C59.0048 7.23509 58.9422 7.17049 58.9434 7.09199L58.9561 6.26934C58.9574 6.19084 59.0229 6.1275 59.1005 6.12944C59.179 6.13065 59.2416 6.19525 59.2404 6.27375L59.2277 7.0964C59.2264 7.17412 59.1631 7.2363 59.0855 7.2363Z" fill="#774DFD"/>
<path d="M59.0406 10.0999C59.0399 10.0999 59.0391 10.0999 59.0384 10.0999C58.9599 10.0987 58.8972 10.0341 58.8985 9.95556L58.943 7.09211C58.9442 7.01433 59.0076 6.95215 59.0851 6.95215C59.0858 6.95215 59.0866 6.95215 59.0873 6.95215C59.1658 6.95336 59.2284 7.01796 59.2272 7.09646L59.1827 9.95997C59.1815 10.0377 59.1181 10.0999 59.0406 10.0999Z" fill="#774DFD"/>
<path d="M58.9781 14.1227C58.9774 14.1227 58.9766 14.1227 58.9759 14.1227C58.8974 14.1215 58.8347 14.0569 58.836 13.9783L58.8633 12.2137C58.8646 12.1352 58.9278 12.0716 59.0077 12.0738C59.0862 12.075 59.1488 12.1396 59.1476 12.2182L59.1202 13.9828C59.119 14.0605 59.0556 14.1227 58.9781 14.1227Z" fill="#774DFD"/>
<path d="M58.9469 16.1981C58.9461 16.1981 58.9453 16.1981 58.9446 16.1981C58.8661 16.1969 58.8035 16.1322 58.8047 16.0537L58.837 13.9783C58.8382 13.8998 58.9038 13.8386 58.9813 13.8384C59.0598 13.8396 59.1225 13.9042 59.1213 13.9827L59.089 16.0582C59.0877 16.1359 59.0243 16.1981 58.9469 16.1981Z" fill="#774DFD"/>
<path d="M48.866 10.165C48.8411 10.165 48.816 10.1584 48.7932 10.1448L46.9432 9.03801C46.8758 8.99766 46.8539 8.91044 46.8942 8.84306C46.9345 8.77567 47.0219 8.75389 47.0892 8.79404L48.9391 9.9008C49.0065 9.94115 49.0284 10.0284 48.9881 10.0958C48.9615 10.1403 48.9143 10.165 48.866 10.165Z" fill="#774DFD"/>
<path d="M54.8498 13.7453C54.8249 13.7453 54.7998 13.7387 54.7769 13.7251L50.9188 11.4169C50.8514 11.3766 50.8295 11.2893 50.8698 11.222C50.9101 11.1546 50.9975 11.1328 51.0647 11.1729L54.9229 13.4811C54.9903 13.5214 55.0122 13.6087 54.9719 13.676C54.9452 13.7205 54.8981 13.7453 54.8498 13.7453Z" fill="#774DFD"/>
<path d="M58.9281 16.2086C58.9032 16.2086 58.8781 16.202 58.8553 16.1884L56.3163 14.6694C56.2489 14.6291 56.227 14.5418 56.2673 14.4744C56.3076 14.407 56.3949 14.3852 56.4622 14.4254L59.0012 15.9444C59.0686 15.9847 59.0905 16.072 59.0502 16.1393C59.0235 16.1838 58.9764 16.2086 58.9281 16.2086Z" fill="#774DFD"/>
<path d="M45.0231 23.9712C44.9732 23.9712 44.9248 23.9448 44.8988 23.8982C44.8606 23.8296 44.8853 23.7431 44.9538 23.7049L48.2972 21.8432C48.3657 21.8049 48.4523 21.8297 48.4905 21.8982C48.5287 21.9668 48.5041 22.0533 48.4355 22.0915L45.0921 23.9532C45.0703 23.9654 45.0465 23.9712 45.0231 23.9712Z" fill="#774DFD"/>
<path d="M48.3659 22.1097C48.316 22.1097 48.2676 22.0833 48.2416 22.0366C48.2034 21.9681 48.2281 21.8815 48.2967 21.8434L49.1064 21.3925C49.1748 21.3543 49.2615 21.3789 49.2997 21.4476C49.3379 21.5161 49.3132 21.6027 49.2446 21.6409L48.4349 22.0917C48.4131 22.1039 48.3893 22.1097 48.3659 22.1097Z" fill="#774DFD"/>
<path d="M52.027 20.0714C51.9771 20.0714 51.9287 20.045 51.9028 19.9984C51.8645 19.9298 51.8892 19.8432 51.9577 19.805L52.8433 19.312C52.9121 19.2737 52.9984 19.2984 53.0366 19.367C53.0748 19.4355 53.0502 19.5221 52.9816 19.5603L52.0961 20.0534C52.0741 20.0656 52.0504 20.0714 52.027 20.0714Z" fill="#774DFD"/>
<path d="M52.9118 19.5784C52.8619 19.5784 52.8135 19.5521 52.7875 19.5054C52.7493 19.4368 52.774 19.3503 52.8425 19.3121L54.8421 18.1986C54.9107 18.1604 54.9972 18.1851 55.0354 18.2536C55.0736 18.3222 55.049 18.4088 54.9804 18.447L52.9808 19.5604C52.9589 19.5726 52.9351 19.5784 52.9118 19.5784Z" fill="#774DFD"/>
<path d="M55.9743 17.8731C55.9244 17.8731 55.876 17.8467 55.85 17.8001C55.8118 17.7315 55.8365 17.6449 55.905 17.6067L58.8583 15.9623C58.927 15.9241 59.0134 15.9488 59.0516 16.0173C59.0898 16.0859 59.0651 16.1725 58.9966 16.2107L56.0433 17.8551C56.0214 17.8673 55.9977 17.8731 55.9743 17.8731Z" fill="#774DFD"/>
<path d="M58.7594 28.1407C58.7586 28.1407 58.7578 28.1407 58.7571 28.1407C58.6787 28.1395 58.616 28.0749 58.6172 27.9964L58.6489 25.9544C58.6501 25.8766 58.7136 25.8145 58.791 25.8145C58.7917 25.8145 58.7925 25.8145 58.7933 25.8145C58.8717 25.8157 58.9344 25.8803 58.9332 25.9588L58.9014 28.0008C58.9002 28.0786 58.8368 28.1407 58.7594 28.1407Z" fill="#774DFD"/>
<path d="M58.8287 23.6942C58.828 23.6942 58.8272 23.6942 58.8264 23.6942C58.7479 23.693 58.6853 23.6283 58.6865 23.5498L58.7207 21.3533C58.7219 21.2756 58.7854 21.2134 58.8628 21.2134C58.8635 21.2134 58.8643 21.2134 58.8651 21.2134C58.9435 21.2146 59.0062 21.2792 59.005 21.3577L58.9708 23.5543C58.9696 23.632 58.9062 23.6942 58.8287 23.6942Z" fill="#774DFD"/>
<path d="M58.8814 20.3109C58.8807 20.3109 58.8799 20.3109 58.8792 20.3109C58.8007 20.3097 58.7381 20.2451 58.7393 20.1665L58.7478 19.6165C58.749 19.538 58.812 19.476 58.8921 19.4766C58.9706 19.4778 59.0333 19.5424 59.032 19.6209L59.0235 20.171C59.0223 20.2487 58.9589 20.3109 58.8814 20.3109Z" fill="#774DFD"/>
<path d="M58.8902 19.7609C58.8895 19.7609 58.8887 19.7609 58.888 19.7609C58.8095 19.7597 58.7469 19.695 58.7481 19.6165L58.8029 16.0945C58.8041 16.016 58.8697 15.9543 58.9472 15.9546C59.0257 15.9558 59.0883 16.0205 59.0871 16.099L59.0323 19.621C59.0311 19.6987 58.9676 19.7609 58.8902 19.7609Z" fill="#774DFD"/>
</svg>
