<svg width="26" height="26" viewBox="0 0 26 26" fill="none" xmlns="http://www.w3.org/2000/svg">
<path d="M4.90332 1.32308C5.10331 1.22063 5.37647 1.10842 5.51305 1.07426C5.71792 1.01572 7.25932 1.00596 14.6346 1.00108C22.2782 0.996203 23.5513 1.00596 23.7806 1.06938C23.9269 1.10842 24.2147 1.22063 24.4147 1.32308C24.6683 1.44993 24.883 1.60606 25.1269 1.84512C25.3903 2.10857 25.5171 2.28909 25.6683 2.60621C25.7805 2.83552 25.8927 3.138 25.9219 3.27949C25.9512 3.42098 25.9756 4.05522 25.9756 4.7285C25.9756 5.91405 25.9756 5.92381 25.8683 5.99699C25.8049 6.03602 25.7171 6.07018 25.6732 6.07018C25.6244 6.07018 25.5415 6.02627 25.4878 5.9726C25.3951 5.8799 25.3903 5.8116 25.3903 4.77729C25.3903 4.16744 25.3659 3.56734 25.3366 3.42586C25.3073 3.28437 25.2147 3.02579 25.1269 2.85503C25.0439 2.6794 24.8586 2.4257 24.7025 2.26957C24.5464 2.10857 24.3025 1.93294 24.1171 1.84512C23.9464 1.7573 23.6879 1.6646 23.5513 1.63533C23.366 1.5963 20.7612 1.58166 14.659 1.58166C8.44951 1.58166 5.95206 1.5963 5.77158 1.63533C5.63012 1.6646 5.37159 1.76218 5.20087 1.84512C5.02526 1.92806 4.77162 2.11345 4.61553 2.26957C4.45456 2.4257 4.27896 2.66964 4.18628 2.85503C4.10335 3.02579 4.01067 3.29901 3.98141 3.46001C3.94238 3.66004 3.92775 5.65548 3.92775 9.80247C3.92775 15.0862 3.93751 15.8912 4.0058 16.1693C4.04482 16.345 4.15213 16.6133 4.23505 16.7743C4.32286 16.9304 4.51309 17.1744 4.65943 17.3159C4.80576 17.4525 5.0399 17.6232 5.1716 17.6915C5.30818 17.7598 5.50329 17.8476 5.61061 17.8818C5.77157 17.9355 7.19591 17.955 20.6831 17.9989L21.0002 18.1501C21.2002 18.2477 21.5904 18.5356 22.0733 18.9405C22.4879 19.2918 23.4001 20.0578 25.3659 21.7166L25.3805 14.4666C25.3903 7.68019 25.4 7.21182 25.4781 7.13376C25.522 7.08497 25.6098 7.04106 25.6732 7.03618C25.7366 7.02642 25.8293 7.05082 25.8829 7.08497C25.9756 7.14352 25.9756 7.28012 25.9756 14.8179C25.9756 22.0142 25.9659 22.4923 25.8878 22.5752C25.8439 22.624 25.7512 22.663 25.6829 22.6582C25.5951 22.6582 25.1512 22.3166 24.1123 21.4385C23.2147 20.6871 22.6343 20.2334 22.6001 20.2529C22.566 20.2724 22.4684 20.3358 22.3904 20.3944C22.3123 20.4529 22.1563 20.5456 22.0489 20.5993C21.9416 20.653 21.7465 20.7359 21.6099 20.7847C21.3758 20.8725 21.0343 20.8774 6.48862 20.9262L6.22034 21.0579C6.04473 21.1409 5.16184 21.8483 3.68386 23.0924C1.99125 24.517 1.38639 25 1.29371 25C1.22542 25 1.13275 24.961 1.08397 24.9122C1.00592 24.8341 0.996166 24.6829 1.00104 22.707C1.00104 20.7652 1.0108 20.5749 1.08884 20.4968C1.13275 20.4481 1.21567 20.409 1.26932 20.4139C1.32298 20.4139 1.41078 20.4432 1.46444 20.4822C1.55712 20.5505 1.562 20.6237 1.61077 24.0584L3.61069 22.3801C4.71308 21.4531 5.69841 20.6481 5.80572 20.5847C5.91303 20.5212 6.13254 20.4334 6.2935 20.3895C6.55203 20.3261 7.42516 20.3163 13.7712 20.3163C18.8149 20.3163 21.0295 20.3017 21.2051 20.2627C21.3465 20.2334 21.6051 20.1407 21.7758 20.0529C21.9465 19.9699 22.1026 19.8821 22.127 19.8528C22.1514 19.8236 21.9416 19.6138 21.5855 19.3162C21.2685 19.0478 20.8978 18.7746 20.5368 18.5844L5.65938 18.5356L5.34232 18.4282C5.16672 18.3697 4.84966 18.2038 4.63992 18.0623C4.42529 17.9208 4.17164 17.711 4.07896 17.594C3.98141 17.4817 3.82044 17.2524 3.72288 17.0817C3.62045 16.9158 3.49362 16.6133 3.43997 16.4133C3.34729 16.0571 3.34241 15.8864 3.34241 10.0367C3.34241 4.33819 3.33753 4.02107 3.25461 4.02107C3.21071 4.02107 3.03023 4.09425 2.85462 4.18207C2.67902 4.26989 2.41562 4.45529 2.26928 4.60653C2.10344 4.77241 1.93759 4.99684 1.84491 5.19199C1.76199 5.36763 1.66931 5.6262 1.64004 5.76769C1.60102 5.94333 1.58638 7.99243 1.58638 12.6468C1.59126 18.9356 1.58638 19.2723 1.50346 19.3454C1.45468 19.3894 1.36688 19.4381 1.30347 19.4577C1.2303 19.4772 1.16689 19.4577 1.0986 19.3894C1.00104 19.2918 1.00104 19.2284 1.00104 12.5493C1.00104 6.58245 1.0108 5.76769 1.07909 5.50911C1.12299 5.34811 1.23518 5.06026 1.33274 4.87487C1.44493 4.6602 1.63516 4.4065 1.85467 4.18695C2.11807 3.91862 2.28879 3.79665 2.61073 3.64052C2.83999 3.53319 3.10827 3.42586 3.20583 3.40146C3.3668 3.36731 3.39119 3.34292 3.41558 3.19167C3.43509 3.09897 3.53752 2.83552 3.64483 2.60621C3.80093 2.28909 3.92775 2.10857 4.19115 1.84512C4.43505 1.60606 4.64967 1.44993 4.90332 1.32308Z" fill="#E59927" stroke="#C08328" stroke-width="0.0487785" stroke-linecap="round"/>
<path d="M2.27033 4.60694C2.41667 4.46058 2.68007 4.2703 2.85567 4.18249C3.03128 4.09467 3.21176 4.02148 3.25566 4.02148C3.33858 4.02148 3.34346 4.33861 3.34346 10.0322C3.34346 15.8868 3.34834 16.0575 3.44102 16.4137C3.49467 16.6137 3.6215 16.9162 3.72393 17.0821C3.82149 17.2528 3.98246 17.4822 4.08001 17.5944C4.17269 17.7115 4.42634 17.9212 4.64097 18.0627C4.85071 18.2042 5.16777 18.3701 5.66044 18.536L20.5379 18.5848L20.772 18.7067C20.8988 18.775 21.2695 19.0483 21.5866 19.3166C21.9427 19.6142 22.1524 19.824 22.128 19.8533C22.1037 19.8825 21.9476 19.9704 21.7768 20.0533C21.6061 20.1411 21.3476 20.2338 21.2061 20.2631C21.0305 20.3021 18.816 20.3167 13.7723 20.3167C7.42622 20.3167 6.55308 20.3265 6.29456 20.3899C6.13359 20.4338 5.91408 20.5217 5.80677 20.5851C5.69946 20.6485 4.71413 21.4535 1.61182 24.0588L1.58743 22.3073C1.56305 20.6241 1.55817 20.5509 1.46549 20.4826C1.41183 20.4436 1.3533 20.4143 1.32891 20.4143C1.3094 20.4143 1.28989 20.1948 1.28013 19.9264C1.27037 19.5215 1.28501 19.4386 1.34354 19.4386C1.38257 19.4386 1.45573 19.3995 1.50451 19.3507C1.58743 19.2727 1.59231 18.936 1.58743 12.6424C1.58743 7.99284 1.60207 5.94374 1.64109 5.7681C1.67036 5.62662 1.76304 5.36804 1.84596 5.1924C1.93864 4.99725 2.10449 4.77282 2.27033 4.60694Z" fill="#FCC87A" stroke="#C08328" stroke-width="0.0487785" stroke-linecap="round"/>
<path d="M5.17646 1.85518C5.33743 1.77712 5.57157 1.68442 5.70815 1.65027C5.89838 1.60148 7.91293 1.59172 14.62 1.58684C20.7661 1.58196 23.3659 1.5966 23.5513 1.63563C23.6879 1.6649 23.9464 1.7576 24.1171 1.84542C24.3025 1.93324 24.5464 2.10888 24.7025 2.26988C24.8586 2.426 25.0439 2.6797 25.1268 2.85534C25.2146 3.02609 25.3073 3.28467 25.3366 3.42616C25.3659 3.56764 25.3903 4.16774 25.3903 4.77759C25.3903 5.8119 25.3951 5.8802 25.4878 5.9729C25.5415 6.02657 25.6049 6.07048 25.6341 6.07048C25.6634 6.07048 25.6829 6.26563 25.6829 6.55836C25.6829 6.91939 25.6683 7.04624 25.6244 7.04624C25.5902 7.04136 25.522 7.08039 25.4781 7.12918C25.4 7.21212 25.3903 7.68537 25.3659 21.7169L24.0976 20.6484C23.4001 20.0581 22.4879 19.2921 22.0733 18.9408C21.5904 18.5359 21.2002 18.248 20.6831 17.9992L13.2444 17.9748C7.19589 17.9553 5.77156 17.9358 5.61059 17.8821C5.50328 17.848 5.30816 17.7601 5.17158 17.6918C5.03988 17.6235 4.80575 17.4528 4.65941 17.3162C4.51308 17.1747 4.32284 16.9307 4.23504 16.7746C4.15212 16.6136 4.0448 16.3453 4.00578 16.1696C3.93749 15.8915 3.92773 15.0865 3.92773 9.80278C3.92773 5.65578 3.94237 3.66034 3.98139 3.46031C4.01066 3.29931 4.10334 3.02609 4.18626 2.85534C4.27894 2.66994 4.45454 2.426 4.61551 2.26988C4.76672 2.11863 5.02037 1.93324 5.17646 1.85518Z" fill="#FFE4BD" stroke="#C08328" stroke-width="0.0487785" stroke-linecap="round"/>
<path d="M7.35633 9.21646C7.41487 9.10912 7.55144 8.9774 7.65876 8.91397C7.83924 8.81152 7.91728 8.80176 8.58555 8.80176C9.24893 8.80176 9.33674 8.81152 9.53673 8.90909C9.6977 8.99203 9.7855 9.07985 9.86842 9.24085C9.9611 9.436 9.97573 9.53358 9.97573 10.0703C9.97573 10.6069 9.9611 10.7045 9.86842 10.8997C9.7855 11.0607 9.6977 11.1485 9.53673 11.2314C9.33674 11.329 9.24893 11.3387 8.60994 11.3387C7.97094 11.3387 7.88314 11.329 7.68315 11.2314C7.53681 11.1582 7.4295 11.0558 7.35633 10.924C7.25877 10.7484 7.24414 10.6606 7.24414 10.0703C7.24414 9.47991 7.25877 9.3921 7.35633 9.21646Z" fill="#774DFD"/>
<path d="M13.4049 9.21646C13.4634 9.10912 13.6 8.9774 13.7073 8.91397C13.8878 8.81152 13.9658 8.80176 14.6341 8.80176C15.2975 8.80176 15.3853 8.81152 15.5853 8.90909C15.7462 8.99203 15.834 9.07985 15.9169 9.24085C16.0096 9.436 16.0243 9.53358 16.0243 10.0703C16.0243 10.6069 16.0096 10.7045 15.9169 10.8997C15.834 11.0607 15.7462 11.1485 15.5853 11.2314C15.3853 11.329 15.2975 11.3387 14.6585 11.3387C14.0195 11.3387 13.9317 11.329 13.7317 11.2314C13.5853 11.1582 13.478 11.0558 13.4049 10.924C13.3073 10.7484 13.2927 10.6606 13.2927 10.0703C13.2927 9.47991 13.3073 9.3921 13.4049 9.21646Z" fill="#774DFD"/>
<path d="M19.4534 9.21646C19.5119 9.10912 19.6485 8.9774 19.7558 8.91397C19.9363 8.81152 20.0143 8.80176 20.6826 8.80176C21.346 8.80176 21.4338 8.81152 21.6338 8.90909C21.7948 8.99203 21.8826 9.07985 21.9655 9.24085C22.0582 9.436 22.0728 9.53358 22.0728 10.0703C22.0728 10.6069 22.0582 10.7045 21.9655 10.8997C21.8826 11.0607 21.7948 11.1485 21.6338 11.2314C21.4338 11.329 21.346 11.3387 20.707 11.3387C20.068 11.3387 19.9802 11.329 19.7802 11.2314C19.6339 11.1582 19.5266 11.0558 19.4534 10.924C19.3558 10.7484 19.3412 10.6606 19.3412 10.0703C19.3412 9.47991 19.3558 9.3921 19.4534 9.21646Z" fill="#774DFD"/>
<path d="M7.35633 9.21646C7.41487 9.10912 7.55144 8.9774 7.65876 8.91397C7.83924 8.81152 7.91728 8.80176 8.58555 8.80176C9.24893 8.80176 9.33674 8.81152 9.53673 8.90909C9.6977 8.99203 9.7855 9.07985 9.86842 9.24085C9.9611 9.436 9.97573 9.53358 9.97573 10.0703C9.97573 10.6069 9.9611 10.7045 9.86842 10.8997C9.7855 11.0607 9.6977 11.1485 9.53673 11.2314C9.33674 11.329 9.24893 11.3387 8.60994 11.3387C7.97094 11.3387 7.88314 11.329 7.68315 11.2314C7.53681 11.1582 7.4295 11.0558 7.35633 10.924C7.25877 10.7484 7.24414 10.6606 7.24414 10.0703C7.24414 9.47991 7.25877 9.3921 7.35633 9.21646Z" stroke="#774DFD" stroke-width="0.0487785" stroke-linecap="round"/>
<path d="M13.4049 9.21646C13.4634 9.10912 13.6 8.9774 13.7073 8.91397C13.8878 8.81152 13.9658 8.80176 14.6341 8.80176C15.2975 8.80176 15.3853 8.81152 15.5853 8.90909C15.7462 8.99203 15.834 9.07985 15.9169 9.24085C16.0096 9.436 16.0243 9.53358 16.0243 10.0703C16.0243 10.6069 16.0096 10.7045 15.9169 10.8997C15.834 11.0607 15.7462 11.1485 15.5853 11.2314C15.3853 11.329 15.2975 11.3387 14.6585 11.3387C14.0195 11.3387 13.9317 11.329 13.7317 11.2314C13.5853 11.1582 13.478 11.0558 13.4049 10.924C13.3073 10.7484 13.2927 10.6606 13.2927 10.0703C13.2927 9.47991 13.3073 9.3921 13.4049 9.21646Z" stroke="#774DFD" stroke-width="0.0487785" stroke-linecap="round"/>
<path d="M19.4534 9.21646C19.5119 9.10912 19.6485 8.9774 19.7558 8.91397C19.9363 8.81152 20.0143 8.80176 20.6826 8.80176C21.346 8.80176 21.4338 8.81152 21.6338 8.90909C21.7948 8.99203 21.8826 9.07985 21.9655 9.24085C22.0582 9.436 22.0728 9.53358 22.0728 10.0703C22.0728 10.6069 22.0582 10.7045 21.9655 10.8997C21.8826 11.0607 21.7948 11.1485 21.6338 11.2314C21.4338 11.329 21.346 11.3387 20.707 11.3387C20.068 11.3387 19.9802 11.329 19.7802 11.2314C19.6339 11.1582 19.5266 11.0558 19.4534 10.924C19.3558 10.7484 19.3412 10.6606 19.3412 10.0703C19.3412 9.47991 19.3558 9.3921 19.4534 9.21646Z" stroke="#774DFD" stroke-width="0.0487785" stroke-linecap="round"/>
</svg>
