<svg viewBox="0 0 36 37" fill="none" xmlns="http://www.w3.org/2000/svg">
<path d="M0.289286 5.19986C0.289286 2.80334 2.23205 0.860575 4.62857 0.860575H31.3714C33.768 0.860575 35.7107 2.80334 35.7107 5.19986V31.9427C35.7107 34.3392 33.768 36.282 31.3714 36.282H4.62857C2.23205 36.282 0.289286 34.3392 0.289286 31.9427V5.19986Z" fill="#FFF1FD"/>
<path d="M0.289286 5.19986C0.289286 2.80334 2.23205 0.860575 4.62857 0.860575H31.3714C33.768 0.860575 35.7107 2.80334 35.7107 5.19986V31.9427C35.7107 34.3392 33.768 36.282 31.3714 36.282H4.62857C2.23205 36.282 0.289286 34.3392 0.289286 31.9427V5.19986Z" stroke="#FFB3F4" stroke-width="0.578571"/>
<path d="M25.9999 17.1425C25.9999 23.1425 18.2856 28.2854 18.2856 28.2854C18.2856 28.2854 10.5713 23.1425 10.5713 17.1425C10.5713 15.0966 11.384 13.1344 12.8308 11.6877C14.2775 10.241 16.2396 9.42822 18.2856 9.42822C20.3315 9.42822 22.2937 10.241 23.7404 11.6877C25.1871 13.1344 25.9999 15.0966 25.9999 17.1425Z" stroke="#E229C7" stroke-width="0.857143" stroke-linecap="round" stroke-linejoin="round"/>
<path d="M18.2853 19.7141C19.7055 19.7141 20.8567 18.5629 20.8567 17.1427C20.8567 15.7226 19.7055 14.5713 18.2853 14.5713C16.8651 14.5713 15.7139 15.7226 15.7139 17.1427C15.7139 18.5629 16.8651 19.7141 18.2853 19.7141Z" stroke="#E229C7" stroke-width="0.857143" stroke-linecap="round" stroke-linejoin="round"/>
</svg>
