<svg viewBox="0 0 36 37" fill="none" xmlns="http://www.w3.org/2000/svg">
<path d="M0.289286 5.19986C0.289286 2.80334 2.23205 0.860575 4.62857 0.860575H31.3714C33.768 0.860575 35.7107 2.80334 35.7107 5.19986V31.9427C35.7107 34.3392 33.768 36.282 31.3714 36.282H4.62857C2.23205 36.282 0.289286 34.3392 0.289286 31.9427V5.19986Z" fill="#FFF5EC"/>
<path d="M0.289286 5.19986C0.289286 2.80334 2.23205 0.860575 4.62857 0.860575H31.3714C33.768 0.860575 35.7107 2.80334 35.7107 5.19986V31.9427C35.7107 34.3392 33.768 36.282 31.3714 36.282H4.62857C2.23205 36.282 0.289286 34.3392 0.289286 31.9427V5.19986Z" stroke="#FFD6B1" stroke-width="0.578571"/>
<path d="M24.2856 12H12.2856C11.3388 12 10.5713 12.7675 10.5713 13.7143V25.7143C10.5713 26.6611 11.3388 27.4286 12.2856 27.4286H24.2856C25.2323 27.4286 25.9999 26.6611 25.9999 25.7143V13.7143C25.9999 12.7675 25.2323 12 24.2856 12Z" stroke="#C46914" stroke-width="0.857143" stroke-linecap="round" stroke-linejoin="round"/>
<path d="M21.7139 10.2856V13.7142" stroke="#C46914" stroke-width="0.857143" stroke-linecap="round" stroke-linejoin="round"/>
<path d="M14.8574 10.2856V13.7142" stroke="#C46914" stroke-width="0.857143" stroke-linecap="round" stroke-linejoin="round"/>
<path d="M10.5713 17.1426H25.9999" stroke="#C46914" stroke-width="0.857143" stroke-linecap="round" stroke-linejoin="round"/>
</svg>
