<svg width="20" height="20" viewBox="0 0 20 20" fill="none" xmlns="http://www.w3.org/2000/svg">
<path d="M3.53577 9.99898L0.0542156 1.0486C0.000913139 0.911959 -0.012204 0.762921 0.0164107 0.619065C0.0450254 0.47521 0.114179 0.342536 0.215716 0.236689C0.317254 0.130841 0.446941 0.0562343 0.589485 0.0216658C0.73203 -0.0129026 0.881486 -0.00599128 1.02023 0.0415849L1.1156 0.0815786L19.5745 9.31089C19.6936 9.37033 19.7951 9.45964 19.8693 9.57009C19.9435 9.68054 19.9878 9.80835 19.9978 9.94102C20.0078 10.0737 19.9833 10.2067 19.9265 10.327C19.8698 10.4474 19.7827 10.5509 19.674 10.6276L19.5745 10.6871L1.1156 19.9164C0.517739 20.2148 -0.132425 19.6651 0.0234508 19.0468L0.0542156 18.9494L3.53577 9.99898ZM2.21083 2.34891L4.88737 9.22987H11.6833C11.8692 9.22988 12.0488 9.29719 12.1888 9.41935C12.3289 9.54151 12.42 9.71025 12.4453 9.89438L12.4525 9.99898C12.4524 10.185 12.385 10.3647 12.2626 10.5048C12.1402 10.6449 11.9712 10.7359 11.7869 10.7609L11.6833 10.7681H4.88532L2.20981 17.649L17.5112 9.99898L2.21083 2.34891Z" fill="#350ABC"/>
</svg>
