<svg width="394" height="510" viewBox="0 0 394 510" fill="none" xmlns="http://www.w3.org/2000/svg">
<rect x="20" y="24" width="71" height="26" rx="13" fill="#E7F4FD"/>
<path d="M46.402 37.114C46.402 40.04 44.26 42.098 41.502 42.098C38.758 42.098 36.602 40.04 36.602 37.114C36.602 34.188 38.758 32.13 41.502 32.13C44.26 32.13 46.402 34.188 46.402 37.114ZM37.904 37.114C37.904 39.494 39.444 40.992 41.502 40.992C43.56 40.992 45.1 39.494 45.1 37.114C45.1 34.72 43.56 33.236 41.502 33.236C39.444 33.236 37.904 34.72 37.904 37.114ZM49.3579 35.742C49.8199 34.93 50.8279 34.202 52.2279 34.202C54.2859 34.202 55.8679 35.742 55.8679 38.136C55.8679 40.516 54.2859 42.126 52.2279 42.126C50.8279 42.126 49.8339 41.37 49.3579 40.586V45.64H48.0839V34.328H49.3579V35.742ZM54.5659 38.136C54.5659 36.33 53.3759 35.308 51.9619 35.308C50.5759 35.308 49.3579 36.372 49.3579 38.15C49.3579 39.956 50.5759 41.006 51.9619 41.006C53.3759 41.006 54.5659 39.942 54.5659 38.136ZM60.8068 35.28C59.5608 35.28 58.5248 36.106 58.3848 37.604H63.2288C63.2428 36.106 62.1228 35.28 60.8068 35.28ZM64.3908 39.634C63.9988 41.034 62.7668 42.126 60.8628 42.126C58.6788 42.126 57.0688 40.586 57.0688 38.15C57.0688 35.728 58.6228 34.202 60.8628 34.202C63.0888 34.202 64.5448 35.77 64.5448 37.87C64.5448 38.15 64.5308 38.374 64.5028 38.64H58.3708C58.4688 40.194 59.5608 41.048 60.8628 41.048C62.0108 41.048 62.7388 40.46 63.0188 39.634H64.3908ZM71.8404 42V37.66C71.8404 36.092 70.9864 35.294 69.6984 35.294C68.3964 35.294 67.5004 36.106 67.5004 37.758V42H66.2264V34.328H67.5004V35.42C68.0044 34.622 68.9284 34.188 69.9644 34.188C71.7424 34.188 73.1004 35.28 73.1004 37.478V42H71.8404Z" fill="#0076E6"/>
<path d="M113.402 37.114C113.402 40.04 111.26 42.098 108.502 42.098C105.758 42.098 103.602 40.04 103.602 37.114C103.602 34.188 105.758 32.13 108.502 32.13C111.26 32.13 113.402 34.188 113.402 37.114ZM104.904 37.114C104.904 39.494 106.444 40.992 108.502 40.992C110.56 40.992 112.1 39.494 112.1 37.114C112.1 34.72 110.56 33.236 108.502 33.236C106.444 33.236 104.904 34.72 104.904 37.114ZM115.322 42V35.378H114.328V34.328H115.322V33.782C115.322 32.074 116.162 31.304 118.122 31.304V32.368C116.974 32.368 116.596 32.788 116.596 33.782V34.328H118.206V35.378H116.596V42H115.322ZM119.929 42V35.378H118.935V34.328H119.929V33.782C119.929 32.074 120.769 31.304 122.729 31.304V32.368C121.581 32.368 121.203 32.788 121.203 33.782V34.328H122.813V35.378H121.203V42H119.929ZM127.561 35.28C126.315 35.28 125.279 36.106 125.139 37.604H129.983C129.997 36.106 128.877 35.28 127.561 35.28ZM131.145 39.634C130.753 41.034 129.521 42.126 127.617 42.126C125.433 42.126 123.823 40.586 123.823 38.15C123.823 35.728 125.377 34.202 127.617 34.202C129.843 34.202 131.299 35.77 131.299 37.87C131.299 38.15 131.285 38.374 131.257 38.64H125.125C125.223 40.194 126.315 41.048 127.617 41.048C128.765 41.048 129.493 40.46 129.773 39.634H131.145ZM134.254 37.828V42H132.98V34.328H134.254V35.574C134.688 34.72 135.514 34.188 136.732 34.188V35.504H136.396C135.178 35.504 134.254 36.05 134.254 37.828ZM143.719 39.914C143.719 41.174 142.613 42.126 140.919 42.126C139.127 42.126 137.867 41.146 137.783 39.746H139.099C139.169 40.488 139.827 41.048 140.905 41.048C141.913 41.048 142.473 40.544 142.473 39.914C142.473 38.206 137.937 39.2 137.937 36.344C137.937 35.168 139.043 34.202 140.751 34.202C142.445 34.202 143.565 35.112 143.649 36.61H142.375C142.319 35.84 141.731 35.28 140.709 35.28C139.771 35.28 139.211 35.728 139.211 36.344C139.211 38.164 143.663 37.17 143.719 39.914Z" fill="#350ABC"/>
<path d="M151.872 43.232H150.732C149.208 41.732 148.296 39.308 148.296 36.608C148.296 33.896 149.208 31.364 150.912 29.792H152.052V29.9C150.204 31.64 149.352 34.16 149.352 36.608C149.352 39.044 150.204 41.408 151.872 43.124V43.232ZM153.169 34.508C153.277 33.02 154.405 32.156 156.013 32.156C157.705 32.156 158.629 33.14 158.629 34.388C158.629 35.384 158.005 36.164 157.093 36.368V36.428C158.101 36.668 158.785 37.412 158.785 38.66C158.785 40.004 157.849 41.06 156.037 41.06C154.393 41.06 153.169 40.184 153.037 38.504H154.093C154.201 39.428 154.873 40.136 156.025 40.136C157.189 40.136 157.741 39.452 157.741 38.564C157.741 37.34 156.889 36.872 155.329 36.872H155.053V35.96H155.341C156.793 35.948 157.573 35.504 157.573 34.496C157.573 33.668 157.021 33.092 155.977 33.092C154.957 33.092 154.345 33.668 154.237 34.508H153.169ZM160.092 43.232V43.124C161.76 41.408 162.612 39.044 162.612 36.608C162.612 34.16 161.76 31.64 159.912 29.9V29.792H161.052C162.756 31.364 163.668 33.896 163.668 36.608C163.668 39.308 162.756 41.732 161.232 43.232H160.092Z" fill="#774DFD"/>
<path d="M30.32 96V89.92H23.78V96H21.5V82.1H23.78V88.06H30.32V82.1H32.6V96H30.32ZM46.1016 90.48C46.1016 93.94 43.5416 96.18 40.3816 96.18C37.2416 96.18 34.8616 93.94 34.8616 90.48C34.8616 87.02 37.3416 84.8 40.4816 84.8C43.6216 84.8 46.1016 87.02 46.1016 90.48ZM37.1816 90.48C37.1816 92.98 38.6616 94.2 40.3816 94.2C42.0816 94.2 43.7616 92.98 43.7616 90.48C43.7616 87.98 42.1416 86.78 40.4416 86.78C38.7216 86.78 37.1816 87.98 37.1816 90.48ZM56.5755 92.92C56.5755 94.78 54.9555 96.18 52.3555 96.18C49.7155 96.18 47.8555 94.62 47.7555 92.62H50.1155C50.1955 93.52 51.0555 94.26 52.3155 94.26C53.6355 94.26 54.3355 93.7 54.3355 92.94C54.3355 90.78 47.9355 92.02 47.9355 87.98C47.9355 86.22 49.5755 84.8 52.1755 84.8C54.6755 84.8 56.3155 86.14 56.4355 88.34H54.1555C54.0755 87.38 53.3355 86.72 52.0955 86.72C50.8755 86.72 50.2355 87.22 50.2355 87.96C50.2355 90.18 56.4555 88.94 56.5755 92.92ZM59.3991 92.94V86.84H58.0991V84.98H59.3991V82.24H61.6991V84.98H64.3791V86.84H61.6991V92.94C61.6991 93.76 62.0191 94.1 62.9791 94.1H64.3791V96H62.5791C60.6191 96 59.3991 95.18 59.3991 92.94ZM66.4805 96V84.98H68.7605V96H66.4805ZM67.6405 83.52C66.8205 83.52 66.1805 82.88 66.1805 82.06C66.1805 81.24 66.8205 80.6 67.6405 80.6C68.4405 80.6 69.0805 81.24 69.0805 82.06C69.0805 82.88 68.4405 83.52 67.6405 83.52ZM79.5739 96V89.84C79.5739 87.82 78.4739 86.78 76.8139 86.78C75.1339 86.78 74.0339 87.82 74.0339 89.84V96H71.7539V84.98H74.0339V86.24C74.7739 85.34 75.9939 84.8 77.3139 84.8C79.8939 84.8 81.8339 86.42 81.8339 89.5V96H79.5739ZM83.9822 90.44C83.9822 87.04 86.2822 84.8 89.1822 84.8C90.9822 84.8 92.3222 85.64 93.0022 86.58V84.98H95.3022V96.18C95.3022 99.18 93.3622 101.44 89.9222 101.44C86.9822 101.44 84.8022 99.98 84.5222 97.54H86.7822C87.1222 98.68 88.3422 99.46 89.9222 99.46C91.6822 99.46 93.0022 98.38 93.0022 96.18V94.34C92.3022 95.28 90.9822 96.18 89.1822 96.18C86.2822 96.18 83.9822 93.84 83.9822 90.44ZM93.0022 90.48C93.0022 88.12 91.3822 86.78 89.6622 86.78C87.9622 86.78 86.3222 88.06 86.3222 90.44C86.3222 92.82 87.9622 94.2 89.6622 94.2C91.3822 94.2 93.0022 92.86 93.0022 90.48ZM102.732 90.44C102.732 87.04 105.032 84.8 107.932 84.8C109.792 84.8 111.072 85.68 111.752 86.58V84.98H114.052V96H111.752V94.36C111.052 95.3 109.732 96.18 107.892 96.18C105.032 96.18 102.732 93.84 102.732 90.44ZM111.752 90.48C111.752 88.12 110.132 86.78 108.412 86.78C106.712 86.78 105.072 88.06 105.072 90.44C105.072 92.82 106.712 94.2 108.412 94.2C110.132 94.2 111.752 92.86 111.752 90.48ZM121.482 90.48C121.482 87.04 123.722 84.8 126.882 84.8C129.582 84.8 131.342 86.14 131.962 88.46H129.502C129.122 87.4 128.242 86.72 126.882 86.72C125.042 86.72 123.822 88.08 123.822 90.48C123.822 92.9 125.042 94.26 126.882 94.26C128.242 94.26 129.082 93.66 129.502 92.52H131.962C131.342 94.68 129.582 96.18 126.882 96.18C123.722 96.18 121.482 93.94 121.482 90.48ZM144.734 90.48C144.734 93.94 142.174 96.18 139.014 96.18C135.874 96.18 133.494 93.94 133.494 90.48C133.494 87.02 135.974 84.8 139.114 84.8C142.254 84.8 144.734 87.02 144.734 90.48ZM135.814 90.48C135.814 92.98 137.294 94.2 139.014 94.2C140.714 94.2 142.394 92.98 142.394 90.48C142.394 87.98 140.774 86.78 139.074 86.78C137.354 86.78 135.814 87.98 135.814 90.48ZM149.268 90.2V96H146.988V84.98H149.268V86.58C149.908 85.48 151.008 84.8 152.568 84.8V87.16H151.988C150.308 87.16 149.268 87.86 149.268 90.2ZM156.944 86.6C157.644 85.68 158.984 84.8 160.784 84.8C163.684 84.8 165.964 87.04 165.964 90.44C165.964 93.84 163.684 96.18 160.784 96.18C158.964 96.18 157.664 95.26 156.944 94.4V101.24H154.664V84.98H156.944V86.6ZM163.644 90.44C163.644 88.06 162.004 86.78 160.284 86.78C158.584 86.78 156.944 88.12 156.944 90.48C156.944 92.86 158.584 94.2 160.284 94.2C162.004 94.2 163.644 92.82 163.644 90.44ZM178.719 90.48C178.719 93.94 176.159 96.18 172.999 96.18C169.859 96.18 167.479 93.94 167.479 90.48C167.479 87.02 169.959 84.8 173.099 84.8C176.239 84.8 178.719 87.02 178.719 90.48ZM169.799 90.48C169.799 92.98 171.279 94.2 172.999 94.2C174.699 94.2 176.379 92.98 176.379 90.48C176.379 87.98 174.759 86.78 173.059 86.78C171.339 86.78 169.799 87.98 169.799 90.48ZM183.253 90.2V96H180.973V84.98H183.253V86.58C183.893 85.48 184.993 84.8 186.553 84.8V87.16H185.973C184.293 87.16 183.253 87.86 183.253 90.2ZM187.888 90.44C187.888 87.04 190.188 84.8 193.088 84.8C194.948 84.8 196.228 85.68 196.908 86.58V84.98H199.208V96H196.908V94.36C196.208 95.3 194.888 96.18 193.048 96.18C190.188 96.18 187.888 93.84 187.888 90.44ZM196.908 90.48C196.908 88.12 195.288 86.78 193.568 86.78C191.868 86.78 190.228 88.06 190.228 90.44C190.228 92.82 191.868 94.2 193.568 94.2C195.288 94.2 196.908 92.86 196.908 90.48ZM202.563 92.94V86.84H201.263V84.98H202.563V82.24H204.863V84.98H207.543V86.84H204.863V92.94C204.863 93.76 205.183 94.1 206.143 94.1H207.543V96H205.743C203.783 96 202.563 95.18 202.563 92.94ZM214.285 86.72C212.745 86.72 211.505 87.76 211.265 89.5H217.365C217.325 87.8 215.985 86.72 214.285 86.72ZM219.445 92.72C218.825 94.64 217.085 96.18 214.385 96.18C211.225 96.18 208.885 93.94 208.885 90.48C208.885 87.02 211.125 84.8 214.385 84.8C217.525 84.8 219.745 86.98 219.745 90.22C219.745 90.6 219.725 90.96 219.665 91.34H211.245C211.405 93.16 212.705 94.26 214.385 94.26C215.785 94.26 216.565 93.58 216.985 92.72H219.445ZM231.824 86.72C230.284 86.72 229.044 87.76 228.804 89.5H234.904C234.864 87.8 233.524 86.72 231.824 86.72ZM236.984 92.72C236.364 94.64 234.624 96.18 231.924 96.18C228.764 96.18 226.424 93.94 226.424 90.48C226.424 87.02 228.664 84.8 231.924 84.8C235.064 84.8 237.284 86.98 237.284 90.22C237.284 90.6 237.264 90.96 237.204 91.34H228.784C228.944 93.16 230.244 94.26 231.924 94.26C233.324 94.26 234.104 93.58 234.524 92.72H236.984ZM238.227 84.98H240.667L243.787 93.96L246.907 84.98H249.327L245.127 96H242.407L238.227 84.98ZM255.691 86.72C254.151 86.72 252.911 87.76 252.671 89.5H258.771C258.731 87.8 257.391 86.72 255.691 86.72ZM260.851 92.72C260.231 94.64 258.491 96.18 255.791 96.18C252.631 96.18 250.291 93.94 250.291 90.48C250.291 87.02 252.531 84.8 255.791 84.8C258.931 84.8 261.151 86.98 261.151 90.22C261.151 90.6 261.131 90.96 261.071 91.34H252.651C252.811 93.16 254.111 94.26 255.791 94.26C257.191 94.26 257.971 93.58 258.391 92.72H260.851ZM271.215 96V89.84C271.215 87.82 270.115 86.78 268.455 86.78C266.775 86.78 265.675 87.82 265.675 89.84V96H263.395V84.98H265.675V86.24C266.415 85.34 267.635 84.8 268.955 84.8C271.535 84.8 273.475 86.42 273.475 89.5V96H271.215ZM276.743 92.94V86.84H275.443V84.98H276.743V82.24H279.043V84.98H281.723V86.84H279.043V92.94C279.043 93.76 279.363 94.1 280.323 94.1H281.723V96H279.923C277.963 96 276.743 95.18 276.743 92.94Z" fill="black"/>
<mask id="path-6-inside-1_7010_60939" fill="white">
<path d="M20 132H374V229H20V132Z"/>
</mask>
<path d="M374 228H20V230H374V228Z" fill="#EBE6FF" mask="url(#path-6-inside-1_7010_60939)"/>
<path d="M27.344 131.864V133.352H23.024V136.616H26.864V138.104H23.024V141.512H27.344V143H21.2V131.864H27.344ZM28.5506 134.184H30.5026L32.9986 141.368L35.4946 134.184H37.4306L34.0706 143H31.8946L28.5506 134.184ZM42.5214 135.576C41.2894 135.576 40.2974 136.408 40.1054 137.8H44.9854C44.9534 136.44 43.8814 135.576 42.5214 135.576ZM46.6494 140.376C46.1534 141.912 44.7614 143.144 42.6014 143.144C40.0734 143.144 38.2014 141.352 38.2014 138.584C38.2014 135.816 39.9934 134.04 42.6014 134.04C45.1134 134.04 46.8894 135.784 46.8894 138.376C46.8894 138.68 46.8734 138.968 46.8254 139.272H40.0894C40.2174 140.728 41.2574 141.608 42.6014 141.608C43.7214 141.608 44.3454 141.064 44.6814 140.376H46.6494ZM54.9404 143V138.072C54.9404 136.456 54.0604 135.624 52.7324 135.624C51.3884 135.624 50.5084 136.456 50.5084 138.072V143H48.6844V134.184H50.5084V135.192C51.1004 134.472 52.0764 134.04 53.1324 134.04C55.1964 134.04 56.7484 135.336 56.7484 137.8V143H54.9404ZM59.363 140.552V135.672H58.323V134.184H59.363V131.992H61.203V134.184H63.347V135.672H61.203V140.552C61.203 141.208 61.459 141.48 62.227 141.48H63.347V143H61.907C60.339 143 59.363 142.344 59.363 140.552ZM72.8164 131.88C76.3844 131.88 78.7204 134.04 78.7204 137.48C78.7204 140.904 76.3844 143 72.8164 143H69.1844V131.88H72.8164ZM71.0084 141.512H72.8164C75.4404 141.512 76.8484 140.008 76.8484 137.48C76.8484 134.936 75.4404 133.368 72.8164 133.368H71.0084V141.512ZM84.2401 135.576C83.0081 135.576 82.0161 136.408 81.8241 137.8H86.7041C86.6721 136.44 85.6001 135.576 84.2401 135.576ZM88.3681 140.376C87.8721 141.912 86.4801 143.144 84.3201 143.144C81.7921 143.144 79.9201 141.352 79.9201 138.584C79.9201 135.816 81.7121 134.04 84.3201 134.04C86.8321 134.04 88.6081 135.784 88.6081 138.376C88.6081 138.68 88.5921 138.968 88.5441 139.272H81.8081C81.9361 140.728 82.9761 141.608 84.3201 141.608C85.4401 141.608 86.0641 141.064 86.4001 140.376H88.3681ZM96.9791 140.536C96.9791 142.024 95.6831 143.144 93.6031 143.144C91.4911 143.144 90.0031 141.896 89.9231 140.296H91.8111C91.8751 141.016 92.5631 141.608 93.5711 141.608C94.6271 141.608 95.1871 141.16 95.1871 140.552C95.1871 138.824 90.0671 139.816 90.0671 136.584C90.0671 135.176 91.3791 134.04 93.4591 134.04C95.4591 134.04 96.7711 135.112 96.8671 136.872H95.0431C94.9791 136.104 94.3871 135.576 93.3951 135.576C92.4191 135.576 91.9071 135.976 91.9071 136.568C91.9071 138.344 96.8831 137.352 96.9791 140.536ZM98.342 138.584C98.342 135.832 100.134 134.04 102.662 134.04C104.822 134.04 106.23 135.112 106.726 136.968H104.758C104.454 136.12 103.75 135.576 102.662 135.576C101.19 135.576 100.214 136.664 100.214 138.584C100.214 140.52 101.19 141.608 102.662 141.608C103.75 141.608 104.422 141.128 104.758 140.216H106.726C106.23 141.944 104.822 143.144 102.662 143.144C100.134 143.144 98.342 141.352 98.342 138.584ZM110.368 138.36V143H108.544V134.184H110.368V135.464C110.88 134.584 111.76 134.04 113.008 134.04V135.928H112.544C111.2 135.928 110.368 136.488 110.368 138.36ZM114.684 143V134.184H116.508V143H114.684ZM115.612 133.016C114.956 133.016 114.444 132.504 114.444 131.848C114.444 131.192 114.956 130.68 115.612 130.68C116.252 130.68 116.764 131.192 116.764 131.848C116.764 132.504 116.252 133.016 115.612 133.016ZM120.727 135.48C121.287 134.744 122.359 134.04 123.799 134.04C126.119 134.04 127.943 135.832 127.943 138.552C127.943 141.272 126.119 143.144 123.799 143.144C122.343 143.144 121.303 142.408 120.727 141.72V147.192H118.903V134.184H120.727V135.48ZM126.087 138.552C126.087 136.648 124.775 135.624 123.399 135.624C122.039 135.624 120.727 136.696 120.727 138.584C120.727 140.488 122.039 141.56 123.399 141.56C124.775 141.56 126.087 140.456 126.087 138.552ZM130.035 140.552V135.672H128.995V134.184H130.035V131.992H131.875V134.184H134.019V135.672H131.875V140.552C131.875 141.208 132.131 141.48 132.899 141.48H134.019V143H132.579C131.011 143 130.035 142.344 130.035 140.552ZM135.7 143V134.184H137.524V143H135.7ZM136.628 133.016C135.972 133.016 135.46 132.504 135.46 131.848C135.46 131.192 135.972 130.68 136.628 130.68C137.268 130.68 137.78 131.192 137.78 131.848C137.78 132.504 137.268 133.016 136.628 133.016ZM148.319 138.584C148.319 141.352 146.271 143.144 143.743 143.144C141.231 143.144 139.327 141.352 139.327 138.584C139.327 135.816 141.311 134.04 143.823 134.04C146.335 134.04 148.319 135.816 148.319 138.584ZM141.183 138.584C141.183 140.584 142.367 141.56 143.743 141.56C145.103 141.56 146.447 140.584 146.447 138.584C146.447 136.584 145.151 135.624 143.791 135.624C142.415 135.624 141.183 136.584 141.183 138.584ZM156.378 143V138.072C156.378 136.456 155.498 135.624 154.17 135.624C152.826 135.624 151.946 136.456 151.946 138.072V143H150.122V134.184H151.946V135.192C152.538 134.472 153.514 134.04 154.57 134.04C156.634 134.04 158.186 135.336 158.186 137.8V143H156.378Z" fill="#161616"/>
<path d="M21.078 163.242H22.352V171.964H25.768V173H21.078V163.242ZM34.401 169.15C34.401 171.586 32.651 173.126 30.467 173.126C28.297 173.126 26.645 171.586 26.645 169.15C26.645 166.728 28.353 165.202 30.523 165.202C32.707 165.202 34.401 166.728 34.401 169.15ZM27.947 169.15C27.947 171.096 29.137 172.006 30.467 172.006C31.797 172.006 33.099 171.096 33.099 169.15C33.099 167.218 31.825 166.308 30.509 166.308C29.165 166.308 27.947 167.218 27.947 169.15ZM37.35 168.828V173H36.076V165.328H37.35V166.574C37.784 165.72 38.61 165.188 39.828 165.188V166.504H39.492C38.274 166.504 37.35 167.05 37.35 168.828ZM44.5607 166.28C43.3147 166.28 42.2787 167.106 42.1387 168.604H46.9827C46.9967 167.106 45.8767 166.28 44.5607 166.28ZM48.1447 170.634C47.7527 172.034 46.5207 173.126 44.6167 173.126C42.4327 173.126 40.8227 171.586 40.8227 169.15C40.8227 166.728 42.3767 165.202 44.6167 165.202C46.8427 165.202 48.2987 166.77 48.2987 168.87C48.2987 169.15 48.2847 169.374 48.2567 169.64H42.1247C42.2227 171.194 43.3147 172.048 44.6167 172.048C45.7647 172.048 46.4927 171.46 46.7727 170.634H48.1447ZM61.0543 173V168.66C61.0543 167.092 60.2143 166.294 58.9543 166.294C57.6663 166.294 56.7843 167.12 56.7843 168.772V173H55.5243V168.66C55.5243 167.092 54.6843 166.294 53.4243 166.294C52.1363 166.294 51.2543 167.12 51.2543 168.772V173H49.9803V165.328H51.2543V166.434C51.7583 165.622 52.6683 165.188 53.6763 165.188C54.9363 165.188 55.9863 165.748 56.4903 166.896C56.9383 165.79 58.0303 165.188 59.2063 165.188C60.9563 165.188 62.3143 166.28 62.3143 168.478V173H61.0543ZM68.1366 173V165.328H69.4106V173H68.1366ZM68.7946 164.082C68.3046 164.082 67.9266 163.704 67.9266 163.214C67.9266 162.724 68.3046 162.346 68.7946 162.346C69.2566 162.346 69.6346 162.724 69.6346 163.214C69.6346 163.704 69.2566 164.082 68.7946 164.082ZM72.8559 166.742C73.3179 165.93 74.3259 165.202 75.7259 165.202C77.7839 165.202 79.3659 166.742 79.3659 169.136C79.3659 171.516 77.7839 173.126 75.7259 173.126C74.3259 173.126 73.3319 172.37 72.8559 171.586V176.64H71.5819V165.328H72.8559V166.742ZM78.0639 169.136C78.0639 167.33 76.8739 166.308 75.4599 166.308C74.0739 166.308 72.8559 167.372 72.8559 169.15C72.8559 170.956 74.0739 172.006 75.4599 172.006C76.8739 172.006 78.0639 170.942 78.0639 169.136ZM86.5588 170.914C86.5588 172.174 85.4528 173.126 83.7588 173.126C81.9668 173.126 80.7068 172.146 80.6228 170.746H81.9388C82.0088 171.488 82.6668 172.048 83.7448 172.048C84.7528 172.048 85.3128 171.544 85.3128 170.914C85.3128 169.206 80.7768 170.2 80.7768 167.344C80.7768 166.168 81.8828 165.202 83.5908 165.202C85.2848 165.202 86.4048 166.112 86.4888 167.61H85.2148C85.1588 166.84 84.5708 166.28 83.5488 166.28C82.6108 166.28 82.0508 166.728 82.0508 167.344C82.0508 169.164 86.5028 168.17 86.5588 170.914ZM95.1613 165.328V173H93.8873V171.866C93.3973 172.664 92.4593 173.112 91.4373 173.112C89.6733 173.112 88.2873 172.02 88.2873 169.822V165.328H89.5473V169.654C89.5473 171.208 90.4013 172.006 91.6893 172.006C93.0053 172.006 93.8873 171.194 93.8873 169.542V165.328H95.1613ZM108.386 173V168.66C108.386 167.092 107.546 166.294 106.286 166.294C104.998 166.294 104.116 167.12 104.116 168.772V173H102.856V168.66C102.856 167.092 102.016 166.294 100.756 166.294C99.4684 166.294 98.5864 167.12 98.5864 168.772V173H97.3124V165.328H98.5864V166.434C99.0904 165.622 100 165.188 101.008 165.188C102.268 165.188 103.318 165.748 103.822 166.896C104.27 165.79 105.362 165.188 106.538 165.188C108.288 165.188 109.646 166.28 109.646 168.478V173H108.386ZM114.993 169.136C114.993 166.742 116.575 165.202 118.647 165.202C119.851 165.202 120.957 165.818 121.489 166.7V162.64H122.777V173H121.489V171.558C121.027 172.412 120.033 173.126 118.633 173.126C116.575 173.126 114.993 171.516 114.993 169.136ZM121.489 169.15C121.489 167.372 120.285 166.308 118.885 166.308C117.485 166.308 116.295 167.33 116.295 169.136C116.295 170.942 117.485 172.006 118.885 172.006C120.285 172.006 121.489 170.956 121.489 169.15ZM132.21 169.15C132.21 171.586 130.46 173.126 128.276 173.126C126.106 173.126 124.454 171.586 124.454 169.15C124.454 166.728 126.162 165.202 128.332 165.202C130.516 165.202 132.21 166.728 132.21 169.15ZM125.756 169.15C125.756 171.096 126.946 172.006 128.276 172.006C129.606 172.006 130.908 171.096 130.908 169.15C130.908 167.218 129.634 166.308 128.318 166.308C126.974 166.308 125.756 167.218 125.756 169.15ZM133.885 173V162.64H135.159V173H133.885ZM144.61 169.15C144.61 171.586 142.86 173.126 140.676 173.126C138.506 173.126 136.854 171.586 136.854 169.15C136.854 166.728 138.562 165.202 140.732 165.202C142.916 165.202 144.61 166.728 144.61 169.15ZM138.156 169.15C138.156 171.096 139.346 172.006 140.676 172.006C142.006 172.006 143.308 171.096 143.308 169.15C143.308 167.218 142.034 166.308 140.718 166.308C139.374 166.308 138.156 167.218 138.156 169.15ZM147.559 168.828V173H146.285V165.328H147.559V166.574C147.993 165.72 148.819 165.188 150.037 165.188V166.504H149.701C148.483 166.504 147.559 167.05 147.559 168.828ZM160.756 170.914C160.756 172.174 159.65 173.126 157.956 173.126C156.164 173.126 154.904 172.146 154.82 170.746H156.136C156.206 171.488 156.864 172.048 157.942 172.048C158.95 172.048 159.51 171.544 159.51 170.914C159.51 169.206 154.974 170.2 154.974 167.344C154.974 166.168 156.08 165.202 157.788 165.202C159.482 165.202 160.602 166.112 160.686 167.61H159.412C159.356 166.84 158.768 166.28 157.746 166.28C156.808 166.28 156.248 166.728 156.248 167.344C156.248 169.164 160.7 168.17 160.756 170.914ZM162.555 173V165.328H163.829V173H162.555ZM163.213 164.082C162.723 164.082 162.345 163.704 162.345 163.214C162.345 162.724 162.723 162.346 163.213 162.346C163.675 162.346 164.053 162.724 164.053 163.214C164.053 163.704 163.675 164.082 163.213 164.082ZM166.28 170.9V166.378H165.286V165.328H166.28V163.396H167.554V165.328H169.556V166.378H167.554V170.9C167.554 171.656 167.834 171.922 168.618 171.922H169.556V173H168.408C167.05 173 166.28 172.44 166.28 170.9ZM174.356 169.136C174.356 166.742 175.938 165.202 177.996 165.202C179.424 165.202 180.404 165.93 180.852 166.728V165.328H182.14V173H180.852V171.572C180.39 172.398 179.396 173.126 177.982 173.126C175.938 173.126 174.356 171.516 174.356 169.136ZM180.852 169.15C180.852 167.372 179.648 166.308 178.248 166.308C176.848 166.308 175.658 167.33 175.658 169.136C175.658 170.942 176.848 172.006 178.248 172.006C179.648 172.006 180.852 170.956 180.852 169.15ZM195.367 173V168.66C195.367 167.092 194.527 166.294 193.267 166.294C191.979 166.294 191.097 167.12 191.097 168.772V173H189.837V168.66C189.837 167.092 188.997 166.294 187.737 166.294C186.449 166.294 185.567 167.12 185.567 168.772V173H184.293V165.328H185.567V166.434C186.071 165.622 186.981 165.188 187.989 165.188C189.249 165.188 190.299 165.748 190.803 166.896C191.251 165.79 192.343 165.188 193.519 165.188C195.269 165.188 196.627 166.28 196.627 168.478V173H195.367ZM201.979 166.28C200.733 166.28 199.697 167.106 199.557 168.604H204.401C204.415 167.106 203.295 166.28 201.979 166.28ZM205.563 170.634C205.171 172.034 203.939 173.126 202.035 173.126C199.851 173.126 198.241 171.586 198.241 169.15C198.241 166.728 199.795 165.202 202.035 165.202C204.261 165.202 205.717 166.77 205.717 168.87C205.717 169.15 205.703 169.374 205.675 169.64H199.543C199.641 171.194 200.733 172.048 202.035 172.048C203.183 172.048 203.911 171.46 204.191 170.634H205.563ZM207.678 170.9V166.378H206.684V165.328H207.678V163.396H208.952V165.328H210.954V166.378H208.952V170.9C208.952 171.656 209.232 171.922 210.016 171.922H210.954V173H209.806C208.448 173 207.678 172.44 207.678 170.9ZM211.392 175.002L212.414 171.236H213.814L212.246 175.002H211.392ZM218.53 169.15C218.53 166.742 220.084 165.202 222.268 165.202C224.172 165.202 225.418 166.182 225.81 167.792H224.438C224.172 166.868 223.402 166.28 222.268 166.28C220.868 166.28 219.832 167.274 219.832 169.15C219.832 171.054 220.868 172.048 222.268 172.048C223.402 172.048 224.158 171.502 224.438 170.536H225.81C225.418 172.062 224.172 173.126 222.268 173.126C220.084 173.126 218.53 171.586 218.53 169.15ZM234.79 169.15C234.79 171.586 233.04 173.126 230.856 173.126C228.686 173.126 227.034 171.586 227.034 169.15C227.034 166.728 228.742 165.202 230.912 165.202C233.096 165.202 234.79 166.728 234.79 169.15ZM228.336 169.15C228.336 171.096 229.526 172.006 230.856 172.006C232.186 172.006 233.488 171.096 233.488 169.15C233.488 167.218 232.214 166.308 230.898 166.308C229.554 166.308 228.336 167.218 228.336 169.15ZM242.079 173V168.66C242.079 167.092 241.225 166.294 239.937 166.294C238.635 166.294 237.739 167.106 237.739 168.758V173H236.465V165.328H237.739V166.42C238.243 165.622 239.167 165.188 240.203 165.188C241.981 165.188 243.339 166.28 243.339 168.478V173H242.079ZM250.936 170.914C250.936 172.174 249.83 173.126 248.136 173.126C246.344 173.126 245.084 172.146 245 170.746H246.316C246.386 171.488 247.044 172.048 248.122 172.048C249.13 172.048 249.69 171.544 249.69 170.914C249.69 169.206 245.154 170.2 245.154 167.344C245.154 166.168 246.26 165.202 247.968 165.202C249.662 165.202 250.782 166.112 250.866 167.61H249.592C249.536 166.84 248.948 166.28 247.926 166.28C246.988 166.28 246.428 166.728 246.428 167.344C246.428 169.164 250.88 168.17 250.936 170.914ZM255.996 166.28C254.75 166.28 253.714 167.106 253.574 168.604H258.418C258.432 167.106 257.312 166.28 255.996 166.28ZM259.58 170.634C259.188 172.034 257.956 173.126 256.052 173.126C253.868 173.126 252.258 171.586 252.258 169.15C252.258 166.728 253.812 165.202 256.052 165.202C258.278 165.202 259.734 166.77 259.734 168.87C259.734 169.15 259.72 169.374 259.692 169.64H253.56C253.658 171.194 254.75 172.048 256.052 172.048C257.2 172.048 257.928 171.46 258.208 170.634H259.58ZM260.94 169.15C260.94 166.742 262.494 165.202 264.678 165.202C266.582 165.202 267.828 166.182 268.22 167.792H266.848C266.582 166.868 265.812 166.28 264.678 166.28C263.278 166.28 262.242 167.274 262.242 169.15C262.242 171.054 263.278 172.048 264.678 172.048C265.812 172.048 266.568 171.502 266.848 170.536H268.22C267.828 172.062 266.582 173.126 264.678 173.126C262.494 173.126 260.94 171.586 260.94 169.15ZM270.2 170.9V166.378H269.206V165.328H270.2V163.396H271.474V165.328H273.476V166.378H271.474V170.9C271.474 171.656 271.754 171.922 272.538 171.922H273.476V173H272.328C270.97 173 270.2 172.44 270.2 170.9ZM278.281 166.28C277.035 166.28 275.999 167.106 275.859 168.604H280.703C280.717 167.106 279.597 166.28 278.281 166.28ZM281.865 170.634C281.473 172.034 280.241 173.126 278.337 173.126C276.153 173.126 274.543 171.586 274.543 169.15C274.543 166.728 276.097 165.202 278.337 165.202C280.563 165.202 282.019 166.77 282.019 168.87C282.019 169.15 282.005 169.374 281.977 169.64H275.845C275.943 171.194 277.035 172.048 278.337 172.048C279.485 172.048 280.213 171.46 280.493 170.634H281.865ZM283.981 170.9V166.378H282.987V165.328H283.981V163.396H285.255V165.328H287.257V166.378H285.255V170.9C285.255 171.656 285.535 171.922 286.319 171.922H287.257V173H286.109C284.751 173 283.981 172.44 283.981 170.9ZM295.605 165.328V173H294.331V171.866C293.841 172.664 292.903 173.112 291.881 173.112C290.117 173.112 288.731 172.02 288.731 169.822V165.328H289.991V169.654C289.991 171.208 290.845 172.006 292.133 172.006C293.449 172.006 294.331 171.194 294.331 169.542V165.328H295.605ZM299.03 168.828V173H297.756V165.328H299.03V166.574C299.464 165.72 300.29 165.188 301.508 165.188V166.504H301.172C299.954 166.504 299.03 167.05 299.03 168.828ZM20.602 193.136C20.602 190.742 22.184 189.202 24.242 189.202C25.67 189.202 26.65 189.93 27.098 190.728V189.328H28.386V197H27.098V195.572C26.636 196.398 25.642 197.126 24.228 197.126C22.184 197.126 20.602 195.516 20.602 193.136ZM27.098 193.15C27.098 191.372 25.894 190.308 24.494 190.308C23.094 190.308 21.904 191.33 21.904 193.136C21.904 194.942 23.094 196.006 24.494 196.006C25.894 196.006 27.098 194.956 27.098 193.15ZM30.0629 193.136C30.0629 190.742 31.6449 189.202 33.7169 189.202C34.9209 189.202 36.0269 189.818 36.5589 190.7V186.64H37.8469V197H36.5589V195.558C36.0969 196.412 35.1029 197.126 33.7029 197.126C31.6449 197.126 30.0629 195.516 30.0629 193.136ZM36.5589 193.15C36.5589 191.372 35.3549 190.308 33.9549 190.308C32.5549 190.308 31.3649 191.33 31.3649 193.136C31.3649 194.942 32.5549 196.006 33.9549 196.006C35.3549 196.006 36.5589 194.956 36.5589 193.15ZM39.9999 197V189.328H41.2739V197H39.9999ZM40.6579 188.082C40.1679 188.082 39.7899 187.704 39.7899 187.214C39.7899 186.724 40.1679 186.346 40.6579 186.346C41.1199 186.346 41.4979 186.724 41.4979 187.214C41.4979 187.704 41.1199 188.082 40.6579 188.082ZM44.7192 190.742C45.1812 189.93 46.1892 189.202 47.5892 189.202C49.6472 189.202 51.2292 190.742 51.2292 193.136C51.2292 195.516 49.6472 197.126 47.5892 197.126C46.1892 197.126 45.1952 196.37 44.7192 195.586V200.64H43.4452V189.328H44.7192V190.742ZM49.9272 193.136C49.9272 191.33 48.7372 190.308 47.3232 190.308C45.9372 190.308 44.7192 191.372 44.7192 193.15C44.7192 194.956 45.9372 196.006 47.3232 196.006C48.7372 196.006 49.9272 194.942 49.9272 193.136ZM52.9061 197V189.328H54.1801V197H52.9061ZM53.5641 188.082C53.0741 188.082 52.6961 187.704 52.6961 187.214C52.6961 186.724 53.0741 186.346 53.5641 186.346C54.0261 186.346 54.4041 186.724 54.4041 187.214C54.4041 187.704 54.0261 188.082 53.5641 188.082ZM61.8674 194.914C61.8674 196.174 60.7614 197.126 59.0674 197.126C57.2754 197.126 56.0154 196.146 55.9314 194.746H57.2474C57.3174 195.488 57.9754 196.048 59.0534 196.048C60.0614 196.048 60.6214 195.544 60.6214 194.914C60.6214 193.206 56.0854 194.2 56.0854 191.344C56.0854 190.168 57.1914 189.202 58.8994 189.202C60.5934 189.202 61.7134 190.112 61.7974 191.61H60.5234C60.4674 190.84 59.8794 190.28 58.8574 190.28C57.9194 190.28 57.3594 190.728 57.3594 191.344C57.3594 193.164 61.8114 192.17 61.8674 194.914ZM63.1899 193.15C63.1899 190.742 64.7439 189.202 66.9279 189.202C68.8319 189.202 70.0779 190.182 70.4699 191.792H69.0979C68.8319 190.868 68.0619 190.28 66.9279 190.28C65.5279 190.28 64.4919 191.274 64.4919 193.15C64.4919 195.054 65.5279 196.048 66.9279 196.048C68.0619 196.048 68.8179 195.502 69.0979 194.536H70.4699C70.0779 196.062 68.8319 197.126 66.9279 197.126C64.7439 197.126 63.1899 195.586 63.1899 193.15ZM72.1698 197V189.328H73.4438V197H72.1698ZM72.8278 188.082C72.3378 188.082 71.9598 187.704 71.9598 187.214C71.9598 186.724 72.3378 186.346 72.8278 186.346C73.2898 186.346 73.6678 186.724 73.6678 187.214C73.6678 187.704 73.2898 188.082 72.8278 188.082ZM81.2291 197V192.66C81.2291 191.092 80.3751 190.294 79.0871 190.294C77.7851 190.294 76.8891 191.106 76.8891 192.758V197H75.6151V189.328H76.8891V190.42C77.3931 189.622 78.3171 189.188 79.3531 189.188C81.1311 189.188 82.4891 190.28 82.4891 192.478V197H81.2291ZM84.0942 193.136C84.0942 190.742 85.6762 189.202 87.7342 189.202C89.1342 189.202 90.1422 189.902 90.5902 190.728V189.328H91.8782V197.168C91.8782 199.282 90.4642 200.78 88.2102 200.78C86.1942 200.78 84.7522 199.758 84.5002 198.12H85.7602C86.0402 199.044 86.9502 199.674 88.2102 199.674C89.5682 199.674 90.5902 198.806 90.5902 197.168V195.558C90.1282 196.384 89.1342 197.126 87.7342 197.126C85.6762 197.126 84.0942 195.516 84.0942 193.136ZM90.5902 193.15C90.5902 191.372 89.3862 190.308 87.9862 190.308C86.5862 190.308 85.3962 191.33 85.3962 193.136C85.3962 194.942 86.5862 196.006 87.9862 196.006C89.3862 196.006 90.5902 194.956 90.5902 193.15ZM101.026 190.28C99.7795 190.28 98.7435 191.106 98.6035 192.604H103.448C103.462 191.106 102.342 190.28 101.026 190.28ZM104.61 194.634C104.218 196.034 102.986 197.126 101.082 197.126C98.8975 197.126 97.2875 195.586 97.2875 193.15C97.2875 190.728 98.8415 189.202 101.082 189.202C103.308 189.202 104.764 190.77 104.764 192.87C104.764 193.15 104.75 193.374 104.722 193.64H98.5895C98.6875 195.194 99.7795 196.048 101.082 196.048C102.23 196.048 102.958 195.46 103.238 194.634H104.61ZM106.445 197V186.64H107.719V197H106.445ZM109.891 197V189.328H111.165V197H109.891ZM110.549 188.082C110.059 188.082 109.681 187.704 109.681 187.214C109.681 186.724 110.059 186.346 110.549 186.346C111.011 186.346 111.389 186.724 111.389 187.214C111.389 187.704 111.011 188.082 110.549 188.082ZM113.616 194.9V190.378H112.622V189.328H113.616V187.396H114.89V189.328H116.892V190.378H114.89V194.9C114.89 195.656 115.17 195.922 115.954 195.922H116.892V197H115.744C114.386 197 113.616 196.44 113.616 194.9ZM117.329 199.002L118.351 195.236H119.751L118.183 199.002H117.329ZM130.459 194.914C130.459 196.174 129.353 197.126 127.659 197.126C125.867 197.126 124.607 196.146 124.523 194.746H125.839C125.909 195.488 126.567 196.048 127.645 196.048C128.653 196.048 129.213 195.544 129.213 194.914C129.213 193.206 124.677 194.2 124.677 191.344C124.677 190.168 125.783 189.202 127.491 189.202C129.185 189.202 130.305 190.112 130.389 191.61H129.115C129.059 190.84 128.471 190.28 127.449 190.28C126.511 190.28 125.951 190.728 125.951 191.344C125.951 193.164 130.403 192.17 130.459 194.914ZM135.52 190.28C134.274 190.28 133.238 191.106 133.098 192.604H137.942C137.956 191.106 136.836 190.28 135.52 190.28ZM139.104 194.634C138.712 196.034 137.48 197.126 135.576 197.126C133.392 197.126 131.782 195.586 131.782 193.15C131.782 190.728 133.336 189.202 135.576 189.202C137.802 189.202 139.258 190.77 139.258 192.87C139.258 193.15 139.244 193.374 139.216 193.64H133.084C133.182 195.194 134.274 196.048 135.576 196.048C136.724 196.048 137.452 195.46 137.732 194.634H139.104ZM140.463 193.136C140.463 190.742 142.045 189.202 144.117 189.202C145.321 189.202 146.427 189.818 146.959 190.7V186.64H148.247V197H146.959V195.558C146.497 196.412 145.503 197.126 144.103 197.126C142.045 197.126 140.463 195.516 140.463 193.136ZM146.959 193.15C146.959 191.372 145.755 190.308 144.355 190.308C142.955 190.308 141.765 191.33 141.765 193.136C141.765 194.942 142.955 196.006 144.355 196.006C145.755 196.006 146.959 194.956 146.959 193.15ZM153.657 193.136C153.657 190.742 155.239 189.202 157.311 189.202C158.515 189.202 159.621 189.818 160.153 190.7V186.64H161.441V197H160.153V195.558C159.691 196.412 158.697 197.126 157.297 197.126C155.239 197.126 153.657 195.516 153.657 193.136ZM160.153 193.15C160.153 191.372 158.949 190.308 157.549 190.308C156.149 190.308 154.959 191.33 154.959 193.136C154.959 194.942 156.149 196.006 157.549 196.006C158.949 196.006 160.153 194.956 160.153 193.15ZM170.874 193.15C170.874 195.586 169.124 197.126 166.94 197.126C164.77 197.126 163.118 195.586 163.118 193.15C163.118 190.728 164.826 189.202 166.996 189.202C169.18 189.202 170.874 190.728 170.874 193.15ZM164.42 193.15C164.42 195.096 165.61 196.006 166.94 196.006C168.27 196.006 169.572 195.096 169.572 193.15C169.572 191.218 168.298 190.308 166.982 190.308C165.638 190.308 164.42 191.218 164.42 193.15ZM179.543 190.28C178.297 190.28 177.261 191.106 177.121 192.604H181.965C181.979 191.106 180.859 190.28 179.543 190.28ZM183.127 194.634C182.735 196.034 181.503 197.126 179.599 197.126C177.415 197.126 175.805 195.586 175.805 193.15C175.805 190.728 177.359 189.202 179.599 189.202C181.825 189.202 183.281 190.77 183.281 192.87C183.281 193.15 183.267 193.374 183.239 193.64H177.107C177.205 195.194 178.297 196.048 179.599 196.048C180.747 196.048 181.475 195.46 181.755 194.634H183.127ZM184.963 197V189.328H186.237V197H184.963ZM185.621 188.082C185.131 188.082 184.753 187.704 184.753 187.214C184.753 186.724 185.131 186.346 185.621 186.346C186.083 186.346 186.461 186.724 186.461 187.214C186.461 187.704 186.083 188.082 185.621 188.082ZM195.212 189.328V197H193.938V195.866C193.448 196.664 192.51 197.112 191.488 197.112C189.724 197.112 188.338 196.02 188.338 193.822V189.328H189.598V193.654C189.598 195.208 190.452 196.006 191.74 196.006C193.056 196.006 193.938 195.194 193.938 193.542V189.328H195.212ZM202.879 194.914C202.879 196.174 201.773 197.126 200.079 197.126C198.287 197.126 197.027 196.146 196.943 194.746H198.259C198.329 195.488 198.987 196.048 200.065 196.048C201.073 196.048 201.633 195.544 201.633 194.914C201.633 193.206 197.097 194.2 197.097 191.344C197.097 190.168 198.203 189.202 199.911 189.202C201.605 189.202 202.725 190.112 202.809 191.61H201.535C201.479 190.84 200.891 190.28 199.869 190.28C198.931 190.28 198.371 190.728 198.371 191.344C198.371 193.164 202.823 192.17 202.879 194.914ZM215.752 197V192.66C215.752 191.092 214.912 190.294 213.652 190.294C212.364 190.294 211.482 191.12 211.482 192.772V197H210.222V192.66C210.222 191.092 209.382 190.294 208.122 190.294C206.834 190.294 205.952 191.12 205.952 192.772V197H204.678V189.328H205.952V190.434C206.456 189.622 207.366 189.188 208.374 189.188C209.634 189.188 210.684 189.748 211.188 190.896C211.636 189.79 212.728 189.188 213.904 189.188C215.654 189.188 217.012 190.28 217.012 192.478V197H215.752ZM226.381 193.15C226.381 195.586 224.631 197.126 222.447 197.126C220.277 197.126 218.625 195.586 218.625 193.15C218.625 190.728 220.333 189.202 222.503 189.202C224.687 189.202 226.381 190.728 226.381 193.15ZM219.927 193.15C219.927 195.096 221.117 196.006 222.447 196.006C223.777 196.006 225.079 195.096 225.079 193.15C225.079 191.218 223.805 190.308 222.489 190.308C221.145 190.308 219.927 191.218 219.927 193.15ZM227.581 193.136C227.581 190.742 229.163 189.202 231.235 189.202C232.439 189.202 233.545 189.818 234.077 190.7V186.64H235.365V197H234.077V195.558C233.615 196.412 232.621 197.126 231.221 197.126C229.163 197.126 227.581 195.516 227.581 193.136ZM234.077 193.15C234.077 191.372 232.873 190.308 231.473 190.308C230.073 190.308 228.883 191.33 228.883 193.136C228.883 194.942 230.073 196.006 231.473 196.006C232.873 196.006 234.077 194.956 234.077 193.15ZM241.53 194.9V190.378H240.536V189.328H241.53V187.396H242.804V189.328H244.806V190.378H242.804V194.9C242.804 195.656 243.084 195.922 243.868 195.922H244.806V197H243.658C242.3 197 241.53 196.44 241.53 194.9ZM249.611 190.28C248.365 190.28 247.329 191.106 247.189 192.604H252.033C252.047 191.106 250.927 190.28 249.611 190.28ZM253.195 194.634C252.803 196.034 251.571 197.126 249.667 197.126C247.483 197.126 245.873 195.586 245.873 193.15C245.873 190.728 247.427 189.202 249.667 189.202C251.893 189.202 253.349 190.77 253.349 192.87C253.349 193.15 253.335 193.374 253.307 193.64H247.175C247.273 195.194 248.365 196.048 249.667 196.048C250.815 196.048 251.543 195.46 251.823 194.634H253.195ZM266.105 197V192.66C266.105 191.092 265.265 190.294 264.005 190.294C262.717 190.294 261.835 191.12 261.835 192.772V197H260.575V192.66C260.575 191.092 259.735 190.294 258.475 190.294C257.187 190.294 256.305 191.12 256.305 192.772V197H255.031V189.328H256.305V190.434C256.809 189.622 257.719 189.188 258.727 189.188C259.987 189.188 261.037 189.748 261.541 190.896C261.989 189.79 263.081 189.188 264.257 189.188C266.007 189.188 267.365 190.28 267.365 192.478V197H266.105ZM270.729 190.742C271.191 189.93 272.199 189.202 273.599 189.202C275.657 189.202 277.239 190.742 277.239 193.136C277.239 195.516 275.657 197.126 273.599 197.126C272.199 197.126 271.205 196.37 270.729 195.586V200.64H269.455V189.328H270.729V190.742ZM275.937 193.136C275.937 191.33 274.747 190.308 273.333 190.308C271.947 190.308 270.729 191.372 270.729 193.15C270.729 194.956 271.947 196.006 273.333 196.006C274.747 196.006 275.937 194.942 275.937 193.136ZM286.196 193.15C286.196 195.586 284.446 197.126 282.262 197.126C280.092 197.126 278.44 195.586 278.44 193.15C278.44 190.728 280.148 189.202 282.318 189.202C284.502 189.202 286.196 190.728 286.196 193.15ZM279.742 193.15C279.742 195.096 280.932 196.006 282.262 196.006C283.592 196.006 284.894 195.096 284.894 193.15C284.894 191.218 283.62 190.308 282.304 190.308C280.96 190.308 279.742 191.218 279.742 193.15ZM289.145 192.828V197H287.871V189.328H289.145V190.574C289.579 189.72 290.405 189.188 291.623 189.188V190.504H291.287C290.069 190.504 289.145 191.05 289.145 192.828Z" fill="#575555"/>
<rect x="20.3214" y="265.321" width="35.9286" height="35.9286" rx="4.82143" fill="#F1F4FF"/>
<rect x="20.3214" y="265.321" width="35.9286" height="35.9286" rx="4.82143" stroke="#B4C4FF" stroke-width="0.642857"/>
<path d="M45.0116 277.959C45.6252 278.664 46.1141 279.582 46.3831 280.639C47.0888 283.407 46.0208 286.07 43.9981 286.585C41.9753 287.101 39.7635 285.274 39.0579 282.505C38.7886 281.449 38.7784 280.408 38.98 279.497L45.0116 277.959Z" fill="white"/>
<path d="M46.6077 282.549C46.5474 284.548 45.5591 286.201 44.0091 286.596C41.9944 287.109 39.7934 285.371 39.0781 282.549H46.6077Z" fill="white" stroke="#585EFF" stroke-miterlimit="10" stroke-linecap="round" stroke-linejoin="round"/>
<path d="M45.0306 278.032C45.6236 278.655 46.124 279.619 46.393 280.675C47.0988 283.444 46.026 286.088 44.0032 286.604C41.9805 287.119 39.7757 285.32 39.0702 282.551C38.8009 281.495 38.7769 280.4 38.9992 279.569L45.0306 278.032Z" stroke="#585EFF" stroke-miterlimit="10" stroke-linecap="round" stroke-linejoin="round"/>
<path d="M43.96 286.586L45.1084 291.093" stroke="#585EFF" stroke-miterlimit="10" stroke-linecap="round" stroke-linejoin="round"/>
<path d="M46.0344 290.779L44.1445 291.261" stroke="#585EFF" stroke-miterlimit="10" stroke-linecap="round" stroke-linejoin="round"/>
<path d="M30.9884 276.666C30.3748 277.37 29.886 278.289 29.6169 279.345C28.9113 282.114 29.9792 284.776 32.0019 285.292C34.0248 285.807 36.2366 283.98 36.9421 281.212C37.2114 280.156 37.2216 279.115 37.02 278.203L30.9884 276.666Z" fill="white"/>
<path d="M29.3926 281.255C29.4529 283.254 30.4411 284.908 31.9911 285.303C34.0058 285.816 36.2069 284.078 36.9223 281.255H29.3926Z" fill="white" stroke="#585EFF" stroke-miterlimit="10" stroke-linecap="round" stroke-linejoin="round"/>
<path d="M30.9701 276.739C30.3771 277.362 29.8768 278.325 29.6076 279.382C28.9019 282.151 29.9747 284.795 31.9975 285.31C34.0202 285.826 36.225 284.026 36.9305 281.258C37.1998 280.201 37.2238 279.106 37.0016 278.276L30.9701 276.739Z" stroke="#585EFF" stroke-miterlimit="10" stroke-linecap="round" stroke-linejoin="round"/>
<path d="M32.0409 285.293L30.8926 289.799" stroke="#585EFF" stroke-miterlimit="10" stroke-linecap="round" stroke-linejoin="round"/>
<path d="M29.9658 289.486L31.8556 289.967" stroke="#585EFF" stroke-miterlimit="10" stroke-linecap="round" stroke-linejoin="round"/>
<g opacity="0.8">
<path d="M78.7173 270.552C78.7173 269.684 78.2273 269.138 77.1353 269.138H75.4973V272.008H77.1353C78.2273 272.008 78.7173 271.434 78.7173 270.552ZM73.5373 267.514H77.2053C79.5573 267.514 80.7333 268.872 80.7333 270.51C80.7333 271.7 80.0753 272.904 78.5073 273.324L80.8453 277.286H78.5773L76.4213 273.478H75.4973V277.286H73.5373V267.514ZM85.838 271.014C84.9 271.014 84.158 271.616 84.004 272.68H87.686C87.658 271.658 86.846 271.014 85.838 271.014ZM89.52 274.85C89.1 276.278 87.812 277.412 85.894 277.412C83.64 277.412 82.002 275.844 82.002 273.408C82.002 270.958 83.598 269.404 85.894 269.404C88.134 269.404 89.716 270.93 89.716 273.24C89.716 273.492 89.702 273.744 89.66 273.996H83.99C84.088 275.144 84.872 275.788 85.852 275.788C86.692 275.788 87.154 275.368 87.406 274.85H89.52ZM90.6427 273.394C90.6427 271.014 92.2527 269.418 94.2547 269.418C95.4167 269.418 96.2707 269.936 96.7467 270.538V269.53H98.7207V280.982H96.7467V276.222C96.2707 276.838 95.3887 277.398 94.2127 277.398C92.2527 277.398 90.6427 275.774 90.6427 273.394ZM96.7467 273.408C96.7467 271.91 95.7107 271.126 94.6887 271.126C93.6807 271.126 92.6447 271.896 92.6447 273.394C92.6447 274.892 93.6807 275.69 94.6887 275.69C95.7107 275.69 96.7467 274.906 96.7467 273.408ZM107.957 269.53V277.286H105.983V276.306C105.493 276.964 104.639 277.384 103.673 277.384C101.867 277.384 100.565 276.208 100.565 274.08V269.53H102.525V273.8C102.525 275.046 103.211 275.718 104.247 275.718C105.311 275.718 105.983 275.046 105.983 273.8V269.53H107.957ZM113.223 271.014C112.285 271.014 111.543 271.616 111.389 272.68H115.071C115.043 271.658 114.231 271.014 113.223 271.014ZM116.905 274.85C116.485 276.278 115.197 277.412 113.279 277.412C111.025 277.412 109.387 275.844 109.387 273.408C109.387 270.958 110.983 269.404 113.279 269.404C115.519 269.404 117.101 270.93 117.101 273.24C117.101 273.492 117.087 273.744 117.045 273.996H111.375C111.473 275.144 112.257 275.788 113.237 275.788C114.077 275.788 114.539 275.368 114.791 274.85H116.905ZM124.551 275.074C124.551 276.404 123.389 277.412 121.499 277.412C119.553 277.412 118.195 276.278 118.111 274.836H120.085C120.155 275.424 120.701 275.872 121.485 275.872C122.255 275.872 122.675 275.522 122.675 275.074C122.675 273.688 118.293 274.57 118.293 271.728C118.293 270.44 119.441 269.404 121.359 269.404C123.235 269.404 124.369 270.426 124.481 271.966H122.605C122.549 271.364 122.073 270.958 121.303 270.958C120.575 270.958 120.197 271.252 120.197 271.7C120.197 273.114 124.495 272.232 124.551 275.074ZM126.468 274.878V271.14H125.544V269.53H126.468V267.612H128.442V269.53H130.178V271.14H128.442V274.892C128.442 275.41 128.652 275.634 129.268 275.634H130.178V277.286H128.946C127.462 277.286 126.468 276.656 126.468 274.878ZM134.92 271.014C133.982 271.014 133.24 271.616 133.086 272.68H136.768C136.74 271.658 135.928 271.014 134.92 271.014ZM138.602 274.85C138.182 276.278 136.894 277.412 134.976 277.412C132.722 277.412 131.084 275.844 131.084 273.408C131.084 270.958 132.68 269.404 134.976 269.404C137.216 269.404 138.798 270.93 138.798 273.24C138.798 273.492 138.784 273.744 138.742 273.996H133.072C133.17 275.144 133.954 275.788 134.934 275.788C135.774 275.788 136.236 275.368 136.488 274.85H138.602ZM139.725 273.38C139.725 270.958 141.293 269.404 143.281 269.404C144.303 269.404 145.283 269.88 145.815 270.608V266.926H147.803V277.286H145.815V276.138C145.353 276.852 144.485 277.412 143.267 277.412C141.293 277.412 139.725 275.802 139.725 273.38ZM145.829 273.408C145.829 271.938 144.849 271.126 143.771 271.126C142.721 271.126 141.727 271.91 141.727 273.38C141.727 274.85 142.721 275.69 143.771 275.69C144.849 275.69 145.829 274.878 145.829 273.408ZM159.885 274.458C159.885 275.998 158.653 277.384 156.427 277.384C154.397 277.384 152.829 276.32 152.801 274.472H154.901C154.957 275.256 155.475 275.774 156.385 275.774C157.309 275.774 157.855 275.284 157.855 274.584C157.855 272.47 152.815 273.744 152.829 270.202C152.829 268.438 154.257 267.374 156.273 267.374C158.275 267.374 159.647 268.396 159.773 270.16H157.617C157.575 269.516 157.057 269.012 156.217 268.998C155.447 268.97 154.873 269.348 154.873 270.146C154.873 272.106 159.885 271.014 159.885 274.458ZM164.916 271.014C163.978 271.014 163.236 271.616 163.082 272.68H166.764C166.736 271.658 165.924 271.014 164.916 271.014ZM168.598 274.85C168.178 276.278 166.89 277.412 164.972 277.412C162.718 277.412 161.08 275.844 161.08 273.408C161.08 270.958 162.676 269.404 164.972 269.404C167.212 269.404 168.794 270.93 168.794 273.24C168.794 273.492 168.78 273.744 168.738 273.996H163.068C163.166 275.144 163.95 275.788 164.93 275.788C165.77 275.788 166.232 275.368 166.484 274.85H168.598ZM172.185 273.422V277.286H170.225V269.53H172.185V270.734C172.675 269.936 173.487 269.418 174.565 269.418V271.476H174.047C172.885 271.476 172.185 271.924 172.185 273.422ZM175.059 269.53H177.159L179.119 275.48L181.079 269.53H183.165L180.295 277.286H177.915L175.059 269.53ZM184.266 277.286V269.53H186.226V277.286H184.266ZM185.26 268.606C184.56 268.606 184.056 268.102 184.056 267.458C184.056 266.814 184.56 266.31 185.26 266.31C185.946 266.31 186.464 266.814 186.464 267.458C186.464 268.102 185.946 268.606 185.26 268.606ZM187.658 273.408C187.658 270.972 189.254 269.404 191.494 269.404C193.426 269.404 194.728 270.412 195.148 272.148H193.034C192.81 271.49 192.292 271.07 191.48 271.07C190.388 271.07 189.66 271.896 189.66 273.408C189.66 274.92 190.388 275.732 191.48 275.732C192.292 275.732 192.796 275.368 193.034 274.668H195.148C194.728 276.32 193.426 277.412 191.494 277.412C189.254 277.412 187.658 275.844 187.658 273.408ZM199.916 271.014C198.978 271.014 198.236 271.616 198.082 272.68H201.764C201.736 271.658 200.924 271.014 199.916 271.014ZM203.598 274.85C203.178 276.278 201.89 277.412 199.972 277.412C197.718 277.412 196.08 275.844 196.08 273.408C196.08 270.958 197.676 269.404 199.972 269.404C202.212 269.404 203.794 270.93 203.794 273.24C203.794 273.492 203.78 273.744 203.738 273.996H198.068C198.166 275.144 198.95 275.788 199.93 275.788C200.77 275.788 201.232 275.368 201.484 274.85H203.598ZM207.283 276.236C207.283 276.88 206.779 277.384 206.093 277.384C205.379 277.384 204.875 276.88 204.875 276.236C204.875 275.592 205.379 275.088 206.093 275.088C206.779 275.088 207.283 275.592 207.283 276.236ZM207.283 270.44C207.283 271.084 206.779 271.588 206.093 271.588C205.379 271.588 204.875 271.084 204.875 270.44C204.875 269.796 205.379 269.292 206.093 269.292C206.779 269.292 207.283 269.796 207.283 270.44Z" fill="#161616"/>
<path d="M73.1733 294.4C73.1733 291.474 75.3153 289.402 78.0453 289.402C80.1593 289.402 81.8393 290.466 82.5673 292.356H81.0413C80.5093 291.18 79.4733 290.522 78.0453 290.522C76.0013 290.522 74.4753 292.006 74.4753 294.4C74.4753 296.78 76.0013 298.264 78.0453 298.264C79.4733 298.264 80.5093 297.606 81.0413 296.444H82.5673C81.8393 298.32 80.1593 299.37 78.0453 299.37C75.3153 299.37 73.1733 297.326 73.1733 294.4ZM91.7437 295.436C91.7437 297.872 89.9937 299.412 87.8097 299.412C85.6397 299.412 83.9877 297.872 83.9877 295.436C83.9877 293.014 85.6957 291.488 87.8657 291.488C90.0497 291.488 91.7437 293.014 91.7437 295.436ZM85.2897 295.436C85.2897 297.382 86.4797 298.292 87.8097 298.292C89.1397 298.292 90.4417 297.382 90.4417 295.436C90.4417 293.504 89.1677 292.594 87.8517 292.594C86.5077 292.594 85.2897 293.504 85.2897 295.436ZM92.9428 295.436C92.9428 293.028 94.4968 291.488 96.6808 291.488C98.5848 291.488 99.8308 292.468 100.223 294.078H98.8508C98.5848 293.154 97.8148 292.566 96.6808 292.566C95.2808 292.566 94.2448 293.56 94.2448 295.436C94.2448 297.34 95.2808 298.334 96.6808 298.334C97.8148 298.334 98.5708 297.788 98.8508 296.822H100.223C99.8308 298.348 98.5848 299.412 96.6808 299.412C94.4968 299.412 92.9428 297.872 92.9428 295.436ZM101.923 299.286V288.926H103.197V295.016L106.151 291.614H107.929L104.317 295.436L107.943 299.286H106.207L103.197 295.898V299.286H101.923ZM109.408 297.186V292.664H108.414V291.614H109.408V289.682H110.682V291.614H112.684V292.664H110.682V297.186C110.682 297.942 110.962 298.208 111.746 298.208H112.684V299.286H111.536C110.178 299.286 109.408 298.726 109.408 297.186ZM113.751 295.422C113.751 293.028 115.333 291.488 117.391 291.488C118.819 291.488 119.799 292.216 120.247 293.014V291.614H121.535V299.286H120.247V297.858C119.785 298.684 118.791 299.412 117.377 299.412C115.333 299.412 113.751 297.802 113.751 295.422ZM120.247 295.436C120.247 293.658 119.043 292.594 117.643 292.594C116.243 292.594 115.053 293.616 115.053 295.422C115.053 297.228 116.243 298.292 117.643 298.292C119.043 298.292 120.247 297.242 120.247 295.436ZM123.688 299.286V291.614H124.962V299.286H123.688ZM124.346 290.368C123.856 290.368 123.478 289.99 123.478 289.5C123.478 289.01 123.856 288.632 124.346 288.632C124.808 288.632 125.186 289.01 125.186 289.5C125.186 289.99 124.808 290.368 124.346 290.368ZM127.134 299.286V288.926H128.408V299.286H127.134ZM140.653 296.626C140.653 298.012 139.519 299.384 137.405 299.384C135.445 299.384 134.059 298.292 134.031 296.682H135.389C135.473 297.494 136.047 298.306 137.405 298.306C138.637 298.306 139.365 297.606 139.365 296.682C139.365 294.05 134.087 295.73 134.087 292.104C134.087 290.494 135.389 289.402 137.321 289.402C139.183 289.402 140.401 290.424 140.555 291.908H139.155C139.071 291.25 138.455 290.508 137.265 290.494C136.215 290.466 135.389 291.012 135.389 292.062C135.389 294.582 140.653 293.014 140.653 296.626ZM145.79 292.566C144.544 292.566 143.508 293.392 143.368 294.89H148.212C148.226 293.392 147.106 292.566 145.79 292.566ZM149.374 296.92C148.982 298.32 147.75 299.412 145.846 299.412C143.662 299.412 142.052 297.872 142.052 295.436C142.052 293.014 143.606 291.488 145.846 291.488C148.072 291.488 149.528 293.056 149.528 295.156C149.528 295.436 149.514 295.66 149.486 295.926H143.354C143.452 297.48 144.544 298.334 145.846 298.334C146.994 298.334 147.722 297.746 148.002 296.92H149.374ZM152.484 295.114V299.286H151.21V291.614H152.484V292.86C152.918 292.006 153.744 291.474 154.962 291.474V292.79H154.626C153.408 292.79 152.484 293.336 152.484 295.114ZM155.522 291.614H156.894L159.288 298.11L161.668 291.614H163.026L160.016 299.286H158.532L155.522 291.614ZM167.542 292.566C166.296 292.566 165.26 293.392 165.12 294.89H169.964C169.978 293.392 168.858 292.566 167.542 292.566ZM171.126 296.92C170.734 298.32 169.502 299.412 167.598 299.412C165.414 299.412 163.804 297.872 163.804 295.436C163.804 293.014 165.358 291.488 167.598 291.488C169.824 291.488 171.28 293.056 171.28 295.156C171.28 295.436 171.266 295.66 171.238 295.926H165.106C165.204 297.48 166.296 298.334 167.598 298.334C168.746 298.334 169.474 297.746 169.754 296.92H171.126ZM174.236 295.114V299.286H172.962V291.614H174.236V292.86C174.67 292.006 175.496 291.474 176.714 291.474V292.79H176.378C175.16 292.79 174.236 293.336 174.236 295.114Z" fill="#575555"/>
</g>
<path d="M20.2893 342.2C20.2893 339.803 22.2321 337.861 24.6286 337.861H51.3714C53.768 337.861 55.7107 339.803 55.7107 342.2V368.943C55.7107 371.339 53.768 373.282 51.3714 373.282H24.6286C22.2321 373.282 20.2893 371.339 20.2893 368.943V342.2Z" fill="#FFF5EC"/>
<path d="M20.2893 342.2C20.2893 339.803 22.2321 337.861 24.6286 337.861H51.3714C53.768 337.861 55.7107 339.803 55.7107 342.2V368.943C55.7107 371.339 53.768 373.282 51.3714 373.282H24.6286C22.2321 373.282 20.2893 371.339 20.2893 368.943V342.2Z" stroke="#FFD6B1" stroke-width="0.578571"/>
<path d="M44.2856 349H32.2856C31.3388 349 30.5713 349.768 30.5713 350.714V362.714C30.5713 363.661 31.3388 364.429 32.2856 364.429H44.2856C45.2323 364.429 45.9999 363.661 45.9999 362.714V350.714C45.9999 349.768 45.2323 349 44.2856 349Z" stroke="#C46914" stroke-width="0.857143" stroke-linecap="round" stroke-linejoin="round"/>
<path d="M41.7139 347.286V350.714" stroke="#C46914" stroke-width="0.857143" stroke-linecap="round" stroke-linejoin="round"/>
<path d="M34.8574 347.286V350.714" stroke="#C46914" stroke-width="0.857143" stroke-linecap="round" stroke-linejoin="round"/>
<path d="M30.5713 354.143H45.9999" stroke="#C46914" stroke-width="0.857143" stroke-linecap="round" stroke-linejoin="round"/>
<g opacity="0.8">
<path d="M72.966 349.571V339.799H79V341.381H74.926V343.887H78.048V345.441H74.926V349.571H72.966ZM82.3498 345.707V349.571H80.3898V341.815H82.3498V343.019C82.8398 342.221 83.6518 341.703 84.7298 341.703V343.761H84.2118C83.0498 343.761 82.3498 344.209 82.3498 345.707ZM86.05 349.571V341.815H88.01V349.571H86.05ZM87.044 340.891C86.344 340.891 85.84 340.387 85.84 339.743C85.84 339.099 86.344 338.595 87.044 338.595C87.73 338.595 88.248 339.099 88.248 339.743C88.248 340.387 87.73 340.891 87.044 340.891ZM89.4425 345.665C89.4425 343.243 91.0105 341.689 92.9985 341.689C94.0205 341.689 95.0005 342.165 95.5325 342.893V339.211H97.5205V349.571H95.5325V348.423C95.0705 349.137 94.2025 349.697 92.9845 349.697C91.0105 349.697 89.4425 348.087 89.4425 345.665ZM95.5465 345.693C95.5465 344.223 94.5665 343.411 93.4885 343.411C92.4385 343.411 91.4445 344.195 91.4445 345.665C91.4445 347.135 92.4385 347.975 93.4885 347.975C94.5665 347.975 95.5465 347.163 95.5465 345.693ZM98.9307 345.665C98.9307 343.243 100.499 341.689 102.473 341.689C103.719 341.689 104.573 342.277 105.035 342.921V341.815H107.009V349.571H105.035V348.437C104.573 349.109 103.691 349.697 102.459 349.697C100.499 349.697 98.9307 348.087 98.9307 345.665ZM105.035 345.693C105.035 344.223 104.055 343.411 102.977 343.411C101.927 343.411 100.933 344.195 100.933 345.665C100.933 347.135 101.927 347.975 102.977 347.975C104.055 347.975 105.035 347.163 105.035 345.693ZM112.227 347.233L114.257 341.815H116.343L111.541 353.239H109.455L111.135 349.375L108.027 341.815H110.225L112.227 347.233ZM116.602 351.587L117.54 347.415H119.612L117.876 351.587H116.602ZM123.968 349.431V347.975C126.278 346.015 128.7 344.209 128.7 342.333C128.7 341.423 128.294 340.807 127.328 340.807C126.39 340.807 125.872 341.479 125.858 342.557H123.954C124.024 340.219 125.522 339.141 127.356 339.141C129.554 339.141 130.66 340.443 130.66 342.221C130.66 344.587 128.378 346.435 126.754 347.807H130.884V349.431H123.968ZM132.119 344.335C132.119 341.381 133.015 339.169 135.899 339.169C138.783 339.169 139.679 341.381 139.679 344.335C139.679 347.317 138.783 349.543 135.899 349.543C133.015 349.543 132.119 347.317 132.119 344.335ZM137.747 344.335C137.747 342.585 137.551 340.989 135.899 340.989C134.247 340.989 134.051 342.585 134.051 344.335C134.051 346.155 134.247 347.723 135.899 347.723C137.551 347.723 137.747 346.155 137.747 344.335ZM151.562 346.743C151.562 348.283 150.33 349.669 148.104 349.669C146.074 349.669 144.506 348.605 144.478 346.757H146.578C146.634 347.541 147.152 348.059 148.062 348.059C148.986 348.059 149.532 347.569 149.532 346.869C149.532 344.755 144.492 346.029 144.506 342.487C144.506 340.723 145.934 339.659 147.95 339.659C149.952 339.659 151.324 340.681 151.45 342.445H149.294C149.252 341.801 148.734 341.297 147.894 341.283C147.124 341.255 146.55 341.633 146.55 342.431C146.55 344.391 151.562 343.299 151.562 346.743ZM156.593 343.299C155.655 343.299 154.913 343.901 154.759 344.965H158.441C158.413 343.943 157.601 343.299 156.593 343.299ZM160.275 347.135C159.855 348.563 158.567 349.697 156.649 349.697C154.395 349.697 152.757 348.129 152.757 345.693C152.757 343.243 154.353 341.689 156.649 341.689C158.889 341.689 160.471 343.215 160.471 345.525C160.471 345.777 160.457 346.029 160.415 346.281H154.745C154.843 347.429 155.627 348.073 156.607 348.073C157.447 348.073 157.909 347.653 158.161 347.135H160.275ZM163.862 342.935C164.324 342.277 165.22 341.689 166.424 341.689C168.412 341.689 169.966 343.243 169.966 345.665C169.966 348.087 168.412 349.697 166.424 349.697C165.206 349.697 164.338 349.095 163.862 348.465V353.267H161.902V341.815H163.862V342.935ZM167.964 345.665C167.964 344.195 166.97 343.411 165.906 343.411C164.856 343.411 163.862 344.223 163.862 345.693C163.862 347.163 164.856 347.975 165.906 347.975C166.97 347.975 167.964 347.135 167.964 345.665ZM171.698 347.163V343.425H170.774V341.815H171.698V339.897H173.672V341.815H175.408V343.425H173.672V347.177C173.672 347.695 173.882 347.919 174.498 347.919H175.408V349.571H174.176C172.692 349.571 171.698 348.941 171.698 347.163ZM180.15 343.299C179.212 343.299 178.47 343.901 178.316 344.965H181.998C181.97 343.943 181.158 343.299 180.15 343.299ZM183.832 347.135C183.412 348.563 182.124 349.697 180.206 349.697C177.952 349.697 176.314 348.129 176.314 345.693C176.314 343.243 177.91 341.689 180.206 341.689C182.446 341.689 184.028 343.215 184.028 345.525C184.028 345.777 184.014 346.029 183.972 346.281H178.302C178.4 347.429 179.184 348.073 180.164 348.073C181.004 348.073 181.466 347.653 181.718 347.135H183.832ZM196.308 349.571V345.287C196.308 344.055 195.622 343.411 194.586 343.411C193.536 343.411 192.85 344.055 192.85 345.287V349.571H190.89V345.287C190.89 344.055 190.204 343.411 189.168 343.411C188.104 343.411 187.418 344.055 187.418 345.287V349.571H185.458V341.815H187.418V342.753C187.908 342.109 188.734 341.703 189.7 341.703C190.904 341.703 191.898 342.221 192.43 343.187C192.934 342.305 193.956 341.703 195.09 341.703C196.952 341.703 198.268 342.879 198.268 345.021V349.571H196.308ZM202.088 342.949C202.564 342.235 203.474 341.689 204.65 341.689C206.638 341.689 208.192 343.243 208.192 345.665C208.192 348.087 206.638 349.697 204.65 349.697C203.432 349.697 202.564 349.137 202.088 348.465V349.571H200.128V339.211H202.088V342.949ZM206.19 345.665C206.19 344.195 205.196 343.411 204.132 343.411C203.082 343.411 202.088 344.223 202.088 345.693C202.088 347.163 203.082 347.975 204.132 347.975C205.196 347.975 206.19 347.135 206.19 345.665ZM212.948 343.299C212.01 343.299 211.268 343.901 211.114 344.965H214.796C214.768 343.943 213.956 343.299 212.948 343.299ZM216.63 347.135C216.21 348.563 214.922 349.697 213.004 349.697C210.75 349.697 209.112 348.129 209.112 345.693C209.112 343.243 210.708 341.689 213.004 341.689C215.244 341.689 216.826 343.215 216.826 345.525C216.826 345.777 216.812 346.029 216.77 346.281H211.1C211.198 347.429 211.982 348.073 212.962 348.073C213.802 348.073 214.264 347.653 214.516 347.135H216.63ZM220.217 345.707V349.571H218.257V341.815H220.217V343.019C220.707 342.221 221.519 341.703 222.597 341.703V343.761H222.079C220.917 343.761 220.217 344.209 220.217 345.707ZM223.119 351.587L224.057 347.415H226.129L224.393 351.587H223.119ZM230.485 349.431V347.975C232.795 346.015 235.217 344.209 235.217 342.333C235.217 341.423 234.811 340.807 233.845 340.807C232.907 340.807 232.389 341.479 232.375 342.557H230.471C230.541 340.219 232.039 339.141 233.873 339.141C236.071 339.141 237.177 340.443 237.177 342.221C237.177 344.587 234.895 346.435 233.271 347.807H237.401V349.431H230.485ZM238.637 344.335C238.637 341.381 239.533 339.169 242.417 339.169C245.301 339.169 246.197 341.381 246.197 344.335C246.197 347.317 245.301 349.543 242.417 349.543C239.533 349.543 238.637 347.317 238.637 344.335ZM244.265 344.335C244.265 342.585 244.069 340.989 242.417 340.989C240.765 340.989 240.569 342.585 240.569 344.335C240.569 346.155 240.765 347.723 242.417 347.723C244.069 347.723 244.265 346.155 244.265 344.335ZM247.575 349.431V347.975C249.885 346.015 252.307 344.209 252.307 342.333C252.307 341.423 251.901 340.807 250.935 340.807C249.997 340.807 249.479 341.479 249.465 342.557H247.561C247.631 340.219 249.129 339.141 250.963 339.141C253.161 339.141 254.267 340.443 254.267 342.221C254.267 344.587 251.985 346.435 250.361 347.807H254.491V349.431H247.575ZM260.542 349.571V347.583H255.642V346.043L260.22 339.491H262.502V345.875H263.734V347.583H262.502V349.571H260.542ZM257.798 345.875H260.668V341.591L257.798 345.875Z" fill="#161616"/>
<path d="M73.876 371.571V362.611H72.532V361.449H75.164V371.571H73.876ZM78.3604 371.571V362.611H77.0164V361.449H79.6484V371.571H78.3604ZM83.2928 370.787C83.2928 371.277 82.9148 371.655 82.4528 371.655C81.9628 371.655 81.5848 371.277 81.5848 370.787C81.5848 370.297 81.9628 369.919 82.4528 369.919C82.9148 369.919 83.2928 370.297 83.2928 370.787ZM83.2928 364.795C83.2928 365.285 82.9148 365.663 82.4528 365.663C81.9628 365.663 81.5848 365.285 81.5848 364.795C81.5848 364.305 81.9628 363.927 82.4528 363.927C82.9148 363.927 83.2928 364.305 83.2928 364.795ZM84.8172 366.405C84.8172 363.507 85.5452 361.295 88.3452 361.295C91.1312 361.295 91.8592 363.507 91.8592 366.405C91.8592 369.345 91.1312 371.571 88.3452 371.571C85.5452 371.571 84.8172 369.345 84.8172 366.405ZM90.5992 366.405C90.5992 364.305 90.3332 362.457 88.3452 362.457C86.3432 362.457 86.0772 364.305 86.0772 366.405C86.0772 368.589 86.3432 370.409 88.3452 370.409C90.3332 370.409 90.5992 368.589 90.5992 366.405ZM93.6082 366.405C93.6082 363.507 94.3362 361.295 97.1362 361.295C99.9222 361.295 100.65 363.507 100.65 366.405C100.65 369.345 99.9222 371.571 97.1362 371.571C94.3362 371.571 93.6082 369.345 93.6082 366.405ZM99.3902 366.405C99.3902 364.305 99.1242 362.457 97.1362 362.457C95.1342 362.457 94.8682 364.305 94.8682 366.405C94.8682 368.589 95.1342 370.409 97.1362 370.409C99.1242 370.409 99.3902 368.589 99.3902 366.405ZM105.866 367.707C105.866 365.313 107.448 363.773 109.506 363.773C110.934 363.773 111.914 364.501 112.362 365.299V363.899H113.65V371.571H112.362V370.143C111.9 370.969 110.906 371.697 109.492 371.697C107.448 371.697 105.866 370.087 105.866 367.707ZM112.362 367.721C112.362 365.943 111.158 364.879 109.758 364.879C108.358 364.879 107.168 365.901 107.168 367.707C107.168 369.513 108.358 370.577 109.758 370.577C111.158 370.577 112.362 369.527 112.362 367.721ZM126.877 371.571V367.231C126.877 365.663 126.037 364.865 124.777 364.865C123.489 364.865 122.607 365.691 122.607 367.343V371.571H121.347V367.231C121.347 365.663 120.507 364.865 119.247 364.865C117.959 364.865 117.077 365.691 117.077 367.343V371.571H115.803V363.899H117.077V365.005C117.581 364.193 118.491 363.759 119.499 363.759C120.759 363.759 121.809 364.319 122.313 365.467C122.761 364.361 123.853 363.759 125.029 363.759C126.779 363.759 128.137 364.851 128.137 367.049V371.571H126.877ZM133.693 366.979V365.901H139.279V366.979H133.693ZM145.192 366.405C145.192 363.507 145.92 361.295 148.72 361.295C151.506 361.295 152.234 363.507 152.234 366.405C152.234 369.345 151.506 371.571 148.72 371.571C145.92 371.571 145.192 369.345 145.192 366.405ZM150.974 366.405C150.974 364.305 150.708 362.457 148.72 362.457C146.718 362.457 146.452 364.305 146.452 366.405C146.452 368.589 146.718 370.409 148.72 370.409C150.708 370.409 150.974 368.589 150.974 366.405ZM153.955 363.997C154.081 362.261 155.397 361.253 157.273 361.253C159.247 361.253 160.325 362.401 160.325 363.857C160.325 365.019 159.597 365.929 158.533 366.167V366.237C159.709 366.517 160.507 367.385 160.507 368.841C160.507 370.409 159.415 371.641 157.301 371.641C155.383 371.641 153.955 370.619 153.801 368.659H155.033C155.159 369.737 155.943 370.563 157.287 370.563C158.645 370.563 159.289 369.765 159.289 368.729C159.289 367.301 158.295 366.755 156.475 366.755H156.153V365.691H156.489C158.183 365.677 159.093 365.159 159.093 363.983C159.093 363.017 158.449 362.345 157.231 362.345C156.041 362.345 155.327 363.017 155.201 363.997H153.955ZM163.683 370.787C163.683 371.277 163.305 371.655 162.843 371.655C162.353 371.655 161.975 371.277 161.975 370.787C161.975 370.297 162.353 369.919 162.843 369.919C163.305 369.919 163.683 370.297 163.683 370.787ZM163.683 364.795C163.683 365.285 163.305 365.663 162.843 365.663C162.353 365.663 161.975 365.285 161.975 364.795C161.975 364.305 162.353 363.927 162.843 363.927C163.305 363.927 163.683 364.305 163.683 364.795ZM165.208 366.405C165.208 363.507 165.936 361.295 168.736 361.295C171.522 361.295 172.25 363.507 172.25 366.405C172.25 369.345 171.522 371.571 168.736 371.571C165.936 371.571 165.208 369.345 165.208 366.405ZM170.99 366.405C170.99 364.305 170.724 362.457 168.736 362.457C166.734 362.457 166.468 364.305 166.468 366.405C166.468 368.589 166.734 370.409 168.736 370.409C170.724 370.409 170.99 368.589 170.99 366.405ZM173.999 366.405C173.999 363.507 174.727 361.295 177.527 361.295C180.313 361.295 181.041 363.507 181.041 366.405C181.041 369.345 180.313 371.571 177.527 371.571C174.727 371.571 173.999 369.345 173.999 366.405ZM179.781 366.405C179.781 364.305 179.515 362.457 177.527 362.457C175.525 362.457 175.259 364.305 175.259 366.405C175.259 368.589 175.525 370.409 177.527 370.409C179.515 370.409 179.781 368.589 179.781 366.405ZM188.006 365.313C188.468 364.501 189.476 363.773 190.876 363.773C192.934 363.773 194.516 365.313 194.516 367.707C194.516 370.087 192.934 371.697 190.876 371.697C189.476 371.697 188.482 370.941 188.006 370.157V375.211H186.732V363.899H188.006V365.313ZM193.214 367.707C193.214 365.901 192.024 364.879 190.61 364.879C189.224 364.879 188.006 365.943 188.006 367.721C188.006 369.527 189.224 370.577 190.61 370.577C192.024 370.577 193.214 369.513 193.214 367.707ZM207.267 371.571V367.231C207.267 365.663 206.427 364.865 205.167 364.865C203.879 364.865 202.997 365.691 202.997 367.343V371.571H201.737V367.231C201.737 365.663 200.897 364.865 199.637 364.865C198.349 364.865 197.467 365.691 197.467 367.343V371.571H196.193V363.899H197.467V365.005C197.971 364.193 198.881 363.759 199.889 363.759C201.149 363.759 202.199 364.319 202.703 365.467C203.151 364.361 204.243 363.759 205.419 363.759C207.169 363.759 208.527 364.851 208.527 367.049V371.571H207.267Z" fill="#575555"/>
</g>
<path d="M20.2893 414.2C20.2893 411.803 22.2321 409.861 24.6286 409.861H51.3714C53.768 409.861 55.7107 411.803 55.7107 414.2V440.943C55.7107 443.339 53.768 445.282 51.3714 445.282H24.6286C22.2321 445.282 20.2893 443.339 20.2893 440.943V414.2Z" fill="#FFF1FD"/>
<path d="M20.2893 414.2C20.2893 411.803 22.2321 409.861 24.6286 409.861H51.3714C53.768 409.861 55.7107 411.803 55.7107 414.2V440.943C55.7107 443.339 53.768 445.282 51.3714 445.282H24.6286C22.2321 445.282 20.2893 443.339 20.2893 440.943V414.2Z" stroke="#FFB3F4" stroke-width="0.578571"/>
<path d="M45.9999 426.143C45.9999 432.143 38.2856 437.285 38.2856 437.285C38.2856 437.285 30.5713 432.143 30.5713 426.143C30.5713 424.097 31.384 422.134 32.8308 420.688C34.2775 419.241 36.2396 418.428 38.2856 418.428C40.3315 418.428 42.2937 419.241 43.7404 420.688C45.1871 422.134 45.9999 424.097 45.9999 426.143Z" stroke="#E229C7" stroke-width="0.857143" stroke-linecap="round" stroke-linejoin="round"/>
<path d="M38.2853 428.714C39.7055 428.714 40.8567 427.563 40.8567 426.143C40.8567 424.723 39.7055 423.571 38.2853 423.571C36.8651 423.571 35.7139 424.723 35.7139 426.143C35.7139 427.563 36.8651 428.714 38.2853 428.714Z" stroke="#E229C7" stroke-width="0.857143" stroke-linecap="round" stroke-linejoin="round"/>
<g opacity="0.8">
<path d="M74.94 421.585L72.308 411.799H74.408L76.13 419.387L78.118 411.799H80.302L82.178 419.345L83.914 411.799H86.028L83.298 421.571H80.988L79.154 414.613L77.236 421.571L74.94 421.585ZM90.6398 415.299C89.7018 415.299 88.9598 415.901 88.8058 416.965H92.4878C92.4598 415.943 91.6478 415.299 90.6398 415.299ZM94.3218 419.135C93.9018 420.563 92.6138 421.697 90.6958 421.697C88.4418 421.697 86.8038 420.129 86.8038 417.693C86.8038 415.243 88.3998 413.689 90.6958 413.689C92.9358 413.689 94.5178 415.215 94.5178 417.525C94.5178 417.777 94.5038 418.029 94.4618 418.281H88.7918C88.8898 419.429 89.6738 420.073 90.6538 420.073C91.4938 420.073 91.9558 419.653 92.2078 419.135H94.3218ZM101.968 419.359C101.968 420.689 100.806 421.697 98.9164 421.697C96.9704 421.697 95.6124 420.563 95.5284 419.121H97.5024C97.5724 419.709 98.1184 420.157 98.9024 420.157C99.6724 420.157 100.092 419.807 100.092 419.359C100.092 417.973 95.7104 418.855 95.7104 416.013C95.7104 414.725 96.8584 413.689 98.7764 413.689C100.652 413.689 101.786 414.711 101.898 416.251H100.022C99.9664 415.649 99.4904 415.243 98.7204 415.243C97.9924 415.243 97.6144 415.537 97.6144 415.985C97.6144 417.399 101.912 416.517 101.968 419.359ZM103.885 419.163V415.425H102.961V413.815H103.885V411.897H105.859V413.815H107.595V415.425H105.859V419.177C105.859 419.695 106.069 419.919 106.685 419.919H107.595V421.571H106.363C104.879 421.571 103.885 420.941 103.885 419.163ZM118.487 421.571V417.413H114.301V421.571H112.341V411.799H114.301V415.817H118.487V411.799H120.447V421.571H118.487ZM129.866 417.693C129.866 420.129 128.074 421.697 125.82 421.697C123.58 421.697 121.886 420.129 121.886 417.693C121.886 415.243 123.636 413.689 125.876 413.689C128.116 413.689 129.866 415.243 129.866 417.693ZM123.874 417.693C123.874 419.233 124.77 419.989 125.82 419.989C126.856 419.989 127.85 419.233 127.85 417.693C127.85 416.139 126.884 415.397 125.848 415.397C124.812 415.397 123.874 416.139 123.874 417.693ZM131.304 421.571V411.211H133.264V421.571H131.304ZM135.2 421.571V411.211H137.16V421.571H135.2ZM142.401 419.233L144.431 413.815H146.517L141.715 425.239H139.629L141.309 421.375L138.201 413.815H140.399L142.401 419.233ZM148.987 421.571L146.705 413.815H148.693L150.065 419.723L151.549 413.815H153.621L155.077 419.709L156.449 413.815H158.325L156.057 421.571H153.943L152.529 416.153L151.115 421.571H148.987ZM166.876 417.693C166.876 420.129 165.084 421.697 162.83 421.697C160.59 421.697 158.896 420.129 158.896 417.693C158.896 415.243 160.646 413.689 162.886 413.689C165.126 413.689 166.876 415.243 166.876 417.693ZM160.884 417.693C160.884 419.233 161.78 419.989 162.83 419.989C163.866 419.989 164.86 419.233 164.86 417.693C164.86 416.139 163.894 415.397 162.858 415.397C161.822 415.397 160.884 416.139 160.884 417.693ZM175.804 417.693C175.804 420.129 174.012 421.697 171.758 421.697C169.518 421.697 167.824 420.129 167.824 417.693C167.824 415.243 169.574 413.689 171.814 413.689C174.054 413.689 175.804 415.243 175.804 417.693ZM169.812 417.693C169.812 419.233 170.708 419.989 171.758 419.989C172.794 419.989 173.788 419.233 173.788 417.693C173.788 416.139 172.822 415.397 171.786 415.397C170.75 415.397 169.812 416.139 169.812 417.693ZM176.737 417.665C176.737 415.243 178.305 413.689 180.293 413.689C181.315 413.689 182.295 414.165 182.827 414.893V411.211H184.815V421.571H182.827V420.423C182.365 421.137 181.497 421.697 180.279 421.697C178.305 421.697 176.737 420.087 176.737 417.665ZM182.841 417.693C182.841 416.223 181.861 415.411 180.783 415.411C179.733 415.411 178.739 416.195 178.739 417.665C178.739 419.135 179.733 419.975 180.783 419.975C181.861 419.975 182.841 419.163 182.841 417.693Z" fill="#161616"/>
<path d="M73.078 433.813H74.352V442.535H77.768V443.571H73.078V433.813ZM86.401 439.721C86.401 442.157 84.651 443.697 82.467 443.697C80.297 443.697 78.645 442.157 78.645 439.721C78.645 437.299 80.353 435.773 82.523 435.773C84.707 435.773 86.401 437.299 86.401 439.721ZM79.947 439.721C79.947 441.667 81.137 442.577 82.467 442.577C83.797 442.577 85.099 441.667 85.099 439.721C85.099 437.789 83.825 436.879 82.509 436.879C81.165 436.879 79.947 437.789 79.947 439.721ZM93.592 441.485C93.592 442.745 92.486 443.697 90.792 443.697C89 443.697 87.74 442.717 87.656 441.317H88.972C89.042 442.059 89.7 442.619 90.778 442.619C91.786 442.619 92.346 442.115 92.346 441.485C92.346 439.777 87.81 440.771 87.81 437.915C87.81 436.739 88.916 435.773 90.624 435.773C92.318 435.773 93.438 436.683 93.522 438.181H92.248C92.192 437.411 91.604 436.851 90.582 436.851C89.644 436.851 89.084 437.299 89.084 437.915C89.084 439.735 93.536 438.741 93.592 441.485ZM105.675 443.571L104.891 441.401H100.635L99.8509 443.571H98.5069L102.035 433.869H103.505L107.019 443.571H105.675ZM104.527 440.365L102.763 435.437L100.999 440.365H104.527ZM114.171 443.571V439.231C114.171 437.663 113.317 436.865 112.029 436.865C110.727 436.865 109.831 437.677 109.831 439.329V443.571H108.557V435.899H109.831V436.991C110.335 436.193 111.259 435.759 112.295 435.759C114.073 435.759 115.431 436.851 115.431 439.049V443.571H114.171ZM117.036 439.707C117.036 437.313 118.618 435.773 120.676 435.773C122.076 435.773 123.084 436.473 123.532 437.299V435.899H124.82V443.739C124.82 445.853 123.406 447.351 121.152 447.351C119.136 447.351 117.694 446.329 117.442 444.691H118.702C118.982 445.615 119.892 446.245 121.152 446.245C122.51 446.245 123.532 445.377 123.532 443.739V442.129C123.07 442.955 122.076 443.697 120.676 443.697C118.618 443.697 117.036 442.087 117.036 439.707ZM123.532 439.721C123.532 437.943 122.328 436.879 120.928 436.879C119.528 436.879 118.338 437.901 118.338 439.707C118.338 441.513 119.528 442.577 120.928 442.577C122.328 442.577 123.532 441.527 123.532 439.721ZM130.235 436.851C128.989 436.851 127.953 437.677 127.813 439.175H132.657C132.671 437.677 131.551 436.851 130.235 436.851ZM133.819 441.205C133.427 442.605 132.195 443.697 130.291 443.697C128.107 443.697 126.497 442.157 126.497 439.721C126.497 437.299 128.051 435.773 130.291 435.773C132.517 435.773 133.973 437.341 133.973 439.441C133.973 439.721 133.959 439.945 133.931 440.211H127.799C127.897 441.765 128.989 442.619 130.291 442.619C131.439 442.619 132.167 442.031 132.447 441.205H133.819ZM135.654 443.571V433.211H136.928V443.571H135.654ZM142.361 436.851C141.115 436.851 140.079 437.677 139.939 439.175H144.783C144.797 437.677 143.677 436.851 142.361 436.851ZM145.945 441.205C145.553 442.605 144.321 443.697 142.417 443.697C140.233 443.697 138.623 442.157 138.623 439.721C138.623 437.299 140.177 435.773 142.417 435.773C144.643 435.773 146.099 437.341 146.099 439.441C146.099 439.721 146.085 439.945 146.057 440.211H139.925C140.023 441.765 141.115 442.619 142.417 442.619C143.565 442.619 144.293 442.031 144.573 441.205H145.945ZM153.297 441.485C153.297 442.745 152.191 443.697 150.497 443.697C148.705 443.697 147.445 442.717 147.361 441.317H148.677C148.747 442.059 149.405 442.619 150.483 442.619C151.491 442.619 152.051 442.115 152.051 441.485C152.051 439.777 147.515 440.771 147.515 437.915C147.515 436.739 148.621 435.773 150.329 435.773C152.023 435.773 153.143 436.683 153.227 438.181H151.953C151.897 437.411 151.309 436.851 150.287 436.851C149.349 436.851 148.789 437.299 148.789 437.915C148.789 439.735 153.241 438.741 153.297 441.485ZM153.99 445.573L155.012 441.807H156.412L154.844 445.573H153.99ZM161.127 438.685C161.127 435.759 163.269 433.687 165.999 433.687C168.113 433.687 169.793 434.751 170.521 436.641H168.995C168.463 435.465 167.427 434.807 165.999 434.807C163.955 434.807 162.429 436.291 162.429 438.685C162.429 441.065 163.955 442.549 165.999 442.549C167.427 442.549 168.463 441.891 168.995 440.729H170.521C169.793 442.605 168.113 443.655 165.999 443.655C163.269 443.655 161.127 441.611 161.127 438.685ZM171.942 439.707C171.942 437.313 173.524 435.773 175.582 435.773C177.01 435.773 177.99 436.501 178.438 437.299V435.899H179.726V443.571H178.438V442.143C177.976 442.969 176.982 443.697 175.568 443.697C173.524 443.697 171.942 442.087 171.942 439.707ZM178.438 439.721C178.438 437.943 177.234 436.879 175.834 436.879C174.434 436.879 173.244 437.901 173.244 439.707C173.244 441.513 174.434 442.577 175.834 442.577C177.234 442.577 178.438 441.527 178.438 439.721ZM181.879 443.571V433.211H183.153V443.571H181.879ZM185.324 443.571V435.899H186.598V443.571H185.324ZM185.982 434.653C185.492 434.653 185.114 434.275 185.114 433.785C185.114 433.295 185.492 432.917 185.982 432.917C186.444 432.917 186.822 433.295 186.822 433.785C186.822 434.275 186.444 434.653 185.982 434.653ZM189.007 443.571V436.949H188.013V435.899H189.007V435.353C189.007 433.645 189.847 432.875 191.807 432.875V433.939C190.659 433.939 190.281 434.359 190.281 435.353V435.899H191.891V436.949H190.281V443.571H189.007ZM200.657 439.721C200.657 442.157 198.907 443.697 196.723 443.697C194.553 443.697 192.901 442.157 192.901 439.721C192.901 437.299 194.609 435.773 196.779 435.773C198.963 435.773 200.657 437.299 200.657 439.721ZM194.203 439.721C194.203 441.667 195.393 442.577 196.723 442.577C198.053 442.577 199.355 441.667 199.355 439.721C199.355 437.789 198.081 436.879 196.765 436.879C195.421 436.879 194.203 437.789 194.203 439.721ZM203.606 439.399V443.571H202.332V435.899H203.606V437.145C204.04 436.291 204.866 435.759 206.084 435.759V437.075H205.748C204.53 437.075 203.606 437.621 203.606 439.399ZM213.169 443.571V439.231C213.169 437.663 212.315 436.865 211.027 436.865C209.725 436.865 208.829 437.677 208.829 439.329V443.571H207.555V435.899H208.829V436.991C209.333 436.193 210.257 435.759 211.293 435.759C213.071 435.759 214.429 436.851 214.429 439.049V443.571H213.169ZM216.51 443.571V435.899H217.784V443.571H216.51ZM217.168 434.653C216.678 434.653 216.3 434.275 216.3 433.785C216.3 433.295 216.678 432.917 217.168 432.917C217.63 432.917 218.008 433.295 218.008 433.785C218.008 434.275 217.63 434.653 217.168 434.653ZM219.479 439.707C219.479 437.313 221.061 435.773 223.119 435.773C224.547 435.773 225.527 436.501 225.975 437.299V435.899H227.263V443.571H225.975V442.143C225.513 442.969 224.519 443.697 223.105 443.697C221.061 443.697 219.479 442.087 219.479 439.707ZM225.975 439.721C225.975 437.943 224.771 436.879 223.371 436.879C221.971 436.879 220.781 437.901 220.781 439.707C220.781 441.513 221.971 442.577 223.371 442.577C224.771 442.577 225.975 441.527 225.975 439.721Z" fill="#575555"/>
</g>
<g filter="url(#filter0_b_7010_60939)">
<rect width="394" height="490" fill="url(#paint0_linear_7010_60939)"/>
</g>
<defs>
<filter id="filter0_b_7010_60939" x="-6" y="-6" width="406" height="502" filterUnits="userSpaceOnUse" color-interpolation-filters="sRGB">
<feFlood flood-opacity="0" result="BackgroundImageFix"/>
<feGaussianBlur in="BackgroundImageFix" stdDeviation="3"/>
<feComposite in2="SourceAlpha" operator="in" result="effect1_backgroundBlur_7010_60939"/>
<feBlend mode="normal" in="SourceGraphic" in2="effect1_backgroundBlur_7010_60939" result="shape"/>
</filter>
<linearGradient id="paint0_linear_7010_60939" x1="197" y1="0" x2="197" y2="490" gradientUnits="userSpaceOnUse">
<stop stop-color="#F6F9FC" stop-opacity="0"/>
<stop offset="1" stop-color="#F6F9FC"/>
</linearGradient>
</defs>
</svg>
