<svg width="86" height="71" viewBox="0 0 86 71" fill="none" xmlns="http://www.w3.org/2000/svg">
<path d="M46.1821 14.5269C46.3989 14.0217 46.6502 13.5276 46.888 13.0317C47.2825 12.209 47.6848 11.3901 48.0937 10.5744C48.4412 9.88129 48.7938 9.19096 49.1478 8.50118C49.2944 8.21528 49.4422 7.93 49.593 7.64636C49.714 7.41997 49.8428 7.1868 49.906 6.93702C49.9339 6.8271 49.7962 6.74359 49.7147 6.82663C49.5026 7.04262 49.353 7.34795 49.2073 7.62324C49.014 7.98766 48.8212 8.35235 48.631 8.71841C48.1906 9.56551 47.7671 10.4219 47.3464 11.2788C47.0321 11.919 46.7213 12.5612 46.4236 13.2093C46.2435 13.6014 46.0445 14.0057 45.9405 14.4263C45.9058 14.5664 46.1212 14.6691 46.1821 14.5269Z" fill="#161616"/>
<path d="M43.2804 13.8737C43.3003 12.402 43.2585 10.9311 43.215 9.45984C43.1588 7.56073 43.0775 5.66197 42.9905 3.7641C42.9612 3.12637 42.9224 2.48932 42.8804 1.85221C42.8633 1.59476 42.8551 1.3328 42.8197 1.10196C42.8082 1.02583 42.7959 0.927345 42.7867 0.823587C42.7823 0.77571 42.7803 0.726874 42.7714 0.679611C42.7678 0.661213 42.7605 0.642609 42.7555 0.624484C42.7505 0.606632 42.7388 0.528523 42.7405 0.584334C42.7374 0.477841 42.5724 0.476815 42.5754 0.582967C42.5739 0.532627 42.5683 0.605401 42.5643 0.624141C42.558 0.652047 42.5513 0.679543 42.548 0.708132C42.541 0.763055 42.5436 0.820236 42.5422 0.875501C42.5393 0.99882 42.5252 1.11728 42.5233 1.25189C42.5184 1.56713 42.5247 1.88237 42.5282 2.19761C42.5378 3.02186 42.57 3.84515 42.5995 4.66885C42.6674 6.57753 42.7543 8.48601 42.8343 10.3943C42.8828 11.5524 42.9535 12.7124 42.9698 13.8714C42.9725 14.072 43.2777 14.0741 43.2804 13.8737Z" fill="#161616"/>
<path d="M47.6661 16.041C47.6812 16.0387 47.6962 16.0366 47.7115 16.0346C47.6604 16.0413 47.7554 16.0474 47.6897 16.0289C47.7719 16.0523 47.8438 15.9988 47.913 15.9624C48.004 15.9148 48.0905 15.8566 48.1792 15.8046C48.4175 15.6654 48.6569 15.5282 48.8973 15.3929C49.5636 15.0186 50.2344 14.6518 50.9049 14.2849C52.5274 13.3973 54.157 12.5225 55.7637 11.6064C56.3612 11.2656 56.9558 10.9198 57.5406 10.5577C57.7732 10.4135 58.007 10.2689 58.2317 10.1126C58.3238 10.0486 58.4145 9.98214 58.5042 9.91477C58.5572 9.87462 58.6061 9.83215 58.6548 9.78694C58.6709 9.77176 58.6866 9.75575 58.702 9.74002C58.7158 9.72586 58.8035 9.647 58.7553 9.68503C58.8337 9.62333 58.8181 9.48983 58.7539 9.42642C58.6764 9.34989 58.5733 9.36596 58.4952 9.42765C58.4918 9.43025 58.4886 9.43278 58.4853 9.43552C58.5129 9.41958 58.5403 9.40337 58.568 9.38737C58.3254 9.48504 58.1067 9.66266 57.8897 9.80609C57.6101 9.99111 57.3248 10.1682 57.0383 10.3422C56.3195 10.7781 55.5888 11.1941 54.8559 11.6053C53.2572 12.5025 51.645 13.3743 50.0418 14.2633C49.5071 14.5599 48.9753 14.8616 48.4508 15.1761C48.2621 15.2894 48.0756 15.4057 47.8927 15.5283C47.8113 15.5829 47.7319 15.6382 47.6574 15.7016C47.6475 15.7101 47.6009 15.7481 47.6476 15.7122C47.6099 15.741 47.5813 15.7682 47.5682 15.8158C47.5291 15.9584 47.6036 15.7431 47.5765 15.7996C47.5641 15.8252 47.5522 15.8514 47.5408 15.8777C47.5 15.9708 47.5661 16.0561 47.6661 16.041Z" fill="#161616"/>
<path d="M47.9307 18.6254C48.6896 18.6759 49.4504 18.6983 50.21 18.7348C51.2626 18.7853 52.3169 18.8153 53.3702 18.8419C54.5001 18.8705 55.6312 18.8815 56.7609 18.8603C57.2876 18.8506 57.814 18.8325 58.34 18.8019C58.8052 18.7748 59.2982 18.7533 59.7414 18.5997C59.8789 18.5521 59.8529 18.3638 59.7095 18.3509C59.2473 18.3098 58.7749 18.3668 58.3126 18.3937C57.7862 18.4244 57.2586 18.4413 56.7309 18.4512C55.6008 18.4723 54.4696 18.4578 53.3393 18.4349C52.2968 18.414 51.2553 18.3712 50.2128 18.3495C49.4548 18.3337 48.6898 18.2924 47.9326 18.3421C47.7507 18.354 47.748 18.6132 47.9307 18.6254Z" fill="#161616"/>
<path d="M45.1741 22.9233C45.213 22.8017 45.2293 22.6779 45.2575 22.5538C45.1496 22.568 45.0417 22.5825 44.9334 22.5968C45.6414 24.1035 46.3524 25.6087 47.0818 27.1051C47.9099 28.8041 48.7456 30.5056 49.6872 32.1452C49.8824 32.4847 50.081 32.8296 50.3133 33.1453C50.3605 33.2095 50.4086 33.2732 50.4575 33.3362C50.4868 33.3738 50.5159 33.4116 50.5466 33.448C50.5595 33.4637 50.5726 33.4789 50.5858 33.4943C50.5512 33.454 50.6146 33.5292 50.6231 33.5395C50.6701 33.5985 50.719 33.6415 50.7826 33.6822C50.7999 33.6931 50.8149 33.7032 50.8356 33.7086C50.7764 33.6928 50.7939 33.6856 50.8241 33.7111C50.8447 33.7285 50.8921 33.7657 50.8955 33.7695C50.9918 33.8735 51.1464 33.7171 51.0503 33.6129C51.0395 33.6011 50.9957 33.5224 50.9719 33.4923C50.9848 33.5236 50.9976 33.5549 51.0104 33.5861C50.9999 33.4524 50.9081 33.3487 50.8401 33.2392C50.7665 33.1203 50.6923 33.0018 50.6213 32.881C50.4459 32.583 50.261 32.2906 50.0867 31.9915C49.6416 31.2283 49.2263 30.4472 48.8189 29.6632C47.9206 27.9328 47.0741 26.1767 46.2213 24.4235C45.8957 23.7541 45.5737 23.0827 45.2395 22.4172C45.1465 22.2319 44.872 22.3644 44.9149 22.553C44.9435 22.6771 44.9597 22.8013 44.9986 22.9229C45.0267 23.0095 45.146 23.0106 45.1741 22.9233Z" fill="#161616"/>
<path d="M46.2166 20.9534C46.1863 20.976 46.1665 20.9996 46.1533 21.0353C46.1447 21.0585 46.1347 21.1773 46.1481 21.0868C46.1454 21.1045 46.1433 21.1214 46.1428 21.1392C46.1418 21.1922 46.1428 21.1043 46.1425 21.1762C46.1425 21.1812 46.1689 21.2744 46.1518 21.2222C46.1542 21.2294 46.1569 21.2366 46.1594 21.2439C46.1694 21.2704 46.1808 21.2968 46.1924 21.3228C46.2849 21.531 46.4483 21.7177 46.5961 21.8878C47.097 22.4637 47.6547 22.9895 48.2126 23.509C48.8784 24.1291 49.5665 24.725 50.2652 25.3077C50.5777 25.5683 50.8893 25.8436 51.2222 26.078C51.2912 26.1264 51.3592 26.1766 51.4267 26.2279C51.4964 26.2811 51.5708 26.3139 51.6423 26.3614C51.7603 26.4398 51.8797 26.5136 52.0027 26.5839C52.0068 26.5863 52.0113 26.5887 52.0158 26.5913C52.0873 26.6322 52.1634 26.5347 52.1033 26.4763C52.0026 26.3788 51.9024 26.2814 51.7994 26.1864C51.742 26.1333 51.6987 26.0705 51.6373 26.019C51.5678 25.9606 51.4957 25.9037 51.4314 25.8397C51.2962 25.705 51.1383 25.5887 50.9936 25.4647C50.8341 25.3282 50.6751 25.1911 50.516 25.054C49.8269 24.4608 49.1468 23.8563 48.4732 23.2458C47.9391 22.7617 47.4074 22.2698 46.9098 21.7479C46.8221 21.6557 46.7371 21.5609 46.6505 21.4675C46.6158 21.4299 46.5818 21.3919 46.5483 21.3533C46.5322 21.3344 46.516 21.3153 46.5002 21.2959C46.4928 21.287 46.4857 21.2777 46.4784 21.2686C46.4546 21.2388 46.4959 21.2917 46.4734 21.2621C46.4578 21.2415 46.4418 21.2214 46.4255 21.2016C46.4035 21.1745 46.4323 21.2119 46.4064 21.1766C46.3965 21.163 46.3875 21.1494 46.3785 21.1355C46.3676 21.1179 46.3113 21.05 46.3388 21.0828C46.3626 21.1115 46.3373 21.0799 46.3323 21.0719C46.3169 21.0473 46.3364 21.1102 46.336 21.0846C46.3358 21.079 46.322 21.1072 46.3304 21.1C46.4102 21.0313 46.3016 20.8902 46.2166 20.9534Z" fill="#161616"/>
<path d="M44.7451 27.5265C44.749 27.7888 44.7975 28.0586 44.8398 28.3172C44.8856 28.5963 44.9375 28.8742 44.9924 29.1515C45.1039 29.7154 45.2382 30.2743 45.3752 30.8325C45.5121 31.3901 45.65 31.9478 45.7918 32.5039C45.8661 32.7948 45.9336 33.0877 46.012 33.3773C46.0876 33.6579 46.1422 33.9708 46.2816 34.2278C46.3286 34.3143 46.4492 34.2684 46.456 34.1812C46.4766 33.9035 46.3952 33.6067 46.3418 33.3357C46.2837 33.041 46.2106 32.749 46.1412 32.4566C46.0082 31.8977 45.8622 31.3417 45.7242 30.784C45.5896 30.2397 45.4623 29.6936 45.3414 29.1461C45.2802 28.87 45.2236 28.5932 45.1711 28.3153C45.1195 28.0424 45.0836 27.7607 45.0126 27.4921C44.9737 27.3442 44.7425 27.3715 44.7451 27.5265Z" fill="#161616"/>
<path d="M42.0988 21.7276C42.0524 21.6945 41.98 21.7094 41.9297 21.7174C41.9714 21.723 42.0129 21.7284 42.0546 21.734C42.0534 21.7333 42.052 21.7327 42.0507 21.732C41.9789 21.6974 41.883 21.6964 41.8258 21.7623C41.565 22.0637 41.35 22.4023 41.1345 22.7365C40.7565 23.3225 40.3898 23.9159 40.0265 24.5113C39.0929 26.0401 38.1707 27.5757 37.2276 29.0986C36.8185 29.7594 36.3983 30.4134 35.9841 31.0709C35.8126 31.343 35.6363 31.612 35.466 31.8846C35.3286 32.105 35.2076 32.3289 35.0877 32.5588C35.0326 32.6639 35.1654 32.7681 35.2524 32.6845C35.7076 32.2463 36.043 31.7243 36.4042 31.184C36.8699 30.4876 37.305 29.7687 37.7451 29.0559C38.6805 27.5408 39.5967 26.0141 40.5257 24.4951C40.8554 23.9564 41.1826 23.416 41.5205 22.8823C41.6389 22.6956 41.7605 22.5109 41.8804 22.3254C41.9229 22.2598 41.9661 22.1945 42.0107 22.1303C42.0291 22.1038 42.0479 22.0776 42.067 22.0517C42.0987 22.0088 42.0425 22.0829 42.067 22.0515C42.0744 22.0417 42.082 22.0324 42.09 22.0233C42.143 21.9619 42.1652 21.8716 42.118 21.7987C42.1545 21.855 42.134 21.9009 42.139 21.8573C42.139 21.8558 42.1313 21.9015 42.1379 21.8697C42.1435 21.8428 42.1252 21.89 42.1207 21.8939C42.1768 21.8452 42.1497 21.7645 42.0988 21.7276Z" fill="#161616"/>
<path d="M39.4953 19.1607C38.8053 19.2196 38.1236 19.3866 37.4458 19.5231C36.4541 19.7228 35.4625 19.9241 34.4736 20.1379C33.6705 20.3116 32.8679 20.4903 32.0734 20.701C31.415 20.8755 30.755 21.0734 30.1388 21.367C30.0653 21.4022 30.1182 21.5129 30.1925 21.4953C32.0803 21.0454 33.9659 20.5887 35.8661 20.1924C36.5913 20.0413 37.3174 19.8948 38.0433 19.7472C38.5396 19.6461 39.0492 19.559 39.5227 19.374C39.6275 19.3333 39.6273 19.1492 39.4953 19.1607Z" fill="#161616"/>
<path d="M39.1574 16.4651C39.1351 16.4463 39.1132 16.4274 39.0914 16.408C39.0994 16.4228 39.1073 16.4376 39.1153 16.4524C39.1092 16.4301 39.0981 16.4107 39.0817 16.3945C39.0788 16.3914 38.997 16.3495 39.0385 16.3677C39.0173 16.3584 38.9966 16.3487 38.9756 16.339C38.8856 16.2972 38.7958 16.2545 38.7057 16.2125C38.4494 16.0931 38.182 15.9953 37.9191 15.891C37.2025 15.6066 36.4885 15.315 35.7761 15.0202C34.0431 14.3034 32.319 13.5594 30.6211 12.763C29.6313 12.2987 28.6667 11.7978 27.7139 11.2632C27.5056 11.1464 27.3524 11.4398 27.5335 11.5753C28.0558 11.9658 28.6674 12.2541 29.2477 12.5455C30.0412 12.944 30.8469 13.3183 31.6558 13.684C33.3403 14.4455 35.0459 15.1612 36.7629 15.8459C37.2403 16.0363 37.7212 16.2207 38.2053 16.3932C38.3782 16.4547 38.5504 16.5108 38.7288 16.5541C38.796 16.5704 38.8633 16.5865 38.9306 16.6015C38.9507 16.6059 38.9702 16.6129 38.9909 16.6133C39.0144 16.6133 39.0363 16.6073 39.0566 16.5955C39.0267 16.6171 38.9877 16.6097 39.0252 16.6064C39.0507 16.6041 39.0762 16.6017 39.1018 16.5991C39.1627 16.593 39.2157 16.5148 39.1574 16.4651Z" fill="#161616"/>
<path d="M40.0132 14.4286C39.9838 14.3046 39.8871 14.2367 39.7976 14.1547C39.6974 14.0629 39.5953 13.9753 39.4903 13.8889C39.2869 13.7217 39.084 13.5537 38.8817 13.3851C38.453 13.0278 38.0247 12.6707 37.6009 12.3077C37.1785 11.9458 36.7586 11.5806 36.3452 11.2085C36.1377 11.0219 35.9281 10.8345 35.7145 10.6549C35.489 10.4655 35.2768 10.2636 35.0436 10.0832C34.9724 10.0279 34.8393 10.1046 34.9058 10.1903C35.2499 10.6333 35.6587 11.0423 36.0669 11.4269C36.4822 11.8182 36.9045 12.2019 37.3336 12.5779C37.753 12.9455 38.1764 13.3081 38.6061 13.6635C38.809 13.8316 39.0126 13.9986 39.2169 14.1652C39.3244 14.253 39.4327 14.3383 39.5448 14.42C39.652 14.4982 39.7475 14.5893 39.8861 14.5928C39.9731 14.5953 40.0324 14.5095 40.0132 14.4286Z" fill="#161616"/>
<path d="M41.2546 13.8486C41.2371 13.761 41.2347 13.6724 41.2091 13.5867C41.1832 13.4987 41.1436 13.4268 41.1287 13.3341C41.0979 13.145 41.0628 12.956 41.0215 12.7688C40.9427 12.4116 40.8181 12.0582 40.7073 11.7099C40.4833 11.0067 40.2389 10.3108 39.9868 9.61719C39.4842 8.23373 38.9819 6.8513 38.5103 5.45682C38.3913 5.10465 38.276 4.73715 38.11 4.40406C38.0665 4.31658 37.916 4.3557 37.9231 4.45399C37.9492 4.81081 38.0483 5.16614 38.1403 5.51065C38.2349 5.86358 38.3442 6.21411 38.4621 6.55986C38.6999 7.25654 38.9532 7.9479 39.2084 8.63823C39.7205 10.023 40.2397 11.406 40.6968 12.81C40.756 12.9921 40.8339 13.1703 40.9057 13.348C40.9415 13.4361 40.9568 13.5118 40.9739 13.604C40.9929 13.7081 41.0395 13.7975 41.0715 13.8976C41.1087 14.0147 41.2785 13.9682 41.2546 13.8486Z" fill="#161616"/>
<path d="M40.0909 1.51118C40.1145 2.07805 40.2127 2.64287 40.2714 3.20715C40.3322 3.7929 40.3767 4.38029 40.4278 4.96713C40.5287 6.12051 40.6369 7.26636 40.9134 8.39347C40.928 8.45263 41.0282 8.44217 41.0217 8.37952C40.9042 7.22997 40.8158 6.07605 40.7205 4.92391C40.6733 4.35184 40.6189 3.77976 40.5558 3.20927C40.4921 2.63521 40.441 2.04173 40.2696 1.48827C40.24 1.39333 40.0865 1.40523 40.0909 1.51118Z" fill="#161616"/>
<path d="M33.4969 4.86051C34.0867 5.56814 34.6926 6.26025 35.3106 6.94367C35.6344 7.30145 35.9608 7.65698 36.2901 8.00956C36.4619 8.19334 36.6347 8.37535 36.8123 8.55338C36.993 8.7347 37.1792 8.90104 37.3841 9.05357C37.4651 9.11424 37.5748 8.99612 37.5206 8.91582C37.2384 8.49634 36.881 8.13049 36.5367 7.76019C36.2084 7.40664 35.8812 7.0518 35.5569 6.6947C34.938 6.01409 34.3276 5.32554 33.7193 4.63575C33.5833 4.48166 33.368 4.70593 33.4969 4.86051Z" fill="#161616"/>
<path d="M29.4346 9.0831C30.06 9.56831 30.7299 10.002 31.3866 10.4432C32.2354 11.0133 33.0799 11.5939 33.9565 12.1211C34.1494 12.2371 34.3415 12.3528 34.5419 12.4558C34.7076 12.5408 34.8679 12.6477 35.049 12.6973C35.1296 12.7196 35.1907 12.6157 35.13 12.5568C35.0021 12.4324 34.8414 12.3395 34.6942 12.2394C34.5163 12.119 34.3407 11.9949 34.1624 11.8747C33.7491 11.5959 33.3346 11.319 32.9184 11.0441C32.0923 10.4985 31.2738 9.94176 30.4423 9.40388C30.1612 9.22229 29.883 9.03858 29.5837 8.88769C29.4649 8.82812 29.3182 8.99261 29.4346 9.0831Z" fill="#161616"/>
<path d="M37.1188 34.3324C37.1211 34.3357 37.1055 34.3396 37.1274 34.3116C37.1565 34.2738 37.1777 34.229 37.2046 34.1891C37.2737 34.0846 37.3371 33.9794 37.4 33.8711C37.5489 33.6143 37.6704 33.3447 37.8135 33.0854C38.1424 32.4899 38.4559 31.8853 38.7488 31.2712C39.0579 30.623 39.3533 29.968 39.6309 29.3056C39.9152 28.6277 40.2007 27.937 40.3772 27.2218C40.3979 27.1378 40.2797 27.0853 40.2363 27.163C39.8702 27.8184 39.584 28.5199 39.2771 29.2043C38.9781 29.8706 38.6737 30.5345 38.3521 31.1903C38.0474 31.8108 37.7377 32.4286 37.4063 33.0356C37.3361 33.1642 37.2879 33.3045 37.2267 33.4378C37.1631 33.577 37.0988 33.7158 37.0371 33.8559C36.991 33.9613 36.9605 34.0673 36.9402 34.1805C36.9288 34.2443 36.9204 34.348 36.9542 34.4079C36.9609 34.4202 36.9697 34.4307 36.9789 34.4414C37.0446 34.5173 37.1796 34.4137 37.1188 34.3324Z" fill="#161616"/>
<path d="M42.0393 25.7156C41.8982 26.3774 41.7737 27.0357 41.6847 27.7068C41.5922 28.4046 41.5133 29.1044 41.4393 29.8044C41.3664 30.4954 41.2887 31.1859 41.2112 31.8764C41.1726 32.2217 41.1276 32.5659 41.0854 32.9108C41.0421 33.2643 40.9724 33.628 40.9809 33.9847C40.9833 34.0849 41.112 34.0933 41.1458 34.0074C41.2711 33.6888 41.3201 33.3332 41.3772 32.9969C41.435 32.6554 41.4813 32.3118 41.5279 31.9688C41.6215 31.28 41.6911 30.5879 41.7647 29.8968C41.838 29.2116 41.9068 28.526 41.9881 27.8419C42.0702 27.1528 42.142 26.4587 42.2489 25.7731C42.27 25.6377 42.069 25.5764 42.0393 25.7156Z" fill="#161616"/>
<path d="M26.1517 18.5805C27.9309 18.6304 29.7111 18.6581 31.4906 18.7038C32.0989 18.7194 32.707 18.7388 33.3154 18.745C33.7792 18.7494 34.2574 18.7726 34.7128 18.6753C34.8053 18.6556 34.8059 18.5094 34.7131 18.4896C34.3655 18.415 34.0054 18.403 33.6498 18.3919C33.1933 18.3776 32.7369 18.3647 32.2804 18.3538C31.2498 18.3297 30.2193 18.3029 29.1884 18.2893C28.6002 18.2816 28.0128 18.2795 27.4246 18.2932C26.9894 18.3031 26.5576 18.3197 26.1274 18.3913C26.017 18.4096 26.047 18.5776 26.1517 18.5805Z" fill="#161616"/>
<path d="M31.1975 16.2264C31.3147 16.315 31.4953 16.3483 31.6331 16.3883C31.9496 16.4804 32.2683 16.5627 32.5877 16.6446C33.5021 16.8788 34.4175 17.1093 35.3301 17.3495C36.1719 17.5712 37.0122 17.8059 37.8631 17.9882C37.945 18.0056 38.0044 17.8871 37.9219 17.8471C37.1333 17.465 36.2645 17.2437 35.4202 17.02C34.5076 16.7781 33.5913 16.5524 32.6737 16.3312C32.3577 16.2552 32.042 16.1808 31.7252 16.1093C31.6255 16.0868 31.5258 16.0654 31.4258 16.045C31.3888 16.0376 31.3481 16.0239 31.3106 16.0241C31.2637 16.0243 31.3239 16.03 31.2836 16.02C31.1509 15.9866 31.0998 16.1524 31.1975 16.2264Z" fill="#161616"/>
<path d="M27.6474 25.245C27.6658 25.2396 27.6842 25.2345 27.7026 25.229C27.7598 25.2125 27.6438 25.216 27.7097 25.2266C27.7233 25.2286 27.7292 25.2346 27.7002 25.2193C27.7363 25.2385 27.7759 25.2453 27.8159 25.2345C27.8286 25.2294 27.8412 25.224 27.8538 25.2189C27.8275 25.2294 27.8224 25.2318 27.8377 25.2259C27.848 25.2218 27.8583 25.2179 27.8686 25.214C28.0685 25.1375 28.2638 25.0526 28.4598 24.9669C29.0758 24.6977 29.6894 24.4228 30.3042 24.1502C31.7339 23.5159 33.1725 22.8961 34.5896 22.234C34.8053 22.1332 35.0181 22.0275 35.233 21.9258C35.3098 21.8892 35.387 21.8543 35.4609 21.8117C35.4899 21.7948 35.5196 21.7788 35.5482 21.761C35.5614 21.7527 35.574 21.7433 35.5872 21.7342C35.6079 21.7197 35.6754 21.6894 35.5963 21.721C35.7147 21.6734 35.6643 21.479 35.5444 21.5271C35.5799 21.5128 35.5156 21.5317 35.5033 21.5337C35.4876 21.5363 35.472 21.5385 35.4565 21.5423C35.4172 21.5517 35.3783 21.5634 35.3396 21.5741C35.243 21.6013 35.1498 21.6421 35.0562 21.6785C34.7886 21.7824 34.5208 21.8852 34.2564 21.9986C33.561 22.2967 32.8689 22.6027 32.1775 22.9106C30.8363 23.5076 29.4969 24.1101 28.1644 24.7266C28.0116 24.7972 27.862 24.8708 27.713 24.9486C27.6732 24.9694 27.64 25.0017 27.629 25.0467C27.6378 25.0104 27.6324 25.0362 27.6231 25.0506C27.596 25.0939 27.6905 24.9961 27.6248 25.0485C27.6534 25.0257 27.6256 25.0454 27.6182 25.0502C27.6045 25.0591 27.5907 25.0679 27.5768 25.0766C27.491 25.1312 27.545 25.2743 27.6474 25.245Z" fill="#161616"/>
<path d="M33.4681 25.9372C34.0386 25.6197 34.5813 25.2505 35.1218 24.8844C35.9066 24.3527 36.6782 23.8015 37.4451 23.2442C38.0202 22.8261 38.5905 22.4023 39.1496 21.9632C39.531 21.664 39.9164 21.3567 40.2344 20.9891C40.2864 20.9291 40.2165 20.8216 40.1441 20.8728C38.8207 21.8102 37.541 22.8094 36.2225 23.7546C35.6607 24.1572 35.0982 24.5592 34.5304 24.9535C34.143 25.2225 33.7591 25.5004 33.3564 25.7474C33.2356 25.8215 33.3437 26.0062 33.4681 25.9372Z" fill="#161616"/>
<path d="M32.3365 31.3949C32.3877 31.3123 32.4423 31.2461 32.5136 31.1607C32.5935 31.0652 32.6899 30.9372 32.7797 30.8282C33.0172 30.539 33.2577 30.2524 33.4984 29.966C34.1128 29.2347 34.7393 28.514 35.3635 27.7908C35.8537 27.2231 36.3465 26.6578 36.8347 26.088C37.0419 25.8459 37.2466 25.6017 37.4518 25.3577C37.6199 25.1577 37.7952 24.9495 37.9192 24.7181C37.9657 24.6309 37.8637 24.5042 37.7718 24.5719C37.5007 24.7718 37.2773 25.0345 37.0518 25.2828C36.7606 25.6035 36.472 25.926 36.184 26.2495C35.5272 26.9873 34.8858 27.7395 34.2502 28.4959C33.5047 29.3837 32.7138 30.2693 32.1316 31.2766C32.055 31.4091 32.2562 31.5242 32.3365 31.3949Z" fill="#161616"/>
<path d="M30.0451 28.4081C30.3043 28.2265 30.5572 28.0377 30.8002 27.8342C30.9235 27.7309 31.0423 27.6247 31.1571 27.5116C31.206 27.4634 31.2437 27.3974 31.2892 27.3448C31.3394 27.2871 31.3868 27.2256 31.4221 27.1577C31.4602 27.084 31.3834 27.0097 31.3106 27.0471C31.1892 27.1094 31.09 27.2055 30.9711 27.2725C30.8385 27.3475 30.7195 27.4789 30.6035 27.5772C30.3608 27.7826 30.1195 27.9877 29.8842 28.2014C29.7744 28.3013 29.9221 28.4946 30.0451 28.4081Z" fill="#161616"/>
<path d="M27.4259 21.6498C27.5807 21.6614 27.7786 21.6607 27.9576 21.6415C28.1786 21.6181 28.564 21.6 28.6839 21.3745C28.7147 21.3167 28.6768 21.2329 28.6047 21.2364C28.4995 21.2414 28.4 21.2755 28.2965 21.2931C28.1659 21.3153 28.0385 21.3405 27.9062 21.3531C27.7912 21.3639 27.6766 21.3766 27.5614 21.3842C27.5453 21.3854 27.5291 21.3862 27.5131 21.387C27.488 21.387 27.4648 21.3934 27.4432 21.4057C27.4904 21.3957 27.5006 21.3922 27.4745 21.3954C27.4588 21.3969 27.4433 21.3983 27.4278 21.3995C27.267 21.4119 27.2642 21.6377 27.4259 21.6498Z" fill="#161616"/>
<path d="M27.5956 14.8597C27.7826 14.9186 27.9711 14.9741 28.1583 15.0336C28.3657 15.0995 28.5646 15.1909 28.78 15.2255C28.8535 15.2374 28.9207 15.1517 28.8572 15.092C28.7025 14.9459 28.5079 14.8731 28.3077 14.8098C28.0922 14.7414 27.8741 14.6944 27.6523 14.6527C27.5172 14.6274 27.4623 14.8177 27.5956 14.8597Z" fill="#161616"/>
<path d="M31.8533 6.89788C32.0061 7.06382 32.1804 7.19514 32.3724 7.31278C32.5592 7.42741 32.7937 7.58951 33.0198 7.58623C33.0829 7.58541 33.1413 7.50805 33.0987 7.44957C32.9756 7.28166 32.762 7.20533 32.5852 7.1056C32.3898 6.99549 32.1974 6.86854 32.029 6.71991C31.9084 6.61315 31.7433 6.77846 31.8533 6.89788Z" fill="#161616"/>
<path d="M50.7311 3.88432C50.7176 4.09998 50.5958 4.30537 50.4919 4.48916C50.3943 4.66158 50.2721 4.87047 50.2799 5.07409C50.2831 5.15958 50.3947 5.22182 50.4585 5.14843C50.6018 4.9838 50.725 4.79646 50.8297 4.60482C50.9502 4.38424 51.0672 4.14362 51.0637 3.88679C51.0611 3.67059 50.7445 3.67134 50.7311 3.88432Z" fill="#161616"/>
<path d="M49.1576 13.1037C49.6267 12.6864 50.0625 12.2304 50.5079 11.7881C50.9777 11.3214 51.4353 10.8404 51.8894 10.3587C52.3404 9.8806 52.7803 9.39157 53.2038 8.88899C53.411 8.64358 53.6114 8.39379 53.8052 8.13785C53.8953 8.01898 53.9834 7.89874 54.0693 7.77679C54.1613 7.64669 54.2236 7.50874 54.2788 7.36093C54.3191 7.25328 54.1753 7.1989 54.1038 7.25977C53.9919 7.35505 53.8887 7.45306 53.7981 7.56995C53.7068 7.68766 53.6146 7.80496 53.5217 7.92151C53.3228 8.17096 53.1205 8.41828 52.9151 8.66273C52.5009 9.15505 52.0686 9.63177 51.632 10.1041C51.1918 10.5804 50.743 11.0487 50.2935 11.516C49.8492 11.9779 49.3967 12.4435 48.9952 12.9433C48.9041 13.0565 49.0458 13.2031 49.1576 13.1037Z" fill="#161616"/>
<path d="M52.1683 17.037C53.286 16.7626 54.4266 16.5731 55.5594 16.3719C56.1913 16.26 56.8239 16.1536 57.4549 16.0366C58.1538 15.907 58.8622 15.7917 59.552 15.6195C59.754 15.5689 59.9625 15.5284 60.1495 15.4333C60.2452 15.3848 60.1945 15.2453 60.0981 15.2412C59.9175 15.2334 59.7383 15.2736 59.561 15.3035C59.3693 15.336 59.1787 15.3737 58.9877 15.412C58.6371 15.4823 58.2865 15.5499 57.9351 15.616C57.2871 15.7378 56.6387 15.856 55.9901 15.9749C54.8383 16.186 53.6951 16.4103 52.5619 16.7073C52.4118 16.7467 52.2621 16.7875 52.1124 16.8297C51.9793 16.8672 52.034 17.0699 52.1683 17.037Z" fill="#161616"/>
<path d="M50.2314 27.9013C50.3458 28.1432 50.5075 28.3646 50.6617 28.5818C50.9034 28.9218 51.1609 29.2494 51.4226 29.5737C52.0018 30.291 52.6112 30.9861 53.2404 31.6599C53.4028 31.8339 53.5669 32.0066 53.7352 32.1749C53.8586 32.299 54.0024 32.4981 54.1945 32.4661C54.2382 32.459 54.2701 32.4105 54.2699 32.3685C54.2692 32.2195 54.1395 32.1379 54.0398 32.0447C53.9203 31.9328 53.8041 31.8173 53.6888 31.701C53.3918 31.401 53.1063 31.0889 52.8233 30.776C52.2087 30.0969 51.6137 29.4001 51.0335 28.6915C50.8056 28.4131 50.5599 28.1275 50.3881 27.8095C50.3318 27.7053 50.1823 27.7972 50.2314 27.9013Z" fill="#161616"/>
<path d="M47.0286 30.3598C47.0835 30.7237 47.2374 31.0762 47.3915 31.4076C47.6027 31.8605 47.8249 32.3074 48.083 32.7351C48.113 32.785 48.1953 32.7527 48.1785 32.6953C48.0419 32.2276 47.8176 31.8044 47.6044 31.3685C47.4391 31.0303 47.2548 30.6917 47.1801 30.319C47.1599 30.2184 47.014 30.262 47.0286 30.3598Z" fill="#161616"/>
<path d="M49.9391 21.5189C50.513 21.9234 51.1478 22.2412 51.7721 22.5589C52.4168 22.887 53.0715 23.1942 53.7201 23.5139C54.0449 23.6738 54.3682 23.8371 54.6889 24.0048C54.9685 24.1509 55.2417 24.3085 55.526 24.4446C56.0767 24.7084 56.6383 24.9496 57.196 25.1977C57.4622 25.316 57.7277 25.4355 57.9928 25.5563C58.2766 25.6858 58.5639 25.8617 58.8757 25.9042C59.0043 25.9219 59.0614 25.7387 58.9774 25.6596C58.8411 25.5314 58.6788 25.46 58.5108 25.3824C58.3331 25.3004 58.155 25.2194 57.9767 25.1391C57.6535 24.9935 57.3292 24.8507 57.0048 24.7078C56.4843 24.4784 55.9415 24.2684 55.4428 23.9928C54.178 23.2936 52.853 22.7115 51.5528 22.0822C51.0483 21.8376 50.5519 21.5757 50.0463 21.3332C49.9208 21.2729 49.8262 21.4393 49.9391 21.5189Z" fill="#161616"/>
<path d="M47.8676 20.4133C48.0485 20.6073 48.3637 20.7872 48.6358 20.7045C48.6994 20.6854 48.6962 20.6008 48.6361 20.5799C48.4109 20.5012 48.1835 20.4419 47.9971 20.2824C47.9077 20.2055 47.7857 20.3256 47.8676 20.4133Z" fill="#161616"/>
<path d="M55.2814 21.4867C55.9705 21.6079 56.6597 21.7325 57.3539 21.8202C57.7121 21.8657 58.0712 21.9038 58.4309 21.9353C58.6295 21.9528 58.8282 21.9659 59.0275 21.9752C59.1315 21.9801 59.2349 21.981 59.3387 21.9788C59.4457 21.9766 59.529 21.949 59.6309 21.9194C59.6963 21.9006 59.6896 21.8167 59.6313 21.7948C59.5465 21.7629 59.4762 21.7273 59.3861 21.7168C59.2819 21.7042 59.1779 21.6914 59.0734 21.6839C58.8737 21.6694 58.6741 21.6536 58.4747 21.638C58.1138 21.61 57.7541 21.5737 57.3946 21.5313C56.7092 21.451 56.026 21.3588 55.3434 21.2612C55.197 21.2402 55.1315 21.4601 55.2814 21.4867Z" fill="#161616"/>
<path d="M52.4721 20.7895C52.6559 20.8974 52.8472 20.9457 53.056 20.9856C53.1784 21.009 53.3031 21.0224 53.4267 21.0367C53.559 21.0522 53.7008 21.0634 53.8218 20.9998C53.8657 20.9764 53.8789 20.9028 53.8379 20.8698C53.6639 20.7294 53.3874 20.746 53.1752 20.7185C52.9671 20.6913 52.7479 20.6716 52.5456 20.6134C52.4395 20.583 52.3782 20.7346 52.4721 20.7895Z" fill="#161616"/>
<path d="M49.9333 16.2943C50.088 16.1922 50.2656 16.121 50.4349 16.0478C50.7241 15.9231 51.0167 15.8058 51.3085 15.6877C52.1122 15.3624 52.9206 15.0476 53.7279 14.7313C54.5289 14.4175 55.3304 14.1054 56.1281 13.7836C56.698 13.5537 57.2774 13.3309 57.808 13.0183C57.8888 12.9705 57.8352 12.8295 57.7426 12.8623C57.1274 13.0796 56.5223 13.3224 55.9157 13.5639C55.0666 13.9019 54.217 14.2384 53.3693 14.5794C52.6148 14.8824 51.8623 15.1896 51.1182 15.5175C50.8459 15.6375 50.5764 15.7626 50.3116 15.898C50.1565 15.9772 49.9949 16.0562 49.8554 16.1615C49.7783 16.2198 49.8487 16.35 49.9333 16.2943Z" fill="#161616"/>
<path d="M52.4076 24.9253C52.9534 25.281 53.5281 25.5909 54.0888 25.9223C54.3726 26.0897 54.657 26.2548 54.9303 26.4388C55.072 26.5343 55.2117 26.6317 55.3514 26.7302C55.4839 26.8237 55.6092 26.9308 55.7623 26.9877C55.8236 27.0101 55.8642 26.9353 55.8396 26.8864C55.7713 26.7505 55.6512 26.6499 55.5358 26.5533C55.4062 26.4452 55.2684 26.3474 55.1293 26.2521C54.8476 26.059 54.5458 25.8922 54.2451 25.7309C53.6579 25.4162 53.0505 25.1465 52.4821 24.7968C52.3999 24.7462 52.328 24.8732 52.4076 24.9253Z" fill="#161616"/>
<path d="M53.5132 28.4573C53.7378 28.7954 54.0585 29.0695 54.3598 29.3371C54.5193 29.4783 54.6801 29.6181 54.8389 29.7607C54.9242 29.8372 55.0147 29.9086 55.1019 29.9835C55.178 30.0491 55.2668 30.1197 55.3651 30.1461C55.4292 30.1631 55.491 30.1031 55.4732 30.0383C55.4217 29.8494 55.2256 29.6988 55.0906 29.5671C54.9382 29.4187 54.7695 29.2848 54.6089 29.145C54.2988 28.8749 54.0098 28.5857 53.7112 28.3033C53.6099 28.2072 53.4316 28.3344 53.5132 28.4573Z" fill="#161616"/>
<path d="M47.0698 1.84026C46.8246 2.84918 46.6101 3.86384 46.3981 4.88001C46.1673 5.98633 45.9406 7.0947 45.7567 8.21025C45.7033 8.53356 45.6513 8.85551 45.6225 9.18203C45.6117 9.30576 45.8086 9.33032 45.836 9.21172C45.9412 8.75421 46.025 8.29171 46.1137 7.83072C46.2203 7.27794 46.3361 6.72687 46.4448 6.17449C46.6631 5.06284 46.8972 3.95447 47.1161 2.84302C47.1778 2.52942 47.2336 2.21507 47.2898 1.90065C47.3155 1.75798 47.1049 1.69533 47.0698 1.84026Z" fill="#161616"/>
<path d="M45.1938 12.0078C45.1913 12.228 45.1638 12.4462 45.1258 12.6629C45.0908 12.8642 45.0211 13.0776 45.0377 13.2833C45.0415 13.3323 45.1022 13.352 45.1299 13.3085C45.2476 13.1238 45.2759 12.8823 45.3109 12.6704C45.3473 12.4518 45.3721 12.2305 45.3728 12.0089C45.3732 11.8935 45.1953 11.8926 45.1938 12.0078Z" fill="#161616"/>
<path d="M43.4326 23.8969C43.4101 24.5108 43.4404 25.1286 43.4355 25.743C43.4302 26.3999 43.4142 27.0566 43.4003 27.7132C43.3868 28.3566 43.3757 28.9997 43.3805 29.6431C43.3828 29.9644 43.3935 30.285 43.415 30.6054C43.4355 30.9084 43.4524 31.227 43.534 31.5207C43.5611 31.6184 43.6875 31.5891 43.6988 31.4996C43.7368 31.2064 43.7235 30.903 43.7245 30.6078C43.7257 30.287 43.7272 29.9662 43.7274 29.6457C43.7283 28.988 43.7422 28.3301 43.756 27.6726C43.7696 27.0303 43.7839 26.3882 43.7854 25.7456C43.7869 25.1204 43.7982 24.4815 43.7084 23.8616C43.685 23.6995 43.4381 23.7455 43.4326 23.8969Z" fill="#161616"/>
<path d="M45.9597 23.3654C46.3558 24.7127 46.9445 25.9913 47.5625 27.2501C48.231 28.6117 48.9769 29.9324 49.7524 31.2355C51.3456 33.9125 53.1548 36.4672 55.1824 38.8327C56.9822 40.9325 58.9547 42.9127 61.193 44.5459C62.0739 45.1887 63.009 45.7695 64.0099 46.2062C64.8451 46.5705 65.8837 46.9674 66.8071 46.8028C66.8515 46.7949 66.8956 46.7855 66.9397 46.7761C67.4063 46.6775 67.4052 45.9475 66.9421 45.8445C66.8528 45.8245 66.7642 45.8023 66.6758 45.7777C66.5996 45.7564 66.5197 45.7509 66.441 45.7416C66.2815 45.7223 66.5516 45.7592 66.3921 45.7349C66.1759 45.7021 65.9613 45.665 65.7485 45.6148C65.3436 45.5194 64.8196 45.3341 64.5192 45.2067C63.5104 44.7781 62.5714 44.1913 61.6818 43.5553C59.4551 41.9631 57.507 39.9665 55.7181 37.9057C53.7473 35.6354 51.9404 33.2191 50.3276 30.6819C48.8049 28.2865 47.6092 25.7436 46.4561 23.1576C46.3297 22.8743 45.8748 23.0771 45.9597 23.3654Z" fill="#161616"/>
<path d="M58.657 15.9825C60.4234 18.2666 62.1172 20.5705 63.5303 23.096C65.0218 25.7619 66.3019 28.5516 67.3727 31.4116C68.3019 33.8926 69.0942 36.5021 69.4278 39.1243C69.5639 40.1928 69.6205 41.2779 69.5241 42.3522C69.4847 42.7931 69.4319 43.1276 69.3067 43.6051C69.2051 43.9936 69.0561 44.3667 68.9475 44.7528C68.8219 45.1986 69.4348 45.5999 69.7561 45.2198C70.3609 44.5039 70.5306 43.4973 70.6299 42.5892C70.7454 41.5346 70.686 40.4634 70.5599 39.4128C70.2367 36.7214 69.4584 34.0982 68.5122 31.5653C67.4357 28.6836 66.0831 25.9108 64.5335 23.2548C63.7734 21.9526 62.9724 20.6722 62.1145 19.432C61.3234 18.2879 60.4996 17.1004 59.5279 16.1006C59.3811 15.9494 59.232 15.8002 59.0819 15.6521C58.8693 15.4422 58.4643 15.7339 58.657 15.9825Z" fill="#161616"/>
<path d="M66.2162 46.1449C66.2452 46.1449 66.2456 46.0996 66.2164 46.0996C66.1872 46.0996 66.1869 46.1449 66.2162 46.1449Z" fill="#161616"/>
<path d="M66.6164 46.8702C67.246 48.3947 68.0248 49.8597 68.7753 51.3275C69.5035 52.7509 70.2623 54.1579 71.0236 55.5639C71.7318 56.8719 72.4451 58.1771 73.1526 59.4853C73.4788 60.0886 73.8096 60.6893 74.1356 61.2925C74.4032 61.7876 74.7179 62.6578 75.344 62.763C75.4345 62.7783 75.5432 62.7559 75.5869 62.6634C75.8565 62.0936 75.401 61.4334 75.1354 60.9356C74.8142 60.3347 74.4925 59.734 74.1621 59.1378C73.4451 57.8433 72.7213 56.5522 72.0021 55.2588C71.2277 53.866 70.4634 52.4676 69.696 51.0711C68.8792 49.5851 68.1255 48.0602 67.2714 46.5961C67.0734 46.257 66.4587 46.4888 66.6164 46.8702Z" fill="#161616"/>
<path d="M74.1655 60.9658C74.2794 61.7729 74.6448 62.5084 75.4538 62.7888C75.9655 62.9662 76.5676 62.8411 77.0275 62.5815C77.5011 62.3143 77.8744 61.8762 78.0601 61.3688C78.1971 60.9945 78.1609 60.5712 78.0933 60.1878C78.0154 59.746 77.7591 59.0373 77.2734 58.9154C77.1763 58.8911 77.0449 58.9283 77.0006 59.0275C76.8479 59.3716 77.001 59.8331 77.0961 60.1842C77.169 60.4526 77.1936 60.7397 77.1326 60.9988C77.0866 61.1927 77.0135 61.3089 76.8995 61.4346C76.8411 61.4988 76.7757 61.557 76.7098 61.6134C76.6963 61.6251 76.5884 61.7106 76.6841 61.6363C76.651 61.6621 76.6172 61.6873 76.5826 61.7111C76.3347 61.8816 76.1111 61.9421 75.7747 61.9171C75.6603 61.9084 75.461 61.81 75.3155 61.6816C75.0631 61.4589 74.896 61.1102 74.7772 60.8021C74.6288 60.4172 74.1083 60.5624 74.1655 60.9658Z" fill="#161616"/>
<path d="M73.3522 59.0073C71.8648 59.4507 70.5668 60.5645 69.6855 61.8186C68.8147 63.0576 68.4478 64.6995 68.9989 66.145C69.9288 68.5838 72.8538 68.7127 75.0493 68.3356C76.1884 68.14 77.3127 67.7786 78.3501 67.2688C79.3653 66.7702 80.281 66.0426 81.1333 65.3079C82.1817 64.4041 83.1432 63.3834 83.9243 62.238C84.5755 61.2832 85.1507 60.0974 85.0471 58.9103C84.8967 57.1841 83.1808 56.402 81.6542 56.2051C79.8393 55.9711 77.5192 56.2631 76.2439 57.7065C76.1466 57.8167 76.2392 58.0101 76.3939 57.9645C77.8018 57.5501 79.1824 57.0625 80.6693 57.0877C81.6993 57.1053 83.0869 57.3855 83.6998 58.2046C83.9906 58.5933 84.0321 58.9473 83.9871 59.4492C83.9446 59.9249 83.7174 60.4705 83.4802 60.9211C82.861 62.0975 81.9394 63.105 80.9795 64.0118C80.1289 64.8153 79.2008 65.5619 78.1843 66.1458C77.2656 66.6735 76.2616 66.9993 75.2072 67.2357C73.3143 67.6596 70.4588 67.7615 69.8347 65.4898C69.507 64.2976 69.947 63.0554 70.6742 62.1023C71.4624 61.0696 72.5369 60.3668 73.6697 59.7656C74.0846 59.5453 73.7991 58.874 73.3522 59.0073Z" fill="#161616"/>
<path d="M78.1839 60.6725C77.8487 59.4615 77.2626 58.3696 76.7181 57.2402C76.0632 55.8807 75.3953 54.5286 74.71 53.184C73.9847 51.7614 73.237 50.3508 72.439 48.9675C72.0551 48.3014 71.6577 47.6432 71.2459 46.9939C71.0452 46.6779 70.8395 46.365 70.6305 46.0542C70.4159 45.7354 70.21 45.302 69.8449 45.1439C69.6084 45.0418 69.25 45.155 69.2736 45.471C69.3031 45.8672 69.5434 46.1309 69.7588 46.4493C69.9679 46.7588 70.1713 47.0725 70.3717 47.3876C70.7838 48.0355 71.1772 48.6951 71.5605 49.3604C72.3577 50.7439 73.1038 52.1568 73.8325 53.5774C74.5223 54.9221 75.1883 56.2787 75.8874 57.6188C76.4789 58.7528 77.022 59.896 77.9009 60.8372C78.0172 60.9619 78.2281 60.832 78.1839 60.6725Z" fill="#161616"/>
<path d="M69.0609 66.3914C69.1521 66.771 69.3218 67.1004 69.4786 67.4571C69.6125 67.7621 69.7312 68.0738 69.8689 68.3774C70.1734 69.0493 70.6794 69.7977 71.3662 70.1199C71.6754 70.2649 71.9319 69.9167 71.7189 69.6579C71.4739 69.3604 71.1692 69.1174 70.9201 68.8208C70.7085 68.5684 70.5502 68.2701 70.4067 67.9758C70.1082 67.3637 69.9143 66.6547 69.3757 66.2085C69.2346 66.0918 69.0149 66.1996 69.0609 66.3914Z" fill="#161616"/>
<path d="M71.1042 70.0687C72.3563 70.7969 73.9192 70.7292 75.3033 70.529C76.9567 70.2899 78.5626 69.6612 80.0368 68.8902C82.8127 67.4386 85.7553 64.9226 85.9868 61.5775C86.0357 60.8683 85.9791 60.0544 85.5615 59.4624C85.3737 59.1959 84.9123 59.2694 84.9154 59.6355C84.9218 60.3468 85.0921 61.0189 85.0192 61.7381C84.949 62.4309 84.6924 63.1084 84.3666 63.7182C83.569 65.2109 82.2378 66.3802 80.8452 67.3046C79.453 68.2288 77.9085 68.9302 76.2986 69.3764C74.8867 69.7676 73.3692 70.0038 71.916 69.6984C71.7159 69.6564 71.5149 69.6113 71.3175 69.5577C71.0099 69.4744 70.8291 69.9088 71.1042 70.0687Z" fill="#161616"/>
<path d="M59 16C70.2 30 70.6667 41 69.5 45C67.9 46.2 66.8333 46.6667 66.5 46.5C58.1 44.5 49.6667 30.6667 46.5 24C56.1 23.6 58.8333 18.5 59 16Z" fill="#FFEFD7"/>
<path d="M26.9341 16C15.7341 30 15.2674 41 16.4341 45C18.0341 46.2 19.1007 46.6667 19.4341 46.5C27.8341 44.5 36.2674 30.6667 39.4341 24C29.8341 23.6 27.1007 18.5 26.9341 16Z" fill="#FFEFD7"/>
<path d="M65.656 46.6948C65.9071 46.7576 66.122 46.7923 66.3882 46.7843C66.6596 46.7762 66.9384 46.7226 67.2038 46.6675C67.6905 46.5663 68.1649 46.3766 68.5933 46.1256C69.0422 45.863 69.4263 45.5079 69.7471 45.1012C69.9178 44.8847 70.0713 44.6579 70.21 44.4195C70.3601 44.1616 70.5681 43.7917 70.5321 43.4887C70.4862 43.1037 70.1182 42.9522 69.8131 43.1901C69.6122 43.3469 69.5232 43.6282 69.4007 43.8466C69.2852 44.0524 69.163 44.2527 69.0266 44.4451C68.7868 44.7836 68.4637 45.0902 68.1257 45.329C67.7789 45.5736 67.3943 45.7457 66.989 45.8668C66.7864 45.9275 66.5785 45.9701 66.37 46.0059C66.122 46.0484 65.8928 46.109 65.6575 46.178C65.4083 46.2512 65.391 46.6286 65.656 46.6948Z" fill="#161616"/>
<path d="M46.2736 23.6982C46.4398 23.9746 46.8643 24.2052 47.1445 24.331C47.834 24.6399 48.7381 24.4894 49.4245 24.2685C50.3466 23.9717 51.266 23.6603 52.1558 23.273C54.3447 22.3202 56.6394 21.1305 58.319 19.3998C58.9781 18.7202 59.5769 17.8508 59.5829 16.8689C59.5871 16.189 59.2839 15.5638 58.6881 15.2204C58.1081 14.8862 57.3819 14.85 56.7307 14.894C55.8553 14.9532 54.9929 15.1634 54.1603 15.4317C52.2316 16.0536 50.3713 17.0161 48.7529 18.2356C47.4184 19.2409 46.0147 20.5637 45.8013 22.3149C45.7365 22.847 45.8845 23.3632 46.1466 23.7724C46.334 24.065 46.8589 23.8813 46.7326 23.5274C46.5236 22.941 46.5881 22.3437 46.8044 21.8489C47.1154 21.137 47.6358 20.5962 48.2184 20.0283C49.5998 18.6823 51.3803 17.6645 53.1862 16.8966C53.542 16.7455 54.054 16.5542 54.4818 16.4134C54.9076 16.2734 55.3404 16.154 55.7784 16.0593C55.9708 16.0178 56.1645 15.9831 56.3586 15.9535C56.3718 15.9516 56.5273 15.9306 56.4084 15.9458C56.454 15.94 56.4995 15.9351 56.545 15.9303C56.6479 15.9191 56.7508 15.9113 56.8541 15.9051C57.0186 15.8956 57.1837 15.8946 57.3485 15.9012C57.4249 15.9044 57.5012 15.9106 57.5774 15.9184C57.6026 15.9207 57.7289 15.9388 57.5925 15.9189C57.6391 15.9257 57.6854 15.9344 57.7319 15.9435C57.8611 15.9687 57.9877 16.0061 58.1105 16.0537C57.9633 15.9965 58.1479 16.0753 58.1832 16.0946C58.2242 16.1167 58.4037 16.2474 58.2721 16.1442C58.316 16.1786 58.3565 16.2175 58.395 16.2579C58.5088 16.3762 58.3647 16.2031 58.4342 16.3069C58.466 16.3535 58.4919 16.4034 58.516 16.4541C58.4409 16.2963 58.5279 16.501 58.5408 16.5516C58.5931 16.7542 58.5862 16.7382 58.5806 16.9542C58.5768 17.1042 58.54 17.262 58.4634 17.478C58.352 17.7916 58.0487 18.2228 57.7875 18.5213C57.0737 19.3364 56.1743 19.9787 55.2658 20.5581C54.2581 21.2006 53.196 21.759 52.1123 22.262C51.3092 22.6349 50.5251 22.9864 49.6818 23.2573C49.3414 23.3667 49.0211 23.5162 48.6719 23.6027C48.3275 23.6882 47.9663 23.7194 47.6124 23.7051C47.3241 23.6932 46.7575 23.7388 46.5452 23.487C46.4164 23.3342 46.1742 23.5327 46.2736 23.6982Z" fill="#161616"/>
<path d="M85.7863 60.8725C85.8652 60.223 85.6201 59.5843 85.3587 59.0028C85.1238 58.4801 84.7217 57.8279 84.0835 57.8648C84.009 57.8692 83.9315 57.9136 83.9151 57.9927C83.891 58.1083 83.8524 58.1748 83.8731 58.2988C83.8958 58.4351 83.9481 58.5501 83.9846 58.6816C84.0608 58.9553 84.2425 59.2111 84.3721 59.4616C84.6418 59.9824 84.794 60.5716 85.1541 61.0418C85.364 61.3156 85.7443 61.2187 85.7863 60.8725Z" fill="#161616"/>
<path d="M63.7581 27.7072C63.1421 26.3494 62.3829 25.0809 61.5499 23.8672C60.9573 22.5182 60.2802 21.1895 59.6367 19.8496C60.4939 21.0613 61.3793 22.2514 62.2038 23.5038C62.8333 24.8638 63.3786 26.2683 63.7581 27.7072Z" fill="#161616"/>
<path d="M52.3834 18.0332C51.4555 18.5542 50.6579 19.254 50.0412 20.0527C49.6379 20.3547 49.2611 20.702 48.9307 21.0981C48.6012 21.4938 48.3176 21.9395 48.1143 22.4339C48.1968 21.9071 48.3726 21.3884 48.6143 20.8989C48.856 20.409 49.163 19.9471 49.5156 19.5201C50.3802 18.8277 51.361 18.324 52.3834 18.0332Z" fill="#161616"/>
<path d="M52.6395 19.8359C52.0773 20.2705 51.5315 20.7269 51.0757 21.2293C50.4624 21.5095 49.8716 21.8746 49.4062 22.4251C49.5281 22.0898 49.7049 21.7672 49.9161 21.4666C50.1276 21.1657 50.3726 20.8862 50.6347 20.6252C51.2922 20.2856 51.9656 20.0488 52.6395 19.8359Z" fill="#161616"/>
<path d="M73.4087 54.4722C72.8444 53.5873 72.2162 52.7603 71.5675 51.9455C71.154 50.9896 70.7139 50.033 70.3184 49.0645C70.9304 49.9093 71.576 50.7238 72.2089 51.5608C72.6498 52.5132 73.0709 53.482 73.4087 54.4722Z" fill="#161616"/>
<path d="M81.581 57.9844C81.7538 58.1755 81.9095 58.3873 82.0351 58.6222C82.161 58.8568 82.2556 59.1153 82.3069 59.3885C82.3588 59.6613 82.3668 59.9476 82.3339 60.2305C82.3012 60.5138 82.2291 60.7934 82.1298 61.0611C81.8076 61.534 81.411 61.9145 80.9914 62.2423C80.5702 62.5694 80.1216 62.8436 79.6602 63.0803C80.0506 62.7416 80.4125 62.3744 80.7255 61.9791C81.0375 61.5846 81.3011 61.1587 81.4646 60.7186C81.7275 60.3323 81.9082 59.8895 81.9337 59.412C81.9626 58.9352 81.8259 58.4359 81.581 57.9844Z" fill="#161616"/>
<path d="M66.1302 33.4054C65.6813 32.5729 65.0871 31.5893 64.2876 31.1366C63.2398 30.5432 61.9859 30.3307 60.7949 30.3009C59.4175 30.2664 58.0291 30.4549 56.7227 30.9008C56.1069 31.111 55.5007 31.3532 54.9398 31.6865C54.5504 31.9182 54.1891 32.1877 53.8169 32.4408C53.8581 32.4741 53.8963 32.5158 53.9295 32.5672C53.8676 32.4714 54.0105 32.6383 54.0324 32.6607C54.1144 32.7453 54.1891 32.8302 54.2589 32.926C54.3503 33.0518 54.5058 33.2592 54.5616 33.3304C54.8583 33.71 55.1638 34.0825 55.4749 34.4506C56.1979 35.3067 56.9469 36.1418 57.7118 36.9605C59.0088 38.3488 60.3499 39.6671 61.883 40.7963C62.8609 41.5165 64.0762 42.3834 65.2968 42.5096C65.7998 42.5615 66.2645 42.5194 66.6549 42.1773C67.0587 41.8239 67.3646 41.3276 67.5298 40.8176C67.9108 39.6408 67.7534 38.3433 67.4932 37.1584C67.2071 35.8564 66.7637 34.5804 66.1302 33.4054Z" fill="#FFC46C"/>
<path d="M53.4454 32.6834C53.955 32.3692 54.4222 31.9948 54.9393 31.6873C55.5002 31.354 56.1064 31.1118 56.7222 30.9015C58.0286 30.4556 59.417 30.2671 60.7945 30.3016C61.9855 30.3315 63.2393 30.5439 64.2871 31.1374C65.0866 31.5901 65.6808 32.5737 66.1298 33.4061C66.7632 34.5812 67.2067 35.8571 67.4926 37.1592C67.7529 38.3441 67.9103 39.6417 67.5293 40.8184C67.364 41.3285 67.0582 41.8248 66.6544 42.1781C66.264 42.5202 65.7993 42.5623 65.2963 42.5104C64.0757 42.3842 62.8603 41.5174 61.8825 40.7971C60.3494 39.6679 59.0082 38.3496 57.7112 36.9613C56.9463 36.1426 56.1974 35.3075 55.4744 34.4514C55.1633 34.0833 54.8578 33.7108 54.5611 33.3313C54.5053 33.2601 54.3498 33.0526 54.2583 32.9268C54.1886 32.831 54.114 32.7461 54.0319 32.6616C54.01 32.6391 53.867 32.4722 53.929 32.568C53.5813 32.0317 52.7203 32.5318 53.0704 33.0721C53.0005 32.964 53.1606 33.2689 53.1851 33.3199C53.2317 33.417 53.2834 33.501 53.3471 33.5879C53.5219 33.8262 53.7042 34.0589 53.8875 34.2909C54.2784 34.7857 54.6862 35.2676 55.0967 35.7468C56.0027 36.8042 56.9396 37.8366 57.9073 38.8383C58.6774 39.6358 59.4786 40.3778 60.344 41.0709C61.4511 41.9575 62.6107 42.796 63.9348 43.3265C65.1206 43.8015 66.4897 43.7975 67.4497 42.8634C68.3338 42.0033 68.5355 40.6537 68.5626 39.4765C68.5933 38.1359 68.3376 36.7754 67.9402 35.5C67.5562 34.2667 67.0255 33.0515 66.3085 31.9739C65.7183 31.0868 65.0243 30.4213 64.0352 30.0083C62.84 29.509 61.5103 29.3656 60.2247 29.3941C58.853 29.4245 57.4702 29.6773 56.1853 30.1581C55.5601 30.3921 54.9614 30.7118 54.4124 31.0901C53.9014 31.442 53.4338 31.8531 53.1918 32.4316C53.126 32.5887 53.2718 32.7904 53.4454 32.6834Z" fill="#91631D"/>
<path d="M53.4311 32.6311C53.9745 33.5686 55.0895 34.0519 56.0786 34.3909C57.2003 34.7755 58.4034 34.9226 59.585 34.9403C60.7942 34.9587 62.0214 34.8205 63.1944 34.5249C63.7571 34.3831 64.3066 34.1973 64.8411 33.9718C65.3224 33.7684 65.8446 33.5208 66.0825 33.0417C66.1961 32.8127 66.0582 32.5224 65.7845 32.5215C65.5587 32.5204 65.3845 32.5484 65.1601 32.641C64.9344 32.734 64.71 32.8308 64.4829 32.9196C63.99 33.1117 63.4943 33.2832 62.983 33.4191C61.9036 33.7058 60.7948 33.8599 59.6788 33.8836C58.6032 33.9065 57.523 33.798 56.4842 33.514C55.5045 33.2459 54.7045 32.7156 53.8318 32.2276C53.5754 32.084 53.2823 32.3741 53.4311 32.6311Z" fill="#91631D"/>
<path d="M61.1493 31.1585C60.2401 31.2988 59.3441 31.4961 58.4827 31.7533C58.0337 31.7477 57.5841 31.7591 57.1379 31.8094C56.9148 31.8351 56.6928 31.8706 56.4743 31.9271C56.2572 31.9853 56.0395 32.0587 55.8467 32.1993C55.9963 32.0129 56.1968 31.8748 56.4005 31.7554C56.6056 31.6365 56.8209 31.5379 57.0391 31.4488C57.476 31.2717 57.9255 31.1335 58.3782 31.0125C59.315 30.9967 60.2371 31.0497 61.1493 31.1585Z" fill="#91631D"/>
<path d="M65.9465 40.8603C66.0666 40.3139 66.1047 39.7605 66.0686 39.2211C66.0326 38.6814 65.9239 38.1557 65.7594 37.6545C65.6991 36.5992 65.3951 35.5257 64.9131 34.5215C65.6041 35.392 66.1669 36.3968 66.4944 37.5156C66.5469 38.0954 66.5325 38.6785 66.4417 39.2438C66.3515 39.8092 66.1842 40.3557 65.9465 40.8603Z" fill="#91631D"/>
<path d="M61.5726 37.5006L61.1614 37.1146L61.5726 36.7285L61.9093 37.1146L61.5726 37.5006Z" fill="#161616"/>
<path d="M63.3725 39.7014C63.3054 39.4688 63.1983 39.2691 63.0767 39.0847C63.2284 38.9228 63.3665 38.7263 63.5033 38.5312C63.6156 38.7262 63.7283 38.923 63.8219 39.1479C63.6925 39.3541 63.5424 39.5487 63.3725 39.7014Z" fill="#161616"/>
<path d="M64.276 36.5996C64.1371 36.5288 63.9707 36.5416 63.865 36.6117C63.9188 36.5773 63.9594 36.5295 63.9818 36.4765C63.993 36.4502 63.9997 36.4225 64.0016 36.3953C64.0034 36.3679 64 36.3431 63.9961 36.3088C64.1166 36.2046 64.2967 36.1743 64.4765 36.2197C64.4643 36.3881 64.3873 36.5232 64.276 36.5996Z" fill="#161616"/>
<path d="M59.4882 36.5646C59.3131 36.6504 59.1428 36.7396 58.9474 36.8095C58.9 36.7161 58.8523 36.6214 58.8119 36.5164C58.7915 36.4637 58.7729 36.4069 58.7745 36.3518C58.775 36.3239 58.78 36.2946 58.7964 36.2668C58.8137 36.238 58.8358 36.2165 58.8586 36.1977C58.8575 36.2026 58.8597 36.2086 58.8685 36.2145C58.8773 36.2204 58.8933 36.2242 58.9099 36.2239C58.9267 36.2239 58.9443 36.221 58.9605 36.2161C58.9766 36.2113 58.9909 36.2038 59.0082 36.1982C59.0757 36.1736 59.1504 36.1453 59.2259 36.1152C59.2956 36.2641 59.3938 36.4147 59.4882 36.5646Z" fill="#161616"/>
<path d="M39.5405 23.1612C38.9704 24.4394 38.4152 25.7245 37.7795 26.9723C37.091 28.3239 36.3362 29.6443 35.5181 30.922C33.8497 33.5277 31.9662 36.0017 29.9179 38.3199C28.1805 40.286 26.2859 42.1687 24.136 43.6841C23.2837 44.2848 22.3814 44.8254 21.4203 45.2334C21.5218 45.1903 21.3465 45.2622 21.3448 45.2629C21.2917 45.2841 21.2381 45.3039 21.1848 45.3245C21.0803 45.3645 20.9747 45.4016 20.8691 45.4375C20.666 45.5066 20.4599 45.5651 20.252 45.6157C19.752 45.7379 19.5064 45.7458 19.0578 45.8457C18.5971 45.948 18.5866 46.678 19.0552 46.7773C19.95 46.9668 20.919 46.6529 21.7441 46.3099C22.7724 45.8829 23.7262 45.315 24.633 44.6718C26.8769 43.0806 28.8417 41.106 30.6417 39.0361C32.684 36.6871 34.494 34.1374 36.1026 31.4745C36.889 30.1725 37.6374 28.8473 38.3184 27.487C38.9469 26.2317 39.562 24.9429 39.9695 23.5972C39.9926 23.5212 40.0149 23.4448 40.0373 23.3686C40.1227 23.078 39.6676 22.8756 39.5405 23.1612Z" fill="#161616"/>
<path d="M26.9147 15.6556C25.9282 16.6297 25.0932 17.7384 24.2858 18.8631C23.4131 20.0795 22.6128 21.3438 21.8396 22.6252C20.2489 25.2625 18.8657 28.0286 17.7425 30.8968C16.7489 33.4339 15.9217 36.071 15.5242 38.7725C15.2345 40.7416 15.06 43.0236 15.967 44.8681C16.031 44.9978 16.1526 45.114 16.2461 45.2248C16.5643 45.6015 17.1758 45.1972 17.0516 44.7568C16.9432 44.3706 16.7974 43.9973 16.6924 43.6096C16.5714 43.1622 16.5093 42.7275 16.4743 42.3617C16.372 41.2884 16.4385 40.2012 16.5706 39.1335C16.9017 36.4642 17.7163 33.8427 18.6566 31.3319C19.7181 28.4976 20.9963 25.7384 22.4696 23.0951C23.8666 20.5885 25.5493 18.302 27.3008 16.0373C27.5088 15.7685 27.1712 15.4022 26.9147 15.6556Z" fill="#161616"/>
<path d="M19.7806 46.1449C19.8096 46.1449 19.8101 46.0996 19.7807 46.0996C19.7516 46.0996 19.7514 46.1449 19.7806 46.1449Z" fill="#161616"/>
<path d="M18.7254 46.5998C17.8917 48.0291 17.1549 49.5168 16.3593 50.9682C15.5923 52.3675 14.8256 53.7671 14.0505 55.162C13.33 56.4588 12.6045 57.7528 11.8849 59.0504C11.5537 59.6482 11.2305 60.2506 10.9076 60.8531C10.6309 61.3694 10.131 62.0719 10.4117 62.666C10.455 62.7573 10.5641 62.7797 10.653 62.7648C11.2561 62.6634 11.5587 61.8569 11.8168 61.378C12.1412 60.7764 12.4718 60.178 12.7968 59.5765C13.502 58.271 14.2138 56.9689 14.9209 55.6645C15.6814 54.2607 16.4398 52.8559 17.1682 51.4352C17.9382 49.9338 18.737 48.4338 19.3812 46.8735C19.54 46.4886 18.9243 46.2588 18.7254 46.5998Z" fill="#161616"/>
<path d="M11.2204 60.8005C11.0271 61.3014 10.7142 61.8215 10.2037 61.9201C10.0887 61.9422 9.9261 61.9138 9.75641 61.8677C9.59034 61.8226 9.59451 61.8286 9.41148 61.7097C9.39377 61.6979 9.32236 61.6439 9.4095 61.7106C9.3777 61.6863 9.34651 61.6612 9.31552 61.6362C9.24891 61.5823 9.18577 61.5242 9.12524 61.4636C9.01547 61.3539 8.92641 61.2091 8.87984 61.0564C8.80515 60.8116 8.8219 60.5435 8.87895 60.2748C8.96219 59.8845 9.16553 59.4092 8.99591 59.0261C8.95247 58.9285 8.82054 58.8913 8.72512 58.9152C8.2577 59.0326 8.02029 59.6838 7.9216 60.103C7.82913 60.4969 7.80963 60.9214 7.91968 61.3136C8.07029 61.8512 8.48498 62.2777 8.94769 62.5685C9.39828 62.8511 9.98034 62.9354 10.4925 62.8041C11.3345 62.5885 11.7197 61.7578 11.8316 60.9677C11.8885 60.5651 11.3695 60.4143 11.2204 60.8005Z" fill="#161616"/>
<path d="M12.3317 59.7663C13.6804 60.482 14.933 61.3563 15.7177 62.7014C16.3485 63.7828 16.5532 65.3429 15.7466 66.3788C15.121 67.1821 14.0923 67.4303 13.0954 67.4687C11.9168 67.5143 10.7375 67.2743 9.62006 66.9163C7.43233 66.2158 5.56851 64.6978 4.02302 62.9978C3.20972 62.1037 2.42103 61.0606 2.098 59.8813C1.82926 58.9005 2.10141 58.143 3.00767 57.6328C5.06853 56.4722 7.53253 57.3542 9.60392 57.9636C9.76096 58.0099 9.85159 57.8156 9.7533 57.7045C8.74459 56.5629 7.13138 56.2114 5.66858 56.1438C4.43087 56.0865 3.01212 56.2915 2.0034 57.0646C-0.26949 58.8072 1.60486 61.8012 2.99933 63.4431C4.53908 65.2555 6.51129 66.9044 8.75799 67.7421C9.89221 68.165 11.0998 68.4258 12.3086 68.496C13.4406 68.5621 14.6601 68.4178 15.6414 67.811C17.2034 66.845 17.5697 64.8059 16.9984 63.1571C16.6542 62.1631 16.0052 61.2971 15.2441 60.5827C14.5061 59.89 13.6233 59.2977 12.6485 59.007C12.1977 58.8726 11.9138 59.5443 12.3317 59.7663Z" fill="#161616"/>
<path d="M8.09813 60.8353C8.9563 59.9163 9.48952 58.8063 10.068 57.6991C10.7662 56.3626 11.4323 55.0101 12.1186 53.6676C12.8456 52.2462 13.5933 50.8347 14.3858 49.4487C14.7676 48.7815 15.1626 48.1218 15.5723 47.4715C15.7717 47.1544 15.9761 46.8409 16.1841 46.5296C16.41 46.1915 16.6928 45.8952 16.7239 45.4761C16.7477 45.1549 16.3919 45.0404 16.1501 45.1451C15.8079 45.2933 15.6246 45.6758 15.4218 45.9734C15.2116 46.2823 15.0072 46.5953 14.8055 46.9096C14.3911 47.5561 13.9953 48.2143 13.6097 48.8782C12.8075 50.2592 12.0607 51.6712 11.3336 53.0929C10.6449 54.4396 9.97411 55.7946 9.31846 57.1576C8.76233 58.3138 8.15668 59.4318 7.81373 60.6713C7.769 60.8326 7.98035 60.9614 8.09813 60.8353Z" fill="#161616"/>
<path d="M16.6209 66.2115C16.0855 66.6552 15.8818 67.3671 15.5902 67.9795C15.4605 68.2519 15.3111 68.5203 15.1271 68.7602C14.8729 69.091 14.5399 69.3421 14.277 69.6617C14.0625 69.9222 14.3278 70.264 14.6335 70.1206C15.3022 69.8068 15.788 69.0909 16.0987 68.4445C16.2422 68.1461 16.3593 67.8356 16.4884 67.5311C16.6504 67.1491 16.8399 66.7985 16.9368 66.394C16.9833 66.1992 16.7628 66.0938 16.6209 66.2115Z" fill="#161616"/>
<path d="M14.6818 69.5595C13.2892 69.9373 11.8599 69.8863 10.4598 69.57C8.82507 69.2002 7.26932 68.5718 5.82389 67.7253C3.31421 66.256 0.41699 63.5832 1.02606 60.3524C1.07155 60.11 1.07996 59.8882 1.08208 59.6425C1.08557 59.2722 0.625602 59.1954 0.434843 59.4665C0.0141349 60.0634 -0.0265616 60.86 0.0108514 61.5726C0.0505216 62.3247 0.258242 63.0357 0.558025 63.7222C1.22613 65.2526 2.46602 66.5179 3.7819 67.5104C5.15429 68.5458 6.69178 69.3415 8.30902 69.9195C9.78796 70.448 11.3884 70.76 12.9627 70.6338C13.6332 70.5802 14.3115 70.4091 14.895 70.0696C15.1682 69.9108 14.9866 69.4768 14.6818 69.5595Z" fill="#161616"/>
<path d="M20.3411 46.1786C20.1908 46.1344 19.9776 46.0727 19.7888 46.0342C19.5534 45.9861 19.3184 45.9503 19.0856 45.8888C18.6724 45.7794 18.2903 45.6029 17.9323 45.3704C17.587 45.1464 17.2688 44.8367 17.0193 44.5103C16.8774 44.3251 16.7553 44.1258 16.6412 43.9229C16.5068 43.6841 16.3996 43.3574 16.1811 43.1873C15.882 42.9543 15.5106 43.1041 15.4653 43.483C15.43 43.778 15.6184 44.0843 15.7468 44.3418C15.8829 44.615 16.0654 44.8663 16.2539 45.1051C16.5779 45.5158 16.9604 45.8544 17.4068 46.1276C17.8295 46.3861 18.3097 46.5591 18.7914 46.6673C19.0319 46.7212 19.278 46.7528 19.5229 46.7776C19.8147 46.807 20.0646 46.764 20.3398 46.6955C20.6036 46.6296 20.5917 46.2523 20.3411 46.1786Z" fill="#161616"/>
<path d="M39.4517 23.4883C39.232 23.7492 38.6163 23.6958 38.3132 23.7082C37.5706 23.7388 36.9313 23.458 36.2436 23.2335C35.3467 22.9409 34.48 22.5439 33.6282 22.1411C32.4956 21.6057 31.3922 21.002 30.3485 20.3086C29.4594 19.7177 28.523 19.002 27.9148 18.1532C27.6417 17.7717 27.4984 17.4916 27.4237 17.0605C27.4384 17.1449 27.4164 16.9152 27.4164 16.8689C27.4164 16.8227 27.4198 16.7765 27.4236 16.7306C27.4352 16.5816 27.4049 16.8236 27.4324 16.6758C27.4439 16.6153 27.4557 16.5554 27.4724 16.4958C27.4804 16.4675 27.4904 16.4398 27.5004 16.4121C27.5305 16.3289 27.4474 16.5215 27.509 16.4C27.5341 16.3501 27.5647 16.3034 27.5971 16.2578C27.5008 16.3931 27.6148 16.2455 27.6462 16.2143C27.6657 16.1947 27.6871 16.1764 27.7083 16.1582C27.7876 16.0899 27.6092 16.2309 27.6951 16.1695C27.7505 16.1299 27.8101 16.0962 27.8707 16.0649C28.0242 15.9853 27.8172 16.0789 27.944 16.0321C28.0053 16.0095 28.0678 15.9914 28.1309 15.9746C28.1974 15.9569 28.265 15.9435 28.3327 15.9309C28.3679 15.9243 28.4033 15.9193 28.4389 15.9142C28.2887 15.9362 28.4587 15.9138 28.4882 15.9111C29.2915 15.839 29.9001 15.969 30.672 16.1659C31.5888 16.3998 32.4854 16.7408 33.315 17.1185C35.0127 17.8914 36.6352 18.8732 37.9355 20.1828C38.0813 20.3295 38.2207 20.4822 38.3553 20.6391C38.4195 20.7142 38.4878 20.7856 38.5526 20.8604C38.584 20.8968 38.6147 20.934 38.6453 20.9713C38.648 20.9743 38.7447 21.0972 38.6858 21.0206C38.7823 21.1458 38.8863 21.2774 38.9997 21.4704C39.0437 21.5451 39.0841 21.622 39.1236 21.6993C39.1412 21.7343 39.2279 21.9296 39.1981 21.8568C39.4343 22.4348 39.476 22.9362 39.2659 23.5257C39.1385 23.883 39.6644 24.0644 39.8525 23.7704C40.7107 22.4305 39.8244 20.7111 38.8392 19.6422C37.4997 18.1894 35.7216 17.1037 33.9454 16.2703C32.3521 15.523 30.5179 14.8319 28.7289 14.8814C28.085 14.8995 27.4088 15.0471 26.9297 15.5057C26.3931 16.0196 26.326 16.8716 26.5117 17.5517C26.7803 18.5371 27.5594 19.3443 28.3113 19.9924C29.2616 20.8116 30.3366 21.4853 31.4328 22.09C32.4746 22.6645 33.5547 23.1775 34.6635 23.6095C35.0683 23.7673 35.4775 23.9146 35.8932 24.0425C36.5499 24.2449 37.1866 24.5009 37.8867 24.4921C38.3431 24.4862 38.7931 24.4037 39.1796 24.1548C39.3586 24.0399 39.6125 23.8847 39.7252 23.6969C39.8253 23.5309 39.5805 23.3355 39.4517 23.4883Z" fill="#161616"/>
<path d="M0.791438 61.1107C1.15093 60.6413 1.32869 60.0825 1.58026 59.5534C1.70077 59.3005 1.84557 59.0618 1.96137 58.8064C2.09146 58.5199 2.14481 58.2972 2.08215 57.9956C2.06588 57.9177 1.99009 57.8713 1.91588 57.8668C1.26755 57.8287 0.881723 58.486 0.636247 59.0082C0.368474 59.5786 0.13353 60.2302 0.210682 60.8696C0.240776 61.1191 0.584333 61.381 0.791438 61.1107Z" fill="#161616"/>
<path d="M32.6011 17.91C32.2567 17.7299 31.896 17.6048 31.5326 17.5177C31.1695 17.4311 30.8026 17.384 30.4455 17.3795C30.1169 17.2413 29.7686 17.1371 29.4066 17.0985C29.0466 17.0615 28.6637 17.0884 28.3088 17.2661C28.4478 17.1278 28.6158 17.0124 28.798 16.9241C28.9801 16.8353 29.1754 16.7709 29.3747 16.7258C29.7744 16.6359 30.1883 16.6192 30.5986 16.6471C30.9861 16.7856 31.348 16.9649 31.6847 17.176C32.0208 17.3872 32.3328 17.631 32.6011 17.91Z" fill="#161616"/>
<path d="M33.2539 31.2144C33.7093 30.1882 34.123 29.1493 34.5097 28.103C35.14 27.1826 35.7491 26.242 36.3441 25.291C35.9749 26.3475 35.5886 27.4004 35.1742 28.4466C34.5605 29.3896 33.9234 30.3164 33.2539 31.2144Z" fill="#161616"/>
<path d="M32.8037 32.4299C32.3257 31.2878 30.9116 30.5792 29.8135 30.158C28.5076 29.6575 27.0899 29.4226 25.6952 29.3916C24.3847 29.3625 23.0637 29.5474 21.8505 30.0541C20.8633 30.4661 20.1878 31.2089 19.611 32.0897C18.898 33.1791 18.3871 34.414 18.0077 35.6554C17.6192 36.9263 17.3943 38.286 17.4377 39.6177C17.4769 40.8184 17.7309 42.1205 18.6547 42.965C19.6451 43.8704 21.0477 43.7466 22.2033 43.2675C23.4982 42.7305 24.6299 41.8881 25.7173 41.0171C26.5824 40.3243 27.3774 39.5746 28.1471 38.7778C29.0965 37.7944 30.0132 36.7787 30.9036 35.7418C31.3149 35.2632 31.7207 34.78 32.113 34.2857C32.2847 34.0696 32.4526 33.8504 32.6175 33.6289C32.6824 33.5415 32.7432 33.458 32.7912 33.3602C32.8125 33.3168 32.8333 33.2731 32.8541 33.2294C32.8705 33.1949 33.0064 32.9462 32.9276 33.0682C33.2771 32.5285 32.4134 32.0334 32.0655 32.5705C32.1198 32.4866 31.9554 32.6699 31.926 32.7C31.8309 32.7983 31.7521 32.9081 31.6713 33.0181C31.5263 33.216 31.4026 33.3727 31.2242 33.5966C30.8247 34.0975 30.4107 34.5868 29.9903 35.0702C29.0791 36.1172 28.1384 37.14 27.166 38.1305C26.388 38.9235 25.5714 39.6502 24.7033 40.3429C23.6926 41.1495 22.5743 41.9722 21.327 42.3618C20.8055 42.5248 20.3138 42.5981 19.8031 42.4371C19.2932 42.2762 18.98 41.8013 18.7058 41.3526C18.1155 40.3858 18.1763 39.0327 18.3469 37.9573C18.5581 36.6271 18.9613 35.3141 19.5246 34.0917C19.9763 33.1111 20.538 32.0993 21.3606 31.3795C21.9301 30.881 22.8797 30.616 23.6625 30.4616C24.7092 30.2548 25.7983 30.2578 26.8561 30.3684C27.9501 30.4827 29.0121 30.778 30.0327 31.1817C30.9623 31.5495 31.7143 32.1672 32.5519 32.6835C32.7268 32.7911 32.8689 32.5853 32.8037 32.4299Z" fill="#91621D"/>
<path d="M26.8559 30.3679C25.798 30.2573 24.7089 30.2542 23.6623 30.461C22.8794 30.6155 21.9299 30.8804 21.3604 31.3789C20.5378 32.0987 19.9761 33.1105 19.5244 34.0911C18.9611 35.3136 18.5579 36.6265 18.3466 37.9568C18.1761 39.0322 18.1153 40.3852 18.7055 41.352C18.9798 41.8008 19.293 42.2757 19.8029 42.4365C20.3136 42.5976 20.8053 42.5242 21.3268 42.3612C22.5741 41.9717 23.6924 41.149 24.7031 40.3423C25.5711 39.6496 26.3878 38.9229 27.1658 38.1299C28.1381 37.1394 29.0788 36.1166 29.9901 35.0696C30.4105 34.5863 30.8245 34.0969 31.224 33.5961C31.4024 33.3721 31.5261 33.2154 31.671 33.0175C31.7519 32.9075 31.8307 32.7977 31.9258 32.6994C31.9551 32.6693 32.1196 32.486 32.0653 32.57C32.0984 32.5185 32.1366 32.4768 32.1779 32.4434C31.4835 31.9857 30.8218 31.4932 30.0324 31.181C29.0118 30.7774 27.9499 30.482 26.8559 30.3679Z" fill="#FFC46C"/>
<path d="M20.2028 31.7822C20.2933 32.3137 20.4341 32.8281 20.7688 33.2567C21.0759 33.6493 21.4671 33.9663 21.8959 34.2183C22.8452 34.7762 24.001 34.958 25.0841 35.012C26.2934 35.0722 27.5144 34.9326 28.7021 34.7125C29.7622 34.5159 30.8288 34.2434 31.8312 33.8421C32.0176 33.7675 32.2351 33.7042 32.4013 33.5889C32.5149 33.5104 32.609 33.432 32.6741 33.3073C32.7415 33.1568 32.7339 33.1616 32.651 33.3215C32.6906 33.2759 32.7242 33.2242 32.758 33.1742C32.922 32.9335 32.6971 32.6582 32.4505 32.6369C32.3547 32.6286 32.3518 32.605 32.1863 32.6031C32.0522 32.6015 31.9264 32.6511 31.8053 32.7001C31.5784 32.7915 31.3482 32.8744 31.1187 32.9584C30.6161 33.1419 30.104 33.2983 29.5876 33.437C28.463 33.7392 27.3101 33.9449 26.147 34.0094C25.058 34.0698 23.9452 34.0079 22.9099 33.6412C22.4986 33.4954 22.0811 33.2645 21.7571 32.983C21.6008 32.8473 21.4524 32.6892 21.3345 32.526C21.181 32.3134 20.994 32.1406 20.8742 31.9045C20.8295 31.8166 20.7914 31.7259 20.7562 31.634C20.6242 31.2892 20.1402 31.4158 20.2028 31.7822Z" fill="#91631D"/>
<path d="M26.7606 36.957C26.1429 37.7032 25.5477 38.4646 24.8275 39.1624C24.3867 39.3997 23.9278 39.608 23.455 39.7613C22.983 39.9148 22.4971 40.0111 22.0168 40.0367C22.4731 39.8885 22.899 39.6781 23.2918 39.4246C23.685 39.1715 24.046 38.8765 24.3865 38.5583C25.2009 38.1023 25.9762 37.5192 26.7606 36.957Z" fill="#91631D"/>
<path d="M27.1875 32.0611C26.7711 31.9296 26.348 31.8417 25.9268 31.7959C25.506 31.7508 25.0869 31.7482 24.6858 31.7958C24.2923 31.7068 23.8831 31.6654 23.4702 31.6993C23.0581 31.7333 22.6402 31.8466 22.2571 32.0654C22.5612 31.7491 22.9521 31.5025 23.378 31.337C23.8044 31.1706 24.263 31.081 24.7247 31.0488C25.1812 31.129 25.6152 31.2637 26.0268 31.4357C26.4377 31.6078 26.8267 31.8181 27.1875 32.0611Z" fill="#91631D"/>
<path d="M20.6345 37.0883C20.5635 37.1136 20.4842 37.1279 20.3996 37.1215C20.3151 37.1159 20.2255 37.0879 20.1409 37.0418C20.1877 36.9575 20.2491 36.894 20.3143 36.8462C20.3795 36.798 20.4484 36.7636 20.5168 36.7285C20.6272 36.8 20.7477 36.8617 20.8588 36.8323C20.8056 36.8502 20.756 36.8799 20.7172 36.9244C20.6783 36.9683 20.6512 37.0255 20.6345 37.0883Z" fill="#161616"/>
<path d="M23.6052 37.3721L23.1938 37.0503L23.6052 36.7285L23.9418 37.0503L23.6052 37.3721Z" fill="#161616"/>
<path d="M26.6449 35.7923L26.1959 36.3757L25.4866 36.1784L25.9595 35.666L26.6449 35.7923Z" fill="#161616"/>
<path d="M20.3846 40.2202C20.3302 40.0162 20.212 39.8663 20.0911 39.7225C20.2411 39.6078 20.3808 39.456 20.5173 39.3027C20.6296 39.4555 20.7412 39.6124 20.8352 39.7996C20.706 39.9617 20.5583 40.1239 20.3846 40.2202Z" fill="#161616"/>
<path d="M15.4293 50.3535C14.9853 51.5478 14.5278 52.7386 14.048 53.9239C13.3266 54.9797 12.5873 56.0213 11.8269 57.0434C12.3724 55.8947 12.891 54.7364 13.3886 53.5704C14.0842 52.5107 14.7622 51.4364 15.4293 50.3535Z" fill="#161616"/>
<path d="M4.79572 61.9196C4.406 61.8156 4.02455 61.6213 3.69433 61.3401C3.36466 61.0594 3.08382 60.6931 2.90831 60.2521C2.8657 59.7815 2.95729 59.2996 3.19018 58.915C3.30495 58.7226 3.45268 58.5571 3.61834 58.4256C3.78427 58.2935 3.96744 58.1952 4.15573 58.125C3.8396 58.3714 3.61574 58.7048 3.53667 59.056C3.45391 59.4068 3.50439 59.7657 3.6364 60.0802C3.65911 60.4219 3.77894 60.7776 3.97865 61.097C4.1781 61.4171 4.45798 61.702 4.79572 61.9196Z" fill="#161616"/>
<path d="M13.6365 61.3379C14.0282 61.5756 14.3931 61.8789 14.7024 62.2482C15.0106 62.6174 15.2671 63.0545 15.4065 63.561C15.4081 63.823 15.3756 64.0848 15.3054 64.3335C15.2357 64.5819 15.1273 64.8158 14.9881 65.0219C14.7087 65.4368 14.3131 65.726 13.8975 65.9107C14.2482 65.6209 14.5223 65.2549 14.6523 64.8575C14.7849 64.4603 14.7753 64.0444 14.6655 63.6623C14.6678 63.2634 14.5643 62.8419 14.3843 62.4449C14.2041 62.0469 13.9484 61.6711 13.6365 61.3379Z" fill="#161616"/>
</svg>
