<svg width="32" height="32" viewBox="0 0 32 32" fill="none" xmlns="http://www.w3.org/2000/svg">
<path d="M16.0004 30.8147C24.1824 30.8147 30.8152 24.1819 30.8152 15.9999C30.8152 7.81788 24.1824 1.18506 16.0004 1.18506C7.81837 1.18506 1.18555 7.81788 1.18555 15.9999C1.18555 24.1819 7.81837 30.8147 16.0004 30.8147Z" fill="#E7EFFF"/>
<path d="M15.9999 26.3703C21.5636 26.3703 26.0739 21.86 26.0739 16.2962C26.0739 10.7325 21.5636 6.22217 15.9999 6.22217C10.4361 6.22217 5.92578 10.7325 5.92578 16.2962C5.92578 21.86 10.4361 26.3703 15.9999 26.3703Z" fill="#A5BCED"/>
<path d="M0.888889 4.14838C1.37981 4.14838 1.77778 3.75041 1.77778 3.25949C1.77778 2.76857 1.37981 2.37061 0.888889 2.37061C0.397969 2.37061 0 2.76857 0 3.25949C0 3.75041 0.397969 4.14838 0.888889 4.14838Z" fill="#00C99F"/>
<path d="M30.5188 1.77778C31.0097 1.77778 31.4077 1.37981 31.4077 0.888889C31.4077 0.397969 31.0097 0 30.5188 0C30.0279 0 29.6299 0.397969 29.6299 0.888889C29.6299 1.37981 30.0279 1.77778 30.5188 1.77778Z" fill="#FFA100"/>
<path d="M31.1115 29.0371C31.6025 29.0371 32.0004 28.6391 32.0004 28.1482C32.0004 27.6572 31.6025 27.2593 31.1115 27.2593C30.6206 27.2593 30.2227 27.6572 30.2227 28.1482C30.2227 28.6391 30.6206 29.0371 31.1115 29.0371Z" fill="#00C99F"/>
<path d="M2.07444 31.9999C2.56536 31.9999 2.96332 31.602 2.96332 31.1111C2.96332 30.6201 2.56536 30.2222 2.07444 30.2222C1.58352 30.2222 1.18555 30.6201 1.18555 31.1111C1.18555 31.602 1.58352 31.9999 2.07444 31.9999Z" fill="#FF4D69"/>
<path d="M15.9987 28.0007C22.6264 28.0007 27.9993 22.6279 27.9993 16.0001C27.9993 9.37237 22.6264 3.99951 15.9987 3.99951C9.37091 3.99951 3.99805 9.37237 3.99805 16.0001C3.99805 22.6279 9.37091 28.0007 15.9987 28.0007Z" fill="#E7EFFF"/>
<path d="M26.4341 9.29835L26.4319 24.6942C26.4319 25.6506 25.6494 26.4331 24.693 26.4331H7.30341C6.34701 26.4331 5.56445 25.6506 5.56445 24.6942L5.56663 9.29835H26.4341Z" fill="#DEDDFF"/>
<path d="M26.4316 7.30562L26.4338 9.29847H5.57068L5.5685 7.30562C5.5685 6.34486 6.3467 5.56666 7.30746 5.56666H24.6927C25.6491 5.56666 26.4316 6.34921 26.4316 7.30562Z" fill="#5B5E8B"/>
<path d="M8.35588 26.4331H7.30382C6.34739 26.4331 5.56486 25.6506 5.56486 24.6941L5.56704 9.30265H6.6191L6.61692 24.6941C6.61692 25.6506 7.39948 26.4331 8.35588 26.4331Z" fill="#C6C6F7"/>
<path d="M8.35582 5.56641C7.39507 5.56641 6.61687 6.34461 6.61687 7.30536L6.6191 9.30265H5.56704L5.5648 7.30536C5.5648 6.34461 6.34733 5.56641 7.30376 5.56641H8.35582Z" fill="#312E4B"/>
<path d="M13.0145 7.5433C13.0145 7.95202 12.6833 8.28316 12.2776 8.28316C11.8689 8.28316 11.5377 7.95202 11.5377 7.5433C11.5377 7.13459 11.8689 6.80343 12.2776 6.80343C12.6833 6.80343 13.0145 7.13459 13.0145 7.5433Z" fill="#DEDDFF"/>
<path d="M10.9725 7.54333C10.9725 7.95205 10.6413 8.28319 10.2356 8.28319C9.82689 8.28319 9.49572 7.95205 9.49572 7.54333C9.49572 7.13462 9.82689 6.80346 10.2356 6.80346C10.6413 6.80346 10.9725 7.13462 10.9725 7.54333Z" fill="#DEDDFF"/>
<path d="M8.92997 7.54333C8.92997 7.95205 8.59882 8.28319 8.19309 8.28319C7.78438 8.28319 7.45322 7.95205 7.45322 7.54333C7.45322 7.13462 7.78438 6.80346 8.19309 6.80346C8.59882 6.80346 8.92997 7.13462 8.92997 7.54333Z" fill="#DEDDFF"/>
<path d="M24.5443 7.63166C24.5443 7.89307 24.3321 8.10531 24.0707 8.10531H17.1683C16.9042 8.10531 16.6946 7.89307 16.6946 7.63166C16.6946 7.37024 16.9042 7.158 17.1683 7.158H24.0707C24.3321 7.158 24.5443 7.37024 24.5443 7.63166Z" fill="#DEDDFF"/>
<path d="M17.5464 12.3856L16.477 12.5943C16.3384 12.6338 16.1168 12.5731 15.9857 12.3943C15.8944 12.2639 15.8683 12.1031 15.9205 11.9509L15.9814 11.7814C13.8207 11.8596 12.0904 13.6464 12.0904 15.8288C12.0904 16.7113 12.373 17.5503 12.9034 18.2546C13.0164 18.4068 12.986 18.6242 12.8338 18.7415C12.6954 18.8504 12.4668 18.8351 12.3426 18.672C11.7209 17.8503 11.3905 16.8635 11.3905 15.8288C11.3905 13.2073 13.5251 11.0771 16.1422 11.0771H16.2161L16.2726 10.9206C16.3941 10.5714 16.8554 10.4684 17.1117 10.7597L17.829 11.5814C18.0689 11.8675 17.9271 12.3114 17.5464 12.3856Z" fill="#FCB73E"/>
<path d="M16.3772 20.5673L16.325 20.7629C16.2233 21.1316 15.7681 21.2494 15.5033 20.9847L14.7295 20.2108C14.4693 19.9596 14.5781 19.4892 14.9512 19.3935C16.052 19.1047 16.0125 19.0935 16.1381 19.0935C16.4526 19.0935 16.692 19.392 16.6076 19.7109L16.5728 19.85C19.5946 19.5265 21.172 16.1194 19.5421 13.6245C19.4421 13.468 19.4812 13.2463 19.6464 13.142C19.8073 13.0376 20.0203 13.0811 20.129 13.2419C22.1019 16.2879 20.0382 20.3833 16.3772 20.5673Z" fill="#FCB73E"/>
<path d="M18.6481 15.2294C18.205 15.0495 18.217 15.0767 18.1731 15.0339C18.1558 14.9807 18.1969 14.9574 18.3781 14.5589C18.4292 14.4471 18.4059 14.3167 18.3221 14.2236L17.81 13.7021C17.7215 13.6136 17.5958 13.595 17.4794 13.6369L17.0416 13.8325C17.0276 13.8371 17.0089 13.8371 17.0044 13.8325C16.9951 13.8325 16.9764 13.8185 16.9764 13.8045L16.8087 13.3575C16.7716 13.2411 16.6551 13.1572 16.5341 13.1572L15.8076 13.1526C15.6819 13.1526 15.5701 13.2271 15.5235 13.3435C15.3448 13.7794 15.3726 13.8321 15.2813 13.8138L14.853 13.6089C14.7412 13.5577 14.6062 13.581 14.5177 13.6648L13.9962 14.177C13.9077 14.2655 13.8798 14.4006 13.931 14.5077L14.1265 14.9454C14.1358 14.9593 14.1312 14.978 14.1265 14.9826C14.1265 14.9919 14.1126 15.0059 14.0893 15.0106L13.6515 15.1689C13.5351 15.2155 13.456 15.3319 13.4513 15.4483L13.4467 16.1794C13.4467 16.3051 13.5212 16.4169 13.6329 16.4634L14.08 16.6311C14.0985 16.6357 14.1033 16.6544 14.1079 16.659C14.1234 16.7044 14.0988 16.7034 13.903 17.134C13.8565 17.2458 13.8705 17.3808 13.9589 17.4646L14.4711 17.9908C14.5597 18.0793 14.6854 18.1072 14.8018 18.0513C15.3148 17.838 15.2142 17.8558 15.2768 17.8558C15.3276 17.8815 15.3051 17.9091 15.4723 18.3354C15.5096 18.4518 15.626 18.5356 15.747 18.5356L16.4735 18.5403C16.5992 18.5449 16.711 18.4704 16.7576 18.354L16.9251 17.907C16.9298 17.8884 16.9484 17.879 16.9531 17.879C16.9578 17.8744 16.9811 17.8744 16.9951 17.879L17.4281 18.0839C17.5398 18.1305 17.6702 18.1119 17.7634 18.0281L18.2849 17.5158C18.3734 17.432 18.4014 17.2923 18.3454 17.1852L18.1546 16.7475C18.1452 16.7335 18.1499 16.7149 18.1546 16.7102C18.1546 16.6665 18.2934 16.6465 18.6295 16.5147C18.7459 16.4727 18.8251 16.361 18.8297 16.2399L18.8344 15.5088C18.8344 15.3878 18.7645 15.276 18.6481 15.2294ZM16.1429 16.794C15.6167 16.794 15.1929 16.3703 15.1929 15.8488C15.1929 15.3226 15.6167 14.8988 16.1429 14.8988C16.6645 14.8988 17.0882 15.3226 17.0882 15.8488C17.0882 16.3703 16.6645 16.794 16.1429 16.794Z" fill="#65B9FF"/>
<path d="M14.6855 17.3604C14.5966 17.2781 14.5835 17.1432 14.6295 17.0313L14.8336 16.5969C14.8401 16.5838 14.8401 16.5706 14.8336 16.5574C14.8078 16.5058 14.8715 16.5676 14.3597 16.36C14.2478 16.3139 14.1754 16.202 14.1754 16.0769L14.1787 15.3464C14.182 15.2279 14.261 15.1127 14.3794 15.0666L14.8171 14.9087C14.8401 14.9021 14.8533 14.8889 14.8533 14.8791C14.8599 14.8758 14.8632 14.856 14.8533 14.8428L14.6592 14.4052C14.6065 14.2966 14.6361 14.1616 14.7217 14.0728L15.0837 13.7206L14.8533 13.6087C14.7414 13.5561 14.6066 13.5825 14.5177 13.6648L13.9977 14.1781C13.9088 14.2669 13.8792 14.4019 13.9319 14.5072L14.126 14.9449C14.1359 14.958 14.1326 14.9778 14.126 14.9811C14.126 14.9909 14.1129 15.0074 14.0898 15.0107L13.6521 15.1687C13.537 15.2147 13.4579 15.3331 13.4513 15.4483L13.4481 16.179C13.4481 16.304 13.5205 16.4159 13.6324 16.462L14.0799 16.6298C14.0997 16.6364 14.103 16.6529 14.1096 16.6594C14.1231 16.7134 14.0921 16.7181 13.9022 17.1333C13.8562 17.2452 13.8693 17.3802 13.9582 17.4657L14.4716 17.989C14.5604 18.0778 14.6855 18.1075 14.8007 18.0515L15.1923 17.8804L14.6855 17.3604Z" fill="#3E7FFF"/>
<path d="M16.1428 14.5751C15.4383 14.5751 14.8695 15.1439 14.8695 15.8485C14.8695 16.5488 15.4383 17.1176 16.1428 17.1176C16.8431 17.1176 17.4119 16.5488 17.4119 15.8485C17.4119 15.1439 16.8431 14.5751 16.1428 14.5751ZM16.1426 16.6125C15.7172 16.6125 15.3745 16.2699 15.3745 15.8482C15.3745 15.4228 15.7172 15.0802 16.1426 15.0802C16.5643 15.0802 16.9069 15.4228 16.9069 15.8482C16.9069 16.2699 16.5643 16.6125 16.1426 16.6125Z" fill="#3E7FFF"/>
<path d="M24.3352 23.6032C24.3352 24.2949 23.777 24.8813 23.0571 24.8813H8.64608C7.9418 24.8813 7.36794 24.3074 7.36794 23.6032C7.36794 22.8997 7.94037 22.325 8.64608 22.325H23.0571C23.7614 22.325 24.3352 22.8989 24.3352 23.6032Z" fill="#C6C6F7"/>
<path d="M19.7365 22.76H8.64584C8.1732 22.76 7.80247 23.1452 7.80247 23.6033C7.80247 24.0684 8.18074 24.4467 8.64584 24.4467H19.7365V22.76Z" fill="#46CC6B"/>
</svg>
