<svg width="32" height="32" viewBox="0 0 32 32" fill="none" xmlns="http://www.w3.org/2000/svg">
<g clip-path="url(#clip0_9043_53678)">
<path d="M16.0005 30.5455C24.0338 30.5455 30.546 24.0333 30.546 16C30.546 7.96681 24.0338 1.45459 16.0005 1.45459C7.9673 1.45459 1.45508 7.96681 1.45508 16C1.45508 24.0333 7.9673 30.5455 16.0005 30.5455Z" fill="#E7EFFF"/>
<path d="M16.0005 30.5455C24.0338 30.5455 30.546 24.0333 30.546 16C30.546 7.96681 24.0338 1.45459 16.0005 1.45459C7.9673 1.45459 1.45508 7.96681 1.45508 16C1.45508 24.0333 7.9673 30.5455 16.0005 30.5455Z" fill="#E7EFFF"/>
<path d="M16.0003 26.1817C21.4629 26.1817 25.8912 21.7534 25.8912 16.2908C25.8912 10.8282 21.4629 6.3999 16.0003 6.3999C10.5377 6.3999 6.10938 10.8282 6.10938 16.2908C6.10938 21.7534 10.5377 26.1817 16.0003 26.1817Z" fill="#A5BCED"/>
<path d="M1.16374 4.36362C1.64574 4.36362 2.03647 3.97289 2.03647 3.49089C2.03647 3.0089 1.64574 2.61816 1.16374 2.61816C0.681749 2.61816 0.291016 3.0089 0.291016 3.49089C0.291016 3.97289 0.681749 4.36362 1.16374 4.36362Z" fill="#00C99F"/>
<path d="M30.2546 2.03647C30.7366 2.03647 31.1273 1.64574 31.1273 1.16374C31.1273 0.681749 30.7366 0.291016 30.2546 0.291016C29.7726 0.291016 29.3818 0.681749 29.3818 1.16374C29.3818 1.64574 29.7726 2.03647 30.2546 2.03647Z" fill="#FFA100"/>
<path d="M30.8366 28.8001C31.3186 28.8001 31.7093 28.4094 31.7093 27.9274C31.7093 27.4454 31.3186 27.0547 30.8366 27.0547C30.3546 27.0547 29.9639 27.4454 29.9639 27.9274C29.9639 28.4094 30.3546 28.8001 30.8366 28.8001Z" fill="#00C99F"/>
<path d="M2.32781 31.7088C2.8098 31.7088 3.20053 31.3181 3.20053 30.8361C3.20053 30.3541 2.8098 29.9634 2.32781 29.9634C1.84581 29.9634 1.45508 30.3541 1.45508 30.8361C1.45508 31.3181 1.84581 31.7088 2.32781 31.7088Z" fill="#FF4D69"/>
<path d="M26.895 25.632C25.5684 27.139 23.9431 28.3539 22.1223 29.1997C20.3015 30.0455 18.3248 30.5038 16.3175 30.5455C14.6296 29.9768 13.097 29.0238 11.8404 27.7615L3.98587 19.907C2.62901 18.5548 1.63307 16.8838 1.08926 15.047C0.545447 13.2103 0.471141 11.2664 0.873147 9.3935C1.00282 8.78685 1.30603 8.23096 1.74587 7.7935L4.42806 5.11132C4.69189 4.84837 5.04654 4.69666 5.41892 4.68746C5.7913 4.67825 6.15301 4.81226 6.42951 5.06186C6.46442 5.08804 6.1386 4.77095 11.6281 10.2546C11.9007 10.5274 12.0539 10.8973 12.0539 11.283C12.0539 11.6686 11.9007 12.0385 11.6281 12.3113L8.72769 15.1913C8.56426 15.355 8.47246 15.5768 8.47246 15.808C8.47246 16.0393 8.56426 16.2611 8.72769 16.4248L15.3139 23.008C15.395 23.0894 15.4913 23.154 15.5974 23.198C15.7035 23.2421 15.8172 23.2647 15.9321 23.2647C16.0469 23.2647 16.1607 23.2421 16.2667 23.198C16.3728 23.154 16.4692 23.0894 16.5502 23.008L19.4302 20.128C19.703 19.8554 20.0729 19.7022 20.4586 19.7022C20.8443 19.7022 21.2142 19.8554 21.487 20.128C27.0841 25.7251 26.7379 25.3382 26.895 25.632Z" fill="#4E6AFF"/>
<path d="M11.613 10.2547C11.8857 10.5275 12.0388 10.8974 12.0388 11.2831C12.0388 11.6687 11.8857 12.0387 11.613 12.3114L10.2166 13.7078L3.0166 6.50778L4.41297 5.11142C4.68573 4.83873 5.05564 4.68555 5.44133 4.68555C5.82702 4.68555 6.19693 4.83873 6.46969 5.11142L11.613 10.2547Z" fill="#323FD4"/>
<path d="M26.8943 25.632C26.151 26.4778 25.3103 27.2326 24.3896 27.8808L18.0361 21.5273L19.4325 20.1309C19.7053 19.8583 20.0752 19.7051 20.4609 19.7051C20.8466 19.7051 21.2165 19.8583 21.4892 20.1309C27.0834 25.7251 26.7372 25.3382 26.8943 25.632Z" fill="#323FD4"/>
<path d="M31.1271 6.40045V15.7095C31.1271 16.0182 31.0045 16.3141 30.7862 16.5324C30.568 16.7506 30.272 16.8732 29.9634 16.8732H18.618L18.1671 17.7779C18.1272 17.8555 18.0668 17.9206 17.9924 17.966C17.9179 18.0114 17.8324 18.0355 17.7452 18.0355C17.658 18.0355 17.5725 18.0114 17.4981 17.966C17.4237 17.9206 17.3633 17.8555 17.3234 17.7779L16.8725 16.8732H16.5816C16.273 16.8732 15.977 16.7506 15.7588 16.5324C15.5406 16.3141 15.418 16.0182 15.418 15.7095V6.40045C15.418 6.09184 15.5406 5.79586 15.7588 5.57764C15.977 5.35941 16.273 5.23682 16.5816 5.23682H29.9634C30.272 5.23682 30.568 5.35941 30.7862 5.57764C31.0045 5.79586 31.1271 6.09184 31.1271 6.40045Z" fill="#FFA100"/>
<path d="M18.9098 8.72739C19.3918 8.72739 19.7826 8.33665 19.7826 7.85466C19.7826 7.37267 19.3918 6.98193 18.9098 6.98193C18.4278 6.98193 18.0371 7.37267 18.0371 7.85466C18.0371 8.33665 18.4278 8.72739 18.9098 8.72739Z" fill="white"/>
<path d="M17.1641 9.59999V10.1818C17.1641 10.259 17.1947 10.333 17.2493 10.3875C17.3038 10.4421 17.3778 10.4727 17.455 10.4727H18.0368V14.8364C18.0368 14.9135 18.0674 14.9875 18.122 15.0421C18.1766 15.0966 18.2505 15.1273 18.3277 15.1273H19.4913C19.5685 15.1273 19.6425 15.0966 19.697 15.0421C19.7516 14.9875 19.7822 14.9135 19.7822 14.8364V9.59999C19.7822 9.52284 19.7516 9.44884 19.697 9.39429C19.6425 9.33973 19.5685 9.30908 19.4913 9.30908H17.455C17.3778 9.30908 17.3038 9.33973 17.2493 9.39429C17.1947 9.44884 17.1641 9.52284 17.1641 9.59999Z" fill="white"/>
<path d="M29.3828 11.6362H21.5282C21.3675 11.6362 21.2373 11.7665 21.2373 11.9271V12.509C21.2373 12.6696 21.3675 12.7999 21.5282 12.7999H29.3828C29.5434 12.7999 29.6737 12.6696 29.6737 12.509V11.9271C29.6737 11.7665 29.5434 11.6362 29.3828 11.6362Z" fill="white"/>
<path d="M26.1828 9.30957H21.5282C21.3675 9.30957 21.2373 9.43981 21.2373 9.60048V10.1823C21.2373 10.343 21.3675 10.4732 21.5282 10.4732H26.1828C26.3434 10.4732 26.4737 10.343 26.4737 10.1823V9.60048C26.4737 9.43981 26.3434 9.30957 26.1828 9.30957Z" fill="white"/>
<path d="M29.3828 13.9639H21.5282C21.3675 13.9639 21.2373 14.0941 21.2373 14.2548V14.8366C21.2373 14.9973 21.3675 15.1275 21.5282 15.1275H29.3828C29.5434 15.1275 29.6737 14.9973 29.6737 14.8366V14.2548C29.6737 14.0941 29.5434 13.9639 29.3828 13.9639Z" fill="white"/>
</g>
<defs>
<clipPath id="clip0_9043_53678">
<rect width="32" height="32" fill="white"/>
</clipPath>
</defs>
</svg>
