<svg width="32" height="32" viewBox="0 0 32 32" fill="none" xmlns="http://www.w3.org/2000/svg">
<path d="M16.0004 30.8147C24.1824 30.8147 30.8152 24.1819 30.8152 15.9999C30.8152 7.81788 24.1824 1.18506 16.0004 1.18506C7.81837 1.18506 1.18555 7.81788 1.18555 15.9999C1.18555 24.1819 7.81837 30.8147 16.0004 30.8147Z" fill="#E7EFFF"/>
<path d="M15.9999 26.3703C21.5636 26.3703 26.0739 21.86 26.0739 16.2962C26.0739 10.7325 21.5636 6.22217 15.9999 6.22217C10.4361 6.22217 5.92578 10.7325 5.92578 16.2962C5.92578 21.86 10.4361 26.3703 15.9999 26.3703Z" fill="#A5BCED"/>
<path d="M0.888889 4.14838C1.37981 4.14838 1.77778 3.75041 1.77778 3.25949C1.77778 2.76857 1.37981 2.37061 0.888889 2.37061C0.397969 2.37061 0 2.76857 0 3.25949C0 3.75041 0.397969 4.14838 0.888889 4.14838Z" fill="#00C99F"/>
<path d="M30.5188 1.77778C31.0097 1.77778 31.4077 1.37981 31.4077 0.888889C31.4077 0.397969 31.0097 0 30.5188 0C30.0279 0 29.6299 0.397969 29.6299 0.888889C29.6299 1.37981 30.0279 1.77778 30.5188 1.77778Z" fill="#FFA100"/>
<path d="M31.1115 29.0371C31.6025 29.0371 32.0004 28.6391 32.0004 28.1482C32.0004 27.6572 31.6025 27.2593 31.1115 27.2593C30.6206 27.2593 30.2227 27.6572 30.2227 28.1482C30.2227 28.6391 30.6206 29.0371 31.1115 29.0371Z" fill="#00C99F"/>
<path d="M2.07444 31.9999C2.56536 31.9999 2.96332 31.602 2.96332 31.1111C2.96332 30.6201 2.56536 30.2222 2.07444 30.2222C1.58352 30.2222 1.18555 30.6201 1.18555 31.1111C1.18555 31.602 1.58352 31.9999 2.07444 31.9999Z" fill="#FF4D69"/>
<path fill-rule="evenodd" clip-rule="evenodd" d="M12.6021 24.2985C12.5435 24.2985 12.4849 24.2761 12.4401 24.2314L7.77119 19.5626C7.72823 19.5196 7.7041 19.4614 7.7041 19.4006C7.7041 19.3399 7.72823 19.2816 7.77119 19.2387L17.9165 9.09346C17.9594 9.0505 18.0176 9.02637 18.0784 9.02637C18.1391 9.02637 18.1974 9.0505 18.2403 9.09346L22.9093 13.7623C22.9988 13.8517 22.9988 13.9968 22.9093 14.0862L12.764 24.2313C12.7193 24.2761 12.6607 24.2985 12.6021 24.2985ZM8.25707 19.4006L12.6021 23.7455L22.4234 13.9242L18.0784 9.57928L8.25707 19.4006Z" fill="black"/>
<path fill-rule="evenodd" clip-rule="evenodd" d="M22.7447 14.1539C22.6839 14.1539 22.6257 14.1297 22.5827 14.0868L17.9138 9.41792C17.8243 9.32849 17.8243 9.18347 17.9138 9.09405L19.5736 7.43428C19.6165 7.39132 19.6748 7.36719 19.7355 7.36719C19.7963 7.36719 19.8545 7.39132 19.8974 7.43428L24.5664 12.1031C24.6559 12.1926 24.6559 12.3376 24.5664 12.4271L22.9066 14.0868C22.8636 14.1297 22.8054 14.1539 22.7447 14.1539ZM18.3997 9.256L22.7447 13.6009L24.0805 12.265L19.7355 7.92005L18.3997 9.256Z" fill="black"/>
<path fill-rule="evenodd" clip-rule="evenodd" d="M6.7271 25.4987C6.66698 25.4987 6.60856 25.475 6.56514 25.4316C6.51074 25.3772 6.48726 25.2991 6.50271 25.2238L7.70348 19.3541C7.72041 19.2715 7.78128 19.2049 7.86198 19.1806C7.94277 19.1563 8.03021 19.1784 8.08983 19.238L12.7588 23.9069C12.8184 23.9665 12.8404 24.054 12.8161 24.1347C12.7919 24.2155 12.7253 24.2763 12.6427 24.2932L6.77306 25.494C6.75779 25.4972 6.74238 25.4987 6.7271 25.4987ZM8.06699 19.8629L7.02099 24.9758L12.1338 23.9298L8.06699 19.8629Z" fill="black"/>
<path fill-rule="evenodd" clip-rule="evenodd" d="M9.89968 24.8494C9.84104 24.8494 9.78244 24.8271 9.73772 24.7823L7.21355 22.2582C7.12413 22.1687 7.12413 22.0237 7.21355 21.9343C7.30298 21.8448 7.448 21.8448 7.53743 21.9343L10.0616 24.4584C10.1511 24.5479 10.1511 24.6929 10.0616 24.7823C10.0169 24.8271 9.95829 24.8494 9.89968 24.8494Z" fill="black"/>
<path fill-rule="evenodd" clip-rule="evenodd" d="M11.3755 19.0987C11.3169 19.0987 11.2583 19.0764 11.2136 19.0316C11.1241 18.9422 11.1241 18.7972 11.2136 18.7078L17.3797 12.5417C17.4691 12.4523 17.6141 12.4523 17.7035 12.5417C17.793 12.6311 17.793 12.7761 17.7035 12.8655L11.5375 19.0317C11.4927 19.0764 11.4341 19.0987 11.3755 19.0987Z" fill="black"/>
<path fill-rule="evenodd" clip-rule="evenodd" d="M13.1294 20.8502C13.0708 20.8502 13.0122 20.8278 12.9675 20.783C12.878 20.6936 12.878 20.5486 12.9675 20.4592L19.1336 14.2931C19.223 14.2037 19.3681 14.2037 19.4574 14.2931C19.5469 14.3826 19.5469 14.5276 19.4574 14.6171L13.2913 20.783C13.2467 20.8278 13.188 20.8502 13.1294 20.8502Z" fill="black"/>
<path fill-rule="evenodd" clip-rule="evenodd" d="M24.4038 12.4929C24.3451 12.4929 24.2865 12.4705 24.2418 12.4258L19.573 7.75696C19.4835 7.66753 19.4835 7.52251 19.5729 7.43304L20.8943 6.11163C21.2891 5.71689 21.8158 5.49951 22.3775 5.49951C22.9393 5.49951 23.4661 5.71698 23.8608 6.11172L25.8871 8.13805C26.2819 8.53275 26.4993 9.0595 26.4993 9.62123C26.4993 10.1829 26.2819 10.7097 25.8871 11.1045L24.5657 12.4258C24.521 12.4705 24.4624 12.4929 24.4038 12.4929ZM20.0588 7.595L24.4038 11.94L25.5633 10.7805C25.8714 10.4723 26.0412 10.0605 26.0412 9.62118C26.0412 9.18177 25.8715 8.77009 25.5633 8.46191L23.537 6.43559C23.2287 6.12736 22.817 5.9576 22.3775 5.9576C21.9381 5.9576 21.5264 6.12731 21.2182 6.43549L20.0588 7.595Z" fill="black"/>
<path fill-rule="evenodd" clip-rule="evenodd" d="M24.6297 25.4996H6.731C6.60453 25.4996 6.50195 25.397 6.50195 25.2706C6.50195 25.1441 6.60453 25.0415 6.731 25.0415H24.6297C24.7562 25.0415 24.8587 25.1441 24.8587 25.2706C24.8587 25.397 24.7561 25.4996 24.6297 25.4996Z" fill="black"/>
<path fill-rule="evenodd" clip-rule="evenodd" d="M7.02441 24.9758L9.44103 24.4813L7.51883 22.5591L7.02441 24.9758Z" fill="#343B3B"/>
<path fill-rule="evenodd" clip-rule="evenodd" d="M7.62695 22.0218L9.97689 24.3718L12.1354 23.9301L8.06853 19.8633L7.62695 22.0218Z" fill="#F1E3CC"/>
<path fill-rule="evenodd" clip-rule="evenodd" d="M8.25586 19.4009L12.6009 23.7458L22.4222 13.9245L18.0772 9.57959L8.25586 19.4009ZM13.1322 20.851C13.0736 20.851 13.015 20.8286 12.9703 20.7839C12.8808 20.6944 12.8808 20.5494 12.9703 20.46L19.1364 14.294C19.2258 14.2045 19.3709 14.2045 19.4602 14.294C19.5498 14.3834 19.5498 14.5284 19.4602 14.6179L13.2941 20.7839C13.2495 20.8286 13.1908 20.851 13.1322 20.851ZM11.38 19.0987C11.3213 19.0987 11.2627 19.0763 11.218 19.0316C11.1285 18.9421 11.1285 18.7971 11.218 18.7077L17.3841 12.5416C17.4735 12.4522 17.6186 12.4522 17.7079 12.5416C17.7974 12.631 17.7974 12.7761 17.7079 12.8655L11.5419 19.0316C11.4972 19.0763 11.4386 19.0987 11.38 19.0987Z" fill="#FFB01A"/>
<path fill-rule="evenodd" clip-rule="evenodd" d="M18.4043 9.25538L22.7493 13.6003L24.0852 12.2644L19.7402 7.91943L18.4043 9.25538Z" fill="#E6E8E8"/>
<path fill-rule="evenodd" clip-rule="evenodd" d="M20.0635 7.59541L24.4085 11.9404L25.5679 10.7809C25.8761 10.4727 26.0459 10.0609 26.0459 9.62159C26.0459 9.18218 25.8762 8.7705 25.5679 8.46232L23.5416 6.43599C23.2334 6.12776 22.8216 5.95801 22.3822 5.95801C21.9428 5.95801 21.5311 6.12772 21.2229 6.4359L20.0635 7.59541Z" fill="#D63305"/>
</svg>
