<svg width="32" height="32" viewBox="0 0 32 32" fill="none" xmlns="http://www.w3.org/2000/svg">
<path d="M16.0004 30.8147C24.1824 30.8147 30.8152 24.1819 30.8152 15.9999C30.8152 7.81788 24.1824 1.18506 16.0004 1.18506C7.81837 1.18506 1.18555 7.81788 1.18555 15.9999C1.18555 24.1819 7.81837 30.8147 16.0004 30.8147Z" fill="#E7EFFF"/>
<path d="M15.9999 26.3703C21.5636 26.3703 26.0739 21.86 26.0739 16.2962C26.0739 10.7325 21.5636 6.22217 15.9999 6.22217C10.4361 6.22217 5.92578 10.7325 5.92578 16.2962C5.92578 21.86 10.4361 26.3703 15.9999 26.3703Z" fill="#A5BCED"/>
<path d="M0.888889 4.14838C1.37981 4.14838 1.77778 3.75041 1.77778 3.25949C1.77778 2.76857 1.37981 2.37061 0.888889 2.37061C0.397969 2.37061 0 2.76857 0 3.25949C0 3.75041 0.397969 4.14838 0.888889 4.14838Z" fill="#00C99F"/>
<path d="M30.5188 1.77778C31.0097 1.77778 31.4077 1.37981 31.4077 0.888889C31.4077 0.397969 31.0097 0 30.5188 0C30.0279 0 29.6299 0.397969 29.6299 0.888889C29.6299 1.37981 30.0279 1.77778 30.5188 1.77778Z" fill="#FFA100"/>
<path d="M31.1115 29.0371C31.6025 29.0371 32.0004 28.6391 32.0004 28.1482C32.0004 27.6572 31.6025 27.2593 31.1115 27.2593C30.6206 27.2593 30.2227 27.6572 30.2227 28.1482C30.2227 28.6391 30.6206 29.0371 31.1115 29.0371Z" fill="#00C99F"/>
<path d="M2.07444 31.9999C2.56536 31.9999 2.96332 31.602 2.96332 31.1111C2.96332 30.6201 2.56536 30.2222 2.07444 30.2222C1.58352 30.2222 1.18555 30.6201 1.18555 31.1111C1.18555 31.602 1.58352 31.9999 2.07444 31.9999Z" fill="#FF4D69"/>
<path d="M24.8149 10.5557H21.4446L10.5557 16.7779V20.1483C10.5557 20.4921 10.6922 20.8218 10.9353 21.0649C11.1784 21.308 11.5082 21.4446 11.852 21.4446H23.5186L26.1112 26.1112V11.852C26.1112 11.5082 25.9746 11.1784 25.7315 10.9353C25.4884 10.6922 25.1587 10.5557 24.8149 10.5557Z" fill="#908EFF"/>
<path d="M20.1489 16.778H8.48224L5.88965 21.4447V7.18546C5.88965 6.84166 6.02622 6.51194 6.26932 6.26884C6.51243 6.02573 6.84215 5.88916 7.18594 5.88916H20.1489C20.4927 5.88916 20.8224 6.02573 21.0655 6.26884C21.3086 6.51194 21.4452 6.84166 21.4452 7.18546V15.4818C21.4452 15.8256 21.3086 16.1553 21.0655 16.3984C20.8224 16.6415 20.4927 16.778 20.1489 16.778Z" fill="#D6DBFF"/>
<path d="M24.8151 10.2965H21.704V7.18544C21.7035 6.77302 21.5395 6.37763 21.2478 6.08601C20.9562 5.79439 20.5608 5.63035 20.1484 5.62988H7.18544C6.77302 5.63035 6.37763 5.79439 6.08601 6.08601C5.79439 6.37763 5.63035 6.77302 5.62988 7.18544V21.4447C5.62989 21.5021 5.64897 21.5579 5.68412 21.6034C5.71928 21.6488 5.76852 21.6812 5.82411 21.6956C5.87971 21.71 5.93851 21.7056 5.9913 21.6829C6.04409 21.6603 6.08786 21.6208 6.11576 21.5706L8.63428 17.0373H10.2965V20.1484C10.297 20.5608 10.4611 20.9562 10.7527 21.2478C11.0443 21.5395 11.4397 21.7035 11.8521 21.704H23.3662L25.8847 26.2373C25.9126 26.2875 25.9564 26.327 26.0092 26.3496C26.062 26.3722 26.1208 26.3767 26.1764 26.3623C26.232 26.3479 26.2812 26.3154 26.3164 26.27C26.3515 26.2246 26.3706 26.1688 26.3706 26.1114V11.8521C26.3702 11.4397 26.2061 11.0443 25.9145 10.7527C25.6229 10.4611 25.2275 10.297 24.8151 10.2965ZM8.48173 16.5188C8.4355 16.5188 8.39011 16.5311 8.35026 16.5546C8.31042 16.578 8.27757 16.6117 8.25512 16.6521L6.1484 20.4442V7.18544C6.14871 6.91049 6.25807 6.6469 6.45248 6.45248C6.6469 6.25807 6.91049 6.14871 7.18544 6.1484H20.1484C20.4233 6.14871 20.6869 6.25807 20.8814 6.45248C21.0758 6.6469 21.1851 6.91049 21.1854 7.18544V15.4817C21.1851 15.7567 21.0758 16.0203 20.8814 16.2147C20.6869 16.4091 20.4233 16.5185 20.1484 16.5188H8.48173ZM25.8521 25.1109L23.7454 21.3188C23.7229 21.2784 23.6901 21.2447 23.6502 21.2213C23.6104 21.1978 23.565 21.1854 23.5188 21.1854H11.8521C11.5772 21.1851 11.3136 21.0758 11.1192 20.8814C10.9247 20.6869 10.8154 20.4233 10.8151 20.1484V17.0373H20.1484C20.5608 17.0368 20.9562 16.8728 21.2478 16.5812C21.5395 16.2895 21.7035 15.8942 21.704 15.4817V10.8151H24.8151C25.09 10.8154 25.3536 10.9247 25.548 11.1192C25.7424 11.3136 25.8518 11.5772 25.8521 11.8521V25.1109ZM11.5928 9.51877V8.48173C11.5928 8.41297 11.6202 8.34703 11.6688 8.29841C11.7174 8.24979 11.7833 8.22248 11.8521 8.22248C11.9209 8.22248 11.9868 8.24979 12.0354 8.29841C12.084 8.34703 12.1114 8.41297 12.1114 8.48173V9.51877C12.1114 9.58753 12.084 9.65348 12.0354 9.7021C11.9868 9.75072 11.9209 9.77803 11.8521 9.77803C11.7833 9.77803 11.7174 9.75072 11.6688 9.7021C11.6202 9.65348 11.5928 9.58753 11.5928 9.51877ZM15.2225 9.51877V8.48173C15.2225 8.41297 15.2498 8.34703 15.2984 8.29841C15.347 8.24979 15.413 8.22248 15.4817 8.22248C15.5505 8.22248 15.6164 8.24979 15.6651 8.29841C15.7137 8.34703 15.741 8.41297 15.741 8.48173V9.51877C15.741 9.58753 15.7137 9.65348 15.6651 9.7021C15.6164 9.75072 15.5505 9.77803 15.4817 9.77803C15.413 9.77803 15.347 9.75072 15.2984 9.7021C15.2498 9.65348 15.2225 9.58753 15.2225 9.51877ZM10.0373 10.8151C10.0373 10.7463 10.0646 10.6804 10.1132 10.6317C10.1618 10.5831 10.2278 10.5558 10.2965 10.5558C10.3653 10.5558 10.4313 10.5831 10.4799 10.6317C10.5285 10.6804 10.5558 10.7463 10.5558 10.8151C10.5558 11.6402 10.8836 12.4315 11.467 13.015C12.0505 13.5984 12.8418 13.9262 13.6669 13.9262C14.492 13.9262 15.2834 13.5984 15.8668 13.015C16.4503 12.4315 16.778 11.6402 16.778 10.8151C16.778 10.7463 16.8053 10.6804 16.854 10.6317C16.9026 10.5831 16.9685 10.5558 17.0373 10.5558C17.106 10.5558 17.172 10.5831 17.2206 10.6317C17.2692 10.6804 17.2965 10.7463 17.2965 10.8151C17.2965 12.8165 15.6684 14.4447 13.6669 14.4447C11.6654 14.4447 10.0373 12.8165 10.0373 10.8151Z" fill="#34374C"/>
</svg>
