<svg width="32" height="32" viewBox="0 0 32 32" fill="none" xmlns="http://www.w3.org/2000/svg">
<g clip-path="url(#clip0_9043_53698)">
<path d="M30.546 15.9999C30.5462 19.5049 29.2807 22.8921 26.9823 25.5384C24.684 28.1847 21.5074 29.9121 18.0369 30.4028C16.8733 26.9497 4.65508 25.0966 4.65508 25.0966C4.22933 24.5633 3.84054 24.0015 3.49144 23.4152C2.34904 21.4899 1.66646 19.3269 1.49687 17.0946C1.32729 14.8623 1.67526 12.621 2.5137 10.5452C3.35214 8.4694 4.65842 6.61516 6.33081 5.12688C8.00319 3.63859 9.99654 2.55642 12.1556 1.96464C14.3147 1.37287 16.5813 1.28745 18.7788 1.71506C20.9763 2.14267 23.0454 3.07175 24.8251 4.42995C26.6047 5.78816 28.0469 7.53882 29.0391 9.54562C30.0314 11.5524 30.5471 13.7612 30.546 15.9999Z" fill="#E7EFFF"/>
<path d="M25.891 14.2546C28.301 14.2546 30.2546 12.301 30.2546 9.89098C30.2546 7.48101 28.301 5.52734 25.891 5.52734C23.481 5.52734 21.5273 7.48101 21.5273 9.89098C21.5273 12.301 23.481 14.2546 25.891 14.2546Z" fill="#00C99F"/>
<path d="M25.1901 11.4648L23.7356 10.0102C23.6403 9.89894 23.5905 9.75577 23.5961 9.60934C23.6018 9.46291 23.6625 9.324 23.7661 9.22038C23.8697 9.11677 24.0086 9.05606 24.1551 9.05041C24.3015 9.04475 24.4447 9.09456 24.556 9.18988L25.6003 10.2313L27.5174 8.31715C27.6287 8.22183 27.7719 8.17202 27.9183 8.17768C28.0648 8.18334 28.2037 8.24404 28.3073 8.34766C28.4109 8.45128 28.4716 8.59018 28.4773 8.73661C28.4829 8.88304 28.4331 9.02621 28.3378 9.13751L26.0105 11.4648C25.9015 11.5731 25.754 11.634 25.6003 11.634C25.4466 11.634 25.2992 11.5731 25.1901 11.4648Z" fill="white"/>
<path d="M5.23699 2.03647C5.71898 2.03647 6.10971 1.64574 6.10971 1.16374C6.10971 0.681749 5.71898 0.291016 5.23699 0.291016C4.75499 0.291016 4.36426 0.681749 4.36426 1.16374C4.36426 1.64574 4.75499 2.03647 5.23699 2.03647Z" fill="#00C99F"/>
<path d="M30.8366 3.49106C31.3186 3.49106 31.7093 3.10033 31.7093 2.61833C31.7093 2.13634 31.3186 1.74561 30.8366 1.74561C30.3546 1.74561 29.9639 2.13634 29.9639 2.61833C29.9639 3.10033 30.3546 3.49106 30.8366 3.49106Z" fill="#FFA100"/>
<path d="M29.7663 31.7093C30.2483 31.7093 30.639 31.3186 30.639 30.8366C30.639 30.3546 30.2483 29.9639 29.7663 29.9639C29.2843 29.9639 28.8936 30.3546 28.8936 30.8366C28.8936 31.3186 29.2843 31.7093 29.7663 31.7093Z" fill="#00C99F"/>
<path d="M1.16374 29.3822C1.64574 29.3822 2.03647 28.9914 2.03647 28.5094C2.03647 28.0275 1.64574 27.6367 1.16374 27.6367C0.681749 27.6367 0.291016 28.0275 0.291016 28.5094C0.291016 28.9914 0.681749 29.3822 1.16374 29.3822Z" fill="#FF4D69"/>
<path d="M19.4911 7.85468V30.1209C19.0118 30.2438 18.5263 30.3409 18.0366 30.4118C16.8729 26.95 4.65474 25.0969 4.65474 25.0969C4.10474 24.4131 3.6179 23.6809 3.2002 22.9092V7.85468C3.2002 6.92883 3.56799 6.04091 4.22266 5.38623C4.87733 4.73156 5.76526 4.36377 6.6911 4.36377H16.0002C16.926 4.36377 17.814 4.73156 18.4686 5.38623C19.1233 6.04091 19.4911 6.92883 19.4911 7.85468Z" fill="#7F96D1"/>
<path d="M18.0361 7.85472V30.4031C15.5368 30.7583 12.988 30.4557 10.6413 29.5252C8.29459 28.5947 6.23106 27.0684 4.6543 25.0969V7.85472C4.6543 7.31465 4.86884 6.79669 5.25073 6.4148C5.63263 6.0329 6.15058 5.81836 6.69066 5.81836H15.9998C16.5398 5.81836 17.0578 6.0329 17.4397 6.4148C17.8216 6.79669 18.0361 7.31465 18.0361 7.85472Z" fill="white"/>
<path d="M11.3458 20.073C14.0771 20.073 16.2913 17.8589 16.2913 15.1276C16.2913 12.3963 14.0771 10.1821 11.3458 10.1821C8.61455 10.1821 6.40039 12.3963 6.40039 15.1276C6.40039 17.8589 8.61455 20.073 11.3458 20.073Z" fill="#FFA100"/>
<path d="M11.346 14.5457C11.1917 14.5457 11.0437 14.4844 10.9346 14.3753C10.8255 14.2662 10.7642 14.1182 10.7642 13.9639C10.7642 13.8096 10.8255 13.6616 10.9346 13.5525C11.0437 13.4434 11.1917 13.3821 11.346 13.3821H12.5097C12.664 13.3821 12.812 13.3208 12.9211 13.2117C13.0302 13.1025 13.0915 12.9546 13.0915 12.8002C13.0915 12.6459 13.0302 12.498 12.9211 12.3888C12.812 12.2797 12.664 12.2184 12.5097 12.2184H11.9279V11.9275C11.9279 11.7732 11.8666 11.6252 11.7574 11.5161C11.6483 11.407 11.5003 11.3457 11.346 11.3457C11.1917 11.3457 11.0437 11.407 10.9346 11.5161C10.8255 11.6252 10.7642 11.7732 10.7642 11.9275V12.3202C10.3774 12.4585 10.0518 12.7287 9.84455 13.0834C9.63734 13.438 9.56184 13.8544 9.63134 14.2592C9.70084 14.6641 9.91088 15.0314 10.2245 15.2967C10.5382 15.5619 10.9353 15.708 11.346 15.7093C11.5003 15.7093 11.6483 15.7706 11.7574 15.8797C11.8666 15.9889 11.9279 16.1368 11.9279 16.2912C11.9279 16.4455 11.8666 16.5935 11.7574 16.7026C11.6483 16.8117 11.5003 16.873 11.346 16.873H10.1824C10.0281 16.873 9.88011 16.9343 9.771 17.0434C9.66188 17.1525 9.60059 17.3005 9.60059 17.4548C9.60059 17.6091 9.66188 17.7571 9.771 17.8662C9.88011 17.9753 10.0281 18.0366 10.1824 18.0366H10.7642V18.3275C10.7642 18.4818 10.8255 18.6298 10.9346 18.7389C11.0437 18.848 11.1917 18.9093 11.346 18.9093C11.5003 18.9093 11.6483 18.848 11.7574 18.7389C11.8666 18.6298 11.9279 18.4818 11.9279 18.3275V17.9348C12.3147 17.7966 12.6403 17.5263 12.8475 17.1717C13.0547 16.817 13.1302 16.4007 13.0607 15.9958C12.9912 15.591 12.7812 15.2236 12.4676 14.9584C12.1539 14.6932 11.7568 14.547 11.346 14.5457Z" fill="white"/>
<path d="M7.56348 5.52734H15.1271V6.69098C15.1271 6.92244 15.0352 7.14442 14.8715 7.30809C14.7078 7.47176 14.4858 7.56371 14.2544 7.56371H8.4362C8.20474 7.56371 7.98276 7.47176 7.81909 7.30809C7.65542 7.14442 7.56348 6.92244 7.56348 6.69098V5.52734Z" fill="#7F96D1"/>
<path d="M24.727 23.8547H18.9089C18.6774 23.8547 18.4554 23.7627 18.2917 23.599C18.1281 23.4354 18.0361 23.2134 18.0361 22.9819V20.0728C18.0361 19.0698 18.4346 18.1079 19.1438 17.3987C19.853 16.6895 20.815 16.291 21.818 16.291C22.821 16.291 23.7829 16.6895 24.4921 17.3987C25.2013 18.1079 25.5998 19.0698 25.5998 20.0728V22.9819C25.5998 23.2134 25.5078 23.4354 25.3442 23.599C25.1805 23.7627 24.9585 23.8547 24.727 23.8547ZM19.7816 22.1092H23.8543V20.0728C23.8543 19.5328 23.6398 19.0148 23.2579 18.6329C22.876 18.251 22.358 18.0365 21.818 18.0365C21.2779 18.0365 20.7599 18.251 20.378 18.6329C19.9961 19.0148 19.7816 19.5328 19.7816 20.0728V22.1092Z" fill="#323FD4"/>
<path d="M26.1818 21.8184H17.4545C16.6512 21.8184 16 22.4696 16 23.2729V30.2547C16 31.058 16.6512 31.7093 17.4545 31.7093H26.1818C26.9851 31.7093 27.6364 31.058 27.6364 30.2547V23.2729C27.6364 22.4696 26.9851 21.8184 26.1818 21.8184Z" fill="#4E6AFF"/>
<path d="M13.6726 25.6H9.01802C8.63225 25.6 8.26228 25.4468 7.9895 25.174C7.71672 24.9012 7.56348 24.5312 7.56348 24.1455C7.56348 23.7597 7.71672 23.3897 7.9895 23.1169C8.26228 22.8442 8.63225 22.6909 9.01802 22.6909H13.6726C14.0583 22.6909 14.4283 22.8442 14.7011 23.1169C14.9739 23.3897 15.1271 23.7597 15.1271 24.1455C15.1271 24.5312 14.9739 24.9012 14.7011 25.174C14.4283 25.4468 14.0583 25.6 13.6726 25.6Z" fill="#8FA2FF"/>
<path d="M21.818 28.509C21.5866 28.509 21.3646 28.417 21.2009 28.2534C21.0373 28.0897 20.9453 27.8677 20.9453 27.6362V25.8908C20.9453 25.6593 21.0373 25.4373 21.2009 25.2737C21.3646 25.11 21.5866 25.0181 21.818 25.0181C22.0495 25.0181 22.2715 25.11 22.4352 25.2737C22.5988 25.4373 22.6908 25.6593 22.6908 25.8908V27.6362C22.6908 27.8677 22.5988 28.0897 22.4352 28.2534C22.2715 28.417 22.0495 28.509 21.818 28.509Z" fill="white"/>
<path d="M17.455 30.5452C17.6156 30.5452 17.7459 30.415 17.7459 30.2543C17.7459 30.0936 17.6156 29.9634 17.455 29.9634C17.2943 29.9634 17.1641 30.0936 17.1641 30.2543C17.1641 30.415 17.2943 30.5452 17.455 30.5452Z" fill="white"/>
<path d="M18.619 30.5452C18.7797 30.5452 18.9099 30.415 18.9099 30.2543C18.9099 30.0936 18.7797 29.9634 18.619 29.9634C18.4584 29.9634 18.3281 30.0936 18.3281 30.2543C18.3281 30.415 18.4584 30.5452 18.619 30.5452Z" fill="white"/>
</g>
<defs>
<clipPath id="clip0_9043_53698">
<rect width="32" height="32" fill="white"/>
</clipPath>
</defs>
</svg>
