<svg width="134" height="97" viewBox="0 0 134 97" fill="none" xmlns="http://www.w3.org/2000/svg">
<path d="M114.495 27.3154H105.177V34.5978H114.495C121.167 34.5978 126.596 40.0253 126.596 46.6964V58.801C126.596 64.31 122.697 69.2551 117.324 70.56L111.759 71.9113V82.0049L96.3195 70.9016H72.5986C66.9103 70.9016 62.1284 66.9552 60.8408 61.6578H60.8416C60.7884 61.4399 60.7419 61.2199 60.7008 60.9975C60.6966 60.9717 60.6915 60.946 60.687 60.9205C60.6521 60.7282 60.6232 60.5341 60.5983 60.3393C60.5924 60.2917 60.5856 60.2444 60.5805 60.1968C60.5589 60.0184 60.5439 59.8379 60.5309 59.6569C60.5266 59.6023 60.5213 59.5476 60.5182 59.493C60.5054 59.2632 60.4969 59.0335 60.4969 58.8016V54.3754V46.6964C60.4969 40.0253 65.9258 34.5978 72.5984 34.5978H90.6113V38.1624C90.6113 47.1026 83.338 54.3748 74.3989 54.3748H67.7804V58.801C67.7804 59.8719 68.1348 60.8582 68.7296 61.6575H74.3992C87.3223 61.6575 97.8943 51.0855 97.8943 38.1624V34.5978V27.3154H90.611H72.5981C61.9366 27.3154 53.2145 36.0378 53.2145 46.6964V54.3748H46.1446L25.389 69.3021V55.2676L19.8241 53.9168C12.6273 52.1701 7.40406 45.5448 7.40406 38.1624V23.4914C7.40406 14.5543 14.6771 7.28324 23.6165 7.28324H74.3986C82.1506 7.28324 88.6459 12.7521 90.2352 20.0322H97.636C95.9495 8.73825 86.1466 0 74.3986 0H23.6165C10.6936 0 0.121094 10.5728 0.121094 23.4911V38.1621C0.121094 49.1881 7.82099 58.4974 18.1063 60.9938V83.5103L48.4915 61.6572H53.4272C54.8194 70.9767 62.9064 78.1837 72.5981 78.1837H93.9717L119.041 96.2128V77.6368C127.526 75.5765 133.879 67.8959 133.879 58.8004V46.6964C133.879 36.0378 125.157 27.3154 114.495 27.3154Z" fill="#DCD1FF"/>
</svg>
