<svg width="48" height="48" viewBox="0 0 48 48" fill="none" xmlns="http://www.w3.org/2000/svg">
<rect width="48" height="48" rx="24" fill="#774DFD"/>
<path d="M31.8803 28.5523V31.0523C31.8813 31.2844 31.8337 31.5141 31.7407 31.7268C31.6478 31.9394 31.5114 32.1303 31.3404 32.2872C31.1694 32.4441 30.9675 32.5635 30.7476 32.6379C30.5278 32.7123 30.2948 32.7399 30.0636 32.719C27.4993 32.4403 25.0361 31.5641 22.872 30.1606C20.8585 28.8812 19.1514 27.1741 17.872 25.1606C16.4636 22.9866 15.5872 20.5115 15.3136 17.9356C15.2928 17.7052 15.3202 17.4729 15.3941 17.2537C15.4679 17.0344 15.5866 16.8329 15.7426 16.662C15.8986 16.4911 16.0885 16.3546 16.3001 16.2611C16.5118 16.1676 16.7406 16.1192 16.972 16.119H19.472C19.8764 16.115 20.2685 16.2582 20.5751 16.5219C20.8818 16.7856 21.082 17.1518 21.1386 17.5523C21.2442 18.3524 21.4399 19.1379 21.722 19.894C21.8341 20.1922 21.8584 20.5164 21.7919 20.828C21.7254 21.1397 21.571 21.4257 21.347 21.6523L20.2886 22.7106C21.4749 24.7969 23.2024 26.5243 25.2886 27.7106L26.347 26.6523C26.5736 26.4283 26.8596 26.2739 27.1712 26.2074C27.4829 26.1409 27.807 26.1652 28.1053 26.2773C28.8614 26.5594 29.6469 26.7551 30.447 26.8606C30.8518 26.9178 31.2215 27.1216 31.4858 27.4336C31.75 27.7455 31.8905 28.1436 31.8803 28.5523Z" stroke="white" stroke-width="0.625" stroke-linecap="round" stroke-linejoin="round"/>
</svg>
