<svg viewBox="0 0 16 16" fill="none" xmlns="http://www.w3.org/2000/svg">
<g id="phone" clip-path="url(#clip0_1542_27320)">
<path id="Vector" d="M14.6669 11.2832V13.2832C14.6677 13.4688 14.6297 13.6526 14.5553 13.8227C14.4809 13.9928 14.3718 14.1455 14.235 14.2711C14.0982 14.3966 13.9367 14.4921 13.7608 14.5516C13.5849 14.6111 13.3985 14.6332 13.2136 14.6165C11.1622 14.3936 9.19161 13.6926 7.46028 12.5698C5.8495 11.5463 4.48384 10.1806 3.46028 8.56982C2.3336 6.83063 1.63244 4.85049 1.41361 2.78982C1.39695 2.60547 1.41886 2.41966 1.47795 2.24424C1.53703 2.06882 1.63199 1.90762 1.75679 1.7709C1.88159 1.63419 2.03348 1.52496 2.20281 1.45017C2.37213 1.37538 2.55517 1.33666 2.74028 1.33649H4.74028C5.06382 1.33331 5.37748 1.44788 5.62279 1.65885C5.8681 1.86981 6.02833 2.16279 6.07361 2.48316C6.15803 3.1232 6.31458 3.75164 6.54028 4.35649C6.62998 4.59511 6.64939 4.85443 6.59622 5.10374C6.54305 5.35305 6.41952 5.5819 6.24028 5.76316L5.39361 6.60982C6.34265 8.27885 7.72458 9.66079 9.39361 10.6098L10.2403 9.76316C10.4215 9.58392 10.6504 9.46039 10.8997 9.40722C11.149 9.35405 11.4083 9.37346 11.6469 9.46316C12.2518 9.68886 12.8802 9.84541 13.5203 9.92982C13.8441 9.97551 14.1399 10.1386 14.3513 10.3882C14.5627 10.6377 14.6751 10.9562 14.6669 11.2832Z" stroke="#EBE6FF" stroke-linecap="round" stroke-linejoin="round"/>
</g>
<defs>
<clipPath id="clip0_1542_27320">
<rect width="16" height="16" fill="white" transform="translate(0 0.00292969)"/>
</clipPath>
</defs>
</svg>
