<svg xmlns="http://www.w3.org/2000/svg" width="151" height="151" viewBox="0 0 151 151" fill="none">
    <path d="M131.322 85.565C133.025 82.3325 134 78.6575 134 74.75C134 64.8185 127.761 56.3645 118.999 53.033C118.999 53.0225 119 53.012 119 53C119 35.603 104.897 21.5 87.5 21.5C72.824 21.5 60.5285 31.5515 57.0305 45.1355C54.8165 44.408 52.457 44 50 44C38.462 44 28.9655 52.6895 27.665 63.878C19.859 65.5295 14 72.4535 14 80.75C14 90.2765 21.7235 98 31.25 98C31.5155 98 31.778 97.982 32.039 97.967C32.033 98.2295 32 98.486 32 98.75C32 115.733 45.767 129.5 62.75 129.5C72.4055 129.5 81.0125 125.042 86.651 118.079C89.918 121.417 94.46 123.5 99.5 123.5C106.475 123.5 112.511 119.525 115.499 113.723C117.077 114.226 118.756 114.5 120.5 114.5C129.613 114.5 137 107.113 137 98C137 93.0335 134.795 88.5905 131.322 85.565Z" fill="#C7EDE6"/>
    <path d="M22.1075 74H7.25C6.836 74 6.5 73.664 6.5 73.25C6.5 72.836 6.836 72.5 7.25 72.5H22.1075C22.5215 72.5 22.8575 72.836 22.8575 73.25C22.8575 73.664 22.523 74 22.1075 74Z" fill="white"/>
    <path d="M26.75 74H25.25C24.836 74 24.5 73.664 24.5 73.25C24.5 72.836 24.836 72.5 25.25 72.5H26.75C27.164 72.5 27.5 72.836 27.5 73.25C27.5 73.664 27.1655 74 26.75 74Z" fill="white"/>
    <path d="M34.2365 77H20.75C20.336 77 20 76.664 20 76.25C20 75.836 20.336 75.5 20.75 75.5H34.2365C34.6505 75.5 34.9865 75.836 34.9865 76.25C34.9865 76.664 34.6505 77 34.2365 77Z" fill="white"/>
    <path d="M17.75 77H16.25C15.836 77 15.5 76.664 15.5 76.25C15.5 75.836 15.836 75.5 16.25 75.5H17.75C18.164 75.5 18.5 75.836 18.5 76.25C18.5 76.664 18.1655 77 17.75 77Z" fill="white"/>
    <path d="M13.25 77H10.25C9.836 77 9.5 76.664 9.5 76.25C9.5 75.836 9.836 75.5 10.25 75.5H13.25C13.664 75.5 14 75.836 14 76.25C14 76.664 13.6655 77 13.25 77Z" fill="white"/>
    <path d="M22.25 80H19.25C18.836 80 18.5 79.664 18.5 79.25C18.5 78.836 18.836 78.5 19.25 78.5H22.25C22.664 78.5 23 78.836 23 79.25C23 79.664 22.664 80 22.25 80Z" fill="white"/>
    <path d="M26.75 66.5C26.4845 66.5 25.5155 66.5 25.25 66.5C24.836 66.5 24.5 66.836 24.5 67.25C24.5 67.664 24.836 68 25.25 68C25.5155 68 26.4845 68 26.75 68C27.164 68 27.5 67.664 27.5 67.25C27.5 66.836 27.164 66.5 26.75 66.5Z" fill="white"/>
    <path d="M26.75 69.5C26.4845 69.5 19.5155 69.5 19.25 69.5C18.836 69.5 18.5 69.836 18.5 70.25C18.5 70.664 18.836 71 19.25 71C19.5155 71 26.4845 71 26.75 71C27.164 71 27.5 70.664 27.5 70.25C27.5 69.836 27.164 69.5 26.75 69.5Z" fill="white"/>
    <path d="M34.25 72.5C33.9845 72.5 30.0155 72.5 29.75 72.5C29.336 72.5 29 72.836 29 73.25C29 73.664 29.336 74 29.75 74C30.0155 74 33.9845 74 34.25 74C34.664 74 35 73.664 35 73.25C35 72.836 34.664 72.5 34.25 72.5Z" fill="white"/>
    <path d="M107.75 39.5H92.75C92.336 39.5 92 39.164 92 38.75C92 38.336 92.336 38 92.75 38H107.75C108.164 38 108.5 38.336 108.5 38.75C108.5 39.164 108.164 39.5 107.75 39.5Z" fill="white"/>
    <path d="M113.75 39.5H110.75C110.336 39.5 110 39.164 110 38.75C110 38.336 110.336 38 110.75 38H113.75C114.164 38 114.5 38.336 114.5 38.75C114.5 39.164 114.164 39.5 113.75 39.5Z" fill="white"/>
    <path d="M121.25 42.5H106.25C105.836 42.5 105.5 42.164 105.5 41.75C105.5 41.336 105.836 41 106.25 41H121.25C121.664 41 122 41.336 122 41.75C122 42.164 121.666 42.5 121.25 42.5Z" fill="white"/>
    <path d="M103.25 42.5H101.75C101.336 42.5 101 42.164 101 41.75C101 41.336 101.336 41 101.75 41H103.25C103.664 41 104 41.336 104 41.75C104 42.164 103.664 42.5 103.25 42.5Z" fill="white"/>
    <path d="M98.5625 42.5H95.75C95.336 42.5 95 42.164 95 41.75C95 41.336 95.336 41 95.75 41H98.5625C98.9765 41 99.3125 41.336 99.3125 41.75C99.3125 42.164 98.9765 42.5 98.5625 42.5Z" fill="white"/>
    <path d="M112.25 36.5H104.75C104.336 36.5 104 36.164 104 35.75C104 35.336 104.336 35 104.75 35H112.25C112.664 35 113 35.336 113 35.75C113 36.164 112.665 36.5 112.25 36.5Z" fill="white"/>
    <path d="M107.75 45.5H104.75C104.336 45.5 104 45.164 104 44.75C104 44.336 104.336 44 104.75 44H107.75C108.164 44 108.5 44.336 108.5 44.75C108.5 45.164 108.164 45.5 107.75 45.5Z" fill="white"/>
    <path d="M72.3125 64.25C72.3125 64.25 77.7725 64.25 81.5 64.25C85.2275 64.25 88.25 61.2275 88.25 57.5C88.25 54.0005 85.577 51.1565 82.1675 50.8175C82.2005 50.546 82.25 50.2805 82.25 50C82.25 46.2725 79.2275 43.25 75.5 43.25C73.343 43.25 71.4455 44.279 70.2095 45.854C69.9995 41.9 66.7565 38.75 62.75 38.75C58.6085 38.75 55.25 42.1085 55.25 46.25C55.25 46.919 55.3655 47.555 55.5305 48.173C54.5675 47.0075 53.129 46.25 51.5 46.25C48.8285 46.25 46.649 48.2525 46.3175 50.8325C46.046 50.7995 45.7805 50.75 45.5 50.75C41.7725 50.75 38.75 53.7725 38.75 57.5C38.75 61.2275 41.7725 64.25 45.5 64.25C49.2275 64.25 59.75 64.25 59.75 64.25H67.8125V65H72.3125V64.25Z" fill="#FDFCEF"/>
    <path d="M62.75 38C58.2005 38 54.5 41.7005 54.5 46.25C54.5 46.274 54.5 46.2965 54.5 46.3205C53.597 45.788 52.565 45.5 51.5 45.5C48.7535 45.5 46.3835 47.3915 45.713 50.0075C45.6425 50.003 45.572 50 45.5 50C41.3645 50 38 53.3645 38 57.5C38 61.6355 41.3645 65 45.5 65H67.8125C68.2265 65 68.5625 64.664 68.5625 64.25C68.5625 63.836 68.2265 63.5 67.8125 63.5H45.5C42.191 63.5 39.5 60.809 39.5 57.5C39.5 54.191 42.191 51.5 45.5 51.5C45.6755 51.5 45.845 51.5255 46.0145 51.548L46.226 51.5765C46.2575 51.581 46.2875 51.5825 46.319 51.5825C46.688 51.5825 47.012 51.305 47.0615 50.927C47.348 48.6875 49.256 47 51.5 47C52.8275 47 54.0845 47.6015 54.9515 48.65C55.0985 48.827 55.313 48.923 55.5305 48.923C55.6475 48.923 55.7645 48.896 55.8725 48.839C56.186 48.6785 56.3435 48.32 56.2535 47.9795C56.081 47.327 56 46.778 56 46.25C56 42.5285 59.0285 39.5 62.75 39.5C66.3215 39.5 69.2705 42.308 69.461 45.8945C69.4775 46.2065 69.686 46.475 69.9845 46.5695C70.0595 46.5935 70.136 46.6055 70.2125 46.6055C70.4375 46.6055 70.6565 46.502 70.8005 46.3175C71.957 44.8445 73.6685 44 75.5 44C78.809 44 81.5 46.691 81.5 50C81.5 50.1755 81.4745 50.345 81.452 50.5145L81.4235 50.726C81.3995 50.927 81.4565 51.128 81.5825 51.2855C81.7085 51.443 81.893 51.5435 82.0925 51.563C85.1765 51.8705 87.5 54.4235 87.5 57.5C87.5 60.809 84.809 63.5 81.5 63.5H72.3125C71.8985 63.5 71.5625 63.836 71.5625 64.25C71.5625 64.664 71.8985 65 72.3125 65H81.5C85.6355 65 89 61.6355 89 57.5C89 53.9045 86.4665 50.8805 82.9955 50.1845C82.9985 50.123 83 50.0615 83 50C83 45.8645 79.6355 42.5 75.5 42.5C73.736 42.5 72.0605 43.124 70.7255 44.246C69.8285 40.64 66.5825 38 62.75 38Z" fill="#472B29"/>
    <path d="M60.4997 48.5C58.3952 48.5 56.5862 49.9985 56.1302 52.0115C55.5797 51.6785 54.9512 51.5 54.3122 51.5C52.5092 51.5 51.0152 52.8455 50.7827 54.602C50.4782 54.533 50.1887 54.5 49.9052 54.5C47.6117 54.5 45.6887 56.3 45.5282 58.598C45.5147 58.805 45.6707 58.985 45.8762 59C45.8852 59 45.8942 59 45.9032 59C46.0982 59 46.2632 58.8485 46.2767 58.652C46.4102 56.7455 48.0032 55.25 49.9052 55.25C50.2487 55.25 50.6102 55.313 51.0122 55.4405C51.0452 55.451 51.0797 55.4555 51.1127 55.4555C51.1952 55.4555 51.2777 55.4255 51.3467 55.3745C51.4427 55.3055 51.4997 55.1825 51.4997 55.0625C51.4997 53.5115 52.7612 52.25 54.3122 52.25C54.9827 52.25 55.6397 52.502 56.1587 52.9595C56.2292 53.021 56.3177 53.054 56.4062 53.054C56.4542 53.054 56.5007 53.045 56.5457 53.0255C56.6777 52.973 56.7677 52.85 56.7782 52.7075C56.9342 50.768 58.5677 49.25 60.4997 49.25C60.8117 49.25 61.1372 49.301 61.5227 49.4105C61.5572 49.421 61.5932 49.4255 61.6277 49.4255C61.7912 49.4255 61.9382 49.316 61.9862 49.1525C62.0432 48.953 61.9277 48.746 61.7282 48.689C61.2752 48.56 60.8837 48.5 60.4997 48.5Z" fill="#472B29"/>
    <path d="M81.3236 50.75C79.3346 50.75 77.5616 52.0955 77.0126 54.023C76.9556 54.2225 77.0711 54.4295 77.2706 54.4865C77.3066 54.4955 77.3411 54.5 77.3741 54.5C77.5376 54.5 77.6876 54.392 77.7341 54.227C78.1916 52.622 79.6676 51.5 81.3236 51.5C81.4991 51.5 81.6686 51.521 81.8366 51.5435C81.8546 51.5465 81.8711 51.548 81.8891 51.548C82.0706 51.548 82.2326 51.41 82.2581 51.2225C82.2866 51.017 82.1426 50.828 81.9371 50.801C81.7361 50.774 81.5321 50.75 81.3236 50.75Z" fill="#472B29"/>
    <path d="M33.5 87.5L54.5 74C54.5 74 57.5 71 65 71C65 80 65 101 65 101L44 119" fill="#F6CCA4"/>
    <path d="M68.8037 117.615C66.7277 117.615 64.9082 116.356 64.1657 114.409C63.2627 112.041 64.4732 109.255 66.9212 108.07L79.1372 102.16L79.3097 101.704L79.4507 101.28L73.5377 89.0531C72.3527 86.6036 73.1312 83.6696 75.3092 82.3721C76.4762 81.6761 78.3362 81.2441 80.1632 81.2441C82.5272 81.2441 84.3557 81.9416 84.9707 83.0696L88.7207 97.6541C90.1142 104.176 88.6442 108.559 84.3452 110.64L70.9562 117.12C70.2767 117.448 69.5522 117.615 68.8037 117.615Z" fill="#F6CCA4"/>
    <path d="M80.1629 82.2934C81.9779 82.2934 83.5079 82.7734 83.9924 83.4784L87.6944 97.8709C88.9679 103.877 87.6884 107.853 83.8889 109.692L70.4999 116.172C69.9644 116.432 69.3944 116.564 68.8049 116.564C67.1699 116.564 65.7344 115.571 65.1494 114.035C64.4384 112.17 65.4194 109.965 67.3814 109.016L79.2014 103.295C80.2709 102.774 80.7194 101.481 80.2019 100.41L74.4824 88.5934C73.5329 86.6314 74.1314 84.2944 75.8459 83.2729C76.8449 82.6789 78.5384 82.2934 80.1629 82.2934ZM80.1629 80.1934C78.1709 80.1934 76.1264 80.6614 74.7704 81.4684C72.0524 83.0884 71.2139 86.6599 72.5924 89.5084L78.3119 101.325C78.3269 101.355 78.3134 101.393 78.2834 101.408L66.4664 107.126C63.6179 108.504 62.0594 111.825 63.1859 114.782C64.1159 117.224 66.4094 118.664 68.8034 118.664C69.6809 118.664 70.5704 118.47 71.4134 118.064L84.8024 111.584C90.0839 109.028 91.0559 103.559 89.7374 97.3909L85.9574 82.6939C85.1099 80.9404 82.6784 80.1934 80.1629 80.1934Z" fill="#472B29"/>
    <path d="M70.448 111.144C68.372 111.144 66.5525 109.886 65.81 107.939C64.907 105.57 66.119 102.786 68.567 101.601L83.777 94.1914L83.951 93.7444L84.095 93.3274L83.894 92.8864L78.1805 81.0829C76.9955 78.6334 77.774 75.6994 79.952 74.4034C81.119 73.7074 82.979 73.2754 84.806 73.2754C87.17 73.2754 88.997 73.9714 89.6135 75.0994L93.365 89.6854C94.757 96.2059 93.287 100.589 88.988 102.669L72.596 110.651C71.9195 110.976 71.1965 111.144 70.448 111.144Z" fill="#F6CCA4"/>
    <path d="M84.8055 74.3236C86.6205 74.3236 88.1505 74.8036 88.635 75.5086L92.337 89.9011C93.6105 95.9071 92.331 99.8836 88.527 101.726L72.141 109.703C71.6055 109.962 71.0355 110.094 70.446 110.094C68.811 110.094 67.3755 109.101 66.7905 107.565C66.0795 105.701 67.0605 103.496 69.0285 102.545L83.844 95.3266C84.9135 94.8061 85.362 93.5116 84.8445 92.4421L79.125 80.6251C78.1755 78.6631 78.774 76.3261 80.4885 75.3046C81.486 74.7091 83.181 74.3236 84.8055 74.3236ZM84.8055 72.2236C82.8135 72.2236 80.769 72.6916 79.413 73.4986C76.695 75.1186 75.8565 78.6901 77.235 81.5386L82.9545 93.3556C82.9695 93.3856 82.956 93.4231 82.926 93.4381L68.109 100.656C65.2605 102.035 63.702 105.356 64.8285 108.312C65.7585 110.754 68.052 112.194 70.446 112.194C71.3235 112.194 72.213 112.001 73.056 111.594L89.445 103.614C94.7265 101.058 95.6985 95.5891 94.38 89.4211L90.6 74.7241C89.7525 72.9706 87.321 72.2236 84.8055 72.2236Z" fill="#472B29"/>
    <path d="M33.5021 88.5496C33.1571 88.5496 32.8181 88.3801 32.6171 88.0681C32.3036 87.5806 32.4446 86.9296 32.9321 86.6161L53.9321 73.1161C54.1181 72.9811 59.5421 69.1666 65.1491 69.9601C65.7236 70.0426 66.1226 70.5736 66.0416 71.1481C65.9591 71.7241 65.4176 72.1171 64.8536 72.0406C60.0806 71.3626 55.1606 74.8201 55.1126 74.8546L34.0706 88.3846C33.8936 88.4956 33.6956 88.5496 33.5021 88.5496Z" fill="#472B29"/>
    <path d="M67.2508 95.4508C64.1068 95.4508 61.5508 92.8948 61.5508 89.7508V64.2508C61.5508 61.1068 64.1068 58.5508 67.2508 58.5508H110.751C113.895 58.5508 116.451 61.1068 116.451 64.2508V89.7508C116.451 92.8948 113.895 95.4508 110.751 95.4508H67.2508Z" fill="#F1BC19"/>
    <path d="M110.75 59.6C113.313 59.6 115.4 61.6865 115.4 64.25V89.75C115.4 92.3135 113.313 94.4 110.75 94.4H67.25C64.6865 94.4 62.6 92.3135 62.6 89.75V64.25C62.6 61.6865 64.6865 59.6 67.25 59.6H110.75ZM110.75 57.5H67.25C63.5225 57.5 60.5 60.5225 60.5 64.25V89.75C60.5 93.4775 63.5225 96.5 67.25 96.5H110.75C114.478 96.5 117.5 93.4775 117.5 89.75V64.25C117.5 60.5225 114.478 57.5 110.75 57.5Z" fill="#472B29"/>
    <path d="M110.75 74.75H67.25V79.25H110.75V74.75Z" fill="white"/>
    <path d="M110.75 79.625H106.625C106.418 79.625 106.25 79.457 106.25 79.25C106.25 79.043 106.418 78.875 106.625 78.875H110.375V75.125H89C88.793 75.125 88.625 74.957 88.625 74.75C88.625 74.543 88.793 74.375 89 74.375H110.75C110.957 74.375 111.125 74.543 111.125 74.75V79.25C111.125 79.457 110.957 79.625 110.75 79.625Z" fill="#472B29"/>
    <path d="M85.8123 75.125H73.1553C72.9483 75.125 72.7803 74.957 72.7803 74.75C72.7803 74.543 72.9483 74.375 73.1553 74.375H85.8123C86.0193 74.375 86.1873 74.543 86.1873 74.75C86.1873 74.957 86.0193 75.125 85.8123 75.125Z" fill="#472B29"/>
    <path d="M102.125 79.625H67.25C67.043 79.625 66.875 79.457 66.875 79.25V74.75C66.875 74.543 67.043 74.375 67.25 74.375H70.7195C70.9265 74.375 71.0945 74.543 71.0945 74.75C71.0945 74.957 70.9265 75.125 70.7195 75.125H67.625V78.875H102.125C102.332 78.875 102.5 79.043 102.5 79.25C102.5 79.457 102.332 79.625 102.125 79.625Z" fill="#472B29"/>
    <path d="M44 119.282H51.5C51.5 119.282 59 119.282 65 113.235C71 107.189 84.5 95.0942 84.5 95.0942C91.1255 90.4322 84.9995 79.3472 77 84.5117C65.084 92.2052 60.5 95.0942 60.5 95.0942C60.5 95.0942 54.5 98.1182 51.5 95.0942" fill="#F6CCA4"/>
    <path d="M51.5002 120.332H44.0002C43.4197 120.332 42.9502 119.863 42.9502 119.282C42.9502 118.702 43.4197 118.232 44.0002 118.232H51.5002C51.5692 118.232 58.6552 118.139 64.2547 112.496C70.2082 106.498 83.6632 94.433 83.7997 94.3116C86.8117 92.183 86.7802 88.8005 85.2427 86.5205C83.9272 84.566 81.1267 83.1006 77.5702 85.3941C65.7877 93.0021 61.1047 95.954 61.0597 95.9825C60.7012 96.1715 54.2512 99.359 50.7547 95.834C50.3467 95.423 50.3482 94.7571 50.7607 94.3491C51.1702 93.9411 51.8362 93.9425 52.2457 94.355C54.6712 96.7985 59.9737 94.184 60.0277 94.1556C60.0172 94.1556 64.6987 91.2035 76.4302 83.63C80.9587 80.7095 84.9892 82.3865 86.9842 85.346C89.0422 88.3985 89.0827 93.1535 85.1032 95.9525C85.0657 95.996 71.6542 108.02 65.7457 113.977C59.5087 120.259 51.8242 120.332 51.5002 120.332Z" fill="#472B29"/>
    <path d="M116 65H62V71H116V65Z" fill="#472B29"/>
    <path d="M76.25 88.2505L81.218 94.063C81.218 94.063 86 90.688 83 87.688C80 84.688 76.25 88.2505 76.25 88.2505Z" fill="#C29B67"/>
    <path d="M81.0315 94.7484C80.8815 94.7484 80.7405 94.6569 80.6835 94.5099C79.752 92.1249 78.1335 90.2319 75.8715 88.8834C75.693 88.7769 75.636 88.5459 75.741 88.3689C75.8475 88.1904 76.077 88.1349 76.2555 88.2384C78.6645 89.6754 80.3895 91.6944 81.381 94.2369C81.4575 94.4304 81.3615 94.6464 81.168 94.7214C81.1215 94.7394 81.0765 94.7484 81.0315 94.7484Z" fill="#472B29"/>
    <path d="M125.75 104.75C125.75 104.75 128.101 104.75 131 104.75C133.9 104.75 136.25 102.399 136.25 99.5C136.25 96.8285 134.248 94.649 131.667 94.3175C131.709 94.049 131.75 93.7805 131.75 93.5C131.75 90.6005 129.399 88.25 126.5 88.25C124.952 88.25 123.575 88.9325 122.615 89.9975C122.039 87.2855 119.635 85.25 116.75 85.25C113.436 85.25 110.75 87.9365 110.75 91.25C110.75 91.5365 110.795 91.811 110.834 92.087C110.192 91.571 109.388 91.25 108.5 91.25C106.658 91.25 105.132 92.5805 104.817 94.3325C104.549 94.2905 104.28 94.25 104 94.25C101.101 94.25 98.75 96.6005 98.75 99.5C98.75 102.399 101.101 104.75 104 104.75C106.899 104.75 115.25 104.75 115.25 104.75V105.5H125.75V104.75Z" fill="#FDFCEF"/>
    <path d="M128.375 98.0008C128.168 98.0008 128 97.8328 128 97.6258C128 95.7913 129.493 94.2988 131.327 94.2988C131.378 94.3123 132.432 94.2973 133.193 94.5028C133.392 94.5568 133.511 94.7623 133.457 94.9618C133.403 95.1628 133.198 95.2813 132.998 95.2258C132.332 95.0458 131.348 95.0458 131.329 95.0488C129.907 95.0488 128.75 96.2053 128.75 97.6258C128.75 97.8328 128.582 98.0008 128.375 98.0008Z" fill="#472B29"/>
    <path d="M118.25 105.5C118.664 105.5 119 105.164 119 104.75C119 104.336 118.664 104 118.25 104C117.836 104 117.5 104.336 117.5 104.75C117.5 105.164 117.836 105.5 118.25 105.5Z" fill="#472B29"/>
    <path d="M131 105.5H125.75C125.336 105.5 125 105.164 125 104.75C125 104.336 125.336 104 125.75 104H131C133.481 104 135.5 101.981 135.5 99.5C135.5 97.256 133.813 95.348 131.573 95.0615C131.372 95.0345 131.19 94.9295 131.069 94.7675C130.947 94.6055 130.897 94.4015 130.928 94.202C130.963 93.971 131 93.74 131 93.5C131 91.019 128.981 89 126.5 89C125.225 89 124.043 89.5325 123.171 90.5C122.984 90.7085 122.69 90.797 122.421 90.722C122.148 90.6485 121.94 90.4295 121.881 90.1535C121.37 87.7475 119.212 86 116.75 86C113.855 86 111.5 88.355 111.5 91.25C111.5 91.4645 111.532 91.67 111.562 91.877C111.605 92.1815 111.467 92.534 111.199 92.687C110.93 92.84 110.604 92.864 110.364 92.672C109.817 92.2325 109.174 92 108.5 92C107.051 92 105.812 93.0365 105.556 94.466C105.484 94.8665 105.112 95.135 104.702 95.0735C104.471 95.0375 104.24 95 104 95C101.519 95 99.5 97.019 99.5 99.5C99.5 101.981 101.519 104 104 104H115.25C115.664 104 116 104.336 116 104.75C116 105.164 115.664 105.5 115.25 105.5H104C100.691 105.5 98 102.809 98 99.5C98 96.191 100.691 93.5 104 93.5C104.089 93.5 104.174 93.503 104.261 93.509C104.882 91.73 106.566 90.5 108.5 90.5C109.024 90.5 109.534 90.5915 110.017 90.77C110.264 87.2705 113.189 84.5 116.75 84.5C119.497 84.5 121.949 86.1905 122.979 88.661C124 87.914 125.233 87.5 126.5 87.5C129.809 87.5 132.5 90.191 132.5 93.5C132.5 93.572 132.499 93.6425 132.494 93.713C135.109 94.385 137 96.7535 137 99.5C137 102.809 134.309 105.5 131 105.5Z" fill="#472B29"/>
    <path d="M122.75 104C122.512 104 121.488 104 121.25 104C120.836 104 120.5 104.336 120.5 104.75C120.5 105.164 120.836 105.5 121.25 105.5C121.488 105.5 122.512 105.5 122.75 105.5C123.164 105.5 123.5 105.164 123.5 104.75C123.5 104.336 123.164 104 122.75 104Z" fill="#472B29"/>
</svg>