<svg viewBox="0 0 124 124" fill="none" xmlns="http://www.w3.org/2000/svg">
<rect x="2.5" y="2.5" width="119" height="119" rx="59.5" fill="#F1FFDA"/>
<rect x="2.5" y="2.5" width="119" height="119" rx="59.5" stroke="white" stroke-width="5"/>
<g clip-path="url(#clip0_1517_21146)">
<path d="M18.1202 55.6821C19.4775 57.0391 21.3186 57.8018 23.2384 57.8018C24.6807 57.8018 26.0782 57.3714 27.2599 56.5818L22.1072 61.7335C20.7499 63.0905 19.987 64.9312 19.987 66.8507C19.987 68.7701 20.7496 70.6108 22.1072 71.9678C23.4645 73.3249 25.3056 74.0876 27.2254 74.0876C28.6674 74.0876 30.0652 73.6571 31.2469 72.8678L28.5426 75.5716C27.1852 76.9287 26.4224 78.7694 26.4224 80.6888C26.4224 82.6082 27.185 84.4489 28.5426 85.806C29.8999 87.163 31.741 87.9257 33.6608 87.9257C35.1028 87.9257 36.5006 87.4953 37.6823 86.706L37.0216 87.3666C35.6642 88.7237 34.9014 90.5644 34.9014 92.4838C34.9014 94.4032 35.664 96.2439 37.0216 97.601C38.3789 98.958 40.22 99.7207 42.1398 99.7207C44.0596 99.7207 45.9007 98.9583 47.258 97.601L54.1172 90.7432C53.3275 91.9247 52.8972 93.3222 52.8972 94.7639C52.8972 96.6833 53.6597 98.524 55.0174 99.8811C56.3747 101.238 58.2158 102.001 60.1356 102.001C62.0554 102.001 63.8965 101.238 65.2538 99.8811L75.6757 89.4614C74.886 90.6428 74.4557 92.0403 74.4557 93.482C74.4557 95.4015 75.2183 97.2422 76.5759 98.5992C77.9332 99.9563 79.7743 100.719 81.6941 100.719C83.6139 100.719 85.455 99.9565 86.8123 98.5992L103.037 82.3778C104.394 81.0207 105.157 79.18 105.157 77.2606C105.157 75.3412 104.395 73.5005 103.037 72.1434C101.68 70.7864 99.8387 70.0237 97.9188 70.0237C96.4768 70.0237 95.079 70.4542 93.8973 71.2434L97.2937 67.8478C98.651 66.4908 99.4138 64.6501 99.4138 62.7306C99.4138 60.8112 98.6513 58.9705 97.2937 57.6135C95.9363 56.2564 94.0952 55.4937 92.1754 55.4937C90.7334 55.4937 89.3356 55.9242 88.1539 56.7135L95.0131 49.8557C96.3704 48.4987 97.1332 46.658 97.1332 44.7385C97.1332 42.8191 96.3707 40.9784 95.0131 39.6214C93.6557 38.2643 91.8147 37.5016 89.8948 37.5016C88.4528 37.5016 87.055 37.9321 85.8733 38.7214L90.2415 34.3541C91.5988 32.997 92.3616 31.1563 92.3616 29.2369C92.3616 27.3175 91.5991 25.4768 90.2415 24.1197C88.8842 22.7627 87.0431 22 85.1233 22C83.2035 22 81.3624 22.7624 80.005 24.1197L70.2751 33.8476C71.0648 32.6662 71.4951 31.2687 71.4951 29.8269C71.4951 27.9075 70.7326 26.0668 69.375 24.7098C68.0176 23.3527 66.1765 22.59 64.2567 22.59C62.3369 22.59 60.4958 23.3524 59.1385 24.7098L45.4813 38.3642C46.271 37.1827 46.7015 35.7852 46.7015 34.3432C46.7015 32.4238 45.939 30.5831 44.5814 29.226C43.224 27.869 41.3829 27.1063 39.4631 27.1063C37.5433 27.1063 35.7022 27.8687 34.3449 29.226L18.1202 45.4477C16.7625 46.8051 16 48.6458 16 50.5649C16 52.4841 16.7625 54.325 18.1202 55.6821Z" fill="white"/>
<path d="M104.943 86.5281L104.442 87.0289C104.247 87.2246 104.247 87.5418 104.442 87.7375C104.638 87.9332 104.955 87.9332 105.151 87.7375L105.652 87.2368L106.153 87.7375C106.348 87.9332 106.666 87.9332 106.862 87.7375C107.057 87.5418 107.057 87.2246 106.862 87.0289L106.361 86.5281L106.862 86.0274C107.057 85.8317 107.057 85.5144 106.862 85.3187C106.764 85.2207 106.635 85.1719 106.507 85.1719C106.379 85.1719 106.25 85.2207 106.153 85.3187L105.652 85.8195L105.151 85.3187C105.053 85.2207 104.925 85.1719 104.796 85.1719C104.668 85.1719 104.54 85.2207 104.442 85.3187C104.246 85.5144 104.246 85.8317 104.442 86.0274L104.943 86.5281H104.943Z" fill="white"/>
<path d="M33.3787 97.3172L32.8778 97.8179C32.6821 98.0136 32.6821 98.3309 32.8778 98.5266C33.0735 98.7223 33.3909 98.7223 33.5866 98.5266L34.0875 98.0258L34.5883 98.5266C34.784 98.7223 35.1014 98.7223 35.2971 98.5266C35.4928 98.3309 35.4928 98.0136 35.2971 97.8179L34.7963 97.3172L35.2971 96.8164C35.4928 96.6207 35.4928 96.3035 35.2971 96.1078C35.1991 96.0098 35.071 95.9609 34.9426 95.9609C34.8142 95.9609 34.686 96.0098 34.588 96.1078L34.0872 96.6085L33.5863 96.1078C33.4883 96.0098 33.3602 95.9609 33.2318 95.9609C33.1034 95.9609 32.9753 96.0098 32.8773 96.1078C32.6815 96.3035 32.6815 96.6207 32.8773 96.8164L33.3781 97.3172H33.3787Z" fill="white"/>
<path d="M20.5623 52.9324L20.0614 53.4332C19.8657 53.6289 19.8657 53.9461 20.0614 54.1418C20.2571 54.3375 20.5745 54.3375 20.7702 54.1418L21.2711 53.6411L21.7719 54.1418C21.9676 54.3375 22.285 54.3375 22.4807 54.1418C22.6764 53.9461 22.6764 53.6289 22.4807 53.4332L21.9799 52.9324L22.4807 52.4317C22.6764 52.236 22.6764 51.9187 22.4807 51.723C22.3827 51.625 22.2546 51.5762 22.1262 51.5762C21.9978 51.5762 21.8696 51.625 21.7716 51.723L21.2708 52.2238L20.7699 51.723C20.6719 51.625 20.5438 51.5762 20.4154 51.5762C20.287 51.5762 20.1589 51.625 20.0609 51.723C19.8651 51.9187 19.8651 52.236 20.0609 52.4317L20.5617 52.9324H20.5623Z" fill="white"/>
<path d="M80.8455 27.198L80.3446 27.6988C80.1489 27.8945 80.1489 28.2118 80.3446 28.4074C80.5403 28.6031 80.8577 28.6031 81.0534 28.4074L81.5543 27.9067L82.0551 28.4074C82.2508 28.6031 82.5682 28.6031 82.7639 28.4074C82.9596 28.2118 82.9596 27.8945 82.7639 27.6988L82.2631 27.198L82.7639 26.6973C82.9596 26.5016 82.9596 26.1843 82.7639 25.9886C82.6659 25.8907 82.5378 25.8418 82.4094 25.8418C82.281 25.8418 82.1528 25.8907 82.0548 25.9886L81.554 26.4894L81.0531 25.9886C80.9551 25.8907 80.827 25.8418 80.6986 25.8418C80.5702 25.8418 80.4421 25.8907 80.3441 25.9886C80.1483 26.1843 80.1483 26.5016 80.3441 26.6973L80.8449 27.198H80.8455Z" fill="white"/>
<path d="M71.6752 98.0146C72.4826 98.0146 73.1395 98.6715 73.1395 99.4786C73.1395 100.286 72.4826 100.943 71.6752 100.943C70.8679 100.943 70.2109 100.286 70.2109 99.4786C70.2109 98.6715 70.8679 98.0146 71.6752 98.0146ZM71.6752 99.9403C71.9299 99.9403 72.137 99.7332 72.137 99.4786C72.137 99.2241 71.9299 99.017 71.6752 99.017C71.4206 99.017 71.2135 99.2241 71.2135 99.4786C71.2135 99.7332 71.4206 99.9403 71.6752 99.9403Z" fill="white"/>
<path d="M99.2709 51.3652C100.078 51.3652 100.735 52.0221 100.735 52.8292C100.735 53.6364 100.078 54.2932 99.2709 54.2932C98.4636 54.2932 97.8066 53.6364 97.8066 52.8292C97.8066 52.0221 98.4636 51.3652 99.2709 51.3652ZM99.2709 53.2909C99.5256 53.2909 99.7327 53.0838 99.7327 52.8292C99.7327 52.5746 99.5256 52.3676 99.2709 52.3676C99.0163 52.3676 98.8092 52.5746 98.8092 52.8292C98.8092 53.0838 99.0163 53.2909 99.2709 53.2909Z" fill="white"/>
<path d="M37.9741 27.8701C38.7814 27.8701 39.4383 28.5269 39.4383 29.3341C39.4383 30.1413 38.7814 30.7981 37.9741 30.7981C37.1667 30.7981 36.5098 30.1413 36.5098 29.3341C36.5098 28.5269 37.1667 27.8701 37.9741 27.8701ZM37.9741 29.7955C38.2287 29.7955 38.4358 29.5884 38.4358 29.3338C38.4358 29.0793 38.2287 28.8722 37.9741 28.8722C37.7194 28.8722 37.5123 29.0793 37.5123 29.3338C37.5123 29.5884 37.7194 29.7955 37.9741 29.7955Z" fill="white"/>
<path d="M20.9155 73.5801C21.7228 73.5801 22.3798 74.2369 22.3798 75.0441C22.3798 75.8512 21.7228 76.5081 20.9155 76.5081C20.1081 76.5081 19.4512 75.8512 19.4512 75.0441C19.4512 74.2369 20.1081 73.5801 20.9155 73.5801ZM20.9155 75.5057C21.1701 75.5057 21.3772 75.2987 21.3772 75.0441C21.3772 74.7895 21.1701 74.5824 20.9155 74.5824C20.6608 74.5824 20.4537 74.7895 20.4537 75.0441C20.4537 75.2987 20.6608 75.5057 20.9155 75.5057Z" fill="white"/>
<path d="M18.1202 55.6821C19.4775 57.0391 21.3186 57.8018 23.2384 57.8018C24.6807 57.8018 26.0782 57.3714 27.2599 56.5818L22.1072 61.7335C20.7499 63.0905 19.987 64.9312 19.987 66.8507C19.987 68.7701 20.7496 70.6108 22.1072 71.9678C23.4645 73.3249 25.3056 74.0876 27.2254 74.0876C28.6674 74.0876 30.0652 73.6571 31.2469 72.8678L28.5426 75.5716C27.1852 76.9287 26.4224 78.7694 26.4224 80.6888C26.4224 82.6082 27.185 84.4489 28.5426 85.806C29.8999 87.163 31.741 87.9257 33.6608 87.9257C35.1028 87.9257 36.5006 87.4953 37.6823 86.706L37.0216 87.3666C35.6642 88.7237 34.9014 90.5644 34.9014 92.4838C34.9014 94.4032 35.664 96.2439 37.0216 97.601C38.3789 98.958 40.22 99.7207 42.1398 99.7207C44.0596 99.7207 45.9007 98.9583 47.258 97.601L54.1172 90.7432C53.3275 91.9247 52.8972 93.3222 52.8972 94.7639C52.8972 96.6833 53.6597 98.524 55.0174 99.8811C56.3747 101.238 58.2158 102.001 60.1356 102.001C62.0554 102.001 63.8965 101.238 65.2538 99.8811L75.6757 89.4614C74.886 90.6428 74.4557 92.0403 74.4557 93.482C74.4557 95.4015 75.2183 97.2422 76.5759 98.5992C77.9332 99.9563 79.7743 100.719 81.6941 100.719C83.6139 100.719 85.455 99.9565 86.8123 98.5992L103.037 82.3778C104.394 81.0207 105.157 79.18 105.157 77.2606C105.157 75.3412 104.395 73.5005 103.037 72.1434C101.68 70.7864 99.8387 70.0237 97.9188 70.0237C96.4768 70.0237 95.079 70.4542 93.8973 71.2434L97.2937 67.8478C98.651 66.4908 99.4138 64.6501 99.4138 62.7306C99.4138 60.8112 98.6513 58.9705 97.2937 57.6135C95.9363 56.2564 94.0952 55.4937 92.1754 55.4937C90.7334 55.4937 89.3356 55.9242 88.1539 56.7135L95.0131 49.8557C96.3704 48.4987 97.1332 46.658 97.1332 44.7385C97.1332 42.8191 96.3707 40.9784 95.0131 39.6214C93.6557 38.2643 91.8147 37.5016 89.8948 37.5016C88.4528 37.5016 87.055 37.9321 85.8733 38.7214L90.2415 34.3541C91.5988 32.997 92.3616 31.1563 92.3616 29.2369C92.3616 27.3175 91.5991 25.4768 90.2415 24.1197C88.8842 22.7627 87.0431 22 85.1233 22C83.2035 22 81.3624 22.7624 80.005 24.1197L70.2751 33.8476C71.0648 32.6662 71.4951 31.2687 71.4951 29.8269C71.4951 27.9075 70.7326 26.0668 69.375 24.7098C68.0176 23.3527 66.1765 22.59 64.2567 22.59C62.3369 22.59 60.4958 23.3524 59.1385 24.7098L45.4813 38.3642C46.271 37.1827 46.7015 35.7852 46.7015 34.3432C46.7015 32.4238 45.939 30.5831 44.5814 29.226C43.224 27.869 41.3829 27.1063 39.4631 27.1063C37.5433 27.1063 35.7022 27.8687 34.3449 29.226L18.1202 45.4477C16.7625 46.8051 16 48.6458 16 50.5649C16 52.4841 16.7625 54.325 18.1202 55.6821Z" fill="#D7F99F"/>
<path d="M104.943 86.5281L104.442 87.0289C104.247 87.2246 104.247 87.5418 104.442 87.7375C104.638 87.9332 104.955 87.9332 105.151 87.7375L105.652 87.2368L106.153 87.7375C106.348 87.9332 106.666 87.9332 106.862 87.7375C107.057 87.5418 107.057 87.2246 106.862 87.0289L106.361 86.5281L106.862 86.0274C107.057 85.8317 107.057 85.5144 106.862 85.3187C106.764 85.2207 106.635 85.1719 106.507 85.1719C106.379 85.1719 106.25 85.2207 106.153 85.3187L105.652 85.8195L105.151 85.3187C105.053 85.2207 104.925 85.1719 104.796 85.1719C104.668 85.1719 104.54 85.2207 104.442 85.3187C104.246 85.5144 104.246 85.8317 104.442 86.0274L104.943 86.5281H104.943Z" fill="#70961F"/>
<path d="M33.3787 97.3172L32.8778 97.8179C32.6821 98.0136 32.6821 98.3309 32.8778 98.5266C33.0735 98.7223 33.3909 98.7223 33.5866 98.5266L34.0875 98.0258L34.5883 98.5266C34.784 98.7223 35.1014 98.7223 35.2971 98.5266C35.4928 98.3309 35.4928 98.0136 35.2971 97.8179L34.7963 97.3172L35.2971 96.8164C35.4928 96.6207 35.4928 96.3035 35.2971 96.1078C35.1991 96.0098 35.071 95.9609 34.9426 95.9609C34.8142 95.9609 34.686 96.0098 34.588 96.1078L34.0872 96.6085L33.5863 96.1078C33.4883 96.0098 33.3602 95.9609 33.2318 95.9609C33.1034 95.9609 32.9753 96.0098 32.8773 96.1078C32.6815 96.3035 32.6815 96.6207 32.8773 96.8164L33.3781 97.3172H33.3787Z" fill="#70961F"/>
<path d="M20.5623 52.9324L20.0614 53.4332C19.8657 53.6289 19.8657 53.9461 20.0614 54.1418C20.2571 54.3375 20.5745 54.3375 20.7702 54.1418L21.2711 53.6411L21.7719 54.1418C21.9676 54.3375 22.285 54.3375 22.4807 54.1418C22.6764 53.9461 22.6764 53.6289 22.4807 53.4332L21.9799 52.9324L22.4807 52.4317C22.6764 52.236 22.6764 51.9187 22.4807 51.723C22.3827 51.625 22.2546 51.5762 22.1262 51.5762C21.9978 51.5762 21.8696 51.625 21.7716 51.723L21.2708 52.2238L20.7699 51.723C20.6719 51.625 20.5438 51.5762 20.4154 51.5762C20.287 51.5762 20.1589 51.625 20.0609 51.723C19.8651 51.9187 19.8651 52.236 20.0609 52.4317L20.5617 52.9324H20.5623Z" fill="#70961F"/>
<path d="M80.8455 27.198L80.3446 27.6988C80.1489 27.8945 80.1489 28.2118 80.3446 28.4074C80.5403 28.6031 80.8577 28.6031 81.0534 28.4074L81.5543 27.9067L82.0551 28.4074C82.2508 28.6031 82.5682 28.6031 82.7639 28.4074C82.9596 28.2118 82.9596 27.8945 82.7639 27.6988L82.2631 27.198L82.7639 26.6973C82.9596 26.5016 82.9596 26.1843 82.7639 25.9886C82.6659 25.8907 82.5378 25.8418 82.4094 25.8418C82.281 25.8418 82.1528 25.8907 82.0548 25.9886L81.554 26.4894L81.0531 25.9886C80.9551 25.8907 80.827 25.8418 80.6986 25.8418C80.5702 25.8418 80.4421 25.8907 80.3441 25.9886C80.1483 26.1843 80.1483 26.5016 80.3441 26.6973L80.8449 27.198H80.8455Z" fill="#70961F"/>
<path d="M71.6752 98.0146C72.4826 98.0146 73.1395 98.6715 73.1395 99.4786C73.1395 100.286 72.4826 100.943 71.6752 100.943C70.8679 100.943 70.2109 100.286 70.2109 99.4786C70.2109 98.6715 70.8679 98.0146 71.6752 98.0146ZM71.6752 99.9403C71.9299 99.9403 72.137 99.7332 72.137 99.4786C72.137 99.2241 71.9299 99.017 71.6752 99.017C71.4206 99.017 71.2135 99.2241 71.2135 99.4786C71.2135 99.7332 71.4206 99.9403 71.6752 99.9403Z" fill="#70961F"/>
<path d="M99.2709 51.3652C100.078 51.3652 100.735 52.0221 100.735 52.8292C100.735 53.6364 100.078 54.2932 99.2709 54.2932C98.4636 54.2932 97.8066 53.6364 97.8066 52.8292C97.8066 52.0221 98.4636 51.3652 99.2709 51.3652ZM99.2709 53.2909C99.5256 53.2909 99.7327 53.0838 99.7327 52.8292C99.7327 52.5746 99.5256 52.3676 99.2709 52.3676C99.0163 52.3676 98.8092 52.5746 98.8092 52.8292C98.8092 53.0838 99.0163 53.2909 99.2709 53.2909Z" fill="#70961F"/>
<path d="M37.9741 27.8701C38.7814 27.8701 39.4383 28.5269 39.4383 29.3341C39.4383 30.1413 38.7814 30.7981 37.9741 30.7981C37.1667 30.7981 36.5098 30.1413 36.5098 29.3341C36.5098 28.5269 37.1667 27.8701 37.9741 27.8701ZM37.9741 29.7955C38.2287 29.7955 38.4358 29.5884 38.4358 29.3338C38.4358 29.0793 38.2287 28.8722 37.9741 28.8722C37.7194 28.8722 37.5123 29.0793 37.5123 29.3338C37.5123 29.5884 37.7194 29.7955 37.9741 29.7955Z" fill="#70961F"/>
<path d="M20.9155 73.5801C21.7228 73.5801 22.3798 74.2369 22.3798 75.0441C22.3798 75.8512 21.7228 76.5081 20.9155 76.5081C20.1081 76.5081 19.4512 75.8512 19.4512 75.0441C19.4512 74.2369 20.1081 73.5801 20.9155 73.5801ZM20.9155 75.5057C21.1701 75.5057 21.3772 75.2987 21.3772 75.0441C21.3772 74.7895 21.1701 74.5824 20.9155 74.5824C20.6608 74.5824 20.4537 74.7895 20.4537 75.0441C20.4537 75.2987 20.6608 75.5057 20.9155 75.5057Z" fill="#70961F"/>
<path d="M59.9937 89C56.4857 89 53.0813 88.2989 49.8749 86.9165C46.7791 85.5816 43.9997 83.6713 41.6133 81.2384C39.2269 78.8056 37.3529 75.9717 36.0437 72.816C34.6875 69.5473 34 66.0763 34 62.5C34 58.9237 34.6877 55.453 36.0437 52.184C37.3531 49.0283 39.2269 46.1944 41.6133 43.7616C43.9997 41.3287 46.7794 39.4182 49.8751 38.0835C53.0813 36.7008 56.486 36 59.994 36C65.1245 36 70.0839 37.5196 74.3363 40.3948C75.0216 40.8581 75.4457 41.6043 75.4994 42.4418C75.5534 43.2818 75.2272 44.0804 74.6047 44.6332L74.563 44.67C74.0847 45.0945 73.4726 45.3284 72.8395 45.3284C72.3255 45.3284 71.828 45.1756 71.4004 44.8866C68.0146 42.598 64.0705 41.3882 59.9937 41.3882H59.9809C54.4549 41.3922 49.2565 43.5964 45.3425 47.5955C41.4283 51.5944 39.2771 56.8988 39.2853 62.5313C39.3018 74.1553 48.5918 83.612 59.994 83.612C66.6597 83.612 72.749 80.4537 76.7005 74.9467C79.7146 70.7464 81.1109 65.6365 80.6326 60.5581C80.5643 59.8344 80.7948 59.1034 81.2649 58.5531L81.3014 58.5104C81.8079 57.9171 82.5044 57.5904 83.2621 57.5904C83.8958 57.5904 84.5095 57.8204 84.9903 58.2382C85.5034 58.6842 85.8217 59.3155 85.8866 60.0157C86.3145 64.6386 85.5262 69.3277 83.6072 73.5752C80.8853 79.5998 76.0928 84.3377 70.1124 86.9165C66.9062 88.2992 63.5015 89 59.9935 89H59.9937Z" fill="#A2EA07"/>
<path d="M59.5146 74.0747C58.5086 74.0747 57.5316 73.7802 56.6895 73.223C56.1322 72.8542 55.6365 72.3605 55.2551 71.7946L45.7002 59.5455C45.3001 59.0326 45.0702 58.4697 45.0172 57.8728C44.9692 57.3322 45.074 56.7798 45.3199 56.2758C45.5794 55.7441 45.9804 55.2893 46.4788 54.96C46.9976 54.6175 47.5869 54.4365 48.1828 54.4365C48.8647 54.4365 49.5328 54.6767 50.1154 55.1308L59.535 62.4754C62.3023 60.0664 82.478 42.5012 82.6251 42.3734C83.1404 41.9247 83.7436 41.6875 84.369 41.6875C85.4009 41.6875 86.3939 42.3459 86.8402 43.3257C87.2697 44.2692 87.1013 45.3201 86.3898 46.137L63.797 72.0774C62.9693 73.14 61.7789 73.8185 60.442 73.99C60.1366 74.0459 59.8244 74.0742 59.5144 74.0742L59.5146 74.0747Z" fill="white"/>
<g style="mix-blend-mode:multiply">
<path d="M86.6766 60.2492C86.6001 59.4383 86.223 58.706 85.6147 58.1879C85.5481 58.1311 85.4795 58.0771 85.4086 58.0266C84.9762 57.7164 84.4704 57.5213 83.9416 57.4597C83.8211 57.4456 83.6995 57.4385 83.5773 57.4385C82.6796 57.4385 81.8554 57.8171 81.2568 58.5043L81.2207 58.5459C80.6647 59.1839 80.3922 60.0316 80.4728 60.871C80.9348 65.6807 79.5854 70.5216 76.6734 74.5016C72.8555 79.7194 66.9725 82.712 60.533 82.712C58.607 82.712 56.7436 82.4382 54.9794 81.9274C51.5285 80.928 48.4577 79.0225 46.0441 76.4861C42.6331 72.9024 40.5338 68.0604 40.526 62.7386C40.5184 57.4021 42.5967 52.3767 46.3782 48.5875C50.1598 44.7986 55.1819 42.7098 60.5195 42.7063H60.533C64.4712 42.7063 68.2815 43.8522 71.5521 46.0202C72.0582 46.3557 72.647 46.5329 73.2548 46.5329C74.0032 46.5329 74.7267 46.2623 75.2913 45.7705L75.3299 45.7369L75.3331 45.7342C75.7072 45.4085 75.9898 45.0122 76.1733 44.5565C76.3454 44.1285 76.4206 43.6573 76.3902 43.1946C76.3294 42.2636 75.8663 41.4304 75.1143 40.8895C75.0818 40.8661 75.0486 40.8431 75.015 40.8208C72.5118 39.1609 69.7659 37.9574 66.8848 37.242C64.8236 36.7304 62.6934 36.4688 60.533 36.4688C56.9912 36.4688 53.5536 37.163 50.3159 38.532C47.1902 39.8538 44.3838 41.7455 41.9742 44.1543C39.565 46.5633 37.6728 49.3692 36.3508 52.4942C34.9815 55.7313 34.2871 59.1682 34.2871 62.7093C34.2871 64.8673 34.545 66.9862 35.0564 69.0448C35.0564 69.0462 35.057 69.0476 35.0575 69.0489C35.3849 70.3672 35.8166 71.6607 36.3508 72.9241C37.6082 75.8955 39.3804 78.5787 41.623 80.906C41.7389 81.0263 41.8559 81.1457 41.9742 81.264C44.3838 83.6728 47.1902 85.5645 50.3159 86.8863C50.6052 87.0087 50.8962 87.1257 51.1889 87.2373C52.2555 87.6444 53.3422 87.979 54.4462 88.2415H66.6199C67.7236 87.979 68.8103 87.6444 69.8769 87.2373C70.1696 87.1257 70.4606 87.0087 70.75 86.8863C76.7885 84.3329 81.6273 79.6415 84.3751 73.6762C85.3448 71.5714 86.033 69.3526 86.4201 67.0815C86.805 64.8241 86.8914 62.5256 86.6766 60.2492ZM54.5662 87.2373C54.2489 87.1604 53.9331 87.0771 53.6188 86.9875C52.632 86.7066 51.6607 86.3644 50.7073 85.9613C47.7014 84.6903 45.0022 82.8711 42.6847 80.554C42.5663 80.4357 42.4496 80.3165 42.3339 80.1963C40.1828 77.9607 38.4826 75.385 37.276 72.533C35.9593 69.4205 35.2915 66.1152 35.2915 62.7093C35.2915 59.3034 35.9593 55.9981 37.276 52.8856C38.5475 49.88 40.3671 47.1813 42.6847 44.8643C45.0022 42.5475 47.7014 40.728 50.7073 39.457C53.8205 38.1404 57.1264 37.473 60.533 37.473C65.5093 37.473 70.2988 38.9196 74.3846 41.6082C74.4099 41.6245 74.4348 41.641 74.4598 41.6576C74.7815 41.8709 75.0215 42.1537 75.177 42.4702C75.5788 43.2852 75.423 44.3242 74.6732 44.9769C74.6594 44.9892 74.6458 45.0011 74.6317 45.013C74.2399 45.3542 73.7483 45.5287 73.2548 45.5287C72.9402 45.5287 72.6247 45.4579 72.3337 45.3138C72.2561 45.2758 72.1806 45.2321 72.107 45.1835C70.0925 43.8479 67.8727 42.8762 65.537 42.3044C63.915 41.9067 62.2368 41.7021 60.533 41.7021H60.5187C54.9129 41.7059 49.6385 43.8992 45.6673 47.8783C41.696 51.8572 39.5134 57.1353 39.5215 62.7402C39.524 64.4417 39.7303 66.0968 40.1169 67.6818C41.0021 71.3125 42.8348 74.5773 45.3363 77.1986C49.1662 81.2117 54.5643 83.7162 60.533 83.7162C67.2964 83.7162 73.4747 80.5738 77.484 75.0946C80.583 70.8592 81.9569 65.8156 81.4729 60.7752C81.4181 60.205 81.6018 59.6372 81.9781 59.2054L82.0142 59.1639C82.4466 58.6674 83.0162 58.4427 83.5773 58.4427C83.9666 58.4427 84.3515 58.5507 84.6841 58.7513C85.0131 58.9494 85.2905 59.2377 85.4691 59.6014C85.5783 59.822 85.6508 60.0706 85.6765 60.3434C86.0903 64.7267 85.3435 69.174 83.463 73.2561C80.82 78.9934 76.166 83.5056 70.3588 85.9613C69.1019 86.4928 67.8135 86.9186 66.4999 87.2373C64.5597 87.7081 62.5642 87.9454 60.533 87.9454C58.5019 87.9454 56.5064 87.7081 54.5662 87.2373Z" fill="#DDDDDD"/>
</g>
<g style="mix-blend-mode:multiply">
<path d="M88.0067 43.826C87.7724 43.3117 87.4086 42.8647 86.9504 42.5259C86.9157 42.5002 86.8806 42.4752 86.8448 42.4508C86.4061 42.1514 85.9158 41.9679 85.4106 41.9123C85.3004 41.8998 85.1897 41.8936 85.0786 41.8936C84.3299 41.8936 83.613 42.1734 83.0049 42.7029C82.9083 42.787 74.1429 50.4183 67.3687 56.3158C64.17 59.1005 61.4154 61.4984 60.227 62.5333L59.8274 62.2217L51.1336 55.4429C50.5883 55.0176 49.9745 54.7552 49.3374 54.6716H49.3371C49.1899 54.6523 49.0417 54.6425 48.8927 54.6425H48.8921C48.1977 54.6425 47.5128 54.8521 46.9118 55.2489C46.3382 55.6275 45.877 56.1513 45.5781 56.7633C45.2917 57.3496 45.1701 57.9934 45.2263 58.625C45.2306 58.6741 45.236 58.7227 45.2423 58.7712C45.3262 59.4115 45.5854 60.0132 46.0135 60.5623L55.5577 72.7978C55.668 72.9601 55.7866 73.1169 55.9134 73.2673C56.2646 73.6858 56.6751 74.0538 57.1217 74.3494C58.0463 74.9612 59.1191 75.2847 60.224 75.2847C60.5598 75.2847 60.8978 75.2543 61.2287 75.1946C61.9375 75.102 62.6115 74.8787 63.2332 74.5304C63.8774 74.1697 64.4361 73.6902 64.894 73.1053C65.6137 72.2788 86.9575 47.7726 87.4779 47.1752C88.3224 46.2055 88.52 44.9534 88.0067 43.826ZM61.0742 74.202C60.7943 74.2539 60.5098 74.2805 60.224 74.2805C59.6897 74.2805 59.1517 74.1879 58.6351 73.9979C58.3044 73.8763 57.9825 73.7149 57.676 73.5121C57.2737 73.2459 56.9194 72.9158 56.627 72.5546C56.5356 72.4417 56.4503 72.3258 56.3713 72.2077L46.8054 59.9446C45.3004 58.0154 46.9324 55.6465 48.8927 55.6468C49.4283 55.6468 49.9886 55.8237 50.5161 56.2349L60.262 63.8341C60.4156 63.7006 83.5071 43.5972 83.6646 43.4601C84.1177 43.0655 84.6087 42.8978 85.0786 42.8978C85.4907 42.8978 85.8868 43.027 86.2264 43.2457C86.585 43.4762 86.8812 43.8065 87.0674 44.1894C87.4065 44.8845 87.3842 45.7536 86.7205 46.5157C86.1927 47.1215 64.2577 72.3065 64.1184 72.4666C63.3442 73.4662 62.2372 74.056 61.0742 74.202Z" fill="#DDDDDD"/>
</g>
<path d="M85.9676 59.5412C85.9153 58.9848 85.7212 58.4656 85.4082 58.027C85.2648 57.8264 85.0968 57.6427 84.9059 57.4799C84.3391 56.9967 83.6154 56.7308 82.8686 56.7308C81.9706 56.7308 81.1464 57.1091 80.5478 57.7966L80.5117 57.8381C79.956 58.4762 79.6835 59.3236 79.7641 60.1633C80.2259 64.973 78.8767 69.8136 75.9644 73.7938C72.1465 79.0117 66.2635 82.0043 59.8241 82.0043C54.4903 82.0043 49.6351 79.9038 46.0436 76.4865C42.2173 72.8463 39.8254 67.7118 39.8172 62.0309C39.8094 56.6944 41.8877 51.6687 45.6695 47.8798C49.451 44.0906 54.4732 42.0018 59.8105 41.9983H59.8241C63.7622 41.9983 67.5728 43.1442 70.8432 45.3125C71.3492 45.648 71.938 45.8252 72.5458 45.8252C73.2945 45.8252 74.0177 45.5543 74.5826 45.0625L74.6212 45.0289L74.6241 45.0264C74.9982 44.7007 75.2811 44.3045 75.4643 43.8488C75.6367 43.4205 75.7116 42.9496 75.6815 42.4866C75.643 41.8992 75.4442 41.3507 75.1139 40.8899C74.8983 40.5889 74.6263 40.3251 74.306 40.1128C70.0119 37.2657 65.0042 35.7607 59.8241 35.7607C56.2822 35.7607 52.8449 36.455 49.6071 37.8243C46.4815 39.1461 43.6748 41.0375 41.2655 43.4466C38.856 45.8553 36.9641 48.6614 35.6421 51.7865C34.2725 55.0233 33.5781 58.4602 33.5781 62.0013C33.5781 65.5424 34.2725 68.9793 35.6421 72.2164C36.9641 75.3414 38.8562 78.1473 41.2655 80.556C41.3836 80.6741 41.5025 80.7908 41.6225 80.9064C43.9506 83.1491 46.6346 84.9214 49.6071 86.1783C50.5893 86.5938 51.5902 86.9472 52.6066 87.2376C54.9401 87.905 57.357 88.2418 59.8241 88.2418C62.2911 88.2418 64.7077 87.905 67.0415 87.2376C68.0582 86.9472 69.0588 86.5938 70.0412 86.1783C76.0795 83.6249 80.9184 78.9335 83.6664 72.9682C84.6361 70.8634 85.324 68.6449 85.7114 66.3737C86.0963 64.1164 86.1824 61.8175 85.9676 59.5412ZM36.5672 52.1776C37.8385 49.1722 39.6582 46.4736 41.9757 44.1566C44.2932 41.8395 46.9924 40.0203 49.9983 38.749C53.1115 37.4326 56.4174 36.765 59.8241 36.765C64.8307 36.765 69.6484 38.2298 73.7508 40.9498C74.0193 41.1279 74.2311 41.3545 74.3842 41.6086C74.8872 42.4426 74.7623 43.5747 73.9645 44.2692C73.9506 44.2811 73.9368 44.2931 73.9229 44.3053C73.5309 44.6465 73.0396 44.821 72.5458 44.821C72.1476 44.821 71.7477 44.7073 71.3983 44.4755C67.9846 42.2125 63.981 40.9941 59.8241 40.9941H59.8099C54.2039 40.9979 48.9296 43.1914 44.9583 47.1703C40.9873 51.1495 38.8047 56.4273 38.8128 62.0322C38.8212 67.9908 41.3269 73.3767 45.3359 77.1989C49.1095 80.7965 54.215 83.0085 59.8241 83.0085C66.5877 83.0085 72.766 79.8658 76.775 74.3866C79.874 70.1512 81.2479 65.1076 80.7639 60.0672C80.7091 59.497 80.8929 58.9295 81.2691 58.4976L81.3052 58.4559C81.7377 57.9594 82.3072 57.735 82.8686 57.735C83.591 57.735 84.2995 58.1074 84.6836 58.7517C84.8354 59.006 84.9363 59.3027 84.9676 59.6357C85.3813 64.0187 84.6345 68.4663 82.754 72.548C80.111 78.2857 75.4573 82.7979 69.6498 85.2536C66.5366 86.57 63.231 87.2376 59.8241 87.2376C56.4172 87.2376 53.1115 86.57 49.9983 85.2536C47.1458 84.0472 44.5695 82.3473 42.3335 80.1967C42.2132 80.0811 42.094 79.9644 41.9757 79.846C39.6582 77.529 37.8385 74.8303 36.5672 71.825C35.2504 68.7125 34.5826 65.4072 34.5826 62.0013C34.5826 58.5954 35.2504 55.2901 36.5672 52.1776Z" fill="white"/>
<path d="M87.2977 43.1167C87.2024 42.9075 87.0857 42.7094 86.9499 42.5251C86.7265 42.2224 86.4518 41.957 86.1361 41.7415C85.6016 41.3773 84.991 41.1846 84.3696 41.1846C83.6212 41.1846 82.904 41.4644 82.2959 41.9936C82.1993 42.0781 73.4339 49.709 66.6597 55.6065C63.4613 58.3912 60.7067 60.7894 59.518 61.824L50.4249 54.7339C49.7533 54.2104 48.9785 53.9336 48.184 53.9333H48.1834C47.4887 53.9333 46.8041 54.1431 46.2028 54.5399C45.6295 54.9185 45.1682 55.4421 44.8691 56.0541C44.583 56.6403 44.4611 57.2841 44.5173 57.916C44.5789 58.6108 44.8438 59.2624 45.3045 59.853L54.849 72.0885C55.1471 72.5282 55.5087 72.9277 55.9129 73.2664C56.0731 73.4013 56.2403 73.5262 56.4127 73.6404C57.3373 74.2522 58.4101 74.5754 59.515 74.5754C59.8511 74.5754 60.1888 74.5453 60.5199 74.4853C61.2285 74.3928 61.9028 74.1694 62.5242 73.8215C63.1684 73.4605 63.7271 72.9812 64.1853 72.3963C64.9049 71.5698 86.2487 47.0636 86.7691 46.466C87.6134 45.4965 87.811 44.2445 87.2977 43.1167ZM56.967 72.8029C56.8492 72.725 56.7357 72.6416 56.6266 72.5537C56.246 72.247 55.9199 71.8836 55.6623 71.4985L46.0967 59.2356C44.5916 57.3061 46.2234 54.9372 48.1837 54.9375C48.7193 54.9378 49.2799 55.1147 49.8071 55.5257L59.5533 63.1252C59.7066 62.9914 82.7981 42.8882 82.9556 42.7512C83.4089 42.3565 83.8997 42.1888 84.3696 42.1888C85.1249 42.1888 85.8255 42.6225 86.2259 43.2448C86.6939 43.9717 86.7528 44.9556 86.0117 45.8064C85.4837 46.4125 63.549 71.5975 63.4097 71.7574C62.6355 72.757 61.5282 73.347 60.3655 73.4928C60.0856 73.5449 59.8008 73.5712 59.515 73.5712C58.6387 73.5712 57.7526 73.3226 56.967 72.8029Z" fill="#A2EA07"/>
<path d="M28.9087 88.2425H26.6214C26.3439 88.2425 26.1191 88.0178 26.1191 87.7404C26.1191 87.463 26.3439 87.2383 26.6214 87.2383H28.9087C29.1862 87.2383 29.4109 87.463 29.4109 87.7404C29.4109 88.0178 29.1862 88.2425 28.9087 88.2425Z" fill="#C6FC53"/>
<path d="M40.1665 85.7816H37.8792C37.6017 85.7816 37.377 85.5568 37.377 85.2795C37.377 85.0021 37.6017 84.7773 37.8792 84.7773H40.1665C40.444 84.7773 40.6688 85.0021 40.6688 85.2795C40.6688 85.5568 40.444 85.7816 40.1665 85.7816Z" fill="#C6FC53"/>
<path d="M35.8072 85.7816H33.5198C33.2424 85.7816 33.0176 85.5568 33.0176 85.2795C33.0176 85.0021 33.2424 84.7773 33.5198 84.7773H35.8072C36.0846 84.7773 36.3094 85.0021 36.3094 85.2795C36.3094 85.5568 36.0846 85.7816 35.8072 85.7816Z" fill="#C6FC53"/>
<path d="M81.7818 85.7816H79.4944C79.217 85.7816 78.9922 85.5568 78.9922 85.2795C78.9922 85.0021 79.217 84.7773 79.4944 84.7773H81.7818C82.0592 84.7773 82.284 85.0021 82.284 85.2795C82.284 85.5568 82.0592 85.7816 81.7818 85.7816Z" fill="#C6FC53"/>
<path d="M86.1409 85.7816H83.8538C83.5763 85.7816 83.3516 85.5568 83.3516 85.2795C83.3516 85.0021 83.5763 84.7773 83.8538 84.7773H86.1409C86.4183 84.7773 86.6431 85.0021 86.6431 85.2795C86.6431 85.5568 86.4183 85.7816 86.1409 85.7816Z" fill="#C6FC53"/>
<path d="M93.0413 88.2425H90.7542C90.4767 88.2425 90.252 88.0178 90.252 87.7404C90.252 87.463 90.4767 87.2383 90.7542 87.2383H93.0413C93.3187 87.2383 93.5435 87.463 93.5435 87.7404C93.5435 88.0178 93.3187 88.2425 93.0413 88.2425Z" fill="#C6FC53"/>
</g>
<defs>
<clipPath id="clip0_1517_21146">
<rect width="91.0092" height="80" fill="white" transform="translate(16 22)"/>
</clipPath>
</defs>
</svg>
