<svg width="24" height="25" viewBox="0 0 24 25" fill="none" xmlns="http://www.w3.org/2000/svg">
<g clip-path="url(#clip0_10365_112580)">
<path fill-rule="evenodd" clip-rule="evenodd" d="M23.52 12.7528C23.52 11.9019 23.4436 11.0837 23.3018 10.2982H12V14.94H18.4582C18.18 16.44 17.3345 17.7109 16.0636 18.5619V21.5728H19.9418C22.2109 19.4837 23.52 16.4073 23.52 12.7528Z" fill="#4285F4"/>
<path fill-rule="evenodd" clip-rule="evenodd" d="M12 24.48C15.24 24.48 17.9564 23.4055 19.9418 21.5727L16.0636 18.5618C14.9891 19.2818 13.6145 19.7073 12 19.7073C8.87455 19.7073 6.22909 17.5964 5.28546 14.76H1.27637V17.8691C3.25091 21.7909 7.30909 24.48 12 24.48Z" fill="#34A853"/>
<path fill-rule="evenodd" clip-rule="evenodd" d="M5.28545 14.76C5.04545 14.04 4.90909 13.2709 4.90909 12.48C4.90909 11.6891 5.04545 10.92 5.28545 10.2V7.09094H1.27636C0.463636 8.71094 0 10.5437 0 12.48C0 14.4164 0.463636 16.2491 1.27636 17.8691L5.28545 14.76Z" fill="#FBBC05"/>
<path fill-rule="evenodd" clip-rule="evenodd" d="M12 5.25271C13.7618 5.25271 15.3436 5.85816 16.5873 7.04725L20.0291 3.60544C17.9509 1.66907 15.2345 0.47998 12 0.47998C7.30909 0.47998 3.25091 3.16907 1.27637 7.09089L5.28546 10.2C6.22909 7.36362 8.87455 5.25271 12 5.25271Z" fill="#EA4335"/>
</g>
<defs>
<clipPath id="clip0_10365_112580">
<rect y="0.47998" width="24" height="24" rx="6" fill="white"/>
</clipPath>
</defs>
</svg>
