<svg viewBox="0 0 40 43" fill="none" xmlns="http://www.w3.org/2000/svg">
    <path fill-rule="evenodd" clipRule="evenodd" d="M36.5344 41.4961H39.3084C39.6901 41.4961 40 41.8061 40 42.1877C40 42.5694 39.6901 42.8793 39.3084 42.8793H0.691602C0.309924 42.8793 0 42.5694 0 42.1877C0 41.8061 0.309924 41.4961 0.691602 41.4961H3.46562V25.9731H3.46795C3.4664 25.9451 3.46562 25.917 3.46562 25.8889C3.46562 25.3099 3.79231 24.7418 4.43248 24.3078C5.14673 23.8235 6.29435 23.4888 7.5937 23.4888C8.89305 23.4888 10.0407 23.8235 10.7549 24.3078C11.3951 24.7418 11.7218 25.3099 11.7218 25.8889C11.7218 25.917 11.721 25.9451 11.7195 25.9731H11.7218V41.4961H15.8719V18.4336C15.8719 17.8547 16.1986 17.2865 16.8388 16.8525C17.553 16.3682 18.7007 16.0336 20 16.0336C21.2994 16.0336 22.447 16.3682 23.1612 16.8525C23.8014 17.2865 24.1281 17.8547 24.1281 18.4336V41.4961H28.2782V9.59004C28.2782 9.01108 28.6049 8.44302 29.2451 8.00895C29.9593 7.52466 31.107 7.19001 32.4063 7.19001C33.7057 7.19001 34.8533 7.52466 35.5675 8.00895C36.2077 8.44302 36.5344 9.01108 36.5344 9.59004V41.4961ZM4.84882 41.4961H10.3386V27.711C9.63159 28.0619 8.66413 28.289 7.5937 28.289C6.52328 28.289 5.55581 28.0619 4.84882 27.711V41.4961ZM17.2551 41.4961H22.7449V20.2558C22.0379 20.6066 21.0704 20.8337 20 20.8337C18.9296 20.8337 17.9621 20.6066 17.2551 20.2558V41.4961ZM29.6614 41.4961H35.1512V11.4122C34.4442 11.7631 33.4767 11.9902 32.4063 11.9902C31.3359 11.9902 30.3684 11.7631 29.6614 11.4122V41.4961ZM22.7449 18.4336C22.7449 18.2569 22.5804 18.1298 22.385 17.9973C21.8481 17.6333 20.9767 17.4168 20 17.4168C19.0233 17.4168 18.152 17.6333 17.615 17.9973C17.4196 18.1298 17.2551 18.2569 17.2551 18.4336C17.2551 18.6103 17.4196 18.7374 17.615 18.87C18.152 19.234 19.0233 19.4505 20 19.4505C20.9767 19.4505 21.8481 19.234 22.385 18.87C22.5804 18.7374 22.7449 18.6103 22.7449 18.4336ZM35.1512 9.59004C35.1512 9.41342 34.9867 9.28625 34.7913 9.15381C34.2543 8.78977 33.383 8.57321 32.4063 8.57321C31.4296 8.57321 30.5583 8.78977 30.0213 9.15381C29.826 9.28625 29.6614 9.41342 29.6614 9.59004C29.6614 9.76674 29.826 9.89391 30.0213 10.0264C30.5583 10.3904 31.4296 10.607 32.4063 10.607C33.383 10.607 34.2543 10.3904 34.7913 10.0264C34.9867 9.89391 35.1512 9.76674 35.1512 9.59004ZM7.5937 24.872C6.61699 24.872 5.74566 25.0886 5.20871 25.4526C5.01334 25.5851 4.84882 25.7122 4.84882 25.8889C4.84882 26.0656 5.01334 26.1927 5.20871 26.3252C5.74566 26.6892 6.61699 26.9058 7.5937 26.9058C8.57042 26.9058 9.44175 26.6892 9.97869 26.3252C10.174 26.1927 10.3386 26.0656 10.3386 25.8889C10.3386 25.7122 10.174 25.5851 9.97869 25.4526C9.44175 25.0886 8.57042 24.872 7.5937 24.872ZM32.9131 2.4579C24.4218 9.70839 15.13 14.2884 6.34303 17.2488C5.98132 17.3707 5.58866 17.176 5.46677 16.8143C5.34487 16.4525 5.53964 16.0599 5.90135 15.9381C14.5032 13.04 23.5993 8.56621 31.9178 1.48879L30.5887 1.55968C30.2075 1.58 29.8816 1.28702 29.8613 0.905857C29.8409 0.524698 30.1339 0.198694 30.515 0.178379L33.8409 0.000982899C34.0485 -0.0100827 34.25 0.0727366 34.3897 0.226618C34.5294 0.380413 34.5926 0.588931 34.5618 0.794423L34.082 3.98729C34.0253 4.36473 33.6728 4.62512 33.2953 4.56841C32.9178 4.5117 32.6574 4.15924 32.7142 3.7818L32.9131 2.4579Z" fill="#F3F0FF" />
</svg>