<svg  viewBox="0 0 40 40" fill="none" xmlns="http://www.w3.org/2000/svg">
    <g clip-path="url(#clip0_211_651)">
        <path d="M33.8398 12.5475L31.9618 10.269C31.7039 9.95624 31.5471 9.57782 31.5086 9.17468L31.2254 6.23555C31.0783 4.70846 29.8631 3.49325 28.336 3.34616L25.3969 3.06326C24.9937 3.02451 24.6153 2.86765 24.3025 2.61008L22.0241 0.731732C20.8403 -0.243911 19.1219 -0.243911 17.9381 0.731732L15.6597 2.61008C15.3472 2.86765 14.9688 3.02451 14.5653 3.06326L11.6262 3.34616C10.0991 3.49325 8.88419 4.70846 8.73679 6.23555L8.45389 9.17468C8.41513 9.57782 8.25827 9.95624 8.00071 10.269L6.12236 12.5475C5.14671 13.7312 5.14671 15.4497 6.12236 16.6334L8.00071 18.9119C8.25827 19.2247 8.41513 19.6031 8.45389 20.0062L8.73679 22.9454C8.88388 24.4725 10.0991 25.6874 11.6262 25.8348L13.4227 26.0078L9.15427 36.2076C9.0386 36.4853 9.09079 36.7978 9.29068 37.0231C9.49057 37.248 9.79422 37.3371 10.0829 37.255L13.7862 36.2095C13.8024 36.2049 13.8179 36.2119 13.8253 36.225L15.6798 39.5972C15.8178 39.8484 16.0756 39.9997 16.3594 39.9997C16.3729 39.9997 16.3863 39.9994 16.4 39.9988C16.7 39.9836 16.9594 39.8023 17.0781 39.5227L21.5846 28.7531C21.7375 28.6653 21.8846 28.5642 22.0244 28.4492L24.3028 26.5711C24.5912 26.3331 24.9364 26.1827 25.3047 26.1302L29.3864 35.8832L26.4979 35.0678C25.9486 34.9131 25.3734 35.1539 25.0978 35.6534L23.6516 38.2831L21.7354 33.704C21.6087 33.4016 21.2615 33.2593 20.959 33.3857C20.6569 33.512 20.5144 33.8596 20.641 34.1617L22.8856 39.5258C23.0031 39.8023 23.2622 39.9836 23.5625 39.9988C23.5762 39.9994 23.5896 40 23.6031 40C23.8869 40 24.1447 39.8484 24.2827 39.5972L26.1369 36.2256C26.1446 36.2119 26.1604 36.2055 26.176 36.2095L29.8787 37.255C30.168 37.3368 30.4719 37.248 30.6715 37.0231C30.8714 36.7978 30.9236 36.4856 30.8076 36.207L26.5394 26.0075L28.336 25.8345C29.8631 25.6874 31.0783 24.4725 31.2254 22.9454L31.5086 20.0059C31.5471 19.6028 31.7039 19.2247 31.9618 18.9119L33.8398 16.6334C34.8158 15.4497 34.8158 13.7312 33.8398 12.5475ZM16.3109 38.2831L14.8644 35.6528C14.5891 35.1536 14.0133 34.9128 13.4642 35.0678L10.5761 35.8829L14.6575 26.1302C15.0261 26.1827 15.3713 26.3331 15.6597 26.5708L17.9381 28.4492C18.5301 28.9372 19.2555 29.181 19.9812 29.181C20.0279 29.181 20.0743 29.1798 20.121 29.1776L16.3109 38.2831ZM32.9246 15.8791L31.0466 18.1575C30.6376 18.6531 30.3892 19.2531 30.3276 19.8924L30.0447 22.8315C29.9519 23.7947 29.1856 24.561 28.2225 24.6537L25.6407 24.9025C25.6306 24.9031 25.6203 24.904 25.6102 24.9055L25.2833 24.9369C24.6437 24.9986 24.0437 25.247 23.5481 25.6556L21.2697 27.5337C20.5232 28.1492 19.4393 28.1492 18.6928 27.5337L16.4144 25.6556C15.9188 25.247 15.3188 24.9983 14.6791 24.9369L14.3508 24.9052C14.3416 24.904 14.3328 24.9034 14.3236 24.9028L11.74 24.6537C10.7769 24.561 10.0106 23.7947 9.91781 22.8315L9.63492 19.8927C9.57327 19.2531 9.32486 18.6531 8.91592 18.1575L7.03788 15.8791C6.42234 15.1323 6.42234 14.0483 7.03788 13.3019L8.91592 11.0234C9.32486 10.5278 9.57327 9.92785 9.63492 9.28821L9.91781 6.34908C10.0106 5.38595 10.7769 4.61965 11.74 4.52688L14.6791 4.24398C15.3188 4.18234 15.9188 3.93393 16.4144 3.5253L18.6928 1.64725C19.066 1.33964 19.5238 1.18553 19.9812 1.18553C20.4387 1.18553 20.8965 1.33933 21.2697 1.64725L23.5481 3.5253C24.0437 3.93393 24.6437 4.18264 25.2833 4.24398L28.2225 4.52688C29.1856 4.61965 29.9519 5.38595 30.0447 6.34908L30.3276 9.28821C30.3892 9.92785 30.6376 10.5278 31.0466 11.0234L32.9246 13.3019C33.5398 14.0486 33.5398 15.1323 32.9246 15.8791Z" fill="#F3F0FF" />
        <path d="M19.9809 5.32422C19.5847 5.32422 19.1862 5.34924 18.7956 5.39929C18.4709 5.4408 18.2411 5.73804 18.2826 6.06274C18.3241 6.38775 18.6216 6.61724 18.946 6.57604C19.2866 6.5324 19.6348 6.51043 19.9809 6.51043C24.4361 6.51043 28.0607 10.135 28.0607 14.5902C28.0607 19.0455 24.4358 22.6697 19.9809 22.6697C15.5256 22.6697 11.9011 19.0452 11.9011 14.5899C11.9011 11.4121 13.7748 8.51756 16.6746 7.21538C16.9734 7.08141 17.107 6.73016 16.9728 6.43139C16.8385 6.13232 16.4872 5.99896 16.1888 6.13324C12.8633 7.62646 10.7148 10.9458 10.7148 14.5899C10.7148 19.6995 14.8716 23.8559 19.9809 23.8559C25.0901 23.8559 29.2469 19.6995 29.2469 14.5899C29.2469 9.4807 25.0901 5.32422 19.9809 5.32422Z" fill="#F3F0FF" />
        <path d="M14.0904 13.9038C13.3833 14.6109 13.3833 15.7617 14.0904 16.4688L16.681 19.0597C17.0237 19.4021 17.479 19.5907 17.9637 19.5907C18.448 19.5907 18.9036 19.4021 19.2463 19.0597L24.9015 13.4042C25.6086 12.6968 25.6086 11.5463 24.9015 10.8389C24.1944 10.1318 23.0436 10.1318 22.3362 10.8389L17.9637 15.2118L16.6554 13.9038C15.9483 13.1967 14.7975 13.1967 14.0904 13.9038ZM17.9637 16.6439C18.1208 16.6439 18.2716 16.5814 18.383 16.47L23.1751 11.6778C23.4199 11.4331 23.8178 11.4334 24.0626 11.6778C24.3073 11.9226 24.3073 12.3208 24.0626 12.5653L18.4074 18.2208C18.289 18.3392 18.1312 18.4045 17.9637 18.4045C17.7958 18.4045 17.6383 18.3392 17.5199 18.2208L14.929 15.6301C14.6846 15.3854 14.6846 14.9871 14.929 14.7427C15.0514 14.6203 15.2122 14.559 15.373 14.559C15.5335 14.559 15.6944 14.6203 15.8164 14.7424L17.544 16.47C17.6554 16.5814 17.8062 16.6439 17.9637 16.6439Z" fill="#F3F0FF" />
    </g>
    <defs>
        <clipPath id="clip0_211_651">
            <rect width="40" height="40" fill="white" />
        </clipPath>
    </defs>
</svg>