<svg width="40" height="34" viewBox="0 0 40 34" fill="none" xmlns="http://www.w3.org/2000/svg">
    <path d="M39.9916 9.29664C39.9912 8.61266 39.7223 8.00945 39.2137 7.55242L33.1337 2.08711C32.3774 1.4075 31.4239 0.712891 30.0833 0.712891C30.0829 0.712891 30.0823 0.712891 30.0819 0.712891C28.7404 0.713359 27.7868 1.40891 27.0309 2.0893L20.9548 7.55875C20.4465 8.01625 20.178 8.61969 20.1782 9.30367L20.181 16.3232H16.1458C16.8761 14.8066 17.3848 12.4108 16.8135 10.6168C16.4115 9.35422 15.5261 8.52187 14.2531 8.20969C14.0906 8.16977 13.919 8.1968 13.7766 8.28453C13.6341 8.37219 13.5328 8.51344 13.4952 8.67641C13.4259 8.97742 13.3618 9.25961 13.3016 9.52484C12.5509 12.8306 12.4544 13.2555 10.3809 14.6107C8.91602 15.5681 8.81203 15.6917 7.90102 17.0208C7.80797 17.1566 7.70531 17.3063 7.59039 17.4725C7.22148 18.0061 6.74953 18.2467 6.06367 18.2527L6.01078 18.2529V18.1032C6.01078 17.3248 5.3775 16.6915 4.59898 16.6915H1.41172C0.633281 16.6915 0 17.3248 0 18.1032V31.8738C0 32.6523 0.633281 33.2855 1.41172 33.2855H4.59906C5.3775 33.2855 6.01086 32.6523 6.01086 31.8738V31.2331C6.29258 31.3314 6.57422 31.4362 6.86422 31.5445C8.28414 32.0748 9.89344 32.6759 12.2829 32.6759H20.5795C20.9331 32.6759 21.2697 32.6021 21.5752 32.4697C21.8752 32.6046 22.2002 32.6759 22.5334 32.6759H22.534L37.6543 32.6707C38.9482 32.6702 40.0005 31.6171 39.9999 30.3232L39.9916 9.29664ZM4.76086 31.8738C4.76086 31.9615 4.6868 32.0355 4.59906 32.0355H1.41172C1.32406 32.0355 1.25 31.9615 1.25 31.8738V18.1032C1.25 18.0155 1.32406 17.9415 1.41172 17.9415H4.59906C4.6868 17.9415 4.76086 18.0155 4.76086 18.1032V31.8738ZM12.2829 31.4259C10.1193 31.4259 8.68688 30.8909 7.30164 30.3735C6.88344 30.2173 6.45461 30.0572 6.01094 29.9142V19.5029L6.07117 19.5027C7.16297 19.4932 8.02016 19.0492 8.61875 18.1832C8.73469 18.0155 8.8382 17.8645 8.93211 17.7275C9.77227 16.5018 9.77227 16.5018 11.0648 15.657C13.5615 14.0252 13.7455 13.2143 14.5205 9.80164C14.532 9.75102 14.5437 9.69961 14.5555 9.64766C15.0705 9.92109 15.422 10.3666 15.6225 10.996C16.2122 12.8479 15.2823 15.6989 14.5547 16.539C14.3945 16.7239 14.357 16.9853 14.4587 17.2079C14.5604 17.4305 14.7825 17.5732 15.0272 17.5732H22.1725C22.8688 17.5732 23.4353 18.1397 23.4353 18.836C23.4353 19.5323 22.8688 20.0989 22.1725 20.0989H17.2463C16.9012 20.0989 16.6213 20.3787 16.6213 20.7239C16.6213 21.0691 16.9012 21.3489 17.2463 21.3489H23.2048C23.9012 21.3489 24.4677 21.9154 24.4677 22.6117C24.4677 23.308 23.9012 23.8746 23.2048 23.8746H17.2463C16.9012 23.8746 16.6213 24.1545 16.6213 24.4996C16.6213 24.8448 16.9012 25.1246 17.2463 25.1246H22.5559C23.2523 25.1246 23.8188 25.6911 23.8188 26.3874C23.8188 27.0837 23.2523 27.6502 22.5559 27.6502H17.2463C16.9012 27.6502 16.6213 27.9301 16.6213 28.2752C16.6213 28.6204 16.9012 28.9002 17.2463 28.9002H20.5795C21.2759 28.9002 21.8424 29.4668 21.8424 30.1631C21.8424 30.8595 21.2759 31.4259 20.5795 31.4259H12.2829ZM37.6538 31.4207L22.7506 31.4259C22.9674 31.0545 23.0923 30.6233 23.0923 30.1631C23.0923 29.7001 22.9665 29.2659 22.7472 28.893C24.0438 28.7949 25.0688 27.7086 25.0688 26.3874C25.0688 25.7744 24.848 25.2119 24.482 24.7752C25.221 24.3373 25.7177 23.5313 25.7177 22.6117C25.7177 21.5826 25.0957 20.696 24.208 20.3079C24.5082 19.8939 24.6853 19.3853 24.6853 18.836C24.6853 17.4505 23.558 16.3232 22.1725 16.3232H21.4311L21.4283 9.30328C21.4282 8.97453 21.5469 8.70781 21.7912 8.48789L27.8673 3.01836C28.6998 2.26891 29.3416 1.9632 30.0824 1.96289H30.0834C30.8235 1.96289 31.4654 2.26828 32.2982 3.01672L38.3782 8.48203C38.6227 8.7018 38.7416 8.96844 38.7417 9.29719L38.75 30.3237C38.7502 30.9284 38.2585 31.4205 37.6538 31.4207ZM33.837 22.9627C33.9285 23.717 33.7263 24.4054 33.2523 24.9534C32.6948 25.598 31.7684 26.0301 30.7141 26.1513V26.9463C30.7141 27.2915 30.4343 27.5713 30.0891 27.5713C29.744 27.5713 29.4641 27.2915 29.4641 26.9463V26.1423C27.9029 25.9277 26.6893 24.9405 26.338 23.5313C26.2545 23.1964 26.4583 22.8572 26.7932 22.7737C27.1284 22.6907 27.4673 22.8941 27.5509 23.2289C27.8746 24.5273 29.1812 24.9605 30.2023 24.935C31.079 24.9141 31.9051 24.6005 32.307 24.1358C32.5509 23.8538 32.6455 23.5193 32.5962 23.1133C32.4795 22.1523 31.6779 21.6008 29.9969 21.3248C27.3216 20.8855 26.6986 19.5287 26.6472 18.4679C26.5758 16.998 27.6048 15.7659 29.2079 15.4023C29.292 15.3834 29.3775 15.3669 29.4643 15.3532V14.5403C29.4643 14.1952 29.7441 13.9153 30.0893 13.9153C30.4345 13.9153 30.7143 14.1952 30.7143 14.5403V15.3479C31.8586 15.5173 32.9874 16.1802 33.5514 17.5236C33.685 17.8418 33.5354 18.2082 33.2171 18.3418C32.8988 18.4755 32.5325 18.3258 32.3989 18.0075C31.8568 16.7164 30.5445 16.3811 29.4844 16.6216C28.6833 16.8032 27.8452 17.3678 27.8958 18.4074C27.9116 18.733 27.9596 19.7237 30.1995 20.0914C31.0293 20.2275 33.5553 20.6423 33.837 22.9627ZM30.084 9.09359C31.3113 9.09359 32.3098 8.09516 32.3098 6.86781C32.3098 5.64047 31.3113 4.64203 30.084 4.64203C28.8566 4.64203 27.8581 5.64047 27.8581 6.86781C27.8581 8.09516 28.8566 9.09359 30.084 9.09359ZM30.084 5.89195C30.622 5.89195 31.0598 6.32977 31.0598 6.86773C31.0598 7.4057 30.622 7.84352 30.084 7.84352C29.5459 7.84352 29.1081 7.4057 29.1081 6.86773C29.1081 6.32977 29.5459 5.89195 30.084 5.89195Z" fill="#F3F0FF" />
</svg>