<svg width="40" height="36" viewBox="0 0 40 36" fill="none" xmlns="http://www.w3.org/2000/svg">
    <path d="M39.9104 18.178L35.2088 10.6904C35.1016 10.5197 34.9142 10.416 34.7126 10.416H30.3866V6.37453C31.6959 6.10328 32.683 4.9418 32.683 3.55414C32.683 1.96594 31.39 0.673828 29.8006 0.673828C28.2124 0.673828 26.9204 1.96594 26.9204 3.55414C26.9204 4.94164 27.9066 6.10297 29.2147 6.37438V10.416H18.9072C18.5836 10.416 18.3212 10.6784 18.3212 11.002C18.3212 11.3255 18.5836 11.5879 18.9072 11.5879H23.0124L27.3461 18.4897L23.0123 25.3936H19.4887V22.2855C19.4887 21.962 19.2263 21.6996 18.9027 21.6996C18.5791 21.6996 18.3168 21.962 18.3168 22.2855V25.3936H13.0197L17.1579 18.8012C17.2775 18.6107 17.2775 18.3685 17.1579 18.178L13.0199 11.5879H16.2032C16.5268 11.5879 16.7891 11.3255 16.7891 11.002C16.7891 10.6784 16.5268 10.416 16.2032 10.416H11.9601H6.83242V6.37445C8.14055 6.10305 9.12672 4.94164 9.12672 3.55422C9.12672 1.96602 7.83461 0.673906 6.24648 0.673906C4.65836 0.673906 3.36625 1.96602 3.36625 3.55422C3.36625 4.94172 4.35242 6.10305 5.66055 6.37445V10.4161H0.586015C0.372812 10.4161 0.176405 10.5319 0.0732804 10.7185C-0.0299227 10.9051 -0.0235946 11.133 0.0896867 11.3135L4.59351 18.4898L0.0896086 25.6682C-0.0236727 25.8488 -0.0300008 26.0766 0.0732023 26.2632C0.176405 26.4498 0.372734 26.5655 0.585937 26.5655H3.83469C4.15828 26.5655 4.42062 26.3032 4.42062 25.9796C4.42062 25.656 4.15828 25.3937 3.83469 25.3937H1.64539L5.78172 18.8011C5.90117 18.6106 5.90117 18.3687 5.78172 18.1782L1.64562 11.588H5.66062V13.715C5.66062 14.0386 5.92297 14.3009 6.24656 14.3009C6.57016 14.3009 6.8325 14.0386 6.8325 13.715V11.588H11.6362L15.9699 18.4898L11.6362 25.3937H6.53875C6.21516 25.3937 5.95281 25.656 5.95281 25.9796C5.95281 26.3032 6.21516 26.5655 6.53875 26.5655H18.3168V29.6239C17.0087 29.8955 16.0225 31.0578 16.0225 32.4463C16.0225 34.0345 17.3146 35.3266 18.9027 35.3266C20.4909 35.3266 21.783 34.0345 21.783 32.4463C21.783 31.0578 20.7968 29.8955 19.4887 29.6239V26.5655H34.7126C34.9142 26.5655 35.1016 26.4619 35.2088 26.2911L39.9104 18.8012C40.03 18.6107 40.03 18.3685 39.9104 18.178ZM28.0923 3.55414C28.0923 2.61211 28.8587 1.8457 29.8007 1.8457C30.7439 1.8457 31.5112 2.61211 31.5112 3.55414C31.5112 4.49617 30.7439 5.26258 29.8007 5.26258C28.8587 5.26266 28.0923 4.49617 28.0923 3.55414ZM4.53812 3.55414C4.53812 2.61211 5.30453 1.8457 6.24648 1.8457C7.18852 1.8457 7.95484 2.61211 7.95484 3.55414C7.95484 4.49617 7.18844 5.26258 6.24648 5.26258C5.30445 5.26266 4.53812 4.49617 4.53812 3.55414ZM20.6111 32.4463C20.6111 33.3884 19.8447 34.1548 18.9027 34.1548C17.9608 34.1548 17.1944 33.3884 17.1944 32.4463C17.1944 31.503 17.9608 30.7357 18.9027 30.7357C19.8448 30.7356 20.6111 31.503 20.6111 32.4463ZM34.3886 25.3936H24.3959L28.5341 18.8012C28.6537 18.6107 28.6537 18.3685 28.5341 18.178L24.3962 11.5879H29.2148V13.7149C29.2148 14.0385 29.4772 14.3009 29.8008 14.3009C30.1244 14.3009 30.3867 14.0385 30.3867 13.7149V11.5879H34.3887L38.7224 18.4897L34.3886 25.3936Z" fill="#F3F0FF" />
</svg>