<svg viewBox="0 0 21 20" fill="none" xmlns="http://www.w3.org/2000/svg">
<g clip-path="url(#clip0_2116_25566)">
<path d="M19.8858 8.53095C20.275 8.91512 20.495 9.44595 20.5 10.0001C20.4983 10.5485 20.285 11.0801 19.8992 11.4718L16.6342 14.8726C16.5525 14.9576 16.4433 15.0001 16.3333 15.0001C16.2292 15.0001 16.125 14.9618 16.045 14.8835C15.8792 14.7251 15.8733 14.4601 16.0325 14.2943L19.3017 10.8893C19.4375 10.7518 19.5375 10.591 19.5975 10.4168H0.916667C0.686667 10.4168 0.5 10.2301 0.5 10.0001C0.5 9.77012 0.686667 9.58345 0.916667 9.58345H19.5925C19.53 9.41012 19.4292 9.25179 19.2942 9.11845L15.9983 5.74345C15.8375 5.57929 15.8408 5.31512 16.0058 5.15429C16.1708 4.99429 16.4342 4.99679 16.595 5.16179L19.885 8.53095H19.8858Z" fill="#774DFD"/>
</g>
<defs>
<clipPath id="clip0_2116_25566">
<rect width="20" height="20" fill="white" transform="translate(0.5)"/>
</clipPath>
</defs>
</svg>
