<svg width="16" height="16" viewBox="0 0 16 16" fill="none" xmlns="http://www.w3.org/2000/svg">
<mask id="path-1-inside-1_6600_15323" fill="white">
<path d="M15.2922 15.4602H14.8427V1.34782C14.8427 1.19886 14.722 1.07817 14.5731 1.07817H9.53934C9.39041 1.07817 9.26969 1.19886 9.26969 1.34782V2.51636H8.73038V1.34782C8.73038 1.19886 8.60963 1.07817 8.46072 1.07817H7.29216V0.269168C7.29216 0.120199 7.17141 -0.000488281 7.0225 -0.000488281C6.87359 -0.000488281 6.75284 0.120199 6.75284 0.269168V1.07817H5.58431C5.43538 1.07817 5.31466 1.19886 5.31466 1.34782V2.51636H4.50566C4.35672 2.51636 4.236 2.63704 4.236 2.78601V5.0332H1.98881C1.83988 5.0332 1.71916 5.15389 1.71916 5.30286V15.4602H1.26966C1.12072 15.4602 1 15.5809 1 15.7298C1 15.8788 1.12075 15.9995 1.26966 15.9995H15.2922C15.4411 15.9995 15.5618 15.8788 15.5618 15.7299C15.5618 15.5809 15.4411 15.4602 15.2922 15.4602ZM5.85394 1.61748H8.191V2.51636H5.85394V1.61748ZM4.95506 15.4602H4.77528V15.0108C4.77528 14.8618 4.65453 14.7411 4.50563 14.7411C4.35672 14.7411 4.23597 14.8618 4.23597 15.0108V15.4602H4.05619V14.5613H4.95506V15.4602ZM6.75281 8.53882V9.00273V15.4602H5.49438V14.2917C5.49438 14.1427 5.37363 14.022 5.22472 14.022H3.78653C3.63759 14.022 3.51688 14.1427 3.51688 14.2917V15.4602H2.25844V5.57254H6.75281V8.53882ZM7.02247 5.03323H4.77528V3.0557H9.26966V8.26917H7.29216V7.37029H8.10116C8.25009 7.37029 8.37081 7.24961 8.37081 7.10064C8.37081 6.95167 8.25006 6.83098 8.10116 6.83098H7.29216V5.93211H8.10116C8.25009 5.93211 8.37081 5.81142 8.37081 5.66245C8.37081 5.51348 8.25006 5.39279 8.10116 5.39279H7.29216V5.30292C7.29216 5.15392 7.17141 5.03323 7.02247 5.03323ZM11.7865 15.4602H7.29216V9.00273V8.80851H11.7865V15.4602ZM14.3034 15.4602H12.3258V8.53882V8.17926C12.3258 8.03029 12.2051 7.90961 12.0562 7.90961C11.9073 7.90961 11.7865 8.03029 11.7865 8.17926V8.26914H11.2472V8.17926C11.2472 8.03029 11.1265 7.90961 10.9776 7.90961C10.8287 7.90961 10.7079 8.03029 10.7079 8.17926V8.26914H9.80903V2.78604V1.61748H14.3034V15.4602H14.3034Z"/>
</mask>
<path d="M15.2922 15.4602H14.8427V1.34782C14.8427 1.19886 14.722 1.07817 14.5731 1.07817H9.53934C9.39041 1.07817 9.26969 1.19886 9.26969 1.34782V2.51636H8.73038V1.34782C8.73038 1.19886 8.60963 1.07817 8.46072 1.07817H7.29216V0.269168C7.29216 0.120199 7.17141 -0.000488281 7.0225 -0.000488281C6.87359 -0.000488281 6.75284 0.120199 6.75284 0.269168V1.07817H5.58431C5.43538 1.07817 5.31466 1.19886 5.31466 1.34782V2.51636H4.50566C4.35672 2.51636 4.236 2.63704 4.236 2.78601V5.0332H1.98881C1.83988 5.0332 1.71916 5.15389 1.71916 5.30286V15.4602H1.26966C1.12072 15.4602 1 15.5809 1 15.7298C1 15.8788 1.12075 15.9995 1.26966 15.9995H15.2922C15.4411 15.9995 15.5618 15.8788 15.5618 15.7299C15.5618 15.5809 15.4411 15.4602 15.2922 15.4602ZM5.85394 1.61748H8.191V2.51636H5.85394V1.61748ZM4.95506 15.4602H4.77528V15.0108C4.77528 14.8618 4.65453 14.7411 4.50563 14.7411C4.35672 14.7411 4.23597 14.8618 4.23597 15.0108V15.4602H4.05619V14.5613H4.95506V15.4602ZM6.75281 8.53882V9.00273V15.4602H5.49438V14.2917C5.49438 14.1427 5.37363 14.022 5.22472 14.022H3.78653C3.63759 14.022 3.51688 14.1427 3.51688 14.2917V15.4602H2.25844V5.57254H6.75281V8.53882ZM7.02247 5.03323H4.77528V3.0557H9.26966V8.26917H7.29216V7.37029H8.10116C8.25009 7.37029 8.37081 7.24961 8.37081 7.10064C8.37081 6.95167 8.25006 6.83098 8.10116 6.83098H7.29216V5.93211H8.10116C8.25009 5.93211 8.37081 5.81142 8.37081 5.66245C8.37081 5.51348 8.25006 5.39279 8.10116 5.39279H7.29216V5.30292C7.29216 5.15392 7.17141 5.03323 7.02247 5.03323ZM11.7865 15.4602H7.29216V9.00273V8.80851H11.7865V15.4602ZM14.3034 15.4602H12.3258V8.53882V8.17926C12.3258 8.03029 12.2051 7.90961 12.0562 7.90961C11.9073 7.90961 11.7865 8.03029 11.7865 8.17926V8.26914H11.2472V8.17926C11.2472 8.03029 11.1265 7.90961 10.9776 7.90961C10.8287 7.90961 10.7079 8.03029 10.7079 8.17926V8.26914H9.80903V2.78604V1.61748H14.3034V15.4602H14.3034Z" fill="#2C2240"/>
<path d="M14.8427 15.4602H13.8427V16.4602H14.8427V15.4602ZM9.26969 2.51636V3.51636H10.2697V2.51636H9.26969ZM8.73038 2.51636H7.73038V3.51636H8.73038V2.51636ZM7.29216 1.07817H6.29216V2.07817H7.29216V1.07817ZM6.75284 1.07817V2.07817H7.75284V1.07817H6.75284ZM5.31466 2.51636V3.51636H6.31466V2.51636H5.31466ZM4.236 5.0332V6.0332H5.236V5.0332H4.236ZM1.71916 15.4602V16.4602H2.71916V15.4602H1.71916ZM5.85394 1.61748V0.617481H4.85394V1.61748H5.85394ZM8.191 1.61748H9.191V0.617481H8.191V1.61748ZM8.191 2.51636V3.51636H9.191V2.51636H8.191ZM5.85394 2.51636H4.85394V3.51636H5.85394V2.51636ZM4.95506 15.4602V16.4602H5.95506V15.4602H4.95506ZM4.77528 15.4602H3.77528V16.4602H4.77528V15.4602ZM4.23597 15.4602V16.4602H5.23597V15.4602H4.23597ZM4.05619 15.4602H3.05619V16.4602H4.05619V15.4602ZM4.05619 14.5613V13.5613H3.05619V14.5613H4.05619ZM4.95506 14.5613H5.95506V13.5613H4.95506V14.5613ZM6.75281 15.4602V16.4602H7.75281V15.4602H6.75281ZM5.49438 15.4602H4.49438V16.4602H5.49438V15.4602ZM3.51688 15.4602V16.4602H4.51688V15.4602H3.51688ZM2.25844 15.4602H1.25844V16.4602H2.25844V15.4602ZM2.25844 5.57254V4.57254H1.25844V5.57254H2.25844ZM6.75281 5.57254H7.75281V4.57254H6.75281V5.57254ZM4.77528 5.03323H3.77528V6.03323H4.77528V5.03323ZM4.77528 3.0557V2.0557H3.77528V3.0557H4.77528ZM9.26966 3.0557H10.2697V2.0557H9.26966V3.0557ZM9.26966 8.26917V9.26917H10.2697V8.26917H9.26966ZM7.29216 8.26917H6.29216V9.26917H7.29216V8.26917ZM7.29216 7.37029V6.37029H6.29216V7.37029H7.29216ZM7.29216 6.83098H6.29216V7.83098H7.29216V6.83098ZM7.29216 5.93211V4.93211H6.29216V5.93211H7.29216ZM7.29216 5.39279H6.29216V6.39279H7.29216V5.39279ZM11.7865 15.4602V16.4602H12.7865V15.4602H11.7865ZM7.29216 15.4602H6.29216V16.4602H7.29216V15.4602ZM7.29216 8.80851V7.80851H6.29216V8.80851H7.29216ZM11.7865 8.80851H12.7865V7.80851H11.7865V8.80851ZM12.3258 15.4602H11.3258V16.4602H12.3258V15.4602ZM11.7865 8.26914V9.26914H12.7865V8.26914H11.7865ZM11.2472 8.26914H10.2472V9.26914H11.2472V8.26914ZM10.7079 8.26914V9.26914H11.7079V8.26914H10.7079ZM9.80903 8.26914H8.80903V9.26914H9.80903V8.26914ZM9.80903 1.61748V0.617481H8.80903V1.61748H9.80903ZM14.3034 1.61748H15.3034V0.617481H14.3034V1.61748ZM14.3034 15.4602V16.4602H15.3034V15.4602H14.3034ZM15.2922 14.4602H14.8427V16.4602H15.2922V14.4602ZM15.8427 15.4602V1.34782H13.8427V15.4602H15.8427ZM15.8427 1.34782C15.8427 0.64642 15.2741 0.0781679 14.5731 0.0781679V2.07817C14.1698 2.07817 13.8427 1.75129 13.8427 1.34782H15.8427ZM14.5731 0.0781679H9.53934V2.07817H14.5731V0.0781679ZM9.53934 0.0781679C8.8382 0.0781679 8.26969 0.646496 8.26969 1.34782H10.2697C10.2697 1.75122 9.94262 2.07817 9.53934 2.07817V0.0781679ZM8.26969 1.34782V2.51636H10.2697V1.34782H8.26969ZM9.26969 1.51636H8.73038V3.51636H9.26969V1.51636ZM9.73038 2.51636V1.34782H7.73038V2.51636H9.73038ZM9.73038 1.34782C9.73038 0.64642 9.16176 0.0781679 8.46072 0.0781679V2.07817C8.05749 2.07817 7.73038 1.75129 7.73038 1.34782H9.73038ZM8.46072 0.0781679H7.29216V2.07817H8.46072V0.0781679ZM8.29216 1.07817V0.269168H6.29216V1.07817H8.29216ZM8.29216 0.269168C8.29216 -0.432236 7.72354 -1.00049 7.0225 -1.00049V0.999512C6.61927 0.999512 6.29216 0.672635 6.29216 0.269168H8.29216ZM7.0225 -1.00049C6.32146 -1.00049 5.75284 -0.432236 5.75284 0.269168H7.75284C7.75284 0.672635 7.42573 0.999512 7.0225 0.999512V-1.00049ZM5.75284 0.269168V1.07817H7.75284V0.269168H5.75284ZM6.75284 0.0781679H5.58431V2.07817H6.75284V0.0781679ZM5.58431 0.0781679C4.88317 0.0781679 4.31466 0.646496 4.31466 1.34782H6.31466C6.31466 1.75122 5.98759 2.07817 5.58431 2.07817V0.0781679ZM4.31466 1.34782V2.51636H6.31466V1.34782H4.31466ZM5.31466 1.51636H4.50566V3.51636H5.31466V1.51636ZM4.50566 1.51636C3.80451 1.51636 3.236 2.08468 3.236 2.78601H5.236C5.236 3.1894 4.90893 3.51636 4.50566 3.51636V1.51636ZM3.236 2.78601V5.0332H5.236V2.78601H3.236ZM4.236 4.0332H1.98881V6.0332H4.236V4.0332ZM1.98881 4.0332C1.28767 4.0332 0.719156 4.60153 0.719156 5.30286H2.71916C2.71916 5.70625 2.39208 6.0332 1.98881 6.0332V4.0332ZM0.719156 5.30286V15.4602H2.71916V5.30286H0.719156ZM1.71916 14.4602H1.26966V16.4602H1.71916V14.4602ZM1.26966 14.4602C0.56851 14.4602 0 15.0285 0 15.7298H2C2 16.1332 1.67293 16.4602 1.26966 16.4602V14.4602ZM0 15.7298C0 16.4311 0.568465 16.9995 1.26966 16.9995V14.9995C1.67304 14.9995 2 15.3265 2 15.7298H0ZM1.26966 16.9995H15.2922V14.9995H1.26966V16.9995ZM15.2922 16.9995C15.9933 16.9995 16.5618 16.4312 16.5618 15.7299H14.5618C14.5618 15.3265 14.8889 14.9995 15.2922 14.9995V16.9995ZM16.5618 15.7299C16.5618 15.0284 15.9932 14.4602 15.2922 14.4602V16.4602C14.8889 16.4602 14.5618 16.1333 14.5618 15.7299H16.5618ZM5.85394 2.61748H8.191V0.617481H5.85394V2.61748ZM7.191 1.61748V2.51636H9.191V1.61748H7.191ZM8.191 1.51636H5.85394V3.51636H8.191V1.51636ZM6.85394 2.51636V1.61748H4.85394V2.51636H6.85394ZM4.95506 14.4602H4.77528V16.4602H4.95506V14.4602ZM5.77528 15.4602V15.0108H3.77528V15.4602H5.77528ZM5.77528 15.0108C5.77528 14.3094 5.20666 13.7411 4.50563 13.7411V15.7411C4.1024 15.7411 3.77528 15.4142 3.77528 15.0108H5.77528ZM4.50563 13.7411C3.80459 13.7411 3.23597 14.3094 3.23597 15.0108H5.23597C5.23597 15.4142 4.90885 15.7411 4.50563 15.7411V13.7411ZM3.23597 15.0108V15.4602H5.23597V15.0108H3.23597ZM4.23597 14.4602H4.05619V16.4602H4.23597V14.4602ZM5.05619 15.4602V14.5613H3.05619V15.4602H5.05619ZM4.05619 15.5613H4.95506V13.5613H4.05619V15.5613ZM3.95506 14.5613V15.4602H5.95506V14.5613H3.95506ZM5.75281 8.53882V9.00273H7.75281V8.53882H5.75281ZM5.75281 9.00273V15.4602H7.75281V9.00273H5.75281ZM6.75281 14.4602H5.49438V16.4602H6.75281V14.4602ZM6.49438 15.4602V14.2917H4.49438V15.4602H6.49438ZM6.49438 14.2917C6.49438 13.5903 5.92576 13.022 5.22472 13.022V15.022C4.82149 15.022 4.49438 14.6951 4.49438 14.2917H6.49438ZM5.22472 13.022H3.78653V15.022H5.22472V13.022ZM3.78653 13.022C3.08538 13.022 2.51688 13.5903 2.51688 14.2917H4.51688C4.51688 14.6951 4.1898 15.022 3.78653 15.022V13.022ZM2.51688 14.2917V15.4602H4.51688V14.2917H2.51688ZM3.51688 14.4602H2.25844V16.4602H3.51688V14.4602ZM3.25844 15.4602V5.57254H1.25844V15.4602H3.25844ZM2.25844 6.57254H6.75281V4.57254H2.25844V6.57254ZM5.75281 5.57254V8.53882H7.75281V5.57254H5.75281ZM7.02247 4.03323H4.77528V6.03323H7.02247V4.03323ZM5.77528 5.03323V3.0557H3.77528V5.03323H5.77528ZM4.77528 4.0557H9.26966V2.0557H4.77528V4.0557ZM8.26966 3.0557V8.26917H10.2697V3.0557H8.26966ZM9.26966 7.26917H7.29216V9.26917H9.26966V7.26917ZM8.29216 8.26917V7.37029H6.29216V8.26917H8.29216ZM7.29216 8.37029H8.10116V6.37029H7.29216V8.37029ZM8.10116 8.37029C8.8023 8.37029 9.37081 7.80197 9.37081 7.10064H7.37081C7.37081 6.69724 7.69789 6.37029 8.10116 6.37029V8.37029ZM9.37081 7.10064C9.37081 6.39923 8.80219 5.83098 8.10116 5.83098V7.83098C7.69793 7.83098 7.37081 7.50411 7.37081 7.10064H9.37081ZM8.10116 5.83098H7.29216V7.83098H8.10116V5.83098ZM8.29216 6.83098V5.93211H6.29216V6.83098H8.29216ZM7.29216 6.93211H8.10116V4.93211H7.29216V6.93211ZM8.10116 6.93211C8.8023 6.93211 9.37081 6.36378 9.37081 5.66245H7.37081C7.37081 5.25906 7.69789 4.93211 8.10116 4.93211V6.93211ZM9.37081 5.66245C9.37081 4.96104 8.80219 4.39279 8.10116 4.39279V6.39279C7.69793 6.39279 7.37081 6.06592 7.37081 5.66245H9.37081ZM8.10116 4.39279H7.29216V6.39279H8.10116V4.39279ZM8.29216 5.39279V5.30292H6.29216V5.39279H8.29216ZM8.29216 5.30292C8.29216 4.60148 7.72354 4.03323 7.02247 4.03323V6.03323C6.61927 6.03323 6.29216 5.70635 6.29216 5.30292H8.29216ZM11.7865 14.4602H7.29216V16.4602H11.7865V14.4602ZM8.29216 15.4602V9.00273H6.29216V15.4602H8.29216ZM8.29216 9.00273V8.80851H6.29216V9.00273H8.29216ZM7.29216 9.80851H11.7865V7.80851H7.29216V9.80851ZM10.7865 8.80851V15.4602H12.7865V8.80851H10.7865ZM14.3034 14.4602H12.3258V16.4602H14.3034V14.4602ZM13.3258 15.4602V8.53882H11.3258V15.4602H13.3258ZM13.3258 8.53882V8.17926H11.3258V8.53882H13.3258ZM13.3258 8.17926C13.3258 7.47786 12.7572 6.90961 12.0562 6.90961V8.90961C11.653 8.90961 11.3258 8.58273 11.3258 8.17926H13.3258ZM12.0562 6.90961C11.3551 6.90961 10.7865 7.47786 10.7865 8.17926H12.7865C12.7865 8.58273 12.4594 8.90961 12.0562 8.90961V6.90961ZM10.7865 8.17926V8.26914H12.7865V8.17926H10.7865ZM11.7865 7.26914H11.2472V9.26914H11.7865V7.26914ZM12.2472 8.26914V8.17926H10.2472V8.26914H12.2472ZM12.2472 8.17926C12.2472 7.47786 11.6786 6.90961 10.9776 6.90961V8.90961C10.5743 8.90961 10.2472 8.58273 10.2472 8.17926H12.2472ZM10.9776 6.90961C10.2765 6.90961 9.70791 7.47786 9.70791 8.17926H11.7079C11.7079 8.58273 11.3808 8.90961 10.9776 8.90961V6.90961ZM9.70791 8.17926V8.26914H11.7079V8.17926H9.70791ZM10.7079 7.26914H9.80903V9.26914H10.7079V7.26914ZM10.809 8.26914V2.78604H8.80903V8.26914H10.809ZM10.809 2.78604V1.61748H8.80903V2.78604H10.809ZM9.80903 2.61748H14.3034V0.617481H9.80903V2.61748ZM13.3034 1.61748V15.4602H15.3034V1.61748H13.3034ZM14.3034 14.4602H14.3034V16.4602H14.3034V14.4602Z" fill="#9F9F9F" mask="url(#path-1-inside-1_6600_15323)"/>
<mask id="path-3-inside-2_6600_15323" fill="white">
<path d="M8.46009 14.9208C8.60902 14.9208 8.72974 14.8 8.72974 14.6511V9.61744C8.72974 9.46847 8.60899 9.34778 8.46009 9.34778C8.31118 9.34778 8.19043 9.46847 8.19043 9.61744V14.6512C8.19043 14.8001 8.31115 14.9208 8.46009 14.9208Z"/>
</mask>
<path d="M8.46009 14.9208C8.60902 14.9208 8.72974 14.8 8.72974 14.6511V9.61744C8.72974 9.46847 8.60899 9.34778 8.46009 9.34778C8.31118 9.34778 8.19043 9.46847 8.19043 9.61744V14.6512C8.19043 14.8001 8.31115 14.9208 8.46009 14.9208Z" fill="#2C2240"/>
<path d="M8.46009 15.9208C9.16138 15.9208 9.72974 15.3522 9.72974 14.6511H7.72974C7.72974 14.2478 8.05666 13.9208 8.46009 13.9208V15.9208ZM9.72974 14.6511V9.61744H7.72974V14.6511H9.72974ZM9.72974 9.61744C9.72974 8.91604 9.16113 8.34778 8.46009 8.34778V10.3478C8.05685 10.3478 7.72974 10.0209 7.72974 9.61744H9.72974ZM8.46009 8.34778C7.75904 8.34778 7.19043 8.91604 7.19043 9.61744H9.19043C9.19043 10.0209 8.86332 10.3478 8.46009 10.3478V8.34778ZM7.19043 9.61744V14.6512H9.19043V9.61744H7.19043ZM7.19043 14.6512C7.19043 15.3524 7.75894 15.9208 8.46009 15.9208V13.9208C8.86336 13.9208 9.19043 14.2477 9.19043 14.6512H7.19043Z" fill="#9F9F9F" mask="url(#path-3-inside-2_6600_15323)"/>
<path d="M9.53919 14.921C9.68812 14.921 9.80884 14.8003 9.80884 14.6514V9.61768C9.80884 9.46871 9.68809 9.34802 9.53919 9.34802C9.39028 9.34802 9.26953 9.46871 9.26953 9.61768V14.6514C9.2695 14.8003 9.39025 14.921 9.53919 14.921Z" fill="#2C2240"/>
<path d="M10.6173 14.921C10.7662 14.921 10.887 14.8003 10.887 14.6514V9.61768C10.887 9.46871 10.7662 9.34802 10.6173 9.34802C10.4684 9.34802 10.3477 9.46871 10.3477 9.61768V14.6514C10.3477 14.8003 10.4684 14.921 10.6173 14.921Z" fill="#2C2240"/>
<path d="M10.9777 3.4152C11.1266 3.4152 11.2473 3.29451 11.2473 3.14555V2.78601C11.2473 2.63704 11.1266 2.51636 10.9777 2.51636C10.8288 2.51636 10.708 2.63704 10.708 2.78601V3.14558C10.708 3.29451 10.8287 3.4152 10.9777 3.4152Z" fill="#2C2240"/>
<path d="M12.0558 3.4152C12.2047 3.4152 12.3254 3.29451 12.3254 3.14555V2.78601C12.3254 2.63704 12.2047 2.51636 12.0558 2.51636C11.9069 2.51636 11.7861 2.63704 11.7861 2.78601V3.14558C11.7861 3.29451 11.9069 3.4152 12.0558 3.4152Z" fill="#2C2240"/>
<path d="M13.1349 3.4152C13.2838 3.4152 13.4045 3.29451 13.4045 3.14555V2.78601C13.4045 2.63704 13.2838 2.51636 13.1349 2.51636C12.986 2.51636 12.8652 2.63704 12.8652 2.78601V3.14558C12.8652 3.29451 12.986 3.4152 13.1349 3.4152Z" fill="#2C2240"/>
<path d="M10.9777 5.21296C11.1266 5.21296 11.2473 5.09227 11.2473 4.94331V4.58374C11.2473 4.43477 11.1266 4.31409 10.9777 4.31409C10.8288 4.31409 10.708 4.43477 10.708 4.58374V4.94331C10.708 5.09227 10.8287 5.21296 10.9777 5.21296Z" fill="#2C2240"/>
<path d="M12.0558 5.21296C12.2047 5.21296 12.3254 5.09227 12.3254 4.94331V4.58374C12.3254 4.43477 12.2047 4.31409 12.0558 4.31409C11.9069 4.31409 11.7861 4.43477 11.7861 4.58374V4.94331C11.7861 5.09227 11.9069 5.21296 12.0558 5.21296Z" fill="#2C2240"/>
<path d="M13.1349 5.21296C13.2838 5.21296 13.4045 5.09227 13.4045 4.94331V4.58374C13.4045 4.43477 13.2838 4.31409 13.1349 4.31409C12.986 4.31409 12.8652 4.43477 12.8652 4.58374V4.94331C12.8652 5.09227 12.986 5.21296 13.1349 5.21296Z" fill="#2C2240"/>
<path d="M10.9777 7.01069C11.1266 7.01069 11.2473 6.89 11.2473 6.74104V6.38147C11.2473 6.2325 11.1266 6.11182 10.9777 6.11182C10.8288 6.11182 10.708 6.2325 10.708 6.38147V6.74104C10.708 6.88997 10.8287 7.01069 10.9777 7.01069Z" fill="#2C2240"/>
<path d="M12.0558 7.01069C12.2047 7.01069 12.3254 6.89 12.3254 6.74104V6.38147C12.3254 6.2325 12.2047 6.11182 12.0558 6.11182C11.9069 6.11182 11.7861 6.2325 11.7861 6.38147V6.74104C11.7861 6.88997 11.9069 7.01069 12.0558 7.01069Z" fill="#2C2240"/>
<path d="M13.1349 7.01069C13.2838 7.01069 13.4045 6.89 13.4045 6.74104V6.38147C13.4045 6.2325 13.2838 6.11182 13.1349 6.11182C12.986 6.11182 12.8652 6.2325 12.8652 6.38147V6.74104C12.8652 6.88997 12.986 7.01069 13.1349 7.01069Z" fill="#2C2240"/>
<path d="M3.42688 7.72981C3.57582 7.72981 3.69654 7.60912 3.69654 7.46015V7.10059C3.69654 6.95162 3.57579 6.83093 3.42688 6.83093C3.27798 6.83093 3.15723 6.95162 3.15723 7.10059V7.46015C3.15723 7.60909 3.27798 7.72981 3.42688 7.72981Z" fill="#2C2240"/>
<path d="M4.50598 7.72981C4.65492 7.72981 4.77564 7.60912 4.77564 7.46015V7.10059C4.77564 6.95162 4.65489 6.83093 4.50598 6.83093C4.35708 6.83093 4.23633 6.95162 4.23633 7.10059V7.46015C4.23633 7.60909 4.35705 7.72981 4.50598 7.72981Z" fill="#2C2240"/>
<path d="M5.58411 7.72981C5.73305 7.72981 5.85377 7.60912 5.85377 7.46015V7.10059C5.85377 6.95162 5.73302 6.83093 5.58411 6.83093C5.4352 6.83093 5.31445 6.95162 5.31445 7.10059V7.46015C5.31445 7.60909 5.43517 7.72981 5.58411 7.72981Z" fill="#2C2240"/>
<path d="M3.42688 9.52754C3.57582 9.52754 3.69654 9.40685 3.69654 9.25788V8.89832C3.69654 8.74935 3.57579 8.62866 3.42688 8.62866C3.27798 8.62866 3.15723 8.74935 3.15723 8.89832V9.25788C3.15723 9.40682 3.27798 9.52754 3.42688 9.52754Z" fill="#2C2240"/>
<path d="M4.50598 9.52754C4.65492 9.52754 4.77564 9.40685 4.77564 9.25788V8.89832C4.77564 8.74935 4.65489 8.62866 4.50598 8.62866C4.35708 8.62866 4.23633 8.74935 4.23633 8.89832V9.25788C4.23633 9.40682 4.35705 9.52754 4.50598 9.52754Z" fill="#2C2240"/>
<path d="M5.58411 9.52754C5.73305 9.52754 5.85377 9.40685 5.85377 9.25788V8.89832C5.85377 8.74935 5.73302 8.62866 5.58411 8.62866C5.4352 8.62866 5.31445 8.74935 5.31445 8.89832V9.25788C5.31445 9.40682 5.43517 9.52754 5.58411 9.52754Z" fill="#2C2240"/>
<path d="M3.42688 11.3254C3.57582 11.3254 3.69654 11.2047 3.69654 11.0557V10.6962C3.69654 10.5472 3.57579 10.4265 3.42688 10.4265C3.27798 10.4265 3.15723 10.5472 3.15723 10.6962V11.0557C3.15723 11.2047 3.27798 11.3254 3.42688 11.3254Z" fill="#2C2240"/>
<path d="M4.50598 11.3254C4.65492 11.3254 4.77564 11.2047 4.77564 11.0557V10.6962C4.77564 10.5472 4.65489 10.4265 4.50598 10.4265C4.35708 10.4265 4.23633 10.5472 4.23633 10.6962V11.0557C4.23633 11.2047 4.35705 11.3254 4.50598 11.3254Z" fill="#2C2240"/>
<path d="M5.58411 11.3254C5.73305 11.3254 5.85377 11.2047 5.85377 11.0557V10.6962C5.85377 10.5472 5.73302 10.4265 5.58411 10.4265C5.4352 10.4265 5.31445 10.5472 5.31445 10.6962V11.0557C5.31445 11.2047 5.43517 11.3254 5.58411 11.3254Z" fill="#2C2240"/>
<path d="M3.42688 13.1231C3.57582 13.1231 3.69654 13.0024 3.69654 12.8535V12.4939C3.69654 12.3449 3.57579 12.2242 3.42688 12.2242C3.27798 12.2242 3.15723 12.3449 3.15723 12.4939V12.8535C3.15723 13.0024 3.27798 13.1231 3.42688 13.1231Z" fill="#2C2240"/>
<path d="M4.50598 13.1231C4.65492 13.1231 4.77564 13.0024 4.77564 12.8535V12.4939C4.77564 12.3449 4.65489 12.2242 4.50598 12.2242C4.35708 12.2242 4.23633 12.3449 4.23633 12.4939V12.8535C4.23633 13.0024 4.35705 13.1231 4.50598 13.1231Z" fill="#2C2240"/>
<path d="M5.58411 13.1231C5.73305 13.1231 5.85377 13.0024 5.85377 12.8535V12.4939C5.85377 12.3449 5.73302 12.2242 5.58411 12.2242C5.4352 12.2242 5.31445 12.3449 5.31445 12.4939V12.8535C5.31445 13.0024 5.43517 13.1231 5.58411 13.1231Z" fill="#2C2240"/>
<path d="M13.1349 8.80842C13.2838 8.80842 13.4045 8.68773 13.4045 8.53877V8.1792C13.4045 8.03023 13.2838 7.90955 13.1349 7.90955C12.986 7.90955 12.8652 8.03023 12.8652 8.1792V8.53877C12.8652 8.6877 12.986 8.80842 13.1349 8.80842Z" fill="#2C2240"/>
<path d="M13.1349 10.6063C13.2838 10.6063 13.4045 10.4856 13.4045 10.3366V9.97705C13.4045 9.82808 13.2838 9.7074 13.1349 9.7074C12.986 9.7074 12.8652 9.82808 12.8652 9.97705V10.3366C12.8652 10.4856 12.986 10.6063 13.1349 10.6063Z" fill="#2C2240"/>
<path d="M13.1349 12.4039C13.2838 12.4039 13.4045 12.2832 13.4045 12.1342V11.7747C13.4045 11.6257 13.2838 11.505 13.1349 11.505C12.986 11.505 12.8652 11.6257 12.8652 11.7747V12.1342C12.8652 12.2832 12.986 12.4039 13.1349 12.4039Z" fill="#2C2240"/>
<path d="M13.1349 14.2017C13.2838 14.2017 13.4045 14.081 13.4045 13.9321V13.5725C13.4045 13.4235 13.2838 13.3029 13.1349 13.3029C12.986 13.3029 12.8652 13.4235 12.8652 13.5725V13.9321C12.8652 14.081 12.986 14.2017 13.1349 14.2017Z" fill="#2C2240"/>
<path d="M8.37045 4.22412C8.37045 4.07516 8.2497 3.95447 8.1008 3.95447H5.94348C5.79455 3.95447 5.67383 4.07516 5.67383 4.22412C5.67383 4.37309 5.79458 4.49378 5.94348 4.49378H8.1008C8.24973 4.49378 8.37045 4.37309 8.37045 4.22412Z" fill="#2C2240"/>
</svg>
