<svg viewBox="0 0 43 74" fill="none" xmlns="http://www.w3.org/2000/svg">
<path d="M8.17691 30.9055H34.8949M8.17691 35.8661H34.8949M8.17691 40.8268H34.8949M1 8.15748H42.1429V4.16483C42.1429 2.41694 40.7259 1 38.978 1H4.16484C2.41695 1 1 2.41695 1 4.16484V8.15748ZM42.1429 10.7795V61.0945H1V10.7795H42.1429ZM8.17691 16.378H34.8949V25.8032H8.17691V16.378ZM8.17691 45.6457H34.8949V55.2835H8.17691V45.6457ZM42.1429 63.8583V69.8352C42.1429 71.5831 40.7259 73 38.978 73H4.16484C2.41695 73 1 71.5831 1 69.8352V63.8583H42.1429Z" stroke="#161616" stroke-width="0.791209"/>
</svg>
