<svg viewBox="0 0 129 36" fill="none" xmlns="http://www.w3.org/2000/svg">
<path d="M33.4335 0L31.6593 8.78606C31.6593 8.78606 31.542 9.39929 31.5316 9.4374C30.0819 16.8758 27.4483 24.7264 21.4873 29.8227C17.2072 33.7065 10.014 35.068 5.6062 30.6404C3.60078 28.6309 2.69299 25.9771 2.64122 23.2505C2.61846 20.7305 3.25015 18.2481 4.47405 16.0477C4.5707 15.8814 4.66734 15.7013 4.76744 15.5488C4.86754 15.3964 5.01941 15.147 5.15058 14.9564C5.28174 14.7659 5.41981 14.5718 5.55787 14.3882C5.97701 13.8387 6.43866 13.3232 6.93854 12.8465C7.23883 12.5763 7.54603 12.3199 7.86358 12.0808L8.18804 11.8487C8.46417 11.6512 8.74375 11.4607 9.03369 11.2875C9.17521 11.2008 9.32363 11.1142 9.47205 11.038C9.62048 10.9618 9.76545 10.8786 9.91732 10.8024C9.82067 10.9341 9.72057 11.0657 9.62738 11.1974C9.31673 11.6166 9.02334 12.0393 8.75756 12.4689C8.49178 12.8985 8.21565 13.3419 7.96713 13.7958C7.96843 13.8061 7.96843 13.8166 7.96713 13.827C7.88429 13.9759 7.8049 14.1249 7.73242 14.2739C7.65993 14.4229 7.57364 14.5822 7.4977 14.7381C7.42177 14.894 7.34583 15.0534 7.27335 15.2128C5.28519 19.0238 4.60867 24.9135 8.16388 27.8064C8.22255 27.8514 8.29159 27.8964 8.37098 27.9484C9.69296 28.8215 11.4015 28.967 13.0135 28.5443C14.6533 28.0549 16.1162 27.0981 17.2245 25.79L17.2935 25.7172C19.3162 23.4376 20.6485 20.2675 21.4355 17.5929C22.0482 15.3457 22.489 13.0547 22.754 10.7401L18.8364 10.7054L33.4335 0Z" fill="#1C0A52"/>
<path d="M31.832 36.0005V12.1541H36.9129V14.413C37.4237 12.9059 39.436 11.8458 42.0248 11.8458C43.1632 11.8157 44.2946 12.0327 45.3418 12.4817C46.389 12.9307 47.3274 13.6013 48.0928 14.4476C48.8989 15.2871 49.531 16.2789 49.9523 17.3655C50.3736 18.452 50.5757 19.6117 50.5469 20.7773C50.5986 23.1409 49.7163 25.4289 48.0928 27.1417C47.3187 27.9772 46.3764 28.638 45.3284 29.08C44.2805 29.522 43.1508 29.7352 42.0144 29.7054C39.4257 29.7054 37.4134 28.6453 36.9025 27.1417V36.0005H31.832ZM44.2062 23.8746C44.617 23.473 44.9409 22.9906 45.1576 22.4577C45.3744 21.9248 45.4794 21.3528 45.4661 20.7773C45.48 20.2092 45.3747 19.6445 45.157 19.1198C44.9394 18.5952 44.6143 18.1224 44.2028 17.732C43.7997 17.3178 43.3157 16.9917 42.7811 16.774C42.2466 16.5564 41.6729 16.4521 41.0963 16.4674C40.5053 16.4526 39.9173 16.5568 39.3671 16.774C38.8169 16.9912 38.3157 17.317 37.8931 17.732C37.4774 18.1207 37.1474 18.5925 36.9245 19.117C36.7015 19.6415 36.5906 20.2071 36.5988 20.7773C36.5942 21.3521 36.7066 21.9218 36.9292 22.4515C37.1517 22.9811 37.4798 23.4595 37.8931 23.8573C38.7594 24.6778 39.9124 25.1233 41.1032 25.0976C41.6767 25.1094 42.2468 25.0057 42.7798 24.7927C43.3128 24.5797 43.7978 24.2616 44.2062 23.8573V23.8746Z" fill="#1C0A52"/>
<path d="M64.5198 14.4126V5.55029H69.6006V29.3967H64.5198V27.1413C64.0089 28.6449 61.9966 29.705 59.4079 29.705C58.2686 29.7301 57.1367 29.5149 56.0855 29.0733C55.0343 28.6316 54.0872 27.9735 53.3053 27.1413C51.7069 25.4154 50.8403 23.1329 50.8892 20.7769C50.8343 18.4303 51.7023 16.1563 53.3053 14.4472C54.0797 13.6029 55.0246 12.9341 56.0769 12.4854C57.1293 12.0367 58.2648 11.8185 59.4079 11.8454C61.9966 11.8454 64.0089 12.9055 64.5198 14.4126ZM63.4843 23.8569C63.9086 23.4658 64.2462 22.9894 64.4751 22.4588C64.7041 21.9282 64.8192 21.3551 64.8132 20.7769C64.8228 20.2033 64.709 19.6343 64.4797 19.1088C64.2504 18.5832 63.9108 18.1135 63.4843 17.7316C63.0699 17.3142 62.5745 16.9866 62.0289 16.7691C61.4833 16.5516 60.899 16.4488 60.3122 16.467C59.7356 16.4516 59.1619 16.556 58.6274 16.7736C58.0928 16.9912 57.6088 17.3174 57.2057 17.7316C56.7942 18.122 56.4691 18.5948 56.2515 19.1194C56.0338 19.6441 55.9285 20.2088 55.9424 20.7769C55.9319 21.3497 56.0386 21.9186 56.2559 22.4484C56.4732 22.9781 56.7965 23.4575 57.2057 23.8569C57.6154 24.2598 58.1014 24.5762 58.635 24.7874C59.1685 24.9986 59.7388 25.1004 60.3122 25.0868C60.8981 25.1051 61.4817 25.0057 62.0288 24.7945C62.5759 24.5833 63.0754 24.2645 63.4981 23.8569H63.4843Z" fill="#350ABC"/>
<path d="M86.4068 14.308C87.309 15.1208 88.0259 16.1195 88.5084 17.2358C88.9909 18.3521 89.2277 19.5598 89.2027 20.7763C89.2245 21.997 88.9864 23.2083 88.5042 24.3292C88.022 25.4501 87.307 26.4547 86.4068 27.2758C84.5873 29.0061 82.165 29.9525 79.6588 29.9123C77.1411 29.9598 74.7055 29.013 72.8763 27.2758C71.9868 26.4481 71.2811 25.4414 70.8053 24.3215C70.3295 23.2016 70.0943 21.9936 70.115 20.7763C70.0908 19.5631 70.3246 18.3587 70.8007 17.2433C71.2769 16.1279 71.9845 15.1273 72.8763 14.308C73.7764 13.4373 74.8388 12.7534 76.0027 12.2957C77.1666 11.8379 78.409 11.6152 79.6588 11.6403C82.1715 11.5969 84.5986 12.5564 86.4068 14.308ZM76.4867 24.0087C76.8992 24.4311 77.3934 24.7642 77.9389 24.9876C78.4844 25.2111 79.0698 25.3201 79.6588 25.3079C80.2473 25.3196 80.832 25.2103 81.3769 24.9869C81.9218 24.7635 82.4154 24.4306 82.8275 24.0087C83.2484 23.5847 83.5803 23.08 83.8032 22.5247C84.0261 21.9695 84.1357 21.3749 84.1253 20.7763C84.1374 20.1851 84.0288 19.5976 83.8061 19.05C83.5835 18.5024 83.2517 18.0064 82.8309 17.5924C82.4252 17.1599 81.9335 16.8176 81.3877 16.5879C80.8418 16.3581 80.254 16.2459 79.6623 16.2586C79.07 16.2456 78.4816 16.3577 77.9352 16.5875C77.3887 16.8172 76.8965 17.1596 76.4902 17.5924C76.0695 18.0064 75.7376 18.5024 75.515 19.05C75.2924 19.5976 75.1838 20.1851 75.1958 20.7763C75.1835 21.372 75.2915 21.9639 75.5134 22.5165C75.7353 23.0691 76.0664 23.5708 76.4867 23.9914V24.0087Z" fill="#350ABC"/>
<path d="M89.9492 29.3965V12.1535H95.0301V14.3084C95.7446 12.8048 97.6878 11.7793 100.038 11.7793C104.232 11.7793 106.617 14.447 106.617 18.9301V29.3965H101.54V19.5537C101.54 17.5374 100.415 16.304 98.4023 16.304C97.9521 16.2887 97.5037 16.3671 97.0851 16.5342C96.6666 16.7013 96.287 16.9536 95.9702 17.2751C95.6535 17.5966 95.4065 17.9803 95.2447 18.4023C95.0829 18.8243 95.0098 19.2753 95.0301 19.7269V29.4069L89.9492 29.3965Z" fill="#350ABC"/>
<path d="M107.25 20.7423C107.25 18.0399 108.137 15.8503 109.877 14.2081C111.616 12.5659 113.863 11.7102 116.556 11.7102C119.182 11.7102 121.295 12.5659 122.931 14.2428C123.739 15.0612 124.374 16.036 124.796 17.108C125.218 18.18 125.418 19.3268 125.385 20.4789C125.385 21.061 125.351 21.6084 125.316 22.1211H112.314C112.414 24.1721 114.188 25.5095 116.88 25.5095C118.444 25.5304 119.953 24.9273 121.074 23.8326L124.039 26.6701C123.092 27.6828 121.945 28.486 120.672 29.0283C119.398 29.5705 118.025 29.84 116.642 29.8193C113.812 29.8193 111.561 28.9982 109.825 27.3942C108.089 25.7901 107.25 23.5832 107.25 20.8774V20.7423ZM120.273 18.7917C120.273 17.1842 118.603 15.9196 116.556 15.9196C114.34 15.9196 112.534 17.1842 112.396 18.7917H120.273Z" fill="#350ABC"/>
<path d="M17.2928 25.7167C15.0906 29.0392 11.8564 30.6398 8.53248 29.8257C4.81159 28.9283 3.10302 26.517 2.66466 23.243C2.6419 20.7231 3.27359 18.2406 4.49749 16.0403C4.59414 15.874 4.69078 15.6938 4.79088 15.5414C4.89098 15.3889 5.04285 15.1395 5.17401 14.9489C5.30518 14.7584 5.44324 14.5644 5.58131 14.3808C6.00044 13.8312 6.4621 13.3157 6.96198 12.839C7.26227 12.5688 7.56947 12.3124 7.88702 12.0734L8.21148 11.8413C8.48761 11.6438 8.7741 11.4532 9.06059 11.2765C9.2021 11.1899 9.35052 11.1033 9.49895 11.0271C9.64737 10.9509 9.79234 10.8677 9.94421 10.7915C9.84756 10.9232 9.74747 11.0548 9.65427 11.1865L9.35743 11.5849C9.15378 11.8724 8.95704 12.1635 8.76719 12.4614C8.49106 12.8945 8.22873 13.3345 7.97676 13.7883C7.97806 13.7987 7.97806 13.8092 7.97676 13.8195C7.89738 13.9685 7.81454 14.1175 7.74205 14.2664C7.66957 14.4154 7.58327 14.5748 7.50734 14.7307C7.4314 14.8866 7.35546 15.046 7.28298 15.2053C5.29482 19.0163 4.6183 24.906 8.17351 27.7989C8.23219 27.8439 8.30122 27.889 8.38061 27.941C9.70259 28.814 11.4112 28.9595 13.0231 28.5369C14.6583 28.0475 16.1173 27.0933 17.2238 25.7895L17.2928 25.7167Z" fill="#350ABC"/>
</svg>
