<svg width="25" height="24" viewBox="0 0 25 24" fill="none" xmlns="http://www.w3.org/2000/svg">
<path d="M21.2102 10C21.2102 17 12.2102 23 12.2102 23C12.2102 23 3.21021 17 3.21021 10C3.21021 7.61305 4.15842 5.32387 5.84624 3.63604C7.53407 1.94821 9.82326 1 12.2102 1C14.5972 1 16.8863 1.94821 18.5742 3.63604C20.262 5.32387 21.2102 7.61305 21.2102 10Z" stroke="#6B6B6B" stroke-linecap="round" stroke-linejoin="round"/>
<path d="M12.2102 13C13.8671 13 15.2102 11.6569 15.2102 10C15.2102 8.34315 13.8671 7 12.2102 7C10.5534 7 9.21021 8.34315 9.21021 10C9.21021 11.6569 10.5534 13 12.2102 13Z" fill="white" stroke="#6B6B6B" stroke-linecap="round" stroke-linejoin="round"/>
</svg>
