<svg width="16" height="16" viewBox="0 0 16 16" fill="none" xmlns="http://www.w3.org/2000/svg">
<g clip-path="url(#clip0_6600_15362)">
<path d="M14.6669 11.2795V13.2795C14.6677 13.4652 14.6297 13.649 14.5553 13.8191C14.4809 13.9892 14.3718 14.1419 14.235 14.2674C14.0982 14.3929 13.9367 14.4885 13.7608 14.548C13.5849 14.6075 13.3985 14.6296 13.2136 14.6128C11.1622 14.3899 9.19161 13.6889 7.46028 12.5662C5.8495 11.5426 4.48384 10.177 3.46028 8.56618C2.3336 6.82698 1.63244 4.84684 1.41361 2.78618C1.39695 2.60182 1.41886 2.41602 1.47795 2.24059C1.53703 2.06517 1.63199 1.90397 1.75679 1.76726C1.88159 1.63055 2.03348 1.52132 2.20281 1.44652C2.37213 1.37173 2.55517 1.33302 2.74028 1.33284H4.74028C5.06382 1.32966 5.37748 1.44423 5.62279 1.6552C5.8681 1.86617 6.02833 2.15914 6.07361 2.47951C6.15803 3.11955 6.31458 3.74799 6.54028 4.35284C6.62998 4.59146 6.64939 4.85079 6.59622 5.1001C6.54305 5.34941 6.41952 5.57825 6.24028 5.75951L5.39361 6.60618C6.34265 8.27521 7.72458 9.65714 9.39361 10.6062L10.2403 9.75951C10.4215 9.58027 10.6504 9.45674 10.8997 9.40357C11.149 9.3504 11.4083 9.36982 11.6469 9.45951C12.2518 9.68521 12.8802 9.84176 13.5203 9.92618C13.8441 9.97186 14.1399 10.135 14.3513 10.3845C14.5627 10.634 14.6751 10.9526 14.6669 11.2795Z" stroke="#9F9F9F" stroke-linecap="round" stroke-linejoin="round"/>
</g>
<defs>
<clipPath id="clip0_6600_15362">
<rect width="16" height="16" fill="white" transform="translate(0 -0.000488281)"/>
</clipPath>
</defs>
</svg>
