<svg width="21" height="24" viewBox="0 0 21 24" fill="none" xmlns="http://www.w3.org/2000/svg">
<mask id="path-1-inside-1_5955_83113" fill="white">
<path d="M8.41717 1.08724C7.6728 1.10618 7.08425 1.7241 7.10148 2.46846L7.17612 5.53942C5.85989 6.50799 5.05176 8.01941 4.97716 9.65189L4.96312 9.6523C4.75036 9.65747 4.58205 9.83416 4.58723 10.0469C4.58723 10.0469 4.58723 10.0469 4.58723 10.047L4.60859 10.9302C4.61451 11.207 4.73098 11.4699 4.93199 11.6603C4.98438 11.71 5.01483 11.7785 5.01643 11.8507L5.0166 11.8581C5.06916 14.0036 5.33306 16.1387 5.80447 18.2324L6.65818 22.019C6.80084 22.6454 7.36449 23.0851 8.00683 23.0708L13.3625 22.9406C14.0047 22.9237 14.5464 22.4571 14.6584 21.8245L15.327 18.0008C15.6961 15.8868 15.856 13.7416 15.8044 11.5963L15.8043 11.5889C15.8027 11.5167 15.8297 11.4468 15.8794 11.3943C16.0708 11.1943 16.1744 10.9261 16.1669 10.6493L16.1454 9.76597C16.1403 9.55317 15.9636 9.38486 15.7509 9.39004C15.7509 9.39004 15.7509 9.39004 15.7508 9.39004L15.7367 9.39045C15.583 7.76345 14.7023 6.29305 13.3405 5.38954L13.2658 2.31858C13.2469 1.57422 12.629 0.985625 11.8846 1.00286L8.41717 1.08724ZM8.03126 2.03684C8.13645 1.92504 8.28231 1.86045 8.4358 1.85766L11.9033 1.77349C12.2224 1.76613 12.4872 2.01834 12.4954 2.33738L12.5002 2.53015L7.87674 2.64236L7.87194 2.44959C7.86775 2.29627 7.92512 2.14761 8.03126 2.03684ZM12.5279 3.68573L7.90492 3.79825L7.89555 3.41302L12.5188 3.30061L12.5279 3.68573ZM12.5656 5.22692L7.94232 5.3393L7.92355 4.56874L12.5471 4.45636L12.5656 5.22692ZM15.3964 10.6681C15.3984 10.7404 15.3713 10.8105 15.3212 10.8627C15.1298 11.0625 15.0262 11.3307 15.0337 11.6073L15.0339 11.6147C15.0844 13.7093 14.9282 15.804 14.5678 17.868L13.8993 21.6917C13.8513 21.9628 13.6191 22.1628 13.3439 22.17L7.9881 22.3003C7.71283 22.3063 7.47138 22.1178 7.41031 21.8494L6.55684 18.0627C6.09646 16.0187 5.8387 13.9343 5.7872 11.8397L5.78703 11.8324C5.78107 11.5556 5.6646 11.2927 5.46362 11.1023C5.41113 11.0525 5.38071 10.9839 5.37918 10.9116L5.36705 10.4135L15.3843 10.17L15.3964 10.6681ZM14.9644 9.40915L11.4422 9.49482L5.74949 9.63319C5.83036 8.22689 6.54505 6.93332 7.69256 6.11636L12.8527 5.99091C14.0385 6.75114 14.8153 8.00841 14.9644 9.40915Z"/>
</mask>
<path d="M8.41717 1.08724L8.39284 0.0875334L8.39173 0.0875623L8.41717 1.08724ZM7.10148 2.46846L6.10175 2.49161L6.10178 2.49276L7.10148 2.46846ZM7.17612 5.53942L7.76881 6.34485L8.18848 6.03603L8.17582 5.51513L7.17612 5.53942ZM4.97716 9.65189L5.00627 10.6515L5.93376 10.6244L5.97612 9.69754L4.97716 9.65189ZM4.96312 9.6523L4.98745 10.652L4.99224 10.6519L4.96312 9.6523ZM4.58723 10.0469L5.23751 10.8066L5.59849 10.4976L5.58693 10.0226L4.58723 10.0469ZM4.58723 10.047L3.58723 10.047L3.58723 10.0591L3.58752 10.0712L4.58723 10.047ZM4.60859 10.9302L5.60836 10.9088L5.60829 10.906L4.60859 10.9302ZM4.93199 11.6603L5.61997 10.9346L5.61964 10.9343L4.93199 11.6603ZM5.01643 11.8507L4.01668 11.8729L4.0167 11.8738L5.01643 11.8507ZM5.0166 11.8581L4.01687 11.8812L4.0169 11.8826L5.0166 11.8581ZM5.80447 18.2324L4.82889 18.4521L4.82895 18.4523L5.80447 18.2324ZM6.65818 22.019L5.68266 22.2389L5.68314 22.241L6.65818 22.019ZM8.00683 23.0708L8.02894 24.0706L8.03114 24.0706L8.00683 23.0708ZM13.3625 22.9406L13.3868 23.9403L13.3889 23.9403L13.3625 22.9406ZM14.6584 21.8245L15.6431 21.9989L15.6435 21.9967L14.6584 21.8245ZM15.327 18.0008L16.312 18.1731L16.312 18.1729L15.327 18.0008ZM15.8044 11.5963L14.8046 11.6148L14.8047 11.6204L15.8044 11.5963ZM15.8043 11.5889L16.8041 11.5704L16.804 11.5677L15.8043 11.5889ZM15.8794 11.3943L15.157 10.7028L15.1532 10.7068L15.8794 11.3943ZM16.1669 10.6493L15.1672 10.6737L15.1673 10.6763L16.1669 10.6493ZM16.1454 9.76597L15.1457 9.79013L15.1457 9.79029L16.1454 9.76597ZM15.7509 9.39004L15.7265 8.39034L14.6781 8.41585L14.7534 9.46186L15.7509 9.39004ZM15.7508 9.39004L15.7508 8.39004H15.7363L15.7218 8.39046L15.7508 9.39004ZM15.7367 9.39045L14.7412 9.48456L14.8294 10.4172L15.7658 10.39L15.7367 9.39045ZM13.3405 5.38954L12.3408 5.41384L12.3534 5.93475L12.7876 6.22282L13.3405 5.38954ZM13.2658 2.31858L14.2655 2.29428L14.2655 2.29314L13.2658 2.31858ZM11.8846 1.00286L11.8614 0.00312935L11.8602 0.00315817L11.8846 1.00286ZM8.03126 2.03684L8.75333 2.72871L8.75956 2.72209L8.03126 2.03684ZM8.4358 1.85766L8.454 2.85751L8.46007 2.85737L8.4358 1.85766ZM11.9033 1.77349L11.8803 0.773755L11.8791 0.773784L11.9033 1.77349ZM12.4954 2.33738L13.4951 2.31247L13.495 2.31177L12.4954 2.33738ZM12.5002 2.53015L12.5244 3.52986L13.5248 3.50558L13.4999 2.50524L12.5002 2.53015ZM7.87674 2.64236L6.87705 2.66726L6.90195 3.66631L7.90101 3.64206L7.87674 2.64236ZM7.87194 2.44959L8.87163 2.42468L8.87157 2.42227L7.87194 2.44959ZM12.5279 3.68573L12.5522 4.68544L13.5511 4.66113L13.5276 3.66221L12.5279 3.68573ZM7.90492 3.79825L6.90521 3.82256L6.92952 4.82228L7.92925 4.79795L7.90492 3.79825ZM7.89555 3.41302L7.87124 2.41331L6.87153 2.43762L6.89584 3.43733L7.89555 3.41302ZM12.5188 3.30061L13.5186 3.27709L13.495 2.27658L12.4945 2.3009L12.5188 3.30061ZM12.5656 5.22692L12.5899 6.22663L13.5892 6.20234L13.5653 5.20301L12.5656 5.22692ZM7.94232 5.3393L6.94261 5.36365L6.96696 6.3633L7.96662 6.339L7.94232 5.3393ZM7.92355 4.56874L7.89925 3.56903L6.89949 3.59333L6.92384 4.59309L7.92355 4.56874ZM12.5471 4.45636L13.5469 4.43245L13.5229 3.43235L12.5228 3.45666L12.5471 4.45636ZM15.3964 10.6681L14.3967 10.6925L14.3968 10.6954L15.3964 10.6681ZM15.3212 10.8627L14.5992 10.1708L14.5992 10.1709L15.3212 10.8627ZM15.0337 11.6073L16.0334 11.5842L16.0333 11.5803L15.0337 11.6073ZM15.0339 11.6147L14.0341 11.6377L14.0342 11.6388L15.0339 11.6147ZM14.5678 17.868L15.5529 18.0402L15.5529 18.04L14.5678 17.868ZM13.8993 21.6917L14.884 21.8658L14.8843 21.8639L13.8993 21.6917ZM13.3439 22.17L13.3682 23.1697L13.3702 23.1697L13.3439 22.17ZM7.9881 22.3003L8.00975 23.3001L8.01242 23.3L7.9881 22.3003ZM7.41031 21.8494L6.43478 22.0693L6.43523 22.0712L7.41031 21.8494ZM6.55684 18.0627L5.58128 18.2825L5.58131 18.2826L6.55684 18.0627ZM5.7872 11.8397L4.78746 11.8628L4.7875 11.8643L5.7872 11.8397ZM5.78703 11.8324L4.78726 11.8539L4.78729 11.8554L5.78703 11.8324ZM5.46362 11.1023L4.77561 11.828L4.77585 11.8282L5.46362 11.1023ZM5.37918 10.9116L6.37896 10.8904L6.37888 10.8872L5.37918 10.9116ZM5.36705 10.4135L5.34275 9.41378L4.34301 9.43809L4.36735 10.4378L5.36705 10.4135ZM15.3843 10.17L16.384 10.1456L16.3596 9.14596L15.36 9.17026L15.3843 10.17ZM14.9644 9.40915L14.9887 10.4089L16.0737 10.3825L15.9588 9.30326L14.9644 9.40915ZM11.4422 9.49482L11.4665 10.4945L11.4665 10.4945L11.4422 9.49482ZM5.74949 9.63319L4.75114 9.57578L4.68883 10.6593L5.77379 10.6329L5.74949 9.63319ZM7.69256 6.11636L7.66826 5.11666L7.36208 5.1241L7.11259 5.30172L7.69256 6.11636ZM12.8527 5.99091L13.3924 5.14906L13.1345 4.98376L12.8284 4.9912L12.8527 5.99091ZM8.39173 0.0875623C7.09613 0.120527 6.07175 1.19603 6.10175 2.49161L8.10122 2.44531C8.09674 2.25217 8.24948 2.09183 8.4426 2.08691L8.39173 0.0875623ZM6.10178 2.49276L6.17641 5.56372L8.17582 5.51513L8.10119 2.44416L6.10178 2.49276ZM6.58343 4.73399C5.02401 5.88152 4.06658 7.67217 3.9782 9.60624L5.97612 9.69754C6.03693 8.36665 6.69577 7.13447 7.76881 6.34485L6.58343 4.73399ZM4.94804 8.65231L4.93401 8.65272L4.99224 10.6519L5.00627 10.6515L4.94804 8.65231ZM4.93879 8.65259C4.17396 8.6712 3.56891 9.30632 3.58752 10.0713L5.58693 10.0226C5.59519 10.362 5.32676 10.6437 4.98745 10.652L4.93879 8.65259ZM4.58723 10.0469C3.93685 9.28731 3.88868 9.33137 3.84348 9.37847C3.8314 9.39216 3.79907 9.43146 3.77948 9.4574C3.74527 9.50426 3.72055 9.54674 3.70353 9.57887C3.67055 9.64114 3.65094 9.69424 3.64061 9.72456C3.62002 9.78502 3.60993 9.83412 3.60603 9.85393C3.59736 9.89801 3.59369 9.93292 3.59262 9.94326C3.58984 9.96995 3.58879 9.99092 3.58853 9.99592C3.58778 10.0106 3.58753 10.0221 3.58748 10.0245C3.58731 10.0322 3.58727 10.0382 3.58726 10.0394C3.58723 10.0433 3.58723 10.0464 3.58723 10.047H5.58723C5.58723 10.0475 5.58723 10.0506 5.5872 10.0545C5.58719 10.0557 5.58715 10.0617 5.58698 10.0694C5.58692 10.0718 5.58668 10.0833 5.58593 10.0979C5.58567 10.1029 5.58462 10.1239 5.58184 10.1506C5.58076 10.1609 5.5771 10.1958 5.56843 10.2399C5.56453 10.2597 5.55443 10.3088 5.53384 10.3693C5.52352 10.3996 5.50391 10.4527 5.47093 10.515C5.45391 10.5471 5.42919 10.5896 5.39494 10.6365C5.37539 10.6624 5.34306 10.7017 5.33089 10.7155C5.28578 10.7625 5.2376 10.8065 4.58723 10.0469ZM3.58752 10.0712L3.60888 10.9543L5.60829 10.906L5.58694 10.0228L3.58752 10.0712ZM3.60882 10.9516C3.62046 11.4955 3.84931 12.0122 4.24434 12.3863L5.61964 10.9343C5.61264 10.9276 5.60856 10.9184 5.60836 10.9088L3.60882 10.9516ZM4.24401 12.386C4.10332 12.2527 4.02101 12.0681 4.01668 11.8729L6.01619 11.8285C6.00865 11.4889 5.86543 11.1673 5.61997 10.9346L4.24401 12.386ZM4.0167 11.8738L4.01687 11.8812L6.01634 11.835L6.01617 11.8276L4.0167 11.8738ZM4.0169 11.8826C4.07107 14.0938 4.34305 16.2942 4.82889 18.4521L6.78005 18.0128C6.32307 15.9831 6.06726 13.9134 6.0163 11.8336L4.0169 11.8826ZM4.82895 18.4523L5.68266 22.2389L7.63369 21.799L6.77998 18.0125L4.82895 18.4523ZM5.68314 22.241C5.93127 23.3306 6.91165 24.0953 8.02894 24.0706L7.98473 22.0711C7.81733 22.0748 7.6704 21.9602 7.63321 21.7969L5.68314 22.241ZM8.03114 24.0706L13.3868 23.9403L13.3382 21.9409L7.98253 22.0711L8.03114 24.0706ZM13.3889 23.9403C14.5061 23.9108 15.4482 23.0993 15.6431 21.9989L13.6738 21.6501C13.6445 21.815 13.5033 21.9365 13.3361 21.941L13.3889 23.9403ZM15.6435 21.9967L16.312 18.1731L14.3419 17.8286L13.6734 21.6523L15.6435 21.9967ZM16.312 18.1729C16.6925 15.9941 16.8573 13.7832 16.8041 11.5722L14.8047 11.6204C14.8547 13.7 14.6997 15.7795 14.3419 17.8288L16.312 18.1729ZM16.8042 11.5778L16.8041 11.5704L14.8044 11.6074L14.8046 11.6148L16.8042 11.5778ZM16.804 11.5677C16.8081 11.7584 16.7368 11.9432 16.6055 12.0818L15.1532 10.7068C14.9226 10.9504 14.7974 11.275 14.8045 11.6101L16.804 11.5677ZM16.6017 12.0859C16.9778 11.6931 17.1812 11.1662 17.1666 10.6224L15.1673 10.6763C15.1676 10.6861 15.1639 10.6956 15.1571 10.7028L16.6017 12.0859ZM17.1666 10.625L17.1452 9.74164L15.1457 9.79029L15.1672 10.6737L17.1666 10.625ZM17.1452 9.7418C17.1267 8.97683 16.4915 8.37172 15.7265 8.39034L15.7752 10.3897C15.4357 10.398 15.1539 10.1295 15.1457 9.79013L17.1452 9.7418ZM15.7509 9.39004C14.7535 9.46209 14.7509 9.39804 14.7524 9.33395C14.7539 9.31257 14.7608 9.24952 14.7675 9.20807C14.7828 9.12576 14.8073 9.0508 14.8369 8.9842C14.8952 8.85291 14.9712 8.75762 15.0324 8.69442C15.1468 8.57636 15.2624 8.51576 15.3111 8.49194C15.4144 8.44131 15.5028 8.42105 15.5242 8.41607C15.5853 8.40184 15.6344 8.3968 15.6438 8.39578C15.6755 8.39238 15.7004 8.3913 15.705 8.39109C15.7208 8.39036 15.7333 8.39019 15.7356 8.39016C15.7435 8.39003 15.7497 8.39004 15.7508 8.39004V10.39C15.7519 10.39 15.7582 10.39 15.7661 10.3899C15.7684 10.3899 15.7809 10.3897 15.7967 10.389C15.8013 10.3888 15.8262 10.3877 15.8579 10.3843C15.8673 10.3833 15.9164 10.3782 15.9775 10.364C15.9989 10.359 16.0873 10.3388 16.1906 10.2881C16.2393 10.2643 16.3549 10.2037 16.4693 10.0856C16.5305 10.0225 16.6065 9.92717 16.6648 9.79584C16.6944 9.72928 16.7189 9.65432 16.7342 9.57194C16.7409 9.53055 16.7478 9.46751 16.7493 9.44612C16.7508 9.38204 16.7483 9.31798 15.7509 9.39004ZM15.7218 8.39046L15.7077 8.39087L15.7658 10.39L15.7798 10.3896L15.7218 8.39046ZM16.7323 9.29634C16.5501 7.36874 15.5067 5.62669 13.8933 4.55626L12.7876 6.22282C13.8978 6.95942 14.6158 8.15816 14.7412 9.48456L16.7323 9.29634ZM14.3402 5.36525L14.2655 2.29428L12.2661 2.34288L12.3408 5.41384L14.3402 5.36525ZM14.2655 2.29314C14.2325 0.997574 13.1571 -0.0268699 11.8614 0.00312968L11.9077 2.00259C12.1009 1.99812 12.2612 2.15086 12.2661 2.34402L14.2655 2.29314ZM11.8602 0.00315817L8.39284 0.0875337L8.4415 2.08694L11.9089 2.00257L11.8602 0.00315817ZM8.75956 2.72209C8.68 2.80666 8.56977 2.85539 8.454 2.8575L8.41761 0.857827C7.99485 0.86552 7.5929 1.04342 7.30295 1.35158L8.75956 2.72209ZM8.46007 2.85737L11.9276 2.7732L11.8791 0.773784L8.41153 0.857956L8.46007 2.85737ZM11.9264 2.77322C11.6943 2.77858 11.5016 2.59508 11.4957 2.363L13.495 2.31177C13.4727 1.4416 12.7504 0.753688 11.8803 0.773755L11.9264 2.77322ZM11.4957 2.3623L11.5005 2.55506L13.4999 2.50524L13.4951 2.31247L11.4957 2.3623ZM12.4759 1.53044L7.85248 1.64265L7.90101 3.64206L12.5244 3.52986L12.4759 1.53044ZM8.87643 2.61745L8.87163 2.42468L6.87225 2.4745L6.87705 2.66726L8.87643 2.61745ZM8.87157 2.42227C8.87468 2.53611 8.8321 2.64645 8.7533 2.72868L7.30921 1.34499C7.01813 1.64877 6.86082 2.05642 6.87231 2.47691L8.87157 2.42227ZM12.5036 2.68603L7.88058 2.79854L7.92925 4.79795L12.5522 4.68544L12.5036 2.68603ZM8.90462 3.77394L8.89525 3.38871L6.89584 3.43733L6.90521 3.82256L8.90462 3.77394ZM7.91985 4.41272L12.5431 4.30031L12.4945 2.3009L7.87124 2.41331L7.91985 4.41272ZM11.5191 3.32413L11.5282 3.70925L13.5276 3.66221L13.5186 3.27709L11.5191 3.32413ZM12.5413 4.22722L7.91802 4.33959L7.96662 6.339L12.5899 6.22663L12.5413 4.22722ZM8.94202 5.31495L8.92325 4.54439L6.92384 4.59309L6.94261 5.36365L8.94202 5.31495ZM7.94785 5.56844L12.5714 5.45607L12.5228 3.45666L7.89925 3.56903L7.94785 5.56844ZM11.5474 4.48027L11.5659 5.25083L13.5653 5.20301L13.5469 4.43245L11.5474 4.48027ZM14.3968 10.6954C14.3914 10.5002 14.4646 10.3113 14.5992 10.1708L16.0433 11.5546C16.278 11.3096 16.4053 10.9806 16.396 10.6408L14.3968 10.6954ZM14.5992 10.1709C14.2229 10.5636 14.0194 11.0906 14.0341 11.6342L16.0333 11.5803C16.0331 11.5708 16.0367 11.5614 16.0433 11.5545L14.5992 10.1709ZM14.034 11.6304L14.0341 11.6377L16.0336 11.5916L16.0334 11.5842L14.034 11.6304ZM14.0342 11.6388C14.0831 13.6677 13.9318 15.6967 13.5827 17.696L15.5529 18.04C15.9246 15.9113 16.0856 13.7509 16.0336 11.5906L14.0342 11.6388ZM13.5828 17.6958L12.9142 21.5194L14.8843 21.8639L15.5529 18.0402L13.5828 17.6958ZM12.9146 21.5175C12.9494 21.3207 13.1179 21.1756 13.3175 21.1704L13.3702 23.1697C14.1204 23.1499 14.7532 22.605 14.884 21.8658L12.9146 21.5175ZM13.3195 21.1703L7.96378 21.3006L8.01242 23.3L13.3682 23.1697L13.3195 21.1703ZM7.96645 21.3006C8.16598 21.2962 8.3411 21.4329 8.38539 21.6275L6.43523 22.0712C6.60166 22.8028 7.25968 23.3163 8.00975 23.3001L7.96645 21.3006ZM8.38584 21.6295L7.53237 17.8429L5.58131 18.2826L6.43478 22.0693L8.38584 21.6295ZM7.5324 17.843C7.08647 15.8631 6.83678 13.8441 6.7869 11.8152L4.7875 11.8643C4.84062 14.0246 5.10646 16.1744 5.58128 18.2825L7.5324 17.843ZM6.78693 11.8166L6.78676 11.8093L4.78729 11.8554L4.78746 11.8628L6.78693 11.8166ZM6.78679 11.8108C6.77508 11.2669 6.54621 10.7504 6.1514 10.3764L4.77585 11.8282C4.78299 11.835 4.78705 11.8442 4.78726 11.8539L6.78679 11.8108ZM6.15164 10.3766C6.29268 10.5103 6.37482 10.6952 6.37896 10.8904L4.3794 10.9328C4.38661 11.2725 4.52958 11.5947 4.77561 11.828L6.15164 10.3766ZM6.37888 10.8872L6.36676 10.3891L4.36735 10.4378L4.37948 10.9359L6.37888 10.8872ZM5.39136 11.4132L15.4086 11.1697L15.36 9.17026L5.34275 9.41378L5.39136 11.4132ZM14.3846 10.1943L14.3967 10.6925L16.3961 10.6438L16.384 10.1456L14.3846 10.1943ZM14.9401 8.40944L11.4179 8.49511L11.4665 10.4945L14.9887 10.4089L14.9401 8.40944ZM11.4179 8.49511L5.72519 8.63348L5.77379 10.6329L11.4665 10.4945L11.4179 8.49511ZM6.74784 9.6906C6.8113 8.58708 7.37211 7.57204 8.27253 6.931L7.11259 5.30172C5.71799 6.29459 4.84942 7.8667 4.75114 9.57578L6.74784 9.6906ZM7.71687 7.11607L12.877 6.99061L12.8284 4.9912L7.66826 5.11666L7.71687 7.11607ZM12.3129 6.83276C13.2435 7.42932 13.853 8.41588 13.97 9.51504L15.9588 9.30326C15.7775 7.60093 14.8335 6.07297 13.3924 5.14906L12.3129 6.83276Z" fill="#774DFD" mask="url(#path-1-inside-1_5955_83113)"/>
<mask id="path-3-inside-2_5955_83113" fill="white">
<path d="M7.12506 7.49479C6.93107 7.89412 6.78678 8.31576 6.69538 8.75018C6.65161 8.95848 6.78497 9.16283 6.99327 9.2066C7.20157 9.25037 7.40592 9.11701 7.44969 8.90871C7.52807 8.53595 7.65183 8.17422 7.81827 7.83161C7.91129 7.64014 7.83152 7.40959 7.64008 7.31653C7.44864 7.22347 7.21803 7.30325 7.125 7.49472L7.12506 7.49479Z"/>
</mask>
<path d="M7.12506 7.49479L8.02454 7.93175L8.33571 7.29122L7.83217 6.78768L7.12506 7.49479ZM6.69538 8.75018L5.7168 8.5443L5.71676 8.54453L6.69538 8.75018ZM7.44969 8.90871L6.47109 8.70294L6.47107 8.70306L7.44969 8.90871ZM7.81827 7.83161L6.91881 7.3946L6.91878 7.39466L7.81827 7.83161ZM7.125 7.49472L6.22554 7.05771L5.91432 7.69826L6.41789 8.20183L7.125 7.49472ZM6.22559 7.05782C5.99587 7.5307 5.82501 8.02995 5.7168 8.5443L7.67396 8.95605C7.74854 8.60157 7.86628 8.25754 8.02454 7.93175L6.22559 7.05782ZM5.71676 8.54453C5.55942 9.29324 6.03877 10.0279 6.78762 10.1852L7.19892 8.22797C7.53117 8.29779 7.7438 8.62372 7.67401 8.95582L5.71676 8.54453ZM6.78762 10.1852C7.53633 10.3426 8.27096 9.86321 8.42832 9.11436L6.47107 8.70306C6.54089 8.37081 6.86681 8.15818 7.19892 8.22797L6.78762 10.1852ZM8.42829 9.11448C8.48987 8.82166 8.58706 8.53758 8.71775 8.26856L6.91878 7.39466C6.71659 7.81086 6.56628 8.25023 6.47109 8.70294L8.42829 9.11448ZM8.71772 8.26862C9.05212 7.58036 8.76525 6.7516 8.07728 6.41717L7.20288 8.21589C6.89779 8.06758 6.77047 7.69991 6.91881 7.3946L8.71772 8.26862ZM8.07728 6.41717C7.389 6.08258 6.55993 6.36946 6.22554 7.05771L8.02445 7.93173C7.87612 8.23703 7.50827 8.36435 7.20288 8.21589L8.07728 6.41717ZM6.41789 8.20183L6.41796 8.20189L7.83217 6.78768L7.8321 6.78761L6.41789 8.20183Z" fill="#774DFD" mask="url(#path-3-inside-2_5955_83113)"/>
<mask id="path-5-inside-3_5955_83113" fill="white">
<path d="M7.22676 15.3826C7.01624 15.4139 6.87089 15.6099 6.9022 15.8205C7.02013 16.6137 7.16929 17.4125 7.34561 18.1948C7.39241 18.4024 7.59867 18.5328 7.80632 18.486C8.01397 18.4392 8.14434 18.2329 8.09753 18.0253C7.92537 17.2616 7.77975 16.4816 7.66461 15.7071C7.63328 15.4966 7.43727 15.3514 7.22676 15.3826Z"/>
</mask>
<path d="M6.9022 15.8205L7.89132 15.6734L7.89132 15.6734L6.9022 15.8205ZM7.34561 18.1948L8.32113 17.9749L8.32113 17.9749L7.34561 18.1948ZM8.09753 18.0253L9.07306 17.8054L9.07305 17.8054L8.09753 18.0253ZM7.66461 15.7071L8.65374 15.5601L8.65371 15.5599L7.66461 15.7071ZM7.07983 14.3935C6.32306 14.5059 5.80052 15.2106 5.91307 15.9675L7.89132 15.6734C7.94126 16.0093 7.70942 16.3219 7.37369 16.3718L7.07983 14.3935ZM5.91307 15.9675C6.03463 16.7852 6.18833 17.6083 6.37008 18.4146L8.32113 17.9749C8.15026 17.2168 8.00563 16.4422 7.89132 15.6734L5.91307 15.9675ZM6.37008 18.4146C6.53833 19.1611 7.27985 19.6297 8.0262 19.4615L7.58644 17.5105C7.91749 17.4358 8.24649 17.6437 8.32113 17.9749L6.37008 18.4146ZM8.0262 19.4615C8.77269 19.2933 9.24128 18.5517 9.07306 17.8054L7.12201 18.2451C7.04739 17.9141 7.25525 17.5851 7.58644 17.5105L8.0262 19.4615ZM9.07305 17.8054C8.90634 17.0658 8.76525 16.3101 8.65374 15.5601L6.67549 15.8542C6.79425 16.653 6.94441 17.4573 7.12201 18.2452L9.07305 17.8054ZM8.65371 15.5599C8.54107 14.8032 7.8365 14.2811 7.07983 14.3935L7.37369 16.3718C7.03805 16.4216 6.72548 16.19 6.67551 15.8544L8.65371 15.5599Z" fill="#774DFD" mask="url(#path-5-inside-3_5955_83113)"/>
<mask id="path-7-inside-4_5955_83113" fill="white">
<path d="M7.02184 13.4574C6.80983 13.476 6.65304 13.6629 6.67157 13.8749C6.68294 14.0048 6.6951 14.1345 6.70805 14.2642C6.72917 14.476 6.91802 14.6306 7.12983 14.6094C7.34164 14.5882 7.49622 14.3994 7.47503 14.1876C7.46236 14.061 7.45051 13.9344 7.43943 13.8076C7.42087 13.5956 7.23393 13.4388 7.02184 13.4574Z"/>
</mask>
<path d="M7.02184 13.4574L6.93448 12.4612L6.93446 12.4612L7.02184 13.4574ZM6.67157 13.8749L5.67536 13.962L5.67538 13.9622L6.67157 13.8749ZM6.70805 14.2642L7.70311 14.165L7.7031 14.1648L6.70805 14.2642ZM7.47503 14.1876L8.47007 14.0881L8.47006 14.088L7.47503 14.1876ZM7.43943 13.8076L8.43564 13.7206L8.43562 13.7204L7.43943 13.8076ZM6.93446 12.4612C6.17235 12.5281 5.60876 13.2 5.67536 13.962L7.66777 13.7879C7.69731 14.1259 7.44731 14.4239 7.10923 14.4536L6.93446 12.4612ZM5.67538 13.9622C5.68711 14.0961 5.69965 14.2299 5.713 14.3635L7.7031 14.1648C7.69056 14.0392 7.67877 13.9135 7.66775 13.7877L5.67538 13.9622ZM5.71298 14.3634C5.7889 15.1248 6.4678 15.6806 7.22936 15.6044L7.03029 13.6144C7.36824 13.5805 7.66943 13.8272 7.70311 14.165L5.71298 14.3634ZM7.22936 15.6044C7.99022 15.5283 8.54627 14.8499 8.47007 14.0881L6.48 14.2871C6.44616 13.9489 6.69305 13.6481 7.03029 13.6144L7.22936 15.6044ZM8.47006 14.088C8.45781 13.9657 8.44635 13.8432 8.43564 13.7206L6.44323 13.8946C6.45466 14.0255 6.4669 14.1564 6.48 14.2872L8.47006 14.088ZM8.43562 13.7204C8.36886 12.958 7.69665 12.3944 6.93448 12.4612L7.10921 14.4536C6.7712 14.4832 6.47288 14.2332 6.44325 13.8949L8.43562 13.7204Z" fill="#774DFD" mask="url(#path-7-inside-4_5955_83113)"/>
<path d="M2.98669 9.54266C2.98669 9.54262 2.98669 9.54259 2.98669 9.54255L2.98669 9.54266ZM2.98669 9.54266L2.98671 9.54343M2.98669 9.54266C2.98669 9.54291 2.9867 9.54317 2.98671 9.54343M2.98671 9.54343L3.10125 9.54058L3.10135 9.54057L3.10212 9.54055L3.10226 9.54055L3.18145 9.61996L3.10274 9.54103L3.10261 9.54104L3.10136 9.54107L3.10126 9.54107L2.98672 9.54407L2.98671 9.54343Z" stroke="#774DFD"/>
<mask id="path-10-inside-5_5955_83113" fill="white">
<path d="M2.53992 6.96842C2.38561 6.82222 2.14215 6.82818 1.99517 6.98177C1.44143 7.55997 1.14197 8.33564 1.1636 9.13597L1.1652 9.20209C1.17038 9.41485 1.34707 9.58316 1.55987 9.57802C1.77263 9.57284 1.94094 9.39615 1.93579 9.18336L1.93419 9.11724C1.91805 8.52139 2.141 7.94384 2.55327 7.51337C2.70009 7.35927 2.69416 7.1153 2.54002 6.96852C2.53995 6.96845 2.53995 6.96845 2.53992 6.96842Z"/>
</mask>
<path d="M2.53992 6.96842L3.24702 6.26131L3.23749 6.25178L3.2277 6.2425L2.53992 6.96842ZM1.99517 6.98177L2.71739 7.67344L2.71765 7.67317L1.99517 6.98177ZM1.1636 9.13597L2.16331 9.11177L2.16324 9.10896L1.1636 9.13597ZM1.1652 9.20209L0.165495 9.22629L0.165498 9.22642L1.1652 9.20209ZM1.55987 9.57802L1.58403 10.5777L1.58419 10.5777L1.55987 9.57802ZM1.93579 9.18336L2.9355 9.15919L2.9355 9.15915L1.93579 9.18336ZM1.93419 9.11724L2.93391 9.09303L2.93383 9.09015L1.93419 9.11724ZM2.55327 7.51337L3.27547 8.20506L3.27729 8.20315L2.55327 7.51337ZM2.54002 6.96852L1.83291 7.67563L1.84156 7.68427L1.85041 7.6927L2.54002 6.96852ZM3.2277 6.2425C2.67386 5.71776 1.80015 5.73921 1.27269 6.29038L2.71765 7.67317C2.48416 7.91715 2.09736 7.92668 1.85214 7.69434L3.2277 6.2425ZM1.27295 6.29011C0.53449 7.06118 0.135119 8.09563 0.163966 9.16299L2.16324 9.10896C2.14882 8.57565 2.34836 8.05876 2.71739 7.67344L1.27295 6.29011ZM0.163894 9.16018L0.165495 9.22629L2.16491 9.17789L2.16331 9.11177L0.163894 9.16018ZM0.165498 9.22642C0.184112 9.99134 0.819274 10.5962 1.58403 10.5777L1.5357 8.57831C1.87486 8.57011 2.15665 8.83837 2.16491 9.17776L0.165498 9.22642ZM1.58419 10.5777C2.34911 10.5591 2.95399 9.92395 2.9355 9.15919L0.936087 9.20752C0.927889 8.86836 1.19615 8.58658 1.53554 8.57832L1.58419 10.5777ZM2.9355 9.15915L2.9339 9.09303L0.934487 9.14144L0.936088 9.20756L2.9355 9.15915ZM2.93383 9.09015C2.92492 8.76136 3.04795 8.44262 3.27547 8.20506L1.83107 6.82169C1.23404 7.44506 0.911178 8.28143 0.934561 9.14433L2.93383 9.09015ZM3.27729 8.20315C3.80509 7.64915 3.78382 6.77208 3.22963 6.24434L1.85041 7.6927C1.6045 7.45853 1.59508 7.06939 1.82925 6.8236L3.27729 8.20315ZM3.24713 6.26142C3.24713 6.26142 3.24713 6.26142 3.24713 6.26141C3.24713 6.26141 3.24713 6.26141 3.24713 6.26141C3.24713 6.26141 3.24713 6.26141 3.24713 6.26141C3.24713 6.26141 3.24713 6.26141 3.24713 6.26141C3.24713 6.26141 3.24713 6.26141 3.24713 6.26141C3.24712 6.26141 3.24712 6.26141 3.24712 6.26141C3.24712 6.26141 3.24712 6.26141 3.24712 6.26141C3.24712 6.26141 3.24712 6.26141 3.24712 6.26141C3.24712 6.26141 3.24712 6.26141 3.24712 6.26141C3.24712 6.26141 3.24712 6.26141 3.24712 6.26141C3.24712 6.26141 3.24712 6.26141 3.24712 6.26141C3.24712 6.26141 3.24712 6.26141 3.24712 6.26141C3.24712 6.26141 3.24712 6.26141 3.24712 6.26141C3.24712 6.26141 3.24712 6.26141 3.24712 6.26141C3.24712 6.26141 3.24712 6.26141 3.24712 6.26141C3.24712 6.26141 3.24712 6.26141 3.24712 6.26141C3.24712 6.26141 3.24712 6.26141 3.24712 6.26141C3.24712 6.26141 3.24712 6.26141 3.24712 6.26141C3.24712 6.26141 3.24712 6.26141 3.24712 6.26141C3.24712 6.26141 3.24712 6.26141 3.24712 6.26141C3.24712 6.26141 3.24712 6.26141 3.24712 6.26141C3.24712 6.26141 3.24712 6.26141 3.24712 6.26141C3.24712 6.26141 3.24712 6.26141 3.24712 6.26141C3.24712 6.26141 3.24712 6.26141 3.24712 6.26141C3.24712 6.26141 3.24712 6.26141 3.24712 6.26141C3.24712 6.26141 3.24712 6.26141 3.24712 6.26141C3.24712 6.26141 3.24712 6.26141 3.24712 6.26141C3.24712 6.2614 3.24712 6.2614 3.24712 6.2614C3.24712 6.2614 3.24712 6.2614 3.24712 6.2614C3.24712 6.2614 3.24712 6.2614 3.24712 6.2614C3.24712 6.2614 3.24712 6.2614 3.24712 6.2614C3.24712 6.2614 3.24712 6.2614 3.24711 6.2614C3.24711 6.2614 3.24711 6.2614 3.24711 6.2614C3.24711 6.2614 3.24711 6.2614 3.24711 6.2614C3.24711 6.2614 3.24711 6.2614 3.24711 6.2614C3.24711 6.2614 3.24711 6.2614 3.24711 6.2614C3.24711 6.2614 3.24711 6.2614 3.24711 6.2614C3.24711 6.2614 3.24711 6.2614 3.24711 6.2614C3.24711 6.2614 3.24711 6.2614 3.24711 6.2614C3.24711 6.2614 3.24711 6.2614 3.24711 6.2614C3.24711 6.2614 3.24711 6.2614 3.24711 6.2614C3.24711 6.2614 3.24711 6.2614 3.24711 6.2614C3.24711 6.2614 3.24711 6.2614 3.24711 6.2614C3.24711 6.2614 3.24711 6.2614 3.24711 6.2614C3.24711 6.2614 3.24711 6.2614 3.24711 6.2614C3.24711 6.2614 3.24711 6.2614 3.24711 6.2614C3.24711 6.2614 3.24711 6.2614 3.24711 6.2614C3.24711 6.2614 3.24711 6.2614 3.24711 6.2614C3.24711 6.2614 3.24711 6.2614 3.24711 6.2614C3.24711 6.2614 3.24711 6.2614 3.24711 6.2614C3.24711 6.2614 3.24711 6.2614 3.24711 6.2614C3.24711 6.2614 3.24711 6.2614 3.24711 6.2614C3.24711 6.2614 3.24711 6.2614 3.24711 6.2614C3.24711 6.2614 3.24711 6.2614 3.24711 6.2614C3.24711 6.2614 3.24711 6.2614 3.24711 6.2614C3.24711 6.2614 3.24711 6.2614 3.24711 6.2614C3.24711 6.2614 3.24711 6.2614 3.24711 6.26139C3.24711 6.26139 3.24711 6.26139 3.24711 6.26139C3.24711 6.26139 3.24711 6.26139 3.24711 6.26139C3.24711 6.26139 3.24711 6.26139 3.24711 6.26139C3.24711 6.26139 3.24711 6.26139 3.24711 6.26139C3.24711 6.26139 3.24711 6.26139 3.24711 6.26139C3.2471 6.26139 3.2471 6.26139 3.2471 6.26139C3.2471 6.26139 3.2471 6.26139 3.2471 6.26139C3.2471 6.26139 3.2471 6.26139 3.2471 6.26139C3.2471 6.26139 3.2471 6.26139 3.2471 6.26139C3.2471 6.26139 3.2471 6.26139 3.2471 6.26139C3.2471 6.26139 3.2471 6.26139 3.2471 6.26139C3.2471 6.26139 3.2471 6.26139 3.2471 6.26139C3.2471 6.26139 3.2471 6.26139 3.2471 6.26139C3.2471 6.26139 3.2471 6.26139 3.2471 6.26139C3.2471 6.26139 3.2471 6.26139 3.2471 6.26139C3.2471 6.26139 3.2471 6.26139 3.2471 6.26139C3.2471 6.26139 3.2471 6.26139 3.2471 6.26139C3.2471 6.26139 3.2471 6.26139 3.2471 6.26139C3.2471 6.26139 3.2471 6.26139 3.2471 6.26139C3.2471 6.26139 3.2471 6.26139 3.2471 6.26139C3.2471 6.26139 3.2471 6.26139 3.2471 6.26139C3.2471 6.26139 3.2471 6.26139 3.2471 6.26139C3.2471 6.26139 3.2471 6.26139 3.2471 6.26139C3.2471 6.26139 3.2471 6.26139 3.2471 6.26139C3.2471 6.26139 3.2471 6.26139 3.2471 6.26139C3.2471 6.26139 3.2471 6.26139 3.2471 6.26139C3.2471 6.26139 3.2471 6.26139 3.2471 6.26139C3.2471 6.26139 3.2471 6.26139 3.2471 6.26139C3.2471 6.26139 3.2471 6.26139 3.2471 6.26139C3.2471 6.26139 3.2471 6.26139 3.2471 6.26139C3.2471 6.26139 3.2471 6.26139 3.2471 6.26139C3.2471 6.26139 3.2471 6.26139 3.2471 6.26139C3.2471 6.26139 3.2471 6.26139 3.2471 6.26139C3.2471 6.26139 3.2471 6.26138 3.2471 6.26138C3.2471 6.26138 3.2471 6.26138 3.2471 6.26138C3.2471 6.26138 3.2471 6.26138 3.2471 6.26138C3.2471 6.26138 3.2471 6.26138 3.2471 6.26138C3.2471 6.26138 3.2471 6.26138 3.2471 6.26138C3.2471 6.26138 3.2471 6.26138 3.2471 6.26138C3.2471 6.26138 3.2471 6.26138 3.24709 6.26138C3.24709 6.26138 3.24709 6.26138 3.24709 6.26138C3.24709 6.26138 3.24709 6.26138 3.24709 6.26138C3.24709 6.26138 3.24709 6.26138 3.24709 6.26138C3.24709 6.26138 3.24709 6.26138 3.24709 6.26138C3.24709 6.26138 3.24709 6.26138 3.24709 6.26138C3.24709 6.26138 3.24709 6.26138 3.24709 6.26138C3.24709 6.26138 3.24709 6.26138 3.24709 6.26138C3.24709 6.26138 3.24709 6.26138 3.24709 6.26138C3.24709 6.26138 3.24709 6.26138 3.24709 6.26138C3.24709 6.26138 3.24709 6.26138 3.24709 6.26138C3.24709 6.26138 3.24709 6.26138 3.24709 6.26138C3.24709 6.26138 3.24709 6.26138 3.24709 6.26138C3.24709 6.26138 3.24709 6.26138 3.24709 6.26138C3.24709 6.26138 3.24709 6.26138 3.24709 6.26138C3.24709 6.26138 3.24709 6.26138 3.24709 6.26138C3.24709 6.26138 3.24709 6.26138 3.24709 6.26138C3.24709 6.26138 3.24709 6.26138 3.24709 6.26138C3.24709 6.26138 3.24709 6.26138 3.24709 6.26138C3.24709 6.26138 3.24709 6.26138 3.24709 6.26138C3.24709 6.26138 3.24709 6.26138 3.24709 6.26138C3.24709 6.26138 3.24709 6.26138 3.24709 6.26138C3.24709 6.26138 3.24709 6.26138 3.24709 6.26138C3.24709 6.26138 3.24709 6.26138 3.24709 6.26138C3.24709 6.26138 3.24709 6.26138 3.24709 6.26138C3.24709 6.26138 3.24709 6.26138 3.24709 6.26138C3.24709 6.26138 3.24709 6.26138 3.24709 6.26138C3.24709 6.26138 3.24709 6.26138 3.24709 6.26138C3.24709 6.26138 3.24709 6.26138 3.24709 6.26138C3.24709 6.26138 3.24709 6.26138 3.24709 6.26138C3.24709 6.26138 3.24709 6.26138 3.24709 6.26138C3.24709 6.26138 3.24709 6.26138 3.24709 6.26138C3.24709 6.26138 3.24709 6.26138 3.24709 6.26138C3.24709 6.26138 3.24709 6.26138 3.24709 6.26137C3.24709 6.26137 3.24709 6.26137 3.24709 6.26137C3.24709 6.26137 3.24709 6.26137 3.24709 6.26137C3.24709 6.26137 3.24709 6.26137 3.24709 6.26137C3.24709 6.26137 3.24709 6.26137 3.24709 6.26137C3.24709 6.26137 3.24709 6.26137 3.24709 6.26137C3.24709 6.26137 3.24709 6.26137 3.24709 6.26137C3.24709 6.26137 3.24709 6.26137 3.24708 6.26137C3.24708 6.26137 3.24708 6.26137 3.24708 6.26137C3.24708 6.26137 3.24708 6.26137 3.24708 6.26137C3.24708 6.26137 3.24708 6.26137 3.24708 6.26137C3.24708 6.26137 3.24708 6.26137 3.24708 6.26137C3.24708 6.26137 3.24708 6.26137 3.24708 6.26137C3.24708 6.26137 3.24708 6.26137 3.24708 6.26137C3.24708 6.26137 3.24708 6.26137 3.24708 6.26137C3.24708 6.26137 3.24708 6.26137 3.24708 6.26137C3.24708 6.26137 3.24708 6.26137 3.24708 6.26137C3.24708 6.26137 3.24708 6.26137 3.24708 6.26137C3.24708 6.26137 3.24708 6.26137 3.24708 6.26137C3.24708 6.26137 3.24708 6.26137 3.24708 6.26137C3.24708 6.26137 3.24708 6.26137 3.24708 6.26137C3.24708 6.26137 3.24708 6.26137 3.24708 6.26137C3.24708 6.26137 3.24708 6.26137 3.24708 6.26137C3.24708 6.26137 3.24708 6.26137 3.24708 6.26137C3.24708 6.26137 3.24708 6.26137 3.24708 6.26137C3.24708 6.26137 3.24708 6.26137 3.24708 6.26137C3.24708 6.26137 3.24708 6.26137 3.24708 6.26137C3.24708 6.26137 3.24708 6.26137 3.24708 6.26137C3.24708 6.26137 3.24708 6.26137 3.24708 6.26137C3.24708 6.26137 3.24708 6.26137 3.24708 6.26137C3.24708 6.26137 3.24708 6.26137 3.24708 6.26137C3.24708 6.26137 3.24708 6.26137 3.24708 6.26137C3.24708 6.26137 3.24708 6.26137 3.24708 6.26137C3.24708 6.26137 3.24708 6.26137 3.24708 6.26137C3.24708 6.26137 3.24708 6.26137 3.24708 6.26137C3.24708 6.26137 3.24708 6.26137 3.24708 6.26137C3.24708 6.26137 3.24708 6.26137 3.24708 6.26137C3.24708 6.26137 3.24708 6.26137 3.24708 6.26137C3.24708 6.26137 3.24708 6.26137 3.24708 6.26137C3.24708 6.26137 3.24708 6.26137 3.24708 6.26137C3.24708 6.26137 3.24708 6.26137 3.24708 6.26137C3.24708 6.26137 3.24708 6.26137 3.24708 6.26137C3.24708 6.26137 3.24708 6.26137 3.24708 6.26137C3.24708 6.26137 3.24708 6.26137 3.24708 6.26137C3.24708 6.26137 3.24708 6.26137 3.24708 6.26137C3.24708 6.26137 3.24708 6.26137 3.24708 6.26137C3.24708 6.26137 3.24708 6.26137 3.24708 6.26137C3.24708 6.26136 3.24708 6.26136 3.24708 6.26136C3.24708 6.26136 3.24708 6.26136 3.24708 6.26136C3.24708 6.26136 3.24708 6.26136 3.24708 6.26136C3.24708 6.26136 3.24708 6.26136 3.24708 6.26136C3.24708 6.26136 3.24708 6.26136 3.24708 6.26136C3.24708 6.26136 3.24708 6.26136 3.24708 6.26136C3.24708 6.26136 3.24708 6.26136 3.24708 6.26136C3.24708 6.26136 3.24708 6.26136 3.24708 6.26136C3.24708 6.26136 3.24708 6.26136 3.24708 6.26136C3.24707 6.26136 3.24707 6.26136 3.24707 6.26136C3.24707 6.26136 3.24707 6.26136 3.24707 6.26136C3.24707 6.26136 3.24707 6.26136 3.24707 6.26136C3.24707 6.26136 3.24707 6.26136 3.24707 6.26136C3.24707 6.26136 3.24707 6.26136 3.24707 6.26136C3.24707 6.26136 3.24707 6.26136 3.24707 6.26136C3.24707 6.26136 3.24707 6.26136 3.24707 6.26136C3.24707 6.26136 3.24707 6.26136 3.24707 6.26136C3.24707 6.26136 3.24707 6.26136 3.24707 6.26136C3.24707 6.26136 3.24707 6.26136 3.24707 6.26136C3.24707 6.26136 3.24707 6.26136 3.24707 6.26136C3.24707 6.26136 3.24707 6.26136 3.24707 6.26136C3.24707 6.26136 3.24707 6.26136 3.24707 6.26136C3.24707 6.26136 3.24707 6.26136 3.24707 6.26136C3.24707 6.26136 3.24707 6.26136 3.24707 6.26136C3.24707 6.26136 3.24707 6.26136 3.24707 6.26136C3.24707 6.26136 3.24707 6.26136 3.24707 6.26136C3.24707 6.26136 3.24707 6.26136 3.24707 6.26136C3.24707 6.26136 3.24707 6.26136 3.24707 6.26136C3.24707 6.26136 3.24707 6.26136 3.24707 6.26136C3.24707 6.26136 3.24707 6.26136 3.24707 6.26136C3.24707 6.26136 3.24707 6.26136 3.24707 6.26136C3.24707 6.26136 3.24707 6.26136 3.24707 6.26136C3.24707 6.26136 3.24707 6.26136 3.24707 6.26136C3.24707 6.26136 3.24707 6.26136 3.24707 6.26136C3.24707 6.26136 3.24707 6.26136 3.24707 6.26136C3.24707 6.26136 3.24707 6.26136 3.24707 6.26136C3.24707 6.26136 3.24707 6.26136 3.24707 6.26136C3.24707 6.26136 3.24707 6.26136 3.24707 6.26136C3.24707 6.26136 3.24707 6.26136 3.24707 6.26136C3.24707 6.26136 3.24707 6.26136 3.24707 6.26136C3.24707 6.26136 3.24707 6.26136 3.24707 6.26136C3.24707 6.26136 3.24707 6.26136 3.24707 6.26136C3.24707 6.26136 3.24707 6.26136 3.24707 6.26136C3.24707 6.26136 3.24707 6.26136 3.24707 6.26136C3.24707 6.26136 3.24707 6.26136 3.24707 6.26136C3.24707 6.26136 3.24707 6.26136 3.24707 6.26136C3.24707 6.26136 3.24707 6.26136 3.24707 6.26136C3.24707 6.26136 3.24707 6.26136 3.24707 6.26136C3.24707 6.26136 3.24707 6.26136 3.24707 6.26136C3.24707 6.26136 3.24707 6.26136 3.24707 6.26136C3.24707 6.26136 3.24707 6.26136 3.24707 6.26136C3.24707 6.26136 3.24707 6.26136 3.24707 6.26136C3.24707 6.26136 3.24707 6.26136 3.24707 6.26136C3.24707 6.26136 3.24707 6.26136 3.24707 6.26136C3.24707 6.26136 3.24707 6.26136 3.24707 6.26136C3.24707 6.26136 3.24707 6.26136 3.24707 6.26136C3.24707 6.26136 3.24707 6.26136 3.24707 6.26136C3.24707 6.26135 3.24707 6.26135 3.24707 6.26135C3.24707 6.26135 3.24707 6.26135 3.24707 6.26135C3.24707 6.26135 3.24707 6.26135 3.24707 6.26135C3.24707 6.26135 3.24707 6.26135 3.24707 6.26135C3.24707 6.26135 3.24707 6.26135 3.24707 6.26135C3.24707 6.26135 3.24707 6.26135 3.24707 6.26135C3.24707 6.26135 3.24707 6.26135 3.24707 6.26135C3.24707 6.26135 3.24707 6.26135 3.24707 6.26135C3.24707 6.26135 3.24707 6.26135 3.24707 6.26135C3.24707 6.26135 3.24707 6.26135 3.24707 6.26135C3.24707 6.26135 3.24707 6.26135 3.24706 6.26135C3.24706 6.26135 3.24706 6.26135 3.24706 6.26135C3.24706 6.26135 3.24706 6.26135 3.24706 6.26135C3.24706 6.26135 3.24706 6.26135 3.24706 6.26135C3.24706 6.26135 3.24706 6.26135 3.24706 6.26135C3.24706 6.26135 3.24706 6.26135 3.24706 6.26135C3.24706 6.26135 3.24706 6.26135 3.24706 6.26135C3.24706 6.26135 3.24706 6.26135 3.24706 6.26135C3.24706 6.26135 3.24706 6.26135 3.24706 6.26135C3.24706 6.26135 3.24706 6.26135 3.24706 6.26135C3.24706 6.26135 3.24706 6.26135 3.24706 6.26135C3.24706 6.26135 3.24706 6.26135 3.24706 6.26135C3.24706 6.26135 3.24706 6.26135 3.24706 6.26135C3.24706 6.26135 3.24706 6.26135 3.24706 6.26135C3.24706 6.26135 3.24706 6.26135 3.24706 6.26135C3.24706 6.26135 3.24706 6.26135 3.24706 6.26135C3.24706 6.26135 3.24706 6.26135 3.24706 6.26135C3.24706 6.26135 3.24706 6.26135 3.24706 6.26135C3.24706 6.26135 3.24706 6.26135 3.24706 6.26135C3.24706 6.26135 3.24706 6.26135 3.24706 6.26135C3.24706 6.26135 3.24706 6.26135 3.24706 6.26135C3.24706 6.26135 3.24706 6.26135 3.24706 6.26135C3.24706 6.26135 3.24706 6.26135 3.24706 6.26135C3.24706 6.26135 3.24706 6.26135 3.24706 6.26135C3.24706 6.26135 3.24706 6.26135 3.24706 6.26135C3.24706 6.26135 3.24706 6.26135 3.24706 6.26135C3.24706 6.26135 3.24706 6.26135 3.24706 6.26135C3.24706 6.26135 3.24706 6.26135 3.24706 6.26135C3.24706 6.26135 3.24706 6.26135 3.24706 6.26135C3.24706 6.26135 3.24706 6.26135 3.24706 6.26135C3.24706 6.26135 3.24706 6.26135 3.24706 6.26135C3.24706 6.26135 3.24706 6.26135 3.24706 6.26135C3.24706 6.26135 3.24706 6.26135 3.24706 6.26135C3.24706 6.26135 3.24706 6.26135 3.24706 6.26135C3.24706 6.26135 3.24706 6.26135 3.24706 6.26135C3.24706 6.26135 3.24706 6.26135 3.24706 6.26135C3.24706 6.26135 3.24706 6.26135 3.24706 6.26135C3.24706 6.26135 3.24706 6.26135 3.24706 6.26135C3.24706 6.26135 3.24706 6.26135 3.24706 6.26135C3.24706 6.26135 3.24706 6.26135 3.24706 6.26135C3.24706 6.26135 3.24706 6.26135 3.24706 6.26135C3.24706 6.26135 3.24706 6.26135 3.24706 6.26135C3.24706 6.26135 3.24706 6.26135 3.24706 6.26135C3.24706 6.26135 3.24706 6.26135 3.24706 6.26135C3.24706 6.26135 3.24706 6.26135 3.24706 6.26135C3.24706 6.26135 3.24706 6.26135 3.24706 6.26135C3.24706 6.26135 3.24706 6.26135 3.24706 6.26135C3.24706 6.26135 3.24706 6.26135 3.24706 6.26135C3.24706 6.26135 3.24706 6.26135 3.24706 6.26135C3.24706 6.26135 3.24706 6.26135 3.24706 6.26135C3.24706 6.26135 3.24706 6.26135 3.24706 6.26135C3.24706 6.26135 3.24706 6.26135 3.24706 6.26135C3.24706 6.26135 3.24706 6.26135 3.24706 6.26135C3.24706 6.26135 3.24706 6.26135 3.24706 6.26135C3.24706 6.26135 3.24706 6.26135 3.24706 6.26135C3.24706 6.26135 3.24706 6.26135 3.24706 6.26135C3.24706 6.26135 3.24706 6.26135 3.24706 6.26135C3.24706 6.26135 3.24706 6.26135 3.24706 6.26135C3.24706 6.26134 3.24706 6.26134 3.24706 6.26134C3.24706 6.26134 3.24706 6.26134 3.24706 6.26134C3.24706 6.26134 3.24706 6.26134 3.24706 6.26134C3.24706 6.26134 3.24706 6.26134 3.24706 6.26134C3.24706 6.26134 3.24706 6.26134 3.24706 6.26134C3.24706 6.26134 3.24706 6.26134 3.24706 6.26134C3.24706 6.26134 3.24706 6.26134 3.24706 6.26134C3.24706 6.26134 3.24706 6.26134 3.24706 6.26134C3.24706 6.26134 3.24706 6.26134 3.24706 6.26134C3.24706 6.26134 3.24706 6.26134 3.24706 6.26134C3.24706 6.26134 3.24706 6.26134 3.24706 6.26134C3.24706 6.26134 3.24706 6.26134 3.24706 6.26134C3.24706 6.26134 3.24705 6.26134 3.24705 6.26134C3.24705 6.26134 3.24705 6.26134 3.24705 6.26134C3.24705 6.26134 3.24705 6.26134 3.24705 6.26134C3.24705 6.26134 3.24705 6.26134 3.24705 6.26134C3.24705 6.26134 3.24705 6.26134 3.24705 6.26134C3.24705 6.26134 3.24705 6.26134 3.24705 6.26134C3.24705 6.26134 3.24705 6.26134 3.24705 6.26134C3.24705 6.26134 3.24705 6.26134 3.24705 6.26134C3.24705 6.26134 3.24705 6.26134 3.24705 6.26134C3.24705 6.26134 3.24705 6.26134 3.24705 6.26134C3.24705 6.26134 3.24705 6.26134 3.24705 6.26134C3.24705 6.26134 3.24705 6.26134 3.24705 6.26134C3.24705 6.26134 3.24705 6.26134 3.24705 6.26134C3.24705 6.26134 3.24705 6.26134 3.24705 6.26134C3.24705 6.26134 3.24705 6.26134 3.24705 6.26134C3.24705 6.26134 3.24705 6.26134 3.24705 6.26134C3.24705 6.26134 3.24705 6.26134 3.24705 6.26134C3.24705 6.26134 3.24705 6.26134 3.24705 6.26134C3.24705 6.26134 3.24705 6.26134 3.24705 6.26134C3.24705 6.26134 3.24705 6.26134 3.24705 6.26134C3.24705 6.26134 3.24705 6.26134 3.24705 6.26134C3.24705 6.26134 3.24705 6.26134 3.24705 6.26134C3.24705 6.26134 3.24705 6.26134 3.24705 6.26134C3.24705 6.26134 3.24705 6.26134 3.24705 6.26134C3.24705 6.26134 3.24705 6.26134 3.24705 6.26134C3.24705 6.26134 3.24705 6.26134 3.24705 6.26134C3.24705 6.26134 3.24705 6.26134 3.24705 6.26134C3.24705 6.26134 3.24705 6.26134 3.24705 6.26134C3.24705 6.26134 3.24705 6.26134 3.24705 6.26134C3.24705 6.26134 3.24705 6.26134 3.24705 6.26134C3.24705 6.26134 3.24705 6.26134 3.24705 6.26134C3.24705 6.26134 3.24705 6.26134 3.24705 6.26134C3.24705 6.26134 3.24705 6.26134 3.24705 6.26134C3.24705 6.26134 3.24705 6.26134 3.24705 6.26134C3.24705 6.26134 3.24705 6.26134 3.24705 6.26134C3.24705 6.26134 3.24705 6.26134 3.24705 6.26134C3.24705 6.26134 3.24705 6.26134 3.24705 6.26134C3.24705 6.26134 3.24705 6.26134 3.24705 6.26134C3.24705 6.26134 3.24705 6.26134 3.24705 6.26134C3.24705 6.26134 3.24705 6.26134 3.24705 6.26134C3.24705 6.26134 3.24705 6.26134 3.24705 6.26134C3.24705 6.26134 3.24705 6.26134 3.24705 6.26134C3.24705 6.26134 3.24705 6.26134 3.24705 6.26134C3.24705 6.26134 3.24705 6.26134 3.24705 6.26134C3.24705 6.26134 3.24705 6.26134 3.24705 6.26134C3.24705 6.26134 3.24705 6.26134 3.24705 6.26134C3.24705 6.26134 3.24705 6.26134 3.24705 6.26134C3.24705 6.26134 3.24705 6.26134 3.24705 6.26134C3.24705 6.26134 3.24705 6.26134 3.24705 6.26134C3.24705 6.26134 3.24705 6.26134 3.24705 6.26134C3.24705 6.26134 3.24705 6.26134 3.24705 6.26134C3.24705 6.26134 3.24705 6.26134 3.24705 6.26134C3.24705 6.26134 3.24705 6.26134 3.24705 6.26134C3.24705 6.26134 3.24705 6.26134 3.24705 6.26134C3.24705 6.26134 3.24705 6.26134 3.24705 6.26134C3.24705 6.26134 3.24705 6.26134 3.24705 6.26134C3.24705 6.26134 3.24705 6.26134 3.24705 6.26134C3.24705 6.26134 3.24705 6.26134 3.24705 6.26134C3.24705 6.26134 3.24705 6.26134 3.24705 6.26134C3.24705 6.26134 3.24705 6.26134 3.24705 6.26134C3.24705 6.26134 3.24705 6.26134 3.24705 6.26134C3.24705 6.26134 3.24705 6.26134 3.24705 6.26134C3.24705 6.26134 3.24705 6.26134 3.24705 6.26133C3.24705 6.26133 3.24705 6.26133 3.24705 6.26133C3.24705 6.26133 3.24705 6.26133 3.24705 6.26133C3.24705 6.26133 3.24705 6.26133 3.24705 6.26133C3.24705 6.26133 3.24705 6.26133 3.24705 6.26133C3.24705 6.26133 3.24705 6.26133 3.24705 6.26133C3.24705 6.26133 3.24705 6.26133 3.24705 6.26133C3.24705 6.26133 3.24705 6.26133 3.24705 6.26133C3.24705 6.26133 3.24705 6.26133 3.24705 6.26133C3.24705 6.26133 3.24705 6.26133 3.24705 6.26133C3.24705 6.26133 3.24705 6.26133 3.24705 6.26133C3.24705 6.26133 3.24705 6.26133 3.24705 6.26133C3.24705 6.26133 3.24705 6.26133 3.24705 6.26133C3.24704 6.26133 3.24704 6.26133 3.24704 6.26133C3.24704 6.26133 3.24704 6.26133 3.24704 6.26133C3.24704 6.26133 3.24704 6.26133 3.24704 6.26133C3.24704 6.26133 3.24704 6.26133 3.24704 6.26133C3.24704 6.26133 3.24704 6.26133 3.24704 6.26133C3.24704 6.26133 3.24704 6.26133 3.24704 6.26133C3.24704 6.26133 3.24704 6.26133 3.24704 6.26133C3.24704 6.26133 3.24704 6.26133 3.24704 6.26133C3.24704 6.26133 3.24704 6.26133 3.24704 6.26133C3.24704 6.26133 3.24704 6.26133 3.24704 6.26133C3.24704 6.26133 3.24704 6.26133 3.24704 6.26133C3.24704 6.26133 3.24704 6.26133 3.24704 6.26133C3.24704 6.26133 3.24704 6.26133 3.24704 6.26133C3.24704 6.26133 3.24704 6.26133 3.24704 6.26133C3.24704 6.26133 3.24704 6.26133 3.24704 6.26133C3.24704 6.26133 3.24704 6.26133 3.24704 6.26133C3.24704 6.26133 3.24704 6.26133 3.24704 6.26133C3.24704 6.26133 3.24704 6.26133 3.24704 6.26133C3.24704 6.26133 3.24704 6.26133 3.24704 6.26133C3.24704 6.26133 3.24704 6.26133 3.24704 6.26133C3.24704 6.26133 3.24704 6.26133 3.24704 6.26133C3.24704 6.26133 3.24704 6.26133 3.24704 6.26133C3.24704 6.26133 3.24704 6.26133 3.24704 6.26133C3.24704 6.26133 3.24704 6.26133 3.24704 6.26133C3.24704 6.26133 3.24704 6.26133 3.24704 6.26133C3.24704 6.26133 3.24704 6.26133 3.24704 6.26133C3.24704 6.26133 3.24704 6.26133 3.24704 6.26133C3.24704 6.26133 3.24704 6.26133 3.24704 6.26133C3.24704 6.26133 3.24704 6.26133 3.24704 6.26133C3.24704 6.26133 3.24704 6.26133 3.24704 6.26133C3.24704 6.26133 3.24704 6.26133 3.24704 6.26133C3.24704 6.26133 3.24704 6.26133 3.24704 6.26133C3.24704 6.26133 3.24704 6.26133 3.24704 6.26133C3.24704 6.26133 3.24704 6.26133 3.24704 6.26133C3.24704 6.26133 3.24704 6.26133 3.24704 6.26133C3.24704 6.26133 3.24704 6.26133 3.24704 6.26133C3.24704 6.26133 3.24704 6.26133 3.24704 6.26133C3.24704 6.26133 3.24704 6.26133 3.24704 6.26133C3.24704 6.26133 3.24704 6.26133 3.24704 6.26133C3.24704 6.26133 3.24704 6.26133 3.24704 6.26133C3.24704 6.26133 3.24704 6.26133 3.24704 6.26133C3.24704 6.26133 3.24704 6.26133 3.24704 6.26133C3.24704 6.26133 3.24704 6.26133 3.24704 6.26133C3.24704 6.26133 3.24704 6.26133 3.24704 6.26133C3.24704 6.26133 3.24704 6.26133 3.24704 6.26133C3.24704 6.26133 3.24704 6.26133 3.24704 6.26133C3.24704 6.26133 3.24704 6.26133 3.24704 6.26133C3.24704 6.26133 3.24704 6.26133 3.24704 6.26133C3.24704 6.26133 3.24704 6.26133 3.24704 6.26133C3.24704 6.26133 3.24704 6.26133 3.24704 6.26133C3.24704 6.26133 3.24704 6.26133 3.24704 6.26133C3.24704 6.26133 3.24704 6.26133 3.24704 6.26133C3.24704 6.26133 3.24704 6.26133 3.24704 6.26133C3.24704 6.26133 3.24704 6.26133 3.24704 6.26133C3.24704 6.26133 3.24704 6.26133 3.24704 6.26133C3.24704 6.26133 3.24704 6.26133 3.24704 6.26133C3.24704 6.26133 3.24704 6.26133 3.24704 6.26132C3.24704 6.26132 3.24704 6.26132 3.24704 6.26132C3.24704 6.26132 3.24704 6.26132 3.24704 6.26132C3.24704 6.26132 3.24704 6.26132 3.24704 6.26132C3.24704 6.26132 3.24704 6.26132 3.24704 6.26132C3.24704 6.26132 3.24704 6.26132 3.24704 6.26132C3.24704 6.26132 3.24704 6.26132 3.24704 6.26132C3.24704 6.26132 3.24704 6.26132 3.24704 6.26132C3.24704 6.26132 3.24704 6.26132 3.24704 6.26132C3.24704 6.26132 3.24704 6.26132 3.24704 6.26132C3.24704 6.26132 3.24704 6.26132 3.24704 6.26132C3.24704 6.26132 3.24703 6.26132 3.24703 6.26132C3.24703 6.26132 3.24703 6.26132 3.24703 6.26132C3.24703 6.26132 3.24703 6.26132 3.24703 6.26132C3.24703 6.26132 3.24703 6.26132 3.24703 6.26132C3.24703 6.26132 3.24703 6.26132 3.24703 6.26132C3.24703 6.26132 3.24703 6.26132 3.24703 6.26132C3.24703 6.26132 3.24703 6.26132 3.24703 6.26132C3.24703 6.26132 3.24703 6.26132 3.24703 6.26132C3.24703 6.26132 3.24703 6.26132 3.24703 6.26132C3.24703 6.26132 3.24703 6.26132 3.24703 6.26132C3.24703 6.26132 3.24703 6.26132 3.24703 6.26132C3.24703 6.26132 3.24703 6.26132 3.24703 6.26132C3.24703 6.26132 3.24703 6.26132 3.24703 6.26132C3.24703 6.26132 3.24703 6.26132 3.24703 6.26132C3.24703 6.26132 3.24703 6.26132 3.24703 6.26132C3.24703 6.26132 3.24703 6.26132 3.24703 6.26132C3.24703 6.26132 3.24703 6.26132 3.24703 6.26132C3.24703 6.26132 3.24703 6.26132 3.24703 6.26132C3.24703 6.26132 3.24703 6.26132 3.24703 6.26132C3.24703 6.26132 3.24703 6.26132 3.24703 6.26132C3.24703 6.26132 3.24703 6.26132 3.24703 6.26132C3.24703 6.26132 3.24703 6.26132 3.24703 6.26132C3.24703 6.26132 3.24703 6.26132 3.24703 6.26132C3.24703 6.26132 3.24703 6.26132 3.24703 6.26132C3.24703 6.26132 3.24703 6.26132 3.24703 6.26132C3.24703 6.26132 3.24703 6.26132 3.24703 6.26132C3.24703 6.26132 3.24703 6.26132 3.24703 6.26132C3.24703 6.26132 3.24703 6.26132 3.24703 6.26132C3.24703 6.26132 3.24703 6.26132 3.24703 6.26132C3.24703 6.26132 3.24703 6.26132 3.24703 6.26132C3.24703 6.26132 3.24703 6.26132 3.24703 6.26132C3.24703 6.26132 3.24703 6.26132 3.24703 6.26132C3.24703 6.26132 3.24703 6.26132 3.24703 6.26132C3.24703 6.26132 3.24703 6.26132 3.24703 6.26132C3.24703 6.26132 3.24703 6.26132 3.24703 6.26132C3.24703 6.26132 3.24703 6.26132 3.24703 6.26132C3.24703 6.26132 3.24703 6.26132 3.24703 6.26132C3.24703 6.26132 3.24703 6.26132 3.24703 6.26132C3.24703 6.26132 3.24703 6.26132 3.24703 6.26132C3.24703 6.26132 3.24703 6.26132 3.24703 6.26132C3.24703 6.26132 3.24703 6.26132 3.24703 6.26132C3.24703 6.26132 3.24703 6.26132 3.24703 6.26132C3.24703 6.26132 3.24703 6.26132 3.24703 6.26132C3.24703 6.26132 3.24703 6.26132 3.24703 6.26132C3.24703 6.26132 3.24703 6.26132 3.24703 6.26132C3.24703 6.26132 3.24703 6.26132 3.24703 6.26132C3.24703 6.26132 3.24703 6.26132 3.24703 6.26132C3.24703 6.26132 3.24703 6.26131 3.24703 6.26131C3.24703 6.26131 3.24703 6.26131 3.24703 6.26131C3.24703 6.26131 3.24703 6.26131 3.24703 6.26131C3.24703 6.26131 3.24703 6.26131 3.24703 6.26131C3.24703 6.26131 3.24703 6.26131 3.24703 6.26131C3.24703 6.26131 3.24703 6.26131 3.24703 6.26131C3.24703 6.26131 3.24703 6.26131 3.24703 6.26131C3.24703 6.26131 3.24703 6.26131 3.24703 6.26131C3.24703 6.26131 3.24703 6.26131 3.24703 6.26131C3.24702 6.26131 3.24702 6.26131 3.24702 6.26131L1.83281 7.67553C1.83281 7.67553 1.83281 7.67553 1.83281 7.67553C1.83281 7.67553 1.83281 7.67553 1.83281 7.67553C1.83281 7.67553 1.83281 7.67553 1.83281 7.67553C1.83281 7.67553 1.83281 7.67553 1.83281 7.67553C1.83281 7.67553 1.83281 7.67553 1.83281 7.67553C1.83281 7.67553 1.83281 7.67553 1.83281 7.67553C1.83281 7.67553 1.83281 7.67553 1.83281 7.67553C1.83281 7.67553 1.83281 7.67553 1.83281 7.67553C1.83281 7.67553 1.83281 7.67553 1.83281 7.67553C1.83281 7.67553 1.83281 7.67553 1.83281 7.67553C1.83281 7.67553 1.83281 7.67553 1.83281 7.67553C1.83281 7.67553 1.83281 7.67553 1.83281 7.67553C1.83281 7.67553 1.83281 7.67553 1.83281 7.67553C1.83281 7.67553 1.83281 7.67553 1.83281 7.67553C1.83281 7.67553 1.83281 7.67553 1.83281 7.67553C1.83281 7.67553 1.83281 7.67553 1.83281 7.67553C1.83281 7.67553 1.83281 7.67553 1.83281 7.67553C1.83281 7.67553 1.83281 7.67553 1.83281 7.67553C1.83281 7.67553 1.83281 7.67553 1.83282 7.67553C1.83282 7.67553 1.83282 7.67553 1.83282 7.67553C1.83282 7.67553 1.83282 7.67553 1.83282 7.67553C1.83282 7.67553 1.83282 7.67553 1.83282 7.67553C1.83282 7.67553 1.83282 7.67553 1.83282 7.67553C1.83282 7.67553 1.83282 7.67553 1.83282 7.67553C1.83282 7.67553 1.83282 7.67553 1.83282 7.67553C1.83282 7.67553 1.83282 7.67553 1.83282 7.67553C1.83282 7.67553 1.83282 7.67553 1.83282 7.67553C1.83282 7.67553 1.83282 7.67553 1.83282 7.67553C1.83282 7.67553 1.83282 7.67553 1.83282 7.67553C1.83282 7.67553 1.83282 7.67553 1.83282 7.67553C1.83282 7.67553 1.83282 7.67553 1.83282 7.67553C1.83282 7.67553 1.83282 7.67553 1.83282 7.67553C1.83282 7.67553 1.83282 7.67553 1.83282 7.67553C1.83282 7.67553 1.83282 7.67553 1.83282 7.67553C1.83282 7.67553 1.83282 7.67553 1.83282 7.67553C1.83282 7.67553 1.83282 7.67553 1.83282 7.67553C1.83282 7.67553 1.83282 7.67553 1.83282 7.67553C1.83282 7.67553 1.83282 7.67553 1.83282 7.67553C1.83282 7.67553 1.83282 7.67553 1.83282 7.67553C1.83282 7.67553 1.83282 7.67553 1.83282 7.67553C1.83282 7.67553 1.83282 7.67553 1.83282 7.67553C1.83282 7.67553 1.83282 7.67553 1.83282 7.67553C1.83282 7.67553 1.83282 7.67553 1.83282 7.67553C1.83282 7.67553 1.83282 7.67553 1.83282 7.67553C1.83282 7.67553 1.83282 7.67553 1.83282 7.67553C1.83282 7.67553 1.83282 7.67553 1.83282 7.67554C1.83282 7.67554 1.83282 7.67554 1.83282 7.67554C1.83282 7.67554 1.83282 7.67554 1.83282 7.67554C1.83282 7.67554 1.83282 7.67554 1.83282 7.67554C1.83282 7.67554 1.83282 7.67554 1.83282 7.67554C1.83282 7.67554 1.83282 7.67554 1.83282 7.67554C1.83282 7.67554 1.83282 7.67554 1.83282 7.67554C1.83282 7.67554 1.83282 7.67554 1.83282 7.67554C1.83282 7.67554 1.83282 7.67554 1.83282 7.67554C1.83282 7.67554 1.83282 7.67554 1.83282 7.67554C1.83282 7.67554 1.83282 7.67554 1.83282 7.67554C1.83282 7.67554 1.83282 7.67554 1.83282 7.67554C1.83282 7.67554 1.83282 7.67554 1.83282 7.67554C1.83282 7.67554 1.83282 7.67554 1.83282 7.67554C1.83282 7.67554 1.83282 7.67554 1.83282 7.67554C1.83282 7.67554 1.83282 7.67554 1.83282 7.67554C1.83282 7.67554 1.83282 7.67554 1.83282 7.67554C1.83282 7.67554 1.83282 7.67554 1.83282 7.67554C1.83282 7.67554 1.83282 7.67554 1.83282 7.67554C1.83282 7.67554 1.83282 7.67554 1.83282 7.67554C1.83282 7.67554 1.83282 7.67554 1.83282 7.67554C1.83282 7.67554 1.83282 7.67554 1.83282 7.67554C1.83282 7.67554 1.83282 7.67554 1.83282 7.67554C1.83282 7.67554 1.83282 7.67554 1.83282 7.67554C1.83282 7.67554 1.83282 7.67554 1.83282 7.67554C1.83282 7.67554 1.83282 7.67554 1.83282 7.67554C1.83282 7.67554 1.83282 7.67554 1.83282 7.67554C1.83282 7.67554 1.83282 7.67554 1.83282 7.67554C1.83282 7.67554 1.83282 7.67554 1.83282 7.67554C1.83282 7.67554 1.83282 7.67554 1.83282 7.67554C1.83282 7.67554 1.83282 7.67554 1.83282 7.67554C1.83282 7.67554 1.83282 7.67554 1.83282 7.67554C1.83282 7.67554 1.83282 7.67554 1.83282 7.67554C1.83282 7.67554 1.83283 7.67554 1.83283 7.67554C1.83283 7.67554 1.83283 7.67554 1.83283 7.67554C1.83283 7.67554 1.83283 7.67554 1.83283 7.67554C1.83283 7.67554 1.83283 7.67554 1.83283 7.67554C1.83283 7.67554 1.83283 7.67554 1.83283 7.67554C1.83283 7.67554 1.83283 7.67554 1.83283 7.67554C1.83283 7.67554 1.83283 7.67554 1.83283 7.67554C1.83283 7.67554 1.83283 7.67554 1.83283 7.67554C1.83283 7.67554 1.83283 7.67554 1.83283 7.67554C1.83283 7.67554 1.83283 7.67554 1.83283 7.67554C1.83283 7.67554 1.83283 7.67554 1.83283 7.67554C1.83283 7.67554 1.83283 7.67554 1.83283 7.67554C1.83283 7.67554 1.83283 7.67554 1.83283 7.67554C1.83283 7.67554 1.83283 7.67554 1.83283 7.67554C1.83283 7.67554 1.83283 7.67554 1.83283 7.67554C1.83283 7.67554 1.83283 7.67554 1.83283 7.67554C1.83283 7.67554 1.83283 7.67554 1.83283 7.67554C1.83283 7.67554 1.83283 7.67554 1.83283 7.67554C1.83283 7.67554 1.83283 7.67554 1.83283 7.67554C1.83283 7.67554 1.83283 7.67554 1.83283 7.67554C1.83283 7.67554 1.83283 7.67554 1.83283 7.67554C1.83283 7.67554 1.83283 7.67554 1.83283 7.67554C1.83283 7.67554 1.83283 7.67554 1.83283 7.67554C1.83283 7.67554 1.83283 7.67554 1.83283 7.67554C1.83283 7.67554 1.83283 7.67554 1.83283 7.67554C1.83283 7.67554 1.83283 7.67554 1.83283 7.67554C1.83283 7.67554 1.83283 7.67554 1.83283 7.67554C1.83283 7.67554 1.83283 7.67554 1.83283 7.67554C1.83283 7.67554 1.83283 7.67554 1.83283 7.67554C1.83283 7.67554 1.83283 7.67554 1.83283 7.67554C1.83283 7.67554 1.83283 7.67554 1.83283 7.67554C1.83283 7.67554 1.83283 7.67554 1.83283 7.67554C1.83283 7.67554 1.83283 7.67554 1.83283 7.67554C1.83283 7.67555 1.83283 7.67555 1.83283 7.67555C1.83283 7.67555 1.83283 7.67555 1.83283 7.67555C1.83283 7.67555 1.83283 7.67555 1.83283 7.67555C1.83283 7.67555 1.83283 7.67555 1.83283 7.67555C1.83283 7.67555 1.83283 7.67555 1.83283 7.67555C1.83283 7.67555 1.83283 7.67555 1.83283 7.67555C1.83283 7.67555 1.83283 7.67555 1.83283 7.67555C1.83283 7.67555 1.83283 7.67555 1.83283 7.67555C1.83283 7.67555 1.83283 7.67555 1.83283 7.67555C1.83283 7.67555 1.83283 7.67555 1.83283 7.67555C1.83283 7.67555 1.83283 7.67555 1.83283 7.67555C1.83283 7.67555 1.83283 7.67555 1.83283 7.67555C1.83283 7.67555 1.83283 7.67555 1.83283 7.67555C1.83283 7.67555 1.83283 7.67555 1.83283 7.67555C1.83283 7.67555 1.83283 7.67555 1.83283 7.67555C1.83283 7.67555 1.83283 7.67555 1.83283 7.67555C1.83283 7.67555 1.83283 7.67555 1.83283 7.67555C1.83283 7.67555 1.83283 7.67555 1.83283 7.67555C1.83283 7.67555 1.83283 7.67555 1.83283 7.67555C1.83283 7.67555 1.83283 7.67555 1.83283 7.67555C1.83283 7.67555 1.83283 7.67555 1.83283 7.67555C1.83283 7.67555 1.83283 7.67555 1.83283 7.67555C1.83283 7.67555 1.83283 7.67555 1.83283 7.67555C1.83283 7.67555 1.83283 7.67555 1.83283 7.67555C1.83283 7.67555 1.83283 7.67555 1.83283 7.67555C1.83283 7.67555 1.83283 7.67555 1.83283 7.67555C1.83283 7.67555 1.83283 7.67555 1.83283 7.67555C1.83283 7.67555 1.83283 7.67555 1.83283 7.67555C1.83283 7.67555 1.83283 7.67555 1.83283 7.67555C1.83283 7.67555 1.83283 7.67555 1.83283 7.67555C1.83283 7.67555 1.83283 7.67555 1.83283 7.67555C1.83283 7.67555 1.83283 7.67555 1.83283 7.67555C1.83283 7.67555 1.83283 7.67555 1.83283 7.67555C1.83283 7.67555 1.83283 7.67555 1.83283 7.67555C1.83283 7.67555 1.83283 7.67555 1.83283 7.67555C1.83283 7.67555 1.83283 7.67555 1.83283 7.67555C1.83283 7.67555 1.83283 7.67555 1.83283 7.67555C1.83283 7.67555 1.83283 7.67555 1.83283 7.67555C1.83284 7.67555 1.83284 7.67555 1.83284 7.67555C1.83284 7.67555 1.83284 7.67555 1.83284 7.67555C1.83284 7.67555 1.83284 7.67555 1.83284 7.67555C1.83284 7.67555 1.83284 7.67555 1.83284 7.67555C1.83284 7.67555 1.83284 7.67555 1.83284 7.67555C1.83284 7.67555 1.83284 7.67555 1.83284 7.67555C1.83284 7.67555 1.83284 7.67555 1.83284 7.67555C1.83284 7.67555 1.83284 7.67555 1.83284 7.67555C1.83284 7.67555 1.83284 7.67555 1.83284 7.67555C1.83284 7.67555 1.83284 7.67555 1.83284 7.67555C1.83284 7.67555 1.83284 7.67555 1.83284 7.67555C1.83284 7.67555 1.83284 7.67555 1.83284 7.67555C1.83284 7.67555 1.83284 7.67555 1.83284 7.67555C1.83284 7.67555 1.83284 7.67555 1.83284 7.67555C1.83284 7.67555 1.83284 7.67555 1.83284 7.67555C1.83284 7.67555 1.83284 7.67555 1.83284 7.67555C1.83284 7.67555 1.83284 7.67555 1.83284 7.67555C1.83284 7.67555 1.83284 7.67555 1.83284 7.67555C1.83284 7.67555 1.83284 7.67555 1.83284 7.67555C1.83284 7.67555 1.83284 7.67555 1.83284 7.67555C1.83284 7.67555 1.83284 7.67555 1.83284 7.67555C1.83284 7.67555 1.83284 7.67555 1.83284 7.67555C1.83284 7.67555 1.83284 7.67555 1.83284 7.67555C1.83284 7.67555 1.83284 7.67555 1.83284 7.67555C1.83284 7.67555 1.83284 7.67555 1.83284 7.67555C1.83284 7.67555 1.83284 7.67555 1.83284 7.67555C1.83284 7.67555 1.83284 7.67555 1.83284 7.67555C1.83284 7.67555 1.83284 7.67555 1.83284 7.67555C1.83284 7.67555 1.83284 7.67555 1.83284 7.67555C1.83284 7.67555 1.83284 7.67555 1.83284 7.67555C1.83284 7.67555 1.83284 7.67555 1.83284 7.67555C1.83284 7.67555 1.83284 7.67555 1.83284 7.67555C1.83284 7.67555 1.83284 7.67555 1.83284 7.67555C1.83284 7.67555 1.83284 7.67555 1.83284 7.67555C1.83284 7.67555 1.83284 7.67555 1.83284 7.67555C1.83284 7.67555 1.83284 7.67555 1.83284 7.67555C1.83284 7.67556 1.83284 7.67556 1.83284 7.67556C1.83284 7.67556 1.83284 7.67556 1.83284 7.67556C1.83284 7.67556 1.83284 7.67556 1.83284 7.67556C1.83284 7.67556 1.83284 7.67556 1.83284 7.67556C1.83284 7.67556 1.83284 7.67556 1.83284 7.67556C1.83284 7.67556 1.83284 7.67556 1.83284 7.67556C1.83284 7.67556 1.83284 7.67556 1.83284 7.67556C1.83284 7.67556 1.83284 7.67556 1.83284 7.67556C1.83284 7.67556 1.83284 7.67556 1.83284 7.67556C1.83284 7.67556 1.83284 7.67556 1.83284 7.67556C1.83284 7.67556 1.83284 7.67556 1.83284 7.67556C1.83284 7.67556 1.83284 7.67556 1.83284 7.67556C1.83284 7.67556 1.83284 7.67556 1.83284 7.67556C1.83284 7.67556 1.83284 7.67556 1.83284 7.67556C1.83284 7.67556 1.83284 7.67556 1.83284 7.67556C1.83284 7.67556 1.83284 7.67556 1.83284 7.67556C1.83284 7.67556 1.83284 7.67556 1.83284 7.67556C1.83284 7.67556 1.83284 7.67556 1.83284 7.67556C1.83284 7.67556 1.83284 7.67556 1.83284 7.67556C1.83284 7.67556 1.83284 7.67556 1.83284 7.67556C1.83284 7.67556 1.83284 7.67556 1.83284 7.67556C1.83284 7.67556 1.83284 7.67556 1.83284 7.67556C1.83284 7.67556 1.83284 7.67556 1.83284 7.67556C1.83284 7.67556 1.83284 7.67556 1.83284 7.67556C1.83284 7.67556 1.83284 7.67556 1.83284 7.67556C1.83284 7.67556 1.83284 7.67556 1.83284 7.67556C1.83284 7.67556 1.83284 7.67556 1.83284 7.67556C1.83284 7.67556 1.83284 7.67556 1.83284 7.67556C1.83284 7.67556 1.83284 7.67556 1.83284 7.67556C1.83284 7.67556 1.83284 7.67556 1.83284 7.67556C1.83284 7.67556 1.83284 7.67556 1.83284 7.67556C1.83284 7.67556 1.83284 7.67556 1.83284 7.67556C1.83284 7.67556 1.83284 7.67556 1.83284 7.67556C1.83284 7.67556 1.83284 7.67556 1.83284 7.67556C1.83284 7.67556 1.83284 7.67556 1.83284 7.67556C1.83284 7.67556 1.83284 7.67556 1.83284 7.67556C1.83284 7.67556 1.83284 7.67556 1.83284 7.67556C1.83284 7.67556 1.83284 7.67556 1.83284 7.67556C1.83284 7.67556 1.83285 7.67556 1.83285 7.67556C1.83285 7.67556 1.83285 7.67556 1.83285 7.67556C1.83285 7.67556 1.83285 7.67556 1.83285 7.67556C1.83285 7.67556 1.83285 7.67556 1.83285 7.67556C1.83285 7.67556 1.83285 7.67556 1.83285 7.67556C1.83285 7.67556 1.83285 7.67556 1.83285 7.67556C1.83285 7.67556 1.83285 7.67556 1.83285 7.67556C1.83285 7.67556 1.83285 7.67556 1.83285 7.67556C1.83285 7.67556 1.83285 7.67556 1.83285 7.67556C1.83285 7.67556 1.83285 7.67556 1.83285 7.67556C1.83285 7.67556 1.83285 7.67556 1.83285 7.67556C1.83285 7.67556 1.83285 7.67556 1.83285 7.67556C1.83285 7.67556 1.83285 7.67556 1.83285 7.67556C1.83285 7.67556 1.83285 7.67556 1.83285 7.67556C1.83285 7.67556 1.83285 7.67556 1.83285 7.67556C1.83285 7.67556 1.83285 7.67556 1.83285 7.67556C1.83285 7.67556 1.83285 7.67556 1.83285 7.67556C1.83285 7.67556 1.83285 7.67556 1.83285 7.67556C1.83285 7.67556 1.83285 7.67556 1.83285 7.67556C1.83285 7.67556 1.83285 7.67556 1.83285 7.67556C1.83285 7.67556 1.83285 7.67556 1.83285 7.67556C1.83285 7.67556 1.83285 7.67556 1.83285 7.67556C1.83285 7.67556 1.83285 7.67556 1.83285 7.67556C1.83285 7.67556 1.83285 7.67556 1.83285 7.67556C1.83285 7.67556 1.83285 7.67556 1.83285 7.67556C1.83285 7.67556 1.83285 7.67556 1.83285 7.67556C1.83285 7.67556 1.83285 7.67556 1.83285 7.67556C1.83285 7.67556 1.83285 7.67556 1.83285 7.67556C1.83285 7.67556 1.83285 7.67556 1.83285 7.67556C1.83285 7.67556 1.83285 7.67556 1.83285 7.67556C1.83285 7.67556 1.83285 7.67556 1.83285 7.67556C1.83285 7.67556 1.83285 7.67556 1.83285 7.67556C1.83285 7.67556 1.83285 7.67556 1.83285 7.67556C1.83285 7.67556 1.83285 7.67557 1.83285 7.67557C1.83285 7.67557 1.83285 7.67557 1.83285 7.67557C1.83285 7.67557 1.83285 7.67557 1.83285 7.67557C1.83285 7.67557 1.83285 7.67557 1.83285 7.67557C1.83285 7.67557 1.83285 7.67557 1.83285 7.67557C1.83285 7.67557 1.83285 7.67557 1.83285 7.67557C1.83285 7.67557 1.83285 7.67557 1.83285 7.67557C1.83285 7.67557 1.83285 7.67557 1.83285 7.67557C1.83285 7.67557 1.83285 7.67557 1.83285 7.67557C1.83285 7.67557 1.83285 7.67557 1.83285 7.67557C1.83285 7.67557 1.83285 7.67557 1.83285 7.67557C1.83285 7.67557 1.83285 7.67557 1.83285 7.67557C1.83285 7.67557 1.83285 7.67557 1.83285 7.67557C1.83285 7.67557 1.83285 7.67557 1.83285 7.67557C1.83285 7.67557 1.83285 7.67557 1.83285 7.67557C1.83285 7.67557 1.83285 7.67557 1.83285 7.67557C1.83285 7.67557 1.83285 7.67557 1.83285 7.67557C1.83285 7.67557 1.83285 7.67557 1.83285 7.67557C1.83285 7.67557 1.83285 7.67557 1.83285 7.67557C1.83285 7.67557 1.83285 7.67557 1.83285 7.67557C1.83285 7.67557 1.83285 7.67557 1.83285 7.67557C1.83285 7.67557 1.83285 7.67557 1.83285 7.67557C1.83285 7.67557 1.83285 7.67557 1.83285 7.67557C1.83285 7.67557 1.83285 7.67557 1.83285 7.67557C1.83285 7.67557 1.83285 7.67557 1.83285 7.67557C1.83285 7.67557 1.83285 7.67557 1.83285 7.67557C1.83285 7.67557 1.83285 7.67557 1.83285 7.67557C1.83285 7.67557 1.83285 7.67557 1.83285 7.67557C1.83285 7.67557 1.83285 7.67557 1.83285 7.67557C1.83285 7.67557 1.83285 7.67557 1.83285 7.67557C1.83285 7.67557 1.83285 7.67557 1.83285 7.67557C1.83285 7.67557 1.83285 7.67557 1.83285 7.67557C1.83285 7.67557 1.83285 7.67557 1.83285 7.67557C1.83285 7.67557 1.83285 7.67557 1.83286 7.67557C1.83286 7.67557 1.83286 7.67557 1.83286 7.67557C1.83286 7.67557 1.83286 7.67557 1.83286 7.67557C1.83286 7.67557 1.83286 7.67557 1.83286 7.67557C1.83286 7.67557 1.83286 7.67557 1.83286 7.67557C1.83286 7.67557 1.83286 7.67557 1.83286 7.67557C1.83286 7.67557 1.83286 7.67557 1.83286 7.67557C1.83286 7.67557 1.83286 7.67557 1.83286 7.67557C1.83286 7.67557 1.83286 7.67557 1.83286 7.67557C1.83286 7.67557 1.83286 7.67557 1.83286 7.67557C1.83286 7.67557 1.83286 7.67557 1.83286 7.67557C1.83286 7.67557 1.83286 7.67557 1.83286 7.67557C1.83286 7.67557 1.83286 7.67557 1.83286 7.67557C1.83286 7.67557 1.83286 7.67557 1.83286 7.67557C1.83286 7.67557 1.83286 7.67557 1.83286 7.67557C1.83286 7.67557 1.83286 7.67557 1.83286 7.67557C1.83286 7.67557 1.83286 7.67557 1.83286 7.67557C1.83286 7.67557 1.83286 7.67557 1.83286 7.67557C1.83286 7.67557 1.83286 7.67557 1.83286 7.67557C1.83286 7.67557 1.83286 7.67557 1.83286 7.67557C1.83286 7.67557 1.83286 7.67557 1.83286 7.67557C1.83286 7.67557 1.83286 7.67557 1.83286 7.67557C1.83286 7.67557 1.83286 7.67557 1.83286 7.67557C1.83286 7.67557 1.83286 7.67557 1.83286 7.67557C1.83286 7.67557 1.83286 7.67557 1.83286 7.67557C1.83286 7.67557 1.83286 7.67557 1.83286 7.67557C1.83286 7.67557 1.83286 7.67557 1.83286 7.67557C1.83286 7.67557 1.83286 7.67557 1.83286 7.67557C1.83286 7.67557 1.83286 7.67558 1.83286 7.67558C1.83286 7.67558 1.83286 7.67558 1.83286 7.67558C1.83286 7.67558 1.83286 7.67558 1.83286 7.67558C1.83286 7.67558 1.83286 7.67558 1.83286 7.67558C1.83286 7.67558 1.83286 7.67558 1.83286 7.67558C1.83286 7.67558 1.83286 7.67558 1.83286 7.67558C1.83286 7.67558 1.83286 7.67558 1.83286 7.67558C1.83286 7.67558 1.83286 7.67558 1.83286 7.67558C1.83286 7.67558 1.83286 7.67558 1.83286 7.67558C1.83286 7.67558 1.83286 7.67558 1.83286 7.67558C1.83286 7.67558 1.83286 7.67558 1.83286 7.67558C1.83286 7.67558 1.83286 7.67558 1.83286 7.67558C1.83286 7.67558 1.83286 7.67558 1.83286 7.67558C1.83286 7.67558 1.83286 7.67558 1.83286 7.67558C1.83286 7.67558 1.83286 7.67558 1.83286 7.67558C1.83286 7.67558 1.83286 7.67558 1.83286 7.67558C1.83286 7.67558 1.83286 7.67558 1.83286 7.67558C1.83286 7.67558 1.83286 7.67558 1.83286 7.67558C1.83286 7.67558 1.83286 7.67558 1.83286 7.67558C1.83286 7.67558 1.83286 7.67558 1.83286 7.67558C1.83286 7.67558 1.83286 7.67558 1.83286 7.67558C1.83286 7.67558 1.83286 7.67558 1.83286 7.67558C1.83286 7.67558 1.83286 7.67558 1.83286 7.67558C1.83286 7.67558 1.83286 7.67558 1.83286 7.67558C1.83286 7.67558 1.83286 7.67558 1.83286 7.67558C1.83286 7.67558 1.83286 7.67558 1.83286 7.67558C1.83286 7.67558 1.83286 7.67558 1.83286 7.67558C1.83286 7.67558 1.83287 7.67558 1.83287 7.67558C1.83287 7.67558 1.83287 7.67558 1.83287 7.67558C1.83287 7.67558 1.83287 7.67558 1.83287 7.67558C1.83287 7.67558 1.83287 7.67558 1.83287 7.67558C1.83287 7.67558 1.83287 7.67558 1.83287 7.67558C1.83287 7.67558 1.83287 7.67558 1.83287 7.67558C1.83287 7.67558 1.83287 7.67558 1.83287 7.67558C1.83287 7.67558 1.83287 7.67558 1.83287 7.67558C1.83287 7.67558 1.83287 7.67558 1.83287 7.67558C1.83287 7.67558 1.83287 7.67558 1.83287 7.67558C1.83287 7.67558 1.83287 7.67558 1.83287 7.67558C1.83287 7.67558 1.83287 7.67558 1.83287 7.67558C1.83287 7.67558 1.83287 7.67558 1.83287 7.67558C1.83287 7.67558 1.83287 7.67558 1.83287 7.67558C1.83287 7.67558 1.83287 7.67558 1.83287 7.67558C1.83287 7.67558 1.83287 7.67558 1.83287 7.67558C1.83287 7.67558 1.83287 7.67558 1.83287 7.67558C1.83287 7.67558 1.83287 7.67558 1.83287 7.67558C1.83287 7.67558 1.83287 7.67558 1.83287 7.67558C1.83287 7.67558 1.83287 7.67558 1.83287 7.67558C1.83287 7.67558 1.83287 7.67558 1.83287 7.67558C1.83287 7.67558 1.83287 7.67558 1.83287 7.67558C1.83287 7.67558 1.83287 7.67558 1.83287 7.67558C1.83287 7.67559 1.83287 7.67559 1.83287 7.67559C1.83287 7.67559 1.83287 7.67559 1.83287 7.67559C1.83287 7.67559 1.83287 7.67559 1.83287 7.67559C1.83287 7.67559 1.83287 7.67559 1.83287 7.67559C1.83287 7.67559 1.83287 7.67559 1.83287 7.67559C1.83287 7.67559 1.83287 7.67559 1.83287 7.67559C1.83287 7.67559 1.83287 7.67559 1.83287 7.67559C1.83287 7.67559 1.83287 7.67559 1.83287 7.67559C1.83287 7.67559 1.83287 7.67559 1.83287 7.67559C1.83287 7.67559 1.83287 7.67559 1.83287 7.67559C1.83287 7.67559 1.83287 7.67559 1.83287 7.67559C1.83287 7.67559 1.83287 7.67559 1.83287 7.67559C1.83287 7.67559 1.83287 7.67559 1.83287 7.67559C1.83287 7.67559 1.83287 7.67559 1.83287 7.67559C1.83287 7.67559 1.83287 7.67559 1.83287 7.67559C1.83287 7.67559 1.83287 7.67559 1.83287 7.67559C1.83287 7.67559 1.83287 7.67559 1.83287 7.67559C1.83287 7.67559 1.83287 7.67559 1.83287 7.67559C1.83287 7.67559 1.83287 7.67559 1.83287 7.67559C1.83287 7.67559 1.83287 7.67559 1.83287 7.67559C1.83287 7.67559 1.83287 7.67559 1.83287 7.67559C1.83287 7.67559 1.83287 7.67559 1.83287 7.67559C1.83287 7.67559 1.83287 7.67559 1.83288 7.67559C1.83288 7.67559 1.83288 7.67559 1.83288 7.67559C1.83288 7.67559 1.83288 7.67559 1.83288 7.67559C1.83288 7.67559 1.83288 7.67559 1.83288 7.67559C1.83288 7.67559 1.83288 7.67559 1.83288 7.67559C1.83288 7.67559 1.83288 7.67559 1.83288 7.67559C1.83288 7.67559 1.83288 7.67559 1.83288 7.67559C1.83288 7.67559 1.83288 7.67559 1.83288 7.67559C1.83288 7.67559 1.83288 7.67559 1.83288 7.67559C1.83288 7.67559 1.83288 7.67559 1.83288 7.67559C1.83288 7.67559 1.83288 7.67559 1.83288 7.67559C1.83288 7.67559 1.83288 7.67559 1.83288 7.67559C1.83288 7.67559 1.83288 7.67559 1.83288 7.67559C1.83288 7.67559 1.83288 7.67559 1.83288 7.67559C1.83288 7.67559 1.83288 7.67559 1.83288 7.67559C1.83288 7.67559 1.83288 7.67559 1.83288 7.67559C1.83288 7.67559 1.83288 7.67559 1.83288 7.67559C1.83288 7.67559 1.83288 7.67559 1.83288 7.67559C1.83288 7.67559 1.83288 7.67559 1.83288 7.67559C1.83288 7.67559 1.83288 7.6756 1.83288 7.6756C1.83288 7.6756 1.83288 7.6756 1.83288 7.6756C1.83288 7.6756 1.83288 7.6756 1.83288 7.6756C1.83288 7.6756 1.83288 7.6756 1.83288 7.6756C1.83288 7.6756 1.83288 7.6756 1.83288 7.6756C1.83288 7.6756 1.83288 7.6756 1.83288 7.6756C1.83288 7.6756 1.83288 7.6756 1.83288 7.6756C1.83288 7.6756 1.83288 7.6756 1.83288 7.6756C1.83288 7.6756 1.83288 7.6756 1.83288 7.6756C1.83288 7.6756 1.83288 7.6756 1.83288 7.6756C1.83288 7.6756 1.83288 7.6756 1.83288 7.6756C1.83288 7.6756 1.83288 7.6756 1.83288 7.6756C1.83288 7.6756 1.83288 7.6756 1.83288 7.6756C1.83288 7.6756 1.83288 7.6756 1.83288 7.6756C1.83288 7.6756 1.83288 7.6756 1.83288 7.6756C1.83288 7.6756 1.83288 7.6756 1.83288 7.6756C1.83288 7.6756 1.83288 7.6756 1.83288 7.6756C1.83288 7.6756 1.83288 7.6756 1.83288 7.6756C1.83288 7.6756 1.83288 7.6756 1.83288 7.6756C1.83288 7.6756 1.83288 7.6756 1.83289 7.6756C1.83289 7.6756 1.83289 7.6756 1.83289 7.6756C1.83289 7.6756 1.83289 7.6756 1.83289 7.6756C1.83289 7.6756 1.83289 7.6756 1.83289 7.6756C1.83289 7.6756 1.83289 7.6756 1.83289 7.6756C1.83289 7.6756 1.83289 7.6756 1.83289 7.6756C1.83289 7.6756 1.83289 7.6756 1.83289 7.6756C1.83289 7.6756 1.83289 7.6756 1.83289 7.6756C1.83289 7.6756 1.83289 7.6756 1.83289 7.6756C1.83289 7.6756 1.83289 7.6756 1.83289 7.6756C1.83289 7.6756 1.83289 7.6756 1.83289 7.6756C1.83289 7.6756 1.83289 7.6756 1.83289 7.6756C1.83289 7.6756 1.83289 7.6756 1.83289 7.6756C1.83289 7.6756 1.83289 7.6756 1.83289 7.6756C1.83289 7.6756 1.83289 7.6756 1.83289 7.6756C1.83289 7.6756 1.83289 7.6756 1.83289 7.6756C1.83289 7.6756 1.83289 7.6756 1.83289 7.6756C1.83289 7.67561 1.83289 7.67561 1.83289 7.67561C1.83289 7.67561 1.83289 7.67561 1.83289 7.67561C1.83289 7.67561 1.83289 7.67561 1.83289 7.67561C1.83289 7.67561 1.83289 7.67561 1.83289 7.67561C1.83289 7.67561 1.83289 7.67561 1.83289 7.67561C1.83289 7.67561 1.83289 7.67561 1.83289 7.67561C1.83289 7.67561 1.83289 7.67561 1.83289 7.67561C1.83289 7.67561 1.83289 7.67561 1.83289 7.67561C1.83289 7.67561 1.83289 7.67561 1.83289 7.67561C1.83289 7.67561 1.83289 7.67561 1.83289 7.67561C1.83289 7.67561 1.83289 7.67561 1.83289 7.67561C1.83289 7.67561 1.83289 7.67561 1.83289 7.67561C1.83289 7.67561 1.83289 7.67561 1.83289 7.67561C1.83289 7.67561 1.83289 7.67561 1.83289 7.67561C1.83289 7.67561 1.83289 7.67561 1.83289 7.67561C1.83289 7.67561 1.83289 7.67561 1.83289 7.67561C1.83289 7.67561 1.8329 7.67561 1.8329 7.67561C1.8329 7.67561 1.8329 7.67561 1.8329 7.67561C1.8329 7.67561 1.8329 7.67561 1.8329 7.67561C1.8329 7.67561 1.8329 7.67561 1.8329 7.67561C1.8329 7.67561 1.8329 7.67561 1.8329 7.67561C1.8329 7.67561 1.8329 7.67561 1.8329 7.67561C1.8329 7.67561 1.8329 7.67561 1.8329 7.67561C1.8329 7.67561 1.8329 7.67561 1.8329 7.67561C1.8329 7.67561 1.8329 7.67561 1.8329 7.67561C1.8329 7.67561 1.8329 7.67561 1.8329 7.67561C1.8329 7.67561 1.8329 7.67561 1.8329 7.67561C1.8329 7.67561 1.8329 7.67561 1.8329 7.67561C1.8329 7.67561 1.8329 7.67561 1.8329 7.67561C1.8329 7.67561 1.8329 7.67561 1.8329 7.67561C1.8329 7.67561 1.8329 7.67561 1.8329 7.67562C1.8329 7.67562 1.8329 7.67562 1.8329 7.67562C1.8329 7.67562 1.8329 7.67562 1.8329 7.67562C1.8329 7.67562 1.8329 7.67562 1.8329 7.67562C1.8329 7.67562 1.8329 7.67562 1.8329 7.67562C1.8329 7.67562 1.8329 7.67562 1.8329 7.67562C1.8329 7.67562 1.8329 7.67562 1.8329 7.67562C1.8329 7.67562 1.8329 7.67562 1.8329 7.67562C1.8329 7.67562 1.8329 7.67562 1.8329 7.67562C1.8329 7.67562 1.8329 7.67562 1.8329 7.67562C1.8329 7.67562 1.8329 7.67562 1.8329 7.67562C1.8329 7.67562 1.8329 7.67562 1.8329 7.67562C1.8329 7.67562 1.8329 7.67562 1.8329 7.67562C1.8329 7.67562 1.8329 7.67562 1.8329 7.67562C1.8329 7.67562 1.8329 7.67562 1.8329 7.67562C1.8329 7.67562 1.83291 7.67562 1.83291 7.67562C1.83291 7.67562 1.83291 7.67562 1.83291 7.67562C1.83291 7.67562 1.83291 7.67562 1.83291 7.67562C1.83291 7.67562 1.83291 7.67562 1.83291 7.67562C1.83291 7.67562 1.83291 7.67562 1.83291 7.67562C1.83291 7.67562 1.83291 7.67562 1.83291 7.67562C1.83291 7.67562 1.83291 7.67562 1.83291 7.67562C1.83291 7.67562 1.83291 7.67562 1.83291 7.67562C1.83291 7.67562 1.83291 7.67562 1.83291 7.67562C1.83291 7.67562 1.83291 7.67562 1.83291 7.67562C1.83291 7.67562 1.83291 7.67562 1.83291 7.67562C1.83291 7.67562 1.83291 7.67562 1.83291 7.67562C1.83291 7.67562 1.83291 7.67562 1.83291 7.67562C1.83291 7.67562 1.83291 7.67563 1.83291 7.67563C1.83291 7.67563 1.83291 7.67563 1.83291 7.67563C1.83291 7.67563 1.83291 7.67563 1.83291 7.67563C1.83291 7.67563 1.83291 7.67563 1.83291 7.67563C1.83291 7.67563 1.83291 7.67563 1.83291 7.67563C1.83291 7.67563 1.83291 7.67563 1.83291 7.67563C1.83291 7.67563 1.83291 7.67563 1.83291 7.67563C1.83291 7.67563 1.83291 7.67563 1.83291 7.67563C1.83291 7.67563 1.83291 7.67563 1.83291 7.67563C1.83291 7.67563 1.83291 7.67563 1.83291 7.67563L3.24713 6.26142Z" fill="#774DFD" mask="url(#path-10-inside-5_5955_83113)"/>
<path d="M16.9255 19.6492C16.9325 19.6422 16.9392 19.6349 16.9457 19.6273M16.9255 19.6492L16.6624 19.3855L16.7394 19.452C16.7396 19.4517 16.7399 19.4515 16.7401 19.4512C16.7403 19.4509 16.7405 19.4507 16.7407 19.4504M16.9255 19.6492L16.6587 19.3824L16.6526 19.3771L16.6526 19.3771L16.3608 19.1254M16.9255 19.6492C16.783 19.7915 16.5549 19.8 16.4021 19.6688C16.2407 19.5302 16.2222 19.2869 16.3608 19.1254M16.9457 19.6273L17.2749 17.3964L17.2749 17.3963L17.2749 17.3963L17.2749 17.3962L17.2455 17.012L17.275 17.3962L17.275 17.3963L17.275 17.3963L17.275 17.3964L17.28 17.4612L17.3742 17.4537C17.3854 17.4344 17.3911 17.4116 17.3893 17.3876M16.9457 19.6273C17.4688 19.0211 17.7275 18.2309 17.6643 17.4327L16.9457 19.6273ZM16.7407 19.4504C17.216 18.8987 17.4513 18.1801 17.3944 17.4541C17.3944 17.4539 17.3943 17.4537 17.3943 17.4535C17.3943 17.4531 17.3942 17.4526 17.3942 17.4521L17.3893 17.3876M16.7407 19.4504C16.7813 19.4025 16.7757 19.3306 16.7278 19.2895C16.7278 19.2895 16.7278 19.2895 16.7278 19.2895C16.6824 19.2505 16.6146 19.2531 16.5723 19.2953L16.6429 19.366L16.6532 19.3764L16.6532 19.3764L16.6538 19.3769L16.7402 19.4511C16.7404 19.4509 16.7406 19.4507 16.7407 19.4504ZM17.3893 17.3876C17.3893 17.3876 17.3893 17.3876 17.3893 17.3876L17.3893 17.3876ZM16.3608 19.1254C16.7502 18.6741 16.9428 18.0858 16.8958 17.4916L16.3608 19.1254Z" stroke="#774DFD"/>
<mask id="path-13-inside-6_5955_83113" fill="white">
<path d="M17.9691 19.935C18.1219 20.0661 18.3498 20.0576 18.4923 19.9154C18.4993 19.9084 18.506 19.9011 18.5126 19.8935C19.0356 19.2874 19.2943 18.4972 19.2311 17.699L19.2261 17.6331C19.2124 17.4207 19.0291 17.2596 18.8168 17.2733C18.6044 17.2869 18.4432 17.4702 18.4569 17.6826C18.4571 17.6857 18.4573 17.6888 18.4576 17.6919L18.4626 17.7578C18.5096 18.352 18.317 18.9403 17.9276 19.3916C17.789 19.5531 17.8076 19.7964 17.9691 19.935Z"/>
</mask>
<path d="M17.9691 19.935L17.3178 20.6939L17.3179 20.6939L17.9691 19.935ZM18.4923 19.9154L19.1986 20.6233L19.1994 20.6225L18.4923 19.9154ZM18.5126 19.8935L19.2689 20.5477L19.2697 20.5468L18.5126 19.8935ZM19.2311 17.699L18.2339 17.7748L18.2342 17.778L19.2311 17.699ZM19.2261 17.6331L18.2281 17.6973L18.2289 17.7089L19.2261 17.6331ZM18.4569 17.6826L17.459 17.7468L17.4591 17.7491L18.4569 17.6826ZM18.4576 17.6919L19.4547 17.6156L19.4546 17.6152L18.4576 17.6919ZM18.4626 17.7578L17.4655 17.834L17.4657 17.8367L18.4626 17.7578ZM17.9276 19.3916L17.1705 18.7383L17.1688 18.7403L17.9276 19.3916ZM17.3179 20.6939C17.8671 21.1653 18.6864 21.1343 19.1986 20.6233L17.786 19.2074C18.0132 18.9808 18.3766 18.967 18.6204 19.1762L17.3179 20.6939ZM19.1994 20.6225C19.2248 20.5971 19.2479 20.572 19.2689 20.5477L17.7562 19.2394C17.7641 19.2302 17.7738 19.2197 17.7852 19.2083L19.1994 20.6225ZM19.2697 20.5468C19.9672 19.7384 20.3123 18.6845 20.228 17.6201L18.2342 17.778C18.2763 18.3099 18.1039 18.8364 17.7555 19.2403L19.2697 20.5468ZM20.2282 17.6233L20.2232 17.5574L18.2289 17.7089L18.2339 17.7748L20.2282 17.6233ZM20.224 17.569C20.1749 16.8054 19.5161 16.2262 18.7526 16.2753L18.8809 18.2712C18.5422 18.293 18.2499 18.036 18.2281 17.6973L20.224 17.569ZM18.7526 16.2753C17.9891 16.3244 17.4099 16.9832 17.459 17.7468L19.4548 17.6184C19.4766 17.9572 19.2197 18.2494 18.8809 18.2712L18.7526 16.2753ZM17.4591 17.7491C17.4597 17.7581 17.4604 17.7662 17.4605 17.7686L19.4546 17.6152L19.4547 17.6161L17.4591 17.7491ZM17.4605 17.7681L17.4655 17.834L19.4597 17.6816L19.4547 17.6156L17.4605 17.7681ZM17.4657 17.8367C17.4917 18.1646 17.3854 18.4893 17.1705 18.7383L18.6848 20.0448C19.2486 19.3913 19.5276 18.5394 19.4595 17.6789L17.4657 17.8367ZM17.1688 18.7403C16.6703 19.3211 16.7374 20.1957 17.3178 20.6939L18.6204 19.1762C18.8778 19.3971 18.9076 19.7851 18.6864 20.0429L17.1688 18.7403Z" fill="#774DFD" mask="url(#path-13-inside-6_5955_83113)"/>
</svg>
