<svg xmlns="http://www.w3.org/2000/svg" width="20" height="23" viewBox="0 0 20 23" fill="none">
  <mask id="path-1-inside-1_7320_81272" fill="white">
    <path d="M8.41705 0.0871459C7.67268 0.106086 7.08413 0.724005 7.10136 1.46837L7.176 4.53933C5.85977 5.5079 5.05164 7.01932 4.97704 8.6518L4.963 8.6522C4.75024 8.65738 4.58193 8.83407 4.58711 9.04683C4.58711 9.04683 4.58711 9.04683 4.58711 9.0469L4.60846 9.93008C4.61439 10.2069 4.73086 10.4698 4.93187 10.6602C4.98426 10.7099 5.01471 10.7784 5.01631 10.8506L5.01648 10.858C5.06904 13.0035 5.33294 15.1386 5.80435 17.2323L6.65805 21.0189C6.80071 21.6453 7.36437 22.085 8.00671 22.0708L13.3623 21.9405C14.0046 21.9236 14.5462 21.4571 14.6583 20.8244L15.3268 17.0008C15.696 14.8867 15.8559 12.7415 15.8043 10.5962L15.8041 10.5888C15.8026 10.5166 15.8296 10.4467 15.8793 10.3942C16.0707 10.1942 16.1743 9.92602 16.1668 9.64925L16.1453 8.76588C16.1402 8.55308 15.9635 8.38477 15.7507 8.38995C15.7507 8.38995 15.7507 8.38995 15.7507 8.38995L15.7366 8.39035C15.5828 6.76336 14.7021 5.29296 13.3403 4.38945L13.2657 1.31849C13.2468 0.574124 12.6289 -0.0144664 11.8844 0.00277046L8.41705 0.0871459ZM8.03114 1.03675C8.13633 0.924948 8.28219 0.860363 8.43568 0.85757L11.9032 0.773398C12.2223 0.76604 12.4871 1.01825 12.4952 1.33729L12.5 1.53006L7.87662 1.64227L7.87182 1.4495C7.86763 1.29618 7.92499 1.14752 8.03114 1.03675ZM12.5278 2.68564L7.90479 2.79816L7.89543 2.41293L12.5187 2.30052L12.5278 2.68564ZM12.5654 4.22683L7.9422 4.33921L7.92343 3.56865L12.547 3.45627L12.5654 4.22683ZM15.3963 9.66802C15.3982 9.74031 15.3712 9.81038 15.3211 9.8626C15.1297 10.0624 15.0261 10.3306 15.0336 10.6072L15.0338 10.6146C15.0842 12.7092 14.9281 14.8039 14.5677 16.8679L13.8992 20.6916C13.8512 20.9627 13.619 21.1627 13.3437 21.1699L7.98798 21.3002C7.71271 21.3062 7.47126 21.1177 7.41019 20.8493L6.55671 17.0626C6.09634 15.0186 5.83858 12.9342 5.78708 10.8397L5.7869 10.8323C5.78094 10.5555 5.66448 10.2926 5.4635 10.1022C5.41101 10.0524 5.38059 9.9838 5.37906 9.91148L5.36693 9.4134L15.3841 9.16987L15.3963 9.66802ZM14.9643 8.40906L11.4421 8.49473L5.74937 8.63309C5.83023 7.2268 6.54493 5.93322 7.69244 5.11627L12.8525 4.99081C14.0384 5.75105 14.8151 7.00832 14.9643 8.40906Z"/>
  </mask>
  <path d="M8.41705 0.0871459L8.39272 -0.912558L8.39161 -0.912529L8.41705 0.0871459ZM7.10136 1.46837L6.10163 1.49152L6.10166 1.49267L7.10136 1.46837ZM7.176 4.53933L7.76869 5.34476L8.18836 5.03594L8.1757 4.51503L7.176 4.53933ZM4.97704 8.6518L5.00615 9.65137L5.93364 9.62436L5.97599 8.69745L4.97704 8.6518ZM4.963 8.6522L4.98733 9.65192L4.99212 9.65178L4.963 8.6522ZM4.58711 9.04683L5.23739 9.80652L5.59837 9.49753L5.58681 9.02251L4.58711 9.04683ZM4.58711 9.0469L3.58711 9.0469L3.58711 9.05899L3.5874 9.07108L4.58711 9.0469ZM4.60846 9.93008L5.60824 9.90867L5.60817 9.9059L4.60846 9.93008ZM4.93187 10.6602L5.61985 9.93447L5.61952 9.93416L4.93187 10.6602ZM5.01631 10.8506L4.01656 10.8728L4.01658 10.8737L5.01631 10.8506ZM5.01648 10.858L4.01675 10.8811L4.01678 10.8825L5.01648 10.858ZM5.80435 17.2323L4.82877 17.452L4.82883 17.4523L5.80435 17.2323ZM6.65805 21.0189L5.68254 21.2388L5.68302 21.2409L6.65805 21.0189ZM8.00671 22.0708L8.02882 23.0705L8.03102 23.0705L8.00671 22.0708ZM13.3623 21.9405L13.3866 22.9402L13.3887 22.9402L13.3623 21.9405ZM14.6583 20.8244L15.643 20.9989L15.6434 20.9967L14.6583 20.8244ZM15.3268 17.0008L16.3119 17.173L16.3119 17.1728L15.3268 17.0008ZM15.8043 10.5962L14.8044 10.6147L14.8046 10.6203L15.8043 10.5962ZM15.8041 10.5888L16.804 10.5703L16.8039 10.5676L15.8041 10.5888ZM15.8793 10.3942L15.1569 9.70266L15.1531 9.70672L15.8793 10.3942ZM16.1668 9.64925L15.1671 9.67358L15.1672 9.6762L16.1668 9.64925ZM16.1453 8.76588L15.1456 8.79004L15.1456 8.7902L16.1453 8.76588ZM15.7507 8.38995L15.7264 7.39024L14.678 7.41576L14.7533 8.46177L15.7507 8.38995ZM15.7507 8.38995L15.7507 7.38995H15.7361L15.7216 7.39037L15.7507 8.38995ZM15.7366 8.39035L14.7411 8.48447L14.8292 9.41713L15.7657 9.38993L15.7366 8.39035ZM13.3403 4.38945L12.3406 4.41375L12.3533 4.93466L12.7875 5.22273L13.3403 4.38945ZM13.2657 1.31849L14.2654 1.29419L14.2654 1.29305L13.2657 1.31849ZM11.8844 0.00277046L11.8613 -0.996962L11.8601 -0.996933L11.8844 0.00277046ZM8.03114 1.03675L8.75321 1.72862L8.75944 1.722L8.03114 1.03675ZM8.43568 0.85757L8.45387 1.85742L8.45995 1.85728L8.43568 0.85757ZM11.9032 0.773398L11.8802 -0.226337L11.8789 -0.226307L11.9032 0.773398ZM12.4952 1.33729L13.4949 1.31238L13.4949 1.31168L12.4952 1.33729ZM12.5 1.53006L12.5243 2.52976L13.5247 2.50549L13.4997 1.50514L12.5 1.53006ZM7.87662 1.64227L6.87693 1.66717L6.90182 2.66622L7.90088 2.64197L7.87662 1.64227ZM7.87182 1.4495L8.87151 1.42459L8.87145 1.42218L7.87182 1.4495ZM12.5278 2.68564L12.5521 3.68535L13.551 3.66104L13.5275 2.66212L12.5278 2.68564ZM7.90479 2.79816L6.90509 2.82247L6.9294 3.82219L7.92912 3.79786L7.90479 2.79816ZM7.89543 2.41293L7.87112 1.41322L6.87141 1.43753L6.89572 2.43724L7.89543 2.41293ZM12.5187 2.30052L13.5184 2.277L13.4949 1.27648L12.4944 1.30081L12.5187 2.30052ZM12.5654 4.22683L12.5897 5.22653L13.5891 5.20224L13.5652 4.20292L12.5654 4.22683ZM7.9422 4.33921L6.94249 4.36356L6.96684 5.36321L7.96649 5.33891L7.9422 4.33921ZM7.92343 3.56865L7.89913 2.56894L6.89937 2.59324L6.92372 3.593L7.92343 3.56865ZM12.547 3.45627L13.5467 3.43236L13.5228 2.43226L12.5227 2.45656L12.547 3.45627ZM15.3963 9.66802L14.3966 9.69236L14.3966 9.69535L15.3963 9.66802ZM15.3211 9.8626L14.5991 9.17072L14.599 9.17079L15.3211 9.8626ZM15.0336 10.6072L16.0333 10.5841L16.0332 10.5802L15.0336 10.6072ZM15.0338 10.6146L14.034 10.6376L14.034 10.6387L15.0338 10.6146ZM14.5677 16.8679L15.5527 17.0401L15.5528 17.0399L14.5677 16.8679ZM13.8992 20.6916L14.8839 20.8658L14.8842 20.8638L13.8992 20.6916ZM13.3437 21.1699L13.3681 22.1696L13.3701 22.1696L13.3437 21.1699ZM7.98798 21.3002L8.00963 22.3L8.0123 22.2999L7.98798 21.3002ZM7.41019 20.8493L6.43466 21.0692L6.4351 21.0711L7.41019 20.8493ZM6.55671 17.0626L5.58115 17.2824L5.58119 17.2825L6.55671 17.0626ZM5.78708 10.8397L4.78734 10.8627L4.78738 10.8642L5.78708 10.8397ZM5.7869 10.8323L4.78714 10.8538L4.78717 10.8554L5.7869 10.8323ZM5.4635 10.1022L4.77548 10.8279L4.77572 10.8281L5.4635 10.1022ZM5.37906 9.91148L6.37884 9.89029L6.37876 9.88714L5.37906 9.91148ZM5.36693 9.4134L5.34263 8.41369L4.34289 8.438L4.36723 9.43774L5.36693 9.4134ZM15.3841 9.16987L16.3838 9.14554L16.3595 8.14587L15.3598 8.17017L15.3841 9.16987ZM14.9643 8.40906L14.9886 9.40876L16.0736 9.38237L15.9587 8.30316L14.9643 8.40906ZM11.4421 8.49473L11.4664 9.49443L11.4664 9.49443L11.4421 8.49473ZM5.74937 8.63309L4.75102 8.57569L4.68871 9.65917L5.77367 9.6328L5.74937 8.63309ZM7.69244 5.11627L7.66813 4.11657L7.36196 4.12401L7.11247 4.30163L7.69244 5.11627ZM12.8525 4.99081L13.3922 4.14896L13.1344 3.98367L12.8282 3.99111L12.8525 4.99081ZM8.39161 -0.912529C7.09601 -0.879565 6.07163 0.195935 6.10163 1.49152L8.10109 1.44522C8.09662 1.25207 8.24936 1.09174 8.44248 1.08682L8.39161 -0.912529ZM6.10166 1.49267L6.17629 4.56363L8.1757 4.51503L8.10107 1.44407L6.10166 1.49267ZM6.58331 3.7339C5.02389 4.88143 4.06646 6.67208 3.97808 8.60615L5.97599 8.69745C6.03681 7.36655 6.69565 6.13438 7.76869 5.34476L6.58331 3.7339ZM4.94792 7.65222L4.93389 7.65263L4.99212 9.65178L5.00615 9.65137L4.94792 7.65222ZM4.93867 7.6525C4.17384 7.67111 3.56879 8.30622 3.5874 9.07116L5.58681 9.02251C5.59507 9.36192 5.32663 9.64365 4.98733 9.65191L4.93867 7.6525ZM4.58711 9.04683C3.93673 8.28722 3.88855 8.33128 3.84335 8.37838C3.83128 8.39207 3.79894 8.43137 3.77936 8.45731C3.74515 8.50417 3.72043 8.54665 3.70341 8.57878C3.67043 8.64105 3.65082 8.69415 3.64049 8.72447C3.6199 8.78493 3.6098 8.83403 3.60591 8.85384C3.59724 8.89791 3.59357 8.93283 3.59249 8.94317C3.58971 8.96985 3.58866 8.99083 3.58841 8.99583C3.58766 9.01048 3.58741 9.02198 3.58736 9.02439C3.58719 9.03206 3.58714 9.03808 3.58714 9.03926C3.58711 9.04319 3.58711 9.04629 3.58711 9.0469H5.58711C5.58711 9.04745 5.58711 9.05051 5.58708 9.05442C5.58707 9.0556 5.58703 9.06161 5.58685 9.06928C5.5868 9.07169 5.58655 9.08319 5.5858 9.09784C5.58555 9.10284 5.5845 9.12382 5.58172 9.1505C5.58064 9.16084 5.57698 9.19575 5.56831 9.23983C5.56441 9.25964 5.55431 9.30874 5.53372 9.3692C5.5234 9.39952 5.50379 9.45262 5.47081 9.51489C5.45379 9.54702 5.42906 9.5895 5.39482 9.63641C5.37527 9.6623 5.34294 9.7016 5.33077 9.71539C5.28566 9.76239 5.23748 9.80645 4.58711 9.04683ZM3.5874 9.07108L3.60876 9.95425L5.60817 9.9059L5.58681 9.02273L3.5874 9.07108ZM3.60869 9.95149C3.62034 10.4954 3.84919 11.0121 4.24421 11.3862L5.61952 9.93416C5.61252 9.92754 5.60844 9.91834 5.60824 9.90867L3.60869 9.95149ZM4.24389 11.3859C4.1032 11.2526 4.02089 11.068 4.01656 10.8728L6.01607 10.8284C6.00853 10.4888 5.86531 10.1672 5.61985 9.93447L4.24389 11.3859ZM4.01658 10.8737L4.01675 10.8811L6.01622 10.8349L6.01604 10.8275L4.01658 10.8737ZM4.01678 10.8825C4.07095 13.0937 4.34292 15.2941 4.82877 17.452L6.77992 17.0127C6.32295 14.983 6.06713 12.9133 6.01618 10.8335L4.01678 10.8825ZM4.82883 17.4523L5.68254 21.2388L7.63357 20.7989L6.77986 17.0124L4.82883 17.4523ZM5.68302 21.2409C5.93115 22.3305 6.91153 23.0952 8.02882 23.0705L7.9846 21.071C7.81721 21.0747 7.67028 20.9601 7.63309 20.7968L5.68302 21.2409ZM8.03102 23.0705L13.3866 22.9402L13.338 20.9408L7.9824 21.071L8.03102 23.0705ZM13.3887 22.9402C14.5059 22.9107 15.448 22.0992 15.643 20.9989L13.6736 20.65C13.6444 20.8149 13.5032 20.9365 13.3359 20.9409L13.3887 22.9402ZM15.6434 20.9967L16.3119 17.173L14.3418 16.8285L13.6732 20.6522L15.6434 20.9967ZM16.3119 17.1728C16.6924 14.994 16.8572 12.7832 16.804 10.5721L14.8046 10.6203C14.8546 12.6999 14.6996 14.7795 14.3417 16.8287L16.3119 17.1728ZM16.8041 10.5777L16.804 10.5703L14.8043 10.6073L14.8044 10.6147L16.8041 10.5777ZM16.8039 10.5676C16.808 10.7583 16.7367 10.9431 16.6054 11.0817L15.1531 9.70672C14.9225 9.95031 14.7973 10.2749 14.8044 10.6101L16.8039 10.5676ZM16.6016 11.0858C16.9777 10.693 17.1811 10.1661 17.1665 9.62231L15.1672 9.6762C15.1674 9.68597 15.1638 9.6955 15.1569 9.70267L16.6016 11.0858ZM17.1665 9.62493L17.145 8.74155L15.1456 8.7902L15.1671 9.67358L17.1665 9.62493ZM17.145 8.74171C17.1265 7.97674 16.4914 7.37163 15.7264 7.39024L15.7751 9.38965C15.4356 9.39791 15.1538 9.12942 15.1456 8.79004L17.145 8.74171ZM15.7507 8.38995C14.7533 8.462 14.7508 8.39795 14.7523 8.33386C14.7537 8.31248 14.7607 8.24943 14.7674 8.20798C14.7827 8.12567 14.8072 8.0507 14.8368 7.98411C14.8951 7.85282 14.9711 7.75753 15.0323 7.69433C15.1466 7.57627 15.2623 7.51567 15.3109 7.49185C15.4143 7.44122 15.5027 7.42096 15.5241 7.41597C15.5852 7.40175 15.6343 7.3967 15.6437 7.39569C15.6753 7.39229 15.7003 7.39121 15.7048 7.391C15.7207 7.39027 15.7332 7.3901 15.7354 7.39006C15.7434 7.38994 15.7496 7.38995 15.7507 7.38995V9.38995C15.7518 9.38995 15.7581 9.38995 15.766 9.38983C15.7682 9.3898 15.7807 9.38962 15.7966 9.38889C15.8011 9.38869 15.8261 9.38761 15.8577 9.3842C15.8672 9.38319 15.9163 9.37814 15.9774 9.36392C15.9988 9.35894 16.0871 9.33868 16.1905 9.28804C16.2392 9.26422 16.3548 9.20363 16.4691 9.08555C16.5303 9.02237 16.6064 8.92708 16.6647 8.79575C16.6942 8.72919 16.7188 8.65423 16.734 8.57185C16.7408 8.53046 16.7477 8.46741 16.7492 8.44603C16.7507 8.38195 16.7481 8.31789 15.7507 8.38995ZM15.7216 7.39037L15.7076 7.39078L15.7657 9.38993L15.7797 9.38953L15.7216 7.39037ZM16.7322 8.29625C16.55 6.36865 15.5066 4.6266 13.8932 3.55617L12.7875 5.22273C13.8977 5.95932 14.6157 7.15807 14.7411 8.48447L16.7322 8.29625ZM14.34 4.36515L14.2654 1.29419L12.266 1.34278L12.3406 4.41375L14.34 4.36515ZM14.2654 1.29305C14.2324 -0.00251711 13.157 -1.02696 11.8613 -0.996962L11.9076 1.0025C12.1008 0.99803 12.2611 1.15077 12.266 1.34392L14.2654 1.29305ZM11.8601 -0.996933L8.39272 -0.912558L8.44137 1.08685L11.9088 1.00247L11.8601 -0.996933ZM8.75944 1.722C8.67987 1.80657 8.56965 1.8553 8.45387 1.8574L8.41748 -0.142265C7.99473 -0.134572 7.59278 0.0433303 7.30283 0.351492L8.75944 1.722ZM8.45995 1.85728L11.9275 1.7731L11.8789 -0.226307L8.41141 -0.142136L8.45995 1.85728ZM11.9263 1.77313C11.6942 1.77848 11.5015 1.59499 11.4956 1.36291L13.4949 1.31168C13.4726 0.441512 12.7503 -0.246403 11.8802 -0.226336L11.9263 1.77313ZM11.4956 1.3622L11.5004 1.55497L13.4997 1.50514L13.4949 1.31238L11.4956 1.3622ZM12.4758 0.530353L7.85236 0.64256L7.90088 2.64197L12.5243 2.52976L12.4758 0.530353ZM8.87631 1.61736L8.87151 1.42459L6.87213 1.47441L6.87693 1.66717L8.87631 1.61736ZM8.87145 1.42218C8.87456 1.53602 8.83197 1.64636 8.75318 1.72859L7.30909 0.344898C7.01801 0.648683 6.8607 1.05633 6.87219 1.47681L8.87145 1.42218ZM12.5034 1.68594L7.88046 1.79845L7.92912 3.79786L12.5521 3.68535L12.5034 1.68594ZM8.9045 2.77385L8.89513 2.38862L6.89572 2.43724L6.90509 2.82247L8.9045 2.77385ZM7.91973 3.41263L12.543 3.30022L12.4944 1.30081L7.87112 1.41322L7.91973 3.41263ZM11.519 2.32403L11.528 2.70916L13.5275 2.66212L13.5184 2.277L11.519 2.32403ZM12.5411 3.22712L7.9179 3.3395L7.96649 5.33891L12.5897 5.22653L12.5411 3.22712ZM8.9419 4.31485L8.92313 3.5443L6.92372 3.593L6.94249 4.36356L8.9419 4.31485ZM7.94772 4.56835L12.5713 4.45597L12.5227 2.45656L7.89913 2.56894L7.94772 4.56835ZM11.5473 3.48018L11.5657 4.25074L13.5652 4.20292L13.5467 3.43236L11.5473 3.48018ZM14.3966 9.69535C14.3913 9.50007 14.4644 9.31124 14.5991 9.17072L16.0431 10.5545C16.2779 10.3095 16.4052 9.98054 16.3959 9.6407L14.3966 9.69535ZM14.599 9.17079C14.2228 9.5635 14.0193 10.0905 14.0339 10.6342L16.0332 10.5802C16.033 10.5707 16.0366 10.5613 16.0432 10.5544L14.599 9.17079ZM14.0338 10.6303L14.034 10.6376L16.0335 10.5915L16.0333 10.5841L14.0338 10.6303ZM14.034 10.6387C14.0829 12.6676 13.9317 14.6966 13.5826 16.6959L15.5528 17.0399C15.9245 14.9112 16.0855 12.7508 16.0335 10.5905L14.034 10.6387ZM13.5826 16.6957L12.9141 20.5193L14.8842 20.8638L15.5527 17.0401L13.5826 16.6957ZM12.9144 20.5174C12.9493 20.3206 13.1177 20.1755 13.3174 20.1703L13.3701 22.1696C14.1203 22.1498 14.7531 21.6049 14.8839 20.8658L12.9144 20.5174ZM13.3194 20.1702L7.96366 20.3005L8.0123 22.2999L13.3681 22.1696L13.3194 20.1702ZM7.96633 20.3005C8.16586 20.2961 8.34098 20.4328 8.38527 20.6275L6.4351 21.0711C6.60154 21.8027 7.25955 22.3162 8.00963 22.3L7.96633 20.3005ZM8.38571 20.6294L7.53224 16.8428L5.58119 17.2825L6.43466 21.0692L8.38571 20.6294ZM7.53228 16.8429C7.08634 14.863 6.83666 12.844 6.78677 10.8151L4.78738 10.8642C4.8405 13.0245 5.10634 15.1743 5.58115 17.2824L7.53228 16.8429ZM6.78681 10.8166L6.78664 10.8092L4.78717 10.8554L4.78734 10.8627L6.78681 10.8166ZM6.78667 10.8107C6.77496 10.2668 6.54609 9.75034 6.15128 9.37628L4.77572 10.8281C4.78287 10.8349 4.78693 10.8442 4.78714 10.8538L6.78667 10.8107ZM6.15152 9.37651C6.29256 9.51023 6.3747 9.69514 6.37883 9.89029L4.37928 9.93267C4.38648 10.2725 4.52946 10.5946 4.77548 10.8279L6.15152 9.37651ZM6.37876 9.88714L6.36664 9.38906L4.36723 9.43774L4.37935 9.93582L6.37876 9.88714ZM5.39123 10.4131L15.4084 10.1696L15.3598 8.17017L5.34263 8.41369L5.39123 10.4131ZM14.3844 9.19421L14.3966 9.69236L16.396 9.64369L16.3838 9.14554L14.3844 9.19421ZM14.94 7.40935L11.4177 7.49502L11.4664 9.49443L14.9886 9.40876L14.94 7.40935ZM11.4178 7.49502L5.72507 7.63339L5.77367 9.6328L11.4664 9.49443L11.4178 7.49502ZM6.74772 8.6905C6.81117 7.58699 7.37199 6.57195 8.27241 5.93091L7.11247 4.30163C5.71787 5.2945 4.84929 6.86661 4.75102 8.57569L6.74772 8.6905ZM7.71674 6.11597L12.8768 5.99052L12.8282 3.99111L7.66813 4.11657L7.71674 6.11597ZM12.3128 5.83266C13.2434 6.42923 13.8529 7.41579 13.9699 8.51495L15.9587 8.30316C15.7774 6.60084 14.8334 5.07288 13.3922 4.14896L12.3128 5.83266Z" fill="#4C4B4B" mask="url(#path-1-inside-1_7320_81272)"/>
  <mask id="path-3-inside-2_7320_81272" fill="white">
    <path d="M7.12433 6.49479C6.93034 6.89412 6.78604 7.31576 6.69465 7.75018C6.65088 7.95848 6.78424 8.16283 6.99254 8.2066C7.20084 8.25037 7.40519 8.11701 7.44896 7.90871C7.52734 7.53595 7.6511 7.17422 7.81753 6.83161C7.91056 6.64014 7.83078 6.40959 7.63934 6.31653C7.44791 6.22347 7.21729 6.30325 7.12426 6.49472L7.12433 6.49479Z"/>
  </mask>
  <path d="M7.12433 6.49479L8.02381 6.93175L8.33498 6.29122L7.83144 5.78768L7.12433 6.49479ZM6.69465 7.75018L5.71607 7.5443L5.71602 7.54453L6.69465 7.75018ZM7.44896 7.90871L6.47036 7.70294L6.47034 7.70306L7.44896 7.90871ZM7.81753 6.83161L6.91807 6.3946L6.91805 6.39466L7.81753 6.83161ZM7.12426 6.49472L6.22481 6.05771L5.91359 6.69826L6.41716 7.20183L7.12426 6.49472ZM6.22485 6.05782C5.99513 6.5307 5.82428 7.02995 5.71607 7.5443L7.67323 7.95605C7.74781 7.60157 7.86554 7.25754 8.02381 6.93175L6.22485 6.05782ZM5.71602 7.54453C5.55869 8.29324 6.03804 9.02786 6.78689 9.18522L7.19819 7.22797C7.53044 7.29779 7.74307 7.62372 7.67328 7.95582L5.71602 7.54453ZM6.78689 9.18522C7.5356 9.34256 8.27022 8.86321 8.42759 8.11436L6.47034 7.70306C6.54015 7.37081 6.86608 7.15818 7.19819 7.22797L6.78689 9.18522ZM8.42756 8.11448C8.48913 7.82166 8.58633 7.53758 8.71702 7.26856L6.91805 6.39466C6.71586 6.81086 6.56555 7.25023 6.47036 7.70294L8.42756 8.11448ZM8.71699 7.26862C9.05138 6.58036 8.76451 5.7516 8.07654 5.41717L7.20214 7.21589C6.89705 7.06758 6.76974 6.69991 6.91807 6.3946L8.71699 7.26862ZM8.07654 5.41717C7.38827 5.08258 6.5592 5.36946 6.22481 6.05771L8.02372 6.93173C7.87539 7.23703 7.50754 7.36435 7.20214 7.21589L8.07654 5.41717ZM6.41716 7.20183L6.41723 7.20189L7.83144 5.78768L7.83137 5.78761L6.41716 7.20183Z" fill="#4C4B4B" mask="url(#path-3-inside-2_7320_81272)"/>
  <mask id="path-5-inside-3_7320_81272" fill="white">
    <path d="M7.22664 14.3825C7.01612 14.4138 6.87077 14.6098 6.90207 14.8204C7.02 15.6136 7.16917 16.4124 7.34548 17.1947C7.39229 17.4023 7.59855 17.5327 7.8062 17.4859C8.01385 17.4391 8.14421 17.2328 8.09741 17.0252C7.92525 16.2615 7.77963 15.4815 7.66449 14.707C7.63315 14.4965 7.43715 14.3513 7.22664 14.3825Z"/>
  </mask>
  <path d="M6.90207 14.8204L7.8912 14.6733L7.8912 14.6733L6.90207 14.8204ZM7.34548 17.1947L8.32101 16.9748L8.32101 16.9748L7.34548 17.1947ZM8.09741 17.0252L9.07294 16.8053L9.07293 16.8053L8.09741 17.0252ZM7.66449 14.707L8.65362 14.56L8.65359 14.5598L7.66449 14.707ZM7.0797 13.3934C6.32294 13.5058 5.8004 14.2105 5.91295 14.9675L7.8912 14.6733C7.94114 15.0092 7.7093 15.3218 7.37357 15.3717L7.0797 13.3934ZM5.91295 14.9674C6.0345 15.7851 6.18821 16.6082 6.36996 17.4146L8.32101 16.9748C8.15013 16.2167 8.0055 15.4421 7.8912 14.6733L5.91295 14.9674ZM6.36996 17.4146C6.53821 18.161 7.27973 18.6296 8.02608 18.4614L7.58632 16.5104C7.91736 16.4357 8.24636 16.6436 8.32101 16.9748L6.36996 17.4146ZM8.02608 18.4614C8.77257 18.2932 9.24116 17.5516 9.07294 16.8053L7.12188 17.2451C7.04727 16.914 7.25513 16.585 7.58632 16.5104L8.02608 18.4614ZM9.07293 16.8053C8.90622 16.0657 8.76513 15.3101 8.65362 14.56L6.67536 14.8541C6.79413 15.6529 6.94429 16.4572 7.12189 17.2451L9.07293 16.8053ZM8.65359 14.5598C8.54095 13.8031 7.83637 13.281 7.0797 13.3934L7.37357 15.3717C7.03793 15.4215 6.72536 15.1899 6.67539 14.8543L8.65359 14.5598Z" fill="#4C4B4B" mask="url(#path-5-inside-3_7320_81272)"/>
  <mask id="path-7-inside-4_7320_81272" fill="white">
    <path d="M7.02209 12.4577C6.81008 12.4763 6.65328 12.6632 6.67181 12.8752C6.68319 13.005 6.69535 13.1348 6.70829 13.2644C6.72941 13.4762 6.91826 13.6308 7.13007 13.6096C7.34188 13.5884 7.49646 13.3997 7.47528 13.1879C7.4626 13.0613 7.45075 12.9346 7.43968 12.8079C7.42111 12.5959 7.23417 12.4391 7.02209 12.4577Z"/>
  </mask>
  <path d="M7.02209 12.4577L6.93473 11.4615L6.9347 11.4615L7.02209 12.4577ZM6.67181 12.8752L5.67561 12.9623L5.67563 12.9625L6.67181 12.8752ZM6.70829 13.2644L7.70336 13.1652L7.70335 13.1651L6.70829 13.2644ZM7.47528 13.1879L8.47031 13.0883L8.4703 13.0882L7.47528 13.1879ZM7.43968 12.8079L8.43589 12.7209L8.43587 12.7206L7.43968 12.8079ZM6.9347 11.4615C6.17259 11.5283 5.609 12.2002 5.67561 12.9623L7.66801 12.7881C7.69756 13.1261 7.44756 13.4242 7.10948 13.4538L6.9347 11.4615ZM5.67563 12.9625C5.68736 13.0963 5.69989 13.2301 5.71324 13.3638L7.70335 13.1651C7.6908 13.0395 7.67902 12.9137 7.66799 12.7879L5.67563 12.9625ZM5.71323 13.3636C5.78915 14.1251 6.46804 14.6808 7.22961 14.6047L7.03054 12.6146C7.36848 12.5808 7.66968 12.8274 7.70336 13.1652L5.71323 13.3636ZM7.22961 14.6047C7.99046 14.5286 8.54652 13.8502 8.47031 13.0883L6.48024 13.2874C6.44641 12.9492 6.6933 12.6483 7.03054 12.6146L7.22961 14.6047ZM8.4703 13.0882C8.45806 12.9659 8.4466 12.8435 8.43589 12.7209L6.44347 12.8949C6.4549 13.0258 6.46715 13.1566 6.48025 13.2875L8.4703 13.0882ZM8.43587 12.7206C8.3691 11.9583 7.6969 11.3946 6.93473 11.4615L7.10945 13.4538C6.77144 13.4835 6.47313 13.2335 6.44349 12.8951L8.43587 12.7206Z" fill="#4C4B4B" mask="url(#path-7-inside-4_7320_81272)"/>
  <path d="M2.98596 8.54241C2.98596 8.54238 2.98596 8.54234 2.98595 8.54231L2.98596 8.54241ZM2.98596 8.54241L2.98597 8.54318M2.98596 8.54241C2.98596 8.54267 2.98597 8.54292 2.98597 8.54318M2.98597 8.54318L3.10052 8.54033L3.10062 8.54033L3.10139 8.54031L3.10153 8.54031L3.18072 8.61971L3.10201 8.54079L3.10187 8.54079L3.10063 8.54082L3.10053 8.54083L2.98599 8.54382L2.98597 8.54318Z" stroke="#4C4B4B"/>
  <mask id="path-10-inside-5_7320_81272" fill="white">
    <path d="M2.54016 5.96842C2.38585 5.82222 2.1424 5.82818 1.99541 5.98177C1.44167 6.55997 1.14221 7.33564 1.16385 8.13597L1.16545 8.20209C1.17062 8.41485 1.34731 8.58316 1.56011 8.57802C1.77287 8.57284 1.94118 8.39615 1.93604 8.18336L1.93444 8.11724C1.91829 7.52139 2.14124 6.94384 2.55352 6.51337C2.70033 6.35927 2.6944 6.1153 2.54026 5.96852C2.5402 5.96845 2.5402 5.96845 2.54016 5.96842Z"/>
  </mask>
  <path d="M2.54016 5.96842L3.24727 5.26131L3.23773 5.25178L3.22794 5.2425L2.54016 5.96842ZM1.99541 5.98177L2.71763 6.67344L2.71789 6.67317L1.99541 5.98177ZM1.16385 8.13597L2.16356 8.11177L2.16348 8.10896L1.16385 8.13597ZM1.16545 8.20209L0.165739 8.22629L0.165742 8.22642L1.16545 8.20209ZM1.56011 8.57802L1.58427 9.57773L1.58444 9.57772L1.56011 8.57802ZM1.93604 8.18336L2.93575 8.15919L2.93575 8.15915L1.93604 8.18336ZM1.93444 8.11724L2.93415 8.09303L2.93407 8.09015L1.93444 8.11724ZM2.55352 6.51337L3.27572 7.20506L3.27754 7.20315L2.55352 6.51337ZM2.54026 5.96852L1.83316 6.67563L1.8418 6.68427L1.85065 6.6927L2.54026 5.96852ZM3.22794 5.2425C2.6741 4.71776 1.80039 4.73921 1.27293 5.29038L2.71789 6.67317C2.48441 6.91715 2.0976 6.92668 1.85238 6.69434L3.22794 5.2425ZM1.2732 5.29011C0.534734 6.06118 0.135363 7.09563 0.16421 8.16299L2.16348 8.10896C2.14907 7.57565 2.34861 7.05876 2.71763 6.67344L1.2732 5.29011ZM0.164138 8.16018L0.165739 8.22629L2.16515 8.17789L2.16355 8.11177L0.164138 8.16018ZM0.165742 8.22642C0.184357 8.99134 0.819518 9.59621 1.58427 9.57773L1.53595 7.57831C1.87511 7.57011 2.15689 7.83837 2.16515 8.17776L0.165742 8.22642ZM1.58444 9.57772C2.34936 9.55911 2.95423 8.92395 2.93575 8.15919L0.936331 8.20752C0.928133 7.86836 1.19639 7.58658 1.53578 7.57832L1.58444 9.57772ZM2.93575 8.15915L2.93415 8.09303L0.934731 8.14144L0.936332 8.20756L2.93575 8.15915ZM2.93407 8.09015C2.92516 7.76136 3.04819 7.44262 3.27572 7.20506L1.83131 5.82169C1.23429 6.44506 0.911422 7.28143 0.934805 8.14433L2.93407 8.09015ZM3.27754 7.20315C3.80534 6.64915 3.78407 5.77208 3.22988 5.24434L1.85065 6.6927C1.60474 6.45853 1.59533 6.06939 1.82949 5.8236L3.27754 7.20315ZM3.24737 5.26142C3.24737 5.26142 3.24737 5.26142 3.24737 5.26141C3.24737 5.26141 3.24737 5.26141 3.24737 5.26141C3.24737 5.26141 3.24737 5.26141 3.24737 5.26141C3.24737 5.26141 3.24737 5.26141 3.24737 5.26141C3.24737 5.26141 3.24737 5.26141 3.24737 5.26141C3.24737 5.26141 3.24737 5.26141 3.24737 5.26141C3.24737 5.26141 3.24737 5.26141 3.24737 5.26141C3.24737 5.26141 3.24737 5.26141 3.24737 5.26141C3.24737 5.26141 3.24737 5.26141 3.24737 5.26141C3.24737 5.26141 3.24737 5.26141 3.24737 5.26141C3.24737 5.26141 3.24737 5.26141 3.24737 5.26141C3.24737 5.26141 3.24737 5.26141 3.24737 5.26141C3.24737 5.26141 3.24737 5.26141 3.24737 5.26141C3.24737 5.26141 3.24737 5.26141 3.24737 5.26141C3.24737 5.26141 3.24737 5.26141 3.24737 5.26141C3.24737 5.26141 3.24737 5.26141 3.24736 5.26141C3.24736 5.26141 3.24736 5.26141 3.24736 5.26141C3.24736 5.26141 3.24736 5.26141 3.24736 5.26141C3.24736 5.26141 3.24736 5.26141 3.24736 5.26141C3.24736 5.26141 3.24736 5.26141 3.24736 5.26141C3.24736 5.26141 3.24736 5.26141 3.24736 5.26141C3.24736 5.26141 3.24736 5.26141 3.24736 5.26141C3.24736 5.26141 3.24736 5.26141 3.24736 5.26141C3.24736 5.26141 3.24736 5.26141 3.24736 5.26141C3.24736 5.26141 3.24736 5.26141 3.24736 5.26141C3.24736 5.26141 3.24736 5.26141 3.24736 5.26141C3.24736 5.26141 3.24736 5.26141 3.24736 5.26141C3.24736 5.2614 3.24736 5.2614 3.24736 5.2614C3.24736 5.2614 3.24736 5.2614 3.24736 5.2614C3.24736 5.2614 3.24736 5.2614 3.24736 5.2614C3.24736 5.2614 3.24736 5.2614 3.24736 5.2614C3.24736 5.2614 3.24736 5.2614 3.24736 5.2614C3.24736 5.2614 3.24736 5.2614 3.24736 5.2614C3.24736 5.2614 3.24736 5.2614 3.24736 5.2614C3.24736 5.2614 3.24736 5.2614 3.24736 5.2614C3.24736 5.2614 3.24736 5.2614 3.24736 5.2614C3.24736 5.2614 3.24736 5.2614 3.24736 5.2614C3.24736 5.2614 3.24736 5.2614 3.24736 5.2614C3.24736 5.2614 3.24736 5.2614 3.24736 5.2614C3.24736 5.2614 3.24736 5.2614 3.24736 5.2614C3.24736 5.2614 3.24736 5.2614 3.24736 5.2614C3.24736 5.2614 3.24736 5.2614 3.24736 5.2614C3.24736 5.2614 3.24736 5.2614 3.24736 5.2614C3.24736 5.2614 3.24736 5.2614 3.24736 5.2614C3.24735 5.2614 3.24735 5.2614 3.24735 5.2614C3.24735 5.2614 3.24735 5.2614 3.24735 5.2614C3.24735 5.2614 3.24735 5.2614 3.24735 5.2614C3.24735 5.2614 3.24735 5.2614 3.24735 5.2614C3.24735 5.2614 3.24735 5.2614 3.24735 5.2614C3.24735 5.2614 3.24735 5.2614 3.24735 5.2614C3.24735 5.2614 3.24735 5.2614 3.24735 5.2614C3.24735 5.2614 3.24735 5.2614 3.24735 5.2614C3.24735 5.2614 3.24735 5.2614 3.24735 5.2614C3.24735 5.2614 3.24735 5.2614 3.24735 5.2614C3.24735 5.2614 3.24735 5.2614 3.24735 5.2614C3.24735 5.2614 3.24735 5.2614 3.24735 5.2614C3.24735 5.2614 3.24735 5.2614 3.24735 5.26139C3.24735 5.26139 3.24735 5.26139 3.24735 5.26139C3.24735 5.26139 3.24735 5.26139 3.24735 5.26139C3.24735 5.26139 3.24735 5.26139 3.24735 5.26139C3.24735 5.26139 3.24735 5.26139 3.24735 5.26139C3.24735 5.26139 3.24735 5.26139 3.24735 5.26139C3.24735 5.26139 3.24735 5.26139 3.24735 5.26139C3.24735 5.26139 3.24735 5.26139 3.24735 5.26139C3.24735 5.26139 3.24735 5.26139 3.24735 5.26139C3.24735 5.26139 3.24735 5.26139 3.24735 5.26139C3.24735 5.26139 3.24735 5.26139 3.24735 5.26139C3.24735 5.26139 3.24735 5.26139 3.24735 5.26139C3.24735 5.26139 3.24735 5.26139 3.24735 5.26139C3.24735 5.26139 3.24735 5.26139 3.24735 5.26139C3.24735 5.26139 3.24735 5.26139 3.24735 5.26139C3.24735 5.26139 3.24735 5.26139 3.24735 5.26139C3.24735 5.26139 3.24735 5.26139 3.24735 5.26139C3.24735 5.26139 3.24735 5.26139 3.24735 5.26139C3.24735 5.26139 3.24735 5.26139 3.24735 5.26139C3.24735 5.26139 3.24735 5.26139 3.24734 5.26139C3.24734 5.26139 3.24734 5.26139 3.24734 5.26139C3.24734 5.26139 3.24734 5.26139 3.24734 5.26139C3.24734 5.26139 3.24734 5.26139 3.24734 5.26139C3.24734 5.26139 3.24734 5.26139 3.24734 5.26139C3.24734 5.26139 3.24734 5.26139 3.24734 5.26139C3.24734 5.26139 3.24734 5.26139 3.24734 5.26139C3.24734 5.26139 3.24734 5.26139 3.24734 5.26139C3.24734 5.26139 3.24734 5.26139 3.24734 5.26139C3.24734 5.26139 3.24734 5.26139 3.24734 5.26139C3.24734 5.26139 3.24734 5.26139 3.24734 5.26139C3.24734 5.26139 3.24734 5.26139 3.24734 5.26139C3.24734 5.26139 3.24734 5.26139 3.24734 5.26139C3.24734 5.26139 3.24734 5.26139 3.24734 5.26139C3.24734 5.26139 3.24734 5.26139 3.24734 5.26139C3.24734 5.26139 3.24734 5.26138 3.24734 5.26138C3.24734 5.26138 3.24734 5.26138 3.24734 5.26138C3.24734 5.26138 3.24734 5.26138 3.24734 5.26138C3.24734 5.26138 3.24734 5.26138 3.24734 5.26138C3.24734 5.26138 3.24734 5.26138 3.24734 5.26138C3.24734 5.26138 3.24734 5.26138 3.24734 5.26138C3.24734 5.26138 3.24734 5.26138 3.24734 5.26138C3.24734 5.26138 3.24734 5.26138 3.24734 5.26138C3.24734 5.26138 3.24734 5.26138 3.24734 5.26138C3.24734 5.26138 3.24734 5.26138 3.24734 5.26138C3.24734 5.26138 3.24734 5.26138 3.24734 5.26138C3.24734 5.26138 3.24734 5.26138 3.24734 5.26138C3.24734 5.26138 3.24734 5.26138 3.24734 5.26138C3.24734 5.26138 3.24734 5.26138 3.24734 5.26138C3.24734 5.26138 3.24734 5.26138 3.24734 5.26138C3.24734 5.26138 3.24734 5.26138 3.24734 5.26138C3.24734 5.26138 3.24734 5.26138 3.24734 5.26138C3.24734 5.26138 3.24734 5.26138 3.24734 5.26138C3.24734 5.26138 3.24734 5.26138 3.24734 5.26138C3.24734 5.26138 3.24734 5.26138 3.24734 5.26138C3.24734 5.26138 3.24734 5.26138 3.24734 5.26138C3.24734 5.26138 3.24734 5.26138 3.24734 5.26138C3.24734 5.26138 3.24733 5.26138 3.24733 5.26138C3.24733 5.26138 3.24733 5.26138 3.24733 5.26138C3.24733 5.26138 3.24733 5.26138 3.24733 5.26138C3.24733 5.26138 3.24733 5.26138 3.24733 5.26138C3.24733 5.26138 3.24733 5.26138 3.24733 5.26138C3.24733 5.26138 3.24733 5.26138 3.24733 5.26138C3.24733 5.26138 3.24733 5.26138 3.24733 5.26138C3.24733 5.26138 3.24733 5.26138 3.24733 5.26138C3.24733 5.26138 3.24733 5.26138 3.24733 5.26138C3.24733 5.26138 3.24733 5.26138 3.24733 5.26138C3.24733 5.26138 3.24733 5.26138 3.24733 5.26138C3.24733 5.26138 3.24733 5.26138 3.24733 5.26138C3.24733 5.26138 3.24733 5.26138 3.24733 5.26138C3.24733 5.26138 3.24733 5.26138 3.24733 5.26138C3.24733 5.26138 3.24733 5.26138 3.24733 5.26138C3.24733 5.26138 3.24733 5.26138 3.24733 5.26138C3.24733 5.26138 3.24733 5.26138 3.24733 5.26138C3.24733 5.26138 3.24733 5.26138 3.24733 5.26137C3.24733 5.26137 3.24733 5.26137 3.24733 5.26137C3.24733 5.26137 3.24733 5.26137 3.24733 5.26137C3.24733 5.26137 3.24733 5.26137 3.24733 5.26137C3.24733 5.26137 3.24733 5.26137 3.24733 5.26137C3.24733 5.26137 3.24733 5.26137 3.24733 5.26137C3.24733 5.26137 3.24733 5.26137 3.24733 5.26137C3.24733 5.26137 3.24733 5.26137 3.24733 5.26137C3.24733 5.26137 3.24733 5.26137 3.24733 5.26137C3.24733 5.26137 3.24733 5.26137 3.24733 5.26137C3.24733 5.26137 3.24733 5.26137 3.24733 5.26137C3.24733 5.26137 3.24733 5.26137 3.24733 5.26137C3.24733 5.26137 3.24733 5.26137 3.24733 5.26137C3.24733 5.26137 3.24733 5.26137 3.24733 5.26137C3.24733 5.26137 3.24733 5.26137 3.24733 5.26137C3.24733 5.26137 3.24733 5.26137 3.24733 5.26137C3.24733 5.26137 3.24733 5.26137 3.24733 5.26137C3.24733 5.26137 3.24733 5.26137 3.24733 5.26137C3.24733 5.26137 3.24733 5.26137 3.24733 5.26137C3.24733 5.26137 3.24733 5.26137 3.24733 5.26137C3.24733 5.26137 3.24733 5.26137 3.24733 5.26137C3.24733 5.26137 3.24733 5.26137 3.24733 5.26137C3.24733 5.26137 3.24733 5.26137 3.24733 5.26137C3.24733 5.26137 3.24733 5.26137 3.24733 5.26137C3.24733 5.26137 3.24733 5.26137 3.24733 5.26137C3.24733 5.26137 3.24733 5.26137 3.24733 5.26137C3.24733 5.26137 3.24733 5.26137 3.24732 5.26137C3.24732 5.26137 3.24732 5.26137 3.24732 5.26137C3.24732 5.26137 3.24732 5.26137 3.24732 5.26137C3.24732 5.26137 3.24732 5.26137 3.24732 5.26137C3.24732 5.26137 3.24732 5.26137 3.24732 5.26137C3.24732 5.26137 3.24732 5.26137 3.24732 5.26137C3.24732 5.26137 3.24732 5.26137 3.24732 5.26137C3.24732 5.26137 3.24732 5.26137 3.24732 5.26137C3.24732 5.26137 3.24732 5.26137 3.24732 5.26137C3.24732 5.26137 3.24732 5.26137 3.24732 5.26137C3.24732 5.26137 3.24732 5.26137 3.24732 5.26137C3.24732 5.26137 3.24732 5.26137 3.24732 5.26137C3.24732 5.26137 3.24732 5.26137 3.24732 5.26137C3.24732 5.26137 3.24732 5.26137 3.24732 5.26137C3.24732 5.26137 3.24732 5.26137 3.24732 5.26137C3.24732 5.26137 3.24732 5.26137 3.24732 5.26137C3.24732 5.26137 3.24732 5.26137 3.24732 5.26137C3.24732 5.26137 3.24732 5.26137 3.24732 5.26137C3.24732 5.26137 3.24732 5.26137 3.24732 5.26137C3.24732 5.26137 3.24732 5.26137 3.24732 5.26137C3.24732 5.26137 3.24732 5.26137 3.24732 5.26137C3.24732 5.26136 3.24732 5.26136 3.24732 5.26136C3.24732 5.26136 3.24732 5.26136 3.24732 5.26136C3.24732 5.26136 3.24732 5.26136 3.24732 5.26136C3.24732 5.26136 3.24732 5.26136 3.24732 5.26136C3.24732 5.26136 3.24732 5.26136 3.24732 5.26136C3.24732 5.26136 3.24732 5.26136 3.24732 5.26136C3.24732 5.26136 3.24732 5.26136 3.24732 5.26136C3.24732 5.26136 3.24732 5.26136 3.24732 5.26136C3.24732 5.26136 3.24732 5.26136 3.24732 5.26136C3.24732 5.26136 3.24732 5.26136 3.24732 5.26136C3.24732 5.26136 3.24732 5.26136 3.24732 5.26136C3.24732 5.26136 3.24732 5.26136 3.24732 5.26136C3.24732 5.26136 3.24732 5.26136 3.24732 5.26136C3.24732 5.26136 3.24732 5.26136 3.24732 5.26136C3.24732 5.26136 3.24732 5.26136 3.24732 5.26136C3.24732 5.26136 3.24732 5.26136 3.24732 5.26136C3.24732 5.26136 3.24732 5.26136 3.24732 5.26136C3.24732 5.26136 3.24732 5.26136 3.24732 5.26136C3.24732 5.26136 3.24732 5.26136 3.24732 5.26136C3.24732 5.26136 3.24732 5.26136 3.24732 5.26136C3.24732 5.26136 3.24732 5.26136 3.24732 5.26136C3.24732 5.26136 3.24732 5.26136 3.24732 5.26136C3.24732 5.26136 3.24732 5.26136 3.24732 5.26136C3.24732 5.26136 3.24732 5.26136 3.24732 5.26136C3.24732 5.26136 3.24732 5.26136 3.24732 5.26136C3.24732 5.26136 3.24732 5.26136 3.24732 5.26136C3.24732 5.26136 3.24732 5.26136 3.24732 5.26136C3.24732 5.26136 3.24732 5.26136 3.24732 5.26136C3.24732 5.26136 3.24732 5.26136 3.24732 5.26136C3.24732 5.26136 3.24732 5.26136 3.24732 5.26136C3.24732 5.26136 3.24732 5.26136 3.24732 5.26136C3.24732 5.26136 3.24732 5.26136 3.24731 5.26136C3.24731 5.26136 3.24731 5.26136 3.24731 5.26136C3.24731 5.26136 3.24731 5.26136 3.24731 5.26136C3.24731 5.26136 3.24731 5.26136 3.24731 5.26136C3.24731 5.26136 3.24731 5.26136 3.24731 5.26136C3.24731 5.26136 3.24731 5.26136 3.24731 5.26136C3.24731 5.26136 3.24731 5.26136 3.24731 5.26136C3.24731 5.26136 3.24731 5.26136 3.24731 5.26136C3.24731 5.26136 3.24731 5.26136 3.24731 5.26136C3.24731 5.26136 3.24731 5.26136 3.24731 5.26136C3.24731 5.26136 3.24731 5.26136 3.24731 5.26136C3.24731 5.26136 3.24731 5.26136 3.24731 5.26136C3.24731 5.26136 3.24731 5.26136 3.24731 5.26136C3.24731 5.26136 3.24731 5.26136 3.24731 5.26136C3.24731 5.26136 3.24731 5.26136 3.24731 5.26136C3.24731 5.26136 3.24731 5.26136 3.24731 5.26136C3.24731 5.26136 3.24731 5.26136 3.24731 5.26136C3.24731 5.26136 3.24731 5.26136 3.24731 5.26136C3.24731 5.26136 3.24731 5.26136 3.24731 5.26136C3.24731 5.26136 3.24731 5.26136 3.24731 5.26136C3.24731 5.26136 3.24731 5.26136 3.24731 5.26136C3.24731 5.26136 3.24731 5.26136 3.24731 5.26136C3.24731 5.26136 3.24731 5.26136 3.24731 5.26136C3.24731 5.26136 3.24731 5.26136 3.24731 5.26136C3.24731 5.26136 3.24731 5.26136 3.24731 5.26136C3.24731 5.26136 3.24731 5.26136 3.24731 5.26136C3.24731 5.26135 3.24731 5.26135 3.24731 5.26135C3.24731 5.26135 3.24731 5.26135 3.24731 5.26135C3.24731 5.26135 3.24731 5.26135 3.24731 5.26135C3.24731 5.26135 3.24731 5.26135 3.24731 5.26135C3.24731 5.26135 3.24731 5.26135 3.24731 5.26135C3.24731 5.26135 3.24731 5.26135 3.24731 5.26135C3.24731 5.26135 3.24731 5.26135 3.24731 5.26135C3.24731 5.26135 3.24731 5.26135 3.24731 5.26135C3.24731 5.26135 3.24731 5.26135 3.24731 5.26135C3.24731 5.26135 3.24731 5.26135 3.24731 5.26135C3.24731 5.26135 3.24731 5.26135 3.24731 5.26135C3.24731 5.26135 3.24731 5.26135 3.24731 5.26135C3.24731 5.26135 3.24731 5.26135 3.24731 5.26135C3.24731 5.26135 3.24731 5.26135 3.24731 5.26135C3.24731 5.26135 3.24731 5.26135 3.24731 5.26135C3.24731 5.26135 3.24731 5.26135 3.24731 5.26135C3.24731 5.26135 3.24731 5.26135 3.24731 5.26135C3.24731 5.26135 3.24731 5.26135 3.24731 5.26135C3.24731 5.26135 3.24731 5.26135 3.24731 5.26135C3.24731 5.26135 3.24731 5.26135 3.24731 5.26135C3.24731 5.26135 3.24731 5.26135 3.24731 5.26135C3.24731 5.26135 3.24731 5.26135 3.24731 5.26135C3.24731 5.26135 3.24731 5.26135 3.24731 5.26135C3.24731 5.26135 3.24731 5.26135 3.24731 5.26135C3.24731 5.26135 3.24731 5.26135 3.24731 5.26135C3.24731 5.26135 3.24731 5.26135 3.24731 5.26135C3.24731 5.26135 3.24731 5.26135 3.24731 5.26135C3.24731 5.26135 3.24731 5.26135 3.24731 5.26135C3.24731 5.26135 3.24731 5.26135 3.24731 5.26135C3.24731 5.26135 3.24731 5.26135 3.24731 5.26135C3.24731 5.26135 3.24731 5.26135 3.24731 5.26135C3.24731 5.26135 3.24731 5.26135 3.24731 5.26135C3.24731 5.26135 3.24731 5.26135 3.24731 5.26135C3.24731 5.26135 3.24731 5.26135 3.24731 5.26135C3.24731 5.26135 3.24731 5.26135 3.24731 5.26135C3.24731 5.26135 3.24731 5.26135 3.24731 5.26135C3.24731 5.26135 3.24731 5.26135 3.24731 5.26135C3.24731 5.26135 3.24731 5.26135 3.24731 5.26135C3.24731 5.26135 3.2473 5.26135 3.2473 5.26135C3.2473 5.26135 3.2473 5.26135 3.2473 5.26135C3.2473 5.26135 3.2473 5.26135 3.2473 5.26135C3.2473 5.26135 3.2473 5.26135 3.2473 5.26135C3.2473 5.26135 3.2473 5.26135 3.2473 5.26135C3.2473 5.26135 3.2473 5.26135 3.2473 5.26135C3.2473 5.26135 3.2473 5.26135 3.2473 5.26135C3.2473 5.26135 3.2473 5.26135 3.2473 5.26135C3.2473 5.26135 3.2473 5.26135 3.2473 5.26135C3.2473 5.26135 3.2473 5.26135 3.2473 5.26135C3.2473 5.26135 3.2473 5.26135 3.2473 5.26135C3.2473 5.26135 3.2473 5.26135 3.2473 5.26135C3.2473 5.26135 3.2473 5.26135 3.2473 5.26135C3.2473 5.26135 3.2473 5.26135 3.2473 5.26135C3.2473 5.26135 3.2473 5.26135 3.2473 5.26135C3.2473 5.26135 3.2473 5.26135 3.2473 5.26135C3.2473 5.26135 3.2473 5.26135 3.2473 5.26135C3.2473 5.26135 3.2473 5.26135 3.2473 5.26135C3.2473 5.26135 3.2473 5.26135 3.2473 5.26135C3.2473 5.26135 3.2473 5.26135 3.2473 5.26135C3.2473 5.26135 3.2473 5.26135 3.2473 5.26135C3.2473 5.26135 3.2473 5.26135 3.2473 5.26135C3.2473 5.26135 3.2473 5.26135 3.2473 5.26135C3.2473 5.26135 3.2473 5.26135 3.2473 5.26135C3.2473 5.26135 3.2473 5.26135 3.2473 5.26135C3.2473 5.26135 3.2473 5.26135 3.2473 5.26135C3.2473 5.26135 3.2473 5.26135 3.2473 5.26135C3.2473 5.26135 3.2473 5.26135 3.2473 5.26135C3.2473 5.26135 3.2473 5.26135 3.2473 5.26135C3.2473 5.26135 3.2473 5.26135 3.2473 5.26135C3.2473 5.26134 3.2473 5.26134 3.2473 5.26134C3.2473 5.26134 3.2473 5.26134 3.2473 5.26134C3.2473 5.26134 3.2473 5.26134 3.2473 5.26134C3.2473 5.26134 3.2473 5.26134 3.2473 5.26134C3.2473 5.26134 3.2473 5.26134 3.2473 5.26134C3.2473 5.26134 3.2473 5.26134 3.2473 5.26134C3.2473 5.26134 3.2473 5.26134 3.2473 5.26134C3.2473 5.26134 3.2473 5.26134 3.2473 5.26134C3.2473 5.26134 3.2473 5.26134 3.2473 5.26134C3.2473 5.26134 3.2473 5.26134 3.2473 5.26134C3.2473 5.26134 3.2473 5.26134 3.2473 5.26134C3.2473 5.26134 3.2473 5.26134 3.2473 5.26134C3.2473 5.26134 3.2473 5.26134 3.2473 5.26134C3.2473 5.26134 3.2473 5.26134 3.2473 5.26134C3.2473 5.26134 3.2473 5.26134 3.2473 5.26134C3.2473 5.26134 3.2473 5.26134 3.2473 5.26134C3.2473 5.26134 3.2473 5.26134 3.2473 5.26134C3.2473 5.26134 3.2473 5.26134 3.2473 5.26134C3.2473 5.26134 3.2473 5.26134 3.2473 5.26134C3.2473 5.26134 3.2473 5.26134 3.2473 5.26134C3.2473 5.26134 3.2473 5.26134 3.2473 5.26134C3.2473 5.26134 3.2473 5.26134 3.2473 5.26134C3.2473 5.26134 3.2473 5.26134 3.2473 5.26134C3.2473 5.26134 3.2473 5.26134 3.2473 5.26134C3.2473 5.26134 3.2473 5.26134 3.2473 5.26134C3.2473 5.26134 3.2473 5.26134 3.2473 5.26134C3.2473 5.26134 3.2473 5.26134 3.2473 5.26134C3.2473 5.26134 3.2473 5.26134 3.2473 5.26134C3.2473 5.26134 3.2473 5.26134 3.2473 5.26134C3.2473 5.26134 3.2473 5.26134 3.2473 5.26134C3.2473 5.26134 3.2473 5.26134 3.2473 5.26134C3.2473 5.26134 3.2473 5.26134 3.2473 5.26134C3.2473 5.26134 3.2473 5.26134 3.2473 5.26134C3.2473 5.26134 3.2473 5.26134 3.2473 5.26134C3.2473 5.26134 3.2473 5.26134 3.2473 5.26134C3.2473 5.26134 3.2473 5.26134 3.2473 5.26134C3.2473 5.26134 3.2473 5.26134 3.2473 5.26134C3.2473 5.26134 3.2473 5.26134 3.2473 5.26134C3.2473 5.26134 3.2473 5.26134 3.2473 5.26134C3.2473 5.26134 3.2473 5.26134 3.2473 5.26134C3.2473 5.26134 3.2473 5.26134 3.2473 5.26134C3.2473 5.26134 3.2473 5.26134 3.2473 5.26134C3.2473 5.26134 3.2473 5.26134 3.2473 5.26134C3.2473 5.26134 3.2473 5.26134 3.24729 5.26134C3.24729 5.26134 3.24729 5.26134 3.24729 5.26134C3.24729 5.26134 3.24729 5.26134 3.24729 5.26134C3.24729 5.26134 3.24729 5.26134 3.24729 5.26134C3.24729 5.26134 3.24729 5.26134 3.24729 5.26134C3.24729 5.26134 3.24729 5.26134 3.24729 5.26134C3.24729 5.26134 3.24729 5.26134 3.24729 5.26134C3.24729 5.26134 3.24729 5.26134 3.24729 5.26134C3.24729 5.26134 3.24729 5.26134 3.24729 5.26134C3.24729 5.26134 3.24729 5.26134 3.24729 5.26134C3.24729 5.26134 3.24729 5.26134 3.24729 5.26134C3.24729 5.26134 3.24729 5.26134 3.24729 5.26134C3.24729 5.26134 3.24729 5.26134 3.24729 5.26134C3.24729 5.26134 3.24729 5.26134 3.24729 5.26134C3.24729 5.26134 3.24729 5.26134 3.24729 5.26134C3.24729 5.26134 3.24729 5.26134 3.24729 5.26134C3.24729 5.26134 3.24729 5.26134 3.24729 5.26134C3.24729 5.26134 3.24729 5.26134 3.24729 5.26134C3.24729 5.26134 3.24729 5.26134 3.24729 5.26134C3.24729 5.26134 3.24729 5.26134 3.24729 5.26134C3.24729 5.26134 3.24729 5.26134 3.24729 5.26134C3.24729 5.26134 3.24729 5.26134 3.24729 5.26134C3.24729 5.26134 3.24729 5.26134 3.24729 5.26134C3.24729 5.26134 3.24729 5.26134 3.24729 5.26134C3.24729 5.26134 3.24729 5.26134 3.24729 5.26134C3.24729 5.26134 3.24729 5.26134 3.24729 5.26134C3.24729 5.26134 3.24729 5.26134 3.24729 5.26134C3.24729 5.26134 3.24729 5.26134 3.24729 5.26134C3.24729 5.26134 3.24729 5.26134 3.24729 5.26134C3.24729 5.26134 3.24729 5.26134 3.24729 5.26134C3.24729 5.26134 3.24729 5.26134 3.24729 5.26134C3.24729 5.26134 3.24729 5.26134 3.24729 5.26133C3.24729 5.26133 3.24729 5.26133 3.24729 5.26133C3.24729 5.26133 3.24729 5.26133 3.24729 5.26133C3.24729 5.26133 3.24729 5.26133 3.24729 5.26133C3.24729 5.26133 3.24729 5.26133 3.24729 5.26133C3.24729 5.26133 3.24729 5.26133 3.24729 5.26133C3.24729 5.26133 3.24729 5.26133 3.24729 5.26133C3.24729 5.26133 3.24729 5.26133 3.24729 5.26133C3.24729 5.26133 3.24729 5.26133 3.24729 5.26133C3.24729 5.26133 3.24729 5.26133 3.24729 5.26133C3.24729 5.26133 3.24729 5.26133 3.24729 5.26133C3.24729 5.26133 3.24729 5.26133 3.24729 5.26133C3.24729 5.26133 3.24729 5.26133 3.24729 5.26133C3.24729 5.26133 3.24729 5.26133 3.24729 5.26133C3.24729 5.26133 3.24729 5.26133 3.24729 5.26133C3.24729 5.26133 3.24729 5.26133 3.24729 5.26133C3.24729 5.26133 3.24729 5.26133 3.24729 5.26133C3.24729 5.26133 3.24729 5.26133 3.24729 5.26133C3.24729 5.26133 3.24729 5.26133 3.24729 5.26133C3.24729 5.26133 3.24729 5.26133 3.24729 5.26133C3.24729 5.26133 3.24729 5.26133 3.24729 5.26133C3.24729 5.26133 3.24729 5.26133 3.24729 5.26133C3.24729 5.26133 3.24729 5.26133 3.24729 5.26133C3.24729 5.26133 3.24729 5.26133 3.24729 5.26133C3.24729 5.26133 3.24729 5.26133 3.24729 5.26133C3.24729 5.26133 3.24729 5.26133 3.24729 5.26133C3.24729 5.26133 3.24729 5.26133 3.24729 5.26133C3.24729 5.26133 3.24729 5.26133 3.24729 5.26133C3.24729 5.26133 3.24729 5.26133 3.24729 5.26133C3.24729 5.26133 3.24729 5.26133 3.24729 5.26133C3.24729 5.26133 3.24729 5.26133 3.24729 5.26133C3.24729 5.26133 3.24729 5.26133 3.24729 5.26133C3.24729 5.26133 3.24729 5.26133 3.24729 5.26133C3.24729 5.26133 3.24729 5.26133 3.24729 5.26133C3.24729 5.26133 3.24729 5.26133 3.24729 5.26133C3.24729 5.26133 3.24729 5.26133 3.24729 5.26133C3.24729 5.26133 3.24729 5.26133 3.24729 5.26133C3.24729 5.26133 3.24729 5.26133 3.24729 5.26133C3.24729 5.26133 3.24729 5.26133 3.24729 5.26133C3.24729 5.26133 3.24729 5.26133 3.24729 5.26133C3.24729 5.26133 3.24729 5.26133 3.24729 5.26133C3.24729 5.26133 3.24729 5.26133 3.24729 5.26133C3.24728 5.26133 3.24728 5.26133 3.24728 5.26133C3.24728 5.26133 3.24728 5.26133 3.24728 5.26133C3.24728 5.26133 3.24728 5.26133 3.24728 5.26133C3.24728 5.26133 3.24728 5.26133 3.24728 5.26133C3.24728 5.26133 3.24728 5.26133 3.24728 5.26133C3.24728 5.26133 3.24728 5.26133 3.24728 5.26133C3.24728 5.26133 3.24728 5.26133 3.24728 5.26133C3.24728 5.26133 3.24728 5.26133 3.24728 5.26133C3.24728 5.26133 3.24728 5.26133 3.24728 5.26133C3.24728 5.26133 3.24728 5.26133 3.24728 5.26133C3.24728 5.26133 3.24728 5.26133 3.24728 5.26133C3.24728 5.26133 3.24728 5.26133 3.24728 5.26133C3.24728 5.26133 3.24728 5.26133 3.24728 5.26133C3.24728 5.26133 3.24728 5.26133 3.24728 5.26133C3.24728 5.26133 3.24728 5.26133 3.24728 5.26133C3.24728 5.26133 3.24728 5.26133 3.24728 5.26133C3.24728 5.26133 3.24728 5.26133 3.24728 5.26133C3.24728 5.26133 3.24728 5.26133 3.24728 5.26133C3.24728 5.26133 3.24728 5.26133 3.24728 5.26133C3.24728 5.26133 3.24728 5.26133 3.24728 5.26133C3.24728 5.26133 3.24728 5.26133 3.24728 5.26133C3.24728 5.26133 3.24728 5.26133 3.24728 5.26133C3.24728 5.26133 3.24728 5.26133 3.24728 5.26133C3.24728 5.26133 3.24728 5.26133 3.24728 5.26133C3.24728 5.26133 3.24728 5.26133 3.24728 5.26133C3.24728 5.26133 3.24728 5.26133 3.24728 5.26133C3.24728 5.26133 3.24728 5.26133 3.24728 5.26133C3.24728 5.26133 3.24728 5.26133 3.24728 5.26132C3.24728 5.26132 3.24728 5.26132 3.24728 5.26132C3.24728 5.26132 3.24728 5.26132 3.24728 5.26132C3.24728 5.26132 3.24728 5.26132 3.24728 5.26132C3.24728 5.26132 3.24728 5.26132 3.24728 5.26132C3.24728 5.26132 3.24728 5.26132 3.24728 5.26132C3.24728 5.26132 3.24728 5.26132 3.24728 5.26132C3.24728 5.26132 3.24728 5.26132 3.24728 5.26132C3.24728 5.26132 3.24728 5.26132 3.24728 5.26132C3.24728 5.26132 3.24728 5.26132 3.24728 5.26132C3.24728 5.26132 3.24728 5.26132 3.24728 5.26132C3.24728 5.26132 3.24728 5.26132 3.24728 5.26132C3.24728 5.26132 3.24728 5.26132 3.24728 5.26132C3.24728 5.26132 3.24728 5.26132 3.24728 5.26132C3.24728 5.26132 3.24728 5.26132 3.24728 5.26132C3.24728 5.26132 3.24728 5.26132 3.24728 5.26132C3.24728 5.26132 3.24728 5.26132 3.24728 5.26132C3.24728 5.26132 3.24728 5.26132 3.24728 5.26132C3.24728 5.26132 3.24728 5.26132 3.24728 5.26132C3.24728 5.26132 3.24728 5.26132 3.24728 5.26132C3.24728 5.26132 3.24728 5.26132 3.24728 5.26132C3.24728 5.26132 3.24728 5.26132 3.24728 5.26132C3.24728 5.26132 3.24728 5.26132 3.24728 5.26132C3.24728 5.26132 3.24728 5.26132 3.24728 5.26132C3.24728 5.26132 3.24728 5.26132 3.24728 5.26132C3.24728 5.26132 3.24728 5.26132 3.24728 5.26132C3.24728 5.26132 3.24728 5.26132 3.24728 5.26132C3.24728 5.26132 3.24728 5.26132 3.24728 5.26132C3.24728 5.26132 3.24728 5.26132 3.24728 5.26132C3.24728 5.26132 3.24728 5.26132 3.24728 5.26132C3.24728 5.26132 3.24728 5.26132 3.24728 5.26132C3.24728 5.26132 3.24728 5.26132 3.24728 5.26132C3.24728 5.26132 3.24728 5.26132 3.24728 5.26132C3.24728 5.26132 3.24728 5.26132 3.24728 5.26132C3.24728 5.26132 3.24728 5.26132 3.24728 5.26132C3.24728 5.26132 3.24728 5.26132 3.24727 5.26132C3.24727 5.26132 3.24727 5.26132 3.24727 5.26132C3.24727 5.26132 3.24727 5.26132 3.24727 5.26132C3.24727 5.26132 3.24727 5.26132 3.24727 5.26132C3.24727 5.26132 3.24727 5.26132 3.24727 5.26132C3.24727 5.26132 3.24727 5.26132 3.24727 5.26132C3.24727 5.26132 3.24727 5.26132 3.24727 5.26132C3.24727 5.26132 3.24727 5.26132 3.24727 5.26132C3.24727 5.26132 3.24727 5.26132 3.24727 5.26132C3.24727 5.26132 3.24727 5.26132 3.24727 5.26132C3.24727 5.26132 3.24727 5.26132 3.24727 5.26132C3.24727 5.26132 3.24727 5.26132 3.24727 5.26132C3.24727 5.26132 3.24727 5.26132 3.24727 5.26132C3.24727 5.26132 3.24727 5.26132 3.24727 5.26132C3.24727 5.26132 3.24727 5.26132 3.24727 5.26132C3.24727 5.26132 3.24727 5.26132 3.24727 5.26132C3.24727 5.26132 3.24727 5.26132 3.24727 5.26132C3.24727 5.26132 3.24727 5.26132 3.24727 5.26132C3.24727 5.26132 3.24727 5.26132 3.24727 5.26132C3.24727 5.26132 3.24727 5.26132 3.24727 5.26132C3.24727 5.26132 3.24727 5.26132 3.24727 5.26132C3.24727 5.26132 3.24727 5.26132 3.24727 5.26132C3.24727 5.26132 3.24727 5.26132 3.24727 5.26132C3.24727 5.26132 3.24727 5.26131 3.24727 5.26131C3.24727 5.26131 3.24727 5.26131 3.24727 5.26131C3.24727 5.26131 3.24727 5.26131 3.24727 5.26131C3.24727 5.26131 3.24727 5.26131 3.24727 5.26131C3.24727 5.26131 3.24727 5.26131 3.24727 5.26131C3.24727 5.26131 3.24727 5.26131 3.24727 5.26131C3.24727 5.26131 3.24727 5.26131 3.24727 5.26131C3.24727 5.26131 3.24727 5.26131 3.24727 5.26131C3.24727 5.26131 3.24727 5.26131 3.24727 5.26131C3.24727 5.26131 3.24727 5.26131 3.24727 5.26131L1.83306 6.67553C1.83306 6.67553 1.83306 6.67553 1.83306 6.67553C1.83306 6.67553 1.83306 6.67553 1.83306 6.67553C1.83306 6.67553 1.83306 6.67553 1.83306 6.67553C1.83306 6.67553 1.83306 6.67553 1.83306 6.67553C1.83306 6.67553 1.83306 6.67553 1.83306 6.67553C1.83306 6.67553 1.83306 6.67553 1.83306 6.67553C1.83306 6.67553 1.83306 6.67553 1.83306 6.67553C1.83306 6.67553 1.83306 6.67553 1.83306 6.67553C1.83306 6.67553 1.83306 6.67553 1.83306 6.67553C1.83306 6.67553 1.83306 6.67553 1.83306 6.67553C1.83306 6.67553 1.83306 6.67553 1.83306 6.67553C1.83306 6.67553 1.83306 6.67553 1.83306 6.67553C1.83306 6.67553 1.83306 6.67553 1.83306 6.67553C1.83306 6.67553 1.83306 6.67553 1.83306 6.67553C1.83306 6.67553 1.83306 6.67553 1.83306 6.67553C1.83306 6.67553 1.83306 6.67553 1.83306 6.67553C1.83306 6.67553 1.83306 6.67553 1.83306 6.67553C1.83306 6.67553 1.83306 6.67553 1.83306 6.67553C1.83306 6.67553 1.83306 6.67553 1.83306 6.67553C1.83306 6.67553 1.83306 6.67553 1.83306 6.67553C1.83306 6.67553 1.83306 6.67553 1.83306 6.67553C1.83306 6.67553 1.83306 6.67553 1.83306 6.67553C1.83306 6.67553 1.83306 6.67553 1.83306 6.67553C1.83306 6.67553 1.83306 6.67553 1.83306 6.67553C1.83306 6.67553 1.83306 6.67553 1.83306 6.67553C1.83306 6.67553 1.83306 6.67553 1.83306 6.67553C1.83306 6.67553 1.83306 6.67553 1.83306 6.67553C1.83306 6.67553 1.83306 6.67553 1.83306 6.67553C1.83306 6.67553 1.83306 6.67553 1.83306 6.67553C1.83306 6.67553 1.83306 6.67553 1.83306 6.67553C1.83306 6.67553 1.83306 6.67553 1.83306 6.67553C1.83306 6.67553 1.83306 6.67553 1.83306 6.67553C1.83306 6.67553 1.83306 6.67553 1.83306 6.67553C1.83306 6.67553 1.83306 6.67553 1.83306 6.67553C1.83306 6.67553 1.83306 6.67553 1.83306 6.67553C1.83306 6.67553 1.83306 6.67553 1.83306 6.67553C1.83306 6.67553 1.83306 6.67553 1.83306 6.67553C1.83306 6.67553 1.83306 6.67553 1.83306 6.67553C1.83306 6.67553 1.83306 6.67553 1.83306 6.67553C1.83306 6.67553 1.83306 6.67553 1.83306 6.67553C1.83306 6.67553 1.83306 6.67553 1.83306 6.67553C1.83306 6.67553 1.83306 6.67553 1.83306 6.67553C1.83306 6.67553 1.83306 6.67553 1.83306 6.67553C1.83306 6.67553 1.83306 6.67553 1.83306 6.67553C1.83306 6.67553 1.83306 6.67553 1.83306 6.67553C1.83306 6.67553 1.83306 6.67553 1.83306 6.67554C1.83306 6.67554 1.83306 6.67554 1.83306 6.67554C1.83306 6.67554 1.83306 6.67554 1.83306 6.67554C1.83306 6.67554 1.83306 6.67554 1.83306 6.67554C1.83306 6.67554 1.83306 6.67554 1.83306 6.67554C1.83306 6.67554 1.83306 6.67554 1.83306 6.67554C1.83306 6.67554 1.83306 6.67554 1.83306 6.67554C1.83306 6.67554 1.83307 6.67554 1.83307 6.67554C1.83307 6.67554 1.83307 6.67554 1.83307 6.67554C1.83307 6.67554 1.83307 6.67554 1.83307 6.67554C1.83307 6.67554 1.83307 6.67554 1.83307 6.67554C1.83307 6.67554 1.83307 6.67554 1.83307 6.67554C1.83307 6.67554 1.83307 6.67554 1.83307 6.67554C1.83307 6.67554 1.83307 6.67554 1.83307 6.67554C1.83307 6.67554 1.83307 6.67554 1.83307 6.67554C1.83307 6.67554 1.83307 6.67554 1.83307 6.67554C1.83307 6.67554 1.83307 6.67554 1.83307 6.67554C1.83307 6.67554 1.83307 6.67554 1.83307 6.67554C1.83307 6.67554 1.83307 6.67554 1.83307 6.67554C1.83307 6.67554 1.83307 6.67554 1.83307 6.67554C1.83307 6.67554 1.83307 6.67554 1.83307 6.67554C1.83307 6.67554 1.83307 6.67554 1.83307 6.67554C1.83307 6.67554 1.83307 6.67554 1.83307 6.67554C1.83307 6.67554 1.83307 6.67554 1.83307 6.67554C1.83307 6.67554 1.83307 6.67554 1.83307 6.67554C1.83307 6.67554 1.83307 6.67554 1.83307 6.67554C1.83307 6.67554 1.83307 6.67554 1.83307 6.67554C1.83307 6.67554 1.83307 6.67554 1.83307 6.67554C1.83307 6.67554 1.83307 6.67554 1.83307 6.67554C1.83307 6.67554 1.83307 6.67554 1.83307 6.67554C1.83307 6.67554 1.83307 6.67554 1.83307 6.67554C1.83307 6.67554 1.83307 6.67554 1.83307 6.67554C1.83307 6.67554 1.83307 6.67554 1.83307 6.67554C1.83307 6.67554 1.83307 6.67554 1.83307 6.67554C1.83307 6.67554 1.83307 6.67554 1.83307 6.67554C1.83307 6.67554 1.83307 6.67554 1.83307 6.67554C1.83307 6.67554 1.83307 6.67554 1.83307 6.67554C1.83307 6.67554 1.83307 6.67554 1.83307 6.67554C1.83307 6.67554 1.83307 6.67554 1.83307 6.67554C1.83307 6.67554 1.83307 6.67554 1.83307 6.67554C1.83307 6.67554 1.83307 6.67554 1.83307 6.67554C1.83307 6.67554 1.83307 6.67554 1.83307 6.67554C1.83307 6.67554 1.83307 6.67554 1.83307 6.67554C1.83307 6.67554 1.83307 6.67554 1.83307 6.67554C1.83307 6.67554 1.83307 6.67554 1.83307 6.67554C1.83307 6.67554 1.83307 6.67554 1.83307 6.67554C1.83307 6.67554 1.83307 6.67554 1.83307 6.67554C1.83307 6.67554 1.83307 6.67554 1.83307 6.67554C1.83307 6.67554 1.83307 6.67554 1.83307 6.67554C1.83307 6.67554 1.83307 6.67554 1.83307 6.67554C1.83307 6.67554 1.83307 6.67554 1.83307 6.67554C1.83307 6.67554 1.83307 6.67554 1.83307 6.67554C1.83307 6.67554 1.83307 6.67554 1.83307 6.67554C1.83307 6.67554 1.83307 6.67554 1.83307 6.67554C1.83307 6.67554 1.83307 6.67554 1.83307 6.67554C1.83307 6.67554 1.83307 6.67554 1.83307 6.67554C1.83307 6.67554 1.83307 6.67554 1.83307 6.67554C1.83307 6.67554 1.83307 6.67554 1.83307 6.67554C1.83307 6.67554 1.83307 6.67554 1.83307 6.67554C1.83307 6.67554 1.83307 6.67554 1.83307 6.67554C1.83307 6.67554 1.83307 6.67554 1.83307 6.67554C1.83307 6.67554 1.83307 6.67554 1.83307 6.67554C1.83307 6.67554 1.83307 6.67554 1.83307 6.67554C1.83307 6.67554 1.83307 6.67554 1.83307 6.67554C1.83307 6.67554 1.83307 6.67554 1.83307 6.67554C1.83307 6.67554 1.83307 6.67554 1.83307 6.67554C1.83307 6.67555 1.83307 6.67555 1.83307 6.67555C1.83307 6.67555 1.83307 6.67555 1.83307 6.67555C1.83307 6.67555 1.83307 6.67555 1.83307 6.67555C1.83307 6.67555 1.83307 6.67555 1.83307 6.67555C1.83307 6.67555 1.83307 6.67555 1.83307 6.67555C1.83307 6.67555 1.83307 6.67555 1.83307 6.67555C1.83307 6.67555 1.83307 6.67555 1.83307 6.67555C1.83307 6.67555 1.83307 6.67555 1.83308 6.67555C1.83308 6.67555 1.83308 6.67555 1.83308 6.67555C1.83308 6.67555 1.83308 6.67555 1.83308 6.67555C1.83308 6.67555 1.83308 6.67555 1.83308 6.67555C1.83308 6.67555 1.83308 6.67555 1.83308 6.67555C1.83308 6.67555 1.83308 6.67555 1.83308 6.67555C1.83308 6.67555 1.83308 6.67555 1.83308 6.67555C1.83308 6.67555 1.83308 6.67555 1.83308 6.67555C1.83308 6.67555 1.83308 6.67555 1.83308 6.67555C1.83308 6.67555 1.83308 6.67555 1.83308 6.67555C1.83308 6.67555 1.83308 6.67555 1.83308 6.67555C1.83308 6.67555 1.83308 6.67555 1.83308 6.67555C1.83308 6.67555 1.83308 6.67555 1.83308 6.67555C1.83308 6.67555 1.83308 6.67555 1.83308 6.67555C1.83308 6.67555 1.83308 6.67555 1.83308 6.67555C1.83308 6.67555 1.83308 6.67555 1.83308 6.67555C1.83308 6.67555 1.83308 6.67555 1.83308 6.67555C1.83308 6.67555 1.83308 6.67555 1.83308 6.67555C1.83308 6.67555 1.83308 6.67555 1.83308 6.67555C1.83308 6.67555 1.83308 6.67555 1.83308 6.67555C1.83308 6.67555 1.83308 6.67555 1.83308 6.67555C1.83308 6.67555 1.83308 6.67555 1.83308 6.67555C1.83308 6.67555 1.83308 6.67555 1.83308 6.67555C1.83308 6.67555 1.83308 6.67555 1.83308 6.67555C1.83308 6.67555 1.83308 6.67555 1.83308 6.67555C1.83308 6.67555 1.83308 6.67555 1.83308 6.67555C1.83308 6.67555 1.83308 6.67555 1.83308 6.67555C1.83308 6.67555 1.83308 6.67555 1.83308 6.67555C1.83308 6.67555 1.83308 6.67555 1.83308 6.67555C1.83308 6.67555 1.83308 6.67555 1.83308 6.67555C1.83308 6.67555 1.83308 6.67555 1.83308 6.67555C1.83308 6.67555 1.83308 6.67555 1.83308 6.67555C1.83308 6.67555 1.83308 6.67555 1.83308 6.67555C1.83308 6.67555 1.83308 6.67555 1.83308 6.67555C1.83308 6.67555 1.83308 6.67555 1.83308 6.67555C1.83308 6.67555 1.83308 6.67555 1.83308 6.67555C1.83308 6.67555 1.83308 6.67555 1.83308 6.67555C1.83308 6.67555 1.83308 6.67555 1.83308 6.67555C1.83308 6.67555 1.83308 6.67555 1.83308 6.67555C1.83308 6.67555 1.83308 6.67555 1.83308 6.67555C1.83308 6.67555 1.83308 6.67555 1.83308 6.67555C1.83308 6.67555 1.83308 6.67555 1.83308 6.67555C1.83308 6.67555 1.83308 6.67555 1.83308 6.67555C1.83308 6.67555 1.83308 6.67555 1.83308 6.67555C1.83308 6.67555 1.83308 6.67555 1.83308 6.67555C1.83308 6.67555 1.83308 6.67555 1.83308 6.67555C1.83308 6.67555 1.83308 6.67555 1.83308 6.67555C1.83308 6.67555 1.83308 6.67555 1.83308 6.67555C1.83308 6.67555 1.83308 6.67555 1.83308 6.67555C1.83308 6.67555 1.83308 6.67555 1.83308 6.67555C1.83308 6.67555 1.83308 6.67555 1.83308 6.67555C1.83308 6.67555 1.83308 6.67555 1.83308 6.67555C1.83308 6.67555 1.83308 6.67555 1.83308 6.67555C1.83308 6.67555 1.83308 6.67555 1.83308 6.67555C1.83308 6.67555 1.83308 6.67555 1.83308 6.67555C1.83308 6.67555 1.83308 6.67555 1.83308 6.67555C1.83308 6.67555 1.83308 6.67555 1.83308 6.67555C1.83308 6.67555 1.83308 6.67555 1.83308 6.67555C1.83308 6.67555 1.83308 6.67555 1.83308 6.67555C1.83308 6.67555 1.83308 6.67555 1.83308 6.67555C1.83308 6.67555 1.83308 6.67555 1.83308 6.67555C1.83308 6.67555 1.83308 6.67555 1.83308 6.67555C1.83308 6.67555 1.83308 6.67555 1.83308 6.67555C1.83308 6.67555 1.83308 6.67555 1.83308 6.67555C1.83308 6.67555 1.83308 6.67555 1.83308 6.67555C1.83308 6.67555 1.83308 6.67555 1.83308 6.67555C1.83308 6.67555 1.83308 6.67555 1.83308 6.67555C1.83308 6.67556 1.83308 6.67556 1.83308 6.67556C1.83308 6.67556 1.83308 6.67556 1.83308 6.67556C1.83308 6.67556 1.83308 6.67556 1.83308 6.67556C1.83308 6.67556 1.83308 6.67556 1.83308 6.67556C1.83308 6.67556 1.83308 6.67556 1.83308 6.67556C1.83308 6.67556 1.83308 6.67556 1.83308 6.67556C1.83308 6.67556 1.83308 6.67556 1.83308 6.67556C1.83308 6.67556 1.83308 6.67556 1.83308 6.67556C1.83309 6.67556 1.83309 6.67556 1.83309 6.67556C1.83309 6.67556 1.83309 6.67556 1.83309 6.67556C1.83309 6.67556 1.83309 6.67556 1.83309 6.67556C1.83309 6.67556 1.83309 6.67556 1.83309 6.67556C1.83309 6.67556 1.83309 6.67556 1.83309 6.67556C1.83309 6.67556 1.83309 6.67556 1.83309 6.67556C1.83309 6.67556 1.83309 6.67556 1.83309 6.67556C1.83309 6.67556 1.83309 6.67556 1.83309 6.67556C1.83309 6.67556 1.83309 6.67556 1.83309 6.67556C1.83309 6.67556 1.83309 6.67556 1.83309 6.67556C1.83309 6.67556 1.83309 6.67556 1.83309 6.67556C1.83309 6.67556 1.83309 6.67556 1.83309 6.67556C1.83309 6.67556 1.83309 6.67556 1.83309 6.67556C1.83309 6.67556 1.83309 6.67556 1.83309 6.67556C1.83309 6.67556 1.83309 6.67556 1.83309 6.67556C1.83309 6.67556 1.83309 6.67556 1.83309 6.67556C1.83309 6.67556 1.83309 6.67556 1.83309 6.67556C1.83309 6.67556 1.83309 6.67556 1.83309 6.67556C1.83309 6.67556 1.83309 6.67556 1.83309 6.67556C1.83309 6.67556 1.83309 6.67556 1.83309 6.67556C1.83309 6.67556 1.83309 6.67556 1.83309 6.67556C1.83309 6.67556 1.83309 6.67556 1.83309 6.67556C1.83309 6.67556 1.83309 6.67556 1.83309 6.67556C1.83309 6.67556 1.83309 6.67556 1.83309 6.67556C1.83309 6.67556 1.83309 6.67556 1.83309 6.67556C1.83309 6.67556 1.83309 6.67556 1.83309 6.67556C1.83309 6.67556 1.83309 6.67556 1.83309 6.67556C1.83309 6.67556 1.83309 6.67556 1.83309 6.67556C1.83309 6.67556 1.83309 6.67556 1.83309 6.67556C1.83309 6.67556 1.83309 6.67556 1.83309 6.67556C1.83309 6.67556 1.83309 6.67556 1.83309 6.67556C1.83309 6.67556 1.83309 6.67556 1.83309 6.67556C1.83309 6.67556 1.83309 6.67556 1.83309 6.67556C1.83309 6.67556 1.83309 6.67556 1.83309 6.67556C1.83309 6.67556 1.83309 6.67556 1.83309 6.67556C1.83309 6.67556 1.83309 6.67556 1.83309 6.67556C1.83309 6.67556 1.83309 6.67556 1.83309 6.67556C1.83309 6.67556 1.83309 6.67556 1.83309 6.67556C1.83309 6.67556 1.83309 6.67556 1.83309 6.67556C1.83309 6.67556 1.83309 6.67556 1.83309 6.67556C1.83309 6.67556 1.83309 6.67556 1.83309 6.67556C1.83309 6.67556 1.83309 6.67556 1.83309 6.67556C1.83309 6.67556 1.83309 6.67556 1.83309 6.67556C1.83309 6.67556 1.83309 6.67556 1.83309 6.67556C1.83309 6.67556 1.83309 6.67556 1.83309 6.67556C1.83309 6.67556 1.83309 6.67556 1.83309 6.67556C1.83309 6.67556 1.83309 6.67556 1.83309 6.67556C1.83309 6.67556 1.83309 6.67556 1.83309 6.67556C1.83309 6.67556 1.83309 6.67556 1.83309 6.67556C1.83309 6.67556 1.83309 6.67556 1.83309 6.67556C1.83309 6.67556 1.83309 6.67556 1.83309 6.67556C1.83309 6.67556 1.83309 6.67556 1.83309 6.67556C1.83309 6.67556 1.83309 6.67556 1.83309 6.67556C1.83309 6.67556 1.83309 6.67556 1.83309 6.67556C1.83309 6.67556 1.83309 6.67556 1.83309 6.67556C1.83309 6.67556 1.83309 6.67556 1.83309 6.67556C1.83309 6.67556 1.83309 6.67556 1.83309 6.67556C1.83309 6.67556 1.83309 6.67556 1.83309 6.67556C1.83309 6.67556 1.83309 6.67556 1.83309 6.67556C1.83309 6.67556 1.83309 6.67556 1.83309 6.67556C1.83309 6.67556 1.83309 6.67556 1.83309 6.67556C1.83309 6.67556 1.83309 6.67556 1.83309 6.67556C1.83309 6.67556 1.83309 6.67556 1.83309 6.67556C1.83309 6.67556 1.83309 6.67557 1.83309 6.67557C1.83309 6.67557 1.83309 6.67557 1.83309 6.67557C1.83309 6.67557 1.83309 6.67557 1.83309 6.67557C1.83309 6.67557 1.83309 6.67557 1.83309 6.67557C1.83309 6.67557 1.83309 6.67557 1.83309 6.67557C1.83309 6.67557 1.83309 6.67557 1.83309 6.67557C1.83309 6.67557 1.83309 6.67557 1.83309 6.67557C1.83309 6.67557 1.83309 6.67557 1.8331 6.67557C1.8331 6.67557 1.8331 6.67557 1.8331 6.67557C1.8331 6.67557 1.8331 6.67557 1.8331 6.67557C1.8331 6.67557 1.8331 6.67557 1.8331 6.67557C1.8331 6.67557 1.8331 6.67557 1.8331 6.67557C1.8331 6.67557 1.8331 6.67557 1.8331 6.67557C1.8331 6.67557 1.8331 6.67557 1.8331 6.67557C1.8331 6.67557 1.8331 6.67557 1.8331 6.67557C1.8331 6.67557 1.8331 6.67557 1.8331 6.67557C1.8331 6.67557 1.8331 6.67557 1.8331 6.67557C1.8331 6.67557 1.8331 6.67557 1.8331 6.67557C1.8331 6.67557 1.8331 6.67557 1.8331 6.67557C1.8331 6.67557 1.8331 6.67557 1.8331 6.67557C1.8331 6.67557 1.8331 6.67557 1.8331 6.67557C1.8331 6.67557 1.8331 6.67557 1.8331 6.67557C1.8331 6.67557 1.8331 6.67557 1.8331 6.67557C1.8331 6.67557 1.8331 6.67557 1.8331 6.67557C1.8331 6.67557 1.8331 6.67557 1.8331 6.67557C1.8331 6.67557 1.8331 6.67557 1.8331 6.67557C1.8331 6.67557 1.8331 6.67557 1.8331 6.67557C1.8331 6.67557 1.8331 6.67557 1.8331 6.67557C1.8331 6.67557 1.8331 6.67557 1.8331 6.67557C1.8331 6.67557 1.8331 6.67557 1.8331 6.67557C1.8331 6.67557 1.8331 6.67557 1.8331 6.67557C1.8331 6.67557 1.8331 6.67557 1.8331 6.67557C1.8331 6.67557 1.8331 6.67557 1.8331 6.67557C1.8331 6.67557 1.8331 6.67557 1.8331 6.67557C1.8331 6.67557 1.8331 6.67557 1.8331 6.67557C1.8331 6.67557 1.8331 6.67557 1.8331 6.67557C1.8331 6.67557 1.8331 6.67557 1.8331 6.67557C1.8331 6.67557 1.8331 6.67557 1.8331 6.67557C1.8331 6.67557 1.8331 6.67557 1.8331 6.67557C1.8331 6.67557 1.8331 6.67557 1.8331 6.67557C1.8331 6.67557 1.8331 6.67557 1.8331 6.67557C1.8331 6.67557 1.8331 6.67557 1.8331 6.67557C1.8331 6.67557 1.8331 6.67557 1.8331 6.67557C1.8331 6.67557 1.8331 6.67557 1.8331 6.67557C1.8331 6.67557 1.8331 6.67557 1.8331 6.67557C1.8331 6.67557 1.8331 6.67557 1.8331 6.67557C1.8331 6.67557 1.8331 6.67557 1.8331 6.67557C1.8331 6.67557 1.8331 6.67557 1.8331 6.67557C1.8331 6.67557 1.8331 6.67557 1.8331 6.67557C1.8331 6.67557 1.8331 6.67557 1.8331 6.67557C1.8331 6.67557 1.8331 6.67557 1.8331 6.67557C1.8331 6.67557 1.8331 6.67557 1.8331 6.67557C1.8331 6.67557 1.8331 6.67557 1.8331 6.67557C1.8331 6.67557 1.8331 6.67557 1.8331 6.67557C1.8331 6.67557 1.8331 6.67557 1.8331 6.67557C1.8331 6.67557 1.8331 6.67557 1.8331 6.67557C1.8331 6.67557 1.8331 6.67557 1.8331 6.67557C1.8331 6.67557 1.8331 6.67557 1.8331 6.67557C1.8331 6.67557 1.8331 6.67557 1.8331 6.67557C1.8331 6.67557 1.8331 6.67557 1.8331 6.67557C1.8331 6.67557 1.8331 6.67557 1.8331 6.67557C1.8331 6.67557 1.8331 6.67558 1.8331 6.67558C1.8331 6.67558 1.8331 6.67558 1.8331 6.67558C1.8331 6.67558 1.8331 6.67558 1.8331 6.67558C1.8331 6.67558 1.8331 6.67558 1.8331 6.67558C1.8331 6.67558 1.8331 6.67558 1.8331 6.67558C1.8331 6.67558 1.8331 6.67558 1.8331 6.67558C1.83311 6.67558 1.83311 6.67558 1.83311 6.67558C1.83311 6.67558 1.83311 6.67558 1.83311 6.67558C1.83311 6.67558 1.83311 6.67558 1.83311 6.67558C1.83311 6.67558 1.83311 6.67558 1.83311 6.67558C1.83311 6.67558 1.83311 6.67558 1.83311 6.67558C1.83311 6.67558 1.83311 6.67558 1.83311 6.67558C1.83311 6.67558 1.83311 6.67558 1.83311 6.67558C1.83311 6.67558 1.83311 6.67558 1.83311 6.67558C1.83311 6.67558 1.83311 6.67558 1.83311 6.67558C1.83311 6.67558 1.83311 6.67558 1.83311 6.67558C1.83311 6.67558 1.83311 6.67558 1.83311 6.67558C1.83311 6.67558 1.83311 6.67558 1.83311 6.67558C1.83311 6.67558 1.83311 6.67558 1.83311 6.67558C1.83311 6.67558 1.83311 6.67558 1.83311 6.67558C1.83311 6.67558 1.83311 6.67558 1.83311 6.67558C1.83311 6.67558 1.83311 6.67558 1.83311 6.67558C1.83311 6.67558 1.83311 6.67558 1.83311 6.67558C1.83311 6.67558 1.83311 6.67558 1.83311 6.67558C1.83311 6.67558 1.83311 6.67558 1.83311 6.67558C1.83311 6.67558 1.83311 6.67558 1.83311 6.67558C1.83311 6.67558 1.83311 6.67558 1.83311 6.67558C1.83311 6.67558 1.83311 6.67558 1.83311 6.67558C1.83311 6.67558 1.83311 6.67558 1.83311 6.67558C1.83311 6.67558 1.83311 6.67558 1.83311 6.67558C1.83311 6.67558 1.83311 6.67558 1.83311 6.67558C1.83311 6.67558 1.83311 6.67558 1.83311 6.67558C1.83311 6.67558 1.83311 6.67558 1.83311 6.67558C1.83311 6.67558 1.83311 6.67558 1.83311 6.67558C1.83311 6.67558 1.83311 6.67558 1.83311 6.67558C1.83311 6.67558 1.83311 6.67558 1.83311 6.67558C1.83311 6.67558 1.83311 6.67558 1.83311 6.67558C1.83311 6.67558 1.83311 6.67558 1.83311 6.67558C1.83311 6.67558 1.83311 6.67558 1.83311 6.67558C1.83311 6.67558 1.83311 6.67558 1.83311 6.67558C1.83311 6.67558 1.83311 6.67558 1.83311 6.67558C1.83311 6.67558 1.83311 6.67558 1.83311 6.67558C1.83311 6.67558 1.83311 6.67558 1.83311 6.67558C1.83311 6.67558 1.83311 6.67558 1.83311 6.67558C1.83311 6.67558 1.83311 6.67558 1.83311 6.67558C1.83311 6.67558 1.83311 6.67558 1.83311 6.67558C1.83311 6.67558 1.83311 6.67558 1.83311 6.67558C1.83311 6.67558 1.83311 6.67558 1.83311 6.67558C1.83311 6.67558 1.83311 6.67558 1.83311 6.67558C1.83311 6.67558 1.83311 6.67558 1.83311 6.67558C1.83311 6.67559 1.83311 6.67559 1.83311 6.67559C1.83311 6.67559 1.83311 6.67559 1.83311 6.67559C1.83311 6.67559 1.83311 6.67559 1.83311 6.67559C1.83311 6.67559 1.83311 6.67559 1.83311 6.67559C1.83311 6.67559 1.83311 6.67559 1.83311 6.67559C1.83312 6.67559 1.83312 6.67559 1.83312 6.67559C1.83312 6.67559 1.83312 6.67559 1.83312 6.67559C1.83312 6.67559 1.83312 6.67559 1.83312 6.67559C1.83312 6.67559 1.83312 6.67559 1.83312 6.67559C1.83312 6.67559 1.83312 6.67559 1.83312 6.67559C1.83312 6.67559 1.83312 6.67559 1.83312 6.67559C1.83312 6.67559 1.83312 6.67559 1.83312 6.67559C1.83312 6.67559 1.83312 6.67559 1.83312 6.67559C1.83312 6.67559 1.83312 6.67559 1.83312 6.67559C1.83312 6.67559 1.83312 6.67559 1.83312 6.67559C1.83312 6.67559 1.83312 6.67559 1.83312 6.67559C1.83312 6.67559 1.83312 6.67559 1.83312 6.67559C1.83312 6.67559 1.83312 6.67559 1.83312 6.67559C1.83312 6.67559 1.83312 6.67559 1.83312 6.67559C1.83312 6.67559 1.83312 6.67559 1.83312 6.67559C1.83312 6.67559 1.83312 6.67559 1.83312 6.67559C1.83312 6.67559 1.83312 6.67559 1.83312 6.67559C1.83312 6.67559 1.83312 6.67559 1.83312 6.67559C1.83312 6.67559 1.83312 6.67559 1.83312 6.67559C1.83312 6.67559 1.83312 6.67559 1.83312 6.67559C1.83312 6.67559 1.83312 6.67559 1.83312 6.67559C1.83312 6.67559 1.83312 6.67559 1.83312 6.67559C1.83312 6.67559 1.83312 6.67559 1.83312 6.67559C1.83312 6.67559 1.83312 6.67559 1.83312 6.67559C1.83312 6.67559 1.83312 6.67559 1.83312 6.67559C1.83312 6.67559 1.83312 6.67559 1.83312 6.67559C1.83312 6.67559 1.83312 6.67559 1.83312 6.67559C1.83312 6.67559 1.83312 6.67559 1.83312 6.67559C1.83312 6.67559 1.83312 6.67559 1.83312 6.67559C1.83312 6.67559 1.83312 6.67559 1.83312 6.67559C1.83312 6.67559 1.83312 6.67559 1.83312 6.67559C1.83312 6.67559 1.83312 6.67559 1.83312 6.67559C1.83312 6.67559 1.83312 6.67559 1.83312 6.67559C1.83312 6.67559 1.83312 6.67559 1.83312 6.67559C1.83312 6.67559 1.83312 6.67559 1.83312 6.67559C1.83312 6.67559 1.83312 6.67559 1.83312 6.67559C1.83312 6.67559 1.83312 6.6756 1.83312 6.6756C1.83312 6.6756 1.83312 6.6756 1.83312 6.6756C1.83312 6.6756 1.83312 6.6756 1.83312 6.6756C1.83312 6.6756 1.83312 6.6756 1.83312 6.6756C1.83312 6.6756 1.83312 6.6756 1.83313 6.6756C1.83313 6.6756 1.83313 6.6756 1.83313 6.6756C1.83313 6.6756 1.83313 6.6756 1.83313 6.6756C1.83313 6.6756 1.83313 6.6756 1.83313 6.6756C1.83313 6.6756 1.83313 6.6756 1.83313 6.6756C1.83313 6.6756 1.83313 6.6756 1.83313 6.6756C1.83313 6.6756 1.83313 6.6756 1.83313 6.6756C1.83313 6.6756 1.83313 6.6756 1.83313 6.6756C1.83313 6.6756 1.83313 6.6756 1.83313 6.6756C1.83313 6.6756 1.83313 6.6756 1.83313 6.6756C1.83313 6.6756 1.83313 6.6756 1.83313 6.6756C1.83313 6.6756 1.83313 6.6756 1.83313 6.6756C1.83313 6.6756 1.83313 6.6756 1.83313 6.6756C1.83313 6.6756 1.83313 6.6756 1.83313 6.6756C1.83313 6.6756 1.83313 6.6756 1.83313 6.6756C1.83313 6.6756 1.83313 6.6756 1.83313 6.6756C1.83313 6.6756 1.83313 6.6756 1.83313 6.6756C1.83313 6.6756 1.83313 6.6756 1.83313 6.6756C1.83313 6.6756 1.83313 6.6756 1.83313 6.6756C1.83313 6.6756 1.83313 6.6756 1.83313 6.6756C1.83313 6.6756 1.83313 6.6756 1.83313 6.6756C1.83313 6.6756 1.83313 6.6756 1.83313 6.6756C1.83313 6.6756 1.83313 6.6756 1.83313 6.6756C1.83313 6.6756 1.83313 6.6756 1.83313 6.6756C1.83313 6.6756 1.83313 6.6756 1.83313 6.6756C1.83313 6.6756 1.83313 6.6756 1.83313 6.6756C1.83313 6.6756 1.83313 6.6756 1.83313 6.6756C1.83313 6.6756 1.83313 6.6756 1.83313 6.6756C1.83313 6.6756 1.83313 6.6756 1.83313 6.6756C1.83313 6.6756 1.83313 6.6756 1.83313 6.6756C1.83313 6.6756 1.83313 6.6756 1.83313 6.6756C1.83313 6.6756 1.83313 6.6756 1.83313 6.6756C1.83313 6.67561 1.83313 6.67561 1.83313 6.67561C1.83313 6.67561 1.83313 6.67561 1.83313 6.67561C1.83313 6.67561 1.83313 6.67561 1.83313 6.67561C1.83313 6.67561 1.83314 6.67561 1.83314 6.67561C1.83314 6.67561 1.83314 6.67561 1.83314 6.67561C1.83314 6.67561 1.83314 6.67561 1.83314 6.67561C1.83314 6.67561 1.83314 6.67561 1.83314 6.67561C1.83314 6.67561 1.83314 6.67561 1.83314 6.67561C1.83314 6.67561 1.83314 6.67561 1.83314 6.67561C1.83314 6.67561 1.83314 6.67561 1.83314 6.67561C1.83314 6.67561 1.83314 6.67561 1.83314 6.67561C1.83314 6.67561 1.83314 6.67561 1.83314 6.67561C1.83314 6.67561 1.83314 6.67561 1.83314 6.67561C1.83314 6.67561 1.83314 6.67561 1.83314 6.67561C1.83314 6.67561 1.83314 6.67561 1.83314 6.67561C1.83314 6.67561 1.83314 6.67561 1.83314 6.67561C1.83314 6.67561 1.83314 6.67561 1.83314 6.67561C1.83314 6.67561 1.83314 6.67561 1.83314 6.67561C1.83314 6.67561 1.83314 6.67561 1.83314 6.67561C1.83314 6.67561 1.83314 6.67561 1.83314 6.67561C1.83314 6.67561 1.83314 6.67561 1.83314 6.67561C1.83314 6.67561 1.83314 6.67561 1.83314 6.67561C1.83314 6.67561 1.83314 6.67561 1.83314 6.67561C1.83314 6.67561 1.83314 6.67561 1.83314 6.67561C1.83314 6.67561 1.83314 6.67561 1.83314 6.67561C1.83314 6.67561 1.83314 6.67561 1.83314 6.67561C1.83314 6.67561 1.83314 6.67561 1.83314 6.67561C1.83314 6.67561 1.83314 6.67561 1.83314 6.67561C1.83314 6.67561 1.83314 6.67561 1.83314 6.67561C1.83314 6.67561 1.83314 6.67561 1.83314 6.67561C1.83314 6.67561 1.83314 6.67561 1.83314 6.67562C1.83314 6.67562 1.83314 6.67562 1.83314 6.67562C1.83314 6.67562 1.83314 6.67562 1.83314 6.67562C1.83314 6.67562 1.83314 6.67562 1.83314 6.67562C1.83315 6.67562 1.83315 6.67562 1.83315 6.67562C1.83315 6.67562 1.83315 6.67562 1.83315 6.67562C1.83315 6.67562 1.83315 6.67562 1.83315 6.67562C1.83315 6.67562 1.83315 6.67562 1.83315 6.67562C1.83315 6.67562 1.83315 6.67562 1.83315 6.67562C1.83315 6.67562 1.83315 6.67562 1.83315 6.67562C1.83315 6.67562 1.83315 6.67562 1.83315 6.67562C1.83315 6.67562 1.83315 6.67562 1.83315 6.67562C1.83315 6.67562 1.83315 6.67562 1.83315 6.67562C1.83315 6.67562 1.83315 6.67562 1.83315 6.67562C1.83315 6.67562 1.83315 6.67562 1.83315 6.67562C1.83315 6.67562 1.83315 6.67562 1.83315 6.67562C1.83315 6.67562 1.83315 6.67562 1.83315 6.67562C1.83315 6.67562 1.83315 6.67562 1.83315 6.67562C1.83315 6.67562 1.83315 6.67562 1.83315 6.67562C1.83315 6.67562 1.83315 6.67562 1.83315 6.67562C1.83315 6.67562 1.83315 6.67562 1.83315 6.67562C1.83315 6.67562 1.83315 6.67562 1.83315 6.67562C1.83315 6.67562 1.83315 6.67562 1.83315 6.67562C1.83315 6.67562 1.83315 6.67562 1.83315 6.67562C1.83315 6.67562 1.83315 6.67562 1.83315 6.67562C1.83315 6.67562 1.83315 6.67562 1.83315 6.67562C1.83315 6.67562 1.83315 6.67562 1.83315 6.67562C1.83315 6.67562 1.83315 6.67562 1.83315 6.67562C1.83315 6.67562 1.83315 6.67563 1.83315 6.67563C1.83315 6.67563 1.83315 6.67563 1.83315 6.67563C1.83315 6.67563 1.83315 6.67563 1.83315 6.67563C1.83316 6.67563 1.83316 6.67563 1.83316 6.67563C1.83316 6.67563 1.83316 6.67563 1.83316 6.67563C1.83316 6.67563 1.83316 6.67563 1.83316 6.67563C1.83316 6.67563 1.83316 6.67563 1.83316 6.67563C1.83316 6.67563 1.83316 6.67563 1.83316 6.67563C1.83316 6.67563 1.83316 6.67563 1.83316 6.67563C1.83316 6.67563 1.83316 6.67563 1.83316 6.67563L3.24737 5.26142Z" fill="#4C4B4B" mask="url(#path-10-inside-5_7320_81272)"/>
  <path d="M16.9258 18.6492C16.9327 18.6422 16.9395 18.6349 16.946 18.6273M16.9258 18.6492L16.6626 18.3855L16.7396 18.452C16.7399 18.4517 16.7401 18.4515 16.7404 18.4512C16.7406 18.4509 16.7408 18.4507 16.741 18.4504M16.9258 18.6492L16.6589 18.3824L16.6529 18.3771L16.6528 18.3771L16.3611 18.1254M16.9258 18.6492C16.7832 18.7915 16.5552 18.8 16.4024 18.6688C16.2409 18.5302 16.2224 18.2869 16.3611 18.1254M16.946 18.6273L17.2752 16.3964L17.2752 16.3963L17.2752 16.3963L17.2752 16.3962L17.2457 16.012L17.2752 16.3962L17.2752 16.3963L17.2752 16.3963L17.2752 16.3964L17.2802 16.4612L17.3744 16.4537C17.3856 16.4344 17.3913 16.4116 17.3895 16.3876M16.946 18.6273C17.469 18.0211 17.7278 17.2309 17.6646 16.4327L16.946 18.6273ZM16.741 18.4504C17.2163 17.8987 17.4516 17.1801 17.3946 16.4541C17.3946 16.4539 17.3946 16.4537 17.3946 16.4535C17.3945 16.4531 17.3945 16.4526 17.3945 16.4521L17.3895 16.3876M16.741 18.4504C16.7816 18.4025 16.7759 18.3306 16.7281 18.2895C16.7281 18.2895 16.7281 18.2895 16.7281 18.2895C16.6826 18.2505 16.6148 18.2531 16.5725 18.2953L16.6431 18.366L16.6535 18.3764L16.6535 18.3764L16.654 18.3769L16.7404 18.4511C16.7406 18.4509 16.7408 18.4507 16.741 18.4504ZM17.3895 16.3876C17.3895 16.3876 17.3895 16.3876 17.3895 16.3876L17.3895 16.3876ZM16.3611 18.1254C16.7504 17.6741 16.9431 17.0858 16.896 16.4916L16.3611 18.1254Z" stroke="#4C4B4B"/>
  <mask id="path-13-inside-6_7320_81272" fill="white">
    <path d="M17.9694 18.935C18.1221 19.0661 18.35 19.0576 18.4925 18.9154C18.4995 18.9084 18.5063 18.9011 18.5128 18.8935C19.0358 18.2874 19.2945 17.4972 19.2313 16.699L19.2263 16.6331C19.2127 16.4207 19.0294 16.2596 18.817 16.2733C18.6046 16.2869 18.4435 16.4702 18.4571 16.6826C18.4574 16.6857 18.4576 16.6888 18.4578 16.6919L18.4629 16.7578C18.5099 17.352 18.3172 17.9403 17.9279 18.3916C17.7892 18.5531 17.8078 18.7964 17.9694 18.935Z"/>
  </mask>
  <path d="M17.9694 18.935L17.3181 19.6939L17.3181 19.6939L17.9694 18.935ZM18.4925 18.9154L19.1988 19.6233L19.1996 19.6225L18.4925 18.9154ZM18.5128 18.8935L19.2692 19.5477L19.2699 19.5468L18.5128 18.8935ZM19.2313 16.699L18.2342 16.7748L18.2344 16.778L19.2313 16.699ZM19.2263 16.6331L18.2283 16.6973L18.2292 16.7089L19.2263 16.6331ZM18.4571 16.6826L17.4592 16.7468L17.4594 16.7491L18.4571 16.6826ZM18.4578 16.6919L19.4549 16.6156L19.4549 16.6152L18.4578 16.6919ZM18.4629 16.7578L17.4658 16.834L17.466 16.8367L18.4629 16.7578ZM17.9279 18.3916L17.1707 17.7383L17.169 17.7403L17.9279 18.3916ZM17.3181 19.6939C17.8674 20.1653 18.6866 20.1343 19.1988 19.6233L17.7863 18.2074C18.0134 17.9808 18.3769 17.967 18.6206 18.1762L17.3181 19.6939ZM19.1996 19.6225C19.225 19.5971 19.2482 19.572 19.2692 19.5477L17.7564 18.2394C17.7644 18.2302 17.774 18.2197 17.7854 18.2083L19.1996 19.6225ZM19.2699 19.5468C19.9675 18.7384 20.3125 17.6845 20.2282 16.6201L18.2344 16.778C18.2766 17.3099 18.1042 17.8364 17.7557 18.2403L19.2699 19.5468ZM20.2284 16.6233L20.2234 16.5574L18.2292 16.7089L18.2342 16.7748L20.2284 16.6233ZM20.2242 16.569C20.1751 15.8054 19.5164 15.2262 18.7528 15.2753L18.8812 17.2712C18.5424 17.293 18.2502 17.036 18.2284 16.6973L20.2242 16.569ZM18.7528 15.2753C17.9893 15.3244 17.4101 15.9832 17.4592 16.7468L19.4551 16.6184C19.4769 16.9572 19.2199 17.2494 18.8812 17.2712L18.7528 15.2753ZM17.4594 16.7491C17.46 16.7581 17.4606 16.7662 17.4608 16.7686L19.4549 16.6152L19.4549 16.6161L17.4594 16.7491ZM17.4607 16.7681L17.4658 16.834L19.46 16.6816L19.4549 16.6156L17.4607 16.7681ZM17.466 16.8367C17.4919 17.1646 17.3856 17.4893 17.1707 17.7383L18.685 19.0448C19.2488 18.3913 19.5278 17.5394 19.4598 16.6789L17.466 16.8367ZM17.169 17.7403C16.6706 18.3211 16.7376 19.1957 17.3181 19.6939L18.6206 18.1762C18.878 18.3971 18.9079 18.7851 18.6867 19.0429L17.169 17.7403Z" fill="#4C4B4B" mask="url(#path-13-inside-6_7320_81272)"/>
</svg>