<svg viewBox="0 0 96 28" fill="none" xmlns="http://www.w3.org/2000/svg">
<g clip-path="url(#clip0_6480_27036)">
<path d="M24.223 0.00195312L22.8431 6.83556C22.8431 6.83556 22.7518 7.31251 22.7437 7.34215C21.6162 13.1275 19.5678 19.2336 14.9315 23.1974C11.6025 26.2181 6.00777 27.2771 2.5795 23.8333C1.01974 22.2705 0.31368 20.2064 0.273411 18.0857C0.255712 16.1257 0.747025 14.1949 1.69895 12.4835C1.77412 12.3542 1.84929 12.2141 1.92714 12.0955C2.00499 11.9769 2.12312 11.7829 2.22513 11.6347C2.32715 11.4865 2.43453 11.3356 2.54192 11.1928C2.86791 10.7654 3.22697 10.3644 3.61577 9.99368C3.84933 9.78349 4.08826 9.58409 4.33525 9.39816L4.5876 9.21762C4.80237 9.06403 5.01983 8.91582 5.24534 8.78109C5.35541 8.71372 5.47085 8.64636 5.58628 8.58707C5.70172 8.52779 5.81448 8.46312 5.9326 8.40384C5.85743 8.50624 5.77958 8.60863 5.70709 8.71103C5.46548 9.03708 5.23728 9.36583 5.03057 9.69996C4.82385 10.0341 4.60908 10.379 4.41579 10.732C4.4168 10.7401 4.4168 10.7482 4.41579 10.7563C4.35136 10.8721 4.28961 10.988 4.23323 11.1039C4.17686 11.2197 4.10974 11.3437 4.05068 11.4649C3.99162 11.5862 3.93256 11.7102 3.87618 11.8341C2.32983 14.7982 1.80365 19.3791 4.56881 21.6291C4.61445 21.6642 4.66814 21.6992 4.72989 21.7396C5.7581 22.4187 7.08699 22.5318 8.34071 22.2031C9.61611 21.8224 10.7539 21.0782 11.616 20.0608L11.6696 20.0043C13.2428 18.2312 14.2791 15.7656 14.8912 13.6853C15.3677 11.9375 15.7106 10.1556 15.9167 8.35534L12.8697 8.32839L24.223 0.00195312Z" fill="#1C0A52"/>
<path d="M22.978 28.0001V9.45289H26.9298V11.2098C27.3271 10.0376 28.8923 9.21307 30.9057 9.21307C31.7911 9.18973 32.6711 9.35844 33.4856 9.70769C34.3001 10.0569 35.03 10.5785 35.6253 11.2367C36.2523 11.8897 36.7439 12.6611 37.0715 13.5062C37.3992 14.3513 37.5564 15.2533 37.5341 16.1598C37.5742 17.9982 36.888 19.7777 35.6253 21.1099C35.0232 21.7598 34.2903 22.2737 33.4752 22.6175C32.6601 22.9613 31.7815 23.1271 30.8977 23.1039C28.8842 23.1039 27.3191 22.2794 26.9217 21.1099V28.0001H22.978ZM32.6024 18.5689C32.9219 18.2564 33.1738 17.8813 33.3424 17.4668C33.511 17.0523 33.5926 16.6074 33.5823 16.1598C33.5931 15.718 33.5112 15.2787 33.3419 14.8707C33.1726 14.4626 32.9198 14.0949 32.5997 13.7913C32.2862 13.4691 31.9098 13.2154 31.494 13.0462C31.0782 12.8769 30.6321 12.7957 30.1836 12.8077C29.7239 12.7962 29.2666 12.8772 28.8386 13.0462C28.4107 13.2151 28.0209 13.4685 27.6922 13.7913C27.3689 14.0936 27.1122 14.4605 26.9388 14.8685C26.7654 15.2764 26.6791 15.7164 26.6855 16.1598C26.6819 16.6069 26.7693 17.05 26.9425 17.4619C27.1156 17.8739 27.3707 18.246 27.6922 18.5554C28.366 19.1935 29.2628 19.54 30.1889 19.5201C30.635 19.5292 31.0784 19.4486 31.493 19.2829C31.9075 19.1172 32.2847 18.8699 32.6024 18.5554V18.5689Z" fill="#1C0A52"/>
<path d="M48.4038 11.2112V4.31836H52.3556V22.8656H48.4038V21.1114C48.0065 22.2808 46.4413 23.1054 44.4279 23.1054C43.5417 23.1249 42.6614 22.9575 41.8438 22.614C41.0262 22.2705 40.2895 21.7586 39.6814 21.1114C38.4382 19.769 37.7642 17.9937 37.8022 16.1613C37.7595 14.3361 38.4346 12.5675 39.6814 11.2382C40.2837 10.5815 41.0186 10.0613 41.8371 9.71232C42.6556 9.36335 43.5388 9.19364 44.4279 9.21452C46.4413 9.21452 48.0065 10.0391 48.4038 11.2112ZM47.5984 18.5568C47.9284 18.2526 48.191 17.8821 48.3691 17.4694C48.5471 17.0567 48.6367 16.611 48.632 16.1613C48.6394 15.7151 48.551 15.2726 48.3726 14.8638C48.1942 14.4551 47.9302 14.0898 47.5984 13.7927C47.2761 13.4681 46.8908 13.2133 46.4664 13.0441C46.0421 12.8749 45.5876 12.795 45.1312 12.8092C44.6827 12.7972 44.2366 12.8784 43.8208 13.0476C43.405 13.2169 43.0286 13.4705 42.7151 13.7927C42.395 14.0963 42.1422 14.4641 41.9729 14.8721C41.8036 15.2802 41.7217 15.7194 41.7325 16.1613C41.7243 16.6068 41.8073 17.0493 41.9763 17.4613C42.1454 17.8734 42.3968 18.2462 42.7151 18.5568C43.0337 18.8702 43.4117 19.1163 43.8267 19.2806C44.2417 19.4449 44.6853 19.524 45.1312 19.5134C45.5869 19.5277 46.0408 19.4504 46.4663 19.2861C46.8919 19.1218 47.2804 18.8739 47.6091 18.5568H47.5984Z" fill="#350ABC"/>
<path d="M65.4262 11.1311C66.1279 11.7632 66.6854 12.5399 67.0607 13.4082C67.436 14.2764 67.6202 15.2157 67.6007 16.1619C67.6177 17.1114 67.4325 18.0535 67.0575 18.9253C66.6825 19.7971 66.1263 20.5784 65.4262 21.2171C64.011 22.5629 62.127 23.299 60.1777 23.2677C58.2195 23.3046 56.3251 22.5682 54.9024 21.2171C54.2106 20.5733 53.6617 19.7904 53.2917 18.9193C52.9216 18.0483 52.7387 17.1087 52.7547 16.1619C52.7359 15.2183 52.9178 14.2815 53.2881 13.414C53.6584 12.5465 54.2088 11.7682 54.9024 11.1311C55.6025 10.4538 56.4288 9.92191 57.3341 9.56586C58.2393 9.20981 59.2057 9.03661 60.1777 9.05618C62.132 9.02236 64.0198 9.76864 65.4262 11.1311ZM57.7106 18.676C58.0314 19.0045 58.4157 19.2636 58.84 19.4374C59.2643 19.6112 59.7196 19.696 60.1777 19.6865C60.6354 19.6956 61.0902 19.6106 61.514 19.4369C61.9378 19.2631 62.3217 19.0042 62.6422 18.676C62.9697 18.3462 63.2277 17.9537 63.4011 17.5218C63.5745 17.0899 63.6597 16.6275 63.6516 16.1619C63.661 15.7021 63.5766 15.2451 63.4034 14.8193C63.2303 14.3934 62.9722 14.0076 62.6449 13.6856C62.3293 13.3491 61.9469 13.083 61.5224 12.9043C61.0979 12.7255 60.6407 12.6383 60.1804 12.6481C59.7197 12.6381 59.2621 12.7252 58.8371 12.9039C58.4121 13.0826 58.0292 13.3489 57.7132 13.6856C57.386 14.0076 57.1279 14.3934 56.9547 14.8193C56.7816 15.2451 56.6971 15.7021 56.7065 16.1619C56.6969 16.6252 56.7809 17.0856 56.9535 17.5154C57.1261 17.9452 57.3836 18.3354 57.7106 18.6626V18.676Z" fill="#350ABC"/>
<path d="M68.1831 22.8644V9.45313H72.1349V11.1292C72.6906 9.95972 74.202 9.16211 76.0303 9.16211C79.2921 9.16211 81.1472 11.237 81.1472 14.7238V22.8644H77.1981V15.2089C77.1981 13.6406 76.3229 12.6813 74.7578 12.6813C74.4076 12.6694 74.0588 12.7304 73.7332 12.8604C73.4077 12.9904 73.1125 13.1865 72.8661 13.4366C72.6198 13.6866 72.4276 13.9852 72.3018 14.3133C72.1759 14.6415 72.1191 14.9923 72.1349 15.3436V22.8724L68.1831 22.8644Z" fill="#350ABC"/>
<path d="M81.6382 16.1284C81.6382 14.0266 82.3281 12.3236 83.6812 11.0464C85.0342 9.76909 86.7819 9.10352 88.8759 9.10352C90.9189 9.10352 92.5619 9.76909 93.8344 11.0733C94.4633 11.7099 94.9568 12.468 95.2849 13.3018C95.613 14.1356 95.7689 15.0276 95.7432 15.9236C95.7432 16.3763 95.7164 16.8021 95.6895 17.2009H85.5765C85.6544 18.7961 87.0343 19.8363 89.1283 19.8363C90.3448 19.8525 91.518 19.3834 92.3901 18.5321L94.6962 20.739C93.9599 21.5266 93.0678 22.1513 92.0772 22.5731C91.0865 22.9949 90.019 23.2045 88.943 23.1884C86.7417 23.1884 84.9913 22.5498 83.6409 21.3022C82.2905 20.0545 81.6382 18.338 81.6382 16.2335V16.1284ZM91.7673 14.6114C91.7673 13.361 90.4679 12.3775 88.8759 12.3775C87.1524 12.3775 85.7483 13.361 85.641 14.6114H91.7673Z" fill="#350ABC"/>
<path d="M11.6684 19.9991C9.95564 22.5833 7.44015 23.8282 4.85485 23.195C1.96083 22.4971 0.631937 20.6216 0.290989 18.0752C0.27329 16.1152 0.764603 14.1844 1.71653 12.473C1.7917 12.3437 1.86686 12.2035 1.94472 12.085C2.02257 11.9664 2.1407 11.7724 2.24271 11.6242C2.34473 11.476 2.45211 11.3251 2.5595 11.1823C2.88549 10.7549 3.24455 10.3539 3.63335 9.98316C3.86691 9.77298 4.10584 9.57357 4.35283 9.38764L4.60518 9.2071C4.81995 9.05351 5.04278 8.9053 5.2656 8.76787C5.37567 8.70051 5.49111 8.63314 5.60655 8.57386C5.72199 8.51458 5.83474 8.44991 5.95287 8.39062C5.8777 8.49302 5.79984 8.59542 5.72736 8.69781L5.49648 9.0077C5.33809 9.23135 5.18506 9.4577 5.03741 9.68944C4.82264 10.0263 4.61861 10.3685 4.42263 10.7215C4.42364 10.7295 4.42364 10.7377 4.42263 10.7457C4.36088 10.8616 4.29645 10.9775 4.24007 11.0933C4.1837 11.2092 4.11658 11.3332 4.05752 11.4544C3.99846 11.5757 3.9394 11.6996 3.88302 11.8236C2.33667 14.7877 1.81049 19.3686 4.57565 21.6186C4.62129 21.6536 4.67498 21.6887 4.73673 21.7291C5.76494 22.4081 7.09383 22.5213 8.34755 22.1926C9.61939 21.812 10.7542 21.0698 11.6147 20.0557L11.6684 19.9991Z" fill="#350ABC"/>
</g>
<defs>
<clipPath id="clip0_6480_27036">
<rect width="95.4546" height="28" fill="white" transform="translate(0.272705)"/>
</clipPath>
</defs>
</svg>
