<svg xmlns="http://www.w3.org/2000/svg" viewBox="0 0 173 276" fill="none">
    <path d="M172.015 195.522C172.197 170.759 162.408 151.175 142.883 137.345C127.803 126.697 109.502 121.142 91.802 115.804C54.9294 104.626 44.2331 98.7383 44.2331 81.1053C44.2331 61.4641 69.7584 54.4757 91.61 54.4757C107.524 54.4757 125.833 59.4236 137.203 66.7564L159.745 31.8448C144.885 22.2112 124.547 15.6401 104.463 13.6006V-19H62.8799V15.8866C25.9158 24.0181 2.6304 48.1769 2.6304 81.1053C2.6304 104.166 12.2133 122.455 31.0586 135.354C45.3918 145.202 62.8725 150.49 79.7586 155.609C115.926 166.541 130.613 173.203 130.446 195.264L130.445 195.426C130.445 213.943 105.906 220.525 84.8838 220.525C65.0256 220.525 43.4307 211.822 31.1897 198.882L0.980469 227.457C16.4826 243.853 39.0054 255.445 62.879 259.989V294.001H104.463V260.721C145.538 254.841 171.974 230.113 172.015 195.522Z" fill="#F1EEFF" />
</svg>