<svg width="14" height="14" viewBox="0 0 14 14" fill="none" xmlns="http://www.w3.org/2000/svg">
    <g clip-path="url(#clip0_165_9205)">
        <path d="M11.4794 0.259709C11.1163 -0.0853685 10.5424 -0.0714008 10.1965 0.290885L8.77115 1.78721C7.6843 1.62184 6.58091 1.95638 5.76887 2.69745L5.762 2.69097C5.65833 2.59222 5.49422 2.59621 5.39547 2.69988C5.39547 2.69988 5.39547 2.69988 5.39544 2.69991L4.98548 3.13019C4.85663 3.26468 4.78695 3.44516 4.79201 3.63134C4.7933 3.67989 4.77519 3.72698 4.74161 3.76207L4.73818 3.76567C3.74258 4.81127 2.85247 5.95245 2.08074 7.17266L0.685625 9.37998C0.455498 9.74583 0.51448 10.2231 0.826793 10.5219L3.43636 13.0076C3.74994 13.305 4.22951 13.3408 4.58375 13.0931L6.72065 11.5923C7.90188 10.7623 8.9984 9.81787 9.99435 8.77279L9.99779 8.76923C10.0314 8.73413 10.0775 8.71371 10.1261 8.71238C10.3123 8.70833 10.4892 8.63 10.6173 8.4948L11.0272 8.06436C11.126 7.96069 11.122 7.79657 11.0184 7.69783C11.0184 7.69783 11.0184 7.69783 11.0183 7.6978L11.0115 7.69131C11.7123 6.84421 11.9928 5.72582 11.7748 4.64823L13.2001 3.1519C13.5452 2.78881 13.5312 2.2149 13.1689 1.86898L11.4794 0.259709ZM10.8441 0.52785C10.9473 0.524706 11.0474 0.563369 11.1217 0.635055L12.8113 2.24449C12.9665 2.39275 12.9725 2.63869 12.8246 2.79435L12.7352 2.88833L10.4825 0.742389L10.572 0.648407C10.6429 0.57348 10.7409 0.530054 10.8441 0.52785ZM12.1987 3.45122L9.9461 1.30563L10.1249 1.11793L12.3776 3.26371L12.1987 3.45122ZM11.4835 4.20227L9.23083 2.05649L9.58844 1.68101L11.8413 3.82695L11.4835 4.20227ZM10.2418 8.13718C10.2083 8.1725 10.1621 8.19295 10.1135 8.19399C9.92736 8.19798 9.75055 8.27627 9.6225 8.41141L9.61907 8.41501C8.64668 9.43543 7.57602 10.3576 6.42273 11.1679L4.28583 12.6688C4.13403 12.775 3.92847 12.7597 3.79408 12.6322L1.18441 10.1465C1.05063 10.0183 1.02542 9.81386 1.12407 9.6571L2.51935 7.44984C3.27267 6.25854 4.14158 5.14439 5.11346 4.12352L5.11689 4.11992C5.24571 3.98543 5.31536 3.80498 5.31034 3.6188C5.30904 3.57016 5.32722 3.52303 5.36089 3.4879L5.59205 3.2452L10.473 7.89445L10.2418 8.13718ZM10.6352 7.33282L8.91893 5.69808L6.14516 3.05594C6.85259 2.42545 7.8079 2.15008 8.74238 2.30732L11.2567 4.70225C11.4591 5.62798 11.2305 6.59554 10.6352 7.33282Z" fill="#2C2240" />
        <path d="M7.81565 2.69115C7.53341 2.78883 7.2642 2.92076 7.01408 3.08393C6.89417 3.16219 6.8604 3.32284 6.93867 3.44275C7.01693 3.56266 7.17758 3.59642 7.29748 3.51816C7.51209 3.37813 7.74303 3.26493 7.98518 3.18112C8.12051 3.13429 8.19223 2.98667 8.14543 2.85134C8.09864 2.716 7.95099 2.64425 7.81565 2.69108V2.69115Z" fill="#2C2240" />
        <path d="M4.11527 6.49338C4.00025 6.40812 3.83786 6.43223 3.75259 6.54728C3.43137 6.9807 3.12233 7.43165 2.83409 7.88763C2.75758 8.00867 2.79368 8.1688 2.91472 8.24531C3.03577 8.32183 3.19589 8.28572 3.27241 8.16468C3.5538 7.7195 3.85555 7.27921 4.16919 6.85603C4.25443 6.74098 4.23028 6.57865 4.11527 6.49338Z" fill="#2C2240" />
        <path d="M4.93154 5.47957C4.82184 5.38757 4.65834 5.40189 4.56631 5.51156C4.50995 5.57874 4.45401 5.64625 4.3985 5.71408C4.30779 5.82488 4.32409 5.98825 4.43493 6.07892C4.54576 6.1696 4.70909 6.15333 4.79977 6.0425C4.85396 5.97626 4.90856 5.91037 4.96359 5.84481C5.0556 5.73514 5.04127 5.57161 4.93154 5.47957Z" fill="#2C2240" />
        <path d="M4.92703 2.00983C4.99797 2.00993 5.06584 1.98086 5.11474 1.92946L5.14549 1.89705C5.42132 1.60596 5.80217 1.43731 6.20309 1.42876C6.34626 1.42526 6.45953 1.30635 6.45603 1.16318C6.45253 1.02 6.33363 0.906735 6.19045 0.910235C5.65203 0.92187 5.14063 1.1484 4.77024 1.53937L4.73959 1.57155C4.64078 1.67519 4.6447 1.8393 4.74834 1.93808C4.79653 1.98403 4.8606 2.00967 4.9272 2.0097L4.92703 2.00983Z" fill="#2C2240" />
        <path d="M5.88468 0.260657C5.88082 0.117706 5.76218 0.004733 5.6192 0.00787654C5.08074 0.0195109 4.56932 0.246041 4.1989 0.63704L4.16821 0.669253C4.06946 0.772925 4.07345 0.937038 4.17712 1.03582C4.28079 1.13456 4.4449 1.13058 4.54368 1.0269L4.57437 0.994691C4.85013 0.703573 5.23092 0.534891 5.6318 0.526238C5.77495 0.52277 5.88818 0.403899 5.88468 0.260754C5.88468 0.260689 5.88468 0.260689 5.88468 0.260657Z" fill="#2C2240" />
        <path d="M8.10327 12.0332C7.99457 11.94 7.83091 11.9525 7.73771 12.0612L7.70877 12.0949C7.4485 12.4 7.07701 12.5882 6.67714 12.6176C6.53435 12.6285 6.4274 12.753 6.43826 12.8958C6.44853 13.0309 6.56108 13.1353 6.69658 13.1354C6.70322 13.1354 6.7099 13.1352 6.71661 13.1346C7.25377 13.0951 7.75275 12.8423 8.10236 12.4325L8.1313 12.3988C8.22451 12.2901 8.21196 12.1264 8.10327 12.0332Z" fill="#2C2240" />
        <path d="M7.0574 13.7703C7.06771 13.9053 7.1802 14.0096 7.31563 14.0098C7.32227 14.0098 7.32895 14.0095 7.33566 14.0091C7.87278 13.9695 8.37176 13.7167 8.72135 13.3069L8.75032 13.2732C8.84485 13.1657 8.83432 13.0019 8.72679 12.9073C8.61926 12.8128 8.45544 12.8233 8.36091 12.9308C8.35955 12.9324 8.35818 12.934 8.35682 12.9356L8.32785 12.9693C8.06755 13.2744 7.69606 13.4626 7.29618 13.492C7.1534 13.5029 7.04652 13.6275 7.0574 13.7703Z" fill="#2C2240" />
    </g>
    <defs>
        <clipPath id="clip0_165_9205">
            <rect width="14" height="14" fill="white" />
        </clipPath>
    </defs>
</svg>