<svg viewBox="0 0 21 20" fill="none" xmlns="http://www.w3.org/2000/svg">
    <g clip-path="url(#clip0_1_6605)">
        <path d="M3.41649 5C2.85982 5 2.33649 4.78333 1.94316 4.39L0.638989 3.2275C0.466489 3.07416 0.451489 2.81083 0.604823 2.63916C0.758156 2.46666 1.02149 2.4525 1.19316 2.605L2.51482 3.78333C3.02149 4.2875 3.82816 4.27166 4.29982 3.8L7.29566 0.947498C7.46149 0.789998 7.72482 0.794998 7.88482 0.962498C8.04316 1.12916 8.03732 1.39333 7.86982 1.55166L4.88149 4.39666C4.49566 4.7825 3.97316 5 3.41649 5ZM20.4998 3.75C20.4998 3.52 20.3132 3.33333 20.0832 3.33333H10.9165C10.6865 3.33333 10.4998 3.52 10.4998 3.75C10.4998 3.98 10.6865 4.16666 10.9165 4.16666H20.0832C20.3132 4.16666 20.4998 3.98 20.4998 3.75ZM4.88232 11.0633L7.87066 8.21833C8.03732 8.06 8.04399 7.79583 7.88566 7.62916C7.72566 7.4625 7.46232 7.45583 7.29649 7.61416L4.30066 10.4667C3.82899 10.9383 3.00482 10.9383 2.53316 10.4667L1.21149 9.14583C1.04899 8.98333 0.784823 8.98333 0.622323 9.14583C0.459823 9.30833 0.459823 9.5725 0.622323 9.735L1.94399 11.0558C2.33732 11.4492 2.86066 11.6658 3.41732 11.6658C3.97399 11.6658 4.49732 11.4492 4.88316 11.0625L4.88232 11.0633ZM20.4998 10.4167C20.4998 10.1867 20.3132 10 20.0832 10H10.9165C10.6865 10 10.4998 10.1867 10.4998 10.4167C10.4998 10.6467 10.6865 10.8333 10.9165 10.8333H20.0832C20.3132 10.8333 20.4998 10.6467 20.4998 10.4167ZM4.88232 17.73L7.87066 14.885C8.03732 14.7267 8.04399 14.4625 7.88566 14.2958C7.72566 14.1292 7.46232 14.1233 7.29649 14.2808L4.30066 17.1333C3.82899 17.605 3.02232 17.6217 2.51566 17.1167L1.19399 15.9383C1.02232 15.785 0.759823 15.8 0.605656 15.9725C0.451489 16.145 0.467323 16.4075 0.639823 16.5608L1.94399 17.7233C2.33732 18.1167 2.86066 18.3333 3.41732 18.3333C3.97399 18.3333 4.49732 18.1167 4.88316 17.73H4.88232ZM20.4998 17.0833C20.4998 16.8533 20.3132 16.6667 20.0832 16.6667H10.9165C10.6865 16.6667 10.4998 16.8533 10.4998 17.0833C10.4998 17.3133 10.6865 17.5 10.9165 17.5H20.0832C20.3132 17.5 20.4998 17.3133 20.4998 17.0833Z" fill="#6B6B6B"/>
    </g>
    <defs>
        <clipPath id="clip0_1_6605">
            <rect width="20" height="20" fill="white" transform="translate(0.5)"/>
        </clipPath>
    </defs>
</svg>