<svg viewBox="0 0 97 20" fill="none" xmlns="http://www.w3.org/2000/svg">
    <rect y="0.5" width="97" height="19" rx="2" fill="#E7FFE5"/>
    <g clip-path="url(#clip0_90_1336)">
        <path d="M16.7498 6.66663H9.24984C8.7896 6.66663 8.4165 7.03972 8.4165 7.49996V12.5C8.4165 12.9602 8.7896 13.3333 9.24984 13.3333H16.7498C17.2101 13.3333 17.5832 12.9602 17.5832 12.5V7.49996C17.5832 7.03972 17.2101 6.66663 16.7498 6.66663Z" stroke="#0C9000" stroke-width="0.8" stroke-linecap="round" stroke-linejoin="round"/>
        <path d="M8.4165 9.16663H17.5832" stroke="#0C9000" stroke-width="0.916667" stroke-linecap="round" stroke-linejoin="round"/>
    </g>
    <path d="M23.38 12.54L25.57 6.53H26.53L23.9 13.5H22.85L20.22 6.53H21.19L23.38 12.54ZM29.6578 8.7C28.7678 8.7 28.0278 9.29 27.9278 10.36H31.3878C31.3978 9.29 30.5978 8.7 29.6578 8.7ZM32.2178 11.81C31.9378 12.81 31.0578 13.59 29.6978 13.59C28.1378 13.59 26.9878 12.49 26.9878 10.75C26.9878 9.02 28.0978 7.93 29.6978 7.93C31.2878 7.93 32.3278 9.05 32.3278 10.55C32.3278 10.75 32.3178 10.91 32.2978 11.1H27.9178C27.9878 12.21 28.7678 12.82 29.6978 12.82C30.5178 12.82 31.0378 12.4 31.2378 11.81H32.2178ZM34.239 10.52V13.5H33.329V8.02H34.239V8.91C34.549 8.3 35.139 7.92 36.009 7.92V8.86H35.769C34.899 8.86 34.239 9.25 34.239 10.52ZM36.8595 13.5V8.02H37.7695V13.5H36.8595ZM37.3295 7.13C36.9795 7.13 36.7095 6.86 36.7095 6.51C36.7095 6.16 36.9795 5.89 37.3295 5.89C37.6595 5.89 37.9295 6.16 37.9295 6.51C37.9295 6.86 37.6595 7.13 37.3295 7.13ZM39.2904 13.5V8.77H38.5804V8.02H39.2904V7.63C39.2904 6.41 39.8904 5.86 41.2904 5.86V6.62C40.4704 6.62 40.2004 6.92 40.2004 7.63V8.02H41.3504V8.77H40.2004V13.5H39.2904ZM42.2114 13.5V8.02H43.1214V13.5H42.2114ZM42.6814 7.13C42.3314 7.13 42.0614 6.86 42.0614 6.51C42.0614 6.16 42.3314 5.89 42.6814 5.89C43.0114 5.89 43.2814 6.16 43.2814 6.51C43.2814 6.86 43.0114 7.13 42.6814 7.13ZM46.8023 8.7C45.9123 8.7 45.1723 9.29 45.0723 10.36H48.5323C48.5423 9.29 47.7423 8.7 46.8023 8.7ZM49.3623 11.81C49.0823 12.81 48.2023 13.59 46.8423 13.59C45.2823 13.59 44.1323 12.49 44.1323 10.75C44.1323 9.02 45.2423 7.93 46.8423 7.93C48.4323 7.93 49.4723 9.05 49.4723 10.55C49.4723 10.75 49.4623 10.91 49.4423 11.1H45.0623C45.1323 12.21 45.9123 12.82 46.8423 12.82C47.6623 12.82 48.1823 12.4 48.3823 11.81H49.3623ZM50.1335 10.74C50.1335 9.03 51.2635 7.93 52.7435 7.93C53.6035 7.93 54.3935 8.37 54.7735 9V6.1H55.6935V13.5H54.7735V12.47C54.4435 13.08 53.7335 13.59 52.7335 13.59C51.2635 13.59 50.1335 12.44 50.1335 10.74ZM54.7735 10.75C54.7735 9.48 53.9135 8.72 52.9135 8.72C51.9135 8.72 51.0635 9.45 51.0635 10.74C51.0635 12.03 51.9135 12.79 52.9135 12.79C53.9135 12.79 54.7735 12.04 54.7735 10.75ZM59.4973 13.5V6.53H60.4073V13.5H59.4973ZM63.9283 6.53C66.2183 6.53 67.6283 7.87 67.6283 10.03C67.6283 12.19 66.2183 13.5 63.9283 13.5H61.7583V6.53H63.9283ZM62.6683 12.75H63.9283C65.7483 12.75 66.6983 11.73 66.6983 10.03C66.6983 8.33 65.7483 7.27 63.9283 7.27H62.6683V12.75Z" fill="#0C9000"/>
    <path d="M87.1668 7.25L82.1252 12.2917L79.8335 10" stroke="#0C9000" stroke-width="0.8" stroke-linecap="round" stroke-linejoin="round"/>
    <defs>
        <clipPath id="clip0_90_1336">
            <rect width="10" height="10" fill="white" transform="translate(8 5)"/>
        </clipPath>
    </defs>
</svg>