<svg xmlns="http://www.w3.org/2000/svg" width="20" height="21" viewBox="0 0 20 21" fill="none">
    <g opacity="0.8">
        <path d="M18.3332 14.742V17.242C18.3341 17.4741 18.2866 17.7038 18.1936 17.9165C18.1006 18.1291 17.9643 18.32 17.7933 18.4769C17.6222 18.6338 17.4203 18.7532 17.2005 18.8276C16.9806 18.9019 16.7477 18.9296 16.5165 18.9087C13.9522 18.63 11.489 17.7538 9.32486 16.3503C7.31139 15.0709 5.60431 13.3638 4.32486 11.3503C2.91651 9.17634 2.04007 6.70117 1.76653 4.12534C1.7457 3.8949 1.77309 3.66264 1.84695 3.44336C1.9208 3.22408 2.03951 3.02258 2.1955 2.85169C2.3515 2.6808 2.54137 2.54427 2.75302 2.45078C2.96468 2.35729 3.19348 2.30889 3.42486 2.30867H5.92486C6.32928 2.30469 6.72136 2.44791 7.028 2.71162C7.33464 2.97533 7.53493 3.34155 7.59153 3.74201C7.69705 4.54206 7.89274 5.32761 8.17486 6.08367C8.28698 6.38194 8.31125 6.7061 8.24478 7.01774C8.17832 7.32938 8.02392 7.61543 7.79986 7.84201L6.74153 8.90034C7.92783 10.9866 9.65524 12.714 11.7415 13.9003L12.7999 12.842C13.0264 12.618 13.3125 12.4635 13.6241 12.3971C13.9358 12.3306 14.2599 12.3549 14.5582 12.467C15.3143 12.7491 16.0998 12.9448 16.8999 13.0503C17.3047 13.1074 17.6744 13.3113 17.9386 13.6233C18.2029 13.9352 18.3433 14.3333 18.3332 14.742Z" stroke="#2C2240" stroke-width="0.833333" stroke-linecap="round" stroke-linejoin="round" />
    </g>
</svg>